<svg xmlns="http://www.w3.org/2000/svg" width="183" height="105" viewBox="0 0 183 105">
<g>
<path d="M 28.35 93.07 C20.65,91.81 12.34,83.26 9.49,73.65 C6.69,64.22 4.39,65.00 35.00,65.00 L 62.00 65.00 L 62.00 60.00 L 62.00 55.00 L 40.00 55.00 L 18.00 55.00 L 18.00 59.00 C18.00,61.20 17.55,63.00 17.00,63.00 C16.45,63.00 16.00,60.75 16.00,58.00 L 16.00 53.00 L 21.50 53.00 L 27.00 53.00 L 27.00 40.47 L 27.00 27.94 L 39.75 28.22 L 52.50 28.50 L 52.78 40.75 L 53.06 53.00 L 58.53 53.00 L 64.00 53.00 L 64.00 59.00 L 64.00 65.00 L 115.25 65.02 C144.22,65.02 167.12,65.43 167.94,65.94 C169.63,67.01 170.58,65.62 156.70,82.25 L 146.90 94.00 L 89.70 93.87 C58.24,93.81 30.63,93.44 28.35,93.07 ZM 155.44 80.25 L 165.10 68.50 L 162.30 67.87 C160.76,67.52 126.09,67.18 85.25,67.12 L 11.00 67.00 L 11.00 69.77 C11.00,74.31 15.94,82.23 22.37,88.00 C26.10,91.34 31.53,91.63 95.14,91.84 L 145.77 92.00 L 155.44 80.25 ZM 48.50 52.00 C48.89,51.36 45.82,51.00 40.00,51.00 C34.18,51.00 31.11,51.36 31.50,52.00 C31.84,52.55 35.66,53.00 40.00,53.00 C44.34,53.00 48.16,52.55 48.50,52.00 ZM 48.50 47.00 C48.89,46.36 45.84,46.00 40.06,46.00 C34.69,46.00 31.00,46.41 31.00,47.00 C31.00,47.59 34.48,48.00 39.44,48.00 C44.08,48.00 48.16,47.55 48.50,47.00 ZM 48.00 42.00 C48.00,41.41 44.50,41.00 39.50,41.00 C34.50,41.00 31.00,41.41 31.00,42.00 C31.00,42.59 34.50,43.00 39.50,43.00 C44.50,43.00 48.00,42.59 48.00,42.00 ZM 48.00 37.00 C48.00,36.41 44.50,36.00 39.50,36.00 C34.50,36.00 31.00,36.41 31.00,37.00 C31.00,37.59 34.50,38.00 39.50,38.00 C44.50,38.00 48.00,37.59 48.00,37.00 ZM 49.50 32.00 C49.90,31.36 46.68,31.00 40.56,31.00 C34.85,31.00 31.00,31.40 31.00,32.00 C31.00,32.59 34.65,33.00 39.94,33.00 C44.86,33.00 49.16,32.55 49.50,32.00 ZM 76.67 63.33 C76.30,62.97 76.00,59.82 76.00,56.33 L 76.00 50.00 L 82.50 50.00 L 89.00 50.00 L 89.00 56.39 C89.00,61.30 88.63,62.93 87.42,63.39 C85.29,64.21 77.50,64.17 76.67,63.33 ZM 87.00 57.00 L 87.00 53.00 L 82.50 53.00 L 78.00 53.00 L 78.00 57.00 L 78.00 61.00 L 82.50 61.00 L 87.00 61.00 L 87.00 57.00 ZM 91.71 63.38 C91.32,62.99 91.00,59.82 91.00,56.33 L 91.00 50.00 L 96.88 50.00 C104.15,50.00 105.21,51.09 104.81,58.17 L 104.50 63.50 L 98.46 63.79 C95.14,63.95 92.10,63.77 91.71,63.38 ZM 102.00 57.00 L 102.00 53.00 L 97.50 53.00 L 93.00 53.00 L 93.00 57.00 L 93.00 61.00 L 97.50 61.00 L 102.00 61.00 L 102.00 57.00 ZM 107.20 63.14 C106.30,62.57 105.99,60.46 106.20,56.41 L 106.50 50.50 L 112.75 50.20 L 119.00 49.90 L 119.00 56.95 L 119.00 64.00 L 113.75 63.98 C110.86,63.98 107.91,63.60 107.20,63.14 ZM 117.00 57.00 L 117.00 53.00 L 112.50 53.00 L 108.00 53.00 L 108.00 57.00 L 108.00 61.00 L 112.50 61.00 L 117.00 61.00 L 117.00 57.00 ZM 121.67 63.33 C121.30,62.97 121.00,59.82 121.00,56.33 L 121.00 50.00 L 127.50 50.00 L 134.00 50.00 L 134.00 55.96 C134.00,60.84 133.65,62.12 132.07,62.96 C129.91,64.12 122.71,64.37 121.67,63.33 ZM 132.00 56.94 L 132.00 52.89 L 127.75 53.19 C123.62,53.49 123.49,53.61 123.19,57.25 L 122.88 61.00 L 127.44 61.00 L 132.00 61.00 L 132.00 56.94 ZM 136.20 57.30 L 136.50 50.50 L 142.80 50.20 L 149.09 49.90 L 148.80 56.70 L 148.50 63.50 L 142.20 63.80 L 135.91 64.10 L 136.20 57.30 ZM 147.00 56.94 L 147.00 52.89 L 142.75 53.19 C138.62,53.49 138.49,53.61 138.19,57.25 L 137.88 61.00 L 142.44 61.00 L 147.00 61.00 L 147.00 56.94 ZM 154.00 63.11 C151.98,62.54 151.34,61.52 150.64,57.71 C149.35,50.61 149.89,50.00 157.47,50.00 L 164.00 50.00 L 164.00 55.96 C164.00,60.84 163.65,62.12 162.07,62.96 C159.92,64.11 157.75,64.15 154.00,63.11 ZM 162.00 57.00 L 162.00 53.00 L 157.50 53.00 L 153.00 53.00 L 153.00 57.00 L 153.00 61.00 L 157.50 61.00 L 162.00 61.00 L 162.00 57.00 ZM 19.79 60.00 L 20.23 57.00 L 40.11 57.00 L 60.00 57.00 L 60.00 60.00 L 60.00 63.00 L 39.67 63.00 L 19.35 63.00 L 19.79 60.00 ZM 56.00 60.00 C55.17,59.47 47.30,59.03 38.50,59.03 C27.81,59.03 23.00,59.35 24.00,60.00 C24.83,60.53 32.70,60.97 41.50,60.97 C52.19,60.97 57.00,60.65 56.00,60.00 ZM 83.00 42.50 L 83.00 36.00 L 90.00 36.00 L 97.00 36.00 L 97.00 42.50 L 97.00 49.00 L 90.00 49.00 L 83.00 49.00 L 83.00 42.50 ZM 95.00 42.50 L 95.00 38.00 L 90.50 38.00 L 86.00 38.00 L 86.00 42.50 L 86.00 47.00 L 90.50 47.00 L 95.00 47.00 L 95.00 42.50 ZM 98.20 42.75 L 98.50 36.50 L 105.25 36.20 L 112.00 35.91 L 112.00 42.45 L 112.00 49.00 L 104.95 49.00 L 97.90 49.00 L 98.20 42.75 ZM 108.80 45.80 C109.46,45.14 110.00,43.12 110.00,41.30 C110.00,38.06 109.92,38.00 105.50,38.00 L 101.00 38.00 L 101.00 42.50 C101.00,46.92 101.06,47.00 104.30,47.00 C106.11,47.00 108.14,46.46 108.80,45.80 ZM 113.00 42.50 L 113.00 35.91 L 119.75 36.20 L 126.50 36.50 L 126.50 42.50 L 126.50 48.50 L 119.75 48.80 L 113.00 49.09 L 113.00 42.50 ZM 124.00 42.50 C124.00,38.08 123.94,38.00 120.70,38.00 C116.90,38.00 115.00,39.50 115.00,42.50 C115.00,45.50 116.90,47.00 120.70,47.00 C123.94,47.00 124.00,46.92 124.00,42.50 ZM 128.00 42.50 L 128.00 36.00 L 134.50 36.00 L 141.00 36.00 L 141.00 42.50 L 141.00 49.00 L 134.50 49.00 L 128.00 49.00 L 128.00 42.50 ZM 139.00 42.50 L 139.00 38.00 L 134.50 38.00 L 130.00 38.00 L 130.00 42.50 L 130.00 47.00 L 134.50 47.00 L 139.00 47.00 L 139.00 42.50 ZM 143.00 42.50 L 143.00 36.00 L 149.50 36.00 L 156.00 36.00 L 156.00 42.50 L 156.00 49.00 L 149.50 49.00 L 143.00 49.00 L 143.00 42.50 ZM 154.00 42.50 L 154.00 38.00 L 149.50 38.00 L 145.00 38.00 L 145.00 42.50 L 145.00 47.00 L 149.50 47.00 L 154.00 47.00 L 154.00 42.50 ZM 91.71 34.38 C91.32,33.99 91.00,30.80 91.00,27.29 L 91.00 20.91 L 97.75 21.20 L 104.50 21.50 L 104.50 28.00 L 104.50 34.50 L 98.46 34.79 C95.14,34.95 92.10,34.77 91.71,34.38 ZM 102.00 28.00 L 102.00 24.00 L 97.50 24.00 L 93.00 24.00 L 93.00 28.00 L 93.00 32.00 L 97.50 32.00 L 102.00 32.00 L 102.00 28.00 ZM 107.20 34.14 C106.30,33.57 105.99,31.46 106.20,27.41 L 106.50 21.50 L 113.00 21.50 L 119.50 21.50 L 119.81 26.83 C119.98,29.90 119.61,32.76 118.93,33.58 C117.64,35.13 109.38,35.53 107.20,34.14 ZM 116.25 31.32 C116.66,31.08 117.00,29.33 117.00,27.44 C117.00,24.03 116.96,24.00 112.50,24.00 C108.19,24.00 108.00,24.13 108.00,26.92 C108.00,32.05 108.90,33.18 112.38,32.43 C114.09,32.07 115.84,31.57 116.25,31.32 ZM 121.20 28.30 L 121.50 21.50 L 128.00 21.50 L 134.50 21.50 L 134.50 28.00 L 134.50 34.50 L 127.70 34.80 L 120.91 35.09 L 121.20 28.30 ZM 132.00 28.50 L 132.00 24.00 L 127.50 24.00 L 123.00 24.00 L 123.00 27.83 C123.00,29.94 123.30,31.97 123.67,32.33 C124.03,32.70 126.06,33.00 128.17,33.00 L 132.00 33.00 L 132.00 28.50 ZM 136.20 28.30 L 136.50 21.50 L 143.00 21.50 L 149.50 21.50 L 149.50 28.00 L 149.50 34.50 L 142.70 34.80 L 135.91 35.09 L 136.20 28.30 ZM 147.00 28.50 L 147.00 24.00 L 142.50 24.00 L 138.00 24.00 L 138.00 27.83 C138.00,32.59 138.41,33.00 143.17,33.00 L 147.00 33.00 L 147.00 28.50 ZM 34.50 89.09 C26.34,88.40 21.58,85.90 17.69,80.25 C14.68,75.87 12.68,70.98 13.56,70.11 C14.40,69.26 158.67,69.34 159.52,70.19 C159.90,70.57 156.70,75.18 152.42,80.44 L 144.63 90.00 L 93.07 89.84 C64.71,89.75 38.35,89.41 34.50,89.09 ZM 149.91 80.24 L 156.31 72.50 L 143.41 71.74 C128.16,70.84 17.46,71.20 16.51,72.15 C15.30,73.36 19.95,80.86 23.66,83.69 C28.49,87.38 32.79,87.63 95.00,87.83 L 143.50 87.98 L 149.91 80.24 ZM 80.39 58.57 C79.48,56.20 80.77,53.81 82.75,54.19 C83.85,54.40 84.50,55.44 84.50,57.00 C84.50,59.85 81.34,61.06 80.39,58.57 ZM 84.00 57.00 C84.00,56.45 83.55,56.00 83.00,56.00 C82.45,56.00 82.00,56.45 82.00,57.00 C82.00,57.55 82.45,58.00 83.00,58.00 C83.55,58.00 84.00,57.55 84.00,57.00 ZM 95.39 58.57 C94.48,56.20 95.77,53.81 97.75,54.19 C98.85,54.40 99.50,55.44 99.50,57.00 C99.50,59.85 96.34,61.06 95.39,58.57 ZM 99.00 57.00 C99.00,56.45 98.55,56.00 98.00,56.00 C97.45,56.00 97.00,56.45 97.00,57.00 C97.00,57.55 97.45,58.00 98.00,58.00 C98.55,58.00 99.00,57.55 99.00,57.00 ZM 110.39 58.57 C109.48,56.20 110.77,53.81 112.75,54.19 C113.85,54.40 114.50,55.44 114.50,57.00 C114.50,59.85 111.34,61.06 110.39,58.57 ZM 113.00 57.00 C113.00,56.45 112.52,56.00 111.94,56.00 C111.36,56.00 111.16,56.45 111.50,57.00 C111.84,57.55 112.32,58.00 112.56,58.00 C112.80,58.00 113.00,57.55 113.00,57.00 ZM 124.71 59.38 C123.27,57.93 124.07,55.11 126.10,54.47 C128.63,53.67 130.32,55.10 129.83,57.64 C129.48,59.52 126.02,60.69 124.71,59.38 ZM 128.45 55.91 C128.13,55.39 127.44,55.23 126.91,55.55 C126.39,55.87 126.23,56.56 126.55,57.09 C126.87,57.61 127.56,57.77 128.09,57.45 C128.61,57.13 128.77,56.44 128.45,55.91 ZM 139.36 58.49 C139.01,57.57 139.42,56.16 140.29,55.29 C142.41,53.16 145.23,54.38 144.82,57.25 C144.43,60.02 140.31,60.96 139.36,58.49 ZM 143.00 57.00 C143.00,56.45 142.55,56.00 142.00,56.00 C141.45,56.00 141.00,56.45 141.00,57.00 C141.00,57.55 141.45,58.00 142.00,58.00 C142.55,58.00 143.00,57.55 143.00,57.00 ZM 154.39 58.57 C153.39,55.98 154.79,53.83 157.25,54.18 C158.90,54.41 159.50,55.17 159.50,57.00 C159.50,58.83 158.90,59.59 157.25,59.82 C155.89,60.01 154.75,59.51 154.39,58.57 ZM 158.00 57.00 C158.00,56.45 157.55,56.00 157.00,56.00 C156.45,56.00 156.00,56.45 156.00,57.00 C156.00,57.55 156.45,58.00 157.00,58.00 C157.55,58.00 158.00,57.55 158.00,57.00 ZM 87.36 43.50 C87.02,42.60 87.20,41.40 87.76,40.84 C89.39,39.21 92.50,40.31 92.50,42.51 C92.50,45.06 88.27,45.87 87.36,43.50 ZM 91.00 42.50 C91.00,41.67 90.55,41.00 90.00,41.00 C89.45,41.00 89.00,41.67 89.00,42.50 C89.00,43.33 89.45,44.00 90.00,44.00 C90.55,44.00 91.00,43.33 91.00,42.50 ZM 102.36 43.50 C102.02,42.60 102.20,41.40 102.76,40.84 C104.39,39.21 107.50,40.31 107.50,42.51 C107.50,45.06 103.27,45.87 102.36,43.50 ZM 106.00 43.00 C106.00,42.45 105.52,42.00 104.94,42.00 C104.36,42.00 104.16,42.45 104.50,43.00 C104.84,43.55 105.32,44.00 105.56,44.00 C105.80,44.00 106.00,43.55 106.00,43.00 ZM 117.36 43.50 C117.02,42.60 117.20,41.40 117.76,40.84 C119.39,39.21 122.50,40.31 122.50,42.51 C122.50,45.06 118.27,45.87 117.36,43.50 ZM 121.00 42.56 C121.00,42.32 120.55,41.84 120.00,41.50 C119.45,41.16 119.00,41.36 119.00,41.94 C119.00,42.52 119.45,43.00 120.00,43.00 C120.55,43.00 121.00,42.80 121.00,42.56 ZM 132.41 43.62 C131.60,41.51 132.74,40.00 135.13,40.00 C136.64,40.00 137.06,40.56 136.82,42.24 C136.45,44.85 133.26,45.85 132.41,43.62 ZM 135.45 41.91 C135.13,41.39 134.44,41.23 133.91,41.55 C133.39,41.87 133.23,42.56 133.55,43.09 C133.87,43.61 134.56,43.77 135.09,43.45 C135.61,43.13 135.77,42.44 135.45,41.91 ZM 146.41 43.61 C145.51,41.28 146.82,40.00 150.13,40.00 C152.68,40.00 153.09,40.34 152.82,42.25 C152.43,44.99 147.35,46.07 146.41,43.61 ZM 151.00 42.50 C151.00,41.67 150.58,41.00 150.06,41.00 C148.80,41.00 147.89,42.56 148.69,43.36 C149.82,44.49 151.00,44.05 151.00,42.50 ZM 95.39 29.57 C94.48,27.20 95.77,24.81 97.75,25.19 C98.85,25.40 99.50,26.44 99.50,28.00 C99.50,30.85 96.34,32.06 95.39,29.57 ZM 99.00 28.50 C99.00,27.67 98.55,27.00 98.00,27.00 C97.45,27.00 97.00,27.67 97.00,28.50 C97.00,29.33 97.45,30.00 98.00,30.00 C98.55,30.00 99.00,29.33 99.00,28.50 ZM 110.36 29.50 C110.05,28.67 110.06,27.29 110.39,26.43 C111.11,24.56 115.14,24.88 115.79,26.85 C116.11,27.83 115.65,28.02 114.12,27.54 C112.86,27.14 112.00,27.30 112.00,27.93 C112.00,28.52 112.93,29.00 114.06,29.00 C115.19,29.00 115.84,29.45 115.50,30.00 C114.55,31.53 111.01,31.19 110.36,29.50 ZM 125.36 29.50 C125.05,28.67 125.06,27.29 125.39,26.43 C126.11,24.56 130.14,24.88 130.79,26.85 C131.12,27.85 130.64,28.02 128.99,27.50 C127.47,27.01 126.97,27.14 127.43,27.89 C127.81,28.50 128.77,29.00 129.56,29.00 C130.35,29.00 131.00,29.45 131.00,30.00 C131.00,31.60 126.00,31.15 125.36,29.50 ZM 140.39 29.57 C139.39,26.98 140.79,24.83 143.25,25.18 C144.90,25.41 145.50,26.17 145.50,28.00 C145.50,29.83 144.90,30.59 143.25,30.82 C141.89,31.01 140.75,30.51 140.39,29.57 ZM 144.00 28.00 C144.00,27.45 143.32,27.00 142.50,27.00 C141.68,27.00 141.00,27.45 141.00,28.00 C141.00,28.55 141.68,29.00 142.50,29.00 C143.32,29.00 144.00,28.55 144.00,28.00 ZM 26.87 83.00 C24.88,81.94 22.31,79.60 21.16,77.79 L 19.07 74.50 L 23.28 73.82 C28.59,72.97 143.18,72.80 148.22,73.64 L 151.95 74.25 L 148.22 79.02 C145.42,82.61 143.64,83.93 141.00,84.38 C139.07,84.71 113.43,84.96 84.00,84.94 C33.24,84.91 30.31,84.81 26.87,83.00 ZM 145.00 79.50 L 148.39 76.00 L 84.95 76.04 L 21.50 76.08 L 25.50 79.52 L 29.50 82.97 L 85.55 82.99 L 141.61 83.00 L 145.00 79.50 ZM 28.44 79.53 C26.73,78.24 33.00,78.07 82.00,78.13 C135.34,78.20 148.89,78.73 137.61,80.31 C134.92,80.69 109.69,81.00 81.55,81.00 C38.11,81.00 30.09,80.78 28.44,79.53 Z" fill="#C9A227"/>
</g>
</svg>