<svg xmlns="http://www.w3.org/2000/svg" width="201" height="147" viewBox="0 0 201 147">
<g>
<path d="M 30.01 130.25 C30.01,127.08 32.30,123.32 36.30,119.90 L 39.10 117.50 L 32.98 108.00 C25.09,95.76 19.70,84.46 16.53,73.52 C15.14,68.71 14.00,64.31 14.00,63.75 C14.00,63.06 20.04,62.90 32.25,63.27 C53.16,63.90 66.55,66.24 90.92,73.51 C110.01,79.21 154.76,95.18 177.75,104.49 L 182.00 106.22 L 182.00 113.64 C182.00,121.57 180.37,126.92 176.78,130.74 L 174.65 133.00 L 102.33 133.00 L 30.00 133.00 L 30.01 130.25 ZM 175.44 129.07 C178.07,126.16 179.91,120.13 179.96,114.27 C179.99,109.89 179.63,108.80 177.70,107.54 C176.43,106.71 167.19,102.87 157.16,99.01 C103.08,78.18 69.48,68.60 41.50,66.02 C28.44,64.81 17.00,64.70 17.00,65.77 C17.00,67.83 21.16,81.14 23.36,86.10 C24.72,89.18 29.25,97.26 33.42,104.07 C37.59,110.87 41.00,116.86 41.00,117.37 C41.00,117.88 38.97,120.46 36.50,123.10 C34.03,125.75 32.00,128.36 32.00,128.90 C32.00,130.48 37.86,130.63 107.60,130.82 C171.79,130.99 173.74,130.94 175.44,129.07 ZM 170.50 99.65 C166.10,97.85 162.62,95.96 162.76,95.44 C162.91,94.92 164.49,94.01 166.26,93.41 C170.30,92.05 170.77,88.68 167.00,88.15 C163.20,87.63 162.00,86.13 162.00,81.88 L 162.00 78.00 L 152.06 78.00 L 142.13 78.00 L 141.81 81.25 C141.57,83.73 141.03,84.50 139.50,84.50 C138.40,84.50 137.13,85.07 136.69,85.77 C135.16,88.17 134.00,85.88 134.00,80.44 L 134.00 75.00 L 137.94 75.00 C140.77,75.00 142.29,74.43 143.30,72.98 L 144.71 70.96 L 153.08 72.96 C157.68,74.06 161.77,74.63 162.17,74.23 C162.57,73.83 163.03,70.57 163.20,67.00 C163.50,60.51 163.51,60.50 166.50,60.50 L 169.50 60.50 L 170.00 69.26 C170.61,80.01 172.39,81.27 172.79,71.25 L 173.09 64.00 L 176.04 64.00 L 179.00 64.00 L 179.04 71.75 C179.06,76.57 179.61,80.44 180.50,82.00 C181.45,83.66 181.94,87.62 181.96,93.75 C182.01,104.69 182.39,104.49 170.50,99.65 ZM 179.80 92.72 C180.01,87.86 179.66,85.35 178.55,83.76 C177.52,82.30 177.00,79.27 177.00,74.78 C177.00,66.26 175.20,65.83 174.80,74.25 C174.53,79.91 174.28,80.53 172.19,80.83 C168.64,81.33 167.01,79.27 166.90,74.13 L 166.80 69.50 L 165.27 76.23 C163.55,83.73 164.31,86.00 168.50,86.00 C169.74,86.00 171.31,86.67 171.99,87.49 C173.73,89.58 172.38,94.09 169.81,94.76 C168.00,95.23 168.32,95.63 172.10,97.62 C178.70,101.09 179.45,100.62 179.80,92.72 ZM 151.00 75.00 C149.04,73.74 147.00,73.74 147.00,75.00 C147.00,75.55 148.24,75.99 149.75,75.98 C151.89,75.97 152.17,75.76 151.00,75.00 ZM 144.67 84.33 C143.47,83.14 143.96,79.00 145.30,79.00 C147.16,79.00 149.00,81.09 149.00,83.20 C149.00,84.96 146.07,85.73 144.67,84.33 ZM 150.18 82.33 C150.41,80.27 151.05,79.50 152.50,79.50 C155.58,79.50 155.28,84.39 152.18,84.83 C150.16,85.12 149.89,84.79 150.18,82.33 ZM 156.36 83.50 C156.05,82.68 156.08,81.23 156.45,80.28 C156.97,78.92 157.28,78.83 157.93,79.89 C158.62,81.00 158.84,80.99 159.26,79.86 C159.64,78.83 159.94,78.92 160.49,80.25 C161.45,82.58 160.44,85.00 158.50,85.00 C157.64,85.00 156.68,84.32 156.36,83.50 ZM 119.25 80.70 L 110.00 77.58 L 110.00 71.35 C110.00,67.92 110.35,64.90 110.78,64.64 C111.21,64.37 115.71,65.33 120.78,66.76 L 130.00 69.36 L 130.00 76.68 C130.00,80.71 129.66,83.96 129.25,83.91 C128.84,83.86 124.34,82.42 119.25,80.70 ZM 128.00 76.52 C128.00,72.42 126.15,70.94 118.07,68.59 C115.08,67.71 112.47,67.00 112.26,67.00 C112.05,67.00 112.02,68.85 112.19,71.12 C112.49,75.15 112.62,75.28 118.50,77.55 C127.02,80.83 128.00,80.73 128.00,76.52 ZM 96.50 73.16 L 88.50 70.50 L 88.20 64.74 C87.97,60.24 88.24,58.84 89.47,58.37 C90.33,58.04 94.85,58.96 99.52,60.42 L 108.00 63.06 L 108.00 69.53 C108.00,77.17 108.27,77.08 96.50,73.16 ZM 106.00 69.62 C106.00,65.43 104.70,64.33 97.06,62.02 L 91.00 60.18 L 91.00 64.51 L 91.00 68.83 L 96.75 70.84 C105.12,73.76 106.00,73.64 106.00,69.62 ZM 76.09 67.41 C71.47,66.04 67.28,64.67 66.78,64.37 C66.29,64.06 66.18,61.39 66.55,58.44 L 67.22 53.08 L 57.86 52.79 C45.52,52.41 45.87,50.48 58.27,50.56 C65.33,50.60 69.80,51.28 77.29,53.45 L 87.08 56.30 L 86.79 62.82 C86.63,66.41 86.05,69.46 85.50,69.61 C84.95,69.76 80.72,68.77 76.09,67.41 ZM 84.76 63.42 C84.90,61.82 84.68,60.01 84.26,59.41 C83.28,57.99 71.01,53.88 69.87,54.58 C69.39,54.88 69.00,56.82 69.00,58.91 L 69.00 62.70 L 75.75 64.78 C79.46,65.93 82.95,66.75 83.50,66.60 C84.05,66.46 84.62,65.03 84.76,63.42 ZM 119.00 65.16 L 110.50 62.42 L 110.20 55.71 C110.04,52.02 110.27,49.01 110.70,49.02 C111.14,49.02 115.55,50.29 120.50,51.82 L 129.50 54.61 L 129.50 60.97 C129.50,64.47 129.05,67.46 128.50,67.62 C127.95,67.78 123.68,66.67 119.00,65.16 ZM 127.80 60.33 L 128.10 56.32 L 121.30 54.51 C117.56,53.51 113.91,52.48 113.19,52.21 C112.20,51.86 111.95,52.82 112.19,56.04 L 112.50 60.34 L 119.00 62.59 C122.57,63.82 125.95,64.72 126.50,64.59 C127.05,64.45 127.63,62.54 127.80,60.33 ZM 97.50 58.68 L 88.50 55.50 L 88.20 49.11 L 87.90 42.73 L 92.20 43.31 L 96.50 43.89 L 92.25 42.36 L 88.00 40.83 L 88.00 33.92 C88.00,30.11 88.29,27.00 88.64,27.00 C88.99,27.00 93.72,28.37 99.14,30.04 L 109.00 33.09 L 108.99 37.29 C108.98,39.61 108.69,42.56 108.34,43.86 C107.68,46.31 107.25,46.34 99.00,44.53 C97.62,44.23 99.09,44.92 102.25,46.07 L 108.00 48.17 L 108.00 55.08 C108.00,58.89 107.66,61.97 107.25,61.93 C106.84,61.90 102.45,60.44 97.50,58.68 ZM 105.80 54.41 C105.97,52.71 105.52,50.85 104.80,50.27 C102.99,48.79 92.94,45.92 91.88,46.58 C91.39,46.87 91.00,48.63 91.00,50.48 C91.00,53.66 91.29,53.94 96.75,55.85 C104.12,58.43 105.43,58.22 105.80,54.41 ZM 105.81 39.25 C105.55,36.09 104.95,35.23 102.00,33.80 C100.07,32.86 96.54,31.78 94.14,31.40 L 89.78 30.71 L 90.49 34.10 C91.42,38.53 92.64,39.71 98.04,41.40 C105.48,43.74 106.17,43.55 105.81,39.25 ZM 77.01 52.37 C67.03,49.04 65.66,47.73 66.48,42.27 L 67.12 38.00 L 58.06 38.00 C52.69,38.00 49.00,37.59 49.00,37.00 C49.00,36.40 52.92,36.00 58.77,36.00 C67.65,36.00 73.00,36.93 85.29,40.62 C86.82,41.08 87.04,42.13 86.79,47.75 C86.63,51.38 86.05,54.46 85.50,54.60 C84.95,54.75 81.13,53.74 77.01,52.37 ZM 85.00 47.14 L 85.00 43.39 L 78.18 41.20 C74.43,39.99 70.83,39.00 70.18,39.00 C69.45,39.00 69.00,40.69 69.00,43.39 L 69.00 47.79 L 76.25 49.76 C80.24,50.85 83.84,51.54 84.25,51.31 C84.66,51.07 85.00,49.20 85.00,47.14 ZM 118.75 50.29 L 110.00 47.73 L 110.00 41.33 C110.00,37.12 110.43,34.77 111.26,34.46 C111.95,34.19 116.33,35.26 121.01,36.83 L 129.50 39.68 L 129.50 46.01 C129.50,49.49 129.05,52.45 128.50,52.59 C127.95,52.73 123.56,51.69 118.75,50.29 ZM 127.80 45.34 L 128.10 41.33 L 120.80 39.31 C116.78,38.20 113.16,37.48 112.75,37.70 C112.34,37.93 112.00,39.83 112.00,41.92 L 112.00 45.71 L 118.75 47.75 C122.46,48.87 125.95,49.68 126.50,49.56 C127.05,49.44 127.63,47.54 127.80,45.34 ZM 38.14 128.12 L 34.79 127.50 L 38.89 123.71 C41.44,121.36 43.00,119.04 43.00,117.59 C43.00,116.31 40.84,111.94 38.20,107.88 C28.90,93.59 24.04,83.70 20.66,72.25 L 19.11 67.00 L 25.11 67.00 C28.86,67.00 30.89,67.38 30.50,68.00 C30.16,68.55 28.36,69.00 26.50,69.00 C24.64,69.00 22.87,69.40 22.57,69.89 C21.25,72.03 29.81,90.33 38.94,104.90 C45.53,115.41 46.27,119.07 42.59,122.90 L 39.91 125.70 L 46.71 126.34 C50.44,126.70 80.19,126.99 112.80,126.99 L 172.10 127.00 L 173.55 123.53 C174.35,121.62 175.00,117.87 175.00,115.18 L 175.00 110.30 L 154.75 102.52 C114.79,87.18 73.08,74.37 52.00,70.98 C43.86,69.67 39.59,68.08 44.08,68.03 C48.02,67.98 67.42,71.65 78.55,74.54 C96.61,79.23 132.89,91.62 163.88,103.69 L 178.26 109.29 L 177.66 115.76 C177.33,119.31 176.23,123.63 175.22,125.36 L 173.39 128.50 L 107.44 128.62 C71.17,128.69 39.99,128.46 38.14,128.12 ZM 46.79 119.26 C47.19,113.68 47.01,113.14 42.62,106.73 C36.17,97.31 31.61,89.00 32.90,89.00 C33.49,89.00 34.55,89.97 35.24,91.16 C35.93,92.34 39.31,97.60 42.74,102.85 C47.32,109.84 49.15,113.63 49.61,117.10 L 50.23 121.82 L 60.37 122.50 C65.94,122.87 92.68,123.02 119.79,122.84 C173.90,122.47 170.95,122.84 170.98,116.38 L 171.00 113.27 L 152.75 106.24 C128.87,97.05 130.21,97.40 127.87,99.90 C125.54,102.41 124.64,102.50 122.57,100.43 C120.67,98.53 120.50,94.13 122.30,93.44 C123.02,93.16 134.60,97.13 148.05,102.26 L 172.50 111.58 L 172.27 116.98 C172.14,119.94 171.55,122.85 170.97,123.43 C170.24,124.16 150.13,124.60 108.13,124.80 L 46.37 125.10 L 46.79 119.26 ZM 126.00 97.56 C126.00,95.97 124.19,94.48 123.31,95.36 C122.49,96.18 123.77,99.00 124.97,99.00 C125.54,99.00 126.00,98.35 126.00,97.56 ZM 52.00 117.47 C52.00,113.53 49.79,109.13 43.22,99.98 C39.89,95.34 37.36,91.23 37.59,90.85 C37.83,90.47 39.31,89.87 40.89,89.53 C42.46,89.18 44.77,87.81 46.02,86.48 L 48.29 84.07 L 50.01 87.28 C51.09,89.30 53.12,91.03 55.45,91.92 C58.69,93.15 59.77,93.14 64.03,91.77 C68.81,90.24 68.96,90.26 72.20,92.69 C77.31,96.53 79.56,97.11 84.37,95.82 C88.30,94.77 88.86,94.86 90.88,96.88 C93.65,99.65 97.16,101.00 101.60,101.00 C103.52,101.00 106.75,101.84 108.79,102.86 C113.47,105.21 119.33,106.23 129.50,106.49 C136.31,106.66 139.06,107.31 147.98,110.90 C153.74,113.22 158.65,115.32 158.89,115.56 C159.14,115.80 136.12,116.00 107.75,116.00 L 56.16 116.00 L 55.50 113.01 C55.14,111.37 52.63,106.63 49.92,102.48 C47.22,98.33 45.00,94.28 45.00,93.47 C45.00,91.37 47.70,91.65 51.14,94.10 C54.80,96.70 60.85,97.60 65.00,96.15 C67.73,95.20 68.62,95.38 72.00,97.62 C74.72,99.42 77.75,100.34 82.18,100.73 C85.66,101.03 90.17,102.11 92.21,103.14 C94.25,104.16 97.27,105.00 98.92,105.00 C100.57,105.00 104.12,105.86 106.80,106.92 C112.33,109.10 127.00,111.50 130.00,110.71 C131.10,110.42 132.00,110.66 132.00,111.24 C132.00,113.18 111.11,111.48 106.00,109.12 C103.53,107.98 100.28,107.03 98.79,107.02 C97.29,107.01 93.79,106.10 91.00,105.00 C88.21,103.90 84.26,102.99 82.21,102.98 C80.17,102.97 76.54,102.07 74.14,100.98 C71.01,99.56 67.62,99.00 62.09,99.00 C55.46,99.00 53.92,98.66 51.02,96.51 C49.16,95.14 47.47,94.20 47.25,94.41 C47.04,94.63 48.53,96.99 50.57,99.65 C52.61,102.32 55.08,106.38 56.07,108.68 C57.70,112.46 58.28,112.92 62.18,113.47 C64.56,113.81 84.95,113.95 107.50,113.79 L 148.50 113.50 L 142.16 111.09 C137.43,109.30 133.49,108.63 126.66,108.46 C120.19,108.29 115.74,107.58 111.50,106.04 C108.20,104.83 102.86,103.47 99.62,103.02 C96.26,102.54 92.49,101.26 90.80,100.01 C88.37,98.21 87.04,97.94 83.18,98.47 C79.06,99.02 77.91,98.72 73.56,95.95 C68.94,93.01 68.39,92.88 64.91,94.03 C60.10,95.62 54.88,94.61 51.00,91.35 C48.24,89.02 47.66,88.90 44.95,90.02 C43.31,90.70 41.73,91.62 41.46,92.07 C41.18,92.51 43.65,96.98 46.94,102.00 C50.24,107.01 53.22,112.65 53.57,114.52 L 54.21 117.92 L 110.35 118.21 C141.23,118.37 166.70,118.38 166.94,118.23 C168.33,117.36 162.93,114.54 151.00,109.89 C139.15,105.27 136.52,104.60 129.50,104.43 C117.70,104.14 111.88,103.03 108.37,100.42 C105.97,98.63 104.44,98.22 101.78,98.65 C98.45,99.19 92.04,96.95 91.97,95.22 C91.95,94.83 91.30,93.66 90.52,92.63 C89.15,90.82 89.00,90.83 85.52,92.98 C80.94,95.82 78.10,95.14 73.33,90.07 L 69.67 86.19 L 66.92 88.22 C65.28,89.43 62.48,90.30 59.99,90.36 C56.47,90.45 55.35,89.96 52.93,87.24 C49.46,83.36 48.28,79.38 49.86,76.85 C50.76,75.41 50.73,75.00 49.72,75.00 C49.00,75.00 47.87,77.03 47.21,79.51 C45.91,84.38 41.64,87.99 37.20,88.00 C34.01,88.00 29.28,85.39 27.94,82.90 C26.93,81.00 27.17,81.04 30.65,83.41 C37.75,88.23 44.01,85.60 45.35,77.21 C45.99,73.24 46.21,73.00 49.37,73.00 L 52.71 73.00 L 52.22 78.05 C51.81,82.29 52.09,83.47 53.96,85.46 C56.94,88.63 60.39,89.37 63.87,87.57 C66.91,86.00 69.35,81.45 68.82,78.37 C68.57,76.90 69.04,76.56 70.98,76.78 C74.42,77.17 75.38,78.42 74.09,80.83 C71.38,85.89 75.17,92.00 81.03,92.00 C85.10,92.00 90.44,86.96 89.50,84.01 C89.01,82.45 89.32,82.00 90.87,82.00 C93.61,82.00 94.24,83.37 92.89,86.35 C90.18,92.29 96.11,98.44 102.14,95.94 C105.38,94.60 107.24,91.92 106.79,89.24 C106.58,87.99 107.06,87.60 108.50,87.85 C111.31,88.33 111.46,88.68 109.62,90.52 C107.44,92.71 107.58,95.20 110.07,98.37 C111.69,100.42 113.02,101.00 116.09,101.00 C118.25,101.00 120.86,101.52 121.88,102.16 C123.26,103.02 124.84,103.03 128.11,102.20 C132.04,101.20 133.41,101.39 141.08,104.03 C151.83,107.72 163.78,112.62 166.74,114.57 C167.98,115.38 169.00,116.94 169.00,118.02 C169.00,119.97 168.11,120.00 110.50,120.00 L 52.00 120.00 L 52.00 117.47 ZM 72.00 80.00 C72.00,79.45 71.55,79.00 71.00,79.00 C70.45,79.00 70.00,79.45 70.00,80.00 C70.00,80.55 70.45,81.00 71.00,81.00 C71.55,81.00 72.00,80.55 72.00,80.00 ZM 58.00 107.00 C56.71,104.25 55.94,101.73 56.28,101.38 C56.63,101.04 57.92,102.84 59.15,105.38 L 61.40 110.00 L 83.14 110.00 C96.56,110.00 105.12,110.38 105.50,111.00 C105.91,111.66 98.23,112.00 83.23,112.00 L 60.34 112.00 L 58.00 107.00 ZM 72.00 103.88 C68.44,102.60 65.27,102.12 63.00,102.49 C60.44,102.92 59.90,102.80 61.00,102.05 C63.48,100.36 68.32,100.86 74.58,103.46 C81.63,106.39 79.82,106.68 72.00,103.88 ZM 111.01 97.51 C108.22,94.15 112.21,88.99 116.37,90.59 C118.55,91.43 119.54,95.64 117.99,97.51 C116.40,99.43 112.60,99.43 111.01,97.51 ZM 116.25 95.75 C116.93,93.88 116.02,92.00 114.42,92.00 C113.64,92.00 113.00,92.82 113.00,93.83 C113.00,96.83 115.34,98.21 116.25,95.75 ZM 95.94 92.94 C94.64,91.64 93.99,89.89 94.19,88.19 C94.62,84.48 99.84,83.84 102.91,87.13 C105.58,90.00 105.55,91.50 102.78,93.44 C99.82,95.51 98.41,95.41 95.94,92.94 ZM 101.00 91.50 C101.99,90.30 101.99,89.70 101.00,88.50 C98.41,85.38 95.09,87.43 96.99,90.98 C98.28,93.39 99.32,93.52 101.00,91.50 ZM 77.17 88.69 C75.98,87.41 75.00,85.46 75.00,84.34 C75.00,81.64 78.05,79.00 81.17,79.00 C86.54,79.00 89.10,86.42 84.78,89.44 C81.71,91.59 79.72,91.39 77.17,88.69 ZM 83.43 87.43 C84.29,86.56 85.00,85.47 85.00,85.00 C85.00,84.09 82.19,81.00 81.36,81.00 C79.86,81.00 77.00,83.27 77.00,84.46 C77.00,86.00 79.65,89.00 81.00,89.00 C81.47,89.00 82.56,88.29 83.43,87.43 ZM 58.00 86.31 C54.06,84.90 52.62,78.53 55.57,75.57 C59.03,72.11 67.00,75.10 67.00,79.85 C67.00,82.06 62.64,87.03 60.80,86.92 C60.08,86.88 58.83,86.60 58.00,86.31 ZM 62.07 83.96 C63.31,83.30 64.00,81.87 64.00,79.98 C64.00,77.67 63.46,76.90 61.49,76.41 C60.05,76.05 58.34,76.30 57.49,77.01 C55.46,78.69 55.61,82.67 57.75,83.92 C59.95,85.20 59.76,85.20 62.07,83.96 ZM 31.65 81.55 C28.10,78.26 28.09,73.86 31.63,71.07 C35.32,68.17 39.38,68.39 41.93,71.63 C44.71,75.17 44.54,78.19 41.36,81.36 C38.07,84.65 35.06,84.71 31.65,81.55 ZM 39.43 80.43 C41.42,78.44 41.43,76.05 39.44,73.22 C37.54,70.50 34.88,70.37 32.61,72.88 C28.45,77.47 35.07,84.79 39.43,80.43 ZM 25.67 76.33 C25.39,75.32 24.87,73.49 24.51,72.25 C23.99,70.42 24.26,70.00 25.98,70.00 C27.87,70.00 28.02,70.39 27.41,73.75 C26.59,78.30 26.33,78.68 25.67,76.33 ZM 174.80 91.32 L 174.50 84.58 L 171.20 83.90 C169.38,83.53 167.62,82.95 167.27,82.61 C166.93,82.26 168.19,82.27 170.07,82.63 C175.53,83.66 177.00,85.56 177.00,91.60 C177.00,99.49 175.15,99.26 174.80,91.32 ZM 114.50 70.00 C114.16,69.45 114.33,69.00 114.88,69.00 C115.43,69.00 116.16,69.45 116.50,70.00 C116.84,70.55 116.67,71.00 116.12,71.00 C115.57,71.00 114.84,70.55 114.50,70.00 ZM 102.50 67.00 C102.16,66.45 102.36,66.00 102.94,66.00 C103.52,66.00 104.00,66.45 104.00,67.00 C104.00,67.55 103.80,68.00 103.56,68.00 C103.32,68.00 102.84,67.55 102.50,67.00 Z" fill="#C9A227"/>
</g>
</svg>