<svg xmlns="http://www.w3.org/2000/svg" width="500" height="500" viewBox="0 0 500 500">
<g>
<path d="M 99.24 316.25 L 99.50 237.50 L 247.14 237.25 L 394.77 236.99 L 395.45 267.25 C395.82,283.89 395.99,319.33 395.81,346.00 L 395.50 394.50 L 247.24 394.75 L 98.99 395.01 L 99.24 316.25 ZM 389.76 315.25 L 390.01 242.00 L 247.01 242.00 L 104.00 242.00 L 104.00 314.83 C104.00,354.89 104.30,387.97 104.67,388.34 C105.04,388.71 169.28,388.89 247.42,388.75 L 389.50 388.50 L 389.76 315.25 ZM 113.00 232.15 C113.00,229.51 119.94,225.72 171.00,200.41 C191.62,190.19 210.90,180.63 213.84,179.16 C223.01,174.58 225.17,172.20 226.06,165.69 C227.06,158.27 231.84,151.33 237.98,148.37 C242.91,145.98 243.83,144.42 243.93,138.22 C244.00,133.77 246.06,131.66 248.21,133.81 C249.31,134.91 249.56,145.67 248.55,148.85 C248.24,149.83 245.63,151.72 242.74,153.06 C236.20,156.11 233.00,160.58 233.00,166.70 C233.00,175.51 237.75,180.00 247.05,180.00 C251.56,180.00 252.62,179.58 255.54,176.66 C257.38,174.82 259.13,172.12 259.44,170.66 C259.75,169.20 260.23,166.88 260.52,165.50 C261.55,160.55 267.00,163.42 267.00,168.92 C267.00,170.22 268.43,171.88 270.89,173.43 C273.02,174.78 296.31,186.69 322.64,199.90 C348.96,213.12 372.86,225.30 375.75,226.98 C380.67,229.85 382.71,233.00 379.64,233.00 C377.17,233.00 342.48,216.51 297.01,193.74 L 265.52 177.96 L 263.01 180.01 C254.59,186.87 243.85,187.97 233.97,182.99 C226.95,179.44 230.38,178.45 202.00,192.28 C152.62,216.34 116.76,233.00 114.33,233.00 C113.60,233.00 113.00,232.62 113.00,232.15 ZM 239.30 124.04 C228.22,117.29 229.48,101.82 241.60,95.95 C245.61,94.01 246.65,93.88 250.04,94.89 C260.82,98.12 266.22,110.92 260.49,119.65 C256.43,125.85 245.86,128.04 239.30,124.04 ZM 252.03 118.98 C254.96,117.42 256.50,111.05 255.04,106.61 C253.82,102.92 249.92,99.98 246.30,100.02 C242.58,100.07 237.00,106.89 237.00,111.39 C237.00,112.74 238.17,115.23 239.59,116.92 C241.68,119.41 242.94,120.00 246.15,120.00 C248.34,120.00 250.99,119.54 252.03,118.98 ZM 244.61 87.42 C243.40,84.28 243.95,65.45 245.30,63.60 C246.43,62.05 246.76,62.01 247.82,63.28 C249.19,64.93 249.79,83.11 248.60,86.75 C247.75,89.35 245.49,89.73 244.61,87.42 ZM 110.52 326.20 C110.11,295.51 110.11,265.63 110.50,259.81 L 111.22 249.22 L 140.36 248.55 C156.39,248.18 217.65,248.02 276.50,248.19 L 383.50 248.50 L 383.50 315.00 L 383.50 381.50 L 247.38 381.75 L 111.26 382.01 L 110.52 326.20 ZM 380.00 315.00 L 380.00 251.99 L 247.25 252.25 L 114.50 252.50 L 114.24 314.00 C114.10,347.83 114.20,376.06 114.46,376.75 C114.84,377.74 142.37,378.00 247.47,378.00 L 380.00 378.00 L 380.00 315.00 ZM 243.50 114.00 C239.81,109.93 245.92,104.32 249.80,108.20 C251.53,109.93 251.28,112.44 249.17,114.35 C246.79,116.50 245.70,116.43 243.50,114.00 ZM 121.00 315.43 L 121.00 259.00 L 143.50 259.00 L 166.00 259.00 L 165.98 314.25 C165.98,344.64 165.64,369.95 165.23,370.50 C164.79,371.10 155.87,371.57 142.75,371.68 L 121.00 371.86 L 121.00 315.43 ZM 161.76 315.27 L 162.02 263.04 L 159.76 262.49 C158.52,262.18 150.07,262.06 141.00,262.21 L 124.50 262.50 L 124.20 309.00 C124.04,334.58 124.18,358.32 124.53,361.77 L 125.16 368.04 L 143.33 367.77 L 161.50 367.50 L 161.76 315.27 ZM 172.33 370.41 C171.62,368.57 172.90,260.98 173.64,259.78 C173.90,259.35 183.70,259.00 195.41,259.00 L 216.70 259.00 L 217.30 297.25 C217.63,318.29 217.59,343.60 217.20,353.50 L 216.50 371.50 L 194.73 371.77 C175.37,372.01 172.88,371.86 172.33,370.41 ZM 214.50 315.00 L 214.50 262.50 L 195.50 262.50 L 176.50 262.50 L 176.24 314.00 C176.10,342.33 176.20,366.07 176.47,366.77 C176.84,367.75 181.26,367.98 195.73,367.77 L 214.50 367.50 L 214.50 315.00 ZM 286.50 371.07 L 277.50 370.50 L 277.24 316.11 C277.05,276.78 277.30,261.35 278.11,260.36 C279.00,259.30 283.51,259.00 298.87,259.02 C309.67,259.02 319.17,259.45 319.98,259.97 C321.26,260.77 321.46,268.48 321.48,316.20 L 321.50 371.50 L 308.50 371.57 C301.35,371.62 291.45,371.39 286.50,371.07 ZM 318.55 315.68 C318.57,287.19 318.22,263.63 317.75,263.35 C316.24,262.41 282.64,263.06 281.45,264.04 C280.19,265.09 278.29,365.05 279.50,366.99 C279.92,367.68 286.74,367.95 299.32,367.77 L 318.50 367.50 L 318.55 315.68 ZM 329.51 371.18 C329.23,370.90 329.00,345.54 329.00,314.83 L 329.00 259.00 L 351.50 259.00 L 374.00 259.00 L 374.00 315.00 C374.00,345.80 373.66,371.07 373.25,371.15 C371.10,371.59 329.95,371.62 329.51,371.18 ZM 369.50 315.00 L 369.50 262.50 L 351.54 262.78 C338.81,262.98 333.33,263.41 332.72,264.28 C331.75,265.64 332.53,365.44 333.52,367.04 C333.91,367.67 340.71,367.94 351.82,367.77 L 369.50 367.50 L 369.50 315.00 ZM 225.75 369.67 C224.12,368.38 224.00,364.54 224.00,314.84 C224.00,274.61 224.30,261.10 225.20,260.20 C226.05,259.35 232.23,259.00 246.64,259.00 C266.43,259.00 266.92,259.05 268.44,261.22 C269.80,263.17 270.00,270.07 270.00,316.16 C270.00,357.24 269.72,369.06 268.75,369.69 C268.06,370.13 258.50,370.62 247.50,370.77 C231.62,371.00 227.14,370.77 225.75,369.67 ZM 266.25 316.60 C266.07,280.78 265.67,265.30 264.88,264.35 C263.32,262.47 230.75,262.39 229.20,264.26 C228.52,265.08 227.89,283.34 227.42,315.86 C226.80,358.54 226.91,366.32 228.10,367.06 C228.87,367.54 237.82,367.83 248.00,367.72 L 266.50 367.50 L 266.25 316.60 ZM 131.00 316.15 L 131.00 269.00 L 144.00 269.00 L 157.00 269.00 L 156.98 314.25 C156.98,339.14 156.62,360.04 156.20,360.71 C155.71,361.48 150.99,362.17 143.22,362.61 L 131.00 363.30 L 131.00 316.15 ZM 151.83 347.00 C152.01,341.77 151.84,322.94 151.46,305.14 L 150.76 272.78 L 144.38 273.19 C140.88,273.41 137.55,274.05 136.99,274.61 C135.42,276.18 134.53,329.41 135.86,342.29 C137.36,356.83 137.58,357.17 145.31,356.80 L 151.50 356.50 L 151.83 347.00 ZM 182.00 316.00 L 182.00 268.94 L 195.25 269.22 L 208.50 269.50 L 208.50 316.00 L 208.50 362.50 L 195.25 362.78 L 182.00 363.06 L 182.00 316.00 ZM 202.76 314.75 L 203.02 273.00 L 195.51 273.00 L 188.00 273.00 L 188.00 315.04 L 188.00 357.09 L 195.25 356.79 L 202.50 356.50 L 202.76 314.75 ZM 286.00 316.00 L 286.00 269.00 L 299.00 269.00 L 312.00 269.00 L 312.00 316.00 L 312.00 363.00 L 299.00 363.00 L 286.00 363.00 L 286.00 316.00 ZM 306.00 314.96 L 306.00 272.91 L 298.75 273.21 L 291.50 273.50 L 291.24 314.00 C291.09,336.27 291.19,355.06 291.46,355.75 C291.78,356.59 294.26,357.00 298.97,357.00 L 306.00 357.00 L 306.00 314.96 ZM 337.00 316.15 L 337.00 269.00 L 350.66 269.00 L 364.32 269.00 L 363.66 295.25 C363.30,309.69 363.00,330.05 362.99,340.50 C362.98,350.95 362.62,360.04 362.20,360.71 C361.71,361.48 356.99,362.17 349.22,362.61 L 337.00 363.30 L 337.00 316.15 ZM 358.00 315.00 L 358.00 273.00 L 350.50 273.00 L 343.00 273.00 L 343.00 315.00 L 343.00 357.00 L 350.50 357.00 L 358.00 357.00 L 358.00 315.00 ZM 234.00 315.97 L 234.00 268.94 L 247.25 269.22 C260.27,269.50 260.50,269.54 260.43,271.75 C260.39,272.99 260.28,294.02 260.18,318.50 L 260.00 363.00 L 247.00 363.00 L 234.00 363.00 L 234.00 315.97 ZM 254.76 314.75 L 255.02 273.00 L 247.62 273.00 C242.61,273.00 240.06,273.41 239.74,274.25 C239.13,275.86 239.10,355.24 239.71,356.29 C239.96,356.73 243.39,356.95 247.34,356.79 L 254.50 356.50 L 254.76 314.75 Z" fill="#C9A227"/>
</g>
</svg>