<svg xmlns="http://www.w3.org/2000/svg" width="181" height="164" viewBox="0 0 181 164">
<g>
<path d="M 61.75 154.27 C45.95,152.62 83.81,150.25 107.43,151.42 C121.72,152.12 125.78,152.96 120.50,154.11 C117.32,154.80 68.11,154.94 61.75,154.27 ZM 53.75 148.31 C46.15,147.43 50.36,146.19 63.25,145.50 C79.28,144.64 128.54,145.20 129.58,146.25 C130.00,146.66 130.00,147.34 129.58,147.75 C128.79,148.54 60.14,149.05 53.75,148.31 ZM 46.00 142.10 C46.00,139.56 132.74,139.34 135.27,141.87 C136.11,142.71 124.73,143.00 91.20,143.00 C65.11,143.00 46.00,142.62 46.00,142.10 ZM 44.00 138.30 C33.80,137.33 38.95,136.18 56.66,135.48 C77.49,134.66 140.63,135.29 141.67,136.34 C142.04,136.70 142.00,137.34 141.58,137.75 C140.80,138.54 51.75,139.05 44.00,138.30 ZM 17.50 132.29 C2.20,131.22 12.61,129.18 34.00,129.06 C42.53,129.01 50.14,128.57 50.92,128.07 C52.08,127.34 51.48,125.16 47.55,115.84 C44.92,109.60 40.72,99.65 38.22,93.71 C35.52,87.31 34.04,82.58 34.59,82.07 C35.66,81.07 85.47,57.60 88.66,56.60 C90.21,56.11 96.10,58.35 109.66,64.58 C138.85,78.00 146.00,81.77 145.98,83.76 C145.98,84.72 142.15,94.44 137.48,105.37 C132.82,116.30 129.00,125.80 129.00,126.48 C129.00,127.37 132.74,127.90 142.25,128.38 C161.87,129.35 171.00,130.17 171.00,130.97 C171.00,132.40 35.81,133.57 17.50,132.29 ZM 121.66 130.39 C123.32,129.95 125.54,125.95 131.26,113.16 C141.39,90.48 143.38,85.42 142.77,83.83 C142.48,83.08 130.43,76.93 116.00,70.15 L 89.76 57.84 L 63.38 70.87 C48.87,78.04 37.00,84.10 37.00,84.34 C37.00,85.04 44.44,102.61 49.92,114.86 C52.71,121.11 55.00,127.04 55.00,128.04 C55.00,129.27 55.91,130.00 57.75,130.28 C62.08,130.94 119.26,131.04 121.66,130.39 ZM 107.07 61.74 L 90.65 53.86 L 74.82 61.43 C66.12,65.59 58.55,69.00 58.00,69.00 C57.39,69.00 57.00,64.51 57.00,57.58 L 57.00 46.17 L 52.75 42.87 C50.41,41.06 46.09,37.56 43.15,35.09 C38.58,31.24 38.07,30.49 39.65,29.87 C41.93,28.97 135.52,28.75 139.91,29.63 C141.65,29.98 142.95,30.61 142.79,31.04 C142.63,31.46 138.45,34.79 133.50,38.43 L 124.50 45.04 L 124.00 57.33 L 123.50 69.61 L 107.07 61.74 ZM 60.50 55.25 L 60.50 44.50 L 75.82 44.22 L 91.13 43.95 L 90.82 47.20 C90.57,49.78 89.67,50.94 86.50,52.82 C82.71,55.05 83.18,55.05 89.00,52.78 C91.11,51.96 93.84,52.89 106.50,58.74 L 121.50 65.68 L 121.78 54.93 L 122.06 44.19 L 129.78 38.35 L 137.50 32.50 L 113.75 32.23 C100.69,32.08 79.45,32.08 66.57,32.23 L 43.13 32.50 L 51.07 38.49 L 59.00 44.48 L 59.00 54.57 C59.00,62.82 59.39,65.99 60.42,66.00 C60.46,66.00 60.50,61.16 60.50,55.25 ZM 73.57 59.24 C73.12,58.79 65.00,62.83 65.00,63.51 C65.00,63.76 67.02,62.99 69.48,61.80 C71.94,60.60 73.78,59.45 73.57,59.24 ZM 87.23 49.26 C88.18,48.42 88.71,47.34 88.42,46.87 C87.82,45.89 67.03,45.67 64.58,46.61 C63.34,47.08 63.00,48.79 63.00,54.62 L 63.00 62.02 L 74.25 56.40 C80.44,53.31 86.28,50.10 87.23,49.26 ZM 67.08 27.07 C65.68,26.18 66.88,25.71 76.28,23.44 C79.54,22.65 80.51,21.09 81.50,15.00 C82.53,8.61 83.32,8.00 90.59,8.00 C97.80,8.00 98.30,8.47 99.44,16.30 C100.21,21.58 101.71,22.72 111.00,25.10 C114.74,26.06 115.16,26.39 113.50,27.06 C110.73,28.17 68.83,28.18 67.08,27.07 ZM 101.00 25.11 C101.00,24.62 100.40,23.98 99.66,23.70 C98.92,23.41 97.74,20.48 97.04,17.19 L 95.77 11.19 L 91.32 10.53 C85.68,9.68 84.36,10.77 83.50,17.00 C83.13,19.69 82.19,22.43 81.41,23.07 C78.54,25.45 80.24,26.00 90.50,26.00 C96.28,26.00 101.00,25.60 101.00,25.11 ZM 57.05 126.26 C52.84,117.18 38.97,84.70 39.21,84.49 C39.37,84.35 50.90,78.79 64.83,72.14 L 90.17 60.03 L 113.13 70.93 C125.77,76.93 137.20,82.55 138.54,83.43 C141.43,85.33 141.93,83.73 130.02,111.00 L 122.38 128.50 L 90.35 128.76 L 58.33 129.03 L 57.05 126.26 ZM 89.00 94.99 L 89.00 62.98 L 80.25 67.35 C75.44,69.76 65.43,74.54 58.00,77.97 C50.58,81.41 43.97,84.73 43.33,85.36 C42.44,86.23 44.21,91.19 50.70,106.00 C55.39,116.72 59.74,125.83 60.37,126.23 C60.99,126.64 67.69,126.98 75.25,126.98 L 89.00 127.00 L 89.00 94.99 ZM 129.78 106.39 L 138.87 85.79 L 118.59 75.97 C107.43,70.57 96.66,65.47 94.65,64.63 L 91.00 63.10 L 91.01 89.80 C91.01,104.49 91.30,118.86 91.65,121.75 L 92.28 127.00 L 106.49 127.00 L 120.69 127.00 L 129.78 106.39 ZM 105.75 56.74 C93.13,50.76 93.00,50.67 93.00,47.33 C93.00,42.63 90.73,42.00 73.78,42.00 L 59.68 42.00 L 54.34 37.97 C51.40,35.75 49.00,33.72 49.00,33.47 C49.00,33.21 67.68,33.00 90.50,33.00 C113.32,33.00 131.98,33.34 131.96,33.75 C131.94,34.16 129.24,36.50 125.96,38.95 L 120.00 43.39 L 120.00 52.64 C120.00,57.72 119.66,62.08 119.25,62.33 C118.84,62.58 112.76,60.06 105.75,56.74 ZM 118.00 50.93 C118.00,42.40 117.63,43.13 125.00,37.11 L 127.50 35.07 L 91.00 35.06 L 54.50 35.05 L 58.00 38.00 L 61.50 40.95 L 77.78 40.97 C89.94,40.99 94.15,41.32 94.39,42.25 C96.25,49.25 96.41,49.40 106.48,54.66 C111.95,57.52 116.78,59.63 117.21,59.37 C117.65,59.10 118.00,55.31 118.00,50.93 ZM 85.71 21.38 C84.56,20.22 84.90,14.50 86.20,13.20 C86.86,12.54 89.13,12.00 91.25,12.00 L 95.11 12.00 L 94.80 16.75 L 94.50 21.50 L 90.46 21.80 C88.24,21.96 86.11,21.77 85.71,21.38 ZM 92.82 17.25 C93.23,14.38 90.41,13.16 88.29,15.29 C86.16,17.41 87.38,20.23 90.25,19.82 C91.70,19.61 92.61,18.70 92.82,17.25 ZM 94.00 95.95 C94.00,79.09 94.38,66.97 94.90,67.17 C95.40,67.35 104.81,71.74 115.83,76.92 L 135.85 86.34 L 134.24 90.42 C133.35,92.66 129.64,101.25 125.98,109.50 L 119.34 124.50 L 106.67 124.78 L 94.00 125.06 L 94.00 95.95 ZM 125.35 105.75 C132.61,89.33 132.89,88.44 131.10,87.20 C130.06,86.48 122.01,82.36 113.20,78.04 C97.92,70.54 97.16,70.28 96.61,72.34 C96.29,73.53 96.02,85.41 96.01,98.75 L 96.00 123.00 L 106.86 123.00 L 117.72 123.00 L 125.35 105.75 ZM 106.94 52.98 C98.60,48.77 97.50,47.77 96.77,43.75 L 96.28 41.00 L 106.01 41.00 L 115.73 41.00 L 115.29 48.25 C115.04,52.24 114.76,55.79 114.67,56.15 C114.58,56.51 111.10,55.08 106.94,52.98 ZM 113.17 48.38 C113.39,45.55 113.10,43.59 112.40,43.33 C111.78,43.09 108.63,43.03 105.39,43.20 C97.67,43.59 97.70,45.30 105.50,49.64 C108.80,51.47 111.79,52.98 112.15,52.99 C112.51,52.99 112.96,50.92 113.17,48.38 ZM 64.00 38.00 C64.00,37.36 73.67,37.00 91.00,37.00 C108.33,37.00 118.00,37.36 118.00,38.00 C118.00,38.64 108.33,39.00 91.00,39.00 C73.67,39.00 64.00,38.64 64.00,38.00 ZM 98.61 119.42 C98.27,118.55 98.00,107.97 98.00,95.92 C98.00,77.02 98.21,74.00 99.51,74.00 C101.39,74.00 128.61,87.56 129.45,88.92 C129.78,89.46 127.09,96.63 123.47,104.85 C116.12,121.52 116.73,120.96 105.86,120.99 C100.71,121.00 99.08,120.64 98.61,119.42 ZM 114.56 118.23 C115.51,117.58 128.19,89.78 127.70,89.43 C127.59,89.35 121.31,86.33 113.75,82.71 L 100.00 76.13 L 100.00 97.57 L 100.00 119.00 L 106.75 118.98 C110.46,118.98 113.98,118.64 114.56,118.23 ZM 102.67 116.33 C101.73,115.40 101.86,82.77 102.80,81.29 C103.36,80.41 106.50,81.52 114.22,85.29 L 124.87 90.50 L 119.45 102.93 C116.47,109.77 113.46,115.72 112.77,116.17 C111.23,117.14 103.60,117.27 102.67,116.33 ZM 111.29 113.75 C113.05,112.43 121.00,94.97 121.00,92.41 C121.00,90.93 107.93,84.00 105.13,84.00 C103.93,84.00 103.80,85.78 104.35,94.66 C104.71,100.52 105.00,107.49 105.00,110.16 C105.00,114.55 105.21,115.00 107.31,115.00 C108.58,115.00 110.37,114.44 111.29,113.75 ZM 107.67 111.33 C106.62,110.28 106.89,88.19 107.96,87.52 C108.81,87.00 119.00,91.48 119.00,92.38 C119.00,92.57 117.63,96.04 115.96,100.10 C111.59,110.70 109.65,113.32 107.67,111.33 ZM 115.96 94.35 C115.98,93.72 114.43,92.27 112.50,91.13 L 109.00 89.07 L 109.09 99.28 L 109.17 109.50 L 112.55 102.50 C114.40,98.65 115.94,94.98 115.96,94.35 Z" fill="rgba(0,0,0,1)"/>
</g>
</svg>