<svg xmlns="http://www.w3.org/2000/svg" width="146" height="143" viewBox="0 0 146 143">
<g>
<path d="M 56.50 137.36 C51.30,136.69 35.56,132.99 34.15,132.11 C33.41,131.64 31.96,127.05 30.93,121.90 C28.74,111.01 21.03,87.39 13.92,69.81 C8.09,55.38 7.37,56.96 22.44,51.08 C42.58,43.22 46.68,42.52 72.50,42.54 L 95.50 42.56 L 107.58 46.21 C122.98,50.86 134.00,55.73 134.00,57.88 C133.99,58.77 131.05,67.38 127.44,77.00 C120.55,95.40 115.04,113.22 112.95,123.82 C112.27,127.30 111.11,130.75 110.37,131.49 C108.51,133.35 92.05,137.09 82.88,137.73 L 75.27 138.27 L 74.66 133.88 C74.33,131.47 73.75,124.55 73.38,118.51 C72.51,104.62 71.33,106.91 70.28,124.50 L 69.50 137.50 L 64.50 137.62 C61.75,137.69 58.15,137.57 56.50,137.36 ZM 67.13 132.50 C68.28,127.87 69.95,99.15 70.67,71.66 C71.03,58.00 71.65,47.43 72.04,48.16 C72.43,48.90 73.05,59.62 73.42,72.00 C74.16,96.79 75.69,125.08 76.64,131.86 L 77.26 136.23 L 83.38 135.56 C91.66,134.66 106.44,131.16 108.21,129.69 C109.00,129.04 110.17,125.80 110.81,122.50 C112.72,112.78 119.69,90.65 126.10,74.01 C133.02,56.06 133.52,57.84 120.13,52.95 C100.52,45.80 94.28,44.68 73.50,44.59 C61.21,44.53 52.38,44.96 48.50,45.81 C39.76,47.73 23.58,52.77 17.36,55.52 L 11.98 57.90 L 14.59 64.70 C23.57,88.13 28.65,103.24 31.78,115.77 L 35.34 130.04 L 40.87 131.65 C48.48,133.86 59.90,135.90 63.44,135.68 C65.82,135.54 66.53,134.92 67.13,132.50 ZM 22.16 37.22 C22.47,27.13 22.71,25.93 24.92,23.58 L 27.35 21.00 L 72.09 21.00 L 116.82 21.00 L 119.41 24.08 C121.84,26.96 122.00,27.82 122.00,37.64 C122.00,47.17 121.84,48.09 120.25,47.60 C119.29,47.30 113.10,45.60 106.50,43.81 C94.63,40.60 94.25,40.56 72.00,40.56 C47.77,40.56 50.08,40.22 24.16,47.61 L 21.82 48.28 L 22.16 37.22 ZM 56.00 38.00 C73.51,35.98 89.64,37.21 108.09,41.98 C114.03,43.51 119.14,44.52 119.45,44.22 C120.68,42.98 119.94,29.79 118.47,26.95 L 116.95 24.00 L 72.00 24.00 L 27.05 24.00 L 25.53 26.95 C24.06,29.79 23.32,42.98 24.55,44.22 C24.86,44.52 30.14,43.47 36.30,41.87 C42.46,40.28 51.33,38.53 56.00,38.00 ZM 34.00 13.15 C34.00,5.21 35.43,4.00 44.83,4.00 C54.14,4.00 56.00,5.58 56.00,13.50 L 56.00 19.00 L 45.00 19.00 L 34.00 19.00 L 34.00 13.15 ZM 54.00 13.12 C54.00,8.10 52.22,6.72 45.09,6.20 C38.07,5.69 36.00,7.26 36.00,13.07 L 36.00 17.00 L 45.00 17.00 L 54.00 17.00 L 54.00 13.12 ZM 61.00 13.50 C61.00,5.27 62.99,3.68 72.70,4.17 C81.70,4.62 83.00,5.83 83.00,13.69 L 83.00 19.00 L 72.00 19.00 L 61.00 19.00 L 61.00 13.50 ZM 81.00 12.54 C81.00,7.18 79.42,6.00 72.29,6.00 C65.64,6.00 63.00,8.01 63.00,13.06 L 63.00 17.00 L 72.00 17.00 L 81.00 17.00 L 81.00 12.54 ZM 88.00 13.69 C88.00,5.44 89.18,4.50 99.50,4.50 C109.82,4.50 111.00,5.44 111.00,13.69 L 111.00 19.00 L 99.50 19.00 L 88.00 19.00 L 88.00 13.69 ZM 108.00 12.00 L 108.00 7.00 L 100.20 7.00 C91.26,7.00 90.00,7.77 90.00,13.20 L 90.00 17.00 L 99.00 17.00 L 108.00 17.00 L 108.00 12.00 ZM 54.36 132.89 C50.99,132.39 45.62,131.19 42.44,130.23 L 36.65 128.46 L 34.84 120.08 C32.35,108.48 26.13,89.11 19.62,72.66 L 14.14 58.82 L 19.32 56.47 C30.18,51.53 53.86,46.01 64.25,46.00 L 69.00 46.00 L 69.00 61.45 C69.00,76.28 67.58,108.48 66.17,125.42 C65.40,134.70 65.63,134.55 54.36,132.89 ZM 62.74 130.75 C64.26,128.83 66.05,103.30 66.70,74.25 L 67.29 48.00 L 62.60 48.00 C60.03,48.00 54.45,48.71 50.21,49.58 C41.74,51.32 18.31,58.66 17.65,59.79 C17.42,60.18 18.80,64.55 20.71,69.50 C26.90,85.49 32.94,103.61 35.87,115.01 C37.45,121.13 39.13,126.52 39.62,126.99 C40.47,127.81 56.83,131.74 60.13,131.91 C61.02,131.96 62.20,131.44 62.74,130.75 ZM 78.56 130.86 C77.41,124.11 75.96,97.86 75.33,72.25 L 74.68 46.00 L 79.71 46.00 C90.28,46.00 112.59,51.19 124.32,56.38 L 129.86 58.83 L 125.06 71.16 C117.81,89.77 114.07,101.15 110.47,115.50 L 107.21 128.50 L 98.36 130.71 C93.49,131.92 87.17,133.21 84.32,133.56 L 79.13 134.21 L 78.56 130.86 ZM 92.00 130.02 C95.57,129.40 99.90,128.46 101.60,127.92 C104.53,127.00 107.00,123.62 107.00,120.54 C107.00,117.55 114.53,93.52 120.61,77.11 C124.15,67.54 126.93,59.60 126.77,59.46 C124.19,57.08 99.28,50.41 86.10,48.58 L 76.70 47.27 L 77.39 72.88 C78.09,98.90 79.57,125.58 80.55,129.85 C80.97,131.67 81.58,132.08 83.29,131.66 C84.51,131.37 88.43,130.63 92.00,130.02 ZM 111.00 40.90 C107.97,39.78 103.57,38.51 101.20,38.08 C95.89,37.12 94.56,35.87 95.39,32.60 C96.92,26.48 105.00,27.69 105.00,34.05 C105.00,37.47 107.74,39.02 114.23,39.27 C117.13,39.39 118.00,39.84 118.00,41.21 C118.00,43.42 117.78,43.41 111.00,40.90 ZM 101.96 34.54 C103.46,32.74 102.50,31.00 100.02,31.00 C98.04,31.00 97.00,32.71 97.75,34.75 C98.37,36.43 100.48,36.33 101.96,34.54 ZM 26.00 40.08 C26.00,38.26 26.30,38.09 27.93,38.96 C29.24,39.66 30.72,39.68 32.50,39.00 C33.95,38.45 36.11,38.04 37.32,38.08 C39.19,38.15 39.06,38.35 36.47,39.50 C34.80,40.23 31.76,41.14 29.72,41.52 C26.37,42.15 26.00,42.01 26.00,40.08 ZM 26.95 35.91 C25.47,33.14 26.50,29.36 28.90,28.74 C31.64,28.02 35.45,30.18 35.80,32.65 C36.48,37.34 29.16,40.04 26.95,35.91 ZM 32.86 34.67 C33.68,33.68 33.58,32.84 32.48,31.42 C31.04,29.56 30.96,29.55 29.57,31.35 C27.01,34.65 30.20,37.87 32.86,34.67 ZM 40.98 36.19 C36.77,32.78 40.75,27.97 46.57,29.43 C51.12,30.57 49.05,38.00 44.18,38.00 C43.65,38.00 42.21,37.18 40.98,36.19 ZM 45.96 34.54 C47.34,32.89 46.56,31.00 44.50,31.00 C42.70,31.00 41.68,32.71 42.38,34.55 C43.09,36.40 44.43,36.40 45.96,34.54 ZM 109.65 36.17 C106.20,32.36 108.61,28.65 114.18,29.18 C116.98,29.45 117.55,29.94 117.82,32.31 C118.43,37.57 113.17,40.05 109.65,36.17 ZM 114.72 34.88 C116.10,33.50 115.28,31.00 113.45,31.00 C111.70,31.00 110.68,32.73 111.38,34.55 C112.05,36.29 113.20,36.40 114.72,34.88 ZM 51.19 32.75 L 51.50 29.50 L 72.25 29.23 L 93.00 28.96 L 93.00 32.48 L 93.00 36.00 L 71.94 36.00 L 50.87 36.00 L 51.19 32.75 ZM 89.50 32.00 C88.40,31.53 80.53,31.14 72.00,31.14 C63.47,31.14 55.60,31.53 54.50,32.00 C53.29,32.52 60.24,32.86 72.00,32.86 C83.76,32.86 90.71,32.52 89.50,32.00 ZM 46.00 27.10 C15.89,26.12 31.19,25.01 73.50,25.11 C94.40,25.16 112.62,25.56 114.00,26.00 C115.53,26.49 111.02,26.84 102.41,26.90 C94.66,26.96 82.96,27.16 76.41,27.35 C69.86,27.55 56.17,27.44 46.00,27.10 ZM 38.19 11.75 L 38.50 8.50 L 45.25 8.20 L 52.00 7.91 L 52.00 11.45 L 52.00 15.00 L 44.94 15.00 L 37.87 15.00 L 38.19 11.75 ZM 49.30 11.50 C49.03,10.10 46.39,9.70 42.37,10.46 C40.46,10.82 39.22,11.54 39.56,12.10 C40.36,13.39 49.56,12.82 49.30,11.50 ZM 65.00 11.50 L 65.00 8.00 L 72.00 8.00 L 79.00 8.00 L 79.00 11.50 L 79.00 15.00 L 72.00 15.00 L 65.00 15.00 L 65.00 11.50 ZM 77.50 11.50 C77.50,10.38 70.58,9.56 68.33,10.43 C67.53,10.73 67.17,11.46 67.53,12.04 C68.34,13.37 77.50,12.87 77.50,11.50 ZM 92.19 11.75 L 92.50 8.50 L 99.50 8.50 L 106.50 8.50 L 106.81 11.75 L 107.13 15.00 L 99.50 15.00 L 91.87 15.00 L 92.19 11.75 ZM 104.50 11.50 C104.50,10.38 97.58,9.56 95.33,10.43 C94.53,10.73 94.17,11.46 94.53,12.04 C95.34,13.37 104.50,12.87 104.50,11.50 ZM 55.00 129.01 C53.08,128.56 48.99,127.68 45.91,127.06 L 40.32 125.93 L 38.58 117.79 C36.22,106.84 28.91,84.37 23.51,71.46 L 19.09 60.92 L 21.79 59.85 C33.36,55.30 54.67,50.00 61.37,50.00 L 65.00 50.00 L 65.00 64.22 C65.00,78.54 63.45,110.96 62.18,122.99 C61.44,130.07 61.04,130.41 55.00,129.01 ZM 60.18 121.50 C61.21,114.04 63.00,77.60 63.00,63.95 L 63.00 52.00 L 60.55 52.00 C52.77,52.00 23.00,60.74 23.00,63.03 C23.00,63.46 25.88,71.85 29.39,81.66 C32.91,91.47 37.24,104.68 39.02,111.00 C40.79,117.32 42.61,122.90 43.06,123.39 C44.32,124.76 53.14,126.94 56.49,126.71 C59.28,126.51 59.53,126.17 60.18,121.50 ZM 82.52 128.82 C81.55,126.07 79.92,98.56 79.31,74.75 L 78.69 50.00 L 81.94 50.00 C90.09,50.00 119.93,57.68 122.91,60.54 C124.13,61.71 123.68,63.57 119.77,73.70 C114.36,87.68 109.10,103.99 105.90,116.65 L 103.58 125.81 L 95.04 127.46 C90.34,128.37 85.71,129.35 84.75,129.63 C83.78,129.91 82.78,129.54 82.52,128.82 ZM 94.36 125.59 C97.58,124.83 100.77,123.60 101.45,122.86 C102.13,122.11 103.72,117.45 104.98,112.50 C106.24,107.55 110.18,95.18 113.73,85.00 C122.67,59.38 122.62,61.56 114.35,59.13 C103.31,55.89 91.89,53.16 86.25,52.43 L 81.00 51.74 L 81.00 65.67 C81.00,79.77 83.68,124.67 84.61,126.18 C85.32,127.32 87.58,127.19 94.36,125.59 ZM 48.46 123.80 L 44.41 122.80 L 39.82 106.61 C37.29,97.71 32.94,84.38 30.14,76.98 C27.35,69.59 25.39,63.23 25.78,62.86 C27.97,60.78 58.17,53.37 59.95,54.47 C61.89,55.67 60.41,109.68 58.13,121.00 C57.33,124.98 55.43,125.53 48.46,123.80 ZM 57.03 112.40 C57.55,107.51 58.28,92.76 58.65,79.63 L 59.33 55.77 L 55.91 56.45 C50.16,57.60 33.28,61.94 30.60,62.96 C27.64,64.09 27.49,63.34 35.30,85.68 C37.83,92.93 41.09,103.28 42.54,108.68 C44.00,114.08 45.71,119.03 46.34,119.68 C47.88,121.24 54.29,122.91 55.30,122.02 C55.73,121.63 56.52,117.30 57.03,112.40 ZM 86.70 124.33 C84.55,120.85 82.27,56.41 84.23,54.44 C85.55,53.11 115.85,60.65 118.26,62.91 C118.68,63.30 116.34,71.06 113.07,80.15 C109.79,89.24 105.69,102.04 103.95,108.59 C102.21,115.14 100.37,121.02 99.86,121.65 C99.35,122.28 97.26,123.09 95.21,123.46 C93.17,123.83 90.54,124.37 89.36,124.65 C88.18,124.93 86.99,124.79 86.70,124.33 ZM 98.11 120.24 C98.49,119.83 99.97,115.18 101.39,109.91 C103.71,101.29 112.03,75.90 114.88,68.68 C116.43,64.77 116.35,64.48 113.29,63.08 C109.48,61.35 86.79,56.01 85.81,56.62 C84.26,57.57 85.25,89.93 87.59,115.37 L 88.23 122.24 L 92.82 121.61 C95.35,121.26 97.73,120.65 98.11,120.24 ZM 47.65 119.24 C47.39,118.82 46.45,115.56 45.55,111.99 C44.66,108.42 40.95,96.59 37.32,85.70 C33.12,73.12 31.06,65.54 31.66,64.94 C32.85,63.75 51.35,59.00 54.79,59.00 L 57.32 59.00 L 56.66 80.25 C56.29,91.94 55.70,105.66 55.35,110.75 L 54.70 120.00 L 51.41 120.00 C49.60,120.00 47.91,119.66 47.65,119.24 ZM 52.41 115.25 C54.41,105.68 55.71,62.56 54.04,61.52 C53.51,61.19 50.24,61.64 46.79,62.51 C35.84,65.27 34.00,66.05 34.00,67.91 C34.00,68.87 35.75,74.58 37.89,80.58 C40.03,86.59 43.24,96.68 45.02,103.00 C48.49,115.30 49.56,118.00 50.96,118.00 C51.44,118.00 52.10,116.76 52.41,115.25 ZM 89.63 115.75 C88.55,108.01 86.83,73.62 87.17,66.50 L 87.50 59.50 L 91.50 59.75 C96.46,60.06 111.16,63.79 112.46,65.07 C113.07,65.67 111.17,72.66 107.23,84.26 C103.83,94.29 100.33,105.65 99.45,109.50 C97.68,117.22 95.83,120.00 92.46,120.00 C90.59,120.00 90.13,119.30 89.63,115.75 ZM 96.15 112.42 C101.34,96.99 110.00,69.02 110.00,67.70 C110.00,66.08 107.75,65.17 97.10,62.48 C89.41,60.54 89.04,60.86 89.02,69.50 C89.01,78.16 90.90,113.08 91.54,115.82 C92.35,119.35 94.31,117.90 96.15,112.42 ZM 49.68 109.00 C48.34,105.88 36.00,69.04 36.00,68.15 C36.00,67.36 49.95,63.00 52.47,63.00 C53.39,63.00 52.22,98.93 51.06,106.00 C50.62,108.72 50.07,109.91 49.68,109.00 ZM 50.76 75.92 L 50.50 65.33 L 45.16 66.82 C42.22,67.64 39.59,68.91 39.31,69.65 C39.02,70.38 41.20,77.85 44.14,86.24 L 49.49 101.50 L 50.26 94.00 C50.68,89.88 50.91,81.74 50.76,75.92 ZM 93.50 107.75 C91.72,102.71 90.27,64.57 91.82,63.61 C92.51,63.19 108.00,66.67 108.76,67.43 C108.90,67.57 107.26,72.37 105.11,78.09 C102.96,83.82 99.77,93.11 98.03,98.75 C96.28,104.39 94.64,109.00 94.39,109.00 C94.14,109.00 93.74,108.44 93.50,107.75 ZM 102.10 80.66 C104.25,74.70 105.79,69.47 105.52,69.03 C104.98,68.16 97.07,66.00 94.40,66.00 C92.83,66.00 92.75,67.31 93.38,82.16 C93.76,91.04 94.37,98.78 94.72,99.36 C95.08,99.93 96.00,98.40 96.78,95.95 C97.56,93.50 99.96,86.62 102.10,80.66 Z" fill="#C9A227"/>
</g>
</svg>