<svg xmlns="http://www.w3.org/2000/svg" width="500" height="500" viewBox="0 0 500 500">
<g>
<path d="M 216.50 433.36 C208.65,433.01 187.73,431.17 177.00,429.88 C168.81,428.90 163.44,428.15 149.50,426.00 C145.93,425.45 140.07,424.55 136.50,424.00 C120.44,421.53 115.97,420.73 108.00,418.90 C103.32,417.82 95.37,415.54 90.32,413.83 C82.50,411.18 81.05,410.35 80.51,408.17 C78.69,400.93 84.51,366.95 90.21,351.50 C93.00,343.95 97.49,335.73 101.00,331.73 C103.76,328.60 104.59,326.96 103.94,325.93 C100.76,320.92 105.17,314.22 113.79,310.94 C120.90,308.24 151.43,297.50 159.50,294.86 C166.20,292.67 170.80,293.01 173.41,295.91 C175.06,297.73 175.26,297.72 181.18,295.59 C186.57,293.65 187.56,292.85 190.02,288.47 C193.94,281.47 198.69,276.12 202.62,274.24 C207.74,271.80 207.36,267.19 201.20,256.68 C198.56,252.18 194.92,245.12 193.12,240.98 C190.73,235.50 188.93,232.87 186.48,231.26 C184.63,230.05 181.39,226.46 179.28,223.28 C172.68,213.33 170.67,207.73 170.57,199.03 C170.49,191.82 172.10,187.42 175.16,186.45 C177.90,185.58 177.56,179.72 174.50,175.21 C173.12,173.19 171.99,170.85 171.97,170.02 C171.95,169.18 171.28,167.63 170.47,166.56 C169.66,165.49 168.99,162.57 168.98,160.06 C168.97,154.60 168.50,153.79 164.14,151.55 C158.41,148.62 151.82,141.79 149.35,136.22 C144.68,125.72 147.23,114.18 156.29,104.79 C169.11,91.50 194.81,78.76 220.56,72.95 C233.50,70.02 261.21,69.68 273.00,72.29 C289.95,76.05 303.14,80.81 316.94,88.16 C334.16,97.32 342.64,105.43 347.08,117.00 C351.88,129.51 344.99,144.34 330.72,152.21 C326.68,154.44 326.47,154.78 325.87,160.34 C325.53,163.54 324.74,166.66 324.12,167.28 C323.51,167.89 323.00,169.28 323.00,170.36 C323.00,171.43 321.88,173.79 320.50,175.59 C317.20,179.92 317.15,184.66 320.39,186.13 C324.18,187.86 325.52,191.51 325.34,199.70 C325.07,212.51 318.67,225.94 310.08,231.73 C307.56,233.43 305.65,236.33 302.53,243.25 C300.23,248.34 296.55,255.45 294.35,259.06 C289.23,267.47 289.33,271.64 294.73,274.55 C298.71,276.70 303.22,281.91 306.98,288.72 C309.19,292.72 310.26,293.55 315.72,295.50 C321.75,297.66 321.99,297.67 323.61,295.88 C324.52,294.87 326.68,293.78 328.39,293.47 C331.78,292.84 332.14,292.95 365.50,304.44 C384.85,311.11 387.90,312.46 390.87,315.62 C393.88,318.84 394.18,319.69 393.74,323.57 C393.36,327.00 393.66,328.29 395.18,329.66 C398.17,332.37 403.75,342.10 406.50,349.41 C412.15,364.41 416.99,388.76 416.99,402.22 C417.00,409.74 416.92,409.99 414.10,411.45 C407.01,415.12 380.70,421.17 357.00,424.60 C350.67,425.51 342.80,426.65 339.50,427.13 C300.53,432.75 254.99,435.06 216.50,433.36 ZM 281.50 431.47 C303.32,430.32 327.54,427.63 349.25,423.94 C356.05,422.78 357.31,422.61 367.00,421.50 C381.89,419.80 413.39,411.44 415.28,408.68 C416.29,407.20 415.33,393.19 413.44,381.96 C409.82,360.36 403.08,341.41 395.94,332.74 C391.50,327.35 390.34,328.12 394.57,333.66 C399.59,340.24 402.34,346.04 405.86,357.52 C410.25,371.82 412.99,386.97 413.27,398.46 L 413.50 408.41 L 405.09 411.30 C396.62,414.21 374.11,419.22 363.65,420.52 C358.42,421.18 358.00,421.08 358.00,419.22 C358.00,418.12 358.62,416.98 359.38,416.68 C360.66,416.19 361.74,412.14 365.05,395.23 C366.64,387.12 365.72,386.23 363.47,393.69 C360.30,404.18 358.22,411.43 356.98,416.22 C355.62,421.46 355.53,421.51 345.50,422.99 C310.47,428.14 278.01,430.86 248.50,431.11 C236.94,431.21 231.75,431.55 234.00,432.06 C237.39,432.84 261.09,432.54 281.50,431.47 ZM 232.57 417.41 C238.03,409.39 243.89,400.95 245.60,398.66 C247.30,396.37 254.91,385.33 262.50,374.12 L 276.30 353.75 L 278.10 356.12 C279.09,357.43 281.94,361.88 284.44,366.00 C286.94,370.12 289.77,374.78 290.74,376.34 L 292.50 379.17 L 287.50 383.73 C277.81,392.55 246.95,415.00 244.51,415.00 C244.17,415.00 242.24,416.12 240.21,417.50 C238.19,418.88 236.17,420.00 235.72,420.00 C234.96,420.00 243.88,406.59 256.70,388.50 C259.81,384.10 265.45,375.87 269.23,370.21 L 276.09 359.92 L 282.10 369.07 C289.14,379.79 289.72,377.99 275.50,389.49 C261.91,400.47 245.77,411.24 244.93,409.88 C244.47,409.14 243.61,409.66 242.47,411.40 C241.51,412.86 240.96,414.29 241.23,414.56 C242.62,415.95 273.79,394.12 285.49,383.57 L 290.47 379.07 L 288.61 375.79 C284.99,369.39 276.74,357.00 276.12,357.04 C275.78,357.06 270.17,365.04 263.66,374.79 C253.04,390.68 235.48,416.16 229.10,424.93 L 226.70 428.23 L 229.10 427.49 C237.73,424.85 255.39,414.58 270.00,403.72 C281.36,395.26 298.00,381.16 298.00,379.99 C298.00,379.23 295.62,375.22 285.17,358.39 C283.43,355.58 282.00,353.06 282.00,352.79 C282.00,352.53 289.27,352.00 298.16,351.62 C307.04,351.24 314.71,350.68 315.20,350.38 C315.69,350.07 315.81,345.93 315.46,341.16 C313.34,311.95 303.23,284.21 292.64,278.50 C290.68,277.45 288.80,276.86 288.47,277.20 C288.13,277.53 288.40,283.24 289.07,289.89 C290.42,303.35 289.52,312.61 285.82,323.50 C283.78,329.49 278.52,340.77 277.04,342.32 C276.28,343.12 260.00,320.79 260.00,318.94 C260.00,318.42 260.56,318.00 261.25,318.00 C264.30,318.00 274.99,311.87 280.12,307.18 C287.97,299.99 288.41,298.57 287.12,284.42 C286.53,277.98 285.80,272.46 285.49,272.16 C285.18,271.85 285.23,277.65 285.60,285.05 L 286.27 298.50 L 281.58 303.71 C276.70,309.13 269.34,313.87 262.50,316.01 C260.30,316.70 258.16,317.45 257.75,317.69 C256.56,318.37 275.20,345.00 276.88,345.00 C278.08,345.00 285.57,329.44 288.19,321.50 C290.26,315.22 290.49,312.69 290.44,296.82 C290.38,277.39 290.36,277.44 296.13,283.66 C304.45,292.65 312.14,317.05 313.64,339.25 C314.18,347.24 314.05,349.01 312.90,349.07 C312.13,349.11 304.21,349.68 295.30,350.32 L 279.10 351.50 L 287.55 365.27 C292.20,372.84 296.00,379.41 296.00,379.87 C296.00,380.65 279.61,394.61 270.50,401.58 C258.37,410.87 232.65,425.98 231.28,424.62 C230.53,423.86 229.81,424.32 240.00,419.10 C253.36,412.27 276.00,396.45 287.34,386.03 C289.45,384.09 291.81,382.14 292.59,381.70 C294.96,380.36 294.26,378.52 286.87,366.70 C278.53,353.37 276.03,350.08 275.39,351.60 C274.89,352.80 256.83,380.00 252.22,386.50 C243.58,398.68 240.52,403.10 236.79,408.75 C234.53,412.19 232.36,415.00 231.97,415.00 C231.58,415.00 227.14,411.34 222.10,406.87 C217.05,402.40 212.67,399.00 212.36,399.31 C212.05,399.62 213.51,401.37 215.61,403.19 C226.29,412.44 230.47,416.54 230.18,417.47 C230.00,418.04 227.97,421.32 225.68,424.77 C221.85,430.51 221.25,430.99 218.50,430.56 C216.85,430.31 211.23,429.81 206.00,429.46 C192.43,428.54 170.02,425.92 151.00,423.03 C147.43,422.48 144.00,422.03 143.38,422.02 C142.76,422.01 141.72,419.86 141.06,417.25 C137.45,402.96 136.54,399.73 133.78,391.50 C132.12,386.55 130.38,381.83 129.91,381.00 C128.13,377.85 129.14,382.12 132.90,393.60 C135.04,400.14 137.60,409.40 138.59,414.17 L 140.38 422.84 L 146.69 423.92 C171.12,428.09 197.45,431.01 218.07,431.82 L 222.65 432.00 L 232.57 417.41 ZM 232.74 429.31 C236.46,427.83 241.98,425.28 245.00,423.65 C251.07,420.37 275.33,404.21 278.51,401.33 C279.62,400.32 283.22,397.31 286.51,394.64 C289.81,391.97 294.70,387.78 297.40,385.33 L 302.30 380.87 L 299.95 376.69 C298.65,374.38 295.25,368.67 292.38,364.00 L 287.16 355.50 L 301.83 354.72 C309.90,354.29 317.06,353.74 317.75,353.50 C321.07,352.33 316.80,317.02 311.85,304.72 C310.41,301.15 310.82,300.84 315.31,302.07 C317.89,302.79 319.00,303.66 319.00,304.97 C319.00,308.33 323.61,312.44 332.14,316.68 C341.27,321.22 353.79,327.00 354.50,327.00 C354.74,327.00 357.32,328.07 360.22,329.38 C363.12,330.69 368.54,332.78 372.25,334.02 C375.96,335.26 379.00,336.67 379.00,337.16 C379.00,337.65 377.21,341.61 375.01,345.98 C367.82,360.27 357.38,388.34 351.53,409.07 L 349.96 414.64 L 333.73 416.79 C311.93,419.68 302.28,420.70 284.50,421.99 C276.25,422.59 267.57,423.24 265.21,423.42 C262.84,423.61 261.04,423.41 261.21,422.98 C261.37,422.55 266.12,419.06 271.78,415.23 C284.16,406.84 300.59,393.41 306.03,387.23 L 309.99 382.73 L 306.49 378.11 C304.57,375.58 301.01,370.29 298.59,366.37 L 294.18 359.23 L 297.84 358.63 C299.85,358.29 305.34,358.02 310.03,358.01 C321.76,358.00 323.00,357.05 323.00,348.11 C323.00,339.78 319.13,313.63 317.50,311.01 C317.22,310.55 317.48,310.01 318.07,309.81 C319.80,309.23 316.97,304.00 314.93,304.00 C313.27,304.00 313.27,304.28 314.92,309.75 C315.87,312.91 317.21,319.10 317.89,323.50 C318.57,327.90 319.55,334.24 320.06,337.58 C321.43,346.46 321.24,352.56 319.55,353.96 C318.71,354.66 312.50,355.47 304.54,355.93 C297.07,356.35 290.75,356.92 290.48,357.19 C290.21,357.46 291.70,360.34 293.79,363.59 C295.89,366.84 299.08,372.10 300.88,375.27 L 304.17 381.04 L 299.33 385.61 C296.68,388.12 291.35,392.72 287.50,395.84 C283.65,398.95 280.27,401.73 280.00,402.02 C279.26,402.81 266.18,412.23 261.00,415.71 C258.52,417.38 252.47,421.05 247.54,423.87 C237.25,429.76 236.30,429.36 260.00,429.12 C282.95,428.88 305.69,427.00 335.50,422.88 C356.04,420.03 354.83,420.43 355.58,416.18 C358.54,399.34 378.60,346.59 386.14,335.85 C388.84,331.99 388.46,331.00 384.24,331.00 C382.18,331.00 373.98,328.77 366.03,326.04 C358.08,323.32 351.38,321.28 351.15,321.52 C350.91,321.75 351.80,322.37 353.11,322.88 C354.43,323.40 360.61,325.88 366.85,328.41 C373.09,330.93 378.57,333.00 379.03,333.00 C379.49,333.00 380.96,333.41 382.29,333.92 L 384.71 334.84 L 379.58 345.17 C374.75,354.89 371.14,363.49 366.00,377.50 C364.79,380.80 363.41,384.40 362.93,385.50 C362.45,386.60 360.20,393.80 357.94,401.50 C355.67,409.20 353.64,416.07 353.43,416.77 C352.89,418.57 354.60,418.23 327.00,422.00 C300.24,425.65 244.30,429.18 246.60,427.08 C247.09,426.62 249.66,425.06 252.30,423.61 C265.87,416.18 288.30,399.64 299.75,388.63 C303.74,384.80 307.00,382.09 307.00,382.61 C307.00,386.35 273.42,413.12 255.37,423.78 L 251.50 426.07 L 269.00 425.50 C278.62,425.19 290.77,424.49 296.00,423.95 C317.28,421.76 326.11,420.71 338.37,418.90 C345.45,417.85 351.39,417.00 351.58,417.00 C351.77,417.00 352.42,415.09 353.02,412.75 C357.47,395.48 369.61,362.08 377.22,346.17 C379.94,340.48 382.02,335.71 381.83,335.56 C381.65,335.41 377.90,334.06 373.50,332.57 C369.10,331.07 364.15,329.23 362.50,328.48 C360.85,327.72 355.00,325.11 349.50,322.66 C323.89,311.28 321.00,309.39 321.00,304.04 C321.00,302.92 320.88,302.00 320.74,302.00 C320.59,302.00 318.01,301.10 315.00,300.00 C308.31,297.55 307.59,297.53 308.51,299.75 C312.62,309.70 316.99,332.59 317.00,344.18 L 317.00 351.86 L 311.75 352.39 C308.86,352.68 301.78,353.19 296.02,353.52 C290.26,353.85 285.37,354.29 285.17,354.50 C284.96,354.71 287.92,359.97 291.74,366.19 C295.57,372.41 299.04,378.10 299.45,378.82 C300.40,380.48 297.86,383.27 287.50,391.95 C277.22,400.56 262.54,411.30 252.98,417.21 C245.88,421.59 230.94,429.00 229.19,429.00 C228.15,429.00 224.26,431.93 225.24,431.97 C225.65,431.99 229.02,430.79 232.74,429.31 ZM 224.87 423.32 C227.09,420.20 228.67,417.28 228.40,416.84 C228.12,416.39 222.86,411.59 216.70,406.17 C210.54,400.74 201.94,392.82 197.59,388.56 L 189.68 380.82 L 191.54 377.66 C192.57,375.92 196.00,370.67 199.17,366.00 C206.05,355.87 206.99,356.65 186.52,355.59 C177.57,355.13 172.26,354.44 171.78,353.68 C170.56,351.76 170.88,346.83 172.91,336.36 C176.82,316.18 177.35,313.02 176.93,312.59 C176.69,312.36 172.45,314.14 167.50,316.55 C162.55,318.97 149.27,324.63 138.00,329.13 C126.72,333.64 117.34,337.44 117.15,337.59 C116.96,337.74 119.14,342.96 122.00,349.18 C131.98,370.90 139.83,392.37 143.56,408.17 C144.51,412.20 145.61,415.86 146.00,416.30 C147.71,418.25 200.13,424.99 213.59,425.00 C219.45,425.00 219.78,424.86 222.25,421.39 L 224.82 417.78 L 216.16 410.59 C211.40,406.64 203.28,400.09 198.13,396.03 C187.33,387.53 184.61,383.95 186.24,380.37 C186.84,379.07 187.71,378.00 188.20,378.00 C188.68,378.00 188.56,378.96 187.93,380.13 C187.14,381.61 187.10,382.93 187.81,384.49 C188.37,385.71 195.36,391.95 203.33,398.35 C211.31,404.74 218.43,410.57 219.17,411.30 C219.90,412.04 221.74,413.44 223.25,414.43 C226.75,416.72 226.70,417.65 222.81,422.94 L 219.63 427.27 L 211.56 426.64 C194.87,425.34 175.07,423.04 156.15,420.20 L 144.79 418.50 L 142.47 409.50 C137.59,390.61 129.26,367.94 119.91,348.12 C117.19,342.35 115.31,337.30 115.73,336.89 C116.15,336.49 123.47,333.38 132.00,329.99 C159.79,318.95 172.87,312.99 175.12,310.38 C176.01,309.35 177.36,307.18 178.12,305.57 C179.32,303.02 184.37,300.04 185.53,301.19 C185.75,301.41 185.26,303.82 184.44,306.55 C180.62,319.23 176.77,349.12 178.80,350.38 C179.22,350.64 186.75,351.14 195.53,351.50 C204.32,351.86 212.10,352.35 212.83,352.58 C213.79,352.88 213.34,354.06 211.24,356.75 C207.03,362.14 196.00,378.78 196.00,379.73 C196.00,380.81 210.58,394.99 219.99,403.07 C224.11,406.61 228.36,410.29 229.43,411.25 C230.50,412.21 231.63,412.98 231.94,412.95 C232.25,412.93 235.95,407.70 240.17,401.34 L 247.85 389.76 L 244.35 385.13 C235.30,373.14 219.61,348.30 215.16,338.92 C206.72,321.13 205.52,315.99 205.51,297.75 C205.50,289.09 205.22,282.00 204.88,282.00 C203.83,282.00 202.80,301.57 203.54,307.71 C205.03,320.25 209.69,333.42 217.16,346.22 C218.67,348.81 219.51,351.19 219.02,351.49 C218.53,351.79 216.00,355.07 213.41,358.77 C205.23,370.43 200.37,377.46 199.69,378.63 C199.30,379.29 203.71,384.04 210.26,390.03 C229.53,407.63 232.00,409.71 232.00,408.30 C232.00,407.79 225.25,401.36 217.00,394.03 C208.75,386.70 202.00,380.20 202.00,379.58 C202.00,378.00 218.91,353.50 220.00,353.50 C220.50,353.50 224.44,358.90 228.77,365.50 C233.09,372.10 238.51,379.98 240.81,383.00 C243.11,386.02 244.99,389.10 245.00,389.83 C245.00,390.79 233.92,408.01 231.51,410.79 C231.12,411.24 199.79,382.70 198.66,380.87 C197.65,379.23 201.66,372.46 212.87,356.89 L 216.90 351.29 L 204.20 350.62 C197.22,350.26 188.86,349.68 185.62,349.34 L 179.75 348.71 L 180.42 339.11 C181.25,327.26 183.33,315.67 186.43,305.64 C187.92,300.80 188.38,298.00 187.67,298.00 C187.07,298.00 184.59,298.76 182.17,299.68 C178.58,301.05 177.44,302.14 175.94,305.63 C173.91,310.38 172.68,311.17 156.50,318.01 C151.00,320.34 144.25,323.24 141.50,324.45 C138.75,325.66 134.93,327.23 133.00,327.94 C131.07,328.65 127.70,330.02 125.50,330.97 C123.30,331.93 119.35,333.52 116.72,334.50 C114.09,335.49 112.06,336.57 112.23,336.90 C112.39,337.23 114.46,341.26 116.83,345.86 C125.86,363.39 137.17,393.80 140.92,410.66 C141.98,415.38 143.21,419.57 143.67,419.97 C145.37,421.48 202.19,428.50 215.67,428.86 L 220.84 429.00 L 224.87 423.32 ZM 138.16 419.41 C137.79,416.13 133.04,397.73 132.41,397.08 C132.18,396.85 132.00,397.67 132.00,398.89 C132.00,400.98 132.46,403.37 135.14,415.31 C135.73,417.95 136.02,420.32 135.78,420.56 C135.12,421.21 113.82,417.24 103.50,414.55 C92.71,411.72 84.83,409.11 83.61,407.96 C81.90,406.34 86.54,374.01 90.20,362.00 C94.42,348.17 99.71,337.21 104.81,331.75 C106.22,330.24 106.87,329.00 106.26,329.00 C104.63,329.00 99.54,335.50 96.15,341.92 C89.28,354.92 83.49,378.48 82.33,398.14 C81.63,410.13 81.18,409.32 90.23,412.37 C102.09,416.37 134.31,423.31 137.50,422.56 C138.05,422.43 138.35,421.01 138.16,419.41 ZM 298.00 419.39 C314.58,417.90 344.19,414.33 347.01,413.47 C347.97,413.18 350.63,406.49 354.27,395.19 C360.30,376.49 366.24,361.02 372.99,346.41 C375.20,341.61 376.90,337.60 376.76,337.50 C376.62,337.40 371.10,335.18 364.50,332.57 C357.90,329.95 350.48,326.90 348.00,325.77 C333.05,319.00 323.17,314.08 322.57,313.11 C322.19,312.50 321.21,312.00 320.38,312.00 C319.56,312.00 319.16,312.44 319.49,312.99 C320.55,314.70 325.00,343.56 325.00,348.73 C325.00,352.53 322.77,357.49 320.70,358.28 C319.95,358.57 314.28,359.14 308.11,359.54 C299.15,360.12 296.99,360.54 297.42,361.65 C298.13,363.50 305.73,374.76 308.67,378.33 C309.95,379.88 311.00,381.80 311.00,382.60 C311.00,385.70 294.92,400.26 275.50,414.74 L 272.50 416.97 L 280.00 416.42 C299.20,415.01 322.58,412.73 333.50,411.19 L 345.50 409.50 L 351.11 392.50 C357.04,374.55 362.90,359.34 368.60,347.11 C370.50,343.04 371.93,339.63 371.77,339.52 C371.62,339.42 367.67,337.83 363.00,335.99 C353.47,332.25 345.37,328.67 334.13,323.21 C329.93,321.17 326.09,319.33 325.60,319.12 C325.08,318.90 324.99,320.40 325.39,322.62 C327.68,335.54 328.85,349.97 327.87,353.50 C325.98,360.34 323.66,361.67 312.16,362.49 L 301.99 363.22 L 307.33 370.86 C315.16,382.05 315.33,382.46 313.57,385.86 C312.75,387.44 308.13,392.45 303.29,396.98 L 294.50 405.22 L 304.00 404.68 C317.35,403.93 335.80,402.01 338.18,401.13 C339.63,400.59 341.22,397.37 343.96,389.44 C350.30,371.04 350.94,369.34 355.63,358.24 C358.13,352.33 360.41,346.93 360.70,346.24 C361.03,345.45 359.06,344.03 355.36,342.40 C344.87,337.77 340.58,335.79 335.75,333.36 C331.12,331.03 331.00,331.02 331.00,332.97 C331.00,334.51 332.93,335.88 339.25,338.82 C343.79,340.93 349.64,343.47 352.25,344.47 C354.86,345.46 357.00,346.63 357.00,347.06 C357.00,347.49 354.33,354.52 351.06,362.67 C347.80,370.83 343.73,381.55 342.02,386.50 C340.31,391.45 338.54,396.17 338.09,397.00 C337.27,398.53 320.19,400.76 308.03,400.93 L 302.56 401.00 L 308.67 394.75 C314.99,388.28 317.00,385.32 317.00,382.47 C317.00,381.55 314.52,377.29 311.49,372.99 L 305.99 365.18 L 314.54 364.47 C322.10,363.84 323.42,363.43 325.91,360.93 C330.19,356.66 331.25,350.89 329.85,339.51 C329.20,334.27 328.93,329.74 329.24,329.43 C329.55,329.12 332.66,330.32 336.15,332.08 C339.64,333.85 347.00,337.25 352.50,339.63 C359.66,342.73 362.41,344.40 362.20,345.51 C362.03,346.36 360.31,350.76 358.37,355.28 C354.22,364.93 346.08,386.63 342.99,396.25 C340.85,402.92 340.79,403.00 337.25,403.00 C335.28,403.00 330.93,403.42 327.58,403.94 C324.24,404.46 314.68,405.44 306.34,406.12 C294.63,407.07 290.65,407.76 288.84,409.15 L 286.50 410.96 L 289.00 410.97 C291.69,410.98 315.22,408.76 331.50,406.97 C337.00,406.36 341.99,405.33 342.58,404.68 C343.18,404.03 345.60,397.65 347.96,390.50 C352.16,377.80 357.48,363.52 361.00,355.50 C361.96,353.30 363.66,349.41 364.78,346.85 L 366.80 342.20 L 362.15 340.43 C357.66,338.72 344.13,332.58 333.23,327.30 C328.88,325.19 325.81,323.00 327.20,323.00 C327.38,323.00 331.73,325.04 336.87,327.54 C345.04,331.51 364.28,339.97 367.70,341.10 C368.52,341.37 367.60,344.40 364.86,350.50 C357.78,366.24 345.00,401.64 345.00,405.51 C345.00,406.24 342.72,406.98 339.25,407.38 C336.09,407.74 329.67,408.49 325.00,409.04 C312.32,410.52 282.71,413.04 282.33,412.67 C282.15,412.49 286.51,408.83 292.02,404.53 C303.29,395.75 313.00,385.81 313.00,383.05 C313.00,382.04 311.07,378.58 308.71,375.36 C306.35,372.14 303.43,367.87 302.22,365.89 L 300.01 362.28 L 305.25 361.65 C308.14,361.30 312.38,361.01 314.68,361.01 C327.01,360.98 329.17,354.41 324.99,329.68 C323.90,323.18 323.00,317.44 323.00,316.92 C323.00,316.41 327.39,318.18 332.75,320.86 C338.11,323.54 345.88,327.20 350.00,328.98 C354.12,330.76 358.85,332.80 360.50,333.51 C362.15,334.23 365.65,335.60 368.28,336.55 C370.91,337.51 373.28,338.64 373.53,339.05 C373.79,339.47 373.11,341.54 372.03,343.65 C364.34,358.64 355.09,383.13 347.32,409.13 C347.00,410.19 345.21,410.98 342.17,411.40 C319.17,414.61 300.90,416.49 281.82,417.59 C272.76,418.11 269.52,418.69 267.32,420.18 L 264.50 422.09 L 273.00 421.48 C277.67,421.14 288.92,420.20 298.00,419.39 ZM 133.51 415.75 C132.31,410.44 131.35,405.11 129.61,394.00 C128.70,388.23 127.48,380.58 126.90,377.00 C126.32,373.42 124.07,366.00 121.90,360.50 C117.51,349.37 108.93,332.81 107.26,332.25 C103.93,331.14 94.79,350.26 90.66,367.00 C87.24,380.86 84.81,396.70 85.19,402.64 C85.50,407.38 85.53,407.43 90.45,409.18 C99.44,412.39 125.34,418.37 132.38,418.87 C133.99,418.98 134.15,418.55 133.51,415.75 ZM 370.57 417.96 C387.88,414.94 410.04,409.09 412.40,406.92 C414.58,404.93 408.63,369.89 403.54,354.72 C400.25,344.92 394.53,334.59 391.35,332.69 C390.14,331.97 387.08,336.61 381.96,346.92 C375.74,359.45 373.15,367.58 371.99,378.11 C370.99,387.28 368.19,404.34 366.39,412.25 C365.87,414.56 366.09,415.00 367.83,415.00 C371.38,415.00 393.14,410.27 401.00,407.79 L 408.50 405.42 L 408.83 400.96 C409.57,391.12 403.92,363.73 398.23,349.50 C395.84,343.54 392.10,337.00 391.07,337.00 C390.09,337.00 378.59,361.40 377.16,366.50 C376.55,368.70 375.34,376.57 374.49,383.99 C373.63,391.42 372.26,400.37 371.45,403.89 C370.63,407.41 370.19,410.53 370.47,410.81 C371.35,411.68 396.70,405.85 402.45,403.45 C405.24,402.28 405.38,401.94 405.13,396.86 C404.71,388.10 401.28,370.20 398.01,359.71 C395.10,350.38 392.27,344.00 391.04,344.00 C389.77,344.00 389.66,347.24 390.88,348.55 C393.56,351.43 398.97,372.09 401.46,388.93 C403.34,401.66 403.36,400.67 401.25,401.26 C383.16,406.33 373.00,408.50 373.00,407.30 C373.00,406.86 373.63,403.12 374.40,399.00 C375.17,394.88 376.34,386.55 376.99,380.50 C377.72,373.81 379.15,366.95 380.65,363.00 C384.32,353.33 390.20,341.00 391.14,341.00 C393.54,341.00 400.01,359.01 403.53,375.50 C404.79,381.40 407.00,397.38 407.00,400.59 C407.00,403.67 406.70,403.94 401.75,405.38 C389.39,408.97 371.85,413.00 368.63,413.00 C368.16,413.00 368.05,411.99 368.40,410.75 C369.59,406.56 371.85,393.54 372.95,384.50 C373.56,379.55 374.27,373.81 374.54,371.75 C374.80,369.69 375.74,365.86 376.62,363.25 C378.44,357.84 387.35,339.51 389.63,336.50 C391.11,334.53 391.18,334.55 393.57,337.50 C400.02,345.47 406.48,367.24 410.05,393.00 C411.80,405.63 411.73,405.79 403.50,408.49 C394.68,411.39 385.31,413.69 374.75,415.55 C363.86,417.46 363.67,417.45 364.26,414.75 C368.34,396.14 370.32,383.51 369.79,379.50 L 369.40 376.50 L 368.79 380.00 C368.46,381.92 367.41,388.23 366.47,394.00 C364.92,403.43 364.29,406.82 362.34,416.25 C361.68,419.43 361.91,419.48 370.57,417.96 ZM 254.24 403.33 C263.85,396.74 282.02,382.74 284.44,380.07 C286.00,378.34 285.83,377.79 281.47,370.61 C278.92,366.41 276.45,363.22 275.97,363.52 C275.49,363.82 271.08,370.01 266.18,377.28 C261.28,384.55 254.52,394.33 251.15,399.00 C245.45,406.92 244.27,409.00 245.49,409.00 C245.75,409.00 249.69,406.45 254.24,403.33 ZM 384.00 404.44 C387.58,403.60 392.86,402.22 395.75,401.38 C400.54,399.99 401.00,399.60 401.00,396.93 C401.00,385.94 391.78,349.00 389.04,349.00 C386.70,349.00 380.21,366.90 378.94,376.90 C378.34,381.63 377.20,389.83 376.42,395.12 C375.64,400.41 375.00,405.02 375.00,405.37 C375.00,406.32 376.84,406.13 384.00,404.44 ZM 238.78 397.35 L 243.83 389.70 L 237.54 381.10 C234.08,376.37 228.88,368.77 226.00,364.21 C223.11,359.65 220.26,356.08 219.67,356.28 C218.26,356.75 204.10,377.13 204.04,378.77 C203.98,380.75 230.35,404.95 232.61,404.98 C233.23,404.99 236.00,401.56 238.78,397.35 ZM 325.93 397.99 C331.67,397.43 336.49,396.84 336.65,396.68 C336.92,396.42 342.23,381.93 345.52,372.50 C346.28,370.30 348.94,363.66 351.42,357.75 C353.89,351.84 355.50,347.00 354.99,347.00 C354.48,347.00 351.68,345.93 348.78,344.61 C345.88,343.30 340.90,341.05 337.72,339.61 C330.94,336.55 331.00,336.56 331.00,338.52 C331.00,339.89 348.53,349.00 351.18,349.00 C351.72,349.00 352.02,349.36 351.83,349.79 C349.96,354.25 340.35,378.75 338.80,383.00 C337.70,386.02 336.35,389.71 335.81,391.18 C334.90,393.62 334.22,393.92 328.16,394.47 C324.50,394.81 320.04,395.31 318.25,395.59 C316.46,395.86 315.00,395.86 315.00,395.58 C315.00,395.30 316.35,392.94 318.00,390.34 C322.04,383.97 321.94,380.04 317.57,373.97 C315.68,371.34 314.41,368.92 314.74,368.60 C315.07,368.27 316.99,368.00 319.02,368.00 C326.49,368.00 334.00,359.37 334.00,350.79 C334.00,348.70 334.21,347.00 334.47,347.00 C335.43,347.00 346.00,351.91 346.00,352.35 C346.00,352.61 343.13,360.17 339.62,369.16 C336.11,378.15 332.93,386.51 332.55,387.75 C331.99,389.59 331.14,390.00 327.91,390.00 C324.09,390.00 323.99,389.91 324.72,387.25 C325.84,383.19 325.26,377.33 323.48,374.61 C321.95,372.27 322.01,372.16 326.46,369.68 C331.23,367.01 331.74,367.28 329.83,371.48 C329.02,373.25 328.98,374.38 329.69,375.09 C330.39,375.79 332.01,372.91 334.86,365.87 C337.99,358.11 338.70,355.43 337.75,354.83 C335.77,353.57 335.48,353.79 334.12,357.55 C332.29,362.60 326.77,367.72 321.48,369.26 L 316.97 370.57 L 319.47 373.96 C320.85,375.83 322.23,378.74 322.55,380.43 C323.12,383.52 320.96,390.29 319.02,391.49 C318.46,391.84 318.00,392.59 318.00,393.18 C318.00,393.89 320.51,394.00 325.75,393.52 C330.01,393.12 333.62,392.68 333.78,392.54 C333.93,392.40 335.82,387.28 337.99,381.16 C340.15,375.05 343.71,365.68 345.91,360.35 C349.82,350.86 350.10,349.06 347.69,348.95 C347.04,348.92 343.35,347.41 339.50,345.59 L 332.50 342.30 L 331.95 348.90 C330.97,360.78 325.84,366.00 315.13,366.00 C311.76,366.00 309.00,366.24 309.00,366.54 C309.00,366.84 311.02,370.05 313.50,373.66 C319.78,382.83 319.36,386.44 311.08,394.45 C308.84,396.63 307.00,398.71 307.00,399.08 C307.00,399.78 308.70,399.68 325.93,397.99 ZM 212.00 398.08 C212.00,397.58 211.59,397.02 211.09,396.83 C209.37,396.20 194.00,380.96 194.00,379.88 C194.00,379.29 197.77,373.28 202.38,366.53 L 210.76 354.26 L 204.73 353.63 C201.42,353.28 195.91,353.00 192.49,353.00 C189.08,353.00 184.19,352.71 181.64,352.36 L 177.00 351.73 L 177.00 343.85 C177.00,335.05 179.03,321.07 181.88,310.21 C182.92,306.24 183.46,303.00 183.08,303.00 C180.74,303.00 179.14,306.06 178.64,311.50 C178.34,314.80 177.67,319.52 177.17,322.00 C174.35,335.86 173.58,341.13 173.54,346.91 C173.50,353.04 173.61,353.33 176.00,353.51 C177.38,353.61 185.14,354.06 193.25,354.49 C201.36,354.93 208.00,355.51 208.00,355.77 C208.00,356.04 205.83,359.24 203.18,362.88 C196.93,371.45 192.00,379.11 192.00,380.22 C192.00,381.26 210.15,398.93 211.25,398.97 C211.66,398.99 212.00,398.59 212.00,398.08 ZM 261.71 369.75 C268.33,359.71 274.21,350.59 274.78,349.48 C275.65,347.80 275.06,346.40 271.31,341.17 C268.82,337.71 266.57,335.10 266.29,335.38 C266.01,335.65 267.67,338.56 269.97,341.84 L 274.15 347.80 L 271.42 352.15 C269.91,354.54 267.56,358.29 266.18,360.48 L 263.69 364.46 L 259.85 356.19 L 256.02 347.92 L 248.34 348.21 C239.74,348.54 239.54,348.71 235.54,359.23 C234.55,361.83 233.40,363.75 232.98,363.49 C232.56,363.23 230.10,359.62 227.52,355.48 L 222.82 347.94 L 227.16 341.50 C229.55,337.96 231.78,335.05 232.13,335.03 C232.47,335.01 234.26,337.48 236.09,340.50 L 239.42 346.00 L 248.17 346.00 L 256.93 346.00 L 261.04 339.93 C263.37,336.51 264.91,333.22 264.59,332.38 C264.28,331.56 261.95,327.99 259.42,324.44 L 254.82 318.00 L 248.56 318.00 L 242.29 318.00 L 237.89 324.03 C235.48,327.34 233.33,330.55 233.12,331.16 C232.27,333.65 235.25,330.52 239.04,324.94 L 243.07 319.00 L 248.45 319.00 L 253.82 319.00 L 258.41 325.43 C260.94,328.97 263.00,332.33 263.00,332.91 C263.00,333.49 261.41,336.44 259.47,339.48 L 255.94 345.00 L 248.51 345.00 L 241.07 345.00 L 237.00 339.00 C234.76,335.70 232.60,333.01 232.21,333.02 C231.14,333.05 222.00,346.10 222.00,347.61 C222.00,349.02 226.39,356.76 231.28,363.97 C240.08,376.94 248.18,388.00 248.88,388.00 C249.32,388.00 255.09,379.79 261.71,369.75 ZM 332.79 382.75 C333.90,379.86 336.88,372.21 339.41,365.74 C341.93,359.28 344.00,353.59 344.00,353.09 C344.00,352.60 342.76,351.75 341.25,351.20 C339.74,350.65 337.71,349.89 336.75,349.50 C333.68,348.25 334.74,351.81 337.93,353.46 L 340.85 354.98 L 337.29 363.74 C335.33,368.56 332.93,374.73 331.96,377.45 L 330.19 382.41 L 328.88 377.95 C328.16,375.50 327.61,372.97 327.66,372.33 C327.71,371.69 327.09,371.41 326.29,371.72 C325.24,372.12 325.03,373.02 325.55,374.89 C325.95,376.33 326.33,379.86 326.39,382.75 C326.49,387.41 326.74,388.00 328.63,388.00 C330.28,388.00 331.23,386.81 332.79,382.75 ZM 236.42 353.39 C239.17,347.39 239.15,347.26 234.55,340.48 L 232.22 337.04 L 228.52 342.41 C225.21,347.22 224.95,348.03 226.07,350.14 C228.81,355.31 232.29,359.94 233.06,359.46 C233.50,359.19 235.02,356.45 236.42,353.39 ZM 268.25 354.16 C270.31,350.96 272.00,348.05 272.00,347.70 C272.00,346.65 265.68,338.00 264.91,338.00 C264.52,338.00 262.78,340.23 261.03,342.96 L 257.85 347.91 L 260.56 353.96 C262.05,357.28 263.55,360.00 263.89,359.99 C264.22,359.99 266.19,357.36 268.25,354.16 ZM 216.64 348.30 C216.26,347.92 208.64,347.36 199.72,347.05 L 183.50 346.50 L 183.71 339.05 C184.40,315.12 195.21,285.24 205.08,279.95 C206.80,279.04 206.88,279.81 206.70,294.74 C206.47,312.64 207.52,318.11 214.10,333.43 C218.43,343.53 220.59,346.42 221.97,344.00 C222.45,343.17 226.53,337.33 231.04,331.00 C235.55,324.67 239.44,318.99 239.68,318.37 C239.93,317.74 238.67,316.97 236.81,316.61 C231.41,315.58 223.83,311.56 218.72,307.02 C211.26,300.40 210.88,299.16 211.65,284.07 L 212.30 271.07 L 218.10 276.44 C221.29,279.39 226.51,283.09 229.70,284.65 C235.17,287.34 236.24,287.50 248.50,287.50 C260.56,287.50 261.92,287.30 267.32,284.77 C279.96,278.85 293.80,260.72 303.65,237.15 C304.72,234.60 306.58,232.24 308.15,231.42 C311.99,229.44 317.52,222.32 320.60,215.42 C322.54,211.07 323.37,207.25 323.73,201.00 C324.17,193.35 324.00,192.23 322.04,189.75 C320.84,188.24 319.21,187.00 318.43,187.00 C317.51,187.00 317.00,185.93 317.00,184.00 C317.00,182.35 316.55,181.00 316.00,181.00 C315.45,181.00 315.00,182.57 315.00,184.50 C315.00,187.24 315.40,188.00 316.85,188.00 C321.78,188.00 324.17,196.26 321.99,205.82 C319.43,217.12 312.92,227.55 306.88,230.05 C305.30,230.71 304.00,231.67 304.00,232.19 C304.00,232.72 301.80,237.79 299.11,243.46 C289.32,264.11 277.48,278.69 266.59,283.50 C256.28,288.06 239.29,287.74 229.24,282.80 C223.37,279.91 213.67,270.45 208.07,262.15 C205.72,258.66 201.09,250.20 197.78,243.37 C193.21,233.92 191.09,230.58 188.94,229.47 C181.93,225.84 173.00,207.91 173.00,197.47 C173.00,192.72 176.00,188.00 179.01,188.00 C180.60,188.00 180.79,187.45 180.30,184.25 C179.52,179.23 179.00,178.86 179.00,183.33 C179.00,185.84 178.55,187.00 177.57,187.00 C172.89,187.00 170.52,194.92 172.46,204.13 C174.85,215.56 181.12,226.16 188.08,230.55 C190.24,231.91 192.00,233.58 192.00,234.27 C192.00,236.74 202.90,257.66 207.31,263.64 C211.55,269.40 211.78,270.03 210.94,273.64 C210.45,275.76 210.04,282.53 210.02,288.67 L 210.00 299.84 L 215.07 305.38 C219.83,310.59 231.91,318.00 235.63,318.00 C238.42,318.00 238.10,318.57 225.00,336.88 L 220.50 343.16 L 216.34 334.33 C214.05,329.47 211.17,321.32 209.94,316.21 C207.92,307.88 207.76,305.33 208.30,291.42 L 208.90 275.93 L 204.82 278.21 C198.00,282.03 192.20,291.78 187.70,307.02 C184.43,318.07 184.28,318.78 182.52,332.14 C180.31,348.84 180.08,347.83 186.25,348.26 C196.30,348.97 217.33,349.00 216.64,348.30 ZM 305.32 348.36 L 312.94 347.71 L 312.40 341.61 C310.30,317.64 304.47,296.91 297.07,287.09 C295.62,285.17 295.50,286.05 295.50,298.76 C295.50,316.20 292.49,328.15 284.75,341.38 L 281.90 346.26 L 295.20 345.53 C302.51,345.13 308.70,344.62 308.93,344.39 C309.17,344.15 308.84,339.14 308.20,333.23 C306.93,321.47 304.26,309.72 301.46,303.50 L 299.66 299.50 L 298.81 308.00 C297.87,317.46 294.35,329.94 290.52,337.42 C289.14,340.12 288.18,342.51 288.40,342.73 C288.61,342.94 292.66,342.81 297.39,342.42 C305.10,341.80 306.00,341.52 306.00,339.73 C306.00,336.51 303.98,325.12 301.91,316.72 C299.79,308.09 299.56,306.11 300.85,307.55 C301.63,308.42 302.82,312.60 304.54,320.50 C305.58,325.29 307.90,342.44 307.55,342.78 C306.73,343.61 285.77,344.22 286.12,343.41 C286.34,342.91 287.74,339.91 289.25,336.75 C295.03,324.56 298.66,307.96 297.80,297.60 C297.10,289.14 299.06,291.76 303.74,305.53 C307.65,317.02 309.83,328.29 310.23,339.00 L 310.50 346.50 L 295.50 347.02 C287.25,347.30 280.39,347.49 280.25,347.44 C280.12,347.39 282.26,342.88 285.00,337.42 C291.90,323.69 293.99,314.67 293.88,299.00 C293.84,292.12 293.40,285.38 292.92,284.00 C292.35,282.41 292.21,285.57 292.53,292.64 C293.36,311.47 290.77,323.13 282.06,339.67 L 277.15 349.00 L 287.42 349.00 C293.08,349.00 301.13,348.71 305.32,348.36 ZM 210.42 336.25 C203.85,321.59 202.00,313.16 201.98,297.59 L 201.96 284.50 L 200.00 287.00 C193.42,295.40 186.45,318.88 185.28,336.59 L 184.74 344.68 L 199.12 345.60 C207.03,346.11 213.79,346.40 214.15,346.26 C214.50,346.12 212.83,341.62 210.42,336.25 ZM 258.46 338.66 C259.86,336.28 261.00,333.79 261.00,333.15 C261.00,332.50 259.36,329.50 257.36,326.48 L 253.72 321.00 L 248.36 321.00 C245.41,321.00 243.00,321.34 243.00,321.75 C242.99,322.16 241.19,324.88 238.98,327.79 L 234.97 333.08 L 238.22 338.04 L 241.47 343.00 L 248.69 343.00 L 255.92 343.00 L 258.46 338.66 ZM 228.08 329.96 C232.02,324.43 235.08,319.79 234.87,319.63 C234.67,319.47 232.93,318.74 231.00,317.99 C225.77,315.97 217.95,310.72 214.05,306.62 C212.16,304.63 210.33,303.00 209.98,303.00 C208.93,303.00 210.77,315.15 212.79,321.50 C214.60,327.22 220.02,340.00 220.62,340.00 C220.78,340.00 224.14,335.48 228.08,329.96 ZM 280.62 332.45 C284.61,323.82 288.00,311.53 288.00,305.73 L 288.00 301.77 L 281.58 307.77 C275.94,313.05 266.13,319.00 263.06,319.00 C262.48,319.00 262.01,319.34 262.02,319.75 C262.05,321.17 275.61,340.00 276.60,340.00 C276.89,340.00 278.70,336.60 280.62,332.45 ZM 126.66 328.54 C129.32,327.03 129.34,326.97 127.00,327.58 C125.62,327.94 122.98,328.86 121.13,329.62 C119.27,330.38 115.77,331.00 113.34,331.00 C109.25,331.00 109.01,331.15 109.99,332.98 C111.04,334.94 111.13,334.94 117.44,332.56 C120.95,331.24 125.10,329.43 126.66,328.54 ZM 119.72 328.42 C125.57,326.50 139.72,321.52 146.50,319.00 C149.25,317.98 156.09,315.49 161.69,313.48 C168.76,310.94 172.37,309.09 173.44,307.44 C176.53,302.74 174.86,297.67 169.48,295.43 C166.29,294.09 165.37,294.29 150.31,299.58 C141.62,302.63 129.48,306.86 123.35,308.98 C117.21,311.10 111.27,313.32 110.15,313.92 C105.22,316.56 103.27,324.18 106.75,327.21 C110.34,330.34 113.12,330.60 119.72,328.42 ZM 390.64 326.87 C396.65,321.22 391.37,315.06 376.00,309.75 C370.23,307.75 358.30,303.62 349.50,300.56 C340.70,297.51 332.04,295.00 330.25,295.00 C324.05,295.00 320.42,301.52 323.62,306.93 C325.40,309.94 328.63,311.52 343.00,316.39 C345.48,317.23 355.15,320.63 364.50,323.94 C382.90,330.46 386.40,330.85 390.64,326.87 ZM 133.53 325.19 C133.22,324.89 132.41,325.19 131.73,325.88 C130.75,326.86 130.87,326.98 132.29,326.44 C133.28,326.06 133.83,325.50 133.53,325.19 ZM 261.01 314.92 C268.69,312.40 276.29,307.64 281.00,302.39 L 284.50 298.50 L 284.17 287.00 C283.99,280.68 283.64,275.31 283.40,275.07 C283.16,274.82 281.05,276.48 278.73,278.75 C263.31,293.77 234.68,293.80 218.41,278.81 C215.92,276.51 213.99,275.34 213.97,276.12 C213.96,276.88 213.54,281.74 213.03,286.92 C211.97,297.92 212.58,299.76 219.22,305.49 C231.37,315.97 247.04,319.50 261.01,314.92 ZM 183.44 297.87 C189.02,295.95 189.87,295.29 192.01,291.12 C195.71,283.90 200.66,278.30 205.01,276.37 C208.64,274.77 208.99,274.30 208.85,271.06 C208.73,268.13 208.63,267.98 208.29,270.19 C208.00,272.07 206.62,273.62 203.69,275.34 C198.41,278.43 196.38,280.68 191.95,288.35 C188.71,293.96 187.91,294.68 182.78,296.51 C177.55,298.37 174.61,300.00 176.45,300.00 C176.88,300.00 180.03,299.04 183.44,297.87 ZM 320.59 299.26 C320.18,298.85 317.30,297.61 314.18,296.51 C309.31,294.78 308.15,293.85 306.00,289.97 C302.05,282.83 298.88,279.11 294.02,275.90 C291.15,274.00 289.27,271.93 288.87,270.21 C288.30,267.76 288.23,267.85 288.12,271.15 C288.02,274.29 288.39,274.94 290.75,275.76 C295.00,277.25 299.90,282.40 303.55,289.24 C306.65,295.03 307.29,295.62 312.69,297.64 C318.73,299.89 321.87,300.53 320.59,299.26 ZM 266.50 281.99 C272.17,279.28 281.97,269.93 286.93,262.50 C290.99,256.42 296.64,245.75 300.43,237.00 C301.97,233.43 303.84,229.15 304.57,227.50 C309.62,216.08 315.77,183.00 312.83,183.00 C312.37,183.00 312.00,185.29 312.00,188.09 C312.00,196.76 307.66,216.44 303.91,224.74 C302.86,227.07 302.00,229.20 302.00,229.46 C302.00,231.66 291.06,253.49 286.69,260.00 C275.04,277.39 264.57,284.02 248.81,283.99 C235.18,283.96 225.13,278.85 215.70,267.15 C208.02,257.61 204.29,251.10 196.76,234.00 C195.91,232.07 194.11,228.02 192.76,225.00 C189.37,217.40 185.33,202.34 183.62,191.00 C182.57,184.00 182.17,182.69 182.11,186.00 C181.92,195.18 186.43,214.39 191.36,225.40 C192.62,228.20 194.26,232.07 195.00,234.00 C200.86,249.12 214.19,269.78 222.35,276.39 C231.33,283.66 235.83,284.98 250.50,284.64 C259.71,284.43 262.31,284.00 266.50,281.99 ZM 263.44 279.94 C276.65,274.99 290.29,255.42 302.78,223.50 C307.27,212.00 312.50,184.00 310.15,184.00 C309.68,184.00 308.98,187.66 308.61,192.13 C308.24,196.60 307.50,201.07 306.97,202.06 C306.43,203.06 306.00,205.14 305.99,206.68 C305.96,214.56 291.75,247.69 282.80,260.77 C278.06,267.69 269.86,275.42 264.50,278.00 C260.13,280.11 258.12,280.41 248.50,280.39 C239.28,280.36 236.77,280.00 232.97,278.17 C227.37,275.47 219.22,267.69 214.11,260.16 C204.39,245.85 190.01,213.29 189.89,205.34 C189.85,202.70 191.12,194.85 192.54,189.00 C192.99,187.12 192.86,186.78 191.99,187.63 C191.35,188.26 190.58,191.52 190.28,194.88 C189.97,198.25 189.38,201.00 188.95,201.00 C188.53,201.00 187.67,197.74 187.04,193.75 C185.39,183.34 185.01,182.54 185.48,190.50 C185.99,199.28 189.85,214.50 194.00,224.13 C207.27,254.97 216.06,268.42 228.50,276.96 C234.48,281.06 237.55,281.83 248.21,281.92 C255.72,281.98 259.18,281.53 263.44,279.94 ZM 260.97 277.62 C272.92,273.50 282.75,261.29 293.81,236.82 C303.95,214.39 305.82,206.42 302.47,199.95 C301.64,198.33 300.62,197.02 300.22,197.04 C299.83,197.07 297.48,197.53 295.00,198.06 C270.80,203.30 222.94,203.29 201.50,198.03 C195.57,196.57 195.41,196.64 193.64,201.28 C191.02,208.13 191.38,210.12 198.10,226.00 C208.88,251.47 220.32,268.65 230.89,275.23 C238.20,279.77 251.62,280.84 260.97,277.62 ZM 190.42 226.64 C190.07,225.74 189.21,225.00 188.50,225.00 C187.03,225.00 181.93,217.44 179.39,211.49 C175.86,203.21 175.49,192.00 178.75,192.00 C179.97,192.00 180.02,192.27 178.98,193.52 C177.39,195.44 178.26,204.99 180.52,210.40 C182.99,216.31 183.36,213.95 181.06,206.94 C179.04,200.78 178.11,192.96 179.94,197.50 C181.70,201.85 183.97,212.92 183.41,214.38 C182.85,215.84 186.75,222.59 187.64,221.70 C187.87,221.47 187.56,219.98 186.96,218.39 C184.93,213.05 181.02,196.53 181.01,193.25 C181.00,190.79 180.56,190.00 179.20,190.00 C176.12,190.00 175.00,192.18 175.00,198.16 C175.00,207.43 182.13,223.15 188.17,227.21 C190.87,229.03 191.29,228.92 190.42,226.64 ZM 313.97 221.55 C318.02,215.66 321.00,205.84 321.00,198.39 C321.00,193.09 320.66,191.88 318.84,190.60 C315.93,188.56 314.39,189.69 317.09,191.87 C321.57,195.50 318.99,211.63 312.41,221.13 C310.94,223.26 309.11,225.00 308.36,225.00 C307.61,225.00 307.00,225.19 307.00,225.42 C307.00,225.65 306.71,226.60 306.35,227.54 C305.17,230.61 310.76,226.21 313.97,221.55 ZM 315.51 212.08 C317.52,206.26 318.42,195.96 317.10,194.01 C315.49,191.65 314.46,193.78 313.11,202.27 C312.42,206.54 311.03,213.06 310.01,216.77 L 308.16 223.50 L 311.05 220.08 C312.63,218.20 314.64,214.60 315.51,212.08 ZM 280.50 198.89 C284.90,198.32 291.32,197.19 294.76,196.38 C298.21,195.56 301.42,195.14 301.91,195.44 C302.72,195.95 301.67,189.33 300.79,188.46 C300.58,188.25 297.95,188.73 294.95,189.53 C282.02,192.99 270.56,194.10 248.00,194.10 C225.25,194.10 214.83,193.08 201.11,189.53 C197.63,188.63 194.67,188.03 194.54,188.19 C193.89,189.02 192.16,197.50 192.56,197.89 C192.81,198.15 193.61,197.54 194.34,196.56 C195.57,194.87 196.00,194.85 201.08,196.28 C216.11,200.51 257.46,201.87 280.50,198.89 ZM 304.95 191.33 C304.29,188.95 303.30,187.00 302.76,187.00 C302.22,187.00 302.11,187.77 302.53,188.75 C302.93,189.71 303.76,192.98 304.36,196.00 C305.24,200.47 305.51,200.95 305.81,198.58 C306.00,196.98 305.62,193.71 304.95,191.33 ZM 283.50 190.54 C303.59,186.61 317.52,179.80 320.61,172.40 C322.44,168.01 322.57,168.33 318.05,166.03 C310.71,162.28 296.25,158.42 280.00,155.87 C268.67,154.09 225.50,154.10 214.00,155.89 C192.53,159.22 173.00,165.35 173.00,168.75 C173.00,178.71 195.52,189.01 224.00,192.06 C235.88,193.33 274.25,192.35 283.50,190.54 ZM 307.98 187.17 C307.99,185.88 307.52,184.99 306.92,185.19 C306.33,185.39 305.88,185.88 305.92,186.27 C305.97,186.67 306.01,188.24 306.02,189.75 C306.03,191.89 306.24,192.17 307.00,191.00 C307.53,190.18 307.98,188.45 307.98,187.17 ZM 190.00 188.00 C190.00,186.96 189.55,185.84 189.00,185.50 C188.42,185.14 188.00,186.18 188.00,188.00 C188.00,189.82 188.42,190.86 189.00,190.50 C189.55,190.16 190.00,189.04 190.00,188.00 ZM 179.74 162.07 C195.26,154.24 211.17,150.14 234.45,147.95 C261.31,145.43 295.29,151.61 316.20,162.83 C319.89,164.81 323.15,166.19 323.44,165.89 C323.74,165.60 324.25,163.98 324.59,162.29 C325.14,159.53 324.78,158.95 320.85,156.28 C310.05,148.95 288.98,142.19 268.50,139.47 C238.66,135.52 205.01,140.22 181.50,151.63 C170.83,156.81 169.70,157.91 170.53,162.31 C170.91,164.34 171.39,166.00 171.59,166.00 C171.78,166.00 175.45,164.23 179.74,162.07 ZM 214.50 154.45 C223.24,153.17 230.83,152.94 251.50,153.34 C275.10,153.79 282.38,154.36 293.00,156.56 C297.62,157.52 296.24,156.10 291.33,154.85 C261.10,147.12 232.90,147.12 202.67,154.85 C198.05,156.03 196.26,157.53 200.50,156.66 C202.15,156.33 208.45,155.33 214.50,154.45 ZM 325.00 150.35 C325.00,143.90 324.88,143.57 321.05,139.93 C313.72,132.96 295.95,125.97 277.82,122.92 L 270.15 121.63 L 266.10 125.29 C263.88,127.30 259.35,130.31 256.03,131.99 C252.71,133.66 250.00,135.41 250.00,135.87 C250.00,136.33 254.84,137.01 260.75,137.38 C279.88,138.57 299.46,143.55 314.25,150.98 C318.51,153.13 322.00,154.46 322.00,153.95 C322.00,152.52 309.52,146.58 299.50,143.24 C285.60,138.61 275.58,136.55 261.50,135.42 L 253.50 134.78 L 259.00 131.99 C262.03,130.46 265.59,128.03 266.92,126.60 C269.79,123.53 272.69,123.33 283.02,125.50 C298.14,128.68 313.18,134.85 319.80,140.57 C323.25,143.55 323.51,144.17 323.61,149.64 C323.73,156.34 323.81,157.00 324.50,157.00 C324.77,157.00 325.00,154.01 325.00,150.35 ZM 174.00 141.48 C180.59,134.43 201.15,126.44 218.86,124.03 C224.26,123.30 224.54,123.38 229.28,127.13 C231.96,129.25 235.81,131.77 237.83,132.74 L 241.50 134.50 L 233.00 135.28 C211.32,137.26 195.05,141.46 179.89,148.98 C176.65,150.58 174.00,151.48 174.00,150.97 C174.00,149.31 189.63,142.33 199.00,139.81 C210.09,136.83 225.36,134.04 230.75,134.02 C235.16,134.00 236.45,132.59 233.05,131.52 C231.98,131.18 229.63,129.53 227.84,127.85 C224.81,125.02 224.20,124.85 219.54,125.46 C195.97,128.53 173.65,139.21 172.42,148.00 C171.58,153.95 172.96,154.60 179.11,151.17 C192.04,143.97 213.83,138.46 233.75,137.37 C240.49,137.00 246.00,136.32 246.00,135.86 C246.00,135.40 242.91,133.47 239.14,131.57 C235.37,129.67 230.98,126.74 229.39,125.06 C226.00,121.47 222.96,121.19 211.98,123.50 C188.76,128.39 171.13,138.12 169.34,147.04 C169.02,148.67 168.44,150.00 168.07,150.00 C166.04,150.00 157.67,143.53 155.09,139.97 C150.96,134.27 149.65,129.69 150.31,123.31 C151.00,116.56 154.21,110.98 161.18,104.39 C167.70,98.22 172.50,95.10 185.27,88.74 C227.77,67.57 270.01,67.86 313.27,89.63 C335.00,100.57 345.25,112.14 345.25,125.75 C345.25,135.47 339.32,144.19 329.16,149.43 C324.57,151.79 325.91,152.61 330.67,150.36 C335.90,147.88 342.09,141.47 344.77,135.76 C352.87,118.52 340.09,100.25 310.10,86.24 C285.10,74.55 259.48,69.53 237.25,71.96 C215.40,74.35 195.10,80.83 176.50,91.35 C154.62,103.72 145.23,117.95 149.41,132.35 C151.36,139.04 157.83,146.56 164.51,149.90 C167.21,151.24 169.52,153.18 169.87,154.38 C170.26,155.71 170.68,154.19 171.00,150.33 C171.39,145.56 172.07,143.55 174.00,141.48 ZM 323.00 149.97 C323.00,146.94 319.69,141.82 316.25,139.54 C307.76,133.93 289.30,127.64 275.38,125.62 C271.78,125.09 270.82,125.39 267.88,128.00 C266.02,129.64 263.71,131.24 262.75,131.56 C259.17,132.74 261.26,133.61 270.75,134.87 C287.08,137.03 307.42,143.23 317.50,149.11 C320.96,151.13 323.00,151.45 323.00,149.97 ZM 333.73 144.80 C339.44,140.93 343.05,134.52 343.73,127.04 C344.19,121.97 343.88,120.28 341.66,115.74 C339.33,110.97 329.71,100.00 327.87,100.00 C327.47,100.00 326.46,99.32 325.64,98.49 C323.10,95.96 306.05,87.46 296.00,83.72 C286.91,80.34 279.74,78.36 268.20,76.06 C258.80,74.18 234.66,74.74 223.59,77.08 C183.65,85.55 151.00,107.39 151.00,125.64 C151.00,132.46 156.63,141.45 163.97,146.35 C167.33,148.59 167.74,148.47 168.51,144.96 C170.41,136.29 190.15,125.89 212.89,121.58 C217.47,120.71 221.32,120.00 221.44,120.00 C221.56,120.00 221.23,117.86 220.70,115.25 C219.97,111.57 220.13,109.23 221.42,104.86 C223.66,97.26 230.15,88.23 233.68,87.82 C235.15,87.64 236.54,86.92 236.77,86.21 C237.67,83.48 231.45,86.32 227.77,90.32 C221.39,97.25 217.55,108.46 219.06,115.71 C219.73,118.89 219.69,118.92 215.12,119.57 C202.54,121.33 185.83,127.35 176.74,133.38 C171.64,136.77 167.00,141.81 167.00,143.96 C167.00,147.79 158.70,141.31 155.49,134.97 C148.96,122.10 156.49,108.65 176.96,96.60 C213.49,75.09 252.51,70.63 290.84,83.59 C319.39,93.24 339.04,107.78 342.07,121.49 C343.64,128.57 340.69,136.34 334.30,141.97 C331.78,144.19 329.38,146.00 328.97,146.00 C328.55,146.00 327.95,144.95 327.63,143.67 C325.33,134.48 303.13,123.90 277.03,119.54 C270.05,118.38 275.64,120.81 283.56,122.38 C307.86,127.21 327.00,138.08 327.00,147.04 C327.00,149.32 327.08,149.30 333.73,144.80 ZM 167.87 139.50 C171.80,132.83 188.22,124.33 205.50,120.03 C209.90,118.93 214.40,118.02 215.50,118.01 C217.29,118.00 217.51,117.29 217.62,111.16 C217.74,103.96 220.31,97.25 225.63,90.25 C228.58,86.37 228.07,86.29 217.98,89.03 C193.83,95.60 168.09,109.98 163.62,119.40 C161.76,123.30 161.52,128.24 163.05,131.09 C164.04,132.94 164.34,132.83 168.80,129.14 C176.88,122.44 190.15,116.48 204.56,113.08 L 209.62 111.89 L 210.87 105.84 C211.56,102.51 211.88,99.55 211.59,99.26 C210.85,98.52 196.84,104.22 189.00,108.45 C178.68,114.02 184.75,112.53 200.48,105.63 C204.87,103.71 208.61,102.28 208.80,102.46 C208.98,102.65 208.84,104.36 208.48,106.27 C207.78,109.99 208.66,109.52 194.50,113.73 C186.75,116.04 178.06,120.03 171.68,124.20 C168.48,126.29 165.38,128.00 164.80,128.00 C163.04,128.00 164.67,121.24 167.21,117.99 C174.32,108.91 201.52,94.84 220.15,90.61 L 222.80 90.01 L 219.47 96.64 C217.29,100.96 215.89,105.47 215.45,109.59 L 214.78 115.91 L 209.14 117.09 C190.58,121.00 174.38,128.75 167.10,137.21 C165.79,138.75 164.32,140.00 163.83,140.00 C163.35,140.00 161.62,137.89 159.98,135.30 C150.84,120.89 163.55,105.13 195.24,91.61 C225.85,78.56 256.89,76.57 285.50,85.84 C316.09,95.75 336.52,110.12 338.65,123.23 C339.39,127.81 337.55,133.30 333.87,137.50 L 330.95 140.82 L 325.72 135.59 C317.04,126.91 304.84,121.77 280.25,116.45 C278.28,116.02 278.00,115.33 278.00,110.99 C278.00,105.12 275.37,97.66 271.52,92.62 C270.00,90.63 269.16,89.00 269.65,89.00 C271.39,89.00 285.59,93.10 291.00,95.16 C301.73,99.25 316.58,107.03 322.35,111.57 C328.60,116.50 332.37,122.88 331.34,126.80 C330.63,129.53 330.57,129.53 326.68,126.64 C318.48,120.54 301.20,113.38 290.25,111.54 C286.83,110.96 285.90,110.35 285.50,108.41 C285.22,107.09 284.77,104.88 284.48,103.50 C284.20,102.12 284.11,101.00 284.29,101.00 C285.16,101.00 297.27,106.03 303.50,108.97 C314.56,114.21 314.96,114.37 315.58,113.76 C316.79,112.54 300.17,104.16 287.06,99.39 C283.52,98.10 280.45,97.22 280.23,97.44 C280.01,97.65 280.30,98.69 280.86,99.74 C281.42,100.79 282.19,103.94 282.56,106.73 C283.23,111.78 283.26,111.81 287.87,112.97 C305.93,117.51 318.35,122.84 326.67,129.61 C328.96,131.47 331.08,133.00 331.38,133.00 C331.68,133.00 332.45,131.21 333.11,129.03 C336.02,119.32 328.04,110.54 306.50,99.75 C297.74,95.37 284.11,90.35 275.00,88.16 C266.79,86.19 259.71,84.95 259.25,85.41 C258.36,86.30 260.15,88.00 261.98,88.00 C265.13,88.00 269.78,92.81 273.06,99.47 C275.72,104.88 276.14,106.71 275.84,111.84 L 275.50 117.85 L 279.86 118.50 C299.41,121.43 323.51,132.28 327.47,139.94 C329.53,143.93 331.09,143.80 335.02,139.32 C348.71,123.73 338.96,106.77 307.86,92.09 C270.41,74.41 235.37,73.11 197.98,88.01 C185.25,93.08 183.34,94.06 174.00,100.25 C164.63,106.46 161.49,109.32 157.87,114.95 C152.73,122.91 154.52,135.33 161.61,140.91 C165.12,143.67 165.45,143.60 167.87,139.50 ZM 168.64 133.62 C175.77,126.49 194.47,118.33 210.25,115.46 C213.94,114.79 214.00,114.71 214.02,110.14 C214.04,107.56 215.13,102.86 216.49,99.55 C217.84,96.28 218.71,93.38 218.44,93.11 C217.48,92.14 200.71,98.24 191.14,103.03 C179.31,108.95 169.42,116.27 166.62,121.18 C164.06,125.68 164.92,126.90 168.75,124.18 C175.91,119.08 193.77,111.60 203.75,109.52 C206.05,109.04 207.00,108.28 207.00,106.92 C207.00,104.44 206.15,104.50 199.78,107.42 C196.87,108.75 191.66,110.82 188.18,112.01 C184.71,113.20 179.42,115.46 176.43,117.04 C173.44,118.61 171.01,119.58 171.03,119.20 C171.08,118.09 178.88,112.53 186.50,108.16 C194.75,103.43 215.00,95.11 215.00,96.44 C215.00,96.61 214.32,98.66 213.50,101.00 C212.68,103.34 212.00,106.99 212.00,109.11 C212.00,112.51 211.68,113.03 209.25,113.53 C192.88,116.91 176.65,123.85 168.95,130.75 C166.34,133.09 163.97,135.00 163.69,135.00 C163.40,135.00 162.42,133.04 161.50,130.65 C160.16,127.13 160.05,125.53 160.93,122.28 C164.12,110.40 189.87,95.09 220.16,87.07 C228.74,84.79 239.00,83.36 239.00,84.43 C239.00,86.35 236.72,89.00 235.07,89.00 C232.51,89.00 227.20,95.31 224.36,101.72 C222.07,106.90 221.40,113.14 222.63,117.75 C223.78,122.02 224.50,119.98 224.16,113.42 C223.78,106.11 224.77,102.77 229.38,95.75 C232.04,91.70 232.98,91.00 235.75,91.00 C238.28,91.00 239.00,90.58 239.00,89.09 C239.00,88.04 240.41,85.99 242.13,84.55 C243.84,83.10 244.97,81.63 244.62,81.29 C242.78,79.45 213.21,85.96 200.39,91.03 C175.84,100.72 160.15,112.94 158.43,123.69 C157.82,127.52 159.54,133.53 162.14,136.67 C163.69,138.54 163.76,138.50 168.64,133.62 ZM 334.75 134.03 C338.14,129.02 337.86,121.74 334.04,115.72 C324.73,101.04 286.78,84.26 256.50,81.44 L 249.50 80.78 L 253.25 83.96 C255.31,85.71 257.00,88.01 257.00,89.07 C257.00,90.60 257.71,91.00 260.38,91.00 C263.09,91.00 264.31,91.72 266.52,94.62 C271.19,100.74 273.30,107.62 272.60,114.46 C272.14,118.89 272.28,120.12 273.12,119.28 C275.06,117.34 274.57,106.00 272.32,100.95 C269.53,94.69 264.35,89.00 261.45,89.00 C259.44,89.00 256.00,85.81 256.00,83.94 C256.00,83.12 271.01,85.47 278.50,87.47 C301.57,93.63 325.80,106.89 332.07,116.77 C335.40,122.02 335.89,127.38 333.47,132.05 C331.74,135.41 330.81,135.68 328.91,133.39 C327.17,131.30 317.46,124.82 313.00,122.77 C304.43,118.84 288.51,114.00 284.16,114.00 C282.66,114.00 282.16,113.03 281.71,109.23 C281.40,106.61 280.46,102.46 279.62,100.02 C278.78,97.58 278.22,95.45 278.38,95.29 C279.00,94.67 294.01,100.43 303.78,105.04 C314.00,109.86 320.45,114.14 324.71,118.93 C327.86,122.47 326.92,122.54 321.58,119.15 C319.02,117.53 314.36,115.21 311.21,114.00 C308.07,112.79 301.31,109.77 296.18,107.30 C291.06,104.82 286.63,103.04 286.34,103.33 C286.05,103.62 286.11,105.24 286.48,106.93 C286.94,109.02 287.75,110.00 289.03,110.00 C295.91,110.00 316.06,117.77 325.00,123.87 C329.11,126.67 329.53,126.77 329.81,125.03 C331.22,116.42 310.04,102.68 281.07,93.41 C276.98,92.10 273.48,91.18 273.30,91.37 C273.12,91.55 274.05,93.68 275.37,96.10 C278.15,101.19 280.45,110.18 279.70,113.04 C279.32,114.48 279.76,115.12 281.34,115.42 C303.24,119.56 318.95,126.11 326.96,134.43 C328.86,136.41 330.89,137.87 331.46,137.69 C332.03,137.50 333.51,135.85 334.75,134.03 ZM 251.77 132.72 C253.82,131.47 257.23,129.56 259.34,128.47 C261.44,127.39 264.93,124.60 267.09,122.27 C270.70,118.37 271.00,117.61 270.99,112.27 C270.98,108.21 270.26,105.02 268.54,101.50 C264.96,94.13 263.76,92.98 259.89,93.15 C256.80,93.29 256.75,93.34 259.29,93.72 C262.68,94.23 267.51,100.46 269.10,106.38 C271.65,115.84 267.92,122.33 256.50,128.33 C248.72,132.42 249.00,132.31 249.00,131.27 C249.00,130.77 251.70,129.08 255.00,127.50 C258.30,125.92 262.60,122.85 264.55,120.68 C267.84,117.02 268.07,116.33 267.80,111.13 C267.46,104.86 265.62,103.39 262.34,106.81 C259.92,109.33 256.63,111.00 254.07,111.00 C252.32,111.00 252.00,111.62 252.00,115.00 C252.00,117.20 252.37,119.00 252.83,119.00 C253.28,119.00 253.46,117.70 253.23,116.10 C252.85,113.54 253.16,113.12 255.93,112.52 C257.64,112.14 260.38,110.71 262.00,109.34 C265.63,106.30 267.00,106.98 266.99,111.81 C266.97,116.69 262.49,121.83 254.31,126.38 L 248.11 129.83 L 241.61 126.38 C233.04,121.82 228.53,116.29 229.33,111.33 C229.65,109.36 230.13,107.54 230.39,107.28 C230.65,107.01 232.36,107.93 234.18,109.31 C236.01,110.69 238.62,111.97 240.00,112.16 C241.70,112.39 242.60,113.22 242.82,114.75 C243.00,115.99 242.63,117.00 242.01,117.00 C241.39,117.00 241.16,117.45 241.50,118.00 C242.86,120.20 244.10,118.80 243.81,115.40 C243.54,112.22 243.05,111.65 239.64,110.48 C237.51,109.75 234.49,107.93 232.92,106.42 L 230.07 103.69 L 229.03 106.41 C228.47,107.91 228.00,110.84 228.00,112.94 C228.00,117.86 233.12,123.59 241.50,128.05 C251.65,133.45 252.02,135.06 241.94,129.97 C233.99,125.96 228.28,120.67 226.89,116.04 C224.69,108.68 230.92,94.46 236.31,94.54 C237.79,94.56 239.00,94.22 239.00,93.79 C239.00,93.36 237.64,93.00 235.98,93.00 C233.46,93.00 232.45,93.80 229.95,97.73 C223.52,107.87 223.41,116.76 229.64,123.14 C232.51,126.09 244.71,134.01 247.77,134.92 C247.92,134.96 249.72,133.97 251.77,132.72 ZM 253.97 124.85 C260.83,121.34 265.00,116.70 265.00,112.57 C265.00,111.07 264.66,110.00 264.25,110.19 C253.88,115.16 254.24,114.91 256.03,116.02 C257.32,116.82 257.32,117.10 256.00,118.36 C255.18,119.14 253.49,120.09 252.25,120.46 C250.11,121.10 250.00,120.87 250.00,115.57 C250.00,110.26 250.12,110.00 252.57,110.00 C255.35,110.00 259.06,108.35 260.23,106.60 C260.64,106.00 260.98,104.04 260.98,102.25 C260.99,100.46 261.40,99.00 261.89,99.00 C263.06,99.00 264.17,101.92 263.44,103.09 C263.13,103.59 263.33,104.00 263.88,104.00 C265.85,104.00 265.83,102.36 263.83,99.21 C261.57,95.63 258.68,95.07 255.83,97.65 C253.73,99.56 253.41,102.62 255.25,103.28 C256.95,103.89 256.04,104.70 252.75,105.53 C250.03,106.21 250.00,106.17 250.00,101.23 C250.00,98.02 250.53,95.80 251.50,95.00 C253.83,93.07 253.33,89.26 250.50,87.41 C248.18,85.89 247.82,85.89 245.50,87.41 C242.64,89.28 242.16,93.30 244.50,95.64 C245.91,97.05 246.62,104.04 245.48,105.19 C245.19,105.48 243.87,105.51 242.56,105.26 C240.46,104.85 240.23,104.38 240.69,101.50 C241.14,98.74 240.80,97.92 238.66,96.51 C235.67,94.56 234.56,95.02 232.45,99.09 C230.93,102.04 231.20,104.00 233.12,104.00 C233.67,104.00 233.81,103.51 233.44,102.90 C232.58,101.51 234.95,97.00 236.55,97.00 C238.83,97.00 240.23,99.70 239.07,101.87 C237.65,104.51 240.08,107.00 244.07,107.00 C246.97,107.00 247.00,106.93 247.00,101.33 C247.00,97.56 246.47,95.07 245.42,93.91 C244.18,92.54 244.08,91.72 244.96,90.08 C246.14,87.88 246.88,87.63 249.42,88.61 C251.16,89.28 251.58,93.52 250.00,94.50 C249.45,94.84 249.00,97.79 249.00,101.06 C249.00,106.88 249.06,107.00 251.75,106.98 C255.95,106.96 257.38,105.64 256.59,102.51 C255.87,99.61 257.30,97.00 259.62,97.00 C261.82,97.00 261.22,98.70 258.75,99.45 C257.39,99.87 256.99,100.34 257.75,100.65 C259.37,101.32 259.37,105.45 257.75,106.80 C257.06,107.37 254.92,107.99 253.00,108.17 L 249.50 108.50 L 249.21 116.25 L 248.92 124.00 L 251.71 122.80 C256.30,120.82 260.00,117.96 260.00,116.37 C260.00,115.55 259.55,115.16 259.00,115.50 C258.45,115.84 258.00,115.88 258.00,115.58 C258.00,115.29 259.35,114.35 261.00,113.50 C262.89,112.52 264.00,112.35 264.00,113.04 C264.00,115.60 258.60,120.87 253.35,123.44 L 247.68 126.22 L 242.09 123.23 C237.08,120.56 232.00,115.28 232.00,112.75 C232.00,112.23 233.60,112.75 235.56,113.90 C239.28,116.10 241.00,116.52 241.00,115.24 C241.00,114.82 239.09,113.59 236.75,112.51 C234.41,111.44 232.16,110.39 231.75,110.19 C229.90,109.30 231.25,115.64 233.56,118.67 C235.45,121.15 244.28,126.96 247.66,127.95 C247.75,127.98 250.59,126.58 253.97,124.85 ZM 247.00 116.00 L 247.00 108.00 L 243.12 108.00 C238.38,108.00 236.53,106.08 237.35,102.00 C237.80,99.75 237.58,99.00 236.48,99.00 C235.46,99.00 235.00,100.07 235.00,102.43 C235.00,106.35 238.68,110.00 242.63,110.00 C244.84,110.00 245.00,110.38 245.00,115.50 C245.00,118.53 244.75,121.00 244.43,121.00 C243.23,121.00 239.41,118.64 237.65,116.80 C236.63,115.74 235.53,115.14 235.21,115.46 C234.29,116.38 238.06,119.72 242.50,121.93 C244.70,123.02 246.61,123.94 246.75,123.96 C246.89,123.98 247.00,120.40 247.00,116.00 ZM 244.00 100.90 C244.00,99.20 243.24,96.53 242.32,94.96 C240.29,91.53 241.43,88.07 245.45,85.44 C247.83,83.88 248.17,83.88 250.55,85.44 C251.95,86.36 253.60,88.22 254.22,89.58 C255.16,91.64 254.99,92.52 253.17,94.98 C250.96,97.97 250.18,104.00 252.00,104.00 C252.55,104.00 253.00,102.46 253.00,100.58 C253.00,98.70 253.46,97.01 254.02,96.83 C254.59,96.64 255.32,94.80 255.65,92.75 C256.20,89.35 255.91,88.69 252.43,85.50 C250.33,83.58 248.34,82.00 248.00,82.00 C247.66,82.00 245.73,83.52 243.70,85.38 C239.57,89.17 238.88,92.95 241.60,96.84 C242.49,98.10 243.00,100.23 242.74,101.57 C242.49,102.91 242.66,104.00 243.14,104.00 C243.61,104.00 244.00,102.61 244.00,100.90 ZM 249.81 91.25 C249.62,90.29 248.81,89.50 248.00,89.50 C247.19,89.50 246.38,90.29 246.19,91.25 C245.95,92.48 246.49,93.00 248.00,93.00 C249.51,93.00 250.05,92.48 249.81,91.25 ZM 205.50 421.94 C201.65,421.50 193.77,420.64 188.00,420.03 C177.80,418.95 173.46,418.39 156.26,415.94 L 148.01 414.76 L 146.98 410.63 C142.27,391.79 133.12,366.68 124.74,349.60 C122.08,344.16 120.25,339.36 120.70,338.93 C121.14,338.51 128.25,335.46 136.50,332.16 C152.66,325.70 160.72,322.22 168.33,318.41 C174.08,315.54 175.45,315.40 174.54,317.75 C173.25,321.08 169.02,345.52 169.01,349.68 C168.99,356.20 171.99,358.00 182.88,358.01 C187.62,358.02 193.20,358.30 195.28,358.65 L 199.05 359.27 L 197.39 361.89 C196.47,363.32 192.85,368.39 189.34,373.14 C180.61,384.97 180.35,384.46 205.22,404.33 C213.32,410.80 220.20,416.51 220.51,417.02 C220.83,417.53 220.34,419.08 219.43,420.47 C217.62,423.23 217.12,423.28 205.50,421.94 ZM 218.00 419.63 C218.00,418.62 215.59,418.08 208.75,417.58 C193.61,416.46 173.92,414.22 158.40,411.85 L 151.31 410.77 L 147.98 399.63 C144.53,388.07 136.88,366.99 133.15,358.75 C131.97,356.14 130.05,351.86 128.88,349.25 C127.71,346.64 126.37,343.76 125.90,342.86 C125.20,341.51 126.09,340.80 130.77,338.94 C152.10,330.45 171.45,321.70 172.44,320.10 C173.25,318.79 169.85,318.59 168.45,319.86 C167.45,320.77 141.53,331.90 129.50,336.59 C125.65,338.09 122.38,339.41 122.23,339.52 C122.08,339.62 123.77,343.59 125.98,348.33 C128.19,353.08 130.00,357.20 130.00,357.49 C130.00,357.78 130.94,360.15 132.10,362.76 C137.35,374.61 141.46,386.42 148.17,408.98 C149.72,414.19 147.78,413.60 174.50,416.92 C211.34,421.48 218.00,421.90 218.00,419.63 ZM 217.00 416.12 C217.00,415.63 215.99,414.56 214.75,413.73 C213.51,412.91 211.38,411.23 210.00,410.01 C208.62,408.78 202.70,404.01 196.83,399.39 C181.78,387.55 179.41,383.09 184.82,376.78 C188.08,372.98 196.00,361.69 196.00,360.84 C196.00,360.52 190.94,359.94 184.75,359.55 C167.58,358.47 166.08,356.76 168.56,341.20 C169.42,335.87 170.37,329.59 170.69,327.26 L 171.26 323.02 L 168.38 324.42 C166.80,325.18 163.36,326.75 160.75,327.90 C158.14,329.06 154.09,330.86 151.75,331.91 C148.12,333.55 136.80,338.16 129.30,341.06 C127.10,341.91 127.10,341.94 131.15,350.71 C138.47,366.53 146.51,388.38 150.49,403.25 C151.48,406.96 152.79,410.01 153.40,410.03 C154.00,410.05 157.65,410.49 161.50,411.01 C175.94,412.94 203.77,415.98 215.25,416.86 C216.21,416.94 217.00,416.60 217.00,416.12 ZM 121.25 415.46 C112.52,413.86 99.78,410.61 92.69,408.17 L 87.50 406.38 L 87.17 401.44 C86.84,396.46 88.17,385.33 90.10,377.00 C90.67,374.52 91.61,370.48 92.19,368.00 C95.12,355.48 100.44,342.39 105.10,336.23 L 106.82 333.97 L 108.86 337.27 C111.70,341.87 118.39,355.53 121.28,362.65 C123.71,368.62 124.55,372.55 127.60,392.00 C129.76,405.73 130.67,410.90 131.52,414.25 C132.33,417.46 132.27,417.47 121.25,415.46 ZM 129.98 414.75 C129.97,414.61 129.30,410.90 128.49,406.50 C127.68,402.10 126.09,392.47 124.97,385.10 C123.84,377.73 122.10,369.41 121.11,366.60 C118.02,357.84 107.72,336.93 106.68,337.27 C105.18,337.77 100.19,347.03 97.85,353.65 C93.82,365.05 89.64,384.63 88.47,397.59 L 87.83 404.69 L 90.91 405.84 C97.94,408.48 108.27,411.23 121.00,413.86 C125.46,414.78 130.02,415.23 129.98,414.75 ZM 253.84 398.91 C255.59,396.49 261.15,388.54 266.20,381.25 C271.25,373.96 275.70,368.00 276.08,368.00 C277.31,368.00 282.83,377.27 282.35,378.53 C281.76,380.07 257.50,399.27 252.08,402.48 C251.30,402.95 252.09,401.34 253.84,398.91 ZM 271.11 386.37 C281.61,378.06 281.42,378.35 279.07,374.65 C277.98,372.92 276.55,371.50 275.91,371.50 C275.27,371.50 271.76,375.83 268.12,381.12 C264.48,386.41 260.39,392.26 259.03,394.12 L 256.56 397.50 L 260.53 394.55 C262.71,392.93 267.47,389.25 271.11,386.37 ZM 378.00 401.94 C378.00,401.36 378.42,399.00 378.94,396.69 C379.45,394.39 380.38,387.55 381.00,381.50 C382.63,365.63 385.69,356.17 387.40,361.75 C389.96,370.12 393.92,389.35 393.98,393.70 C393.99,394.36 392.31,395.37 390.25,395.95 C383.03,397.95 383.23,398.31 384.55,385.97 C385.19,379.91 385.98,374.69 386.29,374.37 C386.61,374.06 387.15,375.53 387.49,377.65 C387.83,379.77 388.53,383.39 389.05,385.69 C390.25,390.99 390.24,392.00 389.00,392.00 C388.45,392.00 387.97,390.54 387.93,388.75 C387.89,386.96 387.47,384.60 387.00,383.50 C386.37,382.03 386.12,382.86 386.07,386.67 C386.03,389.51 385.73,392.55 385.39,393.42 C384.94,394.59 385.40,395.00 387.14,394.98 C392.09,394.95 392.49,393.93 391.10,384.83 C389.60,374.97 387.36,365.96 386.11,364.71 C385.01,363.61 383.31,371.06 382.49,380.60 C382.17,384.39 381.42,390.33 380.83,393.79 C380.24,397.26 379.99,400.33 380.29,400.62 C380.58,400.91 384.47,400.16 388.93,398.96 L 397.05 396.77 L 396.53 393.63 C392.97,372.11 392.80,371.36 388.14,356.23 C387.56,354.37 387.53,353.21 388.05,353.53 C390.20,354.86 396.07,378.51 397.50,391.63 L 398.17 397.76 L 392.83 399.29 C378.90,403.29 378.00,403.45 378.00,401.94 ZM 231.00 402.45 C231.00,402.14 232.80,399.24 235.00,396.00 C237.20,392.76 239.00,389.81 239.00,389.45 C239.00,389.09 235.95,384.45 232.22,379.15 C228.49,373.84 224.40,367.81 223.14,365.75 C221.87,363.69 220.50,362.00 220.10,362.00 C219.69,362.00 216.74,365.85 213.54,370.57 L 207.72 379.13 L 211.14 382.32 C214.49,385.44 230.10,399.17 230.92,399.72 C231.15,399.87 231.04,400.29 230.69,400.64 C230.11,401.22 225.62,397.44 210.63,383.72 L 205.76 379.26 L 210.15 372.88 C216.50,363.63 219.29,360.00 220.02,360.00 C220.38,360.00 222.42,362.59 224.56,365.75 C226.70,368.91 231.30,375.49 234.77,380.36 C238.25,385.23 240.96,389.55 240.80,389.95 C239.90,392.15 232.38,402.98 231.75,402.99 C231.34,403.00 231.00,402.75 231.00,402.45 ZM 225.36 391.82 C222.76,389.44 218.68,385.73 216.31,383.56 C213.94,381.39 212.00,379.25 212.00,378.80 C212.00,377.33 219.29,366.93 220.12,367.22 C220.55,367.37 224.29,372.43 228.42,378.47 L 235.92 389.43 L 234.01 392.45 C232.96,394.11 231.65,395.62 231.10,395.80 C230.55,395.98 227.97,394.19 225.36,391.82 ZM 232.82 391.49 C233.86,389.21 233.40,388.17 227.83,380.24 C224.46,375.43 221.29,371.05 220.79,370.50 C219.73,369.34 214.07,375.62 214.02,378.00 C213.99,379.62 228.80,393.89 230.59,393.96 C231.19,393.98 232.19,392.87 232.82,391.49 ZM 241.92 376.81 C238.39,371.76 235.16,367.07 234.75,366.40 C234.33,365.72 235.14,362.78 236.55,359.84 C241.74,349.01 241.16,349.53 248.36,349.21 L 254.85 348.91 L 258.83 357.14 L 262.80 365.36 L 255.88 375.68 C252.07,381.36 248.82,386.00 248.65,386.00 C248.48,386.00 245.45,381.86 241.92,376.81 ZM 255.02 374.16 C257.73,369.95 260.00,366.05 260.06,365.50 C260.12,364.95 258.90,361.46 257.34,357.75 L 254.50 351.01 L 248.50 351.01 L 242.50 351.01 L 239.24 358.21 L 235.98 365.41 L 240.49 372.19 C246.20,380.78 248.14,383.03 249.22,382.36 C249.70,382.07 252.31,378.38 255.02,374.16 ZM 292.00 340.23 C292.00,339.72 292.77,337.78 293.71,335.90 C294.65,334.03 296.39,329.18 297.57,325.11 C298.75,321.05 299.98,318.15 300.30,318.67 C300.96,319.75 304.20,339.16 303.77,339.52 C302.81,340.33 292.00,340.98 292.00,340.23 ZM 301.99 335.75 C301.99,333.96 301.48,330.70 300.86,328.50 C299.77,324.60 299.71,324.56 298.77,327.00 C298.24,328.38 296.95,331.42 295.90,333.78 C294.86,336.13 294.00,338.27 294.00,338.53 C294.00,338.79 295.80,339.00 298.00,339.00 C301.85,339.00 302.00,338.88 301.99,335.75 ZM 190.74 343.26 C186.46,342.93 186.03,342.67 186.44,340.70 C186.69,339.49 187.17,335.80 187.51,332.50 C188.84,319.36 192.56,305.22 197.37,295.00 L 199.49 290.50 L 200.15 302.50 C200.51,309.10 201.25,316.08 201.78,318.00 C203.49,324.11 206.14,331.30 209.05,337.75 L 211.87 344.00 L 203.69 343.82 C199.18,343.72 193.36,343.47 190.74,343.26 ZM 209.00 342.47 C209.00,342.18 207.92,339.37 206.59,336.22 C201.69,324.56 199.76,316.72 197.70,300.00 C196.99,294.28 190.16,320.83 188.50,335.70 L 187.82 341.89 L 193.66 342.26 C204.61,342.94 209.00,343.00 209.00,342.47 ZM 240.70 338.75 C236.69,333.32 236.68,333.20 240.51,327.98 C243.94,323.32 244.45,323.00 248.56,323.00 C252.73,323.00 253.12,323.25 256.45,328.21 C259.56,332.82 259.81,333.64 258.63,335.46 C257.90,336.58 256.68,338.51 255.91,339.75 C254.73,341.66 253.65,342.00 248.81,342.00 C243.53,342.00 242.92,341.76 240.70,338.75 ZM 255.99 336.51 L 258.15 333.03 L 254.90 328.51 C252.19,324.74 251.12,324.00 248.38,324.00 C245.62,324.00 244.61,324.71 242.05,328.43 C240.37,330.87 239.00,333.16 239.00,333.53 C239.00,333.89 239.93,335.50 241.07,337.10 C242.91,339.68 243.72,340.00 248.49,340.00 C253.52,340.00 253.97,339.79 255.99,336.51 ZM 109.79 327.14 C105.58,325.04 104.96,321.29 108.20,317.64 C110.32,315.24 121.11,310.94 145.00,302.99 C148.02,301.98 153.65,300.00 157.50,298.58 C165.61,295.59 167.73,295.42 170.78,297.56 C172.33,298.65 173.00,300.13 173.00,302.52 C173.00,306.73 170.54,309.19 164.21,311.28 C161.62,312.14 152.30,315.38 143.50,318.49 C112.43,329.46 113.75,329.12 109.79,327.14 ZM 130.55 321.41 C139.32,318.33 150.77,314.34 156.00,312.53 C169.14,307.99 170.96,307.02 171.67,304.17 C172.40,301.28 171.21,298.99 168.45,297.98 C166.30,297.18 163.70,297.95 138.50,306.84 C113.33,315.72 112.72,315.95 110.27,317.56 C105.99,320.36 107.92,326.87 113.05,326.97 C113.91,326.99 121.78,324.48 130.55,321.41 ZM 376.50 326.43 C372.65,325.18 362.30,321.62 353.50,318.51 C344.70,315.41 335.38,312.16 332.79,311.29 C330.20,310.43 327.16,308.87 326.04,307.82 C323.38,305.34 323.41,300.59 326.10,297.90 C328.85,295.15 330.98,295.52 349.00,301.91 C356.98,304.74 368.21,308.63 373.96,310.55 C385.51,314.41 388.21,315.86 390.56,319.45 C391.85,321.42 391.92,322.29 390.94,324.18 C389.36,327.21 389.69,326.95 386.39,327.88 C384.32,328.46 381.51,328.04 376.50,326.43 ZM 387.78 325.44 C392.28,322.29 389.07,317.19 380.95,314.61 C378.50,313.83 367.27,309.96 356.00,306.00 C329.31,296.64 330.63,297.00 327.86,298.38 C324.58,300.02 324.65,304.66 328.00,307.12 C329.38,308.13 339.05,311.93 349.50,315.55 C359.95,319.17 371.42,323.20 375.00,324.49 C382.82,327.33 384.87,327.48 387.78,325.44 ZM 239.00 276.63 C237.07,275.99 234.15,274.73 232.50,273.84 C229.13,272.00 219.94,262.93 216.90,258.44 C214.24,254.50 196.77,219.44 195.22,214.93 C192.88,208.09 194.54,197.23 197.74,198.46 C205.29,201.35 229.81,204.01 248.80,203.99 C262.29,203.98 281.31,202.37 290.82,200.44 C294.84,199.62 298.64,198.85 299.26,198.73 C299.89,198.60 301.01,200.30 301.77,202.50 C303.89,208.68 302.08,215.02 292.65,234.45 C275.83,269.09 266.75,278.17 249.21,277.90 C245.52,277.84 240.93,277.27 239.00,276.63 ZM 262.75 273.78 C271.48,269.67 279.87,257.95 291.31,233.85 C300.37,214.78 301.34,211.91 300.77,206.00 C300.51,203.22 300.11,200.79 299.89,200.58 C299.68,200.38 296.58,200.83 293.00,201.59 C270.33,206.41 212.18,205.73 198.81,200.49 C197.48,199.97 196.90,200.67 196.06,203.78 C195.47,205.95 195.27,209.25 195.61,211.11 C196.63,216.74 215.43,254.00 220.77,261.00 C225.86,267.66 228.93,270.36 234.90,273.45 C242.45,277.35 254.84,277.49 262.75,273.78 ZM 312.01 214.45 C312.02,213.93 312.69,211.02 313.50,208.00 C314.31,204.98 314.98,201.26 314.99,199.75 C314.99,198.24 315.45,197.00 316.00,197.00 C317.43,197.00 317.24,200.67 315.45,207.54 C314.06,212.85 311.98,217.05 312.01,214.45 ZM 232.00 191.40 C230.07,191.17 224.68,190.51 220.00,189.93 C200.82,187.57 185.30,182.10 178.49,175.29 C173.69,170.49 173.95,168.56 179.75,165.98 C196.88,158.37 234.24,153.84 262.63,155.94 C290.32,157.98 320.00,165.10 320.00,169.69 C320.00,176.95 302.32,185.83 280.50,189.54 C271.81,191.02 239.15,192.27 232.00,191.40 ZM 278.50 188.07 C292.44,186.01 303.41,182.58 311.05,177.88 C315.02,175.43 319.00,171.32 319.00,169.65 C319.00,169.42 316.64,168.29 313.75,167.14 C292.06,158.48 252.38,154.80 219.96,158.45 C206.60,159.95 206.28,160.00 195.50,162.56 C188.59,164.20 182.63,166.17 178.25,168.26 C176.08,169.30 176.06,169.44 177.67,171.92 C182.12,178.75 195.02,184.34 213.50,187.42 C226.40,189.58 227.60,189.66 247.50,189.84 C260.75,189.95 268.93,189.48 278.50,188.07 ZM 320.58 164.13 C319.05,161.65 299.85,153.85 288.28,151.00 C250.83,141.78 208.85,145.65 178.73,161.10 C173.61,163.73 172.89,163.87 172.32,162.40 C171.29,159.72 173.19,157.74 180.57,153.79 C197.23,144.87 220.78,140.00 247.24,140.01 C270.59,140.01 289.19,143.40 307.00,150.87 C319.73,156.22 322.46,158.10 322.81,161.77 C323.10,164.77 321.82,166.13 320.58,164.13 ZM 195.31 152.52 C210.60,147.41 220.26,145.87 240.83,145.29 C261.42,144.70 271.87,145.59 287.00,149.19 C295.77,151.29 309.24,156.08 314.50,158.98 C319.40,161.68 321.00,162.08 321.00,160.57 C321.00,158.85 306.99,151.99 296.50,148.58 C280.44,143.36 268.29,141.67 247.00,141.67 C226.03,141.68 216.53,142.88 200.29,147.59 C191.52,150.13 173.00,158.49 173.00,159.91 C173.00,161.86 174.62,161.56 180.82,158.47 C184.49,156.63 191.01,153.96 195.31,152.52 ZM 175.00 145.57 C175.00,141.65 194.61,132.57 210.50,129.14 C222.11,126.63 224.33,126.65 226.80,129.29 L 229.09 131.73 L 223.80 132.42 C209.55,134.28 190.59,139.64 180.88,144.56 C175.25,147.41 175.00,147.46 175.00,145.57 ZM 183.80 141.63 C191.00,137.98 210.04,132.73 220.79,131.44 C225.25,130.90 225.89,130.58 224.88,129.36 C223.53,127.73 222.88,127.82 207.00,131.67 C196.87,134.13 186.47,138.15 181.80,141.43 C179.04,143.36 180.16,143.48 183.80,141.63 ZM 315.00 145.76 C306.13,141.31 290.65,136.31 278.32,133.92 L 266.85 131.70 L 269.23 129.32 L 271.61 126.93 L 280.06 128.57 C298.19,132.09 314.77,139.12 319.33,145.23 C320.45,146.74 321.17,148.09 320.93,148.25 C320.69,148.40 318.02,147.28 315.00,145.76 ZM 315.00 143.14 C315.00,140.64 294.96,133.01 281.33,130.33 C273.17,128.72 267.93,129.08 271.03,131.04 C271.84,131.55 273.73,131.98 275.24,131.98 C280.43,132.01 304.20,138.79 311.00,142.18 C315.18,144.26 315.00,144.22 315.00,143.14 ZM 198.00 411.91 C193.88,411.45 185.55,410.58 179.50,409.98 C162.58,408.27 153.85,406.80 153.52,405.60 C150.39,394.11 141.02,367.38 136.98,358.41 C135.89,355.98 134.10,352.00 133.00,349.55 C131.90,347.11 131.01,344.75 131.01,344.30 C131.02,343.86 134.28,342.21 138.26,340.63 C142.24,339.05 150.60,335.52 156.83,332.79 C163.07,330.07 168.31,327.98 168.48,328.17 C168.65,328.35 168.21,331.29 167.50,334.70 C164.86,347.38 164.74,352.20 166.96,355.77 C169.45,359.77 172.40,360.98 179.82,361.06 C182.94,361.09 187.24,361.43 189.37,361.81 L 193.24 362.50 L 186.55 371.47 C180.48,379.61 179.92,380.76 180.51,383.89 C181.49,389.11 184.85,392.79 197.99,402.99 C204.60,408.12 210.00,412.47 210.00,412.66 C210.00,413.10 207.16,412.93 198.00,411.91 ZM 203.41 409.17 C202.06,407.91 199.08,407.11 193.97,406.62 C189.86,406.23 182.90,405.51 178.50,405.03 C174.10,404.55 167.55,403.84 163.93,403.45 L 157.37 402.75 L 154.60 394.12 C150.57,381.58 142.23,359.50 139.00,352.84 C136.98,348.67 136.52,346.83 137.35,346.19 C137.98,345.71 142.55,343.70 147.50,341.74 C161.70,336.09 165.74,334.11 166.36,332.50 C167.22,330.27 165.09,330.64 157.39,334.05 C153.60,335.72 149.60,337.46 148.50,337.90 C147.40,338.34 144.35,339.67 141.72,340.85 C139.10,342.03 136.31,343.00 135.53,343.00 C132.10,343.00 132.55,345.10 139.10,359.67 C142.35,366.88 149.36,386.68 154.01,401.75 C154.73,404.09 155.81,406.00 156.41,406.00 C157.01,406.00 163.12,406.67 170.00,407.49 C188.69,409.72 198.11,410.72 201.94,410.87 C205.32,411.00 205.35,410.97 203.41,409.17 ZM 195.50 403.00 C194.12,401.47 192.36,400.98 188.10,400.93 C185.02,400.90 177.55,400.33 171.50,399.68 L 160.50 398.49 L 157.42 389.49 C155.72,384.55 153.99,379.60 153.58,378.50 C152.46,375.54 142.96,351.68 142.39,350.40 C142.10,349.76 146.73,347.25 153.45,344.41 C161.95,340.82 165.00,339.07 165.00,337.77 C165.00,336.11 164.76,336.11 160.75,337.67 C158.41,338.57 156.05,339.62 155.50,340.00 C154.95,340.37 150.79,342.15 146.25,343.95 C141.71,345.75 138.00,347.34 138.00,347.47 C138.00,347.61 139.57,351.12 141.50,355.29 C145.38,363.69 152.49,382.64 155.90,393.66 C157.12,397.61 158.78,401.09 159.60,401.40 C160.42,401.71 166.11,402.44 172.25,403.02 C178.39,403.60 183.62,404.28 183.87,404.54 C184.13,404.79 187.25,405.00 190.82,405.00 C197.25,405.00 197.29,404.98 195.50,403.00 ZM 190.00 399.02 C190.00,398.49 188.85,397.29 187.44,396.37 C183.25,393.62 179.00,386.61 179.00,382.43 C179.00,379.46 180.13,377.25 184.65,371.35 C187.76,367.29 190.05,363.72 189.74,363.41 C189.44,363.10 184.86,362.59 179.58,362.28 C171.12,361.77 169.68,361.41 167.51,359.24 C164.66,356.39 163.55,351.71 164.25,345.51 C164.80,340.58 165.36,340.62 155.47,344.97 C152.74,346.18 148.99,347.81 147.15,348.61 C145.23,349.44 144.03,350.58 144.33,351.28 C148.92,362.11 155.32,378.66 158.03,386.72 L 161.47 396.95 L 165.48 397.54 C167.69,397.87 173.55,398.50 178.50,398.93 C183.45,399.37 188.06,399.78 188.75,399.86 C189.44,399.94 190.00,399.56 190.00,399.02 ZM 116.00 410.80 C111.32,409.70 103.69,407.60 99.03,406.15 L 90.55 403.50 L 90.84 398.50 C91.11,393.79 92.67,383.79 94.90,372.50 C97.10,361.33 104.72,341.00 106.72,341.00 C107.52,341.00 110.54,346.98 116.82,361.00 C120.25,368.65 121.07,372.18 124.47,393.70 C125.88,402.62 127.29,410.61 127.62,411.45 C128.38,413.44 126.82,413.35 116.00,410.80 ZM 125.62 409.25 C125.13,407.60 123.55,398.02 120.96,381.00 C119.38,370.61 117.57,365.40 110.28,350.23 C107.24,343.90 106.45,343.29 104.96,346.08 C103.25,349.26 97.99,364.78 97.04,369.44 C94.57,381.47 93.09,390.20 92.51,396.09 L 91.87 402.68 L 103.19 405.80 C124.12,411.56 126.40,411.91 125.62,409.25 ZM 246.81 378.25 C245.98,377.29 243.81,374.25 241.97,371.50 C240.13,368.75 238.15,366.16 237.57,365.75 C236.81,365.22 236.82,364.78 237.58,364.25 C238.17,363.84 239.72,361.14 241.01,358.25 L 243.36 353.00 L 248.49 353.00 L 253.63 353.00 L 256.07 358.75 C257.40,361.91 258.44,365.06 258.36,365.75 C258.19,367.27 249.75,379.99 248.90,380.00 C248.58,380.00 247.63,379.21 246.81,378.25 ZM 252.96 372.05 C255.18,368.79 257.00,365.62 257.00,365.02 C257.00,364.42 255.87,361.70 254.48,358.97 C252.13,354.33 251.72,354.00 248.18,354.00 C244.74,354.00 244.23,354.36 242.69,357.84 C241.76,359.95 241.00,362.16 241.00,362.75 C241.00,363.35 240.49,364.00 239.87,364.21 C239.01,364.50 247.65,378.00 248.70,378.00 C248.82,378.00 250.74,375.32 252.96,372.05 ZM 195.25 340.26 C192.03,340.04 190.01,339.43 190.02,338.70 C190.05,336.77 192.75,320.94 193.97,315.59 C195.84,307.33 196.49,307.51 198.24,316.75 C199.15,321.56 201.27,328.82 202.95,332.89 C204.63,336.95 206.00,340.44 206.00,340.64 C206.00,340.84 204.76,340.92 203.25,340.82 C201.74,340.71 198.14,340.46 195.25,340.26 ZM 202.14 334.75 C201.16,332.41 199.57,327.80 198.60,324.50 C195.87,315.22 195.86,315.19 195.01,318.00 C193.72,322.28 192.00,332.47 192.00,335.81 L 192.00 339.00 L 197.96 339.00 L 203.93 339.00 L 202.14 334.75 ZM 242.62 336.54 C240.58,333.44 240.57,333.64 243.25,329.50 C244.99,326.81 246.17,326.02 248.50,326.02 C250.83,326.02 252.01,326.81 253.75,329.50 C256.44,333.65 256.45,333.88 254.06,336.75 C251.32,340.03 244.83,339.91 242.62,336.54 ZM 253.50 335.01 C254.30,332.47 251.13,327.00 248.85,327.00 C247.21,327.00 243.00,331.83 243.00,333.70 C243.00,335.62 245.56,337.00 249.13,337.00 C251.98,337.00 253.01,336.53 253.50,335.01 ZM 109.49 323.99 C108.32,322.09 110.07,319.19 113.32,317.65 C115.10,316.81 123.75,313.58 132.53,310.49 C166.67,298.47 168.99,297.91 170.33,301.42 C171.27,303.88 168.10,306.78 162.26,308.81 C159.09,309.90 147.27,314.00 136.00,317.90 C115.96,324.84 110.76,326.04 109.49,323.99 ZM 123.00 320.92 C142.14,314.14 157.68,308.76 160.61,307.90 C163.23,307.13 163.64,306.59 163.24,304.49 C162.67,301.50 162.49,301.48 155.79,303.94 C152.88,305.00 141.99,308.84 131.58,312.47 C113.67,318.73 108.54,321.45 111.34,323.23 C113.07,324.33 113.75,324.20 123.00,320.92 ZM 168.68 303.40 C169.53,301.18 166.87,299.71 165.13,301.44 C164.38,302.19 164.07,303.30 164.44,303.90 C165.45,305.53 167.97,305.23 168.68,303.40 ZM 372.50 322.03 C368.10,320.44 356.67,316.42 347.11,313.08 C337.54,309.74 329.10,306.50 328.36,305.88 C327.61,305.26 327.00,303.72 327.00,302.44 C327.00,298.22 331.75,298.39 342.50,303.02 C343.60,303.49 353.27,306.85 363.99,310.48 C385.76,317.85 388.27,319.10 387.81,322.31 C387.35,325.57 382.05,325.47 372.50,322.03 ZM 386.00 323.02 C388.81,321.24 385.02,319.29 365.50,312.49 C355.05,308.85 344.05,305.02 341.06,303.96 C338.06,302.91 335.59,302.15 335.56,302.28 C335.53,302.40 334.95,303.49 334.27,304.71 C333.13,306.74 333.30,306.99 336.27,307.86 C338.05,308.38 348.05,311.82 358.50,315.51 C385.61,325.07 383.62,324.52 386.00,323.02 ZM 333.00 303.05 C333.00,300.59 330.46,299.74 328.86,301.67 C327.79,302.96 327.89,303.45 329.44,304.58 C331.63,306.18 333.00,305.60 333.00,303.05 ZM 243.00 274.12 C236.68,272.76 231.59,269.69 225.80,263.74 C221.03,258.83 218.31,254.33 209.04,235.99 C198.29,214.72 195.67,207.33 197.78,204.23 C198.48,203.20 200.07,203.25 205.93,204.49 C209.94,205.33 221.12,206.54 230.78,207.19 C250.62,208.51 278.46,207.20 291.09,204.34 C297.12,202.98 298.35,202.95 299.09,204.12 C301.49,207.90 299.32,214.35 287.67,238.11 C276.66,260.54 271.60,267.60 263.82,271.35 C258.06,274.12 248.77,275.36 243.00,274.12 ZM 258.92 272.02 C263.99,270.57 269.30,266.51 273.07,261.21 L 276.43 256.50 L 271.46 261.53 C264.99,268.10 260.20,270.32 251.50,270.80 C246.10,271.09 243.20,270.69 238.80,269.04 C229.67,265.61 225.30,259.86 212.82,234.88 C206.95,223.12 201.82,212.19 201.43,210.59 C200.76,207.89 200.87,207.74 203.10,208.35 C211.09,210.56 222.20,211.20 249.33,211.04 C276.53,210.88 282.95,210.50 292.75,208.43 C295.73,207.81 296.00,207.96 296.00,210.24 C296.00,213.24 292.45,221.86 283.58,240.39 C279.93,248.02 277.10,254.44 277.30,254.64 C277.66,254.99 286.72,237.08 293.82,222.00 C297.66,213.82 299.25,205.00 296.88,205.00 C296.12,205.00 291.90,205.75 287.50,206.67 C275.49,209.17 222.37,209.17 209.11,206.66 C197.97,204.56 197.05,204.98 199.00,211.22 C201.12,218.00 219.58,253.98 223.76,259.50 C227.83,264.87 235.29,270.44 240.36,271.91 C244.64,273.15 254.77,273.21 258.92,272.02 ZM 263.20 266.29 C269.53,262.85 274.53,256.38 280.03,244.50 C282.32,239.55 285.56,232.57 287.22,229.00 C292.51,217.63 294.00,213.88 294.00,211.92 C294.00,209.71 293.75,209.68 287.30,210.94 C284.66,211.46 279.46,212.17 275.75,212.52 L 269.00 213.16 L 269.00 219.33 C268.99,227.58 266.59,241.96 264.47,246.42 C261.00,253.73 253.27,257.72 246.25,255.83 C236.11,253.09 231.00,241.53 231.00,221.35 L 231.00 213.37 L 219.25 212.21 C212.79,211.58 206.44,210.75 205.14,210.38 C203.01,209.77 202.84,209.94 203.51,212.10 C203.91,213.42 208.80,223.72 214.37,234.98 C222.88,252.19 225.38,256.36 230.00,261.03 C236.84,267.95 242.65,270.21 251.80,269.53 C256.13,269.21 259.71,268.20 263.20,266.29 ZM 257.05 252.75 C263.77,248.22 266.90,238.48 266.96,221.96 L 267.00 212.43 L 249.75 212.52 L 232.50 212.60 L 232.72 223.05 C233.07,240.15 236.05,248.89 242.86,252.84 C247.64,255.61 252.85,255.58 257.05,252.75 ZM 229.00 187.90 C204.82,185.79 187.74,180.56 180.56,173.06 L 177.75 170.13 L 181.45 168.59 C187.01,166.26 197.70,163.33 205.00,162.12 C221.24,159.44 227.21,159.00 247.00,159.00 C266.81,159.00 272.86,159.45 289.00,162.13 C299.25,163.83 314.19,168.18 316.40,170.12 C316.91,170.56 315.93,172.20 314.18,173.83 C302.04,185.17 266.00,191.12 229.00,187.90 ZM 276.00 185.47 C288.40,183.71 296.55,181.73 302.89,178.94 C308.97,176.25 313.98,172.80 313.99,171.28 C314.00,170.61 310.29,168.94 305.75,167.56 C274.53,158.06 219.56,157.85 189.92,167.11 C180.72,169.99 180.16,170.42 182.40,172.89 C185.00,175.76 195.34,180.47 203.42,182.47 C221.59,186.96 255.61,188.37 276.00,185.47 ZM 178.00 395.44 C177.18,395.27 173.57,394.84 169.99,394.51 L 163.48 393.89 L 160.61 385.70 C159.02,381.19 155.54,371.98 152.86,365.23 C150.19,358.49 148.00,352.74 148.00,352.47 C148.00,351.98 156.95,347.71 160.12,346.69 C161.44,346.26 161.84,347.20 162.32,351.83 C162.81,356.68 163.41,357.97 166.43,360.75 C169.36,363.44 170.80,364.01 174.74,364.06 C177.36,364.09 181.16,364.43 183.19,364.81 L 186.88 365.50 L 181.91 371.50 C179.17,374.80 176.68,378.52 176.36,379.76 C175.45,383.31 176.78,388.24 179.50,391.41 C183.13,395.62 182.80,396.48 178.00,395.44 ZM 178.98 393.25 C178.97,392.84 178.08,391.38 177.00,390.00 C175.66,388.29 175.04,385.92 175.02,382.48 C175.00,378.08 175.50,376.86 179.00,372.62 C181.20,369.96 183.00,367.38 183.00,366.89 C183.00,366.40 180.47,366.00 177.39,366.00 C173.58,366.00 170.60,365.34 168.13,363.95 C164.54,361.93 161.00,357.20 161.00,354.42 C161.00,353.64 160.75,353.00 160.43,353.00 C159.95,353.00 155.99,354.88 155.25,355.46 C155.12,355.57 157.16,361.02 159.79,367.58 C162.43,374.14 165.20,381.41 165.95,383.75 C166.80,386.39 167.92,388.00 168.91,388.00 C170.18,388.00 170.50,386.84 170.50,382.25 C170.50,377.92 171.05,375.74 172.71,373.40 L 174.93 370.29 L 171.05 369.13 C164.53,367.18 161.73,365.26 160.33,361.81 L 159.00 358.50 L 161.43 361.22 C165.12,365.37 170.09,367.99 174.25,368.00 C176.31,368.00 178.00,368.18 178.00,368.40 C178.00,368.62 176.38,371.21 174.40,374.15 C170.76,379.55 170.33,382.84 172.54,388.32 C173.17,389.90 172.82,390.10 169.93,389.82 C166.60,389.50 166.59,389.47 161.00,374.50 C157.91,366.25 154.82,358.45 154.12,357.16 C152.61,354.42 152.46,354.64 157.34,352.62 C159.45,351.74 161.01,350.54 160.81,349.94 C160.61,349.34 160.01,348.89 159.48,348.94 C157.33,349.13 150.00,352.32 150.00,353.06 C150.00,353.50 152.43,360.07 155.40,367.68 C158.36,375.28 161.64,383.98 162.68,387.00 C164.53,392.39 164.66,392.51 169.03,393.10 C175.92,394.02 179.00,394.07 178.98,393.25 ZM 119.50 407.35 C114.34,406.28 107.92,404.61 101.75,402.76 C93.38,400.23 93.56,401.78 98.65,375.50 C100.59,365.47 105.93,349.00 107.23,349.00 C107.77,349.00 107.89,349.79 107.50,350.75 C105.23,356.32 101.76,367.19 100.86,371.50 C98.33,383.67 97.04,391.80 97.02,395.67 C97.00,399.77 97.08,399.86 101.75,401.34 C109.06,403.66 120.14,406.20 120.66,405.67 C121.08,405.25 120.41,400.49 116.89,379.00 C115.84,372.60 111.34,359.33 109.92,358.45 C108.50,357.57 103.15,378.55 101.44,391.67 L 100.76 396.85 L 105.13 398.04 C107.53,398.69 110.81,399.63 112.41,400.12 C114.01,400.61 115.53,400.80 115.78,400.55 C116.03,400.30 115.73,397.15 115.12,393.55 C114.50,389.95 113.51,383.96 112.91,380.25 C110.81,367.20 109.88,367.14 107.46,379.87 C105.43,390.61 105.75,394.39 108.75,394.82 C111.34,395.19 111.76,393.53 109.41,392.21 C108.15,391.50 107.97,390.38 108.53,386.66 C109.21,382.15 110.91,380.20 111.08,383.75 C111.13,384.71 111.50,388.12 111.90,391.33 L 112.62 397.15 L 109.06 396.50 C107.10,396.14 105.12,395.48 104.66,395.04 C103.11,393.53 108.21,366.00 110.04,366.00 C111.29,366.00 113.65,374.67 114.95,384.00 C115.59,388.67 116.60,394.66 117.17,397.30 C117.75,399.95 118.05,402.28 117.85,402.49 C117.47,402.86 100.11,398.46 99.50,397.83 C98.35,396.64 102.97,373.73 107.21,359.63 L 109.27 352.75 L 111.50 357.63 C115.76,366.93 117.85,374.57 119.95,388.50 C121.11,396.20 122.31,403.74 122.61,405.25 C122.91,406.76 122.79,407.95 122.33,407.88 C121.87,407.82 120.60,407.58 119.50,407.35 ZM 244.59 370.00 C240.87,364.81 240.48,364.00 241.75,364.00 C242.16,364.00 243.79,366.05 245.37,368.55 C246.95,371.05 248.48,372.85 248.78,372.56 C249.07,372.26 250.31,370.37 251.52,368.36 C253.63,364.86 253.66,364.55 252.11,360.86 C250.48,356.97 248.38,356.02 246.20,358.20 C245.54,358.86 245.00,360.37 245.00,361.55 C245.00,364.03 248.48,367.65 249.42,366.13 C249.76,365.59 249.57,364.85 249.00,364.50 C248.43,364.15 248.27,363.37 248.64,362.78 C249.04,362.13 248.84,361.98 248.15,362.40 C247.42,362.86 247.00,362.34 247.00,360.98 C247.00,358.14 249.14,358.90 250.81,362.34 C251.97,364.71 251.88,365.33 250.12,367.58 L 248.11 370.13 L 245.48 365.96 C243.15,362.27 242.98,361.46 244.04,358.90 C245.01,356.56 245.86,356.00 248.44,356.00 C251.11,356.00 251.91,356.58 253.31,359.53 C254.24,361.48 255.00,363.76 255.00,364.60 C255.00,365.99 249.41,375.00 248.55,375.00 C248.35,375.00 246.57,372.75 244.59,370.00 ZM 245.03 333.75 C245.08,332.02 247.49,329.00 248.83,329.00 C249.99,329.00 252.00,332.13 252.00,333.93 C252.00,334.52 250.43,335.00 248.50,335.00 C246.35,335.00 245.01,334.52 245.03,333.75 ZM 250.75 332.75 C250.12,330.86 247.00,330.59 247.00,332.43 C247.00,333.35 247.85,334.00 249.08,334.00 C250.31,334.00 250.99,333.48 250.75,332.75 ZM 238.52 264.94 C231.14,261.25 228.28,257.28 217.44,235.59 C211.69,224.09 207.19,214.48 207.44,214.23 C207.69,213.98 210.76,214.28 214.28,214.89 C217.79,215.50 222.27,216.00 224.23,216.00 L 227.79 216.00 L 228.45 224.25 C229.78,240.95 233.10,250.80 238.72,254.80 C246.83,260.57 256.25,259.78 262.55,252.82 C264.49,250.66 266.56,247.68 267.13,246.20 C268.97,241.43 271.00,229.01 271.00,222.55 L 271.00 216.28 L 276.25 215.64 C279.14,215.29 283.69,214.71 286.36,214.36 C291.09,213.73 291.20,213.78 290.50,216.00 C289.71,218.49 284.75,229.30 276.48,246.56 C271.05,257.88 266.88,262.66 259.70,265.78 C255.21,267.74 243.17,267.25 238.52,264.94 ZM 262.43 262.60 C267.95,259.36 271.02,255.44 275.10,246.43 C276.82,242.62 280.03,235.68 282.23,231.00 C289.67,215.19 289.45,216.00 286.26,216.01 C284.74,216.01 281.20,216.29 278.40,216.63 L 273.30 217.24 L 272.13 228.03 C270.40,243.95 268.14,250.01 261.94,255.32 C255.85,260.53 248.60,261.44 241.30,257.90 C233.02,253.90 228.57,243.97 227.33,226.77 C226.84,219.97 226.35,217.94 225.10,217.60 C222.01,216.75 210.00,215.85 210.00,216.46 C210.00,218.70 228.81,255.13 231.36,257.84 C237.04,263.86 242.90,266.10 251.71,265.59 C256.15,265.34 259.20,264.49 262.43,262.60 ZM 244.30 251.04 C237.90,247.14 235.03,238.86 235.01,224.25 L 235.00 215.00 L 250.00 215.00 L 265.00 215.00 L 265.00 222.25 C265.00,230.57 263.03,241.12 260.58,245.84 C258.64,249.60 253.61,252.99 250.00,252.99 C248.62,252.99 246.06,252.12 244.30,251.04 ZM 256.98 248.17 C260.84,244.32 262.15,239.41 262.73,226.75 L 263.22 216.00 L 249.46 216.00 L 235.70 216.00 L 236.29 225.78 C236.62,231.16 237.47,237.73 238.18,240.38 C240.83,250.28 250.76,254.40 256.98,248.17 ZM 234.50 185.41 C218.95,184.26 202.17,181.14 193.50,177.78 C188.82,175.96 182.83,171.76 183.71,170.91 C184.99,169.65 198.71,166.11 209.50,164.25 C217.37,162.90 225.46,162.53 247.50,162.55 C272.20,162.57 276.91,162.84 287.50,164.82 C298.51,166.87 312.00,170.59 312.00,171.57 C312.00,173.50 296.76,180.18 288.50,181.87 C274.33,184.77 248.62,186.45 234.50,185.41 ZM 282.00 181.60 C294.55,179.11 302.93,176.39 307.42,173.37 C309.25,172.13 309.22,172.03 306.69,171.07 C295.30,166.74 267.61,163.00 247.00,163.00 C228.76,163.01 203.27,166.14 191.32,169.84 L 185.50 171.65 L 189.00 173.83 C192.47,176.00 194.88,176.87 204.50,179.45 C209.83,180.88 220.92,182.79 227.50,183.42 C236.73,184.30 274.78,183.03 282.00,181.60 ZM 166.43 377.50 C166.03,376.40 165.12,374.04 164.40,372.25 C162.91,368.53 163.04,368.45 167.05,370.53 C170.50,372.31 170.38,371.88 168.57,376.14 C167.31,379.13 167.07,379.28 166.43,377.50 ZM 168.00 373.00 C168.00,372.45 167.52,372.00 166.94,372.00 C166.36,372.00 166.16,372.45 166.50,373.00 C166.84,373.55 167.32,374.00 167.56,374.00 C167.80,374.00 168.00,373.55 168.00,373.00 ZM 244.36 263.09 C239.86,261.95 234.34,258.31 231.56,254.66 C230.24,252.92 227.37,247.37 225.19,242.33 C223.01,237.29 219.65,230.20 217.73,226.58 L 214.23 220.00 L 219.12 220.00 C223.78,220.00 224.00,220.13 224.00,222.75 C224.00,224.26 224.70,229.55 225.55,234.50 C228.28,250.47 233.88,258.46 244.50,261.54 C249.52,263.00 250.46,263.00 255.25,261.56 C266.72,258.11 273.06,247.29 274.58,228.58 L 275.28 220.00 L 279.64 220.00 C282.04,220.00 284.00,220.18 284.00,220.41 C284.00,220.63 281.93,225.24 279.39,230.66 C276.86,236.07 273.91,242.71 272.84,245.42 C269.70,253.36 265.45,258.66 259.91,261.54 C256.54,263.29 248.36,264.11 244.36,263.09 ZM 223.32 227.81 C222.78,222.55 222.55,222.16 219.87,221.77 C218.29,221.54 217.00,221.51 217.00,221.71 C217.00,222.56 223.28,234.06 223.57,233.76 C223.75,233.58 223.64,230.90 223.32,227.81 ZM 281.57 221.24 C281.34,221.01 280.27,221.10 279.18,221.44 C276.98,222.14 276.01,224.81 276.07,230.00 C276.12,233.47 276.14,233.45 279.05,227.58 C280.67,224.32 281.80,221.47 281.57,221.24 ZM 244.82 246.94 C241.32,244.33 239.21,237.53 238.82,227.60 L 238.50 219.71 L 249.87 219.60 L 261.25 219.50 L 260.69 228.00 C259.99,238.63 258.55,243.58 255.27,246.62 C252.16,249.51 248.41,249.62 244.82,246.94 ZM 255.23 244.75 C257.47,241.31 258.76,236.22 259.42,228.25 L 260.01 221.00 L 249.86 221.00 L 239.70 221.00 L 240.36 229.46 C241.35,242.40 243.89,247.00 250.04,247.00 C252.81,247.00 254.15,246.42 255.23,244.75 ZM 226.00 181.40 C219.68,180.74 212.25,179.73 209.50,179.15 C200.34,177.23 190.00,173.47 190.00,172.07 C190.00,171.73 192.36,170.91 195.25,170.24 C221.40,164.17 264.87,163.44 290.50,168.62 C294.35,169.40 298.97,170.31 300.77,170.65 C306.92,171.81 305.87,173.30 296.73,176.38 C289.42,178.85 278.74,180.75 265.30,181.99 C251.51,183.25 242.59,183.12 226.00,181.40 ZM 272.31 179.95 C287.09,177.80 300.00,174.55 300.00,172.97 C300.00,172.53 297.64,171.64 294.75,171.01 C267.56,165.00 223.32,165.25 196.01,171.58 C193.98,172.05 193.81,172.31 195.09,173.03 C197.16,174.19 204.63,176.59 209.00,177.51 C224.55,180.76 257.89,182.05 272.31,179.95 ZM 246.84 243.68 C245.02,242.29 243.53,237.27 242.56,229.25 L 241.93 224.00 L 249.47 224.00 L 257.00 224.00 L 256.98 228.25 C256.90,240.64 252.22,247.77 246.84,243.68 ZM 253.14 239.95 C254.05,238.05 255.03,233.91 255.32,230.75 L 255.86 225.00 L 249.78 225.00 L 243.71 225.00 L 244.32 231.49 C245.43,243.39 249.60,247.38 253.14,239.95 ZM 219.00 177.52 C206.86,175.58 200.00,173.92 200.00,172.93 C200.00,172.42 200.21,172.00 200.47,172.00 C200.72,172.00 206.01,171.25 212.22,170.33 C227.95,168.00 266.15,168.02 281.98,170.36 C299.60,172.96 298.91,173.97 277.00,177.57 C266.54,179.29 229.85,179.26 219.00,177.52 ZM 280.65 175.44 C284.90,174.63 288.52,173.81 288.71,173.62 C288.90,173.44 286.45,172.73 283.27,172.05 C269.75,169.16 213.56,169.82 208.22,172.93 C207.28,173.49 206.78,173.95 207.11,173.97 C207.45,173.99 210.15,174.48 213.11,175.08 C228.46,178.14 265.49,178.34 280.65,175.44 ZM 248.46 239.25 C248.05,238.29 247.41,235.36 247.04,232.75 L 246.36 228.00 L 249.68 228.00 C253.47,228.00 253.76,229.10 251.88,236.56 C250.69,241.29 249.68,242.09 248.46,239.25 ZM 250.98 232.75 C251.00,229.94 250.59,229.00 249.37,229.00 C248.04,229.00 247.85,229.70 248.36,232.75 C248.70,234.81 248.99,237.18 249.00,238.00 C249.07,241.46 250.97,236.41 250.98,232.75 ZM 224.70 175.05 C220.41,174.60 216.66,174.00 216.38,173.71 C216.09,173.42 219.37,172.84 223.68,172.42 C241.86,170.65 283.77,172.01 278.00,174.19 C274.69,175.44 234.61,176.09 224.70,175.05 ZM 261.00 174.00 C262.47,173.53 256.90,173.21 247.50,173.22 C238.15,173.23 232.75,173.55 234.50,174.00 C238.48,175.01 257.83,175.01 261.00,174.00 Z" fill="#C9A227"/>
</g>
</svg>