<svg xmlns="http://www.w3.org/2000/svg" width="440" height="567" viewBox="0 0 440 567">
<g>
<path d="M 209.28 510.55 C193.51,494.35 188.09,490.70 142.50,465.55 C111.35,448.36 101.78,441.81 88.40,428.52 C79.91,420.10 75.27,414.40 68.71,404.35 C63.98,397.11 59.60,390.87 58.96,390.47 C57.39,389.50 54.85,392.22 47.59,402.65 C44.20,407.51 40.63,411.64 39.64,411.83 C33.81,412.95 31.48,401.68 31.54,372.50 C31.58,349.36 32.89,340.49 39.08,321.61 C45.70,301.43 60.27,273.00 64.00,273.00 C65.27,273.00 68.82,277.46 75.34,287.25 C80.55,295.09 87.73,305.10 91.28,309.50 C99.37,319.51 120.48,340.36 133.00,350.72 C140.30,356.76 142.50,359.14 142.50,361.04 L 142.50 363.50 L 124.50 363.50 L 106.50 363.50 L 106.71 366.40 C107.04,371.01 113.42,379.66 124.88,391.05 C133.72,399.82 137.04,402.38 144.64,406.29 C155.33,411.78 173.21,418.00 178.30,418.00 C180.90,418.00 182.38,417.33 183.81,415.51 C188.32,409.78 188.50,405.39 188.50,303.00 C188.50,213.53 188.37,205.94 186.70,198.82 C185.71,194.60 183.90,189.65 182.68,187.82 C178.56,181.63 176.20,181.11 144.36,179.35 C128.49,178.47 115.20,177.47 114.83,177.13 C114.47,176.78 113.85,168.51 113.45,158.75 L 112.73 141.00 L 156.87 141.00 C181.14,141.00 201.00,140.76 201.00,140.47 C201.00,140.18 198.50,136.92 195.45,133.22 C187.56,123.66 184.60,117.13 184.15,108.32 C183.84,102.20 184.18,100.28 186.45,95.32 C194.52,77.63 218.13,68.08 234.37,75.94 C236.79,77.11 241.49,80.76 244.81,84.05 C252.61,91.77 254.40,96.73 253.81,108.86 C253.28,119.74 250.34,126.59 243.12,133.69 L 237.95 138.78 L 248.73 139.37 C254.65,139.70 274.24,140.25 292.25,140.60 L 325.00 141.23 L 325.00 160.12 L 325.00 179.00 L 312.25 179.05 C305.24,179.07 291.95,179.48 282.73,179.94 C267.70,180.70 265.41,181.05 260.73,183.36 C257.85,184.78 254.24,187.11 252.70,188.56 L 249.90 191.18 L 250.29 301.84 C250.51,362.70 251.04,413.74 251.46,415.25 C252.13,417.62 252.75,418.00 255.96,418.00 C265.20,418.00 287.90,410.06 301.36,402.13 C314.61,394.32 335.72,369.92 333.72,364.72 C333.28,363.57 330.02,363.40 315.09,363.79 C297.76,364.25 297.00,364.19 297.00,362.35 C297.00,360.20 302.25,354.93 318.65,340.63 C335.15,326.24 347.68,311.92 360.16,293.19 C369.63,278.98 373.74,274.00 376.02,274.00 C381.19,274.00 399.65,315.24 404.45,337.50 C409.22,359.60 409.22,396.35 404.46,407.74 C401.79,414.15 398.45,411.78 387.57,395.74 C384.31,390.93 381.38,387.00 381.07,387.01 C380.76,387.01 378.74,390.24 376.59,394.19 C364.12,417.08 348.78,434.27 329.19,447.31 C323.56,451.05 305.69,461.40 289.48,470.31 C255.24,489.12 245.72,495.55 230.48,510.19 L 219.35 520.89 L 209.28 510.55 ZM 228.50 498.92 C240.28,488.56 252.27,480.94 283.50,463.98 C319.16,444.62 331.45,436.51 343.88,424.14 C354.04,414.02 359.35,406.73 367.99,391.00 C374.14,379.81 377.59,375.00 379.45,375.00 C381.02,375.00 387.53,381.44 394.00,389.38 C396.48,392.42 398.89,394.92 399.37,394.95 C399.85,394.98 400.01,385.10 399.72,372.75 C399.14,348.01 397.71,339.00 391.39,320.00 C387.62,308.69 377.57,287.00 376.09,287.00 C375.59,287.00 371.92,291.61 367.92,297.25 C356.42,313.46 345.37,326.43 330.44,341.22 C322.83,348.76 316.81,355.12 317.05,355.34 C317.30,355.56 323.29,355.30 330.38,354.77 C344.48,353.70 348.00,354.36 348.00,358.06 C348.00,362.92 331.33,386.74 320.31,397.63 C311.45,406.39 298.19,413.60 274.50,422.54 C261.70,427.38 255.87,427.66 250.69,423.71 C248.67,422.17 246.59,420.09 246.05,419.09 C243.62,414.56 243.00,391.71 243.01,307.50 C243.02,219.90 243.57,201.46 246.54,189.65 C248.41,182.19 250.93,178.70 256.29,176.10 C263.18,172.76 270.10,171.88 295.00,171.17 L 318.50 170.50 L 318.16 160.50 C317.96,154.77 317.32,149.99 316.66,149.30 C315.78,148.38 292.10,147.92 218.75,147.39 L 122.00 146.68 L 122.00 158.34 C122.00,164.75 122.11,170.01 122.25,170.03 C122.39,170.05 133.52,170.48 147.00,171.00 C176.19,172.12 180.41,173.03 186.73,179.59 C189.05,182.01 191.87,185.78 192.98,187.96 C197.22,196.28 197.47,202.56 197.49,302.00 C197.50,401.52 197.08,412.57 193.12,418.00 C183.31,431.42 154.29,424.76 125.49,402.46 C116.75,395.70 106.98,385.73 102.02,378.54 C97.23,371.57 92.82,361.47 93.18,358.30 L 93.50 355.50 L 107.75 355.76 C115.81,355.90 122.00,355.62 122.00,355.11 C122.00,354.61 114.91,346.82 106.25,337.80 C89.19,320.03 82.45,312.10 73.37,299.09 C66.07,288.64 64.60,287.61 61.82,291.00 C58.30,295.30 50.94,310.93 47.50,321.43 C41.38,340.12 39.50,351.54 39.50,370.00 C39.50,385.82 40.29,394.06 41.80,393.94 C42.18,393.91 46.23,388.96 50.79,382.94 C55.36,376.93 59.41,372.01 59.79,372.02 C60.18,372.03 64.27,378.82 68.87,387.10 C87.76,421.06 103.25,435.66 142.50,456.50 C160.86,466.25 188.08,481.95 195.55,487.11 C199.43,489.79 206.41,495.13 211.05,498.99 C215.70,502.84 219.73,505.99 220.00,505.97 C220.27,505.96 224.10,502.79 228.50,498.92 ZM 230.15 131.66 C240.07,127.19 245.00,119.36 245.00,108.05 C245.00,100.20 242.48,93.48 237.77,88.77 C232.64,83.64 228.49,82.00 220.78,82.02 C210.29,82.06 201.08,87.93 195.51,98.14 C190.21,107.86 192.21,117.51 201.33,126.21 C210.82,135.27 218.78,136.77 230.15,131.66 ZM 213.08 491.83 C204.28,483.47 191.56,475.39 164.50,460.96 C123.16,438.92 111.45,431.29 97.65,417.40 C85.07,404.74 75.12,388.42 67.52,368.00 C65.99,363.88 64.44,360.17 64.08,359.77 C63.72,359.36 59.71,362.85 55.16,367.52 C44.47,378.48 43.51,378.52 44.33,367.93 C45.57,351.83 57.96,306.61 62.33,302.25 C64.52,300.05 66.03,301.37 74.88,313.27 C79.28,319.19 87.52,329.22 93.19,335.56 C98.86,341.90 103.65,347.51 103.83,348.04 C104.03,348.60 100.66,349.00 95.67,349.00 C90.99,349.00 86.45,349.27 85.58,349.61 C79.19,352.06 94.56,380.90 112.17,399.49 C129.79,418.11 157.09,431.32 178.00,431.36 C188.50,431.38 190.73,430.31 198.40,421.57 L 204.17 415.00 L 203.70 310.25 C203.20,200.30 202.99,194.95 198.65,184.66 C196.28,179.04 191.40,173.32 186.56,170.48 C181.26,167.37 176.19,166.47 153.25,164.51 C143.21,163.66 133.88,162.45 132.50,161.82 C129.65,160.52 129.18,157.53 131.68,156.57 C136.21,154.83 171.96,153.84 234.50,153.72 C308.18,153.58 309.47,153.66 308.82,158.24 C308.32,161.74 304.67,162.78 286.97,164.49 C266.40,166.48 259.70,167.63 254.01,170.13 C245.40,173.91 240.47,180.63 238.84,190.80 C238.14,195.16 237.61,236.49 237.33,309.12 L 236.89 420.75 L 243.02 425.36 C246.39,427.89 251.03,430.47 253.32,431.09 C261.62,433.34 272.97,430.68 293.94,421.58 C311.59,413.91 326.03,402.52 339.67,385.50 C346.48,377.00 356.45,358.19 357.58,351.69 L 358.25 347.88 L 347.12 348.58 C341.01,348.97 336.00,348.97 336.00,348.58 C336.00,346.80 338.90,342.86 345.98,335.00 C355.90,324.01 369.73,307.40 372.40,303.26 C373.56,301.48 374.95,300.16 375.50,300.33 C376.82,300.72 384.32,319.65 387.56,330.74 C393.20,350.07 395.92,371.69 392.95,373.53 C392.38,373.89 388.72,371.85 384.82,369.00 C380.92,366.16 377.17,363.62 376.48,363.35 C375.68,363.05 372.23,368.61 366.99,378.69 C345.69,419.58 336.47,428.04 278.80,459.62 C245.22,478.02 234.74,484.57 226.08,492.59 C222.86,495.57 220.07,497.98 219.87,497.97 C219.66,497.95 216.61,495.19 213.08,491.83 ZM 227.53 483.43 C238.74,475.60 252.70,467.28 281.96,451.00 C312.88,433.80 322.96,427.03 334.08,416.01 C343.15,407.01 349.46,398.11 360.67,378.47 C372.56,357.65 375.97,346.32 372.66,338.58 L 371.42 335.66 L 369.31 338.33 C368.15,339.81 365.52,345.40 363.45,350.76 C351.61,381.56 335.18,403.38 312.10,418.96 C303.89,424.50 289.13,431.39 279.81,434.03 C271.46,436.40 256.63,437.62 249.42,436.54 C245.04,435.88 243.82,435.07 237.71,428.70 L 230.89 421.59 L 231.30 309.54 C231.73,191.46 231.91,186.88 236.33,178.33 C238.39,174.34 244.73,168.73 251.48,164.92 C254.52,163.21 257.22,161.46 257.48,161.03 C258.75,158.98 198.29,158.67 184.65,160.65 L 180.79 161.21 L 185.65 163.99 C197.27,170.66 205.26,181.51 208.10,194.50 C209.58,201.24 210.49,369.52 209.20,397.05 C208.11,420.54 207.43,422.81 199.49,429.80 C193.47,435.10 187.64,437.00 177.45,437.00 C160.66,437.00 137.58,428.45 121.50,416.27 C100.55,400.40 86.47,379.92 77.04,351.62 C73.20,340.11 70.03,334.63 68.24,336.43 C65.10,339.59 72.11,364.80 81.38,383.63 C94.05,409.39 113.39,427.63 146.52,445.07 C184.55,465.08 199.58,474.07 211.50,483.93 C214.80,486.66 217.96,488.91 218.53,488.94 C219.09,488.97 223.14,486.49 227.53,483.43 ZM 57.53 358.60 C58.37,357.31 60.31,350.12 61.84,342.61 C65.72,323.54 67.29,322.48 75.38,333.49 C82.43,343.09 87.68,346.95 89.55,343.92 C91.08,341.45 68.21,312.62 65.17,313.20 C62.87,313.65 59.54,322.49 54.90,340.46 C51.18,354.89 50.27,360.94 51.63,362.30 C52.58,363.25 55.80,361.23 57.53,358.60 ZM 386.69 353.25 C386.00,344.31 379.86,318.96 377.53,315.40 C374.21,310.34 371.12,312.77 357.46,331.12 C353.36,336.63 350.00,341.79 350.00,342.57 C350.00,343.48 351.05,344.00 352.91,344.00 C355.96,344.00 361.52,338.67 368.25,329.31 C369.95,326.94 371.70,325.00 372.14,325.00 C372.58,325.00 375.03,331.64 377.59,339.75 C381.80,353.09 385.20,361.00 386.73,361.00 C387.04,361.00 387.03,357.51 386.69,353.25 ZM 212.77 126.94 C206.07,123.40 199.55,115.63 198.99,110.50 C198.50,106.04 199.17,103.97 202.94,98.33 C207.49,91.51 212.87,88.00 218.76,88.00 C226.46,88.00 234.07,92.74 237.10,99.42 C242.01,110.22 236.88,121.49 224.50,127.13 C219.46,129.43 217.42,129.40 212.77,126.94 ZM 225.57 118.54 C231.78,115.94 233.89,105.86 229.30,100.77 C221.20,91.83 207.00,96.43 207.00,108.00 C207.00,117.16 216.27,122.42 225.57,118.54 ZM 213.42 475.36 C203.74,467.77 195.24,462.58 175.86,452.43 C165.76,447.15 156.84,442.19 156.04,441.41 C151.67,437.21 167.57,442.74 185.03,451.51 C195.47,456.76 199.04,458.95 210.59,467.21 C215.04,470.40 219.25,473.00 219.95,473.00 C220.65,473.00 224.21,470.84 227.86,468.20 C237.85,460.97 245.43,456.62 261.20,449.06 C280.71,439.69 294.72,434.84 290.43,438.92 C289.92,439.41 280.05,444.65 268.50,450.56 C248.84,460.62 232.31,470.45 223.86,477.12 C221.85,478.71 220.02,480.00 219.78,480.00 C219.54,480.00 216.68,477.91 213.42,475.36 ZM 218.00 462.27 C217.18,461.95 213.89,459.93 210.69,457.77 C207.50,455.61 201.53,452.26 197.44,450.31 C193.35,448.37 190.01,446.49 190.02,446.14 C190.05,444.68 191.82,443.19 197.64,439.69 C204.84,435.35 210.33,429.62 211.82,424.88 C215.82,412.17 217.27,369.46 216.70,281.78 C216.11,191.88 215.63,186.48 207.11,173.29 C204.94,169.93 203.42,166.91 203.75,166.59 C204.53,165.80 225.52,165.84 231.36,166.64 C233.91,166.99 236.00,167.77 236.00,168.39 C236.00,169.00 234.58,170.85 232.83,172.49 C228.30,176.77 225.23,184.26 223.99,194.02 C221.06,217.07 222.00,413.02 225.07,422.00 C227.10,427.92 233.67,435.77 239.28,438.99 C242.15,440.63 245.20,441.99 246.06,441.99 C246.92,442.00 248.47,442.63 249.52,443.39 C251.08,444.53 251.20,445.05 250.17,446.29 C249.48,447.12 247.86,448.07 246.57,448.39 C244.21,448.99 237.52,452.65 226.56,459.36 C223.29,461.36 220.37,462.96 220.06,462.92 C219.75,462.88 218.82,462.58 218.00,462.27 ZM 228.88 452.00 C232.28,449.80 235.33,447.31 235.65,446.47 C236.03,445.48 234.31,442.90 230.83,439.22 C227.86,436.07 224.39,432.03 223.13,430.24 L 220.85 426.97 L 217.93 429.05 C213.62,432.12 204.00,443.83 204.00,446.00 C204.00,448.34 216.31,455.99 220.09,455.99 C221.52,456.00 225.47,454.20 228.88,452.00 ZM 222.61 177.38 C223.44,175.39 223.89,173.14 223.59,172.38 C222.98,170.79 215.46,170.44 214.52,171.96 C213.80,173.14 218.61,181.00 220.06,181.00 C220.63,181.00 221.78,179.37 222.61,177.38 ZM 217.21 446.81 C215.51,445.11 215.70,443.33 217.67,442.57 C219.75,441.77 221.30,443.23 220.84,445.56 C220.41,447.81 218.78,448.38 217.21,446.81 Z" fill="#C9A227"/>
</g>
</svg>