<svg xmlns="http://www.w3.org/2000/svg" width="180" height="167" viewBox="0 0 180 167">
<g>
<path d="M 74.27 157.04 C35.87,148.05 10.92,114.65 13.34,75.50 C14.04,64.13 16.03,56.61 21.02,46.50 C28.68,30.97 40.61,19.22 56.50,11.52 C69.14,5.39 78.30,3.59 93.42,4.26 C116.66,5.28 130.98,12.57 148.91,32.50 C155.08,39.36 161.84,52.74 164.57,63.50 C167.06,73.30 166.88,90.01 164.18,100.14 C158.61,121.00 142.02,141.53 123.50,150.49 C107.64,158.16 89.40,160.59 74.27,157.04 ZM 104.56 153.90 C107.82,153.30 111.37,152.34 112.44,151.77 C114.32,150.76 114.30,150.66 111.95,148.76 C109.76,146.98 108.56,146.86 99.51,147.47 C90.41,148.09 88.77,147.91 81.50,145.56 C70.52,142.02 63.25,141.30 59.25,143.37 C57.53,144.26 55.84,145.45 55.49,146.02 C54.66,147.36 64.81,151.84 72.50,153.53 C79.97,155.16 96.69,155.36 104.56,153.90 ZM 127.32 144.99 L 135.15 139.97 L 133.02 136.53 C128.50,129.22 127.75,126.96 128.43,122.67 C129.40,116.47 135.00,108.75 141.95,104.03 C148.19,99.79 150.00,97.56 150.00,94.07 C150.00,92.17 149.41,92.00 142.87,92.00 C133.64,92.00 130.09,89.93 126.41,82.40 C123.25,75.94 123.47,75.08 130.56,66.38 C134.97,60.95 135.15,60.49 134.50,56.14 C133.14,47.09 131.32,44.28 123.99,39.93 C115.74,35.02 114.08,33.27 113.34,28.68 C112.32,22.45 113.71,18.27 117.66,15.58 L 121.24 13.15 L 114.78 11.16 C104.36,7.94 97.06,6.85 88.06,7.19 L 79.63 7.50 L 79.88 13.67 C80.33,24.49 77.10,27.91 64.63,29.84 C60.85,30.43 57.01,31.59 56.09,32.42 C55.17,33.25 53.85,36.65 53.17,39.96 C51.62,47.48 49.92,48.14 40.37,44.96 L 33.65 42.72 L 31.71 45.11 C28.90,48.57 29.84,56.92 33.89,64.61 C36.57,69.69 37.00,71.54 37.00,78.04 L 37.00 85.58 L 41.59 89.41 C47.00,93.94 49.99,98.47 50.00,102.16 C50.00,103.62 48.65,107.67 47.00,111.16 C45.35,114.65 44.00,119.11 44.00,121.08 C44.00,123.05 42.89,126.85 41.54,129.52 C38.72,135.09 38.74,135.15 46.30,141.14 L 51.10 144.94 L 55.09 142.05 C61.24,137.59 65.17,137.38 77.68,140.83 C93.15,145.09 92.72,145.03 100.71,143.84 C108.89,142.62 112.17,143.42 116.08,147.58 C117.33,148.91 118.61,150.00 118.92,150.00 C119.24,150.00 123.02,147.74 127.32,144.99 ZM 148.48 125.50 C154.09,117.65 158.29,109.14 161.03,100.14 C163.51,91.95 163.08,90.67 157.98,91.18 C155.07,91.46 154.57,91.98 153.43,95.86 C151.93,100.95 148.94,104.46 143.88,107.05 C137.67,110.24 131.87,118.52 131.70,124.44 C131.65,126.46 132.79,129.29 134.91,132.38 L 138.21 137.17 L 141.21 134.34 C142.86,132.78 146.13,128.80 148.48,125.50 ZM 37.95 130.56 C38.60,129.77 39.77,125.55 40.53,121.17 C41.29,116.79 43.13,110.73 44.62,107.70 C47.05,102.76 47.19,101.88 46.05,99.12 C45.35,97.43 42.62,94.40 39.99,92.39 C33.95,87.79 32.81,85.36 33.90,79.48 C34.67,75.40 34.40,74.19 31.26,67.72 C28.82,62.70 27.41,57.93 26.61,52.05 L 25.45 43.60 L 22.59 49.98 C18.44,59.23 17.03,65.21 16.34,76.52 C15.64,87.86 17.44,99.21 21.53,109.27 C24.04,115.45 34.54,132.00 35.94,132.00 C36.39,132.00 37.29,131.35 37.95,130.56 ZM 154.75 87.43 L 164.00 86.79 L 164.00 82.52 C164.00,69.63 158.39,50.98 151.26,40.16 C146.57,33.04 134.74,21.19 129.49,18.33 C125.91,16.38 125.17,16.30 122.33,17.50 C117.57,19.51 115.47,23.28 116.59,27.81 C117.35,30.88 118.73,32.32 124.92,36.49 C129.00,39.25 133.20,42.66 134.24,44.08 C136.56,47.24 137.94,52.91 137.98,59.40 C138.00,63.94 137.62,64.71 132.89,69.71 C128.35,74.51 127.85,75.48 128.40,78.26 C129.79,85.20 135.32,89.37 142.00,88.53 C143.93,88.28 149.66,87.79 154.75,87.43 ZM 49.81 40.00 C50.91,30.97 54.77,27.17 63.76,26.29 C70.29,25.65 74.47,23.85 75.97,21.06 C77.42,18.34 77.25,11.72 75.66,9.56 C74.38,7.80 74.13,7.79 68.91,9.50 C61.85,11.82 54.90,15.33 47.63,20.25 C41.40,24.48 30.89,34.47 29.04,37.92 C27.99,39.89 28.19,40.00 32.71,40.08 C35.35,40.12 39.30,40.76 41.50,41.49 C47.21,43.40 49.44,43.00 49.81,40.00 ZM 73.48 151.53 C66.10,149.92 60.00,147.45 60.00,146.07 C60.00,144.13 65.05,143.77 70.78,145.29 C73.93,146.12 80.09,147.76 84.49,148.92 C91.45,150.77 93.42,150.91 99.81,150.02 C109.38,148.69 110.70,148.70 109.30,150.10 C108.24,151.16 91.64,152.95 83.50,152.88 C81.30,152.86 76.79,152.25 73.48,151.53 ZM 81.97 150.55 C78.98,148.91 68.00,145.97 65.36,146.08 C62.51,146.21 69.30,148.90 76.38,150.46 C84.30,152.19 85.03,152.21 81.97,150.55 ZM 114.75 143.72 C109.68,140.51 108.16,140.31 97.94,141.49 C92.28,142.15 90.10,141.87 81.94,139.44 C69.44,135.71 60.21,135.53 54.32,138.90 L 50.15 141.29 L 46.09 138.07 C42.09,134.90 42.05,134.80 43.52,131.96 C44.34,130.38 45.68,125.90 46.50,122.02 C47.31,118.13 48.85,113.26 49.91,111.18 C52.55,105.99 53.34,101.02 52.05,97.62 C51.45,96.05 48.35,92.23 45.17,89.13 L 39.37 83.50 L 40.30 78.73 C41.16,74.26 40.96,73.40 37.11,65.50 C33.95,59.00 33.00,55.87 33.00,51.99 C33.00,48.81 33.47,46.76 34.28,46.45 C34.98,46.18 38.20,46.87 41.44,47.98 C44.67,49.09 47.85,50.00 48.51,50.00 C51.34,50.00 54.83,45.15 55.97,39.64 C57.31,33.19 58.75,32.00 65.22,32.00 C70.50,32.00 77.59,28.59 80.44,24.68 C82.01,22.52 82.50,20.33 82.50,15.43 L 82.50 9.00 L 89.00 9.00 C95.72,9.00 111.59,11.51 113.92,12.95 C114.96,13.59 114.79,14.36 113.13,16.63 C111.97,18.21 110.76,21.52 110.44,24.00 C109.54,31.07 112.82,36.30 121.35,41.43 C129.16,46.13 131.00,48.86 131.72,56.90 C132.18,62.09 132.01,62.69 129.36,65.09 C127.79,66.51 125.03,69.32 123.23,71.34 L 119.95 75.00 L 102.48 75.00 L 85.00 75.00 L 85.00 70.50 L 85.00 66.00 L 72.50 66.00 L 60.00 66.00 L 60.00 70.03 C60.00,72.96 59.52,74.24 58.25,74.71 C57.29,75.06 56.20,75.81 55.83,76.36 C54.99,77.62 60.26,88.23 64.21,93.25 L 67.17 97.00 L 87.36 97.00 L 107.55 97.00 L 114.91 89.59 L 122.26 82.19 L 125.40 86.34 C129.22,91.42 135.94,95.00 141.65,95.00 C143.98,95.00 146.15,95.43 146.48,95.96 C146.80,96.49 144.42,98.85 141.18,101.21 C134.17,106.32 130.69,110.27 128.02,116.15 C125.45,121.81 125.47,128.28 128.08,133.66 C129.22,136.02 130.01,138.66 129.83,139.53 C129.65,140.40 127.25,142.38 124.50,143.92 L 119.50 146.73 L 114.75 143.72 ZM 127.72 140.25 C128.64,139.62 128.33,138.22 126.47,134.54 C125.11,131.86 124.00,128.02 124.00,126.01 C124.00,117.16 130.75,105.94 139.23,100.66 L 144.32 97.50 L 139.81 96.85 C133.91,96.01 129.76,93.78 125.06,88.94 L 121.22 84.98 L 115.01 91.99 L 108.79 99.00 L 89.55 99.00 C78.49,99.00 69.00,98.55 67.24,97.93 C64.04,96.82 61.03,92.93 56.62,84.23 C53.46,78.01 53.27,74.46 56.00,73.00 C57.29,72.31 58.00,70.91 58.00,69.04 C58.00,63.83 59.93,63.00 72.07,63.00 C84.38,63.00 87.00,64.23 87.00,70.00 L 87.00 73.00 L 103.38 73.00 L 119.77 73.00 L 121.52 70.34 C122.48,68.87 124.78,66.16 126.63,64.30 C129.39,61.54 130.00,60.17 130.00,56.72 C129.99,50.68 127.25,46.97 119.31,42.25 C113.72,38.93 111.98,37.29 110.43,33.84 C108.08,28.63 108.03,21.13 110.32,17.63 C111.24,16.22 112.00,14.88 112.00,14.65 C112.00,13.68 101.86,11.80 93.82,11.28 L 85.14 10.71 L 84.57 14.36 C84.26,16.36 83.75,19.58 83.45,21.51 C82.85,25.36 77.50,31.48 73.34,33.06 C71.98,33.58 68.48,34.00 65.56,34.00 C59.55,34.00 58.57,34.79 57.54,40.47 C55.73,50.52 51.55,53.05 41.79,50.01 C38.41,48.96 35.28,48.33 34.82,48.61 C33.04,49.71 34.19,54.72 38.22,63.41 C41.73,70.97 42.41,73.40 42.23,77.84 C42.03,82.83 42.25,83.39 45.60,86.34 C49.74,89.98 53.51,96.09 54.47,100.68 C54.96,103.05 54.38,105.63 52.21,110.68 C50.61,114.43 48.49,121.47 47.50,126.33 C45.76,134.94 45.76,135.20 47.61,137.06 C49.49,138.93 49.63,138.92 55.95,136.36 C63.66,133.25 66.94,133.45 83.11,138.03 C93.99,141.11 94.16,141.13 100.31,139.59 C107.50,137.78 112.28,138.61 116.73,142.45 C119.46,144.79 119.48,144.80 122.98,142.94 C124.92,141.92 127.05,140.70 127.72,140.25 ZM 62.64 86.26 C58.49,79.22 58.25,78.45 59.94,77.83 C61.26,77.34 61.99,75.69 62.49,72.07 L 63.19 67.00 L 71.89 67.00 C77.33,67.00 81.05,67.45 81.80,68.20 C82.46,68.86 83.00,71.33 83.00,73.70 L 83.00 78.00 L 100.25 78.02 C109.74,78.02 118.02,78.36 118.65,78.77 C119.40,79.25 117.70,81.98 113.67,86.75 L 107.55 94.00 L 87.38 94.00 L 67.21 94.00 L 62.64 86.26 ZM 110.00 86.00 L 114.19 81.00 L 88.59 81.00 L 62.98 81.00 L 66.24 85.98 L 69.50 90.96 L 87.66 90.98 L 105.81 91.00 L 110.00 86.00 ZM 79.00 74.00 L 79.00 70.00 L 72.50 70.00 L 66.00 70.00 L 66.00 74.00 L 66.00 78.00 L 72.50 78.00 L 79.00 78.00 L 79.00 74.00 ZM 135.85 128.62 C134.53,125.92 133.95,123.33 134.32,121.85 C135.21,118.33 141.64,111.23 146.91,107.95 C150.24,105.88 152.32,103.52 154.50,99.36 C158.20,92.29 160.61,90.95 159.56,96.54 C158.61,101.60 153.59,114.11 150.64,118.76 C146.93,124.61 140.06,133.00 138.96,133.00 C138.42,133.00 137.02,131.03 135.85,128.62 ZM 142.10 127.75 C146.61,122.45 153.20,110.77 155.51,103.98 C158.62,94.83 158.59,94.18 155.34,100.50 C152.37,106.29 149.23,110.00 147.30,110.00 C145.16,110.00 137.38,118.34 136.60,121.47 C135.84,124.47 137.54,130.00 139.21,130.00 C139.74,130.00 141.04,128.99 142.10,127.75 ZM 30.74 121.25 C22.64,108.87 18.04,94.30 18.03,81.00 C18.03,73.84 21.30,56.30 22.95,54.65 C23.68,53.92 24.00,54.04 24.01,55.05 C24.02,55.85 25.63,60.10 27.59,64.50 C30.72,71.51 31.15,73.45 31.08,80.13 L 31.00 87.76 L 36.36 92.34 C43.98,98.85 44.76,101.25 41.66,108.62 C40.30,111.85 38.89,116.75 38.51,119.50 C37.62,126.06 37.05,128.00 36.01,128.00 C35.54,128.00 33.17,124.96 30.74,121.25 ZM 39.57 108.41 C40.98,104.89 41.88,101.19 41.56,100.19 C41.24,99.19 39.19,97.05 37.00,95.44 C31.54,91.42 29.05,86.02 29.17,78.50 C29.25,73.77 28.63,71.12 26.24,66.01 L 23.21 59.51 L 21.96 64.01 C21.27,66.48 20.66,73.90 20.60,80.50 C20.52,90.49 20.89,93.75 22.85,99.97 C25.36,107.99 28.64,114.99 32.87,121.37 L 35.49 125.35 L 36.25 120.08 C36.67,117.19 38.16,111.93 39.57,108.41 ZM 133.37 82.43 C131.52,80.46 130.00,78.28 130.00,77.58 C130.00,76.88 132.23,73.76 134.96,70.65 C140.62,64.18 141.70,60.48 140.10,53.04 C137.91,42.83 134.10,38.04 124.21,33.07 C119.42,30.67 116.99,26.82 118.63,24.22 C119.19,23.33 120.87,21.69 122.35,20.59 C125.02,18.59 125.09,18.59 128.60,20.48 C130.55,21.54 135.61,25.80 139.84,29.97 C152.04,41.97 159.53,58.53 160.70,76.09 L 161.28 84.68 L 152.89 85.34 C137.82,86.51 137.12,86.40 133.37,82.43 ZM 152.75 83.42 L 159.00 82.74 L 159.00 77.56 C159.00,70.85 155.52,57.12 151.88,49.50 C147.41,40.13 129.67,21.00 125.44,21.00 C123.93,21.00 120.00,24.45 120.00,25.78 C120.00,27.77 123.57,31.25 127.82,33.43 C137.38,38.31 142.00,46.02 142.00,57.06 C142.00,64.56 140.81,67.55 135.76,72.72 C131.84,76.74 131.70,77.08 133.03,79.55 C134.96,83.17 138.82,85.10 143.00,84.56 C144.93,84.31 149.31,83.80 152.75,83.42 ZM 42.50 39.41 C40.85,38.68 38.34,38.07 36.92,38.05 C33.08,37.98 32.82,37.10 35.56,33.51 C41.40,25.85 62.78,12.38 70.03,11.78 C73.42,11.51 73.51,11.60 73.79,15.50 C74.24,21.55 72.56,23.06 64.38,23.96 C60.53,24.38 56.43,25.24 55.27,25.86 C52.12,27.54 49.13,31.77 48.42,35.57 C47.57,40.09 46.16,41.01 42.50,39.41 ZM 46.46 35.20 C48.19,27.29 55.17,22.06 64.06,22.02 C69.35,22.00 71.63,20.59 72.55,16.76 C73.62,12.33 70.87,12.33 61.73,16.74 C53.53,20.70 43.63,27.54 39.13,32.34 L 36.77 34.88 L 40.63 36.76 C45.19,38.99 45.65,38.86 46.46,35.20 ZM 114.00 138.35 C107.92,136.00 107.03,135.91 100.00,136.93 C92.93,137.96 91.90,137.85 82.00,135.01 C70.32,131.66 61.93,131.17 56.35,133.50 C52.44,135.13 49.37,135.43 48.68,134.25 C47.99,133.09 52.53,116.03 54.87,111.00 C58.80,102.53 56.75,93.56 49.18,86.06 C45.71,82.62 45.25,81.57 44.71,75.83 C44.28,71.23 42.94,66.97 39.92,60.69 C37.61,55.88 35.94,51.73 36.21,51.46 C36.47,51.20 38.61,51.66 40.97,52.49 C50.77,55.95 56.60,53.00 59.76,43.00 C61.44,37.69 61.64,37.49 65.35,37.18 C69.19,36.87 69.20,36.88 67.60,39.16 C63.98,44.32 66.46,51.88 73.49,57.12 L 77.02 59.75 L 68.54 60.19 C59.15,60.69 56.59,62.04 55.48,67.09 C54.62,71.01 53.00,71.78 53.00,68.28 C53.00,62.35 58.94,58.00 67.05,58.00 L 71.16 58.00 L 67.58 53.82 C63.83,49.44 63.71,49.07 63.98,42.25 C64.08,39.91 63.92,38.00 63.65,38.00 C63.37,38.00 62.44,40.40 61.59,43.34 C58.65,53.44 52.96,57.22 43.65,55.23 C41.09,54.69 39.00,54.62 39.00,55.07 C39.00,55.53 40.80,59.32 43.00,63.50 C46.19,69.56 47.00,72.15 47.00,76.34 C47.00,81.19 47.32,81.90 51.13,85.55 L 55.27 89.50 L 52.63 84.91 C51.18,82.39 50.00,79.33 50.00,78.12 C50.00,76.81 51.76,79.34 54.36,84.38 C56.75,89.04 60.16,94.68 61.94,96.92 L 65.17 101.00 L 80.33 101.06 C92.50,101.11 95.12,101.35 93.56,102.31 C92.50,102.96 90.65,104.51 89.45,105.75 C87.54,107.72 86.26,108.00 79.06,108.00 C71.32,108.00 70.68,108.17 67.92,110.92 C64.80,114.04 64.29,116.79 66.16,120.32 C68.26,124.26 70.17,124.94 79.30,124.97 C87.24,125.00 88.32,125.23 90.51,127.42 C91.84,128.75 93.94,130.55 95.18,131.42 L 97.45 133.00 L 94.27 133.00 C90.10,133.00 80.76,131.03 79.55,129.89 C78.15,128.57 80.96,128.78 86.34,130.40 C91.14,131.85 92.25,131.28 89.35,128.87 C88.34,128.03 84.08,127.29 78.34,126.96 C69.82,126.48 68.72,126.18 66.24,123.69 C64.05,121.51 63.50,120.03 63.50,116.40 C63.50,112.51 63.98,111.41 66.77,108.92 C69.39,106.57 70.96,106.00 74.77,105.99 C77.37,105.98 81.19,105.70 83.25,105.36 C90.28,104.20 87.02,103.00 76.75,102.96 C65.04,102.92 62.88,102.11 59.25,96.39 C57.90,94.25 57.12,93.40 57.52,94.50 C59.63,100.32 59.24,105.81 56.24,112.66 C53.26,119.45 50.35,131.68 51.45,132.78 C51.77,133.10 53.61,132.60 55.55,131.68 C60.90,129.13 70.37,129.51 80.20,132.67 C87.50,135.02 89.90,135.32 100.05,135.13 C109.80,134.94 112.36,135.22 116.39,136.95 C119.02,138.08 121.53,139.00 121.97,139.00 C122.41,139.00 121.86,136.03 120.75,132.39 C118.99,126.62 118.88,125.11 119.91,120.52 C121.12,115.11 125.33,107.50 129.65,102.90 L 132.09 100.29 L 129.30 98.52 C127.76,97.54 125.38,95.71 124.00,94.46 L 121.50 92.18 L 115.09 98.11 L 108.69 104.04 L 111.84 108.43 C115.93,114.13 116.00,118.33 112.07,123.75 C110.45,125.98 108.58,128.14 107.90,128.56 C107.12,129.05 108.28,129.80 111.04,130.62 C115.88,132.05 117.48,131.56 114.68,129.51 C112.93,128.23 112.94,128.03 114.89,124.34 L 116.91 120.50 L 116.97 124.00 C117.00,125.93 117.30,129.20 117.65,131.28 L 118.27 135.05 L 115.39 133.92 C113.80,133.30 110.29,132.50 107.58,132.14 L 102.66 131.50 L 107.73 125.71 C114.33,118.17 114.88,115.88 111.35,110.78 C109.84,108.60 107.00,105.48 105.05,103.84 C102.26,101.49 101.93,100.90 103.50,101.04 C108.38,101.50 110.07,100.66 115.55,95.04 L 121.36 89.07 L 125.69 93.06 C128.07,95.26 131.15,97.49 132.53,98.01 L 135.05 98.97 L 130.36 104.72 C121.85,115.17 119.65,123.08 122.73,132.21 C124.65,137.87 124.27,141.08 121.70,140.93 C121.04,140.89 117.58,139.73 114.00,138.35 ZM 55.11 124.46 C55.57,121.96 57.31,117.13 58.98,113.73 C60.64,110.32 62.00,106.96 62.00,106.26 C62.00,105.57 62.91,105.00 64.03,105.00 C66.02,105.00 66.01,105.07 63.78,108.08 C62.07,110.40 61.50,112.51 61.50,116.58 C61.50,122.26 60.65,123.55 59.39,119.75 L 58.65 117.50 L 57.92 120.00 C56.33,125.49 56.70,126.28 60.52,125.56 C66.12,124.51 66.86,126.18 61.41,127.62 C54.07,129.55 54.15,129.59 55.11,124.46 ZM 92.84 126.00 C89.85,123.14 89.31,123.00 80.99,123.00 C73.68,123.00 71.84,122.66 69.63,120.93 C66.34,118.34 66.29,115.62 69.45,112.45 C71.71,110.20 72.66,110.00 81.27,110.00 C90.50,110.00 90.65,109.96 92.84,107.00 C94.54,104.70 95.84,104.00 98.44,104.00 C101.23,104.00 102.60,104.88 106.41,109.11 C108.93,111.92 111.00,115.00 111.00,115.96 C111.00,118.57 105.45,125.71 102.07,127.46 C97.87,129.64 96.41,129.41 92.84,126.00 ZM 101.59 125.50 C103.39,124.13 105.84,121.63 107.03,119.96 C108.94,117.28 109.05,116.55 107.97,113.93 C106.26,109.79 101.44,106.00 97.90,106.00 C95.42,106.00 94.85,106.48 94.35,109.00 L 93.75 112.00 L 84.12 112.01 C73.56,112.03 69.68,113.26 69.18,116.77 C68.72,119.98 72.30,121.00 84.07,121.00 C93.21,121.00 94.00,121.15 94.00,122.93 C94.00,124.73 96.41,128.00 97.73,128.00 C98.05,128.00 99.78,126.88 101.59,125.50 ZM 115.99 109.75 C113.28,105.31 113.47,103.90 117.30,100.20 C121.15,96.46 121.43,96.41 124.57,98.88 L 126.96 100.75 L 123.00 106.88 C120.82,110.24 118.80,113.00 118.51,113.00 C118.21,113.00 117.08,111.54 115.99,109.75 ZM 121.47 106.05 C124.50,100.20 122.76,97.58 118.36,101.37 C115.85,103.52 115.69,104.03 116.76,106.38 C118.31,109.78 119.59,109.69 121.47,106.05 ZM 46.33 64.43 L 43.16 58.00 L 47.11 58.00 C51.45,58.00 57.40,55.86 60.27,53.25 C61.87,51.81 62.25,51.78 63.05,53.04 C64.42,55.21 64.20,56.00 62.25,56.01 C61.29,56.02 58.55,57.14 56.16,58.51 C53.19,60.20 51.02,60.79 49.32,60.37 L 46.83 59.74 L 48.91 63.83 C51.03,67.98 51.61,71.06 50.25,70.93 C49.84,70.89 48.07,67.97 46.33,64.43 ZM 89.67 70.33 C89.30,69.97 89.00,68.70 89.00,67.51 C89.00,65.13 85.20,61.02 82.94,60.96 C82.15,60.94 82.77,60.23 84.32,59.39 C85.87,58.55 88.00,57.00 89.07,55.93 C90.47,54.53 92.44,53.99 96.25,53.96 C104.32,53.89 110.23,52.44 112.17,50.04 C113.66,48.19 114.24,48.05 116.21,49.07 C117.47,49.72 119.52,51.18 120.76,52.31 C123.53,54.83 123.05,56.91 118.31,62.75 L 114.87 67.00 L 107.68 66.99 C103.73,66.98 98.81,66.70 96.75,66.36 C93.19,65.77 93.00,65.54 93.00,61.99 L 93.00 58.25 L 101.25 57.80 C105.83,57.55 110.83,56.67 112.50,55.81 C118.29,52.84 120.02,56.12 114.92,60.41 C112.31,62.61 110.92,62.99 105.67,62.92 L 99.50 62.84 L 105.67 61.50 C112.45,60.03 116.00,58.46 116.00,56.94 C116.00,56.39 114.67,56.64 113.05,57.47 C111.24,58.41 107.43,59.00 103.17,59.00 C95.52,59.00 92.60,60.61 95.00,63.50 C95.94,64.63 98.48,65.00 105.37,65.00 C114.48,65.00 114.50,64.99 117.11,61.73 C121.25,56.54 121.55,54.41 118.42,52.36 C115.84,50.66 115.61,50.68 111.92,52.80 C109.04,54.46 106.48,55.00 101.50,55.00 C94.75,55.00 89.71,56.71 88.69,59.36 C88.39,60.14 89.06,62.63 90.18,64.89 L 92.21 69.00 L 104.12 69.00 L 116.03 69.00 L 120.99 63.75 C123.73,60.86 125.97,57.92 125.98,57.22 C126.03,54.08 122.93,48.92 120.42,47.97 C118.94,47.41 116.49,46.06 114.97,44.98 C111.31,42.37 110.18,42.48 110.73,45.38 C111.52,49.50 107.93,51.00 97.26,51.00 C88.38,51.00 87.91,51.11 86.85,53.43 C86.24,54.77 84.44,56.40 82.86,57.06 C80.31,58.12 79.52,57.95 75.95,55.59 C71.80,52.84 68.01,47.73 68.00,44.88 C68.00,42.48 71.57,38.38 77.46,34.03 C83.35,29.68 86.11,24.87 86.80,17.75 L 87.25 13.00 L 91.38 13.10 C93.64,13.15 97.97,13.71 101.00,14.35 L 106.50 15.50 L 106.20 23.50 C105.94,30.55 106.19,31.98 108.36,35.50 C109.80,37.84 113.85,41.60 118.15,44.58 C124.66,49.09 125.62,50.17 126.80,54.34 L 128.12 59.02 L 122.81 64.99 L 117.50 70.95 L 103.92 70.98 C96.45,70.99 90.03,70.70 89.67,70.33 ZM 85.00 51.92 L 85.00 49.07 L 96.25 48.78 L 107.50 48.50 L 107.81 44.11 C108.02,41.29 107.39,38.01 106.06,34.93 C104.68,31.71 104.00,27.98 104.00,23.62 C104.00,20.05 103.66,16.91 103.25,16.66 C102.84,16.41 99.57,15.89 96.00,15.51 L 89.49 14.82 L 88.35 20.66 C87.72,23.87 86.89,27.29 86.50,28.25 C86.11,29.21 86.19,30.00 86.68,30.00 C87.94,30.00 91.00,24.55 91.00,22.30 C91.00,19.54 92.97,18.00 96.50,18.00 C100.73,18.00 102.00,19.60 102.00,24.96 C102.00,27.46 102.42,30.97 102.93,32.76 L 103.86 36.00 L 97.48 36.00 C91.59,36.00 90.87,35.75 88.10,32.79 C86.45,31.02 84.78,29.89 84.39,30.28 C84.00,30.67 84.43,31.81 85.34,32.82 C86.25,33.83 87.00,35.63 87.00,36.83 C87.00,38.90 87.42,39.00 96.44,39.00 C101.87,39.00 106.15,39.44 106.52,40.03 C106.95,40.73 103.61,40.98 96.34,40.78 L 85.52 40.50 L 85.00 37.50 C84.26,33.20 81.33,33.20 75.71,37.50 C69.76,42.04 68.93,44.91 72.32,49.35 C77.32,55.91 85.00,57.46 85.00,51.92 ZM 100.61 32.42 C100.27,31.55 100.00,28.37 100.00,25.35 L 100.00 19.87 L 96.79 20.19 C94.12,20.45 93.47,21.01 92.96,23.50 C92.62,25.15 91.70,27.54 90.92,28.81 C89.65,30.89 89.70,31.27 91.44,32.56 C92.51,33.35 95.14,34.00 97.30,34.00 C100.46,34.00 101.10,33.69 100.61,32.42 ZM 138.49 125.99 C137.02,123.60 147.66,110.33 149.54,112.21 C149.78,112.44 148.33,114.98 146.33,117.83 C142.56,123.23 140.57,124.30 143.54,119.34 L 145.24 116.50 L 143.14 119.00 C141.99,120.38 141.03,122.49 141.02,123.69 C141.00,126.17 139.47,127.56 138.49,125.99 ZM 29.48 110.54 C27.50,106.18 25.23,100.13 24.44,97.10 C22.86,91.04 22.42,68.00 23.88,68.00 C25.81,68.00 27.26,74.12 26.62,79.56 C25.80,86.58 27.35,89.87 34.63,96.52 L 40.12 101.53 L 37.57 107.02 C36.17,110.03 35.01,113.18 34.99,114.00 C34.98,114.82 34.55,116.17 34.03,116.98 C33.32,118.11 32.23,116.56 29.48,110.54 ZM 37.08 104.40 C38.01,103.29 37.02,101.83 32.12,97.11 C28.75,93.87 26.00,90.52 26.00,89.67 C26.00,88.82 25.61,87.88 25.14,87.59 C23.46,86.55 26.89,100.47 30.26,108.35 L 32.33 113.19 L 34.13 109.49 C35.12,107.46 36.45,105.17 37.08,104.40 ZM 25.22 77.96 C25.47,76.28 25.29,74.68 24.83,74.40 C24.37,74.11 24.00,75.48 24.00,77.44 C24.00,81.80 24.62,82.06 25.22,77.96 ZM 136.25 80.89 C134.23,78.80 134.79,76.57 138.13,73.44 C144.69,67.27 146.34,59.56 143.46,48.50 C141.45,40.79 138.46,37.03 129.74,31.24 C122.13,26.19 121.10,24.70 124.83,24.17 C126.65,23.91 129.11,25.81 135.96,32.74 C146.63,43.54 149.21,47.49 152.95,58.77 C156.57,69.69 157.73,78.15 155.82,79.73 C153.67,81.52 137.77,82.47 136.25,80.89 ZM 154.00 78.50 C155.54,77.55 155.20,73.17 152.93,65.00 C150.82,57.38 145.05,42.62 144.43,43.24 C144.24,43.43 144.78,46.27 145.64,49.54 C148.17,59.18 146.30,67.73 140.26,74.19 C138.64,75.92 137.97,77.49 138.39,78.58 C138.95,80.04 140.04,80.20 146.03,79.70 C149.86,79.38 153.45,78.84 154.00,78.50 ZM 128.50 27.53 C124.58,24.32 122.66,24.32 126.31,27.53 C127.85,28.89 129.65,30.00 130.31,30.00 C130.96,29.99 130.15,28.88 128.50,27.53 ZM 41.91 33.17 C43.12,30.90 46.00,28.43 46.00,29.66 C46.00,30.15 45.30,31.56 44.44,32.78 C42.53,35.51 40.49,35.83 41.91,33.17 ZM 64.46 18.08 C66.64,17.02 68.82,16.39 69.30,16.69 C70.85,17.65 68.44,19.06 64.41,19.55 L 60.50 20.02 L 64.46 18.08 ZM 96.54 124.06 C96.22,123.54 96.93,122.22 98.11,121.11 L 100.26 119.10 L 97.88 118.55 C96.57,118.24 90.44,117.88 84.25,117.75 C68.38,117.40 69.31,115.62 85.67,115.00 C92.91,114.72 99.21,114.13 99.67,113.67 C100.12,113.21 99.71,112.26 98.75,111.56 C96.83,110.15 96.40,108.00 98.04,108.00 C98.61,108.00 100.97,109.77 103.29,111.94 L 107.50 115.88 L 103.04 120.44 C98.43,125.15 97.53,125.66 96.54,124.06 ZM 119.00 104.00 C119.00,103.45 119.48,103.00 120.06,103.00 C120.64,103.00 120.84,103.45 120.50,104.00 C120.16,104.55 119.68,105.00 119.44,105.00 C119.20,105.00 119.00,104.55 119.00,104.00 ZM 76.68 49.48 C74.10,47.52 72.00,45.51 72.00,45.03 C72.00,43.72 80.15,37.00 81.74,37.00 C83.21,37.00 82.74,38.29 80.19,41.25 C78.77,42.90 79.40,43.00 91.60,43.02 C103.78,43.03 108.47,43.87 106.64,45.70 C106.20,46.14 100.13,46.65 93.17,46.84 C86.20,47.03 80.07,47.59 79.55,48.09 C78.97,48.65 79.45,49.00 80.80,49.00 C83.13,49.00 83.48,49.70 82.16,51.77 C81.56,52.73 80.17,52.15 76.68,49.48 ZM 92.00 31.12 C92.00,30.64 92.68,29.68 93.50,29.00 C94.32,28.32 95.00,26.69 95.00,25.38 C95.00,24.07 95.43,23.00 95.95,23.00 C97.14,23.00 98.44,29.48 97.54,30.94 C96.75,32.21 92.00,32.37 92.00,31.12 ZM 31.00 104.56 C31.00,103.22 30.55,101.84 30.00,101.50 C28.72,100.71 28.70,99.00 29.98,99.00 C31.60,99.00 34.09,103.60 33.42,105.36 C32.47,107.82 31.00,107.33 31.00,104.56 ZM 143.41 74.35 C144.83,72.26 146.73,68.31 147.64,65.57 C149.14,61.06 149.38,60.80 150.15,62.88 C151.50,66.52 152.33,75.68 151.37,76.24 C150.89,76.52 148.32,77.06 145.66,77.45 L 140.83 78.15 L 143.41 74.35 ZM 149.82 72.14 C150.21,68.13 148.66,68.67 147.13,73.07 C146.19,75.75 146.27,76.09 147.78,75.81 C148.91,75.59 149.61,74.35 149.82,72.14 Z" fill="rgba(0,0,0,1)"/>
</g>
</svg>