<svg xmlns="http://www.w3.org/2000/svg" width="207" height="140" viewBox="0 0 207 140">
<g>
<path d="M 160.03 128.79 C160.01,128.41 161.19,123.95 162.64,118.88 C165.70,108.23 165.44,107.65 157.11,106.37 C145.73,104.62 106.59,108.55 76.15,114.50 C68.81,115.94 62.06,116.94 61.15,116.73 C58.81,116.19 76.61,110.73 96.00,106.05 C123.75,99.35 139.76,96.82 155.37,96.65 L 169.24 96.50 L 171.21 91.50 C174.67,82.72 180.00,62.97 180.00,58.94 C180.00,56.03 179.25,54.19 177.08,51.77 C174.19,48.53 174.08,48.50 165.33,48.58 C155.67,48.66 148.70,50.24 134.00,55.69 C121.04,60.49 87.37,77.13 82.71,81.03 C80.63,82.78 77.61,86.82 76.00,90.01 L 73.07 95.80 L 62.79 96.48 C57.13,96.85 49.38,97.01 45.57,96.83 L 38.65 96.50 L 53.46 89.22 L 68.27 81.93 L 67.58 73.72 C66.63,62.40 65.65,58.42 63.92,58.87 C60.05,59.88 59.50,59.48 59.20,55.45 C58.73,48.97 61.05,47.57 73.02,47.16 L 82.83 46.82 L 84.48 40.06 C86.76,30.77 86.27,25.78 83.00,24.93 C81.19,24.46 80.91,24.11 82.00,23.69 C86.31,21.99 89.00,22.62 89.00,25.32 C89.00,26.60 90.12,31.41 91.50,36.00 C94.07,44.58 94.71,49.16 93.11,47.45 C92.62,46.93 91.42,43.80 90.45,40.50 L 88.68 34.50 L 87.42 38.50 C84.61,47.38 84.57,47.34 97.75,50.35 C104.21,51.82 110.23,53.02 111.13,53.01 C112.02,53.01 117.08,50.99 122.37,48.53 C127.67,46.08 135.39,42.86 139.53,41.39 C143.68,39.92 146.92,38.27 146.74,37.73 C146.31,36.44 134.35,31.72 124.38,28.90 C115.29,26.33 113.10,24.99 118.05,25.02 C122.52,25.05 135.76,27.99 149.55,32.03 C158.36,34.60 163.14,35.36 174.00,35.91 C181.46,36.29 188.50,37.15 189.74,37.83 C194.00,40.17 195.30,44.49 194.76,54.44 C194.36,61.74 193.55,65.35 190.58,73.00 C186.50,83.49 175.73,105.49 169.16,116.74 C165.11,123.66 160.10,130.28 160.03,128.79 ZM 178.58 93.61 C191.47,67.12 195.69,50.89 191.71,43.00 C190.05,39.70 184.11,38.18 172.44,38.08 C166.76,38.03 160.46,37.24 155.57,35.95 C147.39,33.81 144.78,33.84 150.01,36.00 C151.69,36.70 152.91,37.76 152.72,38.34 C152.52,38.93 146.32,41.71 138.93,44.52 C131.54,47.33 122.41,51.06 118.62,52.81 C111.75,55.99 111.74,55.99 105.98,54.49 C98.26,52.49 97.29,52.56 99.43,54.93 C101.48,57.19 101.20,59.84 98.75,61.39 C96.18,63.00 93.57,60.98 93.18,57.07 C92.92,54.41 93.27,53.74 95.18,53.23 L 97.50 52.61 L 95.00 51.91 C93.62,51.52 91.40,51.15 90.05,51.10 C88.14,51.02 87.87,51.27 88.80,52.20 C90.34,53.74 90.34,57.26 88.80,58.80 C87.01,60.59 84.54,60.26 82.45,57.94 C80.32,55.59 81.18,53.27 84.90,51.38 C86.79,50.42 86.13,50.17 80.10,49.58 C72.33,48.81 66.64,49.51 63.25,51.64 C59.81,53.79 60.38,56.00 64.38,56.00 L 67.75 56.00 L 68.94 65.75 C69.60,71.11 70.38,77.16 70.68,79.18 L 71.23 82.87 L 59.37 88.97 C47.78,94.94 47.61,95.07 52.39,94.54 C55.08,94.24 60.54,94.00 64.52,94.00 L 71.75 94.00 L 73.86 89.25 C76.71,82.80 78.49,80.83 85.50,76.41 C93.27,71.50 120.82,58.31 133.00,53.66 C147.51,48.13 154.41,46.60 165.04,46.55 C176.39,46.49 178.96,47.71 181.49,54.35 C183.12,58.59 183.10,59.12 181.05,67.28 C178.50,77.46 174.59,89.70 171.76,96.30 C170.15,100.08 169.37,100.93 168.10,100.30 C165.29,98.90 139.00,99.63 129.00,101.39 C117.12,103.48 104.79,106.13 105.20,106.51 C105.36,106.67 111.12,106.14 118.00,105.34 C125.58,104.46 136.85,104.01 146.65,104.19 C160.86,104.46 163.05,104.73 164.90,106.40 C166.11,107.51 167.00,109.53 167.00,111.21 C167.00,113.13 167.39,113.88 168.14,113.42 C168.76,113.03 173.46,104.12 178.58,93.61 ZM 98.66 58.43 C99.51,56.23 97.22,54.03 96.05,55.92 C95.07,57.50 95.74,60.00 97.14,60.00 C97.65,60.00 98.33,59.29 98.66,58.43 ZM 86.60 54.40 C86.12,53.14 85.63,52.97 84.83,53.77 C84.23,54.37 84.03,55.65 84.40,56.60 C84.88,57.86 85.37,58.03 86.17,57.23 C86.77,56.63 86.97,55.35 86.60,54.40 ZM 74.61 104.25 C76.41,96.62 81.32,85.91 84.09,83.58 C88.07,80.23 104.83,71.31 118.98,65.01 C140.61,55.37 155.58,51.00 166.92,51.00 C171.68,51.00 173.18,51.44 175.35,53.45 C176.81,54.80 178.00,56.97 178.00,58.28 C178.00,61.19 172.92,79.45 169.98,87.11 L 167.83 92.72 L 155.17 93.40 C138.61,94.30 121.59,96.93 96.51,102.48 C85.30,104.97 75.64,107.00 75.04,107.00 C74.37,107.00 74.21,105.95 74.61,104.25 ZM 95.50 100.92 C124.74,94.47 135.14,92.85 151.26,92.28 L 167.02 91.72 L 170.39 81.07 C174.86,66.96 176.41,59.76 175.64,56.68 C173.17,46.88 143.96,53.98 103.61,74.19 C86.35,82.84 83.82,84.77 80.74,91.68 C79.32,94.88 77.84,99.21 77.45,101.30 C76.79,104.92 76.87,105.07 79.13,104.56 C80.43,104.26 87.80,102.62 95.50,100.92 ZM 14.00 104.20 C14.00,103.22 20.31,97.00 21.30,97.00 C22.95,97.00 21.79,100.29 19.35,102.55 C16.77,104.95 14.00,105.80 14.00,104.20 ZM 23.00 98.09 C23.00,96.98 28.79,92.00 30.08,92.00 C31.74,92.00 31.05,94.04 28.55,96.55 C26.11,98.98 23.00,99.84 23.00,98.09 ZM 35.17 89.69 C32.35,86.68 32.41,86.11 36.09,81.04 C38.35,77.91 39.47,77.07 40.29,77.89 C40.90,78.50 42.21,79.00 43.20,79.00 C44.19,79.00 45.00,79.48 45.00,80.06 C45.00,82.16 39.65,92.00 38.51,92.00 C37.87,92.00 36.37,90.96 35.17,89.69 ZM 40.70 85.51 C42.52,81.69 41.86,79.97 39.20,81.64 C37.30,82.83 36.25,89.00 37.95,89.00 C38.55,89.00 39.78,87.43 40.70,85.51 ZM 24.00 89.90 C24.00,89.30 25.46,87.43 27.25,85.76 C30.11,83.09 30.54,82.94 30.86,84.57 C31.08,85.65 30.12,87.36 28.56,88.70 C25.66,91.20 24.00,91.63 24.00,89.90 ZM 46.00 87.07 C46.00,86.00 50.84,82.00 52.13,82.00 C53.85,82.00 52.95,84.92 50.78,86.44 C48.30,88.18 46.00,88.48 46.00,87.07 ZM 55.00 81.95 C55.00,80.73 59.89,76.00 61.15,76.00 C62.19,76.00 62.24,78.10 61.23,79.60 C60.51,80.69 56.66,83.00 55.57,83.00 C55.25,83.00 55.00,82.53 55.00,81.95 ZM 30.65 78.31 C30.29,77.96 30.00,75.47 30.00,72.79 C30.00,68.94 30.52,67.39 32.45,65.45 C35.79,62.12 40.30,62.20 43.75,65.66 L 46.40 68.31 L 42.82 71.41 C38.31,75.30 31.50,79.17 30.65,78.31 ZM 42.00 67.49 C42.00,65.68 39.63,65.00 36.33,65.88 C33.78,66.56 33.47,67.12 33.19,71.43 L 32.88 76.23 L 37.44 72.50 C39.95,70.44 42.00,68.19 42.00,67.49 ZM 45.58 78.13 C44.96,77.13 50.45,72.00 52.15,72.00 C52.70,72.00 53.00,72.76 52.82,73.70 C52.42,75.78 46.41,79.47 45.58,78.13 ZM 55.00 72.02 C55.00,69.77 61.24,65.25 61.85,67.07 C62.26,68.28 59.35,71.74 56.76,73.13 C55.35,73.89 55.00,73.67 55.00,72.02 ZM 88.00 44.50 C88.00,43.12 88.45,42.00 89.00,42.00 C89.55,42.00 90.00,43.12 90.00,44.50 C90.00,45.88 89.55,47.00 89.00,47.00 C88.45,47.00 88.00,45.88 88.00,44.50 ZM 163.50 103.47 C161.30,102.75 156.21,102.12 152.19,102.08 C147.03,102.02 145.09,101.67 145.58,100.87 C147.18,98.28 169.00,101.34 169.00,104.16 C169.00,105.19 168.54,105.13 163.50,103.47 ZM 170.29 104.00 C170.61,103.18 172.91,97.55 175.40,91.50 C186.02,65.66 186.66,51.03 177.37,46.42 C172.08,43.80 158.11,43.79 148.50,46.41 C131.46,51.05 88.52,70.82 79.71,78.09 C77.64,79.80 75.07,82.91 74.00,85.00 C71.35,90.20 67.36,93.17 63.55,92.80 C59.18,92.37 59.89,90.93 66.15,87.50 C69.16,85.85 73.34,82.59 75.43,80.25 C80.61,74.46 90.78,68.32 109.73,59.53 C135.96,47.37 155.55,41.51 174.00,40.30 C184.28,39.63 189.53,41.29 190.60,45.54 C191.64,49.67 190.34,60.02 187.89,67.10 C185.07,75.26 172.43,103.00 170.88,104.42 C170.02,105.22 169.86,105.10 170.29,104.00 ZM 69.08 88.26 C70.73,86.39 70.86,86.02 69.50,87.12 C68.40,88.00 66.60,89.22 65.50,89.83 C63.99,90.67 63.88,90.95 65.08,90.97 C65.94,90.99 67.74,89.77 69.08,88.26 ZM 188.61 58.02 C190.27,49.43 189.74,45.50 186.66,43.58 C184.52,42.24 172.00,40.41 172.00,41.43 C172.00,41.73 174.20,43.08 176.90,44.45 C179.87,45.95 182.67,48.35 184.02,50.53 C186.01,53.76 186.18,54.99 185.64,62.32 C184.92,72.00 186.28,70.03 188.61,58.02 ZM 72.71 78.50 C72.11,76.52 70.00,61.90 70.00,59.73 C70.00,59.02 70.35,58.95 70.94,59.55 C72.02,60.64 74.40,77.32 73.75,79.23 C73.48,80.01 73.08,79.73 72.71,78.50 ZM 75.64 71.80 C75.30,70.53 75.02,67.35 75.01,64.72 L 75.00 59.94 L 81.75 60.55 C88.45,61.15 94.01,62.66 93.99,63.87 C93.97,64.54 79.35,73.29 77.41,73.80 C76.78,73.96 75.98,73.06 75.64,71.80 ZM 85.01 67.28 C89.21,64.44 90.06,63.47 88.63,63.18 C87.60,62.98 85.57,63.67 84.13,64.72 C79.59,68.02 78.38,68.48 80.46,66.11 C82.13,64.21 82.21,63.74 80.96,62.96 C78.52,61.42 77.51,62.45 77.19,66.83 C76.80,72.09 77.83,72.15 85.01,67.28 ZM 103.24 58.75 C103.73,57.28 109.00,56.43 109.00,57.82 C109.00,58.34 107.99,59.04 106.75,59.37 C103.44,60.26 102.79,60.14 103.24,58.75 ZM 70.78 56.42 C69.35,53.28 70.67,50.65 73.91,50.17 C78.53,49.49 81.09,55.81 77.07,57.96 C73.94,59.64 72.04,59.17 70.78,56.42 ZM 76.04 55.45 C77.10,54.17 77.05,53.62 75.76,52.33 C73.94,50.52 72.00,51.32 72.00,53.89 C72.00,57.17 73.98,57.93 76.04,55.45 ZM 80.49 99.75 C83.78,87.86 86.28,85.38 103.91,76.54 C139.25,58.84 168.15,50.42 172.65,56.51 C173.63,57.84 173.91,59.66 173.49,62.00 C172.69,66.51 169.31,78.07 166.87,84.62 L 164.96 89.73 L 149.73 90.27 C133.86,90.84 123.93,92.37 96.69,98.47 C88.03,100.41 80.70,102.00 80.41,102.00 C80.11,102.00 80.15,100.99 80.49,99.75 ZM 102.71 95.45 C126.22,90.24 134.39,88.99 149.19,88.32 C156.71,87.98 163.30,87.43 163.82,87.10 C165.08,86.30 170.92,67.90 171.69,62.28 C172.13,59.01 171.92,57.56 170.90,56.92 C164.93,53.14 139.23,61.01 108.50,76.01 C88.17,85.94 85.65,88.06 82.51,97.97 C81.83,100.10 81.99,100.22 84.64,99.54 C86.21,99.14 94.34,97.30 102.71,95.45 ZM 34.00 70.00 C34.00,68.90 34.40,68.00 34.89,68.00 C36.02,68.00 37.07,70.60 36.26,71.40 C35.06,72.61 34.00,71.95 34.00,70.00 ZM 37.00 69.00 C37.00,68.45 38.01,68.01 39.25,68.02 C41.07,68.03 41.21,68.22 40.00,69.00 C38.06,70.25 37.00,70.25 37.00,69.00 ZM 187.12 51.33 C187.05,50.68 185.83,48.77 184.41,47.08 C181.36,43.46 182.62,42.90 185.92,46.41 C187.22,47.80 187.98,49.60 187.71,50.66 C187.45,51.67 187.18,51.97 187.12,51.33 ZM 86.00 94.87 C86.00,91.18 92.26,86.61 108.13,78.73 C134.97,65.39 161.51,56.44 168.04,58.51 C170.70,59.36 170.54,60.95 166.53,73.63 L 163.06 84.59 L 149.43 85.82 C133.21,87.29 110.28,91.07 96.71,94.51 C91.33,95.88 86.71,97.00 86.46,97.00 C86.21,97.00 86.00,96.04 86.00,94.87 ZM 109.52 90.09 C126.52,86.51 141.64,84.47 156.50,83.74 L 161.50 83.50 L 164.69 74.00 C166.45,68.78 167.91,63.42 167.94,62.11 C168.00,59.81 167.79,59.74 162.61,60.28 C147.27,61.86 92.96,85.66 88.14,92.91 C86.67,95.14 86.69,95.24 88.54,94.68 C89.62,94.36 99.06,92.30 109.52,90.09 ZM 97.27 89.67 C97.80,88.04 121.34,76.30 134.00,71.35 C143.74,67.55 161.49,62.00 163.94,62.00 C165.60,62.00 165.21,64.86 162.43,73.21 C159.50,82.00 160.60,81.41 145.00,82.51 C135.14,83.20 107.56,87.63 101.22,89.53 C98.03,90.49 96.99,90.53 97.27,89.67 ZM 116.68 84.57 C126.45,82.51 146.46,80.00 153.03,80.00 L 158.65 80.00 L 161.00 72.51 C162.29,68.39 163.08,64.75 162.76,64.43 C161.11,62.77 135.04,72.16 117.11,80.87 C105.21,86.65 105.17,86.99 116.68,84.57 ZM 126.00 79.59 C126.00,78.06 153.46,68.00 157.66,68.00 C159.77,68.00 160.03,68.34 159.44,70.25 C157.21,77.49 156.93,77.65 145.80,78.38 C140.14,78.76 133.36,79.33 130.75,79.66 C128.14,79.99 126.00,79.96 126.00,79.59 ZM 152.63 75.37 C155.60,74.85 158.94,70.68 157.21,69.64 C156.36,69.13 141.13,74.21 138.41,75.92 C136.86,76.89 137.72,77.00 143.00,76.52 C146.57,76.19 150.91,75.67 152.63,75.37 Z" fill="rgba(0,0,0,1)"/>
</g>
</svg>