<svg xmlns="http://www.w3.org/2000/svg" width="191" height="113" viewBox="0 0 191 113">
<g>
<path d="M 34.23 92.80 C24.31,84.00 14.80,74.39 13.43,71.80 C12.64,70.31 12.00,67.73 12.00,66.05 L 12.00 63.00 L 68.26 63.00 L 124.52 63.00 L 130.92 48.45 C134.50,40.32 138.13,33.46 139.16,32.91 C140.60,32.14 141.00,30.75 141.00,26.46 L 141.00 21.00 L 147.50 21.00 L 154.00 21.00 L 154.00 26.94 L 154.00 32.87 L 157.25 33.19 L 160.50 33.50 L 162.68 44.00 C163.88,49.78 165.14,55.96 165.48,57.75 L 166.09 61.00 L 147.88 61.00 C137.86,61.00 130.00,61.33 130.40,61.74 C130.81,62.14 141.34,62.70 153.82,62.99 C180.64,63.59 178.98,62.33 173.63,78.17 C171.71,83.85 169.64,90.41 169.03,92.75 L 167.92 97.00 L 103.44 97.00 L 38.96 97.00 L 34.23 92.80 ZM 166.94 91.24 C167.49,89.16 169.48,82.64 171.36,76.74 L 174.76 66.00 L 94.38 66.00 C22.08,66.00 14.00,66.16 14.00,67.57 C14.00,70.11 18.38,75.13 29.53,85.37 L 40.03 95.00 L 102.98 95.00 L 165.92 95.00 L 166.94 91.24 ZM 162.62 56.25 C162.32,54.74 161.32,49.56 160.40,44.75 C159.04,37.63 158.39,36.00 156.93,36.00 C153.73,36.00 152.00,33.17 152.00,27.93 L 152.00 23.00 L 147.50 23.00 L 143.00 23.00 L 143.00 28.35 C143.00,32.77 142.53,34.21 140.34,36.58 C138.23,38.86 129.00,56.75 129.00,58.57 C129.00,58.81 136.69,59.00 146.08,59.00 L 163.16 59.00 L 162.62 56.25 ZM 68.00 61.35 C68.00,60.86 71.43,56.31 75.63,51.23 L 83.26 42.00 L 91.14 42.00 C97.99,42.00 99.25,41.72 100.76,39.86 C101.72,38.68 103.29,37.00 104.25,36.13 C105.47,35.03 106.00,33.03 106.01,29.53 C106.03,23.14 106.87,20.00 108.57,20.00 C109.98,20.00 110.82,23.48 111.25,31.00 C111.46,34.75 111.83,35.50 113.50,35.50 C115.30,35.50 115.53,34.73 115.80,28.00 C116.13,19.71 117.30,17.37 119.57,20.44 C120.48,21.68 121.00,24.85 121.00,29.19 L 121.00 36.00 L 123.97 36.00 C126.75,36.00 126.91,36.20 126.35,39.00 C125.81,41.72 125.99,42.00 128.37,42.00 L 130.99 42.00 L 126.27 51.50 L 121.55 61.00 L 97.02 61.01 C83.54,61.02 71.49,61.30 70.25,61.63 C69.01,61.96 68.00,61.83 68.00,61.35 ZM 97.57 59.00 L 119.97 59.00 L 123.49 52.02 C127.43,44.19 127.49,44.01 125.75,43.98 C125.06,43.98 123.85,43.56 123.06,43.06 C121.93,42.34 121.88,41.85 122.84,40.69 C124.69,38.46 121.87,37.84 113.35,38.61 C107.94,39.10 105.18,39.89 102.81,41.64 C100.11,43.63 98.43,44.00 91.98,44.00 L 84.35 44.00 L 78.98 50.75 C71.07,60.70 71.20,60.49 73.33,59.69 C74.34,59.31 85.25,59.00 97.57,59.00 ZM 36.91 88.84 C28.56,82.24 16.75,70.22 17.47,69.05 C18.30,67.71 24.68,67.67 25.50,69.00 C25.86,69.59 24.78,70.00 22.86,70.00 L 19.61 70.00 L 23.05 73.59 C26.78,77.46 30.93,80.00 33.55,80.00 C34.45,80.00 36.50,79.07 38.10,77.93 L 41.01 75.86 L 43.64 77.93 C46.80,80.42 49.08,80.53 53.18,78.41 C56.03,76.93 56.56,76.95 60.21,78.60 C63.65,80.14 64.58,80.20 67.33,79.05 C71.32,77.38 73.68,77.38 77.67,79.05 C80.42,80.20 81.35,80.14 84.79,78.60 C88.44,76.95 88.97,76.93 91.82,78.41 C95.91,80.52 98.20,80.42 101.30,77.98 L 103.87 75.95 L 107.19 77.97 C111.38,80.53 114.06,80.53 117.30,77.98 L 119.87 75.95 L 123.19 77.97 C127.38,80.53 130.06,80.53 133.30,77.98 L 135.87 75.95 L 139.19 77.97 C143.39,80.54 146.06,80.53 149.34,77.95 L 151.94 75.90 L 154.89 78.08 C156.93,79.59 158.78,80.11 160.94,79.80 C162.65,79.54 163.93,79.60 163.77,79.92 C163.62,80.24 162.84,82.19 162.04,84.25 L 160.60 88.00 L 100.95 88.00 C43.23,88.00 41.25,87.94 39.56,86.06 C37.43,83.71 38.40,81.67 41.23,82.57 C43.63,83.33 160.00,83.75 160.00,82.99 C160.00,82.71 158.21,81.93 156.02,81.24 C152.88,80.26 151.07,80.26 147.53,81.20 C143.99,82.15 142.29,82.14 139.62,81.18 C136.93,80.21 135.26,80.21 131.62,81.18 C127.96,82.16 126.31,82.15 123.55,81.15 C120.79,80.15 119.23,80.15 115.97,81.13 C112.71,82.10 111.16,82.10 108.39,81.10 C105.61,80.09 103.94,80.09 100.06,81.08 C96.16,82.08 94.60,82.08 92.14,81.06 C89.68,80.04 88.13,80.04 84.14,81.06 C80.20,82.07 78.60,82.08 76.21,81.09 C73.84,80.11 72.38,80.11 69.11,81.08 C65.92,82.04 64.12,82.05 61.08,81.14 C58.06,80.24 56.12,80.24 52.66,81.17 C49.06,82.13 47.35,82.11 44.13,81.04 C40.86,79.96 39.53,79.95 37.05,80.98 C35.37,81.67 34.00,82.55 34.00,82.92 C34.00,83.29 35.71,85.26 37.79,87.30 L 41.58 91.00 L 102.08 91.00 L 162.57 91.00 L 165.78 80.31 C168.25,72.09 168.70,69.43 167.75,68.82 C166.95,68.32 167.47,68.03 169.16,68.02 L 171.81 68.00 L 168.31 79.25 C166.39,85.44 164.38,90.95 163.86,91.50 C163.25,92.14 141.11,92.60 102.59,92.79 L 42.27 93.07 L 36.91 88.84 ZM 158.50 86.00 C158.16,85.45 155.55,85.07 152.69,85.15 L 147.50 85.30 L 152.00 86.00 C158.89,87.07 159.16,87.07 158.50,86.00 ZM 58.29 85.26 C55.42,85.06 50.47,85.06 47.29,85.26 C44.10,85.46 46.45,85.62 52.50,85.63 C58.55,85.63 61.15,85.47 58.29,85.26 ZM 86.25 85.26 C82.81,85.06 77.19,85.06 73.75,85.26 C70.31,85.45 73.12,85.61 80.00,85.61 C86.88,85.61 89.69,85.45 86.25,85.26 ZM 129.80 85.26 C124.47,85.08 115.47,85.07 109.80,85.25 C104.14,85.43 108.50,85.58 119.50,85.58 C130.50,85.58 135.14,85.43 129.80,85.26 ZM 29.57 76.43 C28.71,75.56 28.00,73.56 28.00,71.96 C28.00,66.47 35.48,65.38 37.83,70.53 C40.28,75.91 33.73,80.59 29.57,76.43 ZM 34.99 74.51 C36.62,72.54 35.56,70.00 33.10,70.00 C31.07,70.00 29.39,73.21 30.49,74.99 C31.40,76.46 33.57,76.23 34.99,74.51 ZM 45.57 76.43 C43.46,74.32 43.59,71.72 45.94,68.86 C47.77,66.63 48.03,66.58 50.69,68.03 C53.80,69.73 54.71,72.81 53.03,75.95 C51.71,78.40 47.80,78.65 45.57,76.43 ZM 50.83 73.63 C51.03,72.62 50.69,71.29 50.09,70.69 C48.56,69.16 45.51,72.28 46.36,74.50 C47.18,76.64 50.37,76.02 50.83,73.63 ZM 61.00 76.00 C58.41,73.41 58.48,72.43 61.45,69.45 C62.80,68.10 64.38,67.00 64.95,67.00 C66.84,67.00 70.00,70.95 70.00,73.30 C70.00,78.06 64.66,79.66 61.00,76.00 ZM 66.82 73.24 C67.23,70.36 64.40,69.17 62.26,71.31 C60.93,72.64 60.89,73.16 61.99,74.49 C63.79,76.66 66.43,75.97 66.82,73.24 ZM 76.94 75.94 C74.38,73.38 74.73,71.29 78.13,68.75 C80.25,67.17 81.15,67.01 82.86,67.93 C85.86,69.53 86.67,73.61 84.46,76.04 C82.18,78.56 79.53,78.53 76.94,75.94 ZM 82.89 74.63 C84.54,72.64 83.16,70.00 80.48,70.00 C77.81,70.00 76.87,71.73 78.17,74.25 C79.25,76.35 81.33,76.51 82.89,74.63 ZM 93.00 76.00 C91.90,74.90 91.00,73.32 91.00,72.50 C91.00,70.37 94.64,67.00 96.94,67.00 C99.08,67.00 102.00,70.51 102.00,73.07 C102.00,75.11 98.88,78.00 96.67,78.00 C95.75,78.00 94.10,77.10 93.00,76.00 ZM 98.89 74.63 C100.54,72.64 99.16,70.00 96.48,70.00 C93.81,70.00 92.87,71.73 94.17,74.25 C95.25,76.35 97.33,76.51 98.89,74.63 ZM 108.57 76.43 C106.69,74.55 106.64,73.87 108.17,70.52 C109.84,66.86 113.83,66.08 116.17,68.96 C118.47,71.80 118.46,72.15 115.93,75.37 C113.58,78.35 110.88,78.74 108.57,76.43 ZM 114.91 73.75 C115.94,71.03 115.46,70.00 113.14,70.00 C110.40,70.00 108.93,72.00 110.08,74.15 C111.43,76.68 113.88,76.47 114.91,73.75 ZM 124.75 76.92 C121.29,74.90 123.18,68.89 127.70,67.55 C130.73,66.65 134.35,70.27 133.45,73.30 C132.21,77.47 128.41,79.05 124.75,76.92 ZM 129.80 74.80 C131.67,72.93 131.26,70.00 129.12,70.00 C126.26,70.00 124.44,72.62 126.00,74.50 C127.51,76.31 128.23,76.37 129.80,74.80 ZM 140.65 76.17 C138.59,73.89 138.56,72.07 140.56,69.22 C142.28,66.76 144.66,66.42 147.10,68.29 C149.92,70.43 150.32,73.68 148.05,75.95 C145.51,78.49 142.82,78.57 140.65,76.17 ZM 145.80 74.80 C147.67,72.93 147.26,70.00 145.12,70.00 C142.26,70.00 140.44,72.62 142.00,74.50 C143.51,76.31 144.23,76.37 145.80,74.80 ZM 156.79 76.75 C154.85,75.22 153.79,71.89 154.77,70.40 C157.55,66.19 163.43,66.89 164.61,71.57 C165.77,76.20 160.52,79.68 156.79,76.75 ZM 161.99 74.51 C163.62,72.54 162.56,70.00 160.10,70.00 C158.07,70.00 156.39,73.21 157.49,74.99 C158.40,76.46 160.57,76.23 161.99,74.51 ZM 24.50 72.00 C24.84,71.45 25.32,71.00 25.56,71.00 C25.80,71.00 26.00,71.45 26.00,72.00 C26.00,72.55 25.52,73.00 24.94,73.00 C24.36,73.00 24.16,72.55 24.50,72.00 ZM 151.08 70.42 C151.13,69.25 151.36,69.01 151.68,69.81 C151.97,70.53 151.94,71.40 151.60,71.73 C151.27,72.06 151.04,71.47 151.08,70.42 ZM 134.60 51.25 C136.02,48.09 137.60,44.38 138.12,43.00 C138.64,41.62 140.27,39.50 141.75,38.29 C143.86,36.55 144.55,34.94 144.97,30.79 C145.42,26.34 145.82,25.50 147.50,25.50 C149.16,25.50 149.65,26.47 150.41,31.25 C151.22,36.38 151.58,37.00 153.69,37.00 C156.47,37.00 156.44,36.93 158.90,48.25 L 160.80 57.00 L 146.41 57.00 L 132.03 57.00 L 134.60 51.25 ZM 141.23 47.51 C144.63,41.42 146.27,40.35 150.53,41.42 C152.22,41.84 153.21,43.11 153.95,45.76 C155.92,52.85 155.80,53.00 148.00,53.00 C143.82,53.00 141.00,53.42 141.00,54.04 C141.00,54.70 144.02,54.97 149.25,54.79 L 157.50 54.50 L 157.22 51.00 C157.06,49.08 156.48,45.81 155.93,43.75 C155.05,40.49 154.54,40.00 151.96,40.00 C149.01,40.00 149.00,39.98 149.00,34.00 C149.00,30.67 148.56,28.00 148.00,28.00 C147.45,28.00 147.00,30.26 147.00,33.02 C147.00,37.49 146.72,38.16 144.45,39.02 C142.08,39.92 139.42,44.56 135.83,54.00 C134.25,58.17 137.35,54.44 141.23,47.51 ZM 148.00 50.00 C148.00,49.45 147.55,49.00 147.00,49.00 C146.45,49.00 146.00,48.55 146.00,48.00 C146.00,46.17 148.74,46.97 150.27,49.25 C151.10,50.49 152.11,51.18 152.51,50.80 C153.68,49.67 152.09,44.97 150.31,44.29 C148.12,43.45 143.90,45.98 142.89,48.75 C142.15,50.76 142.38,51.00 145.03,51.00 C146.66,51.00 148.00,50.55 148.00,50.00 ZM 77.00 57.22 C77.00,56.80 78.93,54.25 81.30,51.56 L 85.60 46.67 L 93.75 46.08 C100.83,45.55 102.27,45.12 104.75,42.74 C107.14,40.45 108.49,40.00 112.94,40.00 C117.37,40.00 118.67,40.43 120.64,42.55 C123.53,45.67 123.54,47.23 120.71,53.00 C119.04,56.41 117.95,57.48 116.25,57.43 C115.01,57.39 106.70,57.28 97.77,57.18 L 81.55 57.00 L 84.27 54.28 C86.59,51.96 88.11,51.46 94.51,50.94 C100.79,50.43 102.74,49.81 106.42,47.16 C111.18,43.75 115.03,43.13 116.98,45.48 C117.95,46.65 117.89,47.88 116.66,51.48 C115.82,53.96 115.46,56.00 115.88,56.00 C117.33,56.00 121.13,47.99 120.55,46.16 C118.99,41.25 110.33,40.86 104.88,45.44 C102.25,47.66 100.90,48.00 94.72,48.00 L 87.60 48.00 L 82.91 53.00 C78.34,57.86 77.00,58.82 77.00,57.22 ZM 114.84 52.45 C116.75,48.27 116.16,47.34 113.46,50.26 C111.87,51.98 109.91,52.99 108.21,52.97 L 105.50 52.94 L 108.00 51.04 C114.69,45.96 114.59,46.07 112.89,46.03 C112.00,46.01 109.62,47.31 107.60,48.92 C104.59,51.32 102.60,51.96 96.45,52.54 C84.42,53.66 86.76,55.00 100.78,55.00 C113.63,55.00 113.68,54.99 114.84,52.45 Z" fill="#C9A227"/>
</g>
</svg>