<svg xmlns="http://www.w3.org/2000/svg" width="1024" height="1024" viewBox="0 0 1024 1024">
<g>
<path d="M 314.29 857.57 C275.51,847.33 249.46,811.06 252.50,771.55 C254.76,742.00 272.28,715.79 298.50,702.71 C302.35,700.78 306.52,698.91 307.76,698.53 C309.27,698.08 319.96,683.92 339.73,656.18 C412.33,554.30 435.22,522.29 458.97,489.50 C472.90,470.25 486.65,451.35 489.50,447.50 C508.36,422.08 517.61,408.73 520.00,403.50 C521.51,400.20 524.01,392.33 525.56,386.00 C528.07,375.76 528.38,372.64 528.43,357.50 C528.49,338.59 527.43,330.29 520.74,297.00 C515.63,271.59 515.35,261.82 519.35,249.50 C523.40,237.04 528.21,229.81 541.00,216.97 C553.30,204.62 563.54,197.16 578.50,189.65 C601.94,177.87 629.27,171.00 652.66,171.00 C662.28,171.00 666.44,172.21 665.76,174.80 C665.32,176.51 648.51,203.02 627.73,234.79 C617.92,249.79 617.74,250.17 618.29,254.80 C619.12,261.80 622.84,270.88 626.38,274.54 C628.10,276.31 640.75,284.62 654.50,293.01 C668.25,301.40 680.60,308.95 681.95,309.79 C684.18,311.17 684.50,311.15 685.45,309.57 C690.30,301.52 741.61,223.09 742.93,221.71 C745.49,219.02 747.28,220.37 751.91,228.45 C759.98,242.56 766.71,263.36 769.08,281.47 C770.83,294.90 769.76,320.52 767.06,330.00 C764.41,339.29 755.14,358.23 749.50,365.90 C742.70,375.14 733.09,384.90 724.57,391.24 C714.14,399.00 700.54,405.42 678.50,413.00 C656.56,420.55 645.75,424.92 636.28,430.08 C621.41,438.19 607.66,449.39 600.25,459.44 C597.79,462.77 584.52,484.40 570.76,507.50 C556.99,530.60 543.81,552.65 541.47,556.50 C539.12,560.35 527.65,579.70 515.97,599.50 C504.29,619.30 489.70,644.05 483.53,654.50 C477.37,664.95 469.04,679.12 465.02,686.00 C452.52,707.37 438.09,731.84 428.35,748.15 L 419.00 763.80 L 419.00 776.24 C419.00,785.29 418.47,790.75 417.05,796.29 C409.63,825.30 388.86,847.25 360.00,856.57 C352.76,858.91 349.43,859.37 337.50,859.66 C325.16,859.97 322.40,859.72 314.29,857.57 ZM 350.43 855.54 C371.26,851.56 390.42,839.05 402.14,821.79 C411.43,808.11 415.11,795.78 415.93,775.50 L 416.51 761.50 L 425.59 746.50 C430.59,738.25 439.54,723.17 445.48,713.00 C461.21,686.04 474.11,664.16 513.55,597.50 C519.73,587.05 535.23,560.95 547.99,539.50 C560.75,518.05 576.64,491.27 583.31,480.00 C594.74,460.68 596.07,458.87 606.49,448.50 C623.68,431.39 637.27,423.98 677.00,410.02 C710.28,398.32 719.77,393.08 734.96,378.00 C743.03,369.99 751.86,358.17 753.40,353.33 C754.22,350.73 754.57,350.99 723.50,331.52 C694.47,313.33 692.00,311.69 692.00,310.64 C692.00,309.84 709.09,283.28 734.41,244.75 C739.74,236.64 744.52,230.00 745.04,230.00 C747.72,230.00 756.81,252.70 760.66,269.00 C764.28,284.34 765.00,308.73 762.21,322.00 C759.67,334.07 756.33,343.00 754.35,343.00 C752.18,343.00 700.00,310.23 700.00,308.86 C700.00,308.26 737.92,249.82 741.90,244.28 C742.78,243.06 743.86,242.05 744.31,242.03 C746.76,241.94 754.07,264.33 756.53,279.47 C758.25,290.08 758.45,309.15 756.93,317.57 C755.16,327.37 752.96,334.00 751.49,334.00 C750.73,334.00 743.45,329.80 735.31,324.67 C708.83,307.99 708.80,307.97 709.46,306.25 C709.79,305.38 713.91,298.78 718.62,291.58 C723.32,284.39 730.39,273.57 734.33,267.54 C738.28,261.51 742.00,256.44 742.60,256.26 C743.95,255.86 747.37,266.64 749.45,277.86 C752.05,291.90 751.18,320.22 748.05,323.35 C747.07,324.33 717.68,306.31 718.21,305.06 C719.15,302.82 739.62,272.04 740.17,272.02 C743.64,271.91 746.25,310.49 742.91,312.55 C741.90,313.18 730.00,305.95 728.74,303.95 C728.06,302.87 728.87,300.74 731.65,296.24 C736.68,288.12 738.00,288.17 738.00,296.50 C738.00,301.61 737.68,303.00 736.50,303.00 C735.67,303.00 735.00,302.11 735.00,301.00 C735.00,299.90 734.60,299.00 734.11,299.00 C732.56,299.00 731.91,302.19 733.16,303.69 C734.34,305.11 739.29,308.00 740.55,308.00 C741.51,308.00 740.65,281.73 739.64,280.16 C739.02,279.21 736.51,282.28 730.89,290.86 C726.55,297.48 723.00,303.49 723.00,304.21 C723.00,304.93 724.01,306.16 725.25,306.94 C740.33,316.49 745.27,319.13 746.24,318.16 C747.85,316.55 748.41,293.67 747.08,283.49 C745.61,272.21 743.06,262.81 741.61,263.29 C740.49,263.66 718.62,296.44 715.02,303.15 L 713.07 306.79 L 731.28 318.35 C741.30,324.71 749.85,329.55 750.30,329.10 C753.80,325.60 755.93,301.10 754.09,285.35 C752.81,274.33 749.14,259.35 745.95,252.16 C744.24,248.28 743.75,247.83 742.59,249.06 C741.85,249.85 732.90,263.44 722.69,279.25 L 704.14 308.01 L 707.32 310.38 C713.45,314.96 751.36,338.28 752.85,338.39 C753.88,338.46 755.08,336.24 756.60,331.43 C764.27,307.23 761.62,273.49 749.86,245.47 C748.14,241.37 746.15,237.54 745.45,236.96 C743.89,235.67 743.91,235.64 716.36,277.91 C696.68,308.10 695.95,309.39 697.69,311.08 C699.36,312.69 739.24,337.99 750.29,344.44 C754.82,347.08 755.18,347.14 756.95,345.54 C759.65,343.10 763.78,331.24 765.63,320.64 C767.94,307.44 767.02,283.26 763.66,269.00 C760.53,255.69 757.82,247.82 752.41,236.42 C747.98,227.07 745.59,223.99 744.03,225.59 C743.55,226.09 732.28,243.15 718.99,263.50 C705.70,283.85 694.04,301.62 693.07,303.00 C689.98,307.38 688.12,311.59 688.82,312.61 C689.59,313.74 712.91,328.71 733.00,340.98 C747.56,349.87 750.00,351.67 750.00,353.48 C750.00,356.26 742.79,365.30 732.05,376.00 C716.55,391.43 710.13,395.12 680.48,405.61 C667.83,410.08 653.88,415.23 649.48,417.04 C630.40,424.91 616.00,434.19 602.98,447.00 C594.65,455.20 593.38,457.11 567.51,500.50 C552.75,525.25 538.12,549.78 535.00,555.00 C531.87,560.22 524.67,572.38 518.99,582.00 C513.31,591.62 502.13,610.53 494.15,624.00 C486.17,637.47 476.01,654.68 471.57,662.22 C467.13,669.77 458.25,684.85 451.84,695.72 C445.43,706.60 436.48,721.80 431.95,729.50 C427.42,737.20 421.11,747.83 417.92,753.12 L 412.14 762.73 L 412.20 774.62 C412.28,787.89 410.87,795.27 406.07,806.85 C393.59,836.98 359.17,856.97 326.75,852.91 C300.30,849.60 277.64,833.38 266.49,809.78 C261.18,798.54 259.62,791.22 259.62,777.50 C259.62,763.94 261.71,754.51 267.13,743.70 C275.97,726.06 287.94,714.55 306.24,706.10 L 314.50 702.29 L 328.05 683.40 C335.51,673.00 348.31,655.05 356.50,643.50 C364.69,631.95 376.56,615.30 382.87,606.50 C389.18,597.70 398.16,585.10 402.82,578.50 C411.27,566.52 434.00,534.87 454.52,506.50 C460.48,498.25 469.27,486.10 474.03,479.50 C478.80,472.90 486.15,462.77 490.36,457.00 C525.26,409.18 525.11,409.41 528.23,399.73 L 530.41 392.94 L 538.96 388.29 C543.66,385.74 550.80,381.70 554.83,379.32 C558.87,376.95 562.96,375.00 563.92,375.00 C567.01,375.00 595.32,407.89 602.90,420.30 C604.18,422.38 605.51,423.96 605.86,423.80 C606.21,423.63 609.70,421.38 613.61,418.79 C617.52,416.20 625.62,411.63 631.61,408.63 L 642.50 403.18 L 650.00 391.04 C654.12,384.36 658.40,377.82 659.50,376.49 L 661.50 374.08 L 673.50 381.59 C680.10,385.72 685.50,389.58 685.50,390.16 C685.50,390.75 677.40,394.05 667.50,397.51 C642.31,406.29 627.27,413.28 614.29,422.22 C607.05,427.21 604.34,429.67 605.16,430.49 C605.40,430.73 610.98,427.58 617.55,423.48 C632.54,414.14 646.30,407.89 670.50,399.44 C680.95,395.80 690.29,392.58 691.25,392.29 C692.21,392.00 693.00,391.43 693.00,391.03 C693.00,389.81 662.80,371.62 660.66,371.56 C659.19,371.52 656.62,374.86 650.44,384.84 C645.90,392.17 641.13,399.31 639.84,400.70 C638.55,402.08 632.55,405.65 626.50,408.62 C620.45,411.60 613.57,415.19 611.22,416.61 C606.28,419.58 605.42,419.23 601.21,412.51 C595.04,402.65 566.99,370.98 564.44,370.99 C563.86,371.00 556.44,375.00 547.94,379.89 C537.05,386.15 532.40,388.36 532.17,387.36 C531.99,386.59 532.38,383.60 533.03,380.73 C533.68,377.85 534.45,368.75 534.73,360.50 C535.33,343.16 533.60,328.92 526.86,295.50 C521.87,270.75 521.62,262.95 525.47,251.50 C536.38,218.99 574.14,191.51 623.12,180.42 C635.48,177.63 655.28,176.03 656.34,177.74 C656.97,178.76 647.72,193.72 624.81,228.74 C617.61,239.75 612.65,248.37 612.31,250.47 C611.61,254.77 617.40,274.42 620.34,277.73 C622.24,279.88 633.83,287.28 668.50,308.50 C687.05,319.85 732.75,348.11 738.25,351.63 C740.31,352.95 742.00,354.43 742.00,354.92 C742.00,357.01 733.53,366.29 728.72,369.48 C721.25,374.43 711.46,378.17 704.42,378.75 L 698.34 379.25 L 681.17 368.96 C669.64,362.04 664.00,358.10 664.00,356.95 C664.00,356.01 665.18,352.67 666.62,349.52 C669.18,343.93 669.20,343.75 667.37,341.97 C664.26,338.93 610.48,306.06 604.58,303.60 L 600.97 302.09 L 597.24 306.83 C595.18,309.44 592.78,312.67 591.90,314.01 L 590.29 316.44 L 575.90 307.71 C539.53,285.63 531.50,280.40 530.29,278.00 C528.20,273.85 528.73,260.44 531.29,252.94 C539.00,230.32 562.47,209.25 595.15,195.61 C609.97,189.42 630.00,184.21 630.00,186.54 C630.00,186.95 624.36,194.83 617.47,204.04 C610.57,213.26 602.69,224.52 599.96,229.07 C591.56,243.04 591.25,248.35 598.41,255.39 C602.51,259.42 609.56,263.78 610.48,262.85 C610.74,262.60 610.46,260.63 609.87,258.48 C607.58,250.19 608.65,247.83 629.12,216.12 C651.23,181.88 651.00,182.24 651.00,181.54 C651.00,178.95 646.74,184.75 631.38,208.25 C606.11,246.92 607.00,245.31 607.00,252.19 C607.00,255.39 606.56,258.00 606.02,258.00 C605.48,258.00 603.00,256.05 600.52,253.67 C596.88,250.18 596.00,248.68 596.01,245.92 C596.03,238.90 603.46,226.77 625.33,198.04 C638.89,180.23 638.91,180.46 623.88,183.52 C594.45,189.53 566.53,204.08 547.46,223.35 C532.68,238.30 526.00,252.20 526.00,268.03 C526.00,281.18 524.75,279.88 554.84,298.32 C569.50,307.30 583.62,315.89 586.22,317.40 L 590.93 320.15 L 594.22 315.35 C596.02,312.70 598.74,309.25 600.26,307.68 L 603.03 304.82 L 606.26 306.93 C608.04,308.09 621.47,316.45 636.10,325.52 C650.72,334.58 663.42,342.81 664.31,343.79 C665.80,345.44 665.74,345.98 663.42,350.98 C662.04,353.96 661.04,357.28 661.21,358.36 C661.41,359.72 667.09,363.77 679.39,371.30 C696.01,381.48 697.62,382.25 702.16,382.15 C707.81,382.02 720.48,378.02 727.00,374.31 C734.94,369.78 746.84,356.63 745.69,353.64 C745.41,352.91 741.16,349.88 736.24,346.91 C731.32,343.93 714.29,333.47 698.40,323.65 C682.50,313.83 659.38,299.61 647.00,292.05 C631.90,282.82 623.78,277.24 622.32,275.10 C619.34,270.75 615.00,257.38 615.00,252.58 C615.00,249.23 617.22,245.25 630.66,224.59 C639.27,211.34 649.91,194.97 654.29,188.22 C658.68,181.46 662.05,175.71 661.78,175.44 C659.17,172.83 631.73,174.98 615.82,179.05 C575.87,189.25 540.96,213.20 527.13,239.91 C518.88,255.83 518.01,266.85 523.02,291.59 C529.52,323.68 531.19,335.23 531.71,351.50 C532.28,369.32 530.36,383.84 525.56,398.03 C522.30,407.64 521.77,408.46 490.86,451.00 C432.88,530.80 416.72,553.33 341.26,659.50 C310.61,702.62 313.93,698.77 302.43,704.49 C286.35,712.48 277.35,720.23 268.18,733.98 C258.81,747.99 253.78,769.53 255.94,786.35 C258.68,807.73 267.12,823.51 283.49,837.85 C293.75,846.83 308.22,853.69 321.75,855.97 C329.57,857.28 342.34,857.09 350.43,855.54 ZM 351.30 848.39 C385.23,840.83 408.97,811.03 408.99,775.96 C409.00,764.69 407.47,758.18 402.16,746.85 C395.19,731.97 382.54,719.43 366.50,711.49 C352.94,704.78 337.06,702.64 321.30,705.38 C305.73,708.09 294.68,714.28 282.49,727.12 C255.68,755.36 255.88,800.63 282.94,827.99 C290.49,835.62 300.26,842.14 309.00,845.38 C321.44,849.99 338.64,851.22 351.30,848.39 ZM 423.66 737.25 C436.33,715.65 471.54,656.01 484.93,633.50 C489.19,626.35 497.85,611.72 504.19,601.00 C549.98,523.48 586.97,461.57 590.54,456.50 C596.09,448.59 610.28,435.08 618.80,429.56 C631.25,421.51 649.25,413.37 673.00,405.04 C685.92,400.52 700.10,395.06 704.50,392.93 C712.60,389.00 722.60,382.26 721.69,381.35 C721.41,381.08 719.21,381.53 716.80,382.35 C714.38,383.17 709.61,384.34 706.20,384.96 C698.41,386.38 696.65,385.66 675.49,372.51 C667.08,367.28 659.51,363.00 658.69,363.00 C657.22,363.00 652.46,369.96 642.13,387.21 C639.26,392.00 635.77,396.82 634.38,397.92 L 631.84 399.91 L 626.67 396.59 C619.47,391.96 597.68,378.58 584.25,370.54 C578.06,366.84 572.76,363.42 572.46,362.93 C571.81,361.88 572.96,359.78 582.01,345.50 C585.84,339.45 592.00,329.64 595.68,323.69 C601.56,314.20 602.66,312.95 604.63,313.44 C605.87,313.75 612.87,317.74 620.19,322.30 C644.14,337.21 657.37,345.49 658.39,346.18 C659.04,346.62 658.97,347.77 658.19,349.49 C657.15,351.77 633.98,389.53 630.75,394.20 C628.69,397.18 631.09,397.62 633.43,394.69 C636.70,390.59 658.07,355.55 660.21,350.77 C661.93,346.93 661.94,346.59 660.33,344.82 C659.40,343.78 657.03,341.97 655.07,340.79 C653.10,339.60 641.06,332.19 628.31,324.32 C615.56,316.44 604.45,310.00 603.64,310.00 C601.51,310.00 599.36,313.02 584.81,336.50 C567.85,363.87 568.52,362.52 570.80,364.80 C571.81,365.81 575.53,368.37 579.07,370.50 C582.60,372.63 595.33,380.39 607.35,387.76 C622.19,396.84 630.19,401.17 632.27,401.23 C636.11,401.34 637.25,399.96 649.27,380.74 C655.60,370.60 658.93,366.14 659.89,366.51 C664.25,368.18 699.01,390.46 698.71,391.39 C698.16,393.09 694.08,394.80 674.54,401.49 C633.89,415.40 614.96,425.87 597.44,444.14 C588.81,453.13 587.51,455.02 571.52,482.00 C564.50,493.83 548.33,521.05 535.58,542.50 C513.73,579.25 498.79,604.47 473.96,646.50 C468.11,656.40 454.77,678.90 444.32,696.50 C433.86,714.10 422.80,732.78 419.74,738.00 C410.84,753.16 412.01,752.77 406.63,742.35 C398.59,726.79 384.04,713.00 367.84,705.60 C357.75,700.99 349.39,699.03 336.75,698.31 C330.84,697.97 326.00,697.51 326.00,697.27 C326.00,697.04 330.87,690.02 336.81,681.67 C342.76,673.33 353.20,658.62 360.01,649.00 C399.47,593.24 466.83,499.50 506.07,445.72 C528.21,415.37 530.59,411.73 532.93,404.70 C534.13,401.10 535.65,397.72 536.31,397.20 C537.65,396.14 562.87,382.00 563.44,382.00 C564.38,382.00 584.59,405.73 591.97,415.50 C596.54,421.55 600.42,426.67 600.59,426.87 C600.77,427.08 601.61,426.98 602.46,426.65 C603.69,426.18 603.04,424.81 599.25,419.94 C587.15,404.38 575.97,390.93 570.01,384.76 L 563.50 378.03 L 548.12 386.81 L 532.74 395.58 L 530.91 401.54 C528.61,409.02 524.85,415.27 512.83,431.57 C495.58,454.98 431.47,543.71 408.84,575.50 C401.41,585.95 389.03,603.28 381.34,614.00 C373.65,624.72 360.68,642.95 352.51,654.50 C344.34,666.05 333.80,680.87 329.08,687.43 C324.36,694.00 320.20,699.85 319.84,700.43 C319.38,701.17 323.88,701.51 334.34,701.53 C348.29,701.55 350.14,701.78 357.50,704.33 C369.94,708.65 379.50,714.54 388.62,723.50 C397.86,732.59 403.63,740.96 407.59,751.05 C409.09,754.87 410.58,758.00 410.91,758.00 C411.23,758.00 416.97,748.66 423.66,737.25 ZM 431.86 711.21 C452.47,676.65 485.60,620.81 503.77,590.00 C510.10,579.28 523.70,556.33 534.00,539.00 C544.30,521.67 558.69,497.38 565.97,485.00 C583.56,455.14 586.54,450.79 596.45,440.64 C604.51,432.37 604.75,432.00 601.97,432.00 C599.44,432.00 598.37,430.94 593.62,423.75 C588.26,415.62 569.60,392.60 564.88,388.29 L 562.46 386.09 L 550.32 392.77 L 538.17 399.46 L 535.09 407.48 C532.51,414.21 528.00,421.00 507.16,449.57 C448.57,529.88 333.68,690.63 332.80,693.50 C332.63,694.07 335.93,694.78 340.53,695.17 C359.07,696.71 378.32,705.01 391.70,717.26 C396.66,721.80 406.25,734.21 409.44,740.22 C410.51,742.23 411.74,743.66 412.17,743.40 C412.60,743.13 421.46,728.65 431.86,711.21 ZM 614.23 411.50 C617.93,409.30 620.97,407.17 620.98,406.78 C620.99,406.38 619.54,405.30 617.75,404.39 C615.96,403.48 607.83,398.70 599.67,393.78 C591.51,388.86 584.58,385.08 584.27,385.39 C583.31,386.36 591.40,394.85 593.12,394.67 C594.01,394.58 598.29,396.79 602.62,399.58 C606.95,402.38 611.29,404.95 612.25,405.30 C614.80,406.23 614.42,407.21 610.44,409.92 C606.61,412.52 603.78,416.45 606.17,415.84 C606.90,415.65 610.53,413.70 614.23,411.50 ZM 607.76 408.00 C607.93,407.09 606.04,405.38 602.92,403.64 C597.86,400.80 597.82,400.80 599.06,403.14 C601.99,408.67 603.34,410.09 605.39,409.80 C606.54,409.64 607.61,408.83 607.76,408.00 ZM 627.48 404.04 C627.80,403.51 626.14,402.10 623.79,400.91 C621.43,399.73 613.20,394.92 605.50,390.23 C562.83,364.26 563.90,365.16 567.75,358.76 C568.83,356.97 574.05,348.37 579.35,339.65 C584.66,330.93 588.76,323.41 588.46,322.94 C588.17,322.47 579.96,317.27 570.22,311.38 C560.47,305.49 547.79,297.82 542.03,294.34 C532.16,288.36 528.99,287.00 529.00,288.75 C529.01,289.16 530.37,296.70 532.03,305.50 C533.70,314.30 535.72,325.88 536.53,331.24 C538.12,341.77 538.41,367.35 537.04,375.50 C536.57,378.25 536.57,380.90 537.03,381.38 C537.49,381.87 543.04,379.16 549.68,375.19 C565.13,365.96 564.50,366.14 568.32,369.71 C573.28,374.35 623.04,405.00 625.62,405.00 C626.31,405.00 627.15,404.57 627.48,404.04 ZM 666.50 394.55 C673.10,392.42 678.88,390.35 679.34,389.95 C680.08,389.31 663.83,378.97 662.16,379.02 C661.27,379.05 650.91,395.62 650.29,398.00 C649.73,400.15 648.19,400.48 666.50,394.55 ZM 629.50 386.08 C629.50,381.91 629.03,379.44 628.09,378.67 C627.01,377.78 626.58,377.78 626.27,378.70 C625.54,380.86 621.53,386.34 620.40,386.71 C619.80,386.90 618.23,386.20 616.92,385.13 L 614.53 383.20 L 616.27 378.35 C618.58,371.91 618.50,371.31 615.04,369.52 C612.28,368.09 612.01,368.12 611.04,369.93 C610.47,371.00 610.00,372.56 610.00,373.41 C610.00,374.26 608.85,375.71 607.44,376.63 C604.99,378.24 604.77,378.22 602.76,376.21 C600.76,374.21 600.72,373.82 602.02,368.43 C603.29,363.14 603.25,362.66 601.50,361.38 C598.89,359.47 598.75,359.53 596.50,363.75 C594.25,367.97 590.28,369.24 587.98,366.48 C586.84,365.11 586.92,363.98 588.50,359.18 C589.53,356.05 590.74,353.00 591.20,352.38 C594.00,348.61 599.24,327.94 597.36,328.05 C596.27,328.11 576.07,359.44 576.02,361.15 C576.01,361.51 580.61,364.60 586.25,368.02 C591.89,371.44 602.12,377.73 609.00,382.00 C623.76,391.16 627.16,393.02 628.50,392.62 C629.05,392.46 629.50,389.52 629.50,386.08 ZM 636.41 379.70 C641.30,371.24 646.95,350.00 644.30,350.00 C643.76,350.00 642.41,353.71 641.28,358.25 C640.16,362.79 637.68,370.65 635.77,375.71 C632.13,385.39 632.34,386.72 636.41,379.70 ZM 623.43 376.75 C626.42,369.96 632.73,350.37 633.16,346.50 C633.63,342.35 631.69,342.10 630.66,346.17 C629.11,352.31 621.74,374.47 620.32,377.28 C619.08,379.75 619.22,382.00 620.61,382.00 C620.89,382.00 622.15,379.64 623.43,376.75 ZM 634.31 371.75 C635.18,369.41 636.62,364.62 637.51,361.10 C638.97,355.34 638.98,354.55 637.59,353.16 C636.74,352.31 635.89,351.82 635.69,352.06 C635.49,352.30 633.72,357.22 631.74,363.00 C629.18,370.50 628.46,373.85 629.20,374.75 C631.09,377.01 632.70,376.06 634.31,371.75 ZM 712.16 374.03 C720.83,371.35 730.81,365.16 734.81,359.98 C737.49,356.50 737.87,355.47 736.81,354.51 C736.09,353.85 728.97,349.34 721.00,344.48 C713.03,339.62 700.20,331.73 692.50,326.96 C684.80,322.18 668.38,312.07 656.00,304.49 C623.79,284.77 609.86,275.72 598.64,267.22 C590.19,260.83 588.42,258.97 586.26,254.26 C581.68,244.25 584.69,233.90 597.57,215.29 C604.97,204.60 605.79,203.00 603.86,203.00 C600.79,203.02 582.30,212.26 573.13,218.36 C550.71,233.29 535.74,255.99 538.76,270.50 C539.55,274.33 540.12,274.76 560.70,287.46 C572.32,294.63 583.21,301.31 584.89,302.29 L 587.94 304.08 L 592.50 297.89 C595.01,294.48 596.93,291.29 596.77,290.81 C596.61,290.32 592.02,287.13 586.57,283.71 C581.12,280.30 576.49,276.99 576.29,276.37 C575.66,274.48 578.84,273.98 580.56,275.71 C583.15,278.29 611.43,296.15 657.00,323.98 C667.17,330.19 676.95,336.35 678.72,337.66 L 681.93 340.05 L 678.39 346.50 C676.44,350.04 675.11,353.36 675.42,353.87 C676.29,355.28 696.04,367.33 699.68,368.67 C705.29,370.74 720.42,365.50 725.94,359.58 C728.06,357.31 728.19,356.78 726.94,355.62 C725.54,354.33 697.88,337.07 669.50,319.79 C625.44,292.97 600.74,277.11 592.24,270.20 L 587.98 266.74 L 578.42 271.36 C573.17,273.90 569.10,276.36 569.39,276.82 C569.67,277.28 574.71,280.55 580.57,284.08 C586.44,287.61 591.45,291.05 591.71,291.71 C592.28,293.17 588.32,299.00 586.77,299.00 C584.97,299.00 547.74,275.79 544.62,272.72 C541.96,270.11 541.78,269.48 542.34,264.69 C543.65,253.59 552.90,239.72 566.71,228.17 C575.87,220.50 595.00,209.27 595.00,211.56 C595.00,211.88 593.04,215.37 590.65,219.32 C584.03,230.24 581.84,235.82 581.26,243.20 C580.88,248.06 581.18,251.01 582.37,253.97 C585.17,260.95 585.12,261.00 571.13,267.93 L 558.26 274.31 L 553.88 271.33 C549.78,268.55 549.51,268.09 549.69,264.12 C549.96,258.37 555.92,247.93 562.93,240.96 C569.06,234.86 575.81,229.48 576.49,230.15 C576.72,230.39 576.22,233.27 575.36,236.54 C573.89,242.16 573.97,246.58 575.66,255.07 C576.20,257.74 575.81,258.08 567.13,262.43 C562.13,264.95 557.36,267.00 556.52,267.00 C554.53,267.00 554.56,268.89 556.55,269.66 C558.29,270.32 567.79,266.52 575.65,262.03 L 580.79 259.08 L 579.44 255.29 C576.60,247.32 578.20,235.25 583.45,225.10 C584.37,223.32 584.98,221.44 584.81,220.92 C584.12,218.86 571.03,227.98 562.43,236.50 C552.42,246.43 548.77,251.95 546.53,260.55 C544.02,270.17 543.18,269.27 570.42,285.95 C583.93,294.23 588.00,295.89 588.00,293.11 C588.00,292.59 583.39,289.41 577.75,286.04 C566.65,279.41 562.25,276.35 563.01,275.77 C565.39,273.96 586.56,264.00 588.03,264.00 C589.07,264.00 591.41,265.28 593.22,266.84 C600.11,272.79 620.11,285.77 666.00,314.06 C732.54,355.09 730.71,353.95 731.99,355.48 C732.90,356.58 732.27,357.71 728.93,360.95 C722.17,367.51 706.35,374.06 700.69,372.64 C697.89,371.93 675.28,358.54 672.67,356.03 C670.89,354.33 670.93,354.07 673.98,348.03 C675.72,344.60 676.93,341.25 676.67,340.59 C676.42,339.93 666.38,333.36 654.36,326.00 C642.34,318.64 625.42,308.20 616.76,302.80 C608.10,297.41 600.79,293.00 600.51,293.00 C600.24,293.00 597.52,296.38 594.47,300.50 C591.42,304.62 588.71,308.00 588.46,308.00 C588.21,308.00 576.42,300.86 562.26,292.14 L 536.52 276.28 L 535.68 272.01 C535.17,269.43 535.25,265.36 535.89,261.72 C539.99,238.44 565.92,213.97 600.71,200.55 C608.96,197.37 614.00,196.19 614.00,197.44 C614.00,197.68 611.28,201.48 607.97,205.88 C593.14,225.56 586.22,239.98 587.47,248.56 C587.82,250.95 589.33,254.15 591.12,256.32 C594.04,259.87 611.52,273.50 614.73,274.73 C618.35,276.11 613.93,271.59 604.48,264.22 C599.03,259.98 593.50,254.93 592.19,253.00 C587.20,245.67 591.23,234.60 606.71,213.13 C610.92,207.28 616.31,200.18 618.69,197.34 C625.72,188.93 625.30,188.80 608.00,194.25 C586.68,200.96 565.47,213.45 551.55,227.50 C538.66,240.50 532.08,253.88 532.03,267.20 C531.99,275.72 533.04,277.92 538.82,281.48 C541.39,283.06 550.70,288.71 559.50,294.04 C568.30,299.37 578.17,305.36 581.44,307.36 C584.71,309.36 588.08,310.99 588.94,310.98 C589.80,310.97 592.27,308.49 594.43,305.47 C601.19,296.03 599.37,295.89 618.05,307.35 C627.15,312.93 643.06,322.67 653.41,329.00 C663.75,335.33 672.43,341.03 672.69,341.69 C672.95,342.34 671.92,345.65 670.40,349.04 C668.45,353.38 667.92,355.65 668.59,356.71 C669.12,357.55 676.06,362.21 684.02,367.09 C700.23,377.00 701.51,377.32 712.16,374.03 ZM 610.26 363.75 C614.76,351.95 618.00,340.32 618.00,335.99 C618.00,330.97 616.61,333.43 614.19,342.72 C613.02,347.24 610.47,355.17 608.53,360.35 C606.59,365.54 605.00,370.50 605.00,371.39 C605.00,375.23 606.98,372.35 610.26,363.75 ZM 623.92 358.75 C625.61,353.66 627.00,348.81 627.00,347.96 C627.00,346.57 621.31,342.33 620.53,343.15 C620.36,343.34 618.73,348.18 616.92,353.90 L 613.64 364.29 L 615.93 366.15 C617.19,367.17 618.81,368.00 619.53,368.00 C620.29,368.00 622.13,364.12 623.92,358.75 ZM 596.74 354.73 C601.19,342.87 605.26,326.86 604.12,325.72 C603.56,325.16 602.99,325.52 602.66,326.65 C597.48,344.51 595.36,351.23 593.38,356.11 C590.69,362.72 590.45,364.34 592.25,363.76 C592.94,363.54 594.96,359.47 596.74,354.73 ZM 655.00 348.34 C655.00,347.33 643.15,339.78 613.30,321.76 C605.98,317.34 603.00,316.51 603.00,318.90 C603.00,319.33 604.12,320.19 605.50,320.82 C607.61,321.78 608.00,322.64 608.00,326.32 C608.00,330.00 608.39,330.86 610.50,331.82 C611.88,332.44 613.00,332.60 613.00,332.17 C613.00,331.74 613.60,330.56 614.33,329.56 C615.48,327.99 615.99,327.92 618.08,329.02 C621.44,330.80 622.05,332.02 621.39,335.63 C620.93,338.15 621.28,339.08 623.13,340.38 C626.20,342.53 627.66,342.42 628.29,340.01 C629.04,337.13 631.62,336.52 634.63,338.49 C636.91,339.99 637.17,340.70 636.70,344.17 C636.07,348.90 638.23,350.54 640.62,347.13 C642.50,344.45 645.15,344.41 647.51,347.01 C649.13,348.80 649.21,349.59 648.17,354.09 C646.24,362.44 646.80,362.82 651.00,356.00 C653.20,352.42 655.00,348.98 655.00,348.34 ZM 606.83 356.25 C608.71,351.39 612.00,339.84 612.00,338.06 C612.00,336.48 607.48,333.12 606.64,334.08 C606.44,334.31 604.81,339.36 603.03,345.31 C599.89,355.75 599.84,356.17 601.64,357.53 C604.40,359.62 605.64,359.31 606.83,356.25 ZM 555.53 264.95 C555.89,264.37 559.94,262.16 564.54,260.04 L 572.91 256.17 L 571.95 252.84 C571.43,251.01 571.00,247.15 571.00,244.26 C571.00,241.37 570.62,239.00 570.15,239.00 C569.69,239.00 566.75,241.68 563.63,244.95 C557.91,250.94 553.03,259.59 553.01,263.75 C553.00,266.09 554.41,266.76 555.53,264.95 ZM 618.00 223.33 C643.04,185.08 644.92,182.07 644.06,181.54 C642.84,180.79 637.12,187.49 623.73,205.32 C609.63,224.10 604.56,231.60 601.45,238.29 C598.44,244.74 598.38,247.38 601.19,250.19 L 603.38 252.38 L 604.53 247.27 C605.37,243.54 609.01,237.06 618.00,223.33 ZM 318.50 845.12 C293.84,839.03 276.09,821.94 267.99,796.50 C264.94,786.93 264.89,770.84 267.88,759.65 C273.04,740.29 287.29,722.40 304.00,714.28 C315.86,708.52 325.61,706.57 338.93,707.30 C352.10,708.01 360.05,710.42 371.06,717.03 C380.56,722.73 385.10,726.79 391.72,735.50 C408.45,757.48 410.47,784.99 397.23,810.46 C391.77,820.96 378.80,833.53 367.86,838.90 C351.80,846.79 334.23,849.01 318.50,845.12 ZM 349.30 842.37 C357.49,840.52 371.36,834.69 368.77,834.19 C366.94,833.84 338.79,841.43 336.11,843.00 C333.43,844.57 341.24,844.19 349.30,842.37 ZM 330.95 841.53 C334.80,839.54 367.37,830.19 373.27,829.38 C377.66,828.77 378.07,828.47 378.98,825.11 C379.52,823.13 382.90,816.55 386.50,810.50 C390.09,804.45 394.26,797.37 395.77,794.76 C397.27,792.16 399.03,790.02 399.68,790.01 C401.36,789.99 402.29,786.41 401.16,784.29 C399.60,781.38 392.27,751.02 391.53,744.40 L 390.84 738.31 L 383.75 734.90 C374.72,730.57 353.72,716.90 350.19,713.07 L 347.50 710.14 L 325.00 715.95 C312.62,719.14 300.65,722.26 298.39,722.88 C294.79,723.86 294.05,724.58 292.55,728.52 C290.37,734.22 277.89,755.09 273.21,760.88 L 269.66 765.25 L 271.86 773.38 C274.84,784.39 280.00,809.64 280.00,813.19 C280.00,815.05 280.61,816.25 281.75,816.60 C286.21,817.98 290.94,820.57 305.31,829.49 C313.81,834.77 321.57,839.97 322.54,841.05 C324.65,843.38 327.10,843.52 330.95,841.53 ZM 314.88 839.17 C310.84,836.08 286.78,821.89 286.33,822.34 C285.24,823.43 298.20,833.37 305.41,836.97 C314.16,841.33 319.25,842.51 314.88,839.17 ZM 392.06 812.65 C395.74,807.09 400.53,796.19 399.67,795.34 C399.18,794.84 384.35,819.71 383.47,822.50 C382.58,825.32 387.12,820.11 392.06,812.65 ZM 272.89 791.63 C269.77,777.25 267.32,771.94 268.57,782.25 C269.86,792.99 274.21,808.12 275.59,806.74 C275.86,806.48 274.64,799.68 272.89,791.63 ZM 402.65 771.15 C401.83,762.36 396.91,746.75 395.43,748.24 C394.88,748.79 402.05,778.00 402.74,778.00 C403.04,778.00 403.00,774.92 402.65,771.15 ZM 281.18 743.05 C283.94,738.40 286.61,733.45 287.10,732.05 C287.85,729.92 287.44,730.15 284.64,733.38 C281.06,737.52 274.65,748.86 273.56,753.00 C272.91,755.44 272.93,755.46 274.53,753.50 C275.42,752.40 278.42,747.70 281.18,743.05 ZM 381.50 728.40 C373.17,721.39 358.69,712.98 357.30,714.36 C356.43,715.23 381.34,731.00 383.50,730.95 C384.05,730.94 383.15,729.79 381.50,728.40 ZM 318.86 714.41 C324.71,712.98 329.88,711.46 330.34,711.02 C332.76,708.72 310.97,713.34 307.00,715.97 C304.55,717.60 307.23,717.24 318.86,714.41 ZM 406.01 729.43 C391.43,709.03 368.98,695.60 344.25,692.48 C341.36,692.11 339.00,691.36 339.00,690.80 C339.00,690.24 340.27,688.15 341.82,686.14 C343.38,684.14 348.19,677.33 352.53,671.00 C368.59,647.58 474.95,499.00 507.88,454.00 C533.69,418.72 535.62,415.80 538.94,407.00 C540.95,401.64 541.24,401.37 550.25,396.50 C561.51,390.41 561.64,390.38 564.21,392.66 C572.24,399.81 596.00,431.19 596.00,434.65 C596.00,435.41 592.80,439.74 588.88,444.27 C584.37,449.49 577.56,459.63 570.28,472.00 C563.96,482.73 552.69,501.62 545.24,514.00 C537.79,526.38 526.09,545.95 519.24,557.50 C512.38,569.05 501.95,586.60 496.04,596.50 C479.47,624.30 460.10,657.11 451.48,672.00 C447.17,679.42 442.21,687.75 440.44,690.50 C438.67,693.25 432.61,703.38 426.98,713.00 C412.90,737.05 412.93,737.00 412.13,737.00 C411.75,737.00 408.99,733.59 406.01,729.43 ZM 417.14 723.25 C428.79,703.80 431.86,698.53 431.65,698.32 C431.53,698.19 428.29,699.24 424.46,700.64 C418.45,702.84 416.25,703.13 408.40,702.80 C400.61,702.48 398.35,701.95 392.74,699.19 C380.23,693.04 371.27,681.49 368.90,668.48 C366.50,655.34 367.64,655.18 357.00,670.10 C351.77,677.43 346.70,684.63 345.72,686.10 L 343.94 688.79 L 351.72 690.49 C362.00,692.75 372.44,696.85 381.22,702.06 C388.99,706.68 403.50,719.97 408.17,726.75 C409.78,729.09 411.41,731.00 411.80,731.00 C412.19,731.00 414.59,727.51 417.14,723.25 ZM 426.66 696.09 C434.01,692.70 437.77,689.45 442.36,682.52 C446.64,676.06 445.43,676.25 438.24,683.20 C428.75,692.36 422.73,695.24 412.00,695.77 C405.02,696.12 402.47,695.80 397.75,694.03 C389.78,691.02 382.09,683.77 378.41,675.79 C375.81,670.17 375.50,668.43 375.50,659.50 C375.50,652.35 376.03,647.99 377.35,644.19 C378.37,641.26 378.97,638.63 378.68,638.34 C377.66,637.33 372.04,648.52 371.40,652.85 C369.57,664.99 373.34,677.93 381.20,686.53 C390.20,696.37 398.91,700.15 411.50,699.68 C418.05,699.44 420.81,698.78 426.66,696.09 ZM 424.41 689.70 C432.64,685.89 441.67,676.14 451.75,660.19 C456.29,653.01 460.00,646.54 459.99,645.82 C459.99,645.09 456.72,642.51 452.74,640.09 C448.76,637.66 437.29,630.56 427.26,624.31 C417.22,618.06 408.45,612.73 407.76,612.47 C406.05,611.82 395.12,628.35 389.84,639.56 C386.15,647.40 385.57,649.56 385.20,657.10 C384.71,666.87 386.29,671.84 391.90,678.23 C396.92,683.95 402.77,686.30 410.79,685.83 C419.44,685.32 425.45,682.30 432.45,674.97 C438.75,668.36 451.40,649.49 450.72,647.72 C450.19,646.36 410.81,622.00 409.14,622.00 C407.57,622.00 400.37,633.01 396.21,641.78 C390.41,653.99 390.41,665.98 396.20,672.57 C400.37,677.32 404.32,679.20 410.06,679.15 C416.28,679.10 421.24,676.47 427.62,669.83 C433.25,663.96 441.00,652.90 441.00,650.72 C441.00,649.67 423.16,637.80 412.29,631.62 C410.49,630.60 404.52,639.32 401.54,647.31 C397.67,657.68 398.17,664.12 403.30,669.75 C405.71,672.40 411.57,672.79 415.81,670.60 C419.28,668.80 428.26,659.34 430.38,655.24 L 432.00 652.10 L 427.75 649.21 C421.57,645.00 414.49,641.00 413.24,641.00 C411.59,641.00 407.10,650.89 406.40,656.10 C405.66,661.52 407.14,665.00 410.18,665.00 C412.24,665.00 422.00,656.22 422.00,654.36 C422.00,653.85 420.65,652.63 418.99,651.65 C416.10,649.95 415.96,649.95 415.34,651.69 C412.32,660.26 409.98,662.70 410.02,657.25 C410.05,654.02 413.48,646.00 414.84,646.00 C416.32,646.00 425.34,652.37 425.76,653.72 C425.98,654.40 423.28,657.88 419.78,661.47 C412.32,669.12 408.75,670.03 404.97,665.25 C403.14,662.95 402.87,661.60 403.28,656.99 C403.94,649.52 409.97,637.00 412.90,637.00 C415.02,637.00 436.00,650.29 436.00,651.63 C436.00,653.52 427.68,664.16 422.28,669.18 C415.48,675.49 410.45,676.88 404.62,674.06 C396.04,669.91 393.50,658.70 398.42,646.73 C401.38,639.54 408.89,627.00 410.24,627.00 C410.79,627.00 418.84,631.76 428.12,637.58 C439.04,644.42 445.00,648.75 444.99,649.83 C444.99,652.39 435.32,666.58 429.56,672.48 C422.69,679.51 417.07,682.31 409.79,682.33 C402.00,682.34 395.86,678.55 391.71,671.16 C386.11,661.20 387.93,649.46 397.73,632.33 C400.36,627.76 403.85,622.42 405.50,620.47 L 408.50 616.92 L 426.50 628.22 C436.40,634.43 446.67,640.79 449.31,642.34 C451.96,643.89 454.37,645.79 454.67,646.57 C454.96,647.35 452.63,652.15 449.48,657.24 C435.12,680.43 424.34,689.15 409.90,689.24 C393.83,689.34 382.00,676.58 382.00,659.14 C382.00,643.46 386.51,635.07 423.59,581.71 C427.50,576.09 431.41,571.36 432.29,571.19 C433.83,570.89 475.38,596.18 476.60,598.17 C477.76,600.04 475.84,600.44 473.19,598.88 C470.68,597.41 460.42,591.08 441.67,579.46 C435.64,575.73 433.47,574.84 432.23,575.62 C431.35,576.18 425.76,583.79 419.82,592.54 C411.30,605.08 409.27,608.69 410.25,609.62 C413.52,612.73 459.81,641.00 461.62,641.00 C465.82,641.00 460.08,636.82 429.25,617.45 C420.06,611.68 415.08,607.97 415.25,607.00 C415.76,604.00 432.51,580.05 434.12,580.03 C435.01,580.01 439.06,582.15 443.12,584.79 C447.18,587.42 455.15,592.43 460.84,595.93 C466.52,599.43 471.40,602.87 471.67,603.57 C472.19,604.95 462.36,621.00 460.99,621.00 C459.18,621.00 434.00,604.57 434.00,603.38 C434.00,602.68 435.01,600.94 436.25,599.51 L 438.50 596.91 L 447.00 602.25 C451.67,605.19 456.06,607.93 456.75,608.35 C457.52,608.83 458.00,608.58 458.00,607.70 C458.00,605.58 437.70,592.45 436.02,593.49 C434.67,594.32 429.00,603.24 429.00,604.53 C429.00,605.57 457.34,624.04 461.19,625.52 C462.55,626.04 465.72,621.60 481.14,597.50 C492.27,580.12 497.00,572.34 496.99,571.46 C496.98,570.93 490.12,566.11 481.74,560.75 L 466.50 551.00 L 463.25 554.75 C461.46,556.81 460.11,559.14 460.25,559.93 C460.39,560.71 465.20,564.35 470.94,568.01 C476.69,571.67 481.55,575.16 481.75,575.76 C482.25,577.26 477.78,583.97 476.27,583.99 C474.48,584.01 445.00,564.95 445.00,563.78 C445.00,562.74 461.80,538.24 463.04,537.48 C463.43,537.23 473.81,543.55 486.11,551.52 C498.40,559.49 508.87,565.88 509.37,565.71 C509.87,565.54 514.02,559.35 518.59,551.95 C523.15,544.55 530.09,533.33 534.00,527.00 C537.91,520.67 542.55,513.03 544.32,510.00 C546.09,506.98 548.78,502.36 550.31,499.75 C554.49,492.60 552.78,494.05 547.95,501.75 C541.99,511.26 532.62,525.41 531.88,526.00 C531.54,526.28 529.47,529.42 527.28,533.00 C520.27,544.45 510.09,559.82 509.14,560.41 C508.64,560.73 500.41,555.96 490.86,549.82 C466.90,534.42 462.83,531.99 461.96,532.53 C460.76,533.27 439.00,564.71 439.03,565.65 C439.07,566.55 474.75,588.68 476.99,589.20 C478.15,589.46 488.65,574.26 487.82,573.52 C486.24,572.10 469.30,561.68 467.39,560.96 C465.28,560.16 465.08,559.72 466.01,557.99 C466.68,556.73 467.56,556.25 468.32,556.73 C474.15,560.39 490.96,572.13 491.40,572.85 C491.94,573.72 482.24,590.10 479.54,592.85 C478.44,593.98 474.76,592.05 457.04,581.00 C445.39,573.74 435.63,567.20 435.35,566.46 C434.61,564.54 460.35,528.47 462.33,528.63 C463.20,528.70 473.27,534.81 484.71,542.20 C496.14,549.60 506.05,555.97 506.72,556.36 C507.53,556.84 510.96,552.50 516.97,543.38 C521.94,535.85 526.00,529.08 526.00,528.34 C526.00,527.60 526.90,527.00 528.00,527.00 C532.47,527.00 529.42,523.60 518.75,516.70 C512.56,512.69 505.11,507.91 502.20,506.07 C498.60,503.80 497.08,502.25 497.46,501.25 C497.77,500.44 501.68,494.64 506.14,488.37 L 514.25 476.96 L 518.88 479.64 C521.42,481.12 526.79,484.54 530.82,487.24 C537.76,491.90 538.06,492.26 536.76,494.32 C536.01,495.52 534.07,498.64 532.45,501.25 C530.83,503.86 529.19,506.00 528.82,506.00 C527.44,506.00 516.00,498.73 516.00,497.85 C516.00,495.90 519.20,495.84 521.30,497.75 C522.51,498.85 524.48,500.26 525.68,500.87 C527.54,501.83 528.15,501.62 529.89,499.41 C531.95,496.80 533.49,493.15 532.81,492.48 C532.61,492.28 528.64,489.64 524.00,486.62 C518.41,482.98 515.18,481.44 514.43,482.06 C513.06,483.20 502.25,499.19 501.81,500.73 C501.64,501.33 508.25,506.14 516.50,511.40 C531.41,520.91 531.51,520.95 533.11,518.84 C537.98,512.42 551.08,489.66 550.61,488.44 C550.31,487.65 547.01,485.06 543.28,482.68 C539.55,480.30 530.97,474.83 524.21,470.52 C517.17,466.04 511.56,463.08 511.09,463.59 C510.64,464.09 504.05,473.27 496.45,484.00 C488.85,494.73 479.57,507.77 475.83,513.00 C472.09,518.22 469.03,522.78 469.02,523.11 C469.00,523.84 504.73,547.00 505.87,547.00 C506.59,547.00 516.00,532.84 516.00,531.75 C516.00,530.55 498.26,520.16 496.48,520.32 C494.13,520.53 493.83,518.14 496.04,516.75 C497.20,516.02 500.12,517.45 508.04,522.61 C513.79,526.37 518.95,529.48 519.50,529.52 C520.05,529.56 520.42,530.04 520.32,530.58 C519.91,532.84 508.13,550.52 506.86,550.78 C506.10,550.93 498.73,546.65 490.49,541.26 C482.25,535.87 473.14,529.96 470.25,528.13 C467.36,526.29 465.00,524.32 465.00,523.74 C465.00,522.69 473.35,510.79 498.48,476.00 C505.83,465.83 516.58,450.93 522.36,442.90 C537.66,421.65 544.94,415.98 556.93,416.01 C570.87,416.04 582.30,429.98 580.61,444.88 L 579.97 450.50 L 581.98 447.50 C585.85,441.71 583.90,429.98 577.84,422.62 C568.93,411.82 556.52,409.68 542.42,416.52 C537.79,418.76 535.95,420.90 521.49,440.74 C490.45,483.35 464.01,520.04 437.00,558.00 C421.93,579.17 405.91,601.67 401.38,608.00 C383.30,633.28 377.33,647.15 378.16,661.89 C379.50,685.46 403.02,699.60 424.41,689.70 ZM 470.09 626.75 C472.99,622.21 478.15,614.22 481.55,609.00 C495.95,586.87 506.16,569.85 505.71,568.68 C505.16,567.26 467.80,543.02 465.05,542.30 C463.71,541.95 461.66,544.22 456.63,551.67 C452.98,557.08 449.99,562.07 449.99,562.77 C450.00,563.47 454.39,566.89 459.75,570.37 C474.44,579.91 475.80,580.60 477.12,579.28 C479.15,577.25 477.42,575.55 466.61,568.97 C460.43,565.21 456.00,561.87 456.00,560.96 C456.00,559.34 464.54,547.00 465.66,547.00 C466.95,547.00 500.93,569.53 500.96,570.41 C501.02,571.83 489.52,590.58 475.61,611.76 L 462.96 631.03 L 460.23 629.16 C458.73,628.14 453.90,625.04 449.50,622.28 C430.13,610.13 423.87,605.89 424.18,605.12 C425.35,602.12 434.72,589.02 435.70,589.01 C436.71,589.00 459.88,602.94 462.30,605.02 C463.02,605.63 459.41,613.00 458.39,613.00 C458.17,613.00 454.27,610.61 449.74,607.70 C445.21,604.78 440.97,602.08 440.32,601.68 C439.67,601.29 438.86,601.42 438.52,601.97 C437.55,603.54 459.17,617.10 460.67,615.86 C463.02,613.91 468.16,605.06 467.53,604.05 C467.18,603.48 464.78,601.80 462.20,600.30 C459.61,598.80 452.60,594.49 446.62,590.73 C440.63,586.97 435.15,584.11 434.43,584.39 C433.71,584.67 429.90,589.69 425.96,595.56 C419.97,604.48 419.02,606.45 420.15,607.55 C422.36,609.72 462.40,634.96 463.65,634.98 C464.29,634.99 467.18,631.29 470.09,626.75 ZM 556.03 490.45 C557.24,488.49 558.06,486.72 557.85,486.51 C557.64,486.31 556.45,487.90 555.20,490.07 C552.38,494.97 553.05,495.27 556.03,490.45 ZM 560.25 476.01 C563.41,471.08 566.00,466.47 565.99,465.77 C565.99,465.07 563.17,462.74 559.74,460.58 C556.31,458.43 549.45,454.12 544.50,451.01 C539.55,447.90 533.84,444.35 531.81,443.13 L 528.12 440.91 L 521.58 449.71 C517.98,454.54 515.02,458.98 515.01,459.56 C515.00,460.94 551.37,484.95 553.50,484.97 C554.05,484.97 557.09,480.94 560.25,476.01 ZM 573.22 457.25 C578.35,447.65 578.81,438.28 574.56,430.15 C571.42,424.14 563.36,419.00 557.07,419.00 C552.81,419.00 545.07,421.78 541.21,424.69 C539.40,426.05 536.11,429.45 533.90,432.24 C530.61,436.41 530.12,437.55 531.20,438.61 C533.66,441.05 567.50,461.88 569.09,461.94 C570.00,461.97 571.77,459.96 573.22,457.25 ZM 590.92 437.59 L 593.19 435.17 L 590.41 430.34 C585.34,421.50 578.38,413.61 572.58,410.11 C568.05,407.39 565.60,406.63 559.97,406.23 C550.89,405.58 541.28,407.54 540.43,410.21 C540.10,411.28 540.03,412.36 540.29,412.63 C540.55,412.89 543.63,412.13 547.13,410.94 C558.39,407.13 569.60,409.73 577.63,418.01 C582.61,423.14 585.84,429.32 586.62,435.23 C586.97,437.85 587.57,440.00 587.95,440.00 C588.34,440.00 589.67,438.91 590.92,437.59 ZM 570.00 404.44 C570.00,404.13 568.12,401.69 565.82,399.01 L 561.63 394.16 L 556.07 397.00 C553.00,398.56 549.60,400.57 548.50,401.47 C546.62,403.01 546.88,403.07 553.00,402.52 C557.37,402.13 560.97,402.41 564.00,403.37 C569.32,405.06 570.00,405.18 570.00,404.44 ZM 540.82 361.09 C541.30,344.07 540.27,333.33 535.91,310.17 C534.22,301.18 533.06,293.61 533.34,293.33 C533.62,293.05 536.02,294.08 538.67,295.61 C549.16,301.67 582.58,322.30 583.85,323.50 C584.97,324.55 583.67,327.30 576.22,339.63 C571.28,347.81 566.29,356.39 565.13,358.69 C563.97,361.00 561.55,364.00 559.76,365.37 C555.42,368.67 542.81,376.00 541.46,376.00 C540.73,376.00 540.53,371.26 540.82,361.09 ZM 552.53 366.38 C556.72,363.84 560.51,360.81 560.96,359.63 C561.40,358.46 566.09,350.31 571.37,341.53 C576.64,332.75 580.63,325.25 580.23,324.86 C579.52,324.19 567.96,317.04 547.69,304.74 C542.29,301.47 537.68,298.99 537.43,299.23 C537.19,299.48 538.07,305.04 539.40,311.59 C543.05,329.69 544.30,341.10 544.34,356.75 C544.36,364.59 544.50,371.00 544.65,371.00 C544.80,371.00 548.35,368.92 552.53,366.38 ZM 659.86 388.01 C661.31,385.26 662.85,383.01 663.27,383.01 C664.94,382.99 672.04,388.13 671.52,388.97 C670.92,389.93 661.17,393.00 658.70,393.00 C657.54,393.00 657.79,391.91 659.86,388.01 ZM 695.50 362.73 C686.21,357.59 680.96,354.05 680.37,352.51 C680.07,351.74 681.26,348.41 683.02,345.12 C684.77,341.83 685.91,338.67 685.56,338.09 C685.20,337.51 682.34,335.52 679.20,333.66 C660.13,322.34 618.40,296.40 606.50,288.47 C583.70,273.27 583.83,273.38 585.43,272.06 C586.55,271.13 588.03,271.79 592.67,275.29 C604.32,284.06 614.74,290.66 683.00,332.48 C702.53,344.44 719.29,354.92 720.26,355.77 C721.86,357.19 721.88,357.48 720.44,359.07 C718.38,361.35 710.33,364.78 705.40,365.49 C702.22,365.95 700.39,365.44 695.50,362.73 ZM 712.82 360.00 C715.20,358.92 716.88,357.62 716.57,357.11 C715.30,355.05 690.84,340.85 689.47,341.37 C688.66,341.68 686.99,344.02 685.76,346.57 L 683.50 351.20 L 686.00 353.19 C687.38,354.28 690.96,356.71 693.97,358.59 C700.44,362.63 706.09,363.05 712.82,360.00 ZM 559.00 257.93 C559.00,256.55 563.42,249.73 565.35,248.13 C566.76,246.96 567.11,247.15 568.06,249.64 C568.67,251.23 568.79,253.08 568.33,253.81 C567.23,255.54 559.00,259.18 559.00,257.93 ZM 321.50 836.67 C319.30,834.93 309.82,828.88 300.43,823.23 L 283.36 812.95 L 281.54 803.23 C280.55,797.88 278.44,788.19 276.87,781.69 C275.29,775.19 274.00,768.69 274.00,767.23 C274.00,765.78 275.74,762.09 277.87,759.04 C280.00,755.99 285.40,747.22 289.88,739.54 L 298.03 725.59 L 317.24 720.81 C327.81,718.18 338.64,715.25 341.31,714.29 C345.98,712.61 346.21,712.62 347.19,714.38 C348.21,716.20 367.07,728.89 380.63,736.88 C387.26,740.79 387.80,741.37 388.42,745.20 C388.78,747.47 391.14,757.79 393.66,768.13 L 398.25 786.94 L 391.77 796.72 C388.21,802.10 382.87,810.89 379.90,816.25 C375.81,823.62 373.89,826.14 372.00,826.60 C361.83,829.05 336.18,836.32 331.83,837.97 C328.90,839.09 326.27,839.96 326.00,839.92 C325.73,839.88 323.70,838.42 321.50,836.67 ZM 346.54 830.16 C356.42,827.38 366.30,824.62 368.50,824.04 C372.14,823.08 372.90,822.25 377.00,814.80 C379.48,810.30 384.48,801.87 388.13,796.06 L 394.75 785.50 L 390.96 770.00 C388.87,761.47 386.65,751.92 386.02,748.78 L 384.87 743.06 L 376.18 737.85 C365.06,731.18 350.13,721.30 347.32,718.75 L 345.13 716.77 L 327.82 721.27 C318.29,723.75 308.14,726.32 305.25,726.99 C302.36,727.65 300.00,728.49 299.99,728.85 C299.99,729.21 295.50,736.70 290.01,745.50 C284.52,754.30 279.33,762.75 278.48,764.27 C277.03,766.85 277.16,768.10 280.39,782.77 C282.30,791.42 284.39,801.29 285.05,804.71 L 286.24 810.92 L 302.87 821.12 C312.02,826.73 321.07,832.37 323.00,833.67 C324.92,834.96 326.96,835.84 327.53,835.63 C328.10,835.41 336.65,832.95 346.54,830.16 ZM 404.42 716.88 C393.08,705.38 376.44,694.99 360.50,689.46 C356.10,687.93 352.17,686.40 351.77,686.06 C350.71,685.16 361.90,668.80 363.26,669.25 C363.88,669.46 364.68,670.73 365.04,672.07 C368.29,684.22 378.31,695.58 391.58,702.15 C400.13,706.39 400.60,706.50 410.71,706.62 C416.41,706.69 421.30,706.97 421.59,707.25 C422.12,707.79 413.44,722.61 412.11,723.43 C411.69,723.69 408.23,720.74 404.42,716.88 ZM 414.72 714.21 L 417.20 710.00 L 410.05 710.00 L 402.90 710.00 L 406.67 714.51 C408.74,716.99 410.84,718.89 411.33,718.72 C411.83,718.56 413.35,716.53 414.72,714.21 ZM 366.23 682.25 C364.28,678.54 362.57,675.35 362.42,675.16 C362.08,674.73 356.00,683.06 356.00,683.96 C356.00,684.49 366.83,688.57 369.13,688.91 C369.48,688.96 368.18,685.96 366.23,682.25 ZM 489.67 532.36 C481.60,527.08 475.00,522.30 475.00,521.73 C475.00,521.17 478.75,515.48 483.33,509.10 C487.91,502.72 496.29,490.84 501.95,482.69 C508.08,473.89 512.75,468.08 513.49,468.36 C516.09,469.36 547.00,489.34 547.00,490.02 C547.00,490.64 532.49,513.81 531.41,514.91 C530.73,515.61 525.87,513.10 517.50,507.74 C504.79,499.59 505.34,500.88 511.15,492.89 C513.91,489.10 516.51,486.20 516.93,486.46 C522.59,489.96 528.48,494.39 528.40,495.10 C528.34,495.60 528.23,496.53 528.15,497.17 C528.06,497.88 527.11,497.56 525.75,496.36 C522.91,493.85 518.35,491.00 517.17,491.00 C516.07,491.00 510.52,498.85 511.17,499.50 C512.59,500.92 528.66,511.00 529.50,511.00 C530.05,511.00 533.27,506.61 536.65,501.25 C542.35,492.20 542.68,491.38 541.15,489.87 C538.63,487.37 513.78,472.02 513.02,472.49 C512.65,472.72 506.17,481.81 498.61,492.70 C491.06,503.59 483.47,514.42 481.75,516.77 L 478.61 521.04 L 480.96 522.68 C494.80,532.38 503.89,537.71 504.89,536.71 C505.50,536.10 505.98,535.13 505.96,534.55 C505.94,533.97 501.22,530.66 495.46,527.18 C489.71,523.71 485.00,520.39 485.00,519.81 C485.00,518.40 493.88,506.00 494.89,506.00 C495.86,506.00 521.93,522.69 523.96,524.61 C525.09,525.68 525.15,526.25 524.22,527.18 C523.30,528.10 522.52,527.91 520.76,526.31 C519.52,525.18 513.43,520.99 507.23,517.01 C494.86,509.07 494.97,509.08 490.90,515.67 C488.37,519.76 487.80,519.13 501.25,527.06 C506.06,529.90 510.00,532.65 510.00,533.16 C510.00,534.64 507.27,539.53 505.74,540.80 C504.64,541.72 501.33,539.98 489.67,532.36 ZM 536.03 470.06 C527.52,464.62 520.42,459.77 520.26,459.27 C519.99,458.46 522.32,454.68 527.20,448.02 L 528.89 445.71 L 536.20 450.04 C549.18,457.75 560.13,465.19 560.71,466.68 C561.28,468.17 554.34,479.12 552.50,479.65 C551.95,479.81 544.54,475.49 536.03,470.06 ZM 554.45 472.66 C555.85,470.82 556.98,468.68 556.95,467.91 C556.91,466.38 533.85,451.87 530.54,451.28 C529.07,451.02 527.83,451.97 526.10,454.67 C523.91,458.11 523.85,458.50 525.40,459.46 C526.33,460.03 532.36,463.97 538.79,468.20 C545.23,472.44 550.81,475.93 551.20,475.95 C551.58,475.98 553.05,474.50 554.45,472.66 ZM 565.46 456.18 C554.81,450.21 536.00,437.40 536.00,436.12 C536.00,433.99 544.41,426.27 548.69,424.49 C562.49,418.72 575.18,429.06 573.74,444.90 C573.45,448.07 572.27,452.13 571.02,454.25 C569.80,456.31 568.73,457.97 568.65,457.94 C568.57,457.91 567.13,457.12 565.46,456.18 ZM 569.95 449.25 C572.14,441.36 570.66,434.86 565.53,429.77 C562.10,426.37 557.07,425.36 551.65,426.99 C546.71,428.47 539.78,433.69 540.20,435.61 C540.57,437.29 564.84,452.86 567.20,452.94 C568.34,452.98 569.25,451.75 569.95,449.25 ZM 547.68 349.75 C547.16,337.78 545.08,321.87 542.44,309.75 C541.97,307.61 542.21,307.00 543.52,307.00 C545.86,307.00 575.97,325.24 575.99,326.67 C575.99,327.31 572.13,334.29 567.41,342.17 C559.44,355.46 552.44,364.00 549.52,364.00 C548.65,364.00 548.13,359.95 547.68,349.75 ZM 563.35 342.59 C569.26,332.76 571.89,327.49 571.23,326.83 C570.68,326.28 565.12,322.75 558.87,318.99 C545.60,311.01 546.02,310.72 548.46,326.06 C549.34,331.60 550.31,340.49 550.62,345.81 C551.25,356.98 551.55,358.32 553.24,357.75 C553.92,357.53 558.47,350.70 563.35,342.59 ZM 694.35 354.43 C688.27,350.97 688.21,350.90 689.33,347.95 C690.61,344.54 690.99,344.60 698.33,349.32 C701.17,351.15 704.75,353.42 706.28,354.37 C707.81,355.31 708.80,356.52 708.47,357.04 C707.18,359.13 700.41,357.88 694.35,354.43 ZM 321.50 829.27 C319.30,827.83 311.65,823.09 304.50,818.73 C297.35,814.38 290.96,810.30 290.29,809.66 C289.63,809.02 287.71,802.04 286.03,794.15 C284.35,786.26 282.26,776.97 281.39,773.50 L 279.80 767.19 L 286.73 756.35 C290.53,750.38 295.29,742.80 297.30,739.50 C299.31,736.20 301.34,732.92 301.81,732.21 C302.29,731.50 311.96,728.54 323.30,725.63 L 343.93 720.35 L 354.74 727.43 C360.68,731.32 369.17,736.80 373.61,739.60 L 381.68 744.71 L 386.42 764.32 C389.03,775.11 391.01,784.52 390.83,785.22 C390.65,785.92 385.87,794.22 380.22,803.65 L 369.94 820.80 L 361.72 823.00 C357.20,824.22 348.18,826.74 341.67,828.61 C335.16,830.47 328.86,831.97 327.67,831.94 C326.48,831.91 323.70,830.70 321.50,829.27 ZM 344.13 824.59 C352.58,822.17 361.17,819.87 363.21,819.49 C365.26,819.10 367.35,818.28 367.87,817.65 C368.39,817.02 373.13,809.35 378.42,800.62 L 388.04 784.73 L 385.60 774.62 C384.26,769.05 382.17,760.34 380.97,755.25 C379.76,750.16 378.48,746.00 378.13,746.00 C377.77,746.00 369.84,741.03 360.51,734.94 C351.17,728.86 342.85,724.07 342.02,724.28 C341.18,724.50 332.45,726.66 322.60,729.09 C305.07,733.41 304.66,733.57 302.48,737.00 C290.51,755.81 284.00,766.89 284.00,768.44 C284.00,769.89 288.71,793.21 291.48,805.50 C291.74,806.65 294.82,809.25 298.71,811.61 C302.45,813.87 310.40,818.71 316.38,822.36 C322.36,826.01 327.60,829.00 328.01,829.00 C328.43,829.00 335.68,827.02 344.13,824.59 ZM 539.75 464.44 C534.39,460.92 530.00,457.60 530.00,457.08 C530.00,454.71 532.23,455.51 540.97,461.03 C546.12,464.28 550.78,467.09 551.34,467.28 C552.48,467.66 551.50,471.04 550.28,470.93 C549.85,470.89 545.11,467.97 539.75,464.44 ZM 555.56 442.10 C550.64,438.94 546.45,435.84 546.24,435.21 C545.64,433.43 552.09,430.01 556.03,430.00 C560.22,430.00 563.46,432.05 565.51,436.01 C567.57,440.01 567.33,448.19 565.14,447.92 C564.79,447.87 560.48,445.25 555.56,442.10 ZM 564.00 441.45 C564.00,438.48 560.95,434.02 558.48,433.41 C555.60,432.68 551.00,433.63 551.00,434.94 C551.00,435.83 561.81,442.92 563.25,442.97 C563.66,442.99 564.00,442.30 564.00,441.45 ZM 554.51 340.31 C554.16,337.66 553.39,332.23 552.80,328.22 C552.20,324.22 551.93,320.74 552.18,320.49 C552.74,319.93 561.54,324.38 564.92,326.94 L 567.34 328.77 L 562.40 336.56 C559.69,340.84 556.94,344.52 556.30,344.73 C555.58,344.97 554.90,343.31 554.51,340.31 ZM 560.67 333.86 C561.86,332.15 562.63,330.19 562.37,329.51 C561.83,328.13 557.01,325.66 556.27,326.40 C555.58,327.08 557.06,337.00 557.84,336.98 C558.20,336.97 559.48,335.57 560.67,333.86 Z" fill="#C9A227"/>
</g>
</svg>