<svg xmlns="http://www.w3.org/2000/svg" width="500" height="500" viewBox="0 0 500 500">
<g>
<path d="M 71.69 441.14 C65.73,437.20 63.69,430.57 66.58,424.48 C69.56,418.20 71.97,417.39 89.93,416.69 C135.81,414.88 166.71,404.15 190.86,381.63 C199.12,373.92 209.63,358.03 214.89,345.26 C220.05,332.74 227.87,296.75 231.82,267.33 L 232.65 261.16 L 229.07 260.50 C227.11,260.14 224.26,258.67 222.75,257.23 C216.58,251.38 220.99,240.00 229.42,240.00 C232.47,240.00 233.00,239.67 233.00,237.73 C233.00,236.48 231.63,221.97 229.96,205.48 C226.72,173.63 223.37,139.22 222.33,127.25 L 221.71 120.00 L 218.46 120.00 C213.19,120.00 188.23,122.81 178.50,124.51 C164.51,126.94 133.35,135.32 131.53,137.14 C130.64,138.03 137.45,152.79 157.79,194.12 C168.79,216.47 178.08,235.68 178.44,236.82 C179.30,239.52 182.14,240.36 187.60,239.54 C191.79,238.91 192.00,238.99 192.00,241.35 C192.00,249.70 187.00,266.71 181.86,275.84 C176.89,284.66 163.02,297.81 154.00,302.24 C136.97,310.61 116.20,311.20 98.67,303.81 C76.44,294.43 59.33,269.61 58.67,245.78 L 58.50 239.76 L 64.80 239.63 L 71.10 239.50 L 84.10 212.00 C91.26,196.88 100.51,177.52 104.66,169.00 C112.43,153.04 116.33,144.00 115.73,143.39 C115.53,143.20 111.81,144.60 107.44,146.51 C98.51,150.41 95.36,150.74 90.28,148.33 C83.00,144.88 80.60,135.01 85.59,129.08 C88.34,125.81 108.45,115.23 126.90,107.35 C152.75,96.31 183.17,88.38 214.50,84.52 C221.53,83.65 227.67,82.70 228.14,82.41 C228.61,82.12 229.00,79.87 229.00,77.40 C229.00,66.75 239.03,57.01 250.00,57.01 C260.93,57.01 270.27,66.06 271.69,78.02 C272.33,83.43 272.06,83.28 283.00,84.52 C302.30,86.71 331.49,92.99 350.57,99.04 C372.74,106.09 410.42,123.97 414.17,129.24 C418.25,134.98 416.53,143.64 410.52,147.58 C405.65,150.77 400.99,150.51 392.03,146.57 C387.47,144.57 383.52,143.14 383.26,143.41 C382.99,143.67 390.53,160.00 400.01,179.69 C409.49,199.39 419.77,220.79 422.86,227.25 C428.46,238.94 428.51,239.00 431.99,239.01 C433.92,239.02 437.20,239.30 439.27,239.64 L 443.03 240.27 L 442.43 245.38 C439.50,270.18 424.89,292.20 404.94,301.84 C394.37,306.95 385.88,308.97 375.00,308.97 C359.55,308.97 345.37,303.90 333.29,294.04 C319.58,282.86 309.28,262.43 308.70,245.27 L 308.50 239.50 L 314.50 239.19 L 320.50 238.88 L 327.95 223.19 C332.05,214.56 341.42,195.12 348.77,180.00 C364.78,147.07 368.63,138.21 367.41,137.06 C366.05,135.79 343.12,129.37 330.00,126.59 C318.77,124.21 301.15,121.75 285.92,120.45 L 278.34 119.80 L 277.19 131.15 C276.56,137.39 274.89,154.65 273.48,169.50 C272.08,184.35 270.24,203.25 269.40,211.50 C268.56,219.75 267.62,229.54 267.29,233.25 L 266.71 240.00 L 270.67 240.00 C273.30,240.00 275.37,240.70 276.87,242.10 C283.88,248.63 281.03,258.82 271.71,260.54 L 267.91 261.24 L 268.53 265.87 C271.91,291.19 279.07,327.34 283.03,339.09 C291.68,364.77 311.82,387.88 336.53,400.49 C357.10,410.98 386.01,417.00 415.88,417.00 C423.54,417.00 425.86,417.37 428.53,419.02 C431.96,421.14 435.00,426.30 435.00,430.00 C435.00,433.66 431.84,439.12 428.58,441.11 C425.60,442.93 419.95,442.99 250.00,442.99 C80.94,442.99 74.40,442.92 71.69,441.14 ZM 425.45 438.58 C434.27,434.90 432.42,422.09 422.86,420.62 C421.01,420.33 412.52,419.88 404.00,419.61 C340.60,417.61 296.37,388.85 279.52,338.67 C275.61,327.00 265.04,274.17 264.99,266.00 C264.97,263.19 263.43,260.23 262.49,261.18 C261.67,261.99 267.42,301.98 270.62,317.78 C277.98,354.15 292.54,378.22 318.50,396.96 C341.42,413.50 368.06,421.23 407.00,422.64 C426.06,423.32 428.00,423.98 428.00,429.69 C428.00,431.70 427.26,434.17 426.35,435.17 C424.75,436.93 417.98,437.00 250.57,437.00 C57.15,437.00 72.00,437.55 72.00,430.44 C72.00,424.27 74.42,423.00 86.25,422.99 C106.17,422.97 130.58,419.37 146.91,414.03 C191.12,399.58 218.57,368.28 228.94,320.50 C231.15,310.28 236.66,276.52 237.64,267.19 C238.45,259.47 236.50,258.60 235.51,266.25 C234.20,276.31 226.85,316.56 224.93,324.18 C218.66,349.02 208.76,367.88 194.35,382.40 C171.06,405.88 138.77,418.08 96.00,419.56 C76.47,420.24 74.32,420.59 71.39,423.52 C68.78,426.13 68.17,431.57 70.08,435.15 C72.74,440.11 65.46,439.92 249.78,439.96 C396.14,439.99 422.57,439.79 425.45,438.58 ZM 423.39 433.09 C424.33,432.31 424.96,430.74 424.80,429.59 C424.51,427.58 423.76,427.47 405.50,426.85 C374.88,425.79 355.85,421.41 333.50,410.26 C299.70,393.40 277.49,363.87 268.63,324.00 C266.19,313.00 262.46,290.03 259.91,270.23 C259.25,265.13 258.50,261.17 258.24,261.42 C256.92,262.75 262.08,309.49 265.11,323.68 C274.58,367.92 302.85,401.98 343.50,418.11 L 350.50 420.88 L 343.94 420.94 C337.96,420.99 336.75,420.63 330.44,416.83 C304.91,401.48 284.20,379.79 273.31,357.00 C265.81,341.32 262.31,328.07 259.02,303.00 C257.84,293.92 256.50,284.02 256.05,281.00 L 255.24 275.50 L 255.13 281.00 C254.98,288.49 257.55,312.03 260.03,325.88 C262.00,336.92 266.88,351.81 271.52,361.00 C281.76,381.25 298.60,399.11 322.62,415.19 L 330.56 420.50 L 249.20 420.50 C194.49,420.50 168.41,420.17 169.56,419.50 C170.51,418.95 176.69,414.67 183.31,410.00 C216.90,386.27 234.19,358.97 240.50,319.69 C242.52,307.09 245.01,283.66 244.87,278.50 C244.77,274.80 243.88,280.42 239.51,312.38 C236.89,331.55 230.42,350.90 221.75,365.50 C209.96,385.34 190.04,404.63 168.20,417.33 C162.63,420.57 161.11,421.00 155.20,420.98 L 148.50 420.96 L 156.50 417.67 C189.20,404.19 212.54,381.48 226.76,349.30 C233.41,334.27 236.94,316.59 240.56,280.26 C242.34,262.31 242.05,256.12 240.12,271.02 C236.34,300.19 231.34,326.71 227.48,338.07 C220.80,357.69 211.28,373.63 198.63,386.36 C187.77,397.28 179.23,403.47 165.73,410.21 C141.91,422.09 119.16,427.00 87.86,427.00 C77.74,427.00 75.84,427.25 75.31,428.64 C74.96,429.54 75.14,431.00 75.70,431.89 C77.29,434.42 94.82,434.67 265.60,434.58 C398.49,434.51 421.95,434.29 423.39,433.09 ZM 187.42 413.43 C210.68,399.40 229.74,375.77 238.99,349.50 C244.22,334.65 246.97,319.44 247.50,302.50 L 247.97 287.50 L 246.02 301.36 C240.78,338.73 235.40,355.55 222.44,375.12 C215.80,385.14 201.71,399.52 189.15,409.08 C178.22,417.40 177.40,419.47 187.42,413.43 ZM 309.00 416.60 C309.00,416.38 304.97,413.20 300.05,409.54 C286.09,399.14 275.16,386.37 265.94,369.69 C258.55,356.32 255.32,346.86 250.32,324.00 C249.93,322.20 249.13,324.32 247.48,331.50 C239.76,365.06 223.33,391.55 199.10,409.50 C194.65,412.80 191.00,415.84 191.00,416.25 C191.00,416.66 217.55,417.00 250.00,417.00 C282.45,417.00 309.00,416.82 309.00,416.60 ZM 310.33 409.62 C299.92,401.80 285.78,387.82 279.84,379.50 C266.23,360.41 259.27,340.89 254.17,307.50 L 253.26 301.50 L 253.13 310.84 C252.71,341.00 269.42,377.78 293.58,399.92 C300.17,405.95 316.41,417.00 318.69,417.00 C319.50,417.00 315.74,413.68 310.33,409.62 ZM 136.82 304.54 C146.58,302.49 151.41,300.41 159.79,294.68 C168.98,288.39 176.27,279.76 181.05,269.50 C184.84,261.36 188.00,250.54 188.00,245.69 L 188.00 243.00 L 124.56 243.00 L 61.13 243.00 L 61.67 246.75 C64.70,267.74 73.35,283.44 87.41,293.47 C102.58,304.29 119.72,308.13 136.82,304.54 ZM 389.90 303.97 C400.98,301.32 408.61,297.11 417.64,288.67 C425.47,281.36 431.48,272.41 434.86,263.00 C436.94,257.21 439.00,248.24 439.00,244.95 C439.00,243.04 437.79,243.00 374.98,243.00 L 310.96 243.00 L 311.45 245.25 C311.73,246.49 312.39,250.08 312.94,253.23 C314.34,261.38 319.49,273.13 324.69,280.05 C333.72,292.06 345.24,300.01 358.79,303.60 C369.66,306.48 378.98,306.59 389.90,303.97 ZM 275.17 255.35 C276.33,254.30 277.00,252.30 277.00,249.90 C277.00,243.29 275.86,243.00 249.85,243.00 L 227.15 243.00 L 225.07 245.63 C222.45,248.97 222.44,252.02 225.04,254.81 C227.02,256.94 227.70,257.00 250.21,257.00 C270.33,257.00 273.58,256.78 275.17,255.35 ZM 121.94 192.75 L 121.88 145.50 L 117.94 153.50 C111.20,167.18 97.03,196.98 91.78,208.50 C89.02,214.55 84.80,223.43 82.38,228.23 C79.97,233.03 78.00,237.64 78.00,238.48 C78.00,239.79 80.98,240.00 100.00,240.00 L 122.00 240.00 L 121.94 192.75 ZM 173.18 239.39 C173.77,239.03 161.67,213.71 134.28,158.00 L 128.14 145.50 L 128.07 192.69 L 128.00 239.89 L 150.25 239.85 C162.48,239.83 172.80,239.62 173.18,239.39 ZM 238.55 233.25 C236.43,208.32 232.50,165.26 230.17,141.50 L 227.43 113.50 L 218.47 113.80 C182.55,114.98 142.83,124.41 106.35,140.42 C96.61,144.70 94.67,144.82 91.45,141.35 C85.97,135.44 88.98,131.96 107.58,122.68 C144.91,104.06 185.18,92.93 224.31,90.40 L 234.81 89.72 L 235.15 81.43 C235.53,72.53 236.80,69.73 242.39,65.56 C246.16,62.75 253.84,62.75 257.61,65.56 C263.09,69.65 264.33,72.36 264.80,81.35 L 265.24 89.74 L 274.87 90.43 C314.36,93.26 356.65,104.83 392.00,122.47 C407.40,130.16 410.00,132.18 410.00,136.48 C410.00,139.98 406.39,144.00 403.26,144.00 C402.44,144.00 397.22,142.03 391.64,139.62 C364.57,127.94 327.74,118.18 299.00,115.08 C287.82,113.88 273.32,113.34 272.56,114.11 C271.98,114.68 268.44,150.97 264.50,196.50 C260.85,238.80 260.84,239.00 261.85,239.00 C263.23,239.00 263.63,235.90 267.49,195.50 C273.71,130.51 275.03,117.64 275.53,117.14 C276.98,115.69 309.21,118.90 325.48,122.12 C347.03,126.38 372.06,133.97 389.69,141.59 C402.00,146.91 405.95,147.20 410.08,143.08 C414.12,139.04 414.13,133.84 410.11,130.15 C402.81,123.44 366.10,107.28 340.60,99.55 C322.46,94.05 285.12,87.04 273.85,87.01 L 269.20 87.00 L 268.49 80.75 C267.57,72.68 265.78,68.46 261.75,64.88 C253.42,57.49 241.49,59.23 234.93,68.80 C233.15,71.41 232.45,73.99 232.17,79.08 L 231.78 85.88 L 226.14 86.50 C184.54,91.08 159.75,97.45 121.50,113.38 C112.55,117.11 91.82,127.98 89.30,130.26 C82.94,136.03 87.47,145.93 96.50,145.98 C98.89,145.99 103.01,144.81 106.76,143.04 C137.25,128.61 180.28,118.42 217.50,116.80 L 224.50 116.50 L 225.71 128.50 C226.38,135.10 228.97,161.43 231.46,187.00 C236.48,238.56 236.66,240.00 238.11,240.00 C238.75,240.00 238.91,237.53 238.55,233.25 ZM 372.00 193.00 C372.00,167.15 371.76,146.00 371.46,146.00 C370.88,146.00 363.04,162.11 335.39,220.10 C330.78,229.78 327.00,238.21 327.00,238.85 C327.00,239.68 333.18,240.00 349.50,240.00 L 372.00 240.00 L 372.00 193.00 ZM 422.00 238.88 C422.00,238.27 414.63,222.41 405.62,203.63 C396.62,184.86 386.83,164.34 383.87,158.02 L 378.50 146.55 L 377.99 192.52 C377.72,217.81 377.63,238.84 377.80,239.25 C378.34,240.53 422.00,240.17 422.00,238.88 ZM 242.59 225.25 C241.20,196.06 234.38,107.06 233.46,106.13 C232.87,105.53 203.25,108.03 192.79,109.56 C177.79,111.77 160.42,115.65 147.89,119.61 C135.14,123.65 115.74,131.07 116.36,131.69 C116.58,131.91 122.10,130.25 128.63,127.99 C157.56,118.01 185.08,112.68 219.18,110.44 L 229.86 109.74 L 230.40 113.12 C231.23,118.25 237.82,189.17 239.97,216.00 C241.32,232.97 242.04,239.00 242.71,239.00 C243.00,239.00 242.95,232.81 242.59,225.25 ZM 259.39 219.00 C261.83,190.78 262.88,179.25 264.96,158.00 C266.02,147.27 267.44,132.09 268.13,124.25 C269.31,110.95 269.53,110.00 271.45,110.01 C276.14,110.03 298.33,112.12 309.50,113.58 C336.42,117.11 362.88,124.14 389.87,134.94 C395.58,137.22 400.45,138.88 400.69,138.64 C401.47,137.87 360.94,122.31 349.54,119.00 C326.59,112.34 303.19,108.38 280.75,107.36 C269.82,106.87 266.00,106.99 266.00,107.86 C266.00,108.49 264.89,121.50 263.54,136.76 C259.23,185.29 255.89,239.32 257.27,238.00 C257.56,237.73 258.52,229.18 259.39,219.00 ZM 244.05 152.50 C242.94,134.35 241.75,114.89 241.40,109.25 L 240.76 99.00 L 237.03 99.00 C221.50,99.00 190.06,103.19 172.60,107.58 C154.89,112.04 124.16,122.49 125.33,123.66 C125.50,123.84 131.01,122.16 137.57,119.93 C154.29,114.24 174.02,109.38 189.93,107.02 C202.99,105.08 225.31,103.00 232.97,103.00 L 236.66 103.00 L 237.89 118.75 C238.57,127.41 240.24,147.77 241.59,164.00 C242.95,180.23 244.38,200.02 244.78,208.00 L 245.50 222.50 L 245.78 204.00 C245.95,193.41 245.20,171.39 244.05,152.50 ZM 257.97 169.00 C259.58,149.48 261.45,126.64 262.13,118.26 L 263.36 103.02 L 268.43 103.48 C271.22,103.74 278.45,104.20 284.50,104.51 C307.07,105.67 340.96,112.49 363.86,120.49 C369.56,122.48 374.40,123.93 374.61,123.72 C375.22,123.12 357.54,116.48 346.50,113.17 C321.17,105.57 299.52,101.59 275.04,100.06 C266.54,99.52 259.46,99.21 259.31,99.36 C259.17,99.50 258.57,108.14 258.00,118.56 C257.42,128.98 256.51,142.90 255.96,149.50 C255.42,156.10 254.80,173.43 254.58,188.00 C254.37,202.57 254.39,212.25 254.62,209.50 C254.85,206.75 256.36,188.52 257.97,169.00 ZM 251.00 184.65 C251.00,181.23 251.67,168.09 252.49,155.46 C256.28,97.10 256.47,77.61 253.27,74.41 C251.41,72.55 248.52,72.62 246.57,74.57 C244.29,76.85 244.49,111.38 246.99,149.50 C248.08,166.00 248.97,182.34 248.98,185.81 C248.99,189.76 249.37,191.89 250.00,191.50 C250.55,191.16 251.00,188.08 251.00,184.65 ZM 96.81 139.32 C95.88,139.08 94.95,137.67 94.75,136.19 C94.44,133.96 94.25,133.80 93.58,135.25 C92.40,137.85 93.63,140.02 96.22,139.88 C97.81,139.80 97.99,139.63 96.81,139.32 ZM 406.41 137.72 C407.15,136.55 407.13,135.73 406.35,134.95 C405.55,134.15 404.95,134.70 404.15,137.00 C402.95,140.43 404.40,140.89 406.41,137.72 ZM 103.00 137.50 C104.38,136.71 105.05,136.07 104.50,136.07 C103.95,136.07 102.38,136.71 101.00,137.50 C99.62,138.29 98.95,138.93 99.50,138.93 C100.05,138.93 101.62,138.29 103.00,137.50 ZM 113.00 133.50 C114.38,132.71 115.05,132.07 114.50,132.07 C113.95,132.07 112.38,132.71 111.00,133.50 C109.62,134.29 108.95,134.93 109.50,134.93 C110.05,134.93 111.62,134.29 113.00,133.50 ZM 146.00 112.34 C174.10,103.12 196.94,98.55 223.50,96.83 C232.85,96.23 240.58,95.67 240.69,95.60 C240.79,95.52 241.15,91.87 241.49,87.48 C242.52,74.06 242.70,73.48 246.41,71.48 C249.33,69.90 250.19,69.84 252.91,70.96 C254.63,71.68 256.36,72.76 256.75,73.38 C257.15,74.00 257.92,79.45 258.48,85.50 L 259.50 96.50 L 274.50 97.13 C311.43,98.67 351.69,109.11 392.50,127.69 C393.05,127.94 392.67,127.47 391.66,126.65 C385.91,121.96 349.62,107.87 329.54,102.54 C309.60,97.24 282.42,93.00 268.35,93.00 L 262.19 93.00 L 261.61 88.25 C261.29,85.64 261.06,81.30 261.10,78.60 C261.22,70.18 254.64,64.88 246.77,67.05 C240.35,68.82 238.89,71.55 238.27,82.91 L 237.71 93.00 L 230.32 93.00 C205.71,93.00 168.50,101.10 137.50,113.22 C125.60,117.86 107.00,126.51 107.00,127.39 C107.00,127.59 112.74,125.28 119.75,122.26 C126.76,119.25 138.57,114.78 146.00,112.34 ZM 77.83 431.29 C77.28,430.63 77.05,429.72 77.33,429.28 C78.04,428.13 422.42,428.75 422.80,429.90 C422.97,430.40 422.65,431.10 422.08,431.45 C421.52,431.80 344.06,432.18 249.94,432.29 C117.37,432.45 78.60,432.23 77.83,431.29 ZM 136.50 424.39 C143.05,422.77 148.57,422.02 152.50,422.22 L 158.50 422.52 L 154.00 424.74 C150.12,426.65 147.91,426.95 138.00,426.91 L 126.50 426.87 L 136.50 424.39 ZM 344.50 424.44 L 340.50 421.90 L 348.50 422.43 C352.90,422.73 360.33,423.84 365.00,424.91 L 373.50 426.85 L 361.00 426.92 C349.26,426.99 348.26,426.84 344.50,424.44 ZM 160.84 424.40 C162.88,422.97 172.03,422.80 249.42,422.74 C328.20,422.69 335.92,422.83 338.08,424.34 C340.29,425.89 334.45,426.00 249.50,426.00 C165.89,426.00 158.74,425.87 160.84,424.40 ZM 112.44 302.04 C87.95,296.79 67.63,274.32 65.81,250.50 L 65.50 246.50 L 124.84 246.24 L 184.18 245.98 L 183.52 250.24 C181.45,263.69 176.49,274.27 168.01,283.33 C155.66,296.53 143.98,302.01 127.00,302.57 C121.22,302.76 114.67,302.52 112.44,302.04 ZM 138.36 298.42 C141.74,297.54 147.20,295.41 150.50,293.67 C157.75,289.84 169.29,278.57 173.74,270.97 C177.24,264.99 181.33,251.04 180.00,249.64 C178.72,248.29 177.00,249.88 177.00,252.40 C177.00,255.64 173.60,265.13 170.60,270.23 C156.17,294.86 126.18,303.82 100.21,291.26 C91.64,287.11 81.12,276.26 76.70,267.00 C74.73,262.88 72.74,257.25 72.29,254.50 C71.73,251.13 70.97,249.50 69.98,249.50 C67.10,249.50 69.91,261.05 75.27,271.26 C78.95,278.28 90.80,289.84 98.22,293.65 C110.25,299.82 125.75,301.67 138.36,298.42 ZM 134.11 294.00 C150.64,290.94 166.18,277.38 172.54,260.49 C175.40,252.88 175.60,250.44 173.42,249.61 C172.56,249.28 149.80,249.12 122.85,249.25 L 73.85 249.50 L 74.50 254.00 C75.64,261.85 81.65,272.86 88.41,279.50 C96.63,287.56 104.71,291.69 117.50,294.35 C121.33,295.15 128.76,294.99 134.11,294.00 ZM 360.64 301.48 C350.91,299.02 341.28,293.30 332.94,285.01 C323.38,275.52 317.89,264.41 316.37,251.49 L 315.72 246.00 L 375.36 246.00 C431.50,246.00 435.00,246.10 434.99,247.75 C434.95,251.95 431.64,263.05 428.42,269.74 C422.02,283.03 408.21,295.15 393.88,300.04 C385.56,302.88 369.04,303.60 360.64,301.48 ZM 390.64 297.91 C410.89,291.75 426.15,275.07 430.90,253.94 C431.68,250.50 431.56,250.00 430.01,250.00 C428.67,250.00 428.06,251.09 427.57,254.36 C426.36,262.45 420.55,272.67 412.72,280.50 C398.50,294.72 380.95,299.90 362.09,295.46 C343.22,291.01 326.63,273.86 322.91,254.94 C322.16,251.15 321.24,249.00 320.37,249.00 C318.60,249.00 318.64,250.83 320.57,258.28 C325.47,277.17 341.45,293.22 360.61,298.48 C368.42,300.62 382.62,300.36 390.64,297.91 ZM 385.27 293.53 C400.16,290.38 414.69,278.85 421.25,265.00 C425.27,256.53 426.72,251.06 425.20,250.13 C424.65,249.78 401.76,249.54 374.35,249.58 L 324.50 249.66 L 324.78 252.58 C325.27,257.73 329.12,266.81 333.46,273.05 C345.31,290.08 364.94,297.84 385.27,293.53 ZM 228.20 253.80 C226.58,252.18 226.68,248.51 228.38,247.10 C229.34,246.30 236.18,246.04 251.02,246.23 C269.62,246.47 272.42,246.71 273.34,248.17 C274.09,249.36 274.05,250.59 273.22,252.42 L 272.04 255.00 L 250.72 255.00 C235.47,255.00 229.06,254.66 228.20,253.80 ZM 271.00 250.00 C271.00,249.37 263.50,249.00 250.50,249.00 C237.50,249.00 230.00,249.37 230.00,250.00 C230.00,250.63 237.50,251.00 250.50,251.00 C263.50,251.00 271.00,250.63 271.00,250.00 ZM 117.76 291.01 C106.20,288.96 98.32,284.83 89.69,276.28 C84.79,271.42 79.52,262.09 78.38,256.25 L 77.75 253.00 L 124.38 253.00 L 171.00 253.00 L 171.00 255.11 C171.00,258.77 165.18,269.58 160.25,275.07 C149.14,287.44 132.62,293.64 117.76,291.01 ZM 138.23 285.92 C149.92,281.98 159.07,273.88 164.89,262.29 C167.49,257.11 167.53,256.00 165.12,256.00 C163.84,256.00 162.33,257.80 160.37,261.67 C150.78,280.63 131.31,288.51 110.01,282.06 C101.64,279.52 91.46,270.11 86.87,260.66 C84.75,256.31 82.80,254.89 81.61,256.82 C80.78,258.16 85.69,267.79 89.73,272.73 C100.47,285.86 121.46,291.57 138.23,285.92 ZM 137.49 279.92 C145.32,276.99 150.81,272.50 155.75,265.01 C160.47,257.86 160.94,256.00 158.05,256.00 C156.81,256.00 155.50,257.24 154.48,259.39 C151.57,265.54 146.15,270.80 139.23,274.21 C133.25,277.15 131.64,277.50 124.02,277.50 C116.89,277.50 114.58,277.07 109.84,274.85 C103.55,271.90 96.83,265.56 93.89,259.79 C92.64,257.33 91.26,256.00 89.98,256.00 C87.57,256.00 87.50,257.13 89.65,261.30 C94.00,269.75 102.03,276.72 111.22,280.03 C118.62,282.69 130.21,282.64 137.49,279.92 ZM 138.99 271.93 C143.05,269.76 146.67,266.83 149.15,263.69 C155.98,255.06 153.27,252.78 146.09,261.12 C140.11,268.06 133.72,270.98 124.45,270.99 C115.56,271.00 108.94,267.95 102.62,260.92 C98.30,256.12 95.00,254.59 95.00,257.39 C95.00,259.36 103.40,268.47 107.62,271.07 C117.32,277.07 128.75,277.38 138.99,271.93 ZM 136.01 266.54 C140.26,264.39 146.00,259.09 146.00,257.30 C146.00,256.27 141.52,256.00 124.56,256.00 C112.77,256.00 102.88,256.38 102.60,256.84 C102.12,257.61 106.02,261.73 110.24,264.92 C115.95,269.22 129.06,270.05 136.01,266.54 ZM 361.45 289.66 C353.60,287.08 344.88,281.65 339.97,276.28 C335.26,271.13 329.92,261.59 328.47,255.75 L 327.78 253.00 L 375.46 253.00 L 423.13 253.00 L 422.50 255.25 C418.93,267.82 408.15,280.39 395.68,286.53 C388.22,290.20 387.33,290.39 376.68,290.68 C369.30,290.88 364.12,290.54 361.45,289.66 ZM 387.50 286.81 C394.42,285.09 402.89,279.89 408.29,274.04 C413.33,268.58 419.31,258.31 418.35,256.76 C417.14,254.81 414.76,256.39 413.10,260.25 C410.41,266.51 403.92,274.20 398.29,277.82 C385.17,286.24 367.16,286.14 352.55,277.58 C347.11,274.40 339.58,266.24 336.82,260.56 C334.58,255.95 332.00,254.48 332.00,257.81 C332.00,260.49 338.53,270.89 343.24,275.72 C347.02,279.59 352.80,283.05 360.50,286.05 C367.64,288.82 378.20,289.12 387.50,286.81 ZM 387.62 280.52 C395.17,278.28 402.88,272.39 407.75,265.14 C412.45,258.15 412.98,256.00 410.02,256.00 C408.73,256.00 407.36,257.33 406.10,259.80 C403.28,265.33 396.65,271.53 390.16,274.72 C385.24,277.13 383.32,277.50 375.50,277.50 C367.84,277.50 365.65,277.10 360.82,274.84 C354.03,271.65 346.56,265.02 343.90,259.79 C342.64,257.33 341.26,256.00 339.98,256.00 C337.31,256.00 337.49,257.76 340.64,262.52 C346.38,271.19 351.64,275.43 361.89,279.65 C368.61,282.41 379.95,282.80 387.62,280.52 ZM 384.77 274.47 C387.60,273.64 391.83,271.48 394.18,269.70 C398.41,266.47 405.00,258.69 405.00,256.92 C405.00,254.54 401.38,256.47 397.26,261.06 C387.63,271.77 375.61,274.28 362.76,268.27 C358.41,266.23 355.05,263.74 352.44,260.62 C350.32,258.08 347.77,256.00 346.79,256.00 C344.32,256.00 344.53,257.05 347.93,261.75 C356.27,273.26 371.34,278.46 384.77,274.47 ZM 386.00 266.92 C390.29,264.98 398.00,258.48 398.00,256.80 C398.00,256.36 387.88,256.00 375.50,256.00 C360.37,256.00 353.00,256.35 353.00,257.06 C353.00,259.59 362.11,266.28 367.99,268.07 C372.88,269.55 381.37,269.01 386.00,266.92 ZM 111.00 262.54 C108.72,261.20 109.87,261.07 123.95,261.04 C136.31,261.01 139.15,261.25 138.15,262.25 C136.21,264.20 114.21,264.44 111.00,262.54 ZM 362.00 262.54 C359.72,261.20 360.87,261.07 374.95,261.04 C387.31,261.01 390.15,261.25 389.15,262.25 C387.21,264.20 365.21,264.44 362.00,262.54 Z" fill="rgba(0,0,0,1)"/>
</g>
</svg>