<svg xmlns="http://www.w3.org/2000/svg" width="505" height="330" viewBox="0 0 505 330">
<g>
<path d="M 51.00 313.03 C44.89,311.95 39.86,309.74 31.17,304.32 C23.56,299.59 16.74,297.00 11.84,297.00 C9.48,297.00 9.00,296.58 9.00,294.50 C9.00,292.27 9.41,292.00 12.84,292.00 C18.86,292.00 24.75,294.21 34.63,300.17 C45.98,307.01 50.71,308.39 60.75,307.79 C69.13,307.29 73.41,305.57 85.17,297.97 C93.72,292.44 100.36,290.66 110.42,291.19 C117.45,291.56 119.43,292.11 125.27,295.31 C128.97,297.34 134.81,300.54 138.25,302.42 C146.25,306.79 153.67,308.18 162.42,306.94 C169.83,305.89 173.31,304.33 183.31,297.60 C192.26,291.58 199.11,289.62 208.92,290.26 C213.09,290.53 217.40,291.07 218.50,291.47 C222.25,292.82 215.88,288.19 209.59,285.00 C199.65,279.96 194.01,280.85 180.00,289.70 C169.98,296.03 164.04,298.00 154.98,298.00 C146.60,298.00 139.38,295.56 128.70,289.14 C119.43,283.56 114.79,282.01 107.28,282.01 C100.32,282.00 95.03,283.93 83.85,290.54 C71.74,297.71 66.06,299.36 55.39,298.80 C46.63,298.34 45.10,297.74 26.74,287.59 C22.19,285.08 18.17,283.67 14.49,283.29 C9.23,282.74 9.00,282.60 9.00,279.81 C9.00,276.64 8.29,276.72 19.50,278.65 C21.15,278.94 27.67,282.03 34.00,285.51 C56.01,297.65 60.86,297.33 88.50,281.95 L 96.50 277.50 L 107.50 277.50 L 118.50 277.50 L 126.50 281.95 C142.82,291.01 145.66,292.20 152.25,292.73 C160.87,293.42 167.78,291.28 177.60,284.87 C187.99,278.09 192.46,276.62 200.94,277.23 C210.33,277.90 217.75,282.09 230.30,293.83 C250.67,312.87 259.36,312.84 279.88,293.66 C291.83,282.49 300.01,277.84 308.88,277.20 C316.65,276.64 321.14,278.08 331.02,284.29 C342.52,291.53 345.24,292.50 354.00,292.50 C361.99,292.50 364.64,291.49 383.38,281.26 C389.60,277.86 391.11,277.47 399.08,277.15 C406.82,276.85 408.57,277.11 413.42,279.33 C416.45,280.72 421.08,283.33 423.69,285.13 C434.39,292.49 445.06,294.69 455.24,291.63 C457.75,290.87 463.60,287.96 468.24,285.16 C475.16,280.98 485.39,277.00 489.21,277.00 C489.64,277.00 490.00,278.29 490.00,279.87 C490.00,282.53 489.67,282.78 485.47,283.25 C482.54,283.58 478.05,285.46 472.72,288.57 C457.31,297.57 457.58,297.48 445.97,297.49 C434.32,297.50 433.06,297.05 416.04,286.94 C408.86,282.66 408.29,282.50 400.43,282.50 C392.90,282.50 391.76,282.79 385.39,286.26 C368.06,295.70 364.08,297.30 356.58,297.78 C347.67,298.35 340.82,296.52 332.50,291.36 C315.56,280.84 310.80,279.89 300.50,284.95 C291.35,289.44 287.88,292.75 294.24,290.93 C299.64,289.38 310.54,289.83 315.77,291.82 C318.40,292.82 324.05,296.00 328.32,298.88 C338.29,305.61 342.75,307.18 352.00,307.20 C360.94,307.23 366.70,305.27 377.61,298.46 C386.51,292.92 392.25,291.00 399.91,291.01 C407.33,291.01 411.38,292.24 418.54,296.65 C436.00,307.39 440.73,308.91 451.04,307.06 C455.58,306.25 459.84,304.64 463.69,302.26 C475.86,294.77 480.04,292.85 485.38,292.30 C490.77,291.74 490.77,291.75 490.27,294.37 C489.90,296.31 489.16,297.00 487.45,297.00 C483.96,297.00 480.40,298.57 470.50,304.49 C450.54,316.43 439.16,315.90 417.06,302.03 C403.47,293.50 395.09,293.90 378.82,303.85 C367.02,311.06 363.19,312.28 352.00,312.37 C343.32,312.45 341.91,312.18 335.74,309.27 C332.02,307.53 326.43,304.27 323.30,302.03 C309.48,292.13 297.71,292.68 278.90,304.11 C267.06,311.30 262.50,313.00 255.00,313.00 C247.58,313.00 243.27,311.42 230.74,304.09 C211.22,292.68 200.62,292.34 185.50,302.63 C177.01,308.41 172.37,310.59 165.53,312.00 C153.91,314.40 142.43,311.73 129.38,303.60 C112.64,293.18 102.98,293.33 85.28,304.27 C80.36,307.32 74.34,310.48 71.92,311.29 C66.12,313.24 56.62,314.03 51.00,313.03 ZM 246.50 297.61 C241.22,295.95 234.85,291.90 227.50,285.52 C213.66,273.52 203.61,268.02 195.50,268.02 C190.05,268.02 184.11,270.39 175.00,276.20 C166.55,281.58 160.17,283.32 150.86,282.79 C143.47,282.36 142.08,281.88 128.74,275.16 C115.25,268.37 114.14,267.99 107.73,267.99 C99.57,268.00 93.00,270.16 83.63,275.91 C72.67,282.63 67.72,284.25 58.00,284.28 C47.86,284.31 44.55,283.24 31.09,275.55 C24.39,271.72 19.10,269.46 15.05,268.69 C9.64,267.66 9.00,267.29 9.00,265.13 C9.00,262.80 9.18,262.74 14.68,263.31 C20.37,263.89 23.94,265.43 39.44,273.99 C46.65,277.98 48.15,278.42 55.71,278.82 C65.66,279.34 69.30,278.19 82.50,270.39 C93.35,263.98 101.93,261.51 110.48,262.36 C115.27,262.83 119.37,264.40 130.51,270.05 C151.43,280.64 158.34,280.63 174.98,269.95 C183.76,264.32 192.99,261.49 199.16,262.53 C206.12,263.70 218.07,270.63 229.34,280.02 C252.69,299.47 257.94,299.07 285.62,275.70 C295.44,267.41 303.61,263.61 312.58,263.16 C320.74,262.74 325.14,264.26 335.69,271.13 C345.61,277.58 354.40,279.40 363.50,276.88 C365.70,276.28 372.30,273.09 378.16,269.81 C396.11,259.77 405.56,259.64 421.18,269.21 C432.03,275.86 438.01,278.10 445.00,278.13 C452.96,278.17 457.17,276.82 467.48,270.90 C477.50,265.15 482.85,263.00 487.13,263.00 C489.49,263.00 490.00,263.42 490.00,265.39 C490.00,267.36 489.34,267.90 486.27,268.48 C482.30,269.22 480.94,269.84 465.93,277.76 C449.78,286.27 438.26,285.88 422.79,276.27 C411.71,269.38 408.24,268.05 401.38,268.02 C394.00,268.00 389.07,269.63 379.00,275.44 C368.67,281.40 361.54,283.36 352.38,282.77 C344.66,282.28 341.96,281.19 328.21,273.03 C313.63,264.36 303.83,266.87 283.50,284.48 C268.08,297.83 258.28,301.31 246.50,297.61 ZM 243.49 281.97 C240.73,280.91 232.59,275.58 225.41,270.12 C209.39,257.97 203.58,254.90 195.37,254.24 C187.95,253.64 182.42,255.31 173.65,260.79 C166.25,265.41 163.15,266.69 156.25,267.97 C148.34,269.44 142.02,267.82 128.50,260.85 C117.80,255.34 115.72,254.62 109.29,254.21 C99.57,253.58 94.19,255.11 83.26,261.60 C70.92,268.92 67.10,270.19 57.50,270.19 C48.28,270.19 43.37,268.56 31.14,261.46 C23.19,256.84 15.65,254.00 11.34,254.00 C9.51,254.00 9.00,253.45 9.00,251.50 C9.00,249.26 9.41,249.00 12.87,249.00 C15.01,249.00 18.66,249.68 21.00,250.50 C23.34,251.32 25.42,252.00 25.63,252.00 C25.83,252.00 26.00,207.45 26.00,153.00 L 26.00 54.00 L 17.00 54.00 L 8.00 54.00 L 8.00 35.50 L 8.00 17.00 L 52.00 17.00 L 96.00 17.00 L 96.00 35.50 L 96.00 54.00 L 91.50 54.00 L 87.00 54.00 L 87.00 153.50 C87.00,208.23 87.17,253.00 87.37,253.00 C87.58,253.00 89.79,252.10 92.28,250.99 C98.43,248.27 107.49,247.45 114.13,249.00 C117.08,249.69 125.03,253.12 131.78,256.63 C143.32,262.61 144.47,263.00 150.78,262.99 C155.79,262.98 158.83,262.36 162.75,260.54 L 168.00 258.09 L 168.00 161.55 L 168.00 65.00 L 138.50 65.00 L 109.00 65.00 L 109.00 41.00 L 109.00 17.00 L 203.00 17.00 L 297.00 17.00 L 297.00 41.00 L 297.00 65.00 L 266.00 65.00 L 235.00 65.00 L 235.00 167.99 L 235.00 270.97 L 238.75 273.45 C243.71,276.72 250.38,279.00 255.00,279.00 C262.70,279.00 267.93,276.08 286.50,261.45 C294.73,254.96 303.71,250.28 310.00,249.21 L 314.50 248.44 L 314.75 132.72 L 315.01 17.00 L 366.33 17.00 C421.87,17.00 427.90,17.44 443.97,22.69 C454.65,26.17 461.46,30.38 469.51,38.46 C477.25,46.24 481.62,53.65 485.16,65.00 C488.28,74.99 488.52,94.51 485.63,103.00 C482.48,112.24 477.87,119.95 471.83,126.09 L 466.07 131.94 L 471.45 137.32 C488.74,154.61 494.62,178.48 487.87,203.95 C483.32,221.12 473.27,233.83 458.53,241.06 C448.75,245.85 439.44,247.87 423.32,248.68 L 411.07 249.31 L 415.78 251.50 C418.38,252.70 423.18,255.41 426.45,257.50 C433.41,261.97 439.52,264.00 445.91,263.99 C452.45,263.99 456.41,262.66 465.50,257.44 C475.39,251.75 481.36,249.31 486.52,248.85 C490.17,248.53 490.52,248.71 490.80,251.11 C491.08,253.54 490.75,253.78 486.30,254.40 C481.35,255.09 478.21,256.48 464.50,264.07 L 456.50 268.50 L 446.00 268.50 C434.46,268.50 433.82,268.28 418.49,259.18 C405.20,251.29 395.24,251.65 379.80,260.55 C375.52,263.02 370.78,265.51 369.26,266.09 C358.33,270.25 348.57,268.72 334.35,260.59 C328.82,257.43 322.84,254.80 320.35,254.43 C310.24,252.91 300.63,256.75 286.97,267.77 C275.60,276.94 269.83,280.79 264.89,282.54 C259.17,284.56 249.55,284.30 243.49,281.97 ZM 260.50 59.00 L 291.00 59.00 L 291.00 40.50 L 291.00 22.00 L 202.50 22.00 L 114.00 22.00 L 114.00 40.50 L 114.00 59.00 L 143.37 59.00 L 172.74 59.00 L 173.47 71.20 C173.87,77.91 174.09,121.45 173.97,167.95 C173.84,214.45 173.79,252.85 173.87,253.29 C173.94,253.72 174.90,253.59 176.00,253.00 C177.99,251.93 178.01,251.11 177.75,153.26 L 177.50 54.60 L 148.25 54.87 L 119.00 55.14 L 118.88 43.82 C118.82,37.59 118.70,31.38 118.63,30.00 L 118.50 27.50 L 202.12 27.24 L 285.74 26.99 L 286.23 30.74 C286.50,32.81 286.67,39.00 286.61,44.50 L 286.50 54.50 L 255.25 54.76 L 224.00 55.03 L 224.00 158.47 L 224.00 261.92 L 226.75 264.47 L 229.50 267.02 L 229.75 163.01 L 230.01 59.00 L 260.50 59.00 ZM 54.00 145.00 L 54.00 25.00 L 56.50 25.00 L 59.00 25.00 L 59.00 145.00 C59.00,264.33 59.01,265.00 61.00,265.00 C62.99,265.00 63.00,264.33 63.00,145.91 L 63.00 26.81 L 74.25 27.02 C91.44,27.32 91.19,27.36 90.82,24.75 L 90.50 22.50 L 52.00 22.50 L 13.50 22.50 L 13.18 24.75 L 12.86 27.00 L 30.93 27.00 L 49.00 27.00 L 49.00 145.33 C49.00,210.42 49.30,263.97 49.67,264.33 C50.03,264.70 51.16,265.00 52.17,265.00 C53.93,265.00 54.00,260.70 54.00,145.00 ZM 70.42 262.39 C71.85,261.84 72.00,251.00 72.00,149.89 L 72.00 38.00 L 81.50 38.00 C90.97,38.00 91.00,37.99 91.00,35.50 L 91.00 33.00 L 79.50 33.00 L 68.00 33.00 L 68.00 148.00 C68.00,211.25 68.19,263.00 68.42,263.00 C68.65,263.00 69.55,262.73 70.42,262.39 ZM 374.70 257.24 C379.54,254.46 385.08,251.50 387.00,250.67 C390.21,249.29 387.70,249.16 356.50,249.15 C327.66,249.14 323.11,249.33 326.53,250.40 C328.75,251.09 333.25,253.39 336.53,255.50 C346.14,261.68 350.46,263.08 358.70,262.67 C365.21,262.34 366.74,261.82 374.70,257.24 ZM 44.00 147.47 L 44.00 32.95 L 28.75 33.22 C13.79,33.49 13.49,33.54 13.18,35.75 C12.86,37.99 12.93,38.00 26.43,38.00 L 40.00 38.00 L 40.00 148.80 C40.00,259.87 40.06,262.00 43.20,262.00 C43.64,262.00 44.00,210.46 44.00,147.47 ZM 80.75 153.24 L 81.01 49.00 L 85.50 49.00 C89.63,49.00 90.00,48.80 90.00,46.50 C90.00,44.09 89.77,44.00 83.50,44.00 L 77.00 44.00 L 77.00 151.07 C77.00,252.51 77.09,258.13 78.75,257.81 C80.40,257.49 80.51,251.60 80.75,153.24 ZM 219.00 153.50 L 219.00 49.00 L 250.00 49.00 L 281.00 49.00 L 281.00 41.00 L 281.00 33.00 L 242.00 33.00 L 203.00 33.00 L 203.00 141.34 L 203.00 249.68 L 205.55 250.84 C206.95,251.48 208.30,252.00 208.55,252.00 C208.80,252.00 209.00,204.07 209.00,145.50 L 209.00 39.00 L 242.50 39.00 L 276.00 39.00 L 276.00 41.50 L 276.00 44.00 L 245.00 44.00 L 214.00 44.00 L 214.00 149.17 C214.00,245.63 214.14,254.49 215.65,256.17 C216.57,257.18 217.69,258.00 218.15,258.00 C218.62,258.00 219.00,210.98 219.00,153.50 ZM 35.00 150.50 L 35.00 44.00 L 24.61 44.00 C16.03,44.00 14.11,44.28 13.60,45.59 C12.51,48.44 13.99,49.00 22.56,49.00 L 31.00 49.00 L 31.00 151.80 C31.00,254.78 31.07,257.00 34.20,257.00 C34.64,257.00 35.00,209.07 35.00,150.50 ZM 187.75 146.63 L 187.50 44.50 L 158.25 44.23 L 129.00 43.97 L 129.00 41.48 L 129.00 39.00 L 161.00 39.00 L 192.99 39.00 L 193.25 143.75 L 193.50 248.50 L 195.75 248.82 L 198.00 249.14 L 198.00 141.07 L 198.00 33.00 L 161.00 33.00 L 124.00 33.00 L 124.00 41.00 L 124.00 49.00 L 153.50 49.00 L 183.00 49.00 L 183.00 148.83 C183.00,203.74 183.25,248.92 183.56,249.22 C183.86,249.53 184.99,249.55 186.06,249.27 C187.98,248.77 188.01,247.10 187.75,146.63 ZM 438.27 242.10 C467.45,237.15 485.04,215.49 484.99,184.59 C484.95,163.91 477.48,148.30 462.07,136.71 L 456.07 132.20 L 462.73 126.85 C478.86,113.89 485.80,94.03 481.57,72.96 C476.75,49.01 460.65,32.28 436.48,26.12 C422.83,22.64 412.04,22.02 365.25,22.01 L 320.00 22.00 L 320.00 132.33 C320.00,193.02 320.19,242.85 320.42,243.08 C321.44,244.11 431.87,243.19 438.27,242.10 ZM 325.00 133.06 L 325.00 27.00 L 365.39 27.00 C407.37,27.00 421.25,27.80 434.09,30.98 C457.22,36.69 472.02,51.19 476.50,72.50 C481.28,95.29 473.18,115.83 454.63,127.91 C450.99,130.29 448.00,132.36 448.00,132.52 C448.00,132.68 450.59,134.27 453.75,136.05 C461.28,140.31 469.67,148.99 473.87,156.90 C488.24,183.92 479.03,220.10 454.78,231.90 C441.38,238.42 442.05,238.36 380.75,238.76 L 325.00 239.12 L 325.00 133.06 ZM 423.64 231.91 C441.92,226.33 457.45,214.44 461.86,202.64 C469.23,182.95 465.71,166.12 450.98,150.61 C447.00,146.43 444.14,143.00 444.62,143.01 C446.91,143.03 455.99,149.27 459.86,153.46 C472.03,166.67 474.32,189.47 465.33,207.98 C461.85,215.14 453.26,223.52 444.48,228.32 C438.55,231.56 438.03,232.04 441.00,231.54 C446.67,230.59 456.52,225.49 461.42,220.97 C466.73,216.07 472.32,205.61 474.03,197.35 C474.68,194.21 475.05,186.89 474.84,180.99 C474.49,170.78 474.29,169.93 470.25,161.77 C464.77,150.71 457.46,143.75 444.84,137.58 L 435.79 133.16 L 439.65 130.75 C441.77,129.42 445.75,127.04 448.50,125.46 C455.39,121.50 465.13,111.50 467.89,105.56 C471.22,98.40 473.27,87.54 472.52,81.00 C470.00,58.96 459.29,45.06 439.68,38.39 C425.45,33.55 418.70,33.01 372.75,33.00 L 330.00 33.00 L 330.00 133.50 L 330.00 234.00 L 373.39 234.00 C414.58,234.00 417.14,233.89 423.64,231.91 ZM 335.00 133.50 L 335.00 38.00 L 373.75 38.02 C415.54,38.04 420.95,38.54 431.57,43.40 C439.05,46.83 443.23,50.23 447.41,56.30 C454.35,66.40 457.55,80.89 455.87,94.69 C454.03,109.94 444.60,124.20 431.89,130.98 L 425.84 134.20 L 430.67 136.44 C438.00,139.84 446.17,147.88 449.81,155.26 C462.51,181.06 454.68,213.44 433.29,223.56 C422.86,228.49 417.76,228.96 374.75,228.98 L 335.00 229.00 L 335.00 133.50 ZM 424.00 221.60 C435.59,217.94 443.33,210.43 448.17,198.11 C451.14,190.54 451.33,175.35 448.57,166.11 C445.98,157.45 440.18,149.05 433.75,144.65 C423.41,137.57 423.56,137.59 382.75,137.22 L 346.00 136.89 L 346.00 134.44 L 346.00 132.00 L 376.75 131.98 C393.66,131.97 410.55,131.52 414.27,130.98 C424.10,129.56 432.50,125.37 438.65,118.82 C448.01,108.84 451.61,98.54 450.75,84.12 C449.63,65.20 441.39,52.66 426.42,47.05 C417.94,43.88 403.69,42.91 370.50,43.22 L 340.50 43.50 L 340.24 132.50 C340.10,181.45 340.21,222.10 340.49,222.84 C340.91,223.94 348.00,224.10 379.75,223.76 C412.95,223.40 419.29,223.09 424.00,221.60 ZM 451.45 117.50 C458.05,107.33 462.01,95.32 461.99,85.59 C461.95,73.36 456.49,59.98 447.55,50.19 L 442.55 44.73 L 446.95 46.97 C460.24,53.75 467.94,69.90 466.73,88.46 C465.90,101.27 461.39,110.86 453.00,117.66 L 449.51 120.50 L 451.45 117.50 ZM 346.00 180.06 L 346.00 141.00 L 378.95 141.00 C399.54,141.00 413.89,141.42 417.20,142.12 C434.33,145.76 444.33,158.53 445.70,178.50 C446.94,196.56 439.49,209.97 424.50,216.70 C420.93,218.31 416.53,218.53 383.25,218.81 L 346.00 219.11 L 346.00 180.06 ZM 424.22 210.69 C435.13,205.33 440.50,195.69 440.49,181.50 C440.46,161.95 431.42,150.20 413.94,146.99 C410.75,146.40 396.26,146.08 379.94,146.23 L 351.50 146.50 L 351.63 149.00 C351.70,150.38 351.82,165.59 351.88,182.82 L 352.00 214.14 L 385.25 213.82 L 418.50 213.50 L 424.22 210.69 ZM 346.00 87.56 L 346.00 48.00 L 378.25 48.02 C413.69,48.04 420.09,48.75 429.14,53.67 C435.49,57.13 440.33,62.71 443.23,69.92 C445.11,74.61 445.47,77.41 445.49,87.50 C445.50,98.91 445.34,99.83 442.35,106.16 C438.58,114.10 432.88,119.93 425.16,123.72 L 419.50 126.50 L 382.75 126.81 L 346.00 127.11 L 346.00 87.56 ZM 423.50 118.34 C431.01,114.40 434.14,111.11 437.67,103.50 C440.08,98.29 440.45,96.25 440.47,88.00 C440.52,71.81 436.25,63.22 425.53,57.94 C417.12,53.80 406.60,52.91 375.50,53.70 L 351.50 54.31 L 351.74 87.90 C351.88,106.38 351.99,121.64 351.99,121.81 C352.00,121.98 366.74,121.98 384.75,121.81 L 417.50 121.50 L 423.50 118.34 ZM 357.74 209.41 C357.33,209.00 357.00,195.43 357.00,179.25 L 357.00 149.84 L 385.75 150.24 C418.26,150.69 421.24,151.24 428.08,158.08 C432.88,162.88 436.02,172.36 435.96,181.86 C435.88,193.86 431.19,202.28 422.12,206.74 L 416.50 209.50 L 387.49 209.83 C371.54,210.01 358.15,209.82 357.74,209.41 ZM 420.03 201.75 C427.83,197.81 431.58,189.52 430.76,178.00 C430.00,167.26 424.97,160.11 416.10,157.14 C413.92,156.41 403.77,156.00 387.85,156.00 L 363.00 156.00 L 363.00 180.00 L 363.00 204.00 L 389.29 204.00 C414.56,204.00 415.75,203.91 420.03,201.75 ZM 357.00 88.00 L 357.00 57.87 L 387.25 58.22 C413.23,58.51 418.02,58.80 421.21,60.28 C431.34,64.96 436.16,73.65 436.16,87.25 C436.16,101.22 431.05,110.47 420.79,115.11 C415.66,117.43 414.61,117.51 386.25,117.82 L 357.00 118.14 L 357.00 88.00 ZM 418.00 110.38 C427.01,106.13 431.00,98.91 431.00,86.84 C431.00,76.13 427.72,70.07 419.50,65.65 C415.75,63.63 413.88,63.48 389.25,63.18 L 363.00 62.85 L 363.00 88.00 L 363.00 113.15 L 388.25 112.83 C411.51,112.53 413.86,112.33 418.00,110.38 ZM 368.00 179.93 L 368.00 159.87 L 391.25 160.18 C412.56,160.47 414.79,160.67 418.00,162.55 C423.50,165.77 426.33,171.90 426.33,180.53 C426.33,189.94 424.05,194.65 417.98,197.75 C413.79,199.89 412.45,200.00 390.79,200.00 L 368.00 200.00 L 368.00 179.93 ZM 414.99 193.25 C419.84,190.81 421.14,187.78 420.76,179.78 C420.38,171.93 418.18,168.16 412.91,166.31 C410.77,165.56 402.67,165.09 391.25,165.06 L 373.00 165.00 L 373.00 180.00 L 373.00 195.00 L 392.25 195.00 C408.58,195.00 412.03,194.73 414.99,193.25 ZM 368.00 87.50 L 368.00 67.00 L 387.36 67.00 C414.33,67.00 419.93,68.32 424.25,75.69 C428.37,82.73 427.20,96.43 421.96,102.39 C417.61,107.35 413.84,108.00 389.63,108.00 L 368.00 108.00 L 368.00 87.50 ZM 414.00 101.69 C419.18,99.93 421.19,95.37 420.78,86.25 C420.50,79.91 420.12,78.67 417.71,76.25 L 414.96 73.50 L 393.98 73.19 L 373.00 72.89 L 373.00 87.94 L 373.00 103.00 L 391.75 102.94 C403.51,102.91 411.81,102.44 414.00,101.69 Z" fill="rgba(0,0,0,1)"/>
</g>
</svg>