<svg xmlns="http://www.w3.org/2000/svg" width="1183" height="887" viewBox="0 0 1183 887">
<g>
<path d="M 973.78 816.52 C965.81,814.33 960.30,810.32 941.55,793.10 C931.62,783.97 923.01,776.06 922.40,775.50 C921.80,774.95 914.86,768.65 906.97,761.50 C850.52,710.32 831.78,692.91 829.08,689.11 C823.96,681.92 821.74,671.18 823.47,661.98 C824.13,658.50 824.01,658.35 809.95,645.48 C802.15,638.34 794.98,631.92 794.01,631.22 C792.48,630.09 791.28,630.78 784.38,636.72 C748.13,667.89 705.51,689.42 658.16,700.47 C637.91,705.20 620.63,707.00 595.36,707.00 C553.68,707.00 523.28,701.38 486.05,686.78 C465.00,678.53 433.92,660.78 416.62,647.14 C359.81,602.33 322.48,547.18 304.51,481.50 C287.46,419.17 289.77,356.15 311.36,294.95 C322.85,262.38 344.83,223.95 365.84,199.71 C380.98,182.24 391.57,171.65 406.14,159.40 C450.86,121.80 503.94,98.77 560.50,92.43 C575.40,90.76 608.44,90.15 618.50,91.36 C621.25,91.69 627.60,92.42 632.61,92.97 C694.54,99.86 759.33,133.07 806.43,182.06 C817.79,193.87 831.09,209.73 836.85,218.30 C852.22,241.20 863.78,262.12 871.50,281.00 C905.38,363.85 902.06,457.82 862.43,537.23 C855.73,550.65 842.91,571.76 834.92,582.50 C831.65,586.90 828.21,591.58 827.27,592.91 C825.35,595.62 823.23,593.23 845.84,613.71 L 854.90 621.93 L 859.70 619.81 C866.76,616.68 876.98,616.93 884.58,620.41 C890.60,623.16 893.93,625.80 912.94,642.84 C935.72,663.28 950.52,676.60 956.98,682.50 C960.60,685.80 974.57,698.37 988.03,710.44 C1026.72,745.12 1028.32,747.05 1031.66,763.30 C1033.20,770.80 1033.26,772.67 1032.13,778.19 C1027.15,802.36 1008.57,818.20 985.52,817.91 C981.66,817.86 976.37,817.24 973.78,816.52 ZM 627.11 665.98 C644.39,663.37 655.10,661.02 667.50,657.14 C681.78,652.68 695.13,647.49 695.11,646.42 C695.07,644.73 684.13,639.92 676.78,638.37 C662.90,635.43 651.92,637.97 629.50,649.27 C611.91,658.14 604.70,660.39 594.00,660.36 C583.39,660.32 576.21,658.07 558.50,649.22 C535.93,637.94 525.03,635.41 511.50,638.32 C504.32,639.86 496.93,642.71 493.65,645.21 C491.97,646.49 492.78,646.99 502.65,650.82 C525.76,659.77 546.50,664.57 574.00,667.33 C575.92,667.52 585.65,667.75 595.61,667.84 C609.37,667.96 616.93,667.51 627.11,665.98 ZM 605.98 651.41 C612.93,649.35 621.42,644.13 634.72,633.74 C655.01,617.90 666.48,612.69 681.00,612.68 C691.22,612.68 697.58,614.67 710.39,621.87 C715.28,624.62 721.45,627.39 724.09,628.02 L 728.89 629.17 L 737.46 623.34 C745.22,618.06 745.78,617.47 743.27,617.23 C730.93,616.02 726.15,614.52 712.74,607.69 C699.52,600.95 698.53,600.62 690.67,600.20 C675.30,599.40 664.35,603.94 638.96,621.66 C600.24,648.66 587.42,648.57 548.00,620.99 C533.01,610.50 519.02,602.97 510.73,600.93 C508.03,600.26 502.24,599.95 497.38,600.20 C489.24,600.63 488.23,600.95 477.16,606.69 C463.67,613.67 460.58,614.78 450.15,616.42 L 442.50 617.61 L 451.05 623.32 L 459.59 629.03 L 464.26 627.62 C466.82,626.85 473.10,623.99 478.21,621.26 C494.25,612.71 502.85,610.87 515.00,613.40 C525.37,615.55 538.57,622.38 550.70,631.87 C566.02,643.86 572.83,648.24 580.00,650.71 C587.86,653.42 598.29,653.70 605.98,651.41 ZM 715.88 632.73 C713.56,631.74 709.07,629.36 705.90,627.44 C689.98,617.77 674.95,617.40 657.47,626.26 C651.48,629.30 646.31,633.41 649.50,632.60 C667.13,628.11 680.75,629.79 696.50,638.40 L 704.50 642.77 L 712.30 638.65 L 720.11 634.53 L 715.88 632.73 ZM 486.55 641.08 C488.98,638.72 502.22,633.06 508.70,631.61 C517.56,629.63 523.45,629.60 532.43,631.50 C536.24,632.31 539.52,632.81 539.72,632.61 C540.39,631.94 529.92,625.73 523.70,623.11 C518.26,620.82 516.13,620.50 506.30,620.50 L 495.10 620.50 L 482.80 626.86 C476.03,630.36 470.11,633.59 469.63,634.03 C468.70,634.89 481.40,641.87 484.05,641.95 C484.90,641.98 486.03,641.59 486.55,641.08 ZM 602.50 633.90 C609.57,631.98 621.69,625.34 634.76,616.21 C660.10,598.51 670.03,593.97 685.06,593.23 C696.97,592.63 701.55,593.87 717.02,601.83 C730.27,608.65 738.75,610.63 749.94,609.51 C756.76,608.82 756.85,608.77 765.32,601.16 C770.01,596.95 773.88,593.21 773.92,592.85 C773.96,592.49 771.64,593.11 768.75,594.23 C761.38,597.08 746.57,597.76 738.00,595.63 C734.42,594.75 726.78,591.59 721.00,588.62 C709.76,582.84 701.64,580.00 696.34,580.00 C692.45,580.00 668.27,591.03 609.00,619.85 C602.28,623.12 600.67,623.50 593.50,623.50 C585.70,623.50 585.18,623.34 572.50,617.14 C565.35,613.64 545.33,603.97 528.00,595.66 C497.26,580.92 496.34,580.55 489.87,580.53 C483.68,580.51 482.37,580.95 469.87,587.17 C462.52,590.84 453.74,594.55 450.36,595.42 C441.58,597.68 429.35,597.47 421.85,594.95 C418.50,593.82 415.58,593.09 415.35,593.32 C414.88,593.78 424.43,602.70 429.68,606.71 C432.77,609.06 433.93,609.29 442.78,609.35 C454.50,609.42 456.85,608.74 473.50,600.41 C488.86,592.73 495.89,591.33 508.18,593.50 C521.26,595.80 530.27,600.34 554.00,616.56 C578.75,633.48 589.68,637.38 602.50,633.90 ZM 589.00 607.62 C589.00,603.64 588.59,602.90 584.50,599.55 C582.03,597.53 580.00,596.32 580.00,596.88 C580.00,600.83 582.50,608.79 584.19,610.25 C587.64,613.22 589.00,612.48 589.00,607.62 ZM 604.11 610.14 C604.90,609.32 607.27,596.94 606.74,596.41 C606.31,595.97 601.22,600.52 599.17,603.17 C598.33,604.27 598.11,606.09 598.56,608.45 C599.14,611.55 599.53,611.97 601.37,611.42 C602.54,611.06 603.78,610.49 604.11,610.14 ZM 574.41 603.25 C571.78,591.65 570.57,588.21 568.23,585.75 C565.07,582.42 563.52,582.21 564.47,585.25 C564.85,586.49 566.02,590.88 567.06,595.00 C568.26,599.78 569.72,603.13 571.08,604.25 C574.11,606.73 575.13,606.42 574.41,603.25 ZM 620.16 593.69 C621.60,588.09 622.59,583.31 622.38,583.07 C622.16,582.84 620.70,583.87 619.14,585.36 C616.42,587.97 613.00,598.28 613.00,603.87 C613.00,605.68 613.30,605.82 615.27,604.92 C617.11,604.08 618.05,601.93 620.16,593.69 ZM 634.97 587.32 C636.81,581.92 639.41,575.59 640.75,573.25 C643.50,568.46 643.15,568.13 638.45,571.03 C634.06,573.74 631.73,577.95 628.61,588.81 C625.33,600.21 625.33,600.40 628.81,598.60 C631.13,597.40 632.22,595.40 634.97,587.32 ZM 560.48 595.75 C560.10,593.96 558.18,588.35 556.19,583.27 C553.11,575.39 551.98,573.61 548.38,571.02 C546.07,569.36 543.95,568.00 543.67,568.00 C543.40,568.00 544.42,570.59 545.94,573.75 C547.46,576.91 550.19,583.23 552.00,587.79 C554.93,595.19 557.76,599.00 560.30,599.00 C560.77,599.00 560.85,597.54 560.48,595.75 ZM 588.81 589.31 C588.52,585.88 587.49,584.80 574.50,574.31 C541.66,547.77 508.14,528.80 473.07,516.90 C458.80,512.05 433.00,506.61 433.00,508.45 C433.00,510.39 435.73,514.14 437.42,514.52 C438.56,514.78 443.77,515.90 449.00,517.02 C476.08,522.83 511.90,538.46 540.00,556.75 C552.58,564.93 574.61,581.36 582.50,588.44 C585.25,590.90 587.86,592.94 588.31,592.96 C588.76,592.98 588.98,591.34 588.81,589.31 ZM 607.83 585.64 C617.39,577.52 636.17,563.52 645.50,557.56 C648.80,555.45 653.75,552.24 656.50,550.42 C667.79,542.95 696.55,529.40 712.91,523.85 C719.90,521.48 735.00,517.53 748.73,514.47 C749.96,514.19 751.66,512.63 752.51,510.99 C753.99,508.12 753.97,508.00 751.90,508.00 C746.65,508.00 724.22,513.33 712.42,517.38 C673.51,530.74 637.62,552.12 601.41,583.50 C599.27,585.35 596.91,593.00 598.47,593.00 C598.85,593.00 603.07,589.69 607.83,585.64 ZM 650.83 583.32 C656.76,572.94 664.74,561.65 671.02,554.75 C674.40,551.04 676.67,548.00 676.08,548.00 C675.49,548.00 671.56,549.91 667.36,552.25 C661.77,555.36 658.70,557.88 655.90,561.66 C651.11,568.11 642.25,585.35 641.34,589.95 L 640.67 593.41 L 644.08 591.28 C646.03,590.07 648.94,586.63 650.83,583.32 ZM 545.42 589.75 C542.53,580.57 531.68,561.65 526.88,557.39 C524.41,555.20 510.67,547.00 509.47,547.00 C509.09,547.00 511.23,549.64 514.21,552.86 C520.72,559.89 529.67,572.48 534.34,581.18 C537.36,586.79 542.59,592.00 545.22,592.00 C545.72,592.00 545.82,590.99 545.42,589.75 ZM 447.20 588.89 C450.12,588.28 457.45,585.30 463.50,582.26 C469.55,579.22 476.08,576.17 478.00,575.48 L 481.50 574.23 L 472.88 570.05 L 464.26 565.88 L 459.43 568.94 C451.72,573.83 444.35,576.17 434.86,576.74 C424.66,577.36 416.21,575.20 406.50,569.50 C397.90,564.46 386.71,558.96 386.16,559.51 C385.90,559.76 388.37,563.24 391.65,567.24 C397.51,574.39 404.59,579.59 416.00,585.14 C425.37,589.69 436.80,591.07 447.20,588.89 ZM 762.03 588.67 C767.14,587.46 770.96,585.64 786.01,577.20 C789.91,575.01 793.11,572.03 796.91,567.03 C799.87,563.14 802.05,559.72 801.77,559.43 C801.28,558.94 791.24,563.96 778.94,570.83 C770.79,575.39 762.17,577.32 752.53,576.75 C743.24,576.20 736.76,574.17 728.93,569.36 L 723.36 565.94 L 715.18 569.66 C707.52,573.15 705.16,575.00 708.39,575.00 C709.15,575.00 715.11,577.73 721.64,581.08 C738.61,589.77 749.04,591.73 762.03,588.67 ZM 526.37 581.75 C521.51,573.65 516.11,566.02 511.18,560.29 C501.42,548.95 483.60,535.73 472.18,531.36 C464.40,528.39 444.52,523.01 441.27,523.00 C439.29,523.00 439.16,523.26 440.13,525.38 C440.98,527.26 443.35,528.44 451.36,530.99 C475.68,538.73 494.28,551.22 508.69,569.50 C513.76,575.93 516.13,578.04 520.75,580.25 C527.37,583.41 527.36,583.41 526.37,581.75 ZM 665.91 580.54 C669.10,578.93 672.51,575.89 675.89,571.64 C691.57,551.93 709.92,539.38 735.26,531.04 C741.78,528.89 745.38,527.16 746.09,525.83 C746.68,524.73 746.89,523.55 746.55,523.22 C745.55,522.22 726.15,526.96 716.61,530.55 C698.96,537.18 679.53,553.14 666.87,571.41 C660.48,580.63 659.19,583.00 660.53,583.00 C660.83,583.00 663.25,581.90 665.91,580.54 ZM 588.95 572.25 C588.90,568.66 588.37,568.08 576.70,558.89 C559.08,545.02 545.70,536.02 526.00,524.79 C503.45,511.93 477.13,501.85 454.64,497.47 C441.50,494.91 427.00,493.24 427.00,494.29 C427.00,494.61 427.42,495.98 427.94,497.33 C428.71,499.38 429.78,499.91 434.19,500.48 C451.40,502.70 476.83,509.89 495.87,517.91 C523.51,529.55 554.46,548.53 579.00,568.88 C583.67,572.76 587.84,575.95 588.25,575.97 C588.66,575.98 588.98,574.31 588.95,572.25 ZM 609.00 568.08 C620.16,558.73 635.56,547.74 651.00,538.11 C660.34,532.28 685.96,519.59 697.00,515.32 C715.40,508.20 733.13,503.37 749.69,500.97 C757.39,499.86 757.94,499.61 758.89,496.89 C759.88,494.03 759.85,494.00 756.11,494.00 C751.22,494.00 725.14,498.48 718.00,500.55 C711.35,502.48 692.89,509.05 691.50,509.98 C690.95,510.35 688.28,511.48 685.56,512.48 C669.12,518.57 637.48,537.68 614.26,555.57 C600.58,566.10 598.00,568.84 598.00,572.82 L 598.00 576.23 L 600.75 574.46 C602.26,573.49 605.97,570.61 609.00,568.08 ZM 497.92 567.89 C492.01,559.59 470.43,545.46 454.52,539.47 C446.43,536.43 446.16,537.60 453.34,544.56 C459.44,550.47 468.00,556.21 476.00,559.75 C479.02,561.09 485.55,564.15 490.50,566.54 C495.45,568.94 499.64,570.92 499.82,570.95 C499.99,570.98 499.14,569.60 497.92,567.89 ZM 709.18 560.10 C721.62,554.04 725.03,551.85 731.55,545.76 C735.78,541.81 738.74,538.41 738.12,538.21 C734.68,537.06 713.52,546.97 703.85,554.25 C698.51,558.28 686.00,569.69 686.00,570.54 C686.00,571.14 693.07,567.96 709.18,560.10 ZM 443.35 568.41 C446.73,567.53 451.20,565.80 453.28,564.56 L 457.05 562.31 L 452.99 559.49 C446.77,555.19 437.85,545.12 434.36,538.47 C432.64,535.19 427.30,523.50 422.51,512.50 C413.98,492.95 404.69,472.02 398.74,459.00 C387.66,434.72 381.88,421.33 380.57,416.92 C379.10,411.99 379.13,411.78 381.34,409.57 C383.31,407.60 385.05,407.19 394.06,406.60 C399.80,406.23 405.73,405.68 407.24,405.39 L 409.97 404.85 L 410.24 375.79 L 410.50 346.74 L 422.00 339.36 L 433.50 331.98 L 457.50 332.24 L 481.50 332.50 L 481.76 366.25 L 482.03 400.00 L 485.01 400.00 L 488.00 400.00 L 488.10 371.75 C488.16,356.21 488.37,336.89 488.58,328.82 L 488.95 314.14 L 472.98 301.51 L 457.00 288.88 L 457.00 276.56 C457.00,267.51 457.35,263.95 458.33,263.14 C459.23,262.39 469.68,261.94 490.08,261.76 L 520.50 261.50 L 521.00 249.00 L 521.50 236.50 L 555.25 236.24 L 589.00 235.97 L 589.00 209.99 C589.00,195.69 588.79,184.00 588.52,184.00 C588.26,184.00 585.51,187.38 582.40,191.50 C579.30,195.62 576.54,199.00 576.28,199.00 C575.91,199.00 572.24,196.63 569.17,194.41 C568.76,194.11 592.86,162.00 593.49,162.00 C593.74,162.00 599.35,169.27 605.97,178.16 L 617.99 194.32 L 614.55 196.66 C612.66,197.95 610.91,199.00 610.67,199.00 C610.44,199.00 607.70,195.62 604.60,191.50 C601.49,187.38 598.74,184.00 598.48,184.00 C598.21,184.00 598.00,195.69 598.00,209.99 L 598.00 235.97 L 631.75 236.24 L 665.50 236.50 L 666.00 249.00 L 666.50 261.50 L 696.92 261.76 C717.32,261.94 727.77,262.39 728.67,263.14 C729.64,263.95 730.00,267.49 730.00,276.43 L 730.00 288.62 L 714.04 301.06 L 698.09 313.50 L 698.04 356.75 L 698.00 400.00 L 700.44 400.00 C702.54,400.00 702.96,399.42 703.50,395.75 C703.85,393.41 704.00,389.25 703.85,386.50 C703.70,383.75 703.67,370.36 703.79,356.75 L 704.00 332.00 L 728.39 332.00 L 752.77 332.00 L 758.64 335.85 C761.86,337.96 767.09,341.38 770.25,343.45 L 776.00 347.19 L 776.00 375.99 L 776.00 404.78 L 779.25 405.35 C781.04,405.66 786.91,406.23 792.29,406.60 C803.04,407.35 807.00,409.19 807.00,413.45 C807.00,414.71 805.39,419.29 803.41,423.63 C801.44,427.96 798.96,433.39 797.91,435.70 C796.86,438.00 796.00,440.16 796.00,440.48 C796.00,440.81 792.67,448.37 788.61,457.29 C784.55,466.21 776.20,484.98 770.06,499.00 C763.92,513.03 757.45,527.77 755.70,531.77 C751.41,541.54 744.31,550.98 737.01,556.65 C733.70,559.22 731.00,561.62 731.00,561.98 C731.00,563.25 738.73,566.96 744.54,568.47 C756.29,571.53 767.82,569.53 779.50,562.42 C788.98,556.64 798.89,552.14 803.72,551.41 C808.98,550.63 810.70,548.58 819.89,532.14 C835.60,504.03 845.38,476.49 851.08,444.28 C853.68,429.55 854.31,422.98 854.73,406.00 C855.29,383.63 854.49,373.28 850.50,351.47 C842.92,310.01 827.18,273.02 802.67,239.04 C763.04,184.09 702.09,144.74 640.05,134.05 C619.81,130.56 613.41,129.97 595.33,129.95 C541.53,129.91 493.47,145.12 448.59,176.41 C419.68,196.57 391.57,226.81 372.74,258.02 C365.74,269.60 356.51,287.80 353.96,295.00 C352.70,298.58 351.34,301.95 350.95,302.50 C349.15,305.01 341.87,329.90 339.11,343.00 C334.52,364.79 333.57,374.33 333.53,399.00 C333.50,424.57 334.67,436.00 339.48,457.00 C345.31,482.47 352.91,503.48 363.70,523.93 C373.53,542.60 378.43,549.83 381.73,550.59 C390.20,552.52 393.73,554.12 411.50,564.07 C422.20,570.06 431.89,571.38 443.35,568.41 ZM 589.00 555.17 C589.00,551.50 588.56,550.99 578.25,542.81 C529.95,504.47 479.32,482.65 433.29,480.31 C420.20,479.65 420.01,479.72 422.16,484.45 C423.25,486.85 423.76,487.00 430.73,487.00 C445.53,487.00 477.34,494.78 498.76,503.63 C523.95,514.04 557.32,534.10 579.00,551.86 C583.67,555.69 587.84,558.87 588.25,558.91 C588.66,558.96 589.00,557.28 589.00,555.17 ZM 605.50 553.44 C626.81,535.52 664.21,513.17 690.59,502.58 C709.78,494.88 737.31,488.21 757.12,486.45 C762.92,485.94 763.88,485.56 764.87,483.39 C765.49,482.02 766.00,480.70 766.00,480.45 C766.00,479.49 750.00,480.11 739.86,481.46 C704.98,486.10 671.10,499.88 634.00,524.52 C619.63,534.06 600.50,548.63 598.77,551.34 C598.36,551.98 598.02,553.99 598.02,555.81 C598.00,559.64 598.21,559.57 605.50,553.44 ZM 588.96 537.25 C588.93,533.65 588.40,533.08 576.21,523.41 C553.12,505.09 531.50,491.66 511.98,483.49 C486.40,472.79 459.11,467.02 432.61,466.70 C423.58,466.59 415.91,466.78 415.57,467.11 C415.23,467.45 415.37,468.84 415.89,470.21 C416.82,472.66 417.06,472.71 431.17,473.30 C443.40,473.81 462.77,476.40 470.33,478.53 C481.46,481.66 497.21,486.96 505.00,490.17 C515.56,494.54 535.24,504.71 541.68,509.13 C543.98,510.71 546.12,512.00 546.45,512.00 C547.99,512.00 575.90,531.40 583.43,537.71 C585.59,539.52 587.73,541.00 588.18,541.00 C588.63,541.00 588.98,539.31 588.96,537.25 ZM 607.78 534.45 C656.02,496.39 707.41,475.14 755.70,473.28 L 769.90 472.73 L 770.86 469.96 C771.71,467.55 771.55,467.11 769.67,466.61 C763.84,465.05 735.77,466.72 722.50,469.43 C718.65,470.21 713.70,471.14 711.50,471.50 C702.69,472.93 676.67,482.34 663.44,488.89 C643.91,498.55 617.13,516.70 602.25,530.35 C598.86,533.46 598.00,534.94 598.00,537.63 C598.00,539.48 598.34,541.00 598.75,540.99 C599.16,540.99 603.23,538.04 607.78,534.45 ZM 588.98 519.75 C588.96,515.62 588.69,515.27 579.73,507.74 C545.43,478.90 511.41,462.10 474.04,455.54 C456.91,452.54 436.23,451.47 421.17,452.82 C414.94,453.37 409.63,454.03 409.38,454.29 C409.13,454.54 409.41,455.81 410.01,457.12 C411.09,459.50 411.10,459.50 429.30,459.51 C439.64,459.52 450.95,460.10 455.50,460.85 C487.64,466.16 504.09,471.33 529.19,484.01 C545.84,492.42 568.91,507.75 583.84,520.34 C586.23,522.35 588.37,524.00 588.59,524.00 C588.82,524.00 588.99,522.09 588.98,519.75 ZM 610.25 514.50 C644.37,487.37 682.25,469.13 716.00,463.56 C721.22,462.70 728.20,461.47 731.50,460.83 C734.80,460.19 746.03,459.56 756.46,459.43 C774.70,459.22 775.46,459.13 776.37,457.09 C776.89,455.93 777.02,454.69 776.67,454.33 C776.31,453.98 771.18,453.28 765.26,452.79 C741.07,450.77 709.15,454.66 684.73,462.60 C676.90,465.15 669.38,467.82 668.00,468.55 C666.62,469.27 661.23,471.98 656.02,474.56 C640.00,482.50 623.44,493.74 606.25,508.35 C598.23,515.16 598.00,515.47 598.00,519.76 L 598.00 524.17 L 600.35 522.33 C601.64,521.33 606.10,517.80 610.25,514.50 ZM 589.00 500.87 C589.00,496.23 587.90,494.95 574.40,483.92 C545.34,460.17 516.90,447.45 477.00,440.36 C459.57,437.26 409.83,438.40 403.96,442.03 C402.92,442.67 402.98,443.32 404.27,445.30 C405.80,447.63 406.15,447.71 410.70,446.73 C413.34,446.16 425.17,445.68 437.00,445.67 C459.57,445.64 473.67,447.31 492.00,452.15 C521.81,460.03 552.92,476.38 579.00,497.89 C583.67,501.74 587.84,504.92 588.25,504.95 C588.66,504.98 589.00,503.14 589.00,500.87 ZM 604.34 500.66 C612.95,493.41 632.34,479.00 633.48,479.00 C633.75,479.00 636.42,477.42 639.43,475.50 C642.44,473.58 645.13,472.00 645.40,472.00 C645.67,472.00 648.50,470.48 651.70,468.61 C665.89,460.33 690.27,452.23 712.50,448.41 C726.58,445.99 731.02,445.67 749.50,445.70 C761.05,445.73 772.65,446.20 775.29,446.75 C779.95,447.73 780.11,447.68 781.53,444.93 C782.34,443.38 782.66,441.91 782.25,441.66 C779.59,440.07 759.66,438.57 741.50,438.61 C720.34,438.65 708.14,440.02 689.30,444.48 C662.06,450.93 634.02,465.65 609.50,486.37 C599.04,495.21 598.00,496.54 598.00,501.06 C598.00,503.23 598.27,505.00 598.59,505.00 C598.92,505.00 601.50,503.05 604.34,500.66 ZM 588.60 477.53 C587.92,474.83 571.19,460.05 562.16,454.16 C552.25,447.71 532.95,438.60 520.54,434.52 C514.52,432.53 502.82,429.48 494.54,427.73 C479.79,424.62 478.99,424.56 453.00,424.58 C430.06,424.60 424.62,424.92 412.50,426.92 C404.80,428.20 398.37,429.35 398.21,429.49 C398.05,429.63 398.47,430.94 399.14,432.41 C400.27,434.88 400.68,435.03 404.93,434.47 C407.44,434.14 411.98,433.35 415.00,432.71 C423.93,430.83 464.41,431.22 477.00,433.31 C503.65,437.72 516.96,441.64 535.63,450.58 C553.21,459.00 565.74,467.19 582.00,480.88 L 588.50 486.35 L 588.82 483.04 C589.00,481.21 588.90,478.74 588.60,477.53 ZM 605.84 480.17 C624.46,463.87 645.16,451.56 667.57,443.45 C680.82,438.65 689.07,436.57 705.50,433.87 C723.31,430.95 758.10,430.67 775.00,433.31 C784.79,434.84 785.58,434.84 786.75,433.29 C789.24,429.96 788.12,429.30 777.25,427.64 C720.38,418.95 672.39,426.44 630.36,450.58 C622.53,455.07 607.87,466.37 602.74,471.85 C598.53,476.35 598.00,477.42 598.00,481.46 C598.00,483.96 598.26,486.00 598.59,486.00 C598.91,486.00 602.17,483.38 605.84,480.17 ZM 589.52 415.18 C588.67,414.33 582.22,422.17 579.84,426.95 C574.87,436.94 577.19,451.39 585.23,460.52 L 589.50 465.38 L 589.77 440.54 C589.92,426.88 589.80,415.47 589.52,415.18 ZM 606.00 453.97 C610.04,446.12 610.43,433.42 606.85,426.72 C604.93,423.14 598.64,415.00 597.79,415.00 C597.35,415.00 597.02,426.36 597.04,440.25 L 597.08 465.50 L 600.63 461.50 C602.59,459.30 605.00,455.91 606.00,453.97 ZM 567.81 437.00 L 567.78 428.00 L 553.53 428.00 C545.69,428.00 537.12,427.70 534.48,427.34 C529.36,426.64 528.70,428.21 533.60,429.44 C537.01,430.29 555.09,439.00 561.50,442.88 C564.25,444.54 566.80,445.92 567.17,445.95 C567.54,445.98 567.83,441.95 567.81,437.00 ZM 627.72 441.22 C632.14,438.60 640.52,434.45 646.34,432.02 C652.16,429.58 656.83,427.54 656.71,427.47 C656.60,427.40 647.97,427.61 637.54,427.93 L 618.57 428.50 L 618.54 437.25 C618.52,442.06 618.77,446.00 619.10,446.00 C619.42,446.00 623.31,443.85 627.72,441.22 ZM 415.50 419.42 C429.83,417.32 451.88,417.10 524.02,418.37 L 573.55 419.23 L 577.73 413.87 L 581.91 408.50 L 566.21 408.18 C545.52,407.77 467.50,409.76 453.50,411.07 C417.43,414.42 393.84,416.83 393.48,417.18 C393.26,417.40 393.35,418.63 393.69,419.91 C394.38,422.55 394.07,422.56 415.50,419.42 ZM 793.52 419.92 C793.89,418.78 793.97,417.63 793.70,417.37 C793.20,416.86 776.59,415.18 740.50,411.99 C715.01,409.73 654.66,407.74 625.12,408.19 L 604.74 408.50 L 609.02 413.91 L 613.30 419.32 L 654.90 418.66 C677.78,418.29 706.62,417.71 719.00,417.37 C741.63,416.73 760.42,417.72 777.50,420.45 C790.05,422.45 792.75,422.36 793.52,419.92 ZM 423.00 378.88 L 423.00 354.00 L 420.00 354.00 L 417.00 354.00 L 417.00 378.83 C417.00,392.49 417.24,403.90 417.52,404.19 C417.81,404.48 419.16,404.50 420.52,404.24 L 423.00 403.77 L 423.00 378.88 ZM 768.77 379.17 L 769.03 354.00 L 766.02 354.00 L 763.00 354.00 L 763.00 378.93 C763.00,401.83 763.14,403.89 764.75,404.30 C765.71,404.55 766.95,404.66 767.50,404.54 C768.13,404.41 768.60,394.92 768.77,379.17 ZM 435.08 403.00 C435.61,403.00 436.00,392.71 436.00,378.50 L 436.00 354.00 L 433.00 354.00 L 430.00 354.00 L 430.00 378.33 C430.00,391.72 430.31,402.98 430.70,403.36 C431.08,403.75 432.02,403.82 432.78,403.53 C433.54,403.24 434.58,403.00 435.08,403.00 ZM 755.67 389.99 C755.76,382.57 755.59,371.44 755.30,365.25 L 754.76 354.00 L 751.88 354.00 L 749.00 354.00 L 749.00 378.43 C749.00,400.85 749.14,402.89 750.75,403.32 C755.36,404.55 755.49,404.20 755.67,389.99 ZM 448.08 402.00 C448.61,402.00 449.00,391.91 449.00,378.00 L 449.00 354.00 L 446.00 354.00 L 443.00 354.00 L 443.00 377.83 C443.00,390.94 443.31,401.98 443.70,402.36 C444.08,402.75 445.02,402.82 445.78,402.53 C446.54,402.24 447.58,402.00 448.08,402.00 ZM 742.50 378.50 L 742.50 354.50 L 739.25 354.19 L 736.00 353.87 L 736.00 377.85 C736.00,403.04 736.01,403.11 740.50,402.69 C742.44,402.51 742.50,401.77 742.50,378.50 ZM 460.42 401.39 C461.80,400.86 462.00,397.80 462.00,377.39 L 462.00 354.00 L 459.50 354.00 L 457.00 354.00 L 457.00 377.33 C457.00,397.53 457.29,402.00 458.58,402.00 C458.72,402.00 459.55,401.73 460.42,401.39 ZM 729.00 378.00 L 729.00 354.00 L 726.00 354.00 L 723.00 354.00 L 723.00 378.00 L 723.00 402.00 L 726.00 402.00 L 729.00 402.00 L 729.00 378.00 ZM 474.50 370.50 L 474.50 340.50 L 471.75 340.18 L 469.00 339.87 L 469.00 370.50 L 469.00 401.13 L 471.75 400.82 L 474.50 400.50 L 474.50 370.50 ZM 716.00 370.50 L 716.00 340.00 L 713.50 340.00 L 711.00 340.00 L 711.00 369.83 C711.00,386.24 711.30,399.97 711.67,400.33 C712.03,400.70 713.16,401.00 714.17,401.00 C715.90,401.00 716.00,399.41 716.00,370.50 ZM 502.23 371.25 L 502.50 343.50 L 593.00 343.50 L 683.50 343.50 L 683.77 371.25 L 684.03 399.00 L 687.02 399.00 L 690.00 399.00 L 690.00 367.50 L 690.00 336.00 L 593.00 336.00 L 496.00 336.00 L 496.00 367.50 L 496.00 399.00 L 498.98 399.00 L 501.97 399.00 L 502.23 371.25 ZM 516.23 378.25 L 516.50 357.50 L 521.50 356.84 C527.80,356.00 666.28,355.79 668.42,356.61 C669.79,357.13 670.00,359.98 670.00,378.11 L 670.00 399.00 L 673.50 399.00 L 677.00 399.00 L 677.00 374.50 L 677.00 350.00 L 593.50 350.00 C514.67,350.00 510.00,350.10 509.92,351.75 C509.87,352.71 509.87,363.40 509.92,375.50 C509.97,387.60 510.00,397.84 510.00,398.25 C510.00,398.66 511.34,399.00 512.98,399.00 L 515.96 399.00 L 516.23 378.25 ZM 528.78 384.25 L 529.05 370.00 L 592.92 370.00 C650.23,370.00 656.85,370.16 657.39,371.58 C657.73,372.45 658.00,379.01 658.00,386.15 C658.00,399.05 658.02,399.14 660.25,398.82 C662.47,398.50 662.50,398.28 662.77,381.25 L 663.05 364.00 L 593.02 364.00 L 523.00 364.00 L 523.00 381.57 L 523.00 399.13 L 525.75 398.82 L 528.50 398.50 L 528.78 384.25 ZM 541.21 390.75 L 541.50 383.50 L 593.25 383.24 L 645.00 382.98 L 645.00 390.49 C645.00,397.83 645.06,398.00 647.50,398.00 L 650.00 398.00 L 650.00 387.50 L 650.00 377.00 L 593.00 377.00 L 536.00 377.00 L 536.00 387.50 C536.00,397.98 536.00,398.00 538.46,398.00 C540.81,398.00 540.92,397.70 541.21,390.75 ZM 638.00 394.00 L 638.00 390.00 L 593.00 390.00 L 548.00 390.00 L 548.00 394.00 L 548.00 398.00 L 593.00 398.00 L 638.00 398.00 L 638.00 394.00 ZM 462.00 343.50 L 462.00 340.00 L 448.34 340.00 C434.76,340.00 434.64,340.02 429.84,343.10 C427.18,344.81 425.00,346.39 425.00,346.60 C425.00,346.82 433.33,347.00 443.50,347.00 L 462.00 347.00 L 462.00 343.50 ZM 761.00 346.59 C761.00,346.36 758.74,344.78 755.98,343.09 C751.01,340.02 750.86,340.00 736.98,340.00 L 723.00 340.00 L 723.00 343.50 L 723.00 347.00 L 742.00 347.00 C752.45,347.00 761.00,346.81 761.00,346.59 ZM 501.78 316.97 L 502.06 305.43 L 486.65 294.68 C473.63,285.60 471.14,283.46 470.62,280.87 C470.29,279.18 470.26,277.39 470.56,276.90 C470.89,276.38 522.35,276.00 593.56,276.00 L 716.00 276.00 L 716.00 279.75 C716.00,283.47 715.87,283.59 699.97,294.46 L 683.94 305.43 L 684.22 316.96 L 684.50 328.50 L 687.11 328.80 C689.43,329.07 689.79,328.69 690.35,325.30 C690.70,323.21 690.98,318.71 690.99,315.30 C691.00,311.03 691.44,308.85 692.41,308.30 C693.18,307.86 700.15,302.55 707.89,296.50 L 721.96 285.50 L 721.73 277.50 L 721.50 269.50 L 593.00 269.50 L 464.50 269.50 L 464.21 277.10 L 463.92 284.70 L 472.71 291.66 C477.54,295.49 484.76,301.20 488.75,304.35 L 496.00 310.09 L 496.00 319.61 L 496.00 329.13 L 498.75 328.82 L 501.50 328.50 L 501.78 316.97 ZM 514.77 309.25 L 515.04 290.00 L 517.77 289.89 C534.31,289.25 668.80,289.64 669.75,290.33 C670.67,291.01 671.00,296.17 671.00,310.12 L 671.00 329.00 L 674.00 329.00 L 677.00 329.00 L 677.00 315.16 L 677.00 301.31 L 690.08 292.41 L 703.16 283.50 L 648.08 283.24 C617.79,283.10 568.29,283.10 538.08,283.24 L 483.16 283.50 L 495.83 292.08 L 508.50 300.66 L 508.78 314.89 L 509.06 329.13 L 511.78 328.81 L 514.50 328.50 L 514.77 309.25 ZM 527.22 316.25 L 527.50 303.50 L 592.75 303.24 L 658.00 302.99 L 658.00 315.99 L 658.00 329.00 L 661.00 329.00 L 664.00 329.00 L 664.00 313.00 L 664.00 297.00 L 593.00 297.00 L 522.00 297.00 L 522.00 313.00 L 522.00 329.00 L 524.47 329.00 L 526.94 329.00 L 527.22 316.25 ZM 539.80 322.25 L 540.10 316.00 L 592.43 316.00 L 644.77 316.00 L 645.29 318.74 C645.58,320.25 645.61,321.83 645.35,322.24 C645.09,322.66 622.60,323.00 595.37,323.00 L 545.87 323.00 L 546.18 325.75 L 546.50 328.50 L 598.75 328.76 L 651.00 329.02 L 651.00 319.51 L 651.00 310.00 L 592.50 310.00 L 534.00 310.00 L 534.00 318.83 C534.00,323.69 534.32,327.99 534.71,328.38 C535.10,328.77 536.34,328.95 537.46,328.79 C539.23,328.54 539.54,327.66 539.80,322.25 ZM 532.50 261.23 C533.05,260.83 533.50,258.02 533.50,255.00 L 533.50 249.50 L 593.70 249.24 L 653.90 248.98 L 654.20 255.24 C654.46,260.73 654.74,261.50 656.50,261.50 C658.35,261.50 658.50,260.83 658.50,252.50 L 658.50 243.50 L 593.00 243.50 L 527.50 243.50 L 527.86 252.00 C528.18,259.48 528.96,261.97 531.00,261.97 C531.28,261.97 531.95,261.64 532.50,261.23 ZM 646.82 258.75 L 647.13 256.00 L 594.13 256.00 C560.61,256.00 540.90,256.36 540.51,256.98 C540.18,257.52 540.40,258.87 540.99,259.99 C542.07,261.99 542.72,262.01 594.29,261.76 L 646.50 261.50 L 646.82 258.75 Z" fill="rgba(0,0,0,1)"/>
</g>
</svg>