<svg xmlns="http://www.w3.org/2000/svg" width="1613" height="640" viewBox="0 0 1613 640">
<g>
<path d="M 206.33 583.32 C202.10,582.47 199.17,578.28 198.53,572.18 C197.68,564.12 196.31,559.59 194.13,557.62 C193.09,556.67 187.33,554.62 181.33,553.04 C145.22,543.57 117.73,523.43 97.67,491.75 C85.70,472.86 76.75,446.99 73.37,421.50 C71.35,406.24 71.88,374.52 74.25,368.90 C75.52,365.90 75.68,361.37 75.24,341.18 C74.83,322.53 75.00,316.71 75.98,315.53 C77.10,314.18 87.04,314.00 160.58,314.00 L 243.92 314.00 L 240.71 308.84 C237.51,303.71 237.50,303.62 237.16,288.34 C236.97,279.90 236.46,273.00 236.02,273.00 C234.84,273.00 233.82,268.14 234.53,265.91 C234.86,264.86 236.00,264.00 237.07,264.00 C238.96,264.00 239.00,262.49 239.15,196.25 C239.23,158.99 239.22,120.71 239.12,111.18 C238.90,90.33 240.15,84.39 246.16,77.56 C253.65,69.05 262.12,68.92 282.50,77.03 C295.80,82.32 304.89,85.84 365.00,108.95 C383.98,116.24 408.50,125.71 419.50,129.98 C464.02,147.26 472.18,150.22 472.93,149.38 C473.36,148.90 474.71,141.07 475.93,132.00 C477.86,117.65 479.55,106.29 481.55,94.25 L 482.09 91.00 L 499.08 91.00 C511.75,91.00 516.18,91.32 516.52,92.25 C516.78,92.94 517.55,97.51 518.24,102.42 L 519.50 111.33 L 538.00 122.78 C548.17,129.08 578.55,147.97 605.50,164.77 C658.41,197.74 682.85,212.94 704.00,226.05 C711.42,230.65 727.84,240.89 740.47,248.81 L 763.44 263.21 L 780.97 257.66 C790.61,254.61 807.72,249.34 819.00,245.95 C830.28,242.56 840.44,239.20 841.60,238.47 C842.75,237.75 847.32,236.16 851.75,234.95 C856.18,233.73 860.22,232.46 860.74,232.12 C861.25,231.78 863.38,228.24 865.46,224.25 L 869.25 217.00 L 885.54 217.00 C897.68,217.00 901.94,217.32 902.27,218.25 C902.50,218.94 902.48,222.26 902.22,225.63 L 901.75 231.76 L 905.36 232.95 C907.35,233.61 909.16,234.45 909.39,234.82 C909.61,235.20 911.24,242.48 912.99,251.00 C914.75,259.52 919.54,278.42 923.63,293.00 C931.82,322.16 933.12,328.95 931.84,335.86 C930.77,341.63 925.78,352.23 919.66,361.76 C917.10,365.75 915.00,369.24 915.00,369.50 C915.00,369.76 931.76,370.09 952.25,370.24 L 989.50 370.50 L 990.00 384.50 L 990.50 398.50 L 1040.00 398.79 C1091.57,399.09 1110.68,398.23 1116.33,395.36 C1122.91,392.01 1133.65,382.06 1163.62,351.54 C1189.45,325.25 1195.40,319.69 1200.00,317.56 L 1205.50 315.02 L 1239.25 315.01 C1266.31,315.00 1273.00,314.74 1273.00,313.70 C1273.00,312.42 1127.90,166.82 1125.98,166.17 C1125.35,165.95 1125.00,186.85 1125.00,224.96 C1125.00,282.90 1125.04,284.14 1127.04,286.84 C1128.89,289.35 1129.08,291.05 1129.06,305.30 C1129.05,313.94 1128.75,322.14 1128.40,323.54 C1128.05,324.93 1126.49,326.73 1124.93,327.53 C1119.18,330.51 1107.91,328.44 1106.55,324.16 C1106.20,323.04 1105.82,315.00 1105.70,306.27 C1105.52,291.87 1105.68,290.14 1107.50,287.46 C1109.44,284.59 1109.51,282.57 1109.82,220.79 L 1110.13 157.08 L 1106.32 155.49 C1098.40,152.18 1094.00,145.75 1094.00,137.49 C1094.00,129.31 1099.57,121.84 1106.75,120.40 C1109.45,119.86 1109.81,119.24 1111.37,112.64 C1112.30,108.69 1114.15,103.11 1115.48,100.24 L 1117.90 95.01 L 1199.70 94.76 L 1281.50 94.50 L 1282.00 87.50 L 1282.50 80.50 L 1308.15 80.23 L 1333.80 79.97 L 1334.41 85.73 C1334.74,88.90 1336.13,106.57 1337.51,125.00 C1345.17,227.86 1347.15,254.52 1348.56,274.00 C1349.41,285.83 1350.43,299.77 1350.81,305.00 L 1351.50 314.50 L 1450.00 315.00 L 1548.50 315.50 L 1548.45 320.03 C1548.37,327.38 1550.88,323.66 1473.01,432.00 C1457.40,453.73 1443.11,474.42 1441.27,478.00 C1437.97,484.39 1437.91,484.73 1437.80,498.00 C1437.67,515.03 1439.21,521.15 1444.92,526.31 C1450.31,531.18 1453.99,532.07 1472.57,532.99 C1487.05,533.71 1489.16,534.05 1493.82,536.41 C1506.12,542.64 1508.74,558.83 1499.28,570.08 C1493.41,577.06 1485.33,578.88 1445.50,582.17 C1435.14,583.02 1272.67,583.38 820.00,583.54 C483.67,583.66 207.52,583.56 206.33,583.32 ZM 1444.50 578.52 C1482.12,576.22 1490.48,574.53 1496.31,568.08 C1499.84,564.17 1502.00,558.79 1501.97,554.00 C1501.95,550.24 1498.60,543.62 1495.50,541.17 C1491.45,538.00 1487.23,537.16 1469.96,536.15 C1457.47,535.42 1453.40,534.80 1449.20,532.99 C1438.52,528.40 1435.04,520.88 1434.39,501.00 L 1433.98 488.50 L 766.88 488.25 C163.07,488.02 99.84,488.15 100.38,489.56 C101.82,493.30 111.16,505.21 119.21,513.57 C136.72,531.75 157.68,543.80 182.59,550.01 C187.49,551.23 192.69,552.84 194.15,553.59 C197.59,555.35 200.64,561.96 201.49,569.50 C202.52,578.65 203.67,579.85 211.74,580.20 C215.46,580.37 488.73,580.40 819.00,580.27 C1344.54,580.08 1422.62,579.86 1444.50,578.52 ZM 1437.31 478.75 C1440.30,471.94 1443.09,467.88 1481.49,414.50 C1543.12,328.81 1547.00,323.05 1545.62,319.45 C1545.12,318.16 1524.17,318.01 1374.78,318.24 C1211.47,318.49 1204.36,318.58 1201.00,320.35 C1199.07,321.36 1182.20,337.58 1163.50,356.39 C1126.84,393.27 1112.33,405.70 1097.50,412.93 C1081.80,420.58 1113.85,419.92 748.00,420.11 C490.48,420.24 418.53,420.01 415.00,419.05 C398.68,414.58 377.67,396.43 366.65,377.28 L 362.50 370.06 L 219.87 370.03 L 77.23 370.00 L 76.64 372.75 C76.31,374.26 75.75,382.02 75.39,390.00 C74.08,419.54 79.88,448.23 92.85,476.30 L 96.87 485.00 L 765.71 485.00 L 1434.55 485.00 L 1437.31 478.75 ZM 434.91 395.75 C437.72,384.06 440.02,374.16 440.01,373.75 C440.00,373.34 428.18,373.00 413.73,373.00 L 387.46 373.00 L 380.48 370.12 C366.03,364.16 364.25,364.89 369.40,374.63 C378.66,392.16 399.34,410.55 415.45,415.60 C417.68,416.29 421.82,416.90 424.65,416.93 L 429.79 417.00 L 434.91 395.75 ZM 559.51 415.75 C558.95,414.11 540.58,336.39 538.76,328.00 L 537.36 321.50 L 496.76 321.24 L 456.17 320.98 L 452.47 336.74 C450.44,345.41 445.30,367.01 441.05,384.75 L 433.33 417.00 L 496.63 417.00 C546.84,417.00 559.85,416.74 559.51,415.75 ZM 1086.52 413.78 C1093.83,411.30 1103.15,406.32 1109.16,401.69 C1111.08,400.21 1111.14,400.03 1109.50,400.67 C1108.40,401.10 1080.39,401.60 1047.25,401.79 L 987.00 402.13 L 987.00 388.06 L 987.00 374.00 L 769.93 374.00 C563.66,374.00 552.89,374.09 553.40,375.75 C554.20,378.34 563.00,415.57 563.00,416.35 C563.00,416.72 678.99,416.90 820.75,416.76 L 1078.50 416.50 L 1086.52 413.78 ZM 622.09 369.12 C622.42,368.78 623.70,363.77 624.94,358.00 C631.56,327.17 640.30,293.76 642.35,291.43 C644.75,288.69 649.98,287.21 677.50,281.46 C725.72,271.38 732.92,269.86 737.86,268.73 L 743.22 267.50 L 726.36 257.07 C694.69,237.49 565.96,157.38 540.40,141.35 C530.44,135.11 522.11,130.00 521.88,130.00 C521.65,130.00 522.02,136.41 522.70,144.25 C525.25,173.63 530.06,237.59 532.00,267.93 C533.62,293.23 534.32,299.70 535.60,301.11 C537.89,303.64 539.91,309.86 539.96,314.55 C539.99,317.74 549.26,360.50 551.60,368.22 C552.04,369.69 553.78,369.98 563.81,370.24 C580.08,370.67 621.37,369.88 622.09,369.12 ZM 442.32 365.50 C442.81,363.30 445.36,352.50 447.99,341.50 C450.63,330.50 453.10,318.35 453.49,314.51 C453.89,310.66 454.91,305.76 455.77,303.62 L 457.33 299.73 L 450.91 293.60 C435.64,279.01 329.07,176.13 303.72,151.50 C288.43,136.65 274.14,122.98 271.96,121.12 L 268.00 117.74 L 268.00 190.80 L 268.00 263.86 L 270.25 264.18 C272.12,264.45 272.55,265.22 272.81,268.75 C273.05,272.06 272.77,273.00 271.56,273.00 C270.22,273.00 270.00,275.04 270.00,287.53 C270.00,302.95 269.10,307.14 264.78,311.74 L 262.65 314.00 L 293.13 314.00 C315.49,314.00 323.92,314.32 324.80,315.20 C325.67,316.07 326.00,323.24 326.00,341.20 L 326.00 366.00 L 344.04 366.00 C359.02,366.00 362.49,365.72 364.56,364.37 C367.88,362.19 373.26,362.99 381.23,366.83 L 387.50 369.85 L 414.46 369.68 L 441.43 369.50 L 442.32 365.50 ZM 667.34 366.75 C667.65,364.96 669.37,351.58 671.16,337.01 C674.85,306.95 674.68,307.37 684.40,304.46 C696.05,300.98 729.94,294.78 740.18,294.26 C749.89,293.77 751.25,293.93 755.18,295.97 C761.05,299.01 772.13,308.18 777.07,314.08 C782.30,320.33 783.96,325.25 789.13,349.79 L 793.39 370.00 L 820.82 370.00 L 848.26 370.00 L 847.71 366.60 C847.05,362.51 842.41,352.96 837.47,345.51 C833.07,338.90 823.27,326.97 799.53,299.39 C778.12,274.51 770.17,266.00 768.30,266.00 C767.54,266.00 755.12,268.50 740.71,271.56 C667.59,287.08 648.50,291.27 646.35,292.25 C644.93,292.90 643.61,294.73 642.99,296.91 C641.52,302.13 627.30,361.83 626.48,366.25 L 625.78 370.00 L 646.28 370.00 L 666.78 370.00 L 667.34 366.75 ZM 790.00 369.69 C790.00,366.91 780.49,326.63 779.08,323.45 C775.84,316.13 762.56,303.41 753.04,298.51 C747.95,295.89 735.96,296.96 709.20,302.41 C684.69,307.40 678.36,309.55 677.56,313.18 C676.86,316.31 671.00,365.21 671.00,367.88 L 671.00 370.00 L 730.50 370.00 C763.22,370.00 790.00,369.86 790.00,369.69 ZM 915.67 361.70 C918.52,357.19 922.68,349.70 924.92,345.05 C930.77,332.95 930.64,331.30 921.14,296.94 L 913.28 268.50 L 877.14 268.24 C842.88,267.99 841.00,268.07 841.00,269.78 C841.00,270.77 839.66,286.11 838.03,303.87 L 835.05 336.16 L 838.94 341.33 C843.89,347.91 849.55,358.98 851.14,365.18 L 852.38 370.00 L 881.44 369.95 L 910.50 369.90 L 915.67 361.70 ZM 322.00 342.50 L 322.00 318.00 L 260.25 317.89 C226.29,317.84 189.50,317.84 178.50,317.90 C167.50,317.96 140.61,318.01 118.75,318.00 L 79.00 318.00 L 79.00 342.00 L 79.00 365.99 L 199.75 366.25 C266.16,366.39 320.84,366.62 321.25,366.75 C321.66,366.89 322.00,355.98 322.00,342.50 ZM 834.60 304.79 C835.89,290.33 836.96,277.35 836.97,275.94 L 837.00 273.38 L 813.77 276.66 C801.00,278.46 789.89,280.07 789.09,280.22 C787.69,280.49 794.98,289.62 812.46,309.50 C816.33,313.90 822.17,320.75 825.43,324.73 C828.70,328.71 831.57,331.76 831.82,331.52 C832.06,331.27 833.32,319.24 834.60,304.79 ZM 1124.96 323.07 C1125.55,321.98 1126.00,314.60 1126.00,306.26 C1126.00,288.16 1125.71,287.53 1117.62,287.64 C1109.02,287.77 1109.00,287.81 1109.00,305.69 C1109.00,314.42 1109.45,321.97 1110.04,323.07 C1110.89,324.67 1112.17,325.00 1117.50,325.00 C1122.83,325.00 1124.11,324.67 1124.96,323.07 ZM 536.47 312.75 C536.08,310.41 535.13,307.26 534.36,305.75 L 532.95 303.00 L 496.50 303.00 L 460.05 303.00 L 458.53 305.95 C457.69,307.57 457.00,310.72 457.00,312.95 L 457.00 317.00 L 497.09 317.00 L 537.18 317.00 L 536.47 312.75 ZM 1348.00 312.67 C1348.00,311.39 1347.09,298.23 1345.98,283.42 C1343.87,255.43 1342.11,231.68 1337.03,162.50 C1333.76,117.95 1332.30,98.95 1331.41,89.25 L 1330.84 83.00 L 1308.08 83.00 L 1285.31 83.00 L 1284.65 100.75 C1284.28,110.51 1283.54,128.85 1283.01,141.50 C1282.47,154.15 1281.35,181.60 1280.52,202.50 C1278.81,245.36 1277.37,279.72 1276.39,300.75 L 1275.73 315.00 L 1311.87 315.00 L 1348.00 315.00 L 1348.00 312.67 ZM 260.28 312.00 C265.64,307.78 267.00,302.76 267.00,287.18 L 267.00 273.00 L 253.50 273.00 L 240.00 273.00 L 240.02 286.75 C240.05,301.66 241.21,306.22 246.12,310.65 C250.25,314.38 256.50,314.97 260.28,312.00 ZM 1258.84 260.54 C1219.28,221.61 1140.80,144.79 1134.75,139.07 L 1128.00 132.68 L 1128.00 141.78 C1128.00,151.18 1126.99,155.68 1124.42,157.63 C1123.19,158.57 1135.97,171.69 1197.72,232.90 L 1272.50 307.03 L 1273.34 291.33 L 1274.18 275.64 L 1258.84 260.54 ZM 530.44 293.75 C530.17,290.31 528.82,270.62 527.44,250.00 C523.02,183.69 517.88,123.06 515.01,103.24 C514.48,99.53 514.03,95.93 514.02,95.22 C514.00,94.23 510.68,94.01 499.25,94.22 L 484.50 94.50 L 481.27 117.00 C477.17,145.54 465.52,238.73 463.59,258.50 C462.78,266.75 461.82,279.46 461.45,286.75 L 460.78 300.00 L 495.85 300.00 L 530.92 300.00 L 530.44 293.75 ZM 459.30 267.71 L 459.74 260.91 L 447.62 249.80 C420.95,225.36 414.34,219.36 385.00,193.00 C368.23,177.93 345.73,157.69 335.00,148.02 C324.27,138.35 307.10,122.92 296.83,113.73 L 278.15 97.03 L 272.09 103.76 L 266.03 110.50 L 280.77 125.03 C288.87,133.02 319.12,162.32 348.00,190.14 C376.88,217.96 413.33,253.13 429.00,268.30 L 457.50 295.87 L 458.18 285.19 C458.56,279.31 459.06,271.44 459.30,267.71 ZM 1116.00 220.50 C1116.00,157.67 1115.98,157.00 1114.00,157.00 C1112.02,157.00 1112.00,157.67 1112.00,220.50 C1112.00,283.33 1112.02,284.00 1114.00,284.00 C1115.98,284.00 1116.00,283.33 1116.00,220.50 ZM 1122.00 223.19 C1122.00,171.27 1121.79,162.10 1120.53,160.44 C1119.24,158.73 1119.06,165.86 1119.03,221.25 C1119.00,276.38 1119.18,284.00 1120.50,284.00 C1121.82,284.00 1122.00,276.58 1122.00,223.19 ZM 812.26 273.43 C825.59,271.47 836.85,269.52 837.28,269.10 C837.70,268.69 838.32,266.12 838.64,263.40 L 839.22 258.46 L 810.36 264.18 C794.49,267.32 780.95,270.03 780.27,270.20 C778.37,270.66 783.79,277.00 786.08,277.00 C787.15,277.00 798.93,275.39 812.26,273.43 ZM 1275.90 237.00 C1276.57,219.68 1277.74,190.65 1278.51,172.50 C1279.28,154.35 1280.00,135.45 1280.11,130.50 L 1280.30 121.50 L 1202.95 121.24 C1148.74,121.06 1125.30,121.31 1124.56,122.06 C1123.81,122.83 1137.22,136.61 1170.50,169.26 C1196.35,194.63 1230.09,227.88 1245.48,243.16 C1262.69,260.24 1273.70,270.46 1274.08,269.72 C1274.42,269.05 1275.24,254.32 1275.90,237.00 ZM 270.00 268.50 C270.00,267.23 267.56,267.00 254.00,267.00 C240.44,267.00 238.00,267.23 238.00,268.50 C238.00,269.77 240.44,270.00 254.00,270.00 C267.56,270.00 270.00,269.77 270.00,268.50 ZM 749.25 266.17 C751.18,265.40 751.00,265.29 686.00,224.94 C665.38,212.14 646.25,200.21 643.50,198.43 C640.75,196.65 620.50,184.06 598.50,170.45 C576.50,156.84 550.67,140.78 541.10,134.77 C521.62,122.51 521.00,122.19 521.00,124.27 C521.00,125.99 525.65,129.07 567.50,155.06 C584.55,165.64 608.40,180.47 620.50,188.01 C632.60,195.54 658.25,211.52 677.50,223.50 C696.75,235.49 719.47,249.57 728.00,254.79 C736.53,260.00 744.16,264.89 744.96,265.64 C746.58,267.14 746.74,267.16 749.25,266.17 ZM 802.20 262.51 C815.02,260.05 828.70,257.33 832.62,256.47 L 839.73 254.92 L 840.39 249.32 C840.75,246.24 840.89,243.55 840.68,243.35 C840.32,242.99 773.86,262.89 773.11,263.59 C772.27,264.36 775.34,267.00 777.07,267.00 C778.08,267.00 789.39,264.98 802.20,262.51 ZM 757.47 264.37 C759.51,263.59 760.11,263.99 724.50,242.00 C709.10,232.49 686.60,218.54 674.50,210.99 C652.34,197.17 640.25,189.65 565.76,143.37 C543.35,129.45 523.89,117.32 522.51,116.41 C520.13,114.86 520.00,114.87 520.00,116.69 C520.00,118.96 504.40,109.07 688.00,223.31 C707.53,235.46 730.47,249.78 739.00,255.13 C747.53,260.49 754.80,264.90 755.17,264.94 C755.54,264.97 756.57,264.72 757.47,264.37 ZM 245.00 182.11 C245.00,110.24 244.82,100.14 243.50,99.64 C242.17,99.13 242.00,108.64 242.00,181.53 C242.00,254.17 242.18,264.00 243.50,264.00 C244.82,264.00 245.00,254.23 245.00,182.11 ZM 250.00 183.00 C250.00,111.67 249.82,102.00 248.50,102.00 C247.18,102.00 247.00,111.67 247.00,183.00 C247.00,254.33 247.18,264.00 248.50,264.00 C249.82,264.00 250.00,254.33 250.00,183.00 ZM 255.05 262.75 C255.02,262.34 255.00,226.72 255.00,183.61 C255.00,114.85 254.82,105.14 253.50,104.64 C252.17,104.13 252.00,113.37 252.00,184.10 C252.00,255.94 252.16,264.11 253.55,263.82 C254.41,263.65 255.08,263.16 255.05,262.75 ZM 260.76 186.79 C260.98,119.63 260.83,110.10 259.51,109.01 C258.17,107.89 258.00,116.42 258.00,185.96 C258.00,248.08 258.26,264.08 259.25,263.75 C260.23,263.42 260.55,246.95 260.76,186.79 ZM 265.76 189.29 C265.98,124.35 265.83,115.10 264.51,114.01 C263.17,112.89 263.00,121.14 263.00,188.46 C263.00,248.58 263.26,264.08 264.25,263.75 C265.23,263.42 265.55,247.45 265.76,189.29 ZM 899.00 242.00 L 899.00 220.00 L 885.21 220.00 L 871.42 220.00 L 867.53 227.25 C865.40,231.24 863.23,234.78 862.71,235.13 C862.20,235.47 858.00,236.75 853.39,237.97 C848.77,239.19 844.99,240.48 844.98,240.84 C844.97,241.20 844.31,246.00 843.51,251.50 C842.72,257.00 842.05,262.06 842.03,262.75 C842.01,263.72 848.35,264.00 870.50,264.00 L 899.00 264.00 L 899.00 242.00 ZM 909.76 250.77 C908.17,243.49 906.33,237.20 905.68,236.78 C902.33,234.65 902.00,235.84 902.00,250.00 L 902.00 264.00 L 907.33 264.00 L 912.66 264.00 L 909.76 250.77 ZM 466.59 204.75 C469.20,183.43 471.14,165.84 470.91,165.64 C470.69,165.45 460.38,161.44 448.00,156.73 C429.02,149.51 395.99,136.78 291.75,96.50 C284.19,93.58 278.00,91.51 278.00,91.91 C278.00,92.69 282.41,96.70 338.50,146.99 C370.55,175.72 408.43,209.92 447.45,245.35 L 460.50 257.19 L 461.17 250.35 C461.54,246.58 463.98,226.06 466.59,204.75 ZM 471.84 159.53 C471.65,159.35 457.33,153.79 440.00,147.17 C422.67,140.55 389.15,127.64 365.50,118.49 C341.85,109.33 314.40,98.77 304.50,95.02 C294.60,91.26 284.08,87.23 281.12,86.06 C278.16,84.89 275.56,84.10 275.35,84.32 C274.07,85.60 276.81,87.90 281.79,89.72 C284.93,90.88 320.35,104.51 360.50,120.01 C472.98,163.45 471.45,162.89 471.84,161.27 C472.02,160.48 472.02,159.70 471.84,159.53 ZM 473.00 154.75 C473.00,154.06 466.60,151.08 458.75,148.11 C450.91,145.15 428.52,136.56 409.00,129.03 C389.48,121.50 359.10,109.80 341.50,103.03 C314.41,92.60 279.71,79.13 275.25,77.30 C273.18,76.45 273.85,79.85 275.97,80.99 C277.70,81.91 317.65,97.38 437.50,143.55 C455.10,150.33 470.29,155.90 471.25,155.94 C472.21,155.97 473.00,155.44 473.00,154.75 ZM 1123.80 153.80 C1124.60,153.00 1125.00,148.67 1125.00,140.90 L 1125.00 129.21 L 1121.34 126.00 C1117.89,122.97 1117.33,122.81 1111.31,123.19 C1105.56,123.56 1104.58,123.95 1101.28,127.25 C1098.07,130.46 1097.59,131.59 1097.26,136.70 C1096.97,141.26 1097.33,143.20 1098.94,145.76 C1101.56,149.93 1106.54,152.96 1111.00,153.10 C1112.93,153.15 1115.62,153.56 1117.00,154.00 C1120.71,155.19 1122.46,155.14 1123.80,153.80 ZM 1121.00 120.50 C1121.00,119.18 1130.49,119.00 1200.44,119.00 C1244.13,119.00 1280.11,118.64 1280.38,118.20 C1280.65,117.75 1280.97,112.92 1281.08,107.45 L 1281.28 97.50 L 1201.84 97.24 C1139.34,97.04 1122.03,97.26 1120.68,98.24 C1119.02,99.46 1114.89,110.14 1113.52,116.75 C1112.98,119.33 1113.17,120.00 1114.42,120.00 C1115.29,120.00 1116.00,119.56 1116.00,119.03 C1116.00,118.50 1116.68,118.32 1117.50,118.64 C1118.32,118.95 1119.00,119.84 1119.00,120.61 C1119.00,121.37 1119.45,122.00 1120.00,122.00 C1120.55,122.00 1121.00,121.32 1121.00,120.50 ZM 270.22 101.46 L 275.94 95.12 L 273.98 90.69 C272.90,88.25 271.68,83.86 271.25,80.92 C270.40,74.98 269.38,74.29 261.22,74.10 C251.46,73.87 244.92,80.32 242.53,92.54 C241.95,95.49 242.16,95.69 249.12,99.04 C253.08,100.94 257.88,103.74 259.79,105.25 C261.71,106.76 263.55,107.96 263.89,107.91 C264.22,107.85 267.07,104.96 270.22,101.46 ZM 207.17 574.25 C206.68,573.29 205.98,569.88 205.62,566.68 C204.44,556.20 199.01,549.05 190.70,547.03 C171.30,542.31 157.31,536.71 144.44,528.52 C134.75,522.36 122.64,511.51 115.85,502.91 C112.36,498.48 109.35,494.44 109.17,493.93 C108.96,493.36 362.07,493.00 769.42,493.00 L 1430.00 493.00 L 1430.00 502.79 C1430.00,518.90 1433.43,528.40 1441.30,534.11 C1447.56,538.63 1453.89,540.06 1471.50,540.89 C1483.46,541.45 1488.32,542.07 1490.73,543.34 C1499.82,548.10 1498.86,562.97 1489.15,567.93 C1482.44,571.35 1461.19,573.44 1417.28,575.00 C1401.24,575.57 1153.39,575.96 799.29,575.97 C237.22,576.00 208.03,575.91 207.17,574.25 ZM 1423.50 572.57 C1454.83,571.37 1478.13,569.25 1485.59,566.92 C1492.57,564.73 1496.67,556.45 1493.99,549.97 C1491.91,544.95 1488.56,543.95 1470.66,543.00 C1452.84,542.04 1446.50,540.59 1440.18,536.02 C1431.98,530.08 1428.25,520.88 1427.57,504.95 L 1427.17 495.50 L 770.09 495.25 C408.69,495.11 113.00,495.34 113.00,495.76 C113.00,497.02 126.13,511.46 131.26,515.85 C147.57,529.79 165.88,539.02 186.38,543.64 C195.00,545.58 197.54,546.83 201.71,551.17 C205.31,554.92 207.41,560.06 208.47,567.76 L 209.19 572.98 L 256.84 573.24 C357.69,573.79 1407.38,573.19 1423.50,572.57 ZM 95.75 471.23 C83.99,443.84 79.21,418.94 80.29,390.66 C80.60,382.49 81.04,375.63 81.26,375.40 C82.03,374.63 359.50,374.99 359.75,375.76 C360.48,377.93 368.54,389.34 373.70,395.50 C380.48,403.59 393.52,414.40 401.78,418.79 C414.51,425.56 385.13,425.05 749.69,424.76 C1063.17,424.51 1079.80,424.41 1085.50,422.71 C1098.81,418.74 1111.83,410.99 1127.76,397.55 C1132.57,393.50 1150.66,375.92 1167.97,358.50 C1185.28,341.07 1201.13,325.96 1203.18,324.91 C1206.81,323.05 1211.61,323.00 1372.96,323.00 C1464.28,323.00 1539.00,323.24 1539.00,323.54 C1539.00,323.84 1538.04,325.97 1536.86,328.29 C1534.62,332.71 1529.53,339.94 1487.47,398.50 C1440.19,464.31 1437.15,468.66 1434.36,474.35 L 1431.58 480.00 L 765.54 479.98 L 99.50 479.97 L 95.75 471.23 ZM 1432.60 472.75 C1435.27,467.45 1449.18,447.73 1500.51,376.50 C1515.97,355.05 1530.52,334.69 1532.85,331.25 L 1537.07 325.00 L 1372.50 325.00 C1212.65,325.00 1207.81,325.05 1204.21,326.90 C1202.17,327.95 1186.55,342.85 1169.50,360.01 C1122.95,406.86 1108.43,418.17 1086.50,424.71 C1080.80,426.41 1064.14,426.51 750.00,426.76 C520.56,426.95 417.93,426.70 414.38,425.97 C397.79,422.54 376.30,405.37 362.81,384.75 L 357.74 377.00 L 220.47 377.00 L 83.19 377.00 L 82.47 387.62 C80.69,413.76 86.60,445.73 97.75,470.25 L 101.28 478.00 L 765.62 478.00 L 1429.97 478.00 L 1432.60 472.75 ZM 417.10 411.42 C408.77,409.18 402.93,405.50 393.04,396.27 C384.50,388.30 375.00,376.64 375.00,374.12 C375.00,372.63 375.00,372.63 381.15,375.49 C386.38,377.93 387.03,377.98 410.61,377.99 L 434.73 378.00 L 431.23 393.25 C429.31,401.64 427.35,409.51 426.89,410.75 C425.92,413.33 424.57,413.43 417.10,411.42 ZM 425.39 408.25 C425.99,406.25 432.00,380.96 432.00,380.44 C432.00,380.25 421.09,379.96 407.75,379.79 C394.41,379.62 382.66,379.08 381.63,378.59 C379.95,377.79 379.89,377.92 380.96,379.93 C383.09,383.90 396.32,397.13 402.77,401.73 C413.14,409.13 424.17,412.31 425.39,408.25 ZM 440.00 410.87 C440.00,409.70 442.49,398.34 445.54,385.62 C448.58,372.91 452.89,354.85 455.11,345.50 C457.33,336.15 459.37,327.71 459.64,326.74 C460.11,325.09 462.52,324.99 496.79,325.24 L 533.43 325.50 L 539.61 352.00 C543.01,366.58 547.57,385.92 549.75,395.00 C551.93,404.08 553.52,411.84 553.30,412.25 C553.07,412.66 527.48,413.00 496.44,413.00 L 440.00 413.00 L 440.00 410.87 ZM 550.63 408.25 C550.35,407.29 548.07,397.73 545.55,387.00 C543.04,376.27 538.84,358.50 536.23,347.50 L 531.47 327.50 L 496.53 327.50 L 461.58 327.50 L 460.94 330.50 C459.90,335.35 442.96,406.33 442.39,408.25 C441.89,409.90 444.93,410.00 496.50,410.00 C548.06,410.00 551.11,409.90 550.63,408.25 ZM 566.54 411.75 C565.77,409.32 559.00,379.89 559.00,378.95 C559.00,378.35 637.68,378.00 771.00,378.00 L 983.00 378.00 L 983.00 392.00 L 983.00 406.00 L 1037.00 406.00 C1066.70,406.00 1091.00,406.37 1091.00,406.82 C1091.00,407.85 1082.35,410.54 1074.57,411.94 C1065.29,413.60 567.07,413.42 566.54,411.75 ZM 1077.50 409.28 C1079.09,408.31 1069.35,408.05 1029.87,408.03 L 980.24 408.00 L 980.37 394.25 L 980.50 380.50 L 771.25 380.25 C565.27,380.00 562.00,380.03 562.00,381.92 C562.00,383.86 567.87,408.92 568.62,410.17 C568.84,410.54 682.98,410.77 822.26,410.67 C1019.48,410.54 1075.94,410.23 1077.50,409.28 ZM 631.36 364.25 C631.64,363.29 632.39,359.80 633.02,356.50 C633.66,353.20 637.07,338.58 640.59,324.00 C644.11,309.42 646.99,297.18 647.00,296.79 C647.00,295.74 649.57,295.14 710.75,282.07 C741.68,275.47 767.62,270.30 768.38,270.59 C769.83,271.15 815.41,323.92 827.58,339.14 C834.05,347.21 840.90,358.55 842.46,363.77 L 843.15 366.04 L 819.85 365.77 L 796.56 365.50 L 795.72 361.00 C792.73,345.09 787.52,323.74 785.59,319.50 C782.01,311.65 766.84,297.13 756.57,291.71 C749.07,287.76 736.54,288.85 700.00,296.62 C680.11,300.85 673.50,303.55 671.57,308.21 C670.83,310.02 668.80,322.52 667.07,336.00 C665.34,349.48 663.68,361.74 663.38,363.25 L 662.84 366.00 L 646.85 366.00 C632.10,366.00 630.90,365.86 631.36,364.25 ZM 661.42 362.75 C661.62,362.06 663.26,349.66 665.08,335.19 C667.51,315.94 668.88,308.07 670.22,305.87 C673.22,300.95 680.95,298.24 707.32,292.87 C736.34,286.97 747.83,285.90 754.56,288.47 C760.57,290.77 773.37,300.44 780.06,307.75 C788.30,316.74 788.62,317.70 797.81,360.00 L 798.57 363.50 L 819.29 363.77 C830.68,363.92 840.00,363.76 840.00,363.42 C840.00,363.07 838.43,359.80 836.51,356.15 C832.85,349.18 822.01,335.10 807.87,318.93 C803.27,313.67 792.53,301.18 784.01,291.18 C771.56,276.57 768.02,273.00 766.01,273.00 C764.63,273.00 756.30,274.57 747.50,276.50 C738.70,278.42 714.40,283.62 693.50,288.04 C650.72,297.10 649.29,297.47 648.59,299.81 C646.81,305.72 634.00,361.21 634.00,362.99 C634.00,364.57 660.97,364.33 661.42,362.75 ZM 855.26 363.90 C854.24,359.98 847.08,346.00 843.06,340.09 L 839.06 334.20 L 841.04 311.35 C842.14,298.78 843.36,284.90 843.76,280.50 L 844.50 272.50 L 876.50 271.96 C898.02,271.60 908.86,271.76 909.60,272.46 C910.58,273.39 912.49,280.02 922.11,316.00 C925.97,330.44 925.85,333.85 921.15,343.55 C919.03,347.92 915.19,354.76 912.60,358.75 L 907.90 366.00 L 881.86 366.00 C856.26,366.00 855.80,365.96 855.26,363.90 ZM 913.02 353.98 C919.88,342.86 923.00,335.63 923.01,330.74 C923.01,328.96 919.75,315.46 915.76,300.75 L 908.50 274.00 L 877.48 274.00 L 846.47 274.00 L 843.88 303.69 L 841.29 333.38 L 845.75 340.28 C848.20,344.07 851.96,350.96 854.10,355.59 L 857.98 364.00 L 882.40 364.00 L 906.82 364.00 L 913.02 353.98 ZM 83.00 342.00 L 83.00 322.00 L 200.50 322.00 L 318.00 322.00 L 318.00 342.00 L 318.00 362.00 L 200.50 362.00 L 83.00 362.00 L 83.00 342.00 ZM 316.00 342.00 L 316.00 324.00 L 200.50 324.00 L 85.00 324.00 L 85.00 341.33 C85.00,350.87 85.30,358.97 85.67,359.33 C86.03,359.70 138.01,360.00 201.17,360.00 L 316.00 360.00 L 316.00 342.00 ZM 819.33 311.28 C800.23,288.78 796.07,283.49 797.27,283.26 C803.65,282.02 832.46,278.12 832.79,278.46 C833.35,279.02 830.02,316.77 829.14,319.78 C828.55,321.83 827.54,320.96 819.33,311.28 ZM 830.47 286.39 C831.03,281.94 830.88,281.00 829.63,281.00 C827.72,281.00 800.71,284.95 800.39,285.28 C800.25,285.41 806.30,292.71 813.82,301.49 L 827.50 317.47 L 828.65 304.62 C829.28,297.56 830.10,289.35 830.47,286.39 ZM 1113.09 320.61 C1112.32,319.67 1112.03,314.73 1112.22,305.36 L 1112.50 291.50 L 1117.50 291.50 L 1122.50 291.50 L 1122.78 304.76 C1122.95,312.78 1122.64,318.81 1121.99,320.01 C1120.73,322.38 1114.88,322.77 1113.09,320.61 ZM 1120.37 316.75 C1121.49,312.55 1121.06,295.46 1119.80,294.20 C1118.11,292.51 1115.33,292.71 1114.61,294.58 C1113.78,296.73 1113.83,317.50 1114.67,318.33 C1116.24,319.91 1119.79,318.93 1120.37,316.75 ZM 461.00 312.08 C461.00,306.79 459.55,307.00 496.55,307.00 C515.43,307.00 531.07,307.34 531.30,307.75 C531.53,308.16 532.02,309.74 532.38,311.25 L 533.04 314.00 L 497.02 314.00 C462.18,314.00 461.00,313.94 461.00,312.08 ZM 530.00 310.50 C530.00,309.20 525.61,309.00 496.50,309.00 C467.39,309.00 463.00,309.20 463.00,310.50 C463.00,311.80 467.39,312.00 496.50,312.00 C525.61,312.00 530.00,311.80 530.00,310.50 ZM 1281.39 294.25 C1281.76,285.59 1282.48,267.92 1282.99,255.00 C1283.51,242.07 1284.86,208.32 1286.00,180.00 C1287.14,151.68 1288.39,119.28 1288.79,108.00 L 1289.50 87.50 L 1308.25 87.23 C1319.30,87.07 1327.00,87.34 1327.00,87.88 C1327.00,88.39 1328.34,106.74 1329.97,128.66 C1331.61,150.57 1334.32,187.40 1336.00,210.50 C1337.68,233.60 1339.94,264.58 1341.03,279.33 C1342.11,294.09 1343.00,307.03 1343.00,308.08 C1343.00,309.93 1341.87,310.00 1311.86,310.00 L 1280.72 310.00 L 1281.39 294.25 ZM 1341.00 307.15 C1341.00,306.68 1340.56,300.71 1340.01,293.90 C1339.47,287.08 1337.66,262.60 1335.99,239.50 C1332.89,196.51 1326.48,110.65 1325.35,96.75 L 1324.71 89.00 L 1308.44 89.00 L 1292.16 89.00 L 1291.61 95.25 C1291.31,98.69 1290.81,109.15 1290.50,118.50 C1289.87,137.82 1284.39,273.35 1283.40,294.25 L 1282.74 308.00 L 1311.87 308.00 C1327.89,308.00 1341.00,307.62 1341.00,307.15 ZM 249.22 309.33 C248.52,309.05 246.95,306.94 245.74,304.66 C243.81,301.02 243.54,298.94 243.52,288.00 L 243.50 275.50 L 253.83 275.21 L 264.15 274.93 L 263.83 288.80 C263.51,302.21 263.41,302.78 260.70,306.33 C258.33,309.43 257.33,309.99 254.20,309.92 C252.16,309.88 249.93,309.61 249.22,309.33 ZM 259.18 304.75 C261.30,301.79 261.50,300.45 261.50,289.50 L 261.50 277.50 L 253.75 277.21 L 246.00 276.92 L 245.86 284.71 C245.78,288.99 245.83,294.30 245.97,296.50 C246.61,306.97 254.21,311.72 259.18,304.75 ZM 1197.78 227.23 C1134.91,164.35 1128.18,157.31 1129.21,155.53 C1129.83,154.45 1130.61,150.85 1130.94,147.53 L 1131.53 141.50 L 1168.92 178.00 C1189.48,198.07 1220.62,228.68 1238.11,246.00 L 1269.92 277.50 L 1269.32 287.25 C1269.00,292.61 1268.45,296.99 1268.11,296.98 C1267.78,296.97 1236.13,265.59 1197.78,227.23 ZM 1266.81 277.91 C1266.21,276.56 1242.51,253.10 1149.91,162.22 L 1135.32 147.90 L 1133.82 153.20 L 1132.32 158.50 L 1199.41 225.76 L 1266.50 293.02 L 1267.01 286.26 C1267.29,282.54 1267.20,278.78 1266.81,277.91 ZM 1133.46 150.35 C1133.89,147.76 1133.74,145.96 1133.07,145.54 C1132.40,145.13 1132.00,145.99 1132.00,147.82 C1132.00,149.43 1131.74,152.27 1131.43,154.12 C1131.04,156.48 1131.16,157.05 1131.82,156.00 C1132.35,155.18 1133.08,152.63 1133.46,150.35 ZM 466.47 283.25 C467.64,262.46 468.94,249.86 475.11,199.50 C477.72,178.23 485.82,116.89 487.79,103.50 L 488.52 98.50 L 499.10 98.22 L 509.69 97.94 L 510.82 106.22 C513.39,124.92 518.57,188.12 522.93,254.00 C524.05,270.77 525.16,286.86 525.41,289.75 L 525.86 295.00 L 495.83 295.00 L 465.80 295.00 L 466.47 283.25 ZM 523.00 288.75 C523.00,283.90 519.01,224.66 515.98,184.50 C513.33,149.43 511.41,128.53 509.38,112.71 L 507.73 99.93 L 499.14 100.21 L 490.55 100.50 L 489.78 105.00 C488.30,113.72 480.99,168.88 477.06,201.00 C471.88,243.31 469.24,268.94 468.67,282.25 L 468.22 293.00 L 495.61 293.00 L 523.00 293.00 L 523.00 288.75 ZM 451.83 285.18 C451.52,284.41 414.08,248.09 316.50,153.86 C293.95,132.09 274.63,113.30 273.56,112.10 C271.62,109.92 271.62,109.92 275.30,106.23 L 278.99 102.55 L 284.74 108.10 C287.91,111.16 296.80,119.25 304.50,126.07 C341.39,158.78 453.38,260.19 454.36,261.77 C455.14,263.04 453.79,286.00 452.93,286.00 C452.51,286.00 452.02,285.63 451.83,285.18 ZM 452.66 263.56 C452.14,262.20 423.67,236.10 367.50,185.50 C350.45,170.14 331.99,153.51 326.48,148.54 C320.97,143.57 310.42,134.10 303.03,127.50 C295.65,120.90 287.22,113.29 284.30,110.60 C279.12,105.82 278.94,105.74 276.99,107.50 C275.90,108.50 275.00,109.63 275.00,110.02 C275.00,110.41 293.34,128.43 315.75,150.07 C338.16,171.71 377.16,209.46 402.42,233.96 C427.68,258.46 449.05,279.18 449.92,280.01 C451.35,281.38 451.58,280.75 452.34,273.21 C452.80,268.64 452.94,264.29 452.66,263.56 ZM 846.64 260.17 C846.03,259.11 848.01,244.59 848.88,243.72 C849.31,243.29 853.16,241.99 857.44,240.82 C864.68,238.86 865.42,238.40 868.00,234.34 C869.52,231.94 871.32,228.63 872.01,226.99 L 873.24 224.00 L 884.14 224.00 L 895.05 224.00 L 894.77 242.25 L 894.50 260.50 L 870.76 260.67 C857.70,260.76 846.85,260.54 846.64,260.17 ZM 893.00 242.00 L 893.00 226.00 L 884.06 226.00 L 875.12 226.00 L 871.31 232.98 C867.25,240.41 866.58,240.89 856.65,243.39 C853.44,244.20 850.68,245.00 850.52,245.18 C850.36,245.36 849.91,248.31 849.51,251.75 L 848.80 258.00 L 870.90 258.00 L 893.00 258.00 L 893.00 242.00 ZM 905.64 257.25 C905.30,255.19 905.07,251.70 905.13,249.50 L 905.24 245.50 L 906.52 250.50 C908.06,256.49 908.32,261.00 907.13,261.00 C906.65,261.00 905.98,259.31 905.64,257.25 ZM 1120.50 152.17 C1119.95,151.64 1116.69,151.03 1113.26,150.80 C1108.41,150.47 1106.44,149.83 1104.38,147.94 C1098.38,142.40 1097.81,134.55 1103.02,128.98 C1105.52,126.30 1106.42,126.00 1111.95,126.00 C1117.31,126.00 1118.41,126.34 1120.55,128.65 C1122.66,130.92 1122.99,132.21 1122.93,137.90 C1122.82,147.03 1121.75,153.35 1120.50,152.17 ZM 1120.93 147.25 C1120.87,144.85 1120.76,144.75 1120.05,146.50 C1119.61,147.60 1119.45,148.84 1119.68,149.25 C1120.53,150.71 1121.00,149.96 1120.93,147.25 ZM 1118.75 147.25 C1119.92,144.28 1119.53,134.67 1118.11,131.25 C1116.86,128.24 1116.41,128.00 1112.10,128.00 C1109.54,128.00 1106.46,128.69 1105.26,129.53 C1101.36,132.26 1100.53,139.19 1103.50,144.18 C1106.11,148.57 1117.34,150.83 1118.75,147.25 ZM 1120.69 132.27 C1120.44,131.30 1120.22,131.85 1120.19,133.50 C1120.17,135.15 1120.38,135.95 1120.66,135.27 C1120.93,134.59 1120.95,133.24 1120.69,132.27 ZM 1117.06 114.50 C1117.09,113.40 1118.11,109.80 1119.31,106.50 L 1121.51 100.50 L 1199.75 100.24 L 1278.00 99.99 L 1278.00 107.98 L 1278.00 115.98 L 1197.50 116.24 C1117.56,116.50 1117.00,116.49 1117.06,114.50 ZM 1276.00 108.00 L 1276.00 102.00 L 1199.96 102.00 L 1123.93 102.00 L 1121.96 106.58 C1120.88,109.10 1120.00,111.80 1120.00,112.58 C1120.00,113.79 1131.36,114.00 1198.00,114.00 L 1276.00 114.00 L 1276.00 108.00 ZM 259.89 101.99 C258.45,100.91 254.51,98.66 251.13,96.99 C245.38,94.14 245.02,93.75 245.65,91.22 C246.90,86.18 248.81,82.51 251.49,80.00 C253.78,77.86 255.10,77.50 260.74,77.50 C266.89,77.50 267.36,77.66 268.04,80.00 C268.44,81.38 269.57,85.33 270.55,88.79 L 272.34 95.08 L 267.96 99.54 C265.55,101.99 263.34,103.99 263.04,103.97 C262.74,103.95 261.33,103.06 259.89,101.99 ZM 266.96 97.39 C269.08,94.97 269.90,93.24 269.42,92.14 C269.04,91.24 268.13,88.36 267.41,85.74 C266.70,83.13 265.83,80.54 265.50,79.99 C264.57,78.49 258.28,78.80 254.96,80.52 C252.10,82.00 248.00,88.41 248.00,91.40 C248.00,92.22 250.89,94.30 254.54,96.09 C258.13,97.86 261.31,99.69 261.60,100.16 C262.54,101.68 263.75,101.05 266.96,97.39 ZM 213.12 566.77 C212.66,565.52 211.95,562.72 211.56,560.55 C210.14,552.78 205.26,546.12 198.49,542.71 C196.84,541.88 190.82,540.02 185.13,538.58 C163.01,532.99 146.22,523.62 128.75,507.12 C125.59,504.14 123.00,501.31 123.00,500.85 C123.00,500.38 415.50,500.00 773.00,500.00 L 1423.00 500.00 L 1423.01 506.25 C1423.03,513.58 1425.19,523.49 1427.94,528.88 C1430.72,534.33 1439.73,542.18 1445.57,544.24 C1452.22,546.58 1462.57,547.96 1473.78,547.98 C1487.40,548.01 1491.66,550.34 1490.04,556.91 C1488.95,561.37 1485.31,562.94 1472.48,564.47 C1439.14,568.46 1448.28,568.40 820.23,568.72 L 213.97 569.04 L 213.12 566.77 ZM 1441.00 565.14 C1464.54,563.43 1481.47,561.36 1484.71,559.82 C1487.96,558.26 1488.95,554.04 1486.53,552.03 C1485.50,551.17 1479.77,550.47 1469.73,549.98 C1448.39,548.92 1440.70,546.45 1432.05,537.84 C1425.14,530.96 1422.52,523.95 1420.45,506.75 L 1419.88 502.00 L 773.94 502.00 C365.13,502.00 128.00,502.35 128.00,502.95 C128.00,504.38 140.50,514.85 148.69,520.30 C159.26,527.32 171.73,532.82 184.35,536.01 C199.03,539.73 200.22,540.24 205.38,545.00 C209.86,549.12 213.28,555.57 214.51,562.19 C215.07,565.19 215.70,565.97 217.85,566.31 C219.31,566.54 491.40,566.64 822.50,566.54 C1280.27,566.39 1428.45,566.06 1441.00,565.14 ZM 103.59 470.75 C99.36,464.18 92.31,441.82 89.44,425.85 C87.62,415.67 86.45,393.14 87.42,386.71 L 88.12 382.00 L 221.48 382.00 L 354.83 382.00 L 360.61 390.25 C371.22,405.41 388.59,420.83 401.50,426.54 C414.61,432.34 391.06,431.97 745.62,431.99 C1034.35,432.00 1072.75,431.82 1080.54,430.47 C1105.96,426.03 1125.23,412.11 1171.38,364.81 C1185.50,350.34 1199.34,336.59 1202.13,334.25 L 1207.20 330.00 L 1367.10 330.00 C1455.04,330.00 1527.00,330.38 1527.00,330.84 C1527.00,331.96 1519.87,342.05 1472.07,408.50 C1449.92,439.30 1430.68,466.41 1429.30,468.75 L 1426.81 473.00 L 765.93 473.00 L 105.05 473.00 L 103.59 470.75 ZM 1433.00 459.25 C1437.46,452.79 1447.28,438.95 1454.82,428.50 C1469.25,408.51 1491.22,377.98 1511.68,349.50 L 1523.89 332.50 L 1367.19 332.23 C1281.01,332.08 1209.48,332.20 1208.23,332.50 C1206.98,332.80 1190.33,348.72 1171.23,367.87 C1129.75,409.46 1114.78,421.62 1096.49,428.56 C1081.53,434.24 1101.66,433.93 745.96,433.97 C387.46,434.00 413.17,434.41 400.33,428.55 C387.26,422.58 368.43,405.76 358.57,391.25 L 353.65 384.00 L 221.90 384.00 L 90.14 384.00 L 89.42 389.75 C88.41,397.78 90.54,421.47 93.39,434.00 C96.05,445.65 99.57,456.71 103.38,465.32 L 105.89 471.00 L 765.39 471.00 L 1424.88 471.00 L 1433.00 459.25 ZM 416.40 404.54 C414.14,403.86 410.21,401.87 407.67,400.11 C402.11,396.29 391.00,386.14 391.00,384.89 C391.00,384.40 398.88,384.00 408.50,384.00 C425.57,384.00 426.00,384.05 426.00,386.08 C426.00,388.76 422.07,404.30 421.18,405.14 C420.80,405.49 418.65,405.22 416.40,404.54 ZM 421.03 398.75 C421.63,396.41 422.55,392.92 423.06,391.00 C423.57,389.08 423.99,387.16 423.99,386.75 C424.00,386.34 417.70,386.00 410.00,386.00 C401.69,386.00 396.00,386.39 396.00,386.96 C396.00,389.60 415.31,402.94 419.21,402.99 C419.60,403.00 420.42,401.09 421.03,398.75 ZM 449.88 405.18 C448.19,404.47 449.60,397.69 461.80,348.00 L 465.61 332.50 L 496.58 332.24 L 527.55 331.97 L 536.18 368.24 C540.92,388.18 544.62,404.79 544.40,405.15 C543.88,406.01 451.94,406.05 449.88,405.18 ZM 542.00 402.58 C542.00,402.34 538.83,388.95 534.96,372.83 C531.09,356.70 527.46,341.36 526.88,338.75 L 525.83 334.00 L 496.42 334.00 C480.24,334.00 467.00,334.36 467.00,334.80 C467.00,335.24 463.63,349.75 459.51,367.05 C455.39,384.35 451.78,399.51 451.49,400.75 L 450.96 403.00 L 496.48 403.00 C521.52,403.00 542.00,402.81 542.00,402.58 ZM 571.51 404.75 C571.03,403.33 567.00,386.06 567.00,385.42 C567.00,385.19 659.03,385.00 771.50,385.00 L 976.00 385.00 L 976.00 395.50 L 976.00 406.00 L 773.97 406.00 C613.24,406.00 571.85,405.74 571.51,404.75 ZM 974.00 395.50 L 974.00 387.00 L 772.00 387.00 C660.90,387.00 570.00,387.33 570.00,387.73 C570.00,388.13 570.75,391.95 571.67,396.23 L 573.34 404.00 L 773.67 404.00 L 974.00 404.00 L 974.00 395.50 ZM 817.26 359.22 C802.43,358.96 802.01,358.89 801.53,356.72 C801.25,355.50 799.65,348.10 797.97,340.28 C792.94,316.90 790.33,311.38 779.32,300.91 C766.71,288.92 756.61,283.00 748.73,283.00 C745.95,283.00 744.00,282.66 744.42,282.25 C744.83,281.84 749.74,280.54 755.33,279.36 C764.78,277.38 765.63,277.34 767.37,278.86 C769.91,281.09 815.10,333.62 822.61,343.08 C829.41,351.65 833.32,357.65 832.83,358.75 C832.65,359.16 825.64,359.38 817.26,359.22 ZM 827.16 352.75 C825.55,350.41 822.04,345.74 819.36,342.37 C812.79,334.09 767.13,281.20 765.90,280.44 C764.53,279.59 757.00,280.98 757.00,282.09 C757.00,282.59 757.57,283.00 758.26,283.00 C762.13,283.00 779.78,297.38 787.71,306.98 C794.01,314.61 796.40,321.24 800.64,342.82 L 803.43 357.00 L 816.76 357.00 L 830.10 357.00 L 827.16 352.75 ZM 639.69 355.75 C640.05,353.96 643.09,341.02 646.46,327.00 L 652.58 301.50 L 657.46 300.29 C660.14,299.62 664.39,298.76 666.90,298.39 L 671.47 297.70 L 668.33 301.27 C664.56,305.57 664.11,307.60 660.39,336.75 L 657.56 359.00 L 648.30 359.00 L 639.05 359.00 L 639.69 355.75 ZM 656.00 355.73 C656.00,350.69 662.40,306.98 663.54,304.26 L 664.96 300.85 L 661.73 301.55 C654.02,303.23 654.67,301.98 648.69,326.69 C645.65,339.23 642.86,351.19 642.47,353.25 L 641.78 357.00 L 648.89 357.00 C653.98,357.00 656.00,356.64 656.00,355.73 ZM 858.29 355.77 C855.96,349.94 851.32,341.32 847.91,336.50 L 845.09 332.50 L 847.52 306.50 C848.85,292.20 849.96,279.94 849.97,279.25 C849.99,278.28 856.24,278.00 877.79,278.00 L 905.58 278.00 L 912.04 301.75 C920.53,332.96 920.53,333.11 911.90,348.06 L 905.30 359.50 L 882.65 359.77 L 860.00 360.04 L 858.29 355.77 ZM 907.66 351.25 C913.91,341.03 917.00,334.38 917.00,331.16 C917.00,329.57 914.08,317.55 910.50,304.46 C906.92,291.37 904.00,280.51 904.00,280.33 C904.00,279.62 852.00,280.04 851.97,280.75 C851.95,281.16 850.88,292.75 849.59,306.50 L 847.23 331.50 L 851.52 338.27 C853.87,341.99 857.07,347.96 858.62,351.52 L 861.45 358.00 L 882.49 358.00 L 903.54 358.00 L 907.66 351.25 ZM 90.00 342.00 L 90.00 329.00 L 200.50 329.00 L 311.00 329.00 L 311.00 342.00 L 311.00 355.00 L 200.50 355.00 L 90.00 355.00 L 90.00 342.00 ZM 309.00 342.00 L 309.00 331.00 L 200.50 331.00 L 92.00 331.00 L 92.00 342.00 L 92.00 353.00 L 200.50 353.00 L 309.00 353.00 L 309.00 342.00 ZM 820.38 302.75 C815.58,297.57 808.71,288.95 809.12,288.61 C809.55,288.26 823.31,286.00 825.02,286.00 C826.25,286.00 825.38,303.83 824.08,305.25 C823.70,305.67 822.04,304.54 820.38,302.75 ZM 823.15 295.00 L 823.50 288.51 L 819.50 288.85 C812.57,289.44 812.40,290.08 817.54,296.39 C820.11,299.54 822.34,301.98 822.51,301.81 C822.67,301.64 822.96,298.58 823.15,295.00 ZM 1117.37 306.50 C1117.37,301.00 1117.54,298.88 1117.74,301.78 C1117.94,304.69 1117.94,309.19 1117.73,311.78 C1117.53,314.38 1117.36,312.00 1117.37,306.50 ZM 1288.48 291.25 C1288.81,284.79 1289.73,262.85 1290.53,242.50 C1292.31,197.25 1294.87,133.26 1295.81,111.00 L 1296.50 94.50 L 1308.20 94.22 L 1319.90 93.94 L 1320.45 97.22 C1320.96,100.28 1324.81,152.19 1331.96,252.50 C1333.61,275.60 1335.08,296.41 1335.24,298.75 L 1335.51 303.00 L 1311.70 303.00 L 1287.88 303.00 L 1288.48 291.25 ZM 1333.00 297.62 C1333.00,295.76 1332.11,282.15 1331.02,267.37 C1329.94,252.59 1327.90,224.75 1326.49,205.50 C1325.09,186.25 1323.30,161.95 1322.52,151.50 C1321.74,141.05 1320.60,125.30 1319.98,116.50 C1318.38,93.65 1319.74,96.00 1308.18,96.00 L 1298.39 96.00 L 1296.67 140.25 C1293.42,224.00 1291.10,281.52 1290.59,291.25 L 1290.08 301.00 L 1311.54 301.00 L 1333.00 301.00 L 1333.00 297.62 ZM 251.04 302.32 C249.32,300.13 249.00,298.27 249.00,290.37 L 249.00 281.00 L 254.00 281.00 L 259.00 281.00 L 259.00 289.55 C259.00,302.05 255.38,307.85 251.04,302.32 ZM 255.90 298.85 C256.51,297.12 257.00,292.84 257.00,289.35 L 257.00 283.00 L 254.00 283.00 L 251.00 283.00 L 251.00 290.57 C251.00,301.12 253.59,305.49 255.90,298.85 ZM 1198.73 220.19 C1163.66,185.16 1134.97,155.98 1134.98,155.35 C1135.01,153.59 1143.59,161.69 1193.99,211.06 C1219.57,236.12 1245.79,261.71 1252.25,267.94 C1260.75,276.13 1264.00,279.92 1264.00,281.63 C1264.00,282.94 1263.66,283.97 1263.25,283.94 C1262.84,283.91 1233.81,255.22 1198.73,220.19 ZM 474.31 274.75 C474.64,267.46 476.07,251.60 477.48,239.50 C480.46,213.89 491.36,127.66 493.29,114.50 L 494.60 105.50 L 499.30 105.20 C503.27,104.94 504.00,105.17 504.01,106.70 C504.01,107.69 504.46,112.32 505.01,117.00 C506.60,130.65 511.75,194.43 514.45,234.00 C515.82,254.07 517.23,274.44 517.58,279.25 L 518.21 288.00 L 495.96 288.00 L 473.70 288.00 L 474.31 274.75 ZM 515.55 278.71 C515.22,274.74 513.60,252.15 511.95,228.50 C507.97,171.22 504.40,127.57 502.40,111.69 C501.84,107.21 501.62,106.91 499.15,107.19 C496.56,107.49 496.46,107.77 494.78,119.50 C487.86,167.80 477.16,257.41 476.33,274.00 L 475.71 286.50 L 495.94 286.21 L 516.16 285.92 L 515.55 278.71 ZM 419.00 244.36 C402.77,228.64 371.05,198.12 348.50,176.52 C325.95,154.93 306.15,135.75 304.50,133.92 C300.65,129.63 309.79,137.88 369.50,192.56 C386.22,207.87 414.70,233.66 432.27,249.41 C441.42,257.61 449.14,264.92 449.42,265.66 C450.30,267.94 447.47,267.14 444.92,264.38 C442.90,262.19 427.39,247.93 406.00,228.59 C398.75,222.04 406.54,229.81 421.54,244.09 C428.71,250.91 438.04,259.81 442.29,263.87 C449.37,270.63 451.23,273.06 449.25,272.96 C448.84,272.95 435.23,260.07 419.00,244.36 ZM 853.19 251.85 C853.55,248.19 854.16,247.79 863.51,245.10 L 870.53 243.09 L 873.75 236.54 L 876.98 230.00 L 882.99 230.00 L 889.00 230.00 L 889.00 242.50 L 889.00 255.00 L 870.94 255.00 L 852.87 255.00 L 853.19 251.85 ZM 887.00 242.50 L 887.00 232.00 L 882.71 232.00 C878.44,232.00 878.42,232.02 875.25,238.45 L 872.07 244.89 L 864.79 247.00 C860.78,248.16 856.94,249.30 856.25,249.52 C855.56,249.75 855.00,250.63 855.00,251.47 C855.00,252.78 857.30,253.00 871.00,253.00 L 887.00 253.00 L 887.00 242.50 ZM 1106.82 142.97 C1104.37,140.53 1103.93,139.43 1104.48,137.22 C1105.56,132.89 1107.89,131.00 1112.16,131.00 L 1116.00 131.00 L 1116.00 138.50 L 1116.00 146.00 L 1112.92 146.00 C1110.83,146.00 1108.88,145.03 1106.82,142.97 ZM 1114.00 138.00 C1114.00,133.45 1113.79,133.00 1111.70,133.00 C1108.68,133.00 1107.00,134.79 1107.00,138.00 C1107.00,141.21 1108.68,143.00 1111.70,143.00 C1113.79,143.00 1114.00,142.55 1114.00,138.00 ZM 1124.00 109.58 C1124.00,104.75 1119.85,105.00 1199.11,105.00 L 1273.00 105.00 L 1273.00 108.00 L 1273.00 111.00 L 1198.50 111.00 C1134.85,111.00 1124.00,110.79 1124.00,109.58 ZM 1271.00 108.00 C1271.00,107.34 1246.33,107.00 1199.00,107.00 C1151.67,107.00 1127.00,107.34 1127.00,108.00 C1127.00,108.66 1151.67,109.00 1199.00,109.00 C1246.33,109.00 1271.00,108.66 1271.00,108.00 ZM 257.14 94.46 C250.28,90.18 250.60,90.68 252.44,87.12 C254.29,83.54 256.77,82.00 260.68,82.00 C263.23,82.00 263.65,82.53 265.09,87.41 C266.54,92.33 266.54,93.05 265.11,95.41 C264.24,96.83 263.30,97.95 263.02,97.90 C262.73,97.84 260.09,96.29 257.14,94.46 ZM 263.38 93.19 C264.40,91.55 261.78,84.00 260.19,84.00 C258.55,84.00 254.00,87.78 254.00,89.15 C254.00,89.91 260.73,93.86 262.19,93.96 C262.57,93.98 263.11,93.64 263.38,93.19 ZM 219.41 560.50 C213.50,543.04 206.42,536.19 190.50,532.55 C173.57,528.68 160.51,522.87 147.75,513.54 C143.49,510.42 140.00,507.67 140.00,507.43 C140.00,507.19 427.00,507.00 777.78,507.00 L 1415.56 507.00 L 1416.72 515.53 C1418.16,526.08 1421.42,533.39 1427.65,540.05 C1437.18,550.25 1446.98,553.92 1466.81,554.74 C1474.12,555.04 1479.75,555.63 1479.31,556.06 C1478.08,557.22 1462.76,558.79 1440.50,560.01 C1413.71,561.49 219.90,561.97 219.41,560.50 ZM 1450.50 557.27 C1453.80,556.74 1455.38,556.22 1454.00,556.14 C1452.62,556.05 1449.43,555.35 1446.90,554.58 C1429.12,549.19 1417.79,536.14 1414.69,517.50 L 1413.36 509.50 L 779.43 509.27 L 145.50 509.04 L 148.00 511.06 C157.45,518.69 174.66,526.54 189.51,530.00 C194.21,531.10 200.23,533.10 202.89,534.44 C209.49,537.79 216.45,545.79 219.12,553.10 L 221.28 559.03 L 832.89 558.64 C1225.63,558.39 1446.65,557.90 1450.50,557.27 ZM 107.23 461.25 C99.69,443.52 95.00,420.55 95.00,401.40 L 95.00 389.00 L 222.80 389.00 L 350.61 389.00 L 354.96 395.18 C365.45,410.05 383.84,426.21 397.50,432.57 C412.64,439.61 380.81,439.05 749.68,438.76 L 1082.50 438.50 L 1089.69 436.26 C1100.25,432.98 1107.02,429.76 1116.79,423.40 C1131.50,413.81 1139.25,406.88 1175.06,371.32 L 1209.62 337.00 L 1361.81 337.00 C1445.51,337.00 1514.00,337.34 1514.00,337.75 C1514.00,338.16 1505.59,350.20 1495.32,364.50 C1445.71,433.56 1430.80,454.41 1427.02,459.97 L 1422.93 466.00 L 766.09 466.00 L 109.25 466.00 L 107.23 461.25 ZM 1422.66 461.75 C1423.77,460.51 1427.81,455.00 1431.66,449.50 C1438.87,439.19 1474.57,389.40 1497.81,357.25 L 1511.01 339.00 L 1360.75 338.99 L 1210.50 338.99 L 1185.50 364.22 C1146.16,403.93 1134.99,414.10 1119.00,424.74 C1103.73,434.91 1091.35,439.27 1072.68,441.03 C1065.01,441.76 960.14,442.00 738.50,441.80 C431.03,441.51 415.21,441.41 409.50,439.70 C395.16,435.41 382.87,427.77 369.39,414.77 C364.38,409.93 357.87,402.61 354.93,398.49 L 349.57 391.00 L 223.29 391.00 L 97.00 391.00 L 97.00 400.25 C97.01,418.13 100.28,435.85 106.98,454.19 C110.11,462.78 110.19,462.89 113.82,463.28 C115.85,463.49 410.71,463.74 769.08,463.83 L 1420.66 463.99 L 1422.66 461.75 ZM 411.36 395.08 C406.45,392.08 406.61,391.29 412.27,390.73 C415.15,390.45 417.66,390.36 417.85,390.54 C418.66,391.29 416.74,397.00 415.67,397.00 C415.03,396.99 413.09,396.13 411.36,395.08 ZM 415.25 393.34 C414.56,393.06 413.44,393.06 412.75,393.34 C412.06,393.62 412.62,393.84 414.00,393.84 C415.38,393.84 415.94,393.62 415.25,393.34 ZM 457.71 398.25 C457.29,397.49 469.52,345.39 471.09,341.26 L 471.95 339.00 L 496.88 339.00 L 521.81 339.00 L 526.39 358.25 C534.45,392.16 535.72,397.95 535.19,398.48 C534.36,399.31 458.16,399.08 457.71,398.25 ZM 532.63 394.25 C532.36,393.29 529.59,381.70 526.49,368.50 C523.39,355.30 520.63,343.71 520.36,342.75 C519.91,341.15 517.89,341.00 496.43,341.00 C483.54,341.00 473.00,341.14 473.00,341.30 C473.00,341.83 460.96,392.41 460.40,394.25 C459.90,395.89 462.07,396.00 496.50,396.00 C530.91,396.00 533.10,395.89 532.63,394.25 ZM 577.13 398.17 C576.66,397.25 575.98,395.26 575.62,393.75 L 574.96 391.00 L 771.98 391.00 L 969.00 391.00 L 969.00 395.40 L 969.00 399.80 L 773.49 399.82 C591.91,399.84 577.92,399.72 577.13,398.17 ZM 967.00 395.00 C967.00,393.01 966.33,393.00 772.50,393.00 C573.54,393.00 575.30,392.97 578.67,396.33 C579.03,396.70 666.56,397.00 773.17,397.00 C966.33,397.00 967.00,396.99 967.00,395.00 ZM 805.56 344.25 C804.53,339.44 803.48,334.42 803.20,333.10 C802.85,331.38 803.06,330.92 803.93,331.46 C805.64,332.51 821.00,351.16 821.00,352.17 C821.00,352.63 817.94,353.00 814.21,353.00 L 807.41 353.00 L 805.56 344.25 ZM 812.81 344.57 C809.89,341.03 807.14,338.10 806.69,338.07 C806.25,338.03 806.08,338.34 806.33,338.75 C806.58,339.16 807.31,342.09 807.96,345.25 L 809.14 351.00 L 813.63 351.00 L 818.12 351.00 L 812.81 344.57 ZM 647.00 352.42 C647.00,352.11 648.63,345.02 650.62,336.67 C656.26,313.03 657.59,313.20 653.98,337.10 C652.86,344.47 651.75,351.06 651.51,351.75 C651.07,352.97 647.00,353.57 647.00,352.42 ZM 862.42 350.47 C861.61,348.53 858.76,343.24 856.08,338.72 L 851.21 330.50 L 853.05 310.00 C854.07,298.73 854.92,288.26 854.95,286.75 L 855.00 284.00 L 877.92 284.00 L 900.84 284.00 L 901.89 287.25 C904.93,296.76 913.00,328.80 913.00,331.38 C913.00,333.17 910.76,338.32 907.44,344.19 L 901.89 354.00 L 882.89 354.00 L 863.90 354.00 L 862.42 350.47 ZM 901.22 350.25 C903.77,347.33 911.00,333.46 911.03,331.41 C911.05,330.36 908.46,319.71 905.28,307.75 L 899.50 286.01 L 878.25 286.00 L 857.00 286.00 L 856.96 288.25 C856.93,289.49 856.09,299.46 855.08,310.40 L 853.24 330.31 L 856.87 335.95 C858.87,339.05 861.59,343.93 862.92,346.79 L 865.34 352.00 L 882.52 352.00 C897.62,352.00 899.87,351.79 901.22,350.25 ZM 97.00 342.50 L 97.00 336.00 L 200.50 336.00 L 304.00 336.00 L 304.00 342.50 L 304.00 349.00 L 200.50 349.00 L 97.00 349.00 L 97.00 342.50 ZM 302.00 342.00 L 302.00 338.00 L 200.50 338.00 L 99.00 338.00 L 99.00 342.00 L 99.00 346.00 L 200.50 346.00 L 302.00 346.00 L 302.00 342.00 ZM 1295.52 287.25 C1296.56,269.03 1301.27,158.21 1302.66,119.25 L 1303.32 101.00 L 1308.54 101.00 L 1313.76 101.00 L 1314.40 109.25 C1315.13,118.65 1322.01,211.75 1325.02,253.00 C1326.12,268.12 1327.31,283.99 1327.66,288.25 L 1328.29 296.00 L 1311.65 296.00 L 1295.02 296.00 L 1295.52 287.25 ZM 1325.98 293.25 C1325.98,292.84 1325.55,287.33 1325.03,281.00 C1324.16,270.43 1322.16,243.28 1315.46,151.50 C1314.10,132.80 1312.70,114.24 1312.35,110.25 L 1311.72 103.00 L 1308.36 103.00 C1305.07,103.00 1305.00,103.09 1305.01,107.25 C1305.02,109.59 1304.34,127.93 1303.50,148.00 C1302.67,168.07 1301.09,206.10 1299.99,232.50 C1298.90,258.90 1298.00,283.54 1298.00,287.25 L 1298.00 294.00 L 1312.00 294.00 C1319.70,294.00 1325.99,293.66 1325.98,293.25 ZM 481.27 280.27 C480.22,277.54 485.30,230.75 494.11,162.00 C496.98,139.55 498.00,134.67 499.50,136.17 C500.59,137.25 511.05,280.61 510.12,281.55 C509.87,281.80 503.43,282.00 495.80,282.00 C483.58,282.00 481.86,281.80 481.27,280.27 ZM 508.00 275.70 C508.00,271.86 505.93,241.83 501.50,181.50 C499.39,152.71 498.78,145.88 498.36,146.30 C497.68,146.99 484.77,254.50 483.43,270.71 L 482.75 278.92 L 492.62 279.25 C498.06,279.43 503.74,279.68 505.25,279.79 C507.86,279.99 508.00,279.78 508.00,275.70 ZM 222.64 548.53 C219.44,541.53 211.93,533.51 205.52,530.24 C202.76,528.83 195.32,526.39 189.00,524.82 C178.82,522.29 163.00,516.04 163.00,514.55 C163.00,514.25 443.28,514.00 785.84,514.00 L 1408.67 514.00 L 1410.78 522.53 C1413.31,532.77 1417.43,540.31 1424.43,547.47 L 1429.63 552.80 L 1426.06 553.39 C1424.10,553.71 1153.10,553.98 823.82,553.99 L 225.15 554.00 L 222.64 548.53 ZM 1420.17 551.37 L 1423.83 550.77 L 1419.25 545.14 C1413.86,538.52 1410.62,531.85 1408.36,522.66 L 1406.71 516.00 L 789.11 516.03 C264.57,516.06 171.77,516.27 173.32,517.44 C174.97,518.69 178.17,519.64 197.84,524.65 C209.51,527.63 221.64,538.31 225.03,548.60 L 226.16 552.00 L 821.33 551.99 C1148.67,551.98 1418.15,551.71 1420.17,551.37 ZM 114.23 457.75 C112.53,455.64 106.93,437.05 104.95,426.94 C103.93,421.68 102.78,412.57 102.40,406.69 L 101.71 396.00 L 224.13 396.00 L 346.55 396.00 L 351.02 402.17 C353.49,405.57 358.99,411.84 363.26,416.12 C381.70,434.61 397.88,443.42 417.97,445.94 C429.44,447.37 1058.01,447.42 1073.12,445.99 C1092.70,444.13 1106.35,439.27 1122.88,428.28 C1136.87,418.97 1150.73,406.42 1182.50,374.28 L 1212.50 343.93 L 1356.77 344.21 L 1501.04 344.50 L 1482.75 370.00 C1472.70,384.02 1456.85,406.08 1447.55,419.00 C1438.24,431.92 1427.97,446.21 1424.72,450.75 L 1418.81 459.00 L 767.03 459.00 C246.81,459.00 115.04,458.75 114.23,457.75 ZM 1299.50 456.00 L 1418.50 455.94 L 1431.00 438.30 C1437.88,428.59 1455.55,403.97 1470.28,383.58 L 1497.05 346.50 L 1355.28 346.24 L 1213.50 345.98 L 1181.00 378.78 C1162.55,397.40 1143.91,415.24 1137.88,420.04 C1119.14,434.96 1103.80,442.83 1085.98,446.67 C1077.86,448.42 1063.30,448.50 745.00,448.50 L 412.50 448.50 L 403.45 445.34 C384.54,438.73 366.60,425.35 351.83,406.85 L 344.76 398.00 L 224.38 398.00 L 104.00 398.00 L 104.02 400.25 C104.11,411.79 107.51,430.86 112.14,445.75 L 115.33 455.99 L 253.42 456.25 C329.36,456.39 569.03,456.40 786.00,456.28 C1002.97,456.16 1234.05,456.03 1299.50,456.00 ZM 466.68 391.18 C466.48,390.81 468.76,380.49 471.74,368.25 L 477.17 346.00 L 496.56 346.00 L 515.96 346.00 L 516.63 348.67 C517.00,350.14 519.41,360.15 521.99,370.92 L 526.67 390.50 L 524.45 391.13 C521.43,391.99 467.13,392.04 466.68,391.18 ZM 523.49 386.75 C523.19,385.51 521.04,376.40 518.72,366.50 L 514.49 348.50 L 496.62 348.50 L 478.75 348.50 L 474.40 366.50 C472.01,376.40 469.80,385.51 469.51,386.75 L 468.96 389.00 L 496.50 389.00 L 524.04 389.00 L 523.49 386.75 ZM 865.88 343.75 C864.69,341.41 862.26,337.20 860.47,334.39 L 857.21 329.29 L 858.85 309.89 L 860.50 290.50 L 878.50 290.50 L 896.50 290.50 L 901.69 309.00 C904.55,319.17 906.91,328.74 906.94,330.25 C906.97,331.76 905.11,336.37 902.81,340.50 L 898.61 348.00 L 883.33 348.00 L 868.04 348.00 L 865.88 343.75 ZM 901.22 339.00 C903.30,335.43 905.00,331.64 905.00,330.58 C905.00,329.53 903.24,322.32 901.08,314.58 C898.93,306.84 896.66,298.59 896.04,296.25 L 894.92 292.00 L 878.66 292.00 L 862.39 292.00 L 860.88 310.25 C859.49,327.19 859.50,328.68 861.06,331.00 C861.99,332.38 864.17,336.32 865.90,339.78 L 869.06 346.05 L 883.25 345.78 L 897.45 345.50 L 901.22 339.00 ZM 1303.01 284.25 C1303.01,281.64 1303.66,264.42 1304.45,246.00 C1305.24,227.57 1306.40,197.43 1307.03,179.00 C1307.66,160.57 1308.50,143.48 1308.90,141.00 C1309.78,135.59 1308.84,123.77 1317.96,254.00 C1319.06,269.67 1320.17,283.96 1320.42,285.75 L 1320.87 289.00 L 1311.94 289.00 L 1303.00 289.00 L 1303.01 284.25 ZM 1318.34 284.25 C1318.17,282.74 1316.44,259.23 1314.50,232.00 C1312.56,204.77 1310.59,179.57 1310.12,176.00 L 1309.27 169.50 L 1309.12 179.00 C1309.03,184.23 1308.08,208.75 1307.00,233.50 C1305.92,258.25 1305.03,280.41 1305.02,282.75 L 1305.00 287.00 L 1311.83 287.00 L 1318.65 287.00 L 1318.34 284.25 ZM 488.86 274.53 C487.69,273.35 495.52,202.17 496.99,200.64 C498.01,199.58 498.48,204.51 501.05,242.78 C502.17,259.44 502.81,273.50 502.48,274.03 C501.89,274.99 489.77,275.43 488.86,274.53 ZM 500.99 271.25 C500.95,265.71 496.98,216.64 496.53,216.20 C496.24,215.91 496.00,216.63 496.00,217.80 C496.00,218.97 494.91,229.73 493.58,241.72 C492.26,253.70 490.96,265.64 490.71,268.25 L 490.25 273.00 L 495.62 273.00 C500.08,273.00 501.00,272.70 500.99,271.25 ZM 227.93 542.86 C225.18,537.48 217.80,529.61 211.51,525.37 L 206.53 522.00 L 804.69 522.00 L 1402.86 522.00 L 1404.44 527.46 C1405.32,530.46 1407.60,535.92 1409.52,539.60 C1411.43,543.28 1413.00,546.45 1413.00,546.64 C1413.00,546.84 1146.83,547.00 821.52,547.00 L 230.04 547.00 L 227.93 542.86 ZM 1407.45 540.75 C1406.12,538.41 1404.08,533.69 1402.93,530.25 L 1400.84 524.00 L 807.27 524.00 L 213.71 524.00 L 218.25 527.46 C222.34,530.59 231.00,541.90 231.00,544.11 C231.00,544.63 478.69,545.00 820.44,545.00 L 1409.88 545.00 L 1407.45 540.75 ZM 399.44 451.60 C383.62,446.64 363.43,431.71 349.08,414.33 L 341.50 405.17 L 226.61 405.08 L 111.71 405.00 L 112.38 412.14 C113.17,420.67 115.37,431.83 118.22,441.75 L 120.31 449.00 L 130.90 449.05 C218.37,449.44 377.73,449.36 377.20,448.92 C376.82,448.61 373.35,446.14 369.50,443.45 C361.40,437.79 346.66,423.89 341.29,416.85 L 337.59 412.00 L 228.79 412.00 L 120.00 412.00 L 120.00 414.54 C120.00,417.96 122.73,431.37 124.63,437.25 L 126.16 442.00 L 240.57 442.00 L 354.97 442.00 L 346.58 433.61 C341.96,428.99 337.42,424.04 336.48,422.61 L 334.77 420.00 L 231.32 420.00 C133.27,420.00 127.89,420.09 128.36,421.75 C128.63,422.71 129.41,426.09 130.09,429.25 L 131.32 435.00 L 234.89 435.00 L 338.47 435.00 L 334.46 430.99 L 330.45 426.98 L 234.06 426.99 C181.05,426.99 137.44,427.22 137.17,427.50 C136.89,427.77 179.94,428.00 232.83,428.00 C296.28,428.00 329.00,428.34 329.00,429.00 C329.00,429.66 296.04,430.00 232.12,430.00 L 135.23 430.00 L 134.76 427.52 C134.50,426.16 134.52,424.81 134.81,424.52 C135.10,424.24 179.30,424.00 233.04,424.00 L 330.76 424.00 L 336.47 430.50 L 342.18 437.01 L 235.85 436.75 L 129.53 436.50 L 127.85 429.50 C126.92,425.65 126.13,421.26 126.08,419.75 L 126.00 417.00 L 230.38 417.00 L 334.76 417.00 L 338.63 421.74 C340.76,424.34 346.55,430.41 351.50,435.23 L 360.50 443.98 L 242.32 443.99 L 124.14 444.00 L 122.48 438.30 C120.16,430.31 118.00,418.55 118.00,413.91 L 118.00 410.00 L 228.33 410.00 L 338.65 410.00 L 343.83 416.38 C352.79,427.42 370.01,442.44 380.75,448.57 C382.54,449.60 384.00,450.78 384.00,451.22 C384.00,451.65 324.45,452.00 251.67,452.00 L 119.34 452.00 L 116.17 441.75 C112.56,430.04 110.00,416.20 110.00,408.37 L 110.00 403.00 L 226.25 403.01 L 342.50 403.03 L 349.31 411.48 C363.20,428.71 381.89,442.82 399.24,449.15 C403.78,450.80 407.68,452.35 407.91,452.58 C408.78,453.45 403.35,452.82 399.44,451.60 ZM 1092.00 451.19 C1092.00,450.74 1094.14,449.83 1096.75,449.16 C1105.67,446.87 1121.29,438.50 1132.64,429.92 C1148.88,417.65 1163.43,404.17 1190.83,376.01 L 1215.16 351.00 L 1279.02 351.00 C1320.52,351.00 1343.10,351.35 1343.50,352.00 C1343.91,352.66 1322.60,353.00 1280.31,352.99 L 1216.50 352.97 L 1186.50 383.31 C1148.51,421.72 1131.54,435.91 1112.61,445.11 C1108.27,447.22 1104.60,449.07 1104.45,449.22 C1104.29,449.37 1160.27,449.40 1228.83,449.29 C1297.40,449.17 1367.27,449.05 1384.09,449.04 L 1414.68 449.00 L 1428.55 429.75 C1436.17,419.16 1451.37,398.14 1462.32,383.04 C1473.27,367.93 1482.45,354.99 1482.72,354.29 C1483.12,353.25 1473.59,353.00 1433.53,353.00 L 1383.84 353.00 L 1389.48 358.16 C1395.93,364.05 1399.36,370.11 1400.87,378.25 C1403.87,394.50 1393.61,411.89 1377.43,417.94 C1374.27,419.12 1362.19,422.62 1350.59,425.72 C1322.15,433.31 1313.88,433.33 1302.58,425.84 C1288.91,416.79 1283.53,397.42 1290.45,382.20 C1293.69,375.08 1300.23,368.52 1307.51,365.10 C1310.02,363.92 1322.52,360.19 1335.29,356.81 C1355.61,351.42 1359.62,350.66 1367.50,350.68 C1372.45,350.69 1377.81,351.24 1379.41,351.89 C1381.42,352.71 1382.65,352.75 1383.36,352.04 C1384.52,350.88 1487.00,350.52 1487.00,351.67 C1487.00,352.05 1479.71,362.51 1470.81,374.92 C1431.04,430.39 1418.55,447.65 1416.67,449.75 L 1414.65 452.00 L 1253.33 452.00 C1164.60,452.00 1092.00,451.64 1092.00,451.19 ZM 1346.68 424.45 C1379.03,416.20 1385.97,413.14 1392.39,404.30 C1397.37,397.44 1399.36,390.40 1398.77,381.65 C1397.95,369.38 1391.85,360.21 1381.22,355.27 C1372.27,351.12 1364.61,351.69 1338.00,358.47 C1311.53,365.21 1303.23,368.66 1297.31,375.38 C1292.07,381.34 1290.00,387.36 1290.00,396.67 C1290.00,411.61 1297.60,422.87 1310.88,427.62 C1318.01,430.17 1327.61,429.32 1346.68,424.45 ZM 1134.16 437.85 C1148.00,427.65 1160.12,416.51 1189.99,386.56 L 1218.49 358.00 L 1264.94 358.00 C1302.11,358.00 1311.15,358.25 1310.15,359.25 C1309.20,360.20 1298.21,360.57 1263.65,360.78 L 1218.39 361.06 L 1190.90 388.78 C1164.70,415.21 1148.29,430.37 1137.64,438.01 L 1132.78 441.50 L 1271.64 441.77 L 1410.50 442.04 L 1412.64 439.60 C1413.81,438.25 1426.38,421.03 1440.56,401.33 C1454.74,381.62 1467.24,364.49 1468.35,363.25 L 1470.35 361.00 L 1436.09 361.00 C1417.25,361.00 1402.00,361.34 1402.21,361.75 C1405.41,368.11 1407.21,373.44 1407.96,378.70 C1410.93,399.68 1398.21,418.77 1376.46,426.01 C1372.92,427.19 1364.51,429.66 1357.77,431.49 L 1345.50 434.83 L 1376.66 434.92 L 1407.82 435.00 L 1415.25 424.75 C1431.16,402.81 1451.70,374.35 1453.86,371.25 L 1456.14 368.00 L 1434.46 368.00 C1414.21,368.00 1412.83,368.11 1413.52,369.75 C1413.92,370.71 1414.47,376.07 1414.75,381.65 C1415.17,390.09 1414.90,392.97 1413.16,398.69 C1409.82,409.69 1403.62,418.20 1393.49,425.72 L 1390.50 427.94 L 1397.54 427.97 L 1404.57 428.00 L 1411.54 418.25 C1415.37,412.89 1424.03,400.91 1430.79,391.62 C1437.54,382.34 1442.94,374.65 1442.79,374.53 C1442.63,374.42 1437.89,374.53 1432.25,374.78 L 1422.00 375.23 L 1422.00 383.12 C1422.00,387.45 1422.18,391.00 1422.40,391.00 C1422.62,391.00 1425.21,387.63 1428.15,383.52 C1431.09,379.40 1434.10,376.03 1434.84,376.02 C1435.66,376.01 1434.95,377.64 1433.00,380.25 C1431.26,382.59 1427.32,387.99 1424.25,392.25 C1421.17,396.50 1418.49,399.82 1418.28,399.62 C1418.08,399.41 1418.43,397.19 1419.06,394.68 C1419.69,392.16 1420.05,386.31 1419.85,381.66 L 1419.50 373.22 L 1433.00 372.78 C1440.43,372.54 1446.64,372.45 1446.82,372.57 C1447.09,372.77 1439.03,384.07 1409.25,425.25 L 1405.81 430.00 L 1394.41 430.00 C1388.13,430.00 1383.00,429.83 1383.00,429.63 C1383.00,429.43 1385.98,427.52 1389.63,425.39 C1407.92,414.69 1416.96,392.71 1411.59,371.98 C1410.81,368.99 1410.37,366.22 1410.61,365.83 C1411.20,364.86 1460.00,364.75 1459.99,365.72 C1459.99,366.15 1452.67,376.66 1443.74,389.08 C1434.81,401.50 1423.45,417.34 1418.50,424.28 L 1409.50 436.90 L 1371.05 436.95 C1348.18,436.98 1332.98,436.63 1333.55,436.10 C1334.07,435.60 1340.80,433.54 1348.50,431.51 C1373.30,424.97 1381.34,422.23 1387.71,418.11 C1400.46,409.87 1406.56,397.70 1405.82,382.02 C1405.46,374.49 1404.91,372.27 1401.95,366.37 C1400.05,362.59 1398.35,359.16 1398.17,358.75 C1397.98,358.34 1414.75,358.00 1435.42,358.00 C1459.93,358.00 1473.00,358.35 1473.00,359.00 C1473.00,359.99 1464.04,372.77 1442.52,402.50 C1436.55,410.75 1427.36,423.46 1422.10,430.75 L 1412.54 444.00 L 1269.18 444.00 L 1125.83 444.00 L 1134.16 437.85 ZM 1152.07 433.26 C1160.92,425.80 1172.98,414.12 1197.00,389.77 L 1221.50 364.93 L 1258.75 364.96 C1279.24,364.98 1296.00,365.37 1296.00,365.83 C1296.00,366.28 1294.82,367.74 1293.38,369.08 C1290.09,372.12 1286.87,377.22 1284.62,382.93 C1282.37,388.63 1282.26,401.96 1284.41,409.33 C1287.69,420.62 1298.40,431.32 1309.73,434.61 C1312.63,435.45 1315.00,436.33 1315.00,436.57 C1315.00,436.81 1277.34,437.00 1231.32,437.00 L 1147.64 437.00 L 1152.07 433.26 ZM 1301.00 432.75 L 1297.50 430.50 L 1232.86 430.00 L 1168.22 429.50 L 1196.40 400.65 L 1224.58 371.79 L 1242.04 372.35 C1251.64,372.66 1264.26,372.93 1270.07,372.96 L 1280.65 373.00 L 1278.18 380.25 C1273.92,392.77 1275.03,406.69 1281.44,421.25 C1282.17,422.90 1279.55,423.00 1234.11,423.00 C1207.65,423.00 1186.01,422.66 1186.03,422.25 C1186.04,421.84 1195.38,411.93 1206.78,400.23 L 1227.50 378.95 L 1248.88 378.98 L 1270.26 379.00 L 1269.66 382.75 C1267.68,395.22 1267.96,404.07 1270.62,413.75 L 1271.23 416.00 L 1232.79 416.00 L 1194.35 416.00 L 1192.00 418.50 L 1189.65 421.00 L 1234.43 421.00 C1276.70,421.00 1279.17,420.90 1278.45,419.25 C1274.58,410.33 1273.65,405.98 1273.62,396.50 C1273.60,388.89 1274.08,385.12 1275.64,380.75 L 1277.69 375.00 L 1251.03 375.00 L 1224.37 375.00 L 1198.60 401.50 L 1172.83 428.00 L 1232.91 428.00 L 1293.00 428.00 L 1288.49 421.88 C1281.71,412.67 1278.93,400.43 1281.01,388.97 C1282.23,382.22 1285.88,373.96 1289.28,370.25 L 1291.35 368.00 L 1256.42 367.98 L 1221.50 367.96 L 1195.50 394.36 C1181.20,408.88 1165.93,423.97 1161.56,427.88 L 1153.63 435.00 L 1229.06 435.00 L 1304.50 434.99 L 1301.00 432.75 ZM 1267.28 408.75 C1266.30,402.17 1266.27,389.54 1267.22,385.25 L 1267.95 382.00 L 1247.70 382.00 L 1227.46 382.00 L 1218.97 390.75 C1214.31,395.56 1207.36,402.76 1203.52,406.75 L 1196.55 414.00 L 1232.31 414.00 L 1268.07 414.00 L 1267.28 408.75 ZM 475.69 384.25 C475.46,383.84 476.91,376.75 478.90,368.50 L 482.54 353.50 L 496.54 353.22 L 510.55 352.95 L 514.10 368.48 C516.06,377.02 517.43,384.23 517.16,384.51 C516.35,385.31 476.16,385.07 475.69,384.25 ZM 514.70 380.75 C514.41,379.51 512.97,373.21 511.49,366.75 L 508.80 355.00 L 496.48 355.00 L 484.16 355.00 L 483.49 358.25 C483.12,360.04 481.73,365.95 480.41,371.40 C479.08,376.84 478.00,381.45 478.00,381.63 C478.00,381.81 485.99,382.09 495.75,382.25 C505.51,382.42 513.89,382.65 514.36,382.77 C514.83,382.90 514.98,381.99 514.70,380.75 ZM 867.35 334.48 L 863.21 326.98 L 864.58 312.74 C865.34,304.91 865.97,297.94 865.98,297.25 C865.99,296.32 869.27,296.00 878.96,296.00 L 891.92 296.00 L 893.31 300.75 C894.07,303.36 896.20,311.09 898.05,317.92 L 901.40 330.34 L 898.37 335.92 L 895.34 341.50 L 883.42 341.74 L 871.50 341.98 L 867.35 334.48 ZM 896.72 334.95 L 899.30 330.40 L 894.90 314.21 L 890.50 298.01 L 879.25 298.01 C873.06,298.00 867.98,298.34 867.95,298.75 C867.92,299.16 867.30,305.58 866.58,313.00 L 865.28 326.50 L 869.31 333.28 L 873.35 340.06 L 883.75 339.78 L 894.14 339.50 L 896.72 334.95 ZM 231.51 535.22 C229.87,532.62 228.37,530.16 228.18,529.75 C227.99,529.34 490.94,529.11 812.52,529.25 L 1397.20 529.50 L 1399.10 534.50 C1400.14,537.25 1401.00,539.61 1401.00,539.75 C1401.00,539.89 1138.54,539.99 817.75,539.97 L 234.50 539.94 L 231.51 535.22 ZM 1396.74 534.50 L 1395.66 531.00 L 813.83 531.00 C493.82,531.00 232.00,531.27 232.00,531.60 C232.00,531.92 232.93,533.50 234.07,535.10 L 236.14 538.00 L 816.97 538.00 L 1397.81 538.00 L 1396.74 534.50 ZM 1315.50 424.12 C1299.86,420.00 1290.95,404.09 1295.48,388.39 C1296.83,383.69 1298.25,381.45 1302.49,377.32 C1308.62,371.36 1311.08,370.44 1343.50,361.99 C1365.96,356.14 1371.87,355.82 1380.52,360.01 C1385.91,362.62 1391.28,369.36 1393.07,375.76 C1394.71,381.62 1393.79,392.54 1391.22,397.57 C1388.63,402.64 1382.16,408.57 1376.64,410.94 C1370.31,413.65 1329.60,424.11 1323.68,424.53 C1320.83,424.74 1317.15,424.55 1315.50,424.12 ZM 1350.00 416.32 C1374.81,409.88 1380.28,407.73 1384.73,402.65 C1389.51,397.21 1391.21,393.30 1391.76,386.43 C1393.17,368.82 1380.25,356.86 1363.00,359.81 C1354.69,361.23 1319.47,370.48 1312.63,373.04 C1302.57,376.80 1296.75,385.56 1296.81,396.84 C1296.90,412.31 1309.44,424.11 1324.00,422.42 C1326.47,422.13 1338.18,419.38 1350.00,416.32 ZM 1213.03 404.25 C1215.48,401.64 1220.17,396.69 1223.46,393.25 L 1229.44 387.00 L 1245.47 387.00 L 1261.50 387.00 L 1261.57 398.00 L 1261.64 409.00 L 1235.11 409.00 L 1208.58 409.00 L 1213.03 404.25 ZM 1259.64 403.25 C1259.30,401.19 1259.02,397.14 1259.01,394.25 L 1259.00 389.00 L 1245.13 389.00 C1229.15,389.00 1230.13,388.57 1220.02,399.97 L 1213.79 407.00 L 1237.03 407.00 L 1260.26 407.00 L 1259.64 403.25 ZM 485.72 371.30 C488.42,359.39 487.82,360.00 496.87,360.00 L 504.80 360.00 L 506.52 367.73 C507.46,371.98 508.48,376.09 508.78,376.86 C509.12,377.75 508.81,378.10 507.95,377.82 C507.16,377.55 505.89,374.16 504.99,369.93 L 503.40 362.50 L 496.75 362.21 L 490.10 361.91 L 489.14 365.71 C488.62,367.79 487.80,371.27 487.32,373.42 C486.85,375.58 485.95,377.52 485.32,377.73 C484.51,378.00 484.63,376.08 485.72,371.30 ZM 872.19 330.75 L 869.24 325.50 L 870.28 313.75 L 871.31 302.00 L 879.42 302.00 L 887.52 302.00 L 891.38 315.82 C895.11,329.19 895.18,329.75 893.59,332.82 L 891.95 336.00 L 883.55 336.00 L 875.15 336.00 L 872.19 330.75 ZM 892.10 331.68 C893.12,329.43 892.65,327.27 886.38,305.75 C885.96,304.32 884.70,304.00 879.56,304.00 L 873.25 304.00 L 872.33 314.75 C871.43,325.28 871.46,325.59 873.96,329.72 L 876.50 333.94 L 883.77 333.97 C890.43,334.00 891.13,333.80 892.10,331.68 ZM 1312.23 415.43 C1306.23,412.44 1303.40,408.47 1301.83,400.82 C1299.95,391.66 1303.92,382.47 1311.54,378.36 C1317.02,375.40 1361.67,363.99 1367.66,364.02 C1374.85,364.05 1380.40,366.99 1384.06,372.70 C1386.92,377.16 1387.12,378.04 1386.82,385.17 C1386.54,391.79 1386.08,393.42 1383.49,397.11 C1381.77,399.55 1378.55,402.38 1375.99,403.69 C1370.31,406.60 1326.86,418.00 1321.45,418.00 C1319.09,418.00 1315.23,416.92 1312.23,415.43 ZM 1349.48 409.48 C1373.94,403.04 1378.14,401.25 1381.79,395.74 C1385.58,390.01 1386.04,380.18 1382.79,374.50 C1379.49,368.75 1373.22,365.70 1366.00,366.33 C1359.64,366.89 1319.48,377.29 1313.41,379.95 C1308.53,382.09 1305.54,385.99 1303.96,392.23 C1301.72,401.16 1307.47,412.43 1315.59,415.01 C1320.25,416.49 1327.15,415.37 1349.48,409.48 ZM 1314.42 409.11 C1307.73,405.04 1305.89,392.96 1311.11,387.37 C1314.89,383.32 1317.32,382.44 1342.61,375.97 C1368.44,369.36 1370.71,369.20 1375.95,373.61 C1383.65,380.09 1381.48,393.60 1371.95,398.53 C1367.39,400.88 1326.90,410.99 1322.00,410.99 C1319.35,410.99 1316.23,410.22 1314.42,409.11 ZM 1338.15 404.60 C1359.74,399.09 1370.34,395.96 1372.83,394.35 C1376.09,392.25 1378.31,386.48 1377.52,382.23 C1376.56,377.15 1372.68,374.00 1367.37,374.00 C1362.99,374.00 1320.05,384.83 1316.14,386.93 C1313.52,388.33 1311.00,393.03 1311.00,396.50 C1311.00,399.88 1313.41,404.47 1316.22,406.44 C1319.46,408.71 1323.24,408.40 1338.15,404.60 ZM 1319.50 402.81 C1316.71,401.23 1316.03,399.97 1316.02,396.40 C1316.01,394.55 1316.81,392.57 1318.03,391.48 C1320.09,389.61 1362.12,378.09 1367.09,378.03 C1373.90,377.95 1375.38,388.20 1369.03,391.48 C1366.51,392.79 1324.53,404.04 1322.44,403.97 C1321.92,403.95 1320.60,403.43 1319.50,402.81 ZM 1345.40 396.05 C1358.00,392.79 1368.88,389.53 1369.57,388.81 C1372.18,386.12 1371.70,381.21 1368.75,380.48 C1365.85,379.75 1319.98,391.43 1318.87,393.18 C1317.02,396.10 1319.00,402.02 1321.82,401.99 C1322.19,401.99 1332.81,399.32 1345.40,396.05 Z" fill="rgba(0,0,0,1)"/>
</g>
</svg>