<svg xmlns="http://www.w3.org/2000/svg" width="1613" height="640" viewBox="0 0 1613 640">
<g>
<path d="M 212.59 569.38 C205.26,567.09 196.69,558.18 194.46,550.52 C192.30,543.08 192.86,534.98 196.00,528.49 C199.93,520.34 206.33,515.02 221.19,507.56 C228.51,503.88 235.52,499.92 236.76,498.75 C240.51,495.24 241.37,489.91 239.60,481.21 C237.55,471.18 233.60,463.13 219.83,441.00 C164.82,352.58 143.50,316.52 138.06,302.72 C134.55,293.81 134.42,292.73 136.57,290.57 C137.98,289.16 150.15,289.00 255.57,289.00 L 373.00 289.00 L 373.00 266.00 L 373.00 243.00 L 369.75 242.98 C365.88,242.95 358.43,239.74 355.15,236.69 C353.86,235.48 351.63,232.25 350.20,229.50 C347.78,224.85 347.59,223.55 347.55,211.00 C347.49,195.52 348.44,191.74 353.87,185.71 C358.13,180.99 364.00,178.05 369.25,178.02 L 373.00 178.00 L 373.00 167.47 C373.00,155.71 373.96,152.39 379.03,146.62 C384.85,139.99 388.78,138.62 403.23,138.18 C421.71,137.63 429.22,140.78 434.45,151.28 C436.69,155.77 437.00,157.66 437.00,166.73 L 437.00 177.07 L 441.75 179.10 C447.97,181.76 451.72,185.37 454.62,191.50 C456.75,196.01 456.98,197.87 456.99,210.55 C457.00,223.74 456.84,224.93 454.36,229.90 C451.56,235.52 446.31,240.08 440.40,242.03 L 436.95 243.17 L 437.22 258.08 L 437.50 272.98 L 449.61 273.48 L 461.71 273.98 L 462.26 266.74 C463.13,255.26 466.68,249.16 475.25,244.41 L 480.50 241.50 L 864.00 241.50 C1232.90,241.50 1247.68,241.57 1252.23,243.33 C1257.88,245.51 1264.13,252.17 1265.82,257.81 C1266.50,260.06 1267.00,268.07 1266.99,276.62 C1266.98,290.12 1266.76,291.97 1264.63,296.54 C1262.07,302.03 1257.47,306.48 1252.00,308.76 C1250.07,309.56 1248.34,310.36 1248.15,310.54 C1247.95,310.73 1249.37,312.26 1251.29,313.95 C1257.28,319.21 1258.92,324.17 1259.23,337.95 L 1259.50 350.00 L 1346.19 350.00 C1414.45,350.00 1433.05,350.27 1433.69,351.25 C1434.87,353.08 1434.49,373.00 1433.06,384.00 C1430.05,407.19 1423.23,431.17 1414.23,450.16 C1404.61,470.46 1394.26,484.95 1377.54,501.50 C1365.09,513.82 1352.27,523.38 1337.69,531.22 C1320.49,540.47 1321.52,539.40 1321.38,548.13 C1321.32,552.28 1320.74,557.25 1320.11,559.17 C1318.78,563.18 1314.85,567.28 1310.50,569.19 C1308.04,570.27 1210.05,570.54 762.50,570.70 C276.30,570.88 216.97,570.74 212.59,569.38 ZM 337.69 561.36 C346.15,555.24 354.17,551.21 363.54,548.36 C369.24,546.62 385.62,546.52 734.00,546.00 L 1098.50 545.45 L 1108.11 543.23 C1141.24,535.59 1164.21,525.39 1196.00,504.17 L 1210.50 494.50 L 736.00 494.24 C475.02,494.10 260.94,494.20 260.25,494.46 C259.56,494.72 259.00,495.76 259.00,496.77 C259.00,499.96 254.11,508.58 249.97,512.68 C247.51,515.12 240.79,519.24 232.45,523.44 C218.03,530.68 213.56,534.17 212.50,539.00 C211.66,542.83 214.56,549.02 218.00,550.73 C219.90,551.67 233.13,551.97 272.73,551.99 L 324.96 552.00 L 330.23 548.00 C337.78,542.28 347.22,537.54 357.54,534.31 L 366.50 531.50 L 731.00 530.97 L 1095.50 530.45 L 1105.50 528.17 C1118.20,525.28 1139.29,518.23 1149.00,513.63 L 1156.50 510.07 L 713.85 510.04 L 271.19 510.00 L 268.65 514.34 C264.47,521.46 255.72,529.40 247.10,533.89 C242.75,536.15 238.14,537.98 236.85,537.97 C235.32,537.94 237.93,536.15 244.32,532.84 C255.50,527.03 262.30,520.99 267.00,512.66 L 270.19 507.00 L 717.18 507.00 C1074.32,507.00 1164.08,507.25 1163.75,508.25 C1162.62,511.69 1125.90,525.74 1106.50,530.16 L 1096.50 532.44 L 732.00 532.98 C381.53,533.50 367.25,533.59 361.00,535.37 C352.06,537.91 337.60,544.92 331.07,549.88 L 325.64 554.00 L 272.57 553.99 C232.13,553.97 218.91,553.67 217.03,552.72 C212.66,550.51 209.76,545.10 210.30,540.16 C211.03,533.53 215.90,529.26 231.46,521.57 C248.12,513.36 252.57,509.15 256.54,497.89 L 257.91 494.00 L 254.46 494.00 C252.01,494.00 251.00,494.45 251.00,495.54 C251.00,498.35 247.17,504.64 243.50,507.87 C241.51,509.62 234.39,513.79 227.69,517.15 C210.18,525.91 206.24,529.57 204.40,538.74 C202.99,545.80 208.11,554.78 215.46,558.12 C219.22,559.83 223.27,559.96 273.29,559.98 L 327.09 560.00 L 332.29 556.11 C341.18,549.47 347.17,546.24 357.01,542.81 L 366.50 539.50 L 730.00 538.93 C1054.51,538.43 1094.36,538.20 1101.50,536.80 C1122.01,532.78 1137.91,527.56 1155.84,518.95 C1167.30,513.45 1185.00,503.42 1185.00,502.43 C1185.00,502.19 978.28,502.00 725.62,502.00 L 266.23 502.00 L 263.58 507.43 C259.03,516.72 252.12,522.62 236.85,530.22 C222.92,537.17 219.33,539.82 220.35,542.46 C220.87,543.82 226.93,544.00 271.46,544.00 L 321.98 544.00 L 328.74 539.36 C336.75,533.86 345.36,529.84 357.00,526.18 L 365.50 523.50 L 730.00 522.95 C1071.68,522.44 1095.03,522.29 1103.00,520.66 C1107.67,519.70 1111.93,518.47 1112.46,517.94 C1113.08,517.32 981.13,517.08 740.46,517.28 C397.25,517.56 366.97,517.72 360.92,519.24 C349.04,522.23 337.70,526.93 328.90,532.51 L 320.24 538.00 L 286.51 538.00 L 252.78 538.00 L 258.64 533.68 C264.19,529.58 269.43,523.89 273.31,517.75 L 275.05 515.00 L 700.52 515.00 C935.14,515.00 1126.00,515.38 1126.00,515.85 C1126.00,516.82 1115.30,520.15 1104.00,522.71 C1097.05,524.28 1070.00,524.45 732.00,524.99 C445.65,525.45 366.54,525.84 363.00,526.82 C347.08,531.22 339.18,534.69 329.19,541.63 L 322.88 546.02 L 271.30 545.76 C224.04,545.52 219.63,545.36 218.65,543.80 C217.93,542.67 217.89,541.20 218.54,539.38 C219.31,537.18 222.41,535.15 234.50,528.89 C251.62,520.03 257.32,515.24 261.66,506.10 L 264.50 500.10 L 728.25 499.80 C983.31,499.64 1192.00,499.73 1192.00,500.01 C1192.00,501.06 1175.10,511.55 1164.50,517.07 C1144.77,527.36 1125.76,534.04 1103.00,538.67 C1095.06,540.28 1070.36,540.44 731.00,540.95 C388.04,541.47 367.17,541.60 361.66,543.26 C352.30,546.08 342.01,551.28 334.79,556.83 L 328.07 562.00 L 274.29 561.99 C237.97,561.99 219.20,561.63 216.50,560.88 C211.29,559.43 204.57,552.71 203.12,547.50 C201.42,541.37 201.76,537.87 204.64,532.10 C207.88,525.59 211.67,522.74 228.00,514.50 C240.61,508.13 245.98,503.87 247.94,498.68 C249.47,494.63 249.29,494.00 246.57,494.00 C245.05,494.00 243.91,494.72 243.53,495.92 C242.13,500.32 238.12,503.38 225.07,510.00 C209.17,518.07 203.19,522.86 199.42,530.57 C197.07,535.38 196.80,536.92 197.23,542.96 C197.80,550.97 200.99,557.37 206.52,561.58 C213.54,566.94 213.18,566.91 273.69,566.96 L 329.88 567.00 L 337.69 561.36 ZM 1279.95 566.33 L 1309.39 565.67 L 1312.91 562.44 C1316.41,559.24 1316.44,559.12 1316.97,549.14 C1317.34,542.09 1317.95,538.62 1319.00,537.57 C1319.82,536.75 1325.22,533.55 1331.00,530.46 C1348.61,521.03 1366.83,507.61 1376.92,496.64 L 1379.35 494.00 L 1375.92 494.04 C1373.11,494.07 1370.98,495.42 1364.00,501.57 C1353.83,510.53 1343.37,517.68 1328.47,525.85 C1313.02,534.33 1312.62,534.84 1311.97,547.19 C1311.49,556.15 1311.19,557.43 1309.11,559.11 C1306.87,560.93 1303.62,561.00 1223.72,561.00 C1178.04,561.00 1140.94,560.73 1141.27,560.40 C1141.60,560.07 1147.19,557.66 1153.68,555.04 C1180.88,544.09 1208.46,527.79 1234.00,507.56 L 1243.50 500.04 L 1280.50 500.01 C1300.85,499.99 1325.55,499.69 1335.38,499.34 C1350.48,498.80 1353.20,498.91 1352.81,500.10 C1352.16,502.11 1334.23,514.03 1323.05,519.88 C1308.00,527.75 1304.00,533.23 1304.00,545.94 L 1304.00 552.94 L 1300.47 552.81 C1296.86,552.67 1296.02,550.51 1299.58,550.50 C1301.24,550.50 1301.58,549.54 1302.06,543.50 C1303.02,531.57 1307.77,525.15 1320.22,518.92 C1327.47,515.29 1341.35,506.96 1345.00,504.04 L 1347.50 502.04 L 1295.94 502.02 L 1244.38 502.00 L 1234.94 509.51 C1211.33,528.31 1180.01,547.07 1158.02,555.60 L 1150.53 558.50 L 1228.52 558.77 L 1306.50 559.04 L 1308.24 556.92 C1309.58,555.29 1309.96,553.03 1309.90,547.03 C1309.77,534.77 1311.56,532.46 1328.00,523.71 C1340.07,517.29 1350.47,510.28 1361.66,501.00 L 1369.50 494.50 L 1305.59 494.24 L 1241.69 493.99 L 1238.59 496.50 C1229.43,503.96 1208.23,519.44 1199.50,525.06 C1184.42,534.76 1157.24,548.10 1143.00,552.79 C1121.10,560.01 1107.68,562.68 1091.00,563.13 C1065.96,563.81 353.00,562.87 353.00,562.15 C353.00,561.10 358.76,558.48 366.00,556.24 C371.12,554.65 396.63,554.50 737.00,553.99 L 1102.50 553.45 L 1112.28 551.20 C1149.59,542.60 1180.51,527.75 1216.46,501.14 L 1225.43 494.50 L 1221.10 494.19 C1217.92,493.96 1216.19,494.38 1214.63,495.78 C1213.46,496.83 1208.68,500.37 1204.00,503.65 C1171.24,526.59 1139.36,540.91 1106.00,547.68 C1098.08,549.28 1072.79,549.44 733.50,549.97 C395.25,550.50 369.11,550.66 364.05,552.23 C356.90,554.45 347.73,559.01 341.50,563.44 L 336.51 567.00 L 793.50 567.00 C1044.85,567.00 1263.75,566.70 1279.95,566.33 ZM 1108.50 559.52 C1128.73,556.22 1146.03,550.52 1167.53,540.09 C1190.68,528.86 1218.28,511.11 1234.78,496.84 L 1238.07 494.00 L 1233.48 494.00 C1229.44,494.00 1228.10,494.64 1222.20,499.34 C1193.67,522.08 1157.16,541.44 1127.70,549.47 C1103.87,555.96 1140.71,555.35 737.50,555.95 L 371.50 556.50 L 365.50 558.65 L 359.50 560.80 L 729.50 560.90 C1050.55,560.98 1100.69,560.80 1108.50,559.52 ZM 326.62 531.38 C334.50,526.09 341.47,522.83 351.19,519.87 C354.94,518.74 358.00,517.62 358.00,517.40 C358.00,517.18 339.62,517.00 317.17,517.00 L 276.33 517.00 L 272.50 522.56 C270.39,525.62 266.61,529.90 264.08,532.06 L 259.50 535.99 L 289.62 535.99 L 319.74 536.00 L 326.62 531.38 ZM 1228.61 478.75 L 1241.34 467.50 L 741.00 467.25 C465.82,467.11 240.54,467.13 240.38,467.28 C240.23,467.44 240.95,470.48 241.98,474.03 C243.02,477.59 244.15,482.64 244.50,485.25 L 245.12 490.00 L 730.50 490.00 L 1215.87 490.00 L 1228.61 478.75 ZM 1385.67 486.75 C1389.25,482.94 1400.00,468.62 1400.00,467.66 C1400.00,467.30 1365.67,467.00 1323.72,467.00 L 1247.44 467.00 L 1235.22 478.08 C1228.50,484.18 1223.00,489.35 1223.00,489.58 C1223.00,489.81 1258.91,490.00 1302.80,490.00 L 1382.61 490.00 L 1385.67 486.75 ZM 243.00 462.10 C243.00,461.13 232.55,443.82 210.04,407.50 C168.22,340.04 147.04,303.67 147.01,299.25 C147.00,298.26 167.94,298.00 248.39,298.00 L 349.77 298.00 L 350.45 302.54 C351.36,308.57 354.83,312.34 365.14,318.48 C380.09,327.38 376.23,326.93 438.01,326.97 L 492.52 327.00 L 496.93 332.52 C508.13,346.56 524.92,360.10 550.57,375.79 C566.88,385.77 571.74,388.23 580.36,390.89 L 587.21 393.00 L 910.14 393.00 L 1233.06 393.00 L 1239.17 390.94 C1242.53,389.81 1247.58,387.41 1250.40,385.61 C1255.28,382.49 1268.00,369.66 1268.00,367.86 C1268.00,367.38 1279.96,367.00 1294.58,367.00 C1310.96,367.00 1321.04,367.37 1320.83,367.95 C1320.09,370.08 1300.23,391.38 1286.82,404.45 C1278.94,412.12 1265.30,425.46 1256.50,434.10 L 1240.50 449.80 L 747.85 449.84 C286.49,449.88 255.11,449.77 253.76,448.19 C252.97,447.26 250.29,443.12 247.81,439.00 C245.33,434.88 234.54,417.33 223.84,400.00 C205.97,371.06 184.48,335.48 175.73,320.34 C173.77,316.94 172.43,313.91 172.75,313.59 C173.07,313.26 209.93,313.00 254.67,313.00 C332.66,313.00 336.07,313.08 337.75,314.86 C338.71,315.88 340.79,318.40 342.37,320.46 C347.98,327.76 370.63,340.23 381.52,342.01 C384.83,342.55 409.14,342.99 436.02,342.99 L 484.53 343.00 L 494.02 352.75 C505.03,364.07 517.61,373.78 536.81,385.80 C554.54,396.89 564.62,402.21 574.50,405.69 L 582.50 408.50 L 910.50 408.50 L 1238.50 408.50 L 1245.24 405.88 C1254.99,402.09 1262.25,397.42 1270.36,389.75 C1276.56,383.90 1278.00,383.01 1281.25,383.00 C1283.31,383.00 1285.00,383.22 1285.00,383.49 C1285.00,383.76 1273.64,395.22 1259.75,408.96 L 1234.50 433.93 L 748.91 433.97 L 263.32 434.00 L 251.47 414.75 C223.44,369.23 218.22,360.68 209.35,345.86 C204.21,337.25 200.00,329.94 200.00,329.61 C200.00,329.27 215.30,329.00 234.00,329.00 C252.70,329.00 268.00,329.27 268.00,329.60 C268.00,329.93 265.67,332.29 262.82,334.85 C237.11,357.94 241.18,399.48 270.86,416.95 C281.98,423.49 286.84,424.48 308.00,424.49 C324.39,424.50 327.31,424.24 333.62,422.26 C358.55,414.42 374.05,389.49 369.76,364.15 L 368.35 355.82 L 371.42 356.48 C381.16,358.56 390.83,358.96 432.07,358.98 L 477.64 359.00 L 486.16 367.31 C508.43,389.04 553.79,416.95 575.00,421.97 C583.43,423.97 586.24,423.99 906.62,423.99 L 1229.73 424.00 L 1232.59 421.75 L 1235.45 419.50 L 908.48 419.00 L 581.50 418.50 L 574.19 416.23 C564.46,413.21 550.47,406.09 533.58,395.57 C512.98,382.74 503.71,375.75 491.47,363.84 L 480.44 353.10 L 428.97 352.80 L 377.50 352.50 L 370.60 349.74 C366.81,348.22 361.36,345.63 358.48,343.99 C355.61,342.35 352.98,341.00 352.63,341.00 C352.29,341.00 353.65,343.14 355.64,345.75 C369.39,363.73 367.45,388.55 351.00,405.00 C344.54,411.46 335.36,416.46 327.11,417.99 C324.15,418.55 315.55,419.00 308.00,419.00 C291.73,419.00 285.56,418.00 277.50,414.05 C259.71,405.34 248.97,385.77 251.84,367.30 C254.37,350.99 263.79,338.35 278.69,331.23 L 286.50 327.50 L 308.00 327.52 C325.92,327.54 330.22,327.83 333.84,329.26 L 338.17 330.97 L 335.34 327.60 C333.78,325.74 331.60,323.95 330.50,323.62 C327.40,322.70 190.00,322.89 190.00,323.82 C190.00,325.16 208.77,356.57 235.38,399.75 L 260.18 440.00 L 748.34 439.96 L 1236.50 439.92 L 1268.00 408.71 L 1299.50 377.50 L 1287.27 377.22 L 1275.04 376.94 L 1267.65 384.22 C1259.61,392.14 1251.90,397.25 1243.13,400.45 C1237.50,402.50 1237.50,402.50 912.05,402.76 L 586.60 403.01 L 579.05 400.95 C569.88,398.44 556.25,391.36 537.13,379.15 C518.09,367.00 508.36,359.27 496.79,347.10 L 487.19 337.00 L 434.84 336.97 C383.27,336.95 382.40,336.92 376.00,334.71 C361.55,329.73 344.05,317.02 342.35,310.28 L 341.78 308.00 L 251.81 308.00 L 161.83 308.00 L 165.59 314.75 C171.73,325.75 202.71,376.91 226.25,414.91 C238.32,434.39 248.67,451.38 249.26,452.66 L 250.32 455.00 L 747.02 455.00 L 1243.72 455.00 L 1280.69 418.25 C1311.87,387.26 1333.00,364.39 1333.00,361.65 C1333.00,361.29 1317.74,361.00 1299.09,361.00 L 1265.19 361.00 L 1262.64 365.35 C1259.21,371.21 1249.30,380.22 1242.80,383.39 C1239.88,384.82 1235.01,386.44 1231.97,387.00 C1228.26,387.68 1120.71,387.94 906.47,387.76 L 586.50 387.50 L 580.58 385.25 C572.72,382.25 562.83,376.86 548.04,367.49 C526.62,353.91 513.95,343.64 502.90,330.88 C494.43,321.11 498.23,322.96 508.15,333.44 C513.21,338.79 521.15,346.13 525.79,349.75 C535.43,357.28 564.46,375.65 573.75,380.11 C586.82,386.37 563.65,385.96 909.57,385.98 C1133.38,385.99 1227.35,385.68 1231.53,384.91 C1242.84,382.82 1253.67,375.14 1260.68,364.25 L 1264.06 359.00 L 1300.53 359.00 C1320.59,359.00 1337.00,359.36 1337.00,359.80 C1337.00,360.23 1333.10,365.52 1328.33,371.55 C1323.10,378.15 1304.85,397.28 1282.33,419.75 L 1245.00 457.00 L 747.02 457.00 L 249.04 457.00 L 247.13 453.25 C246.08,451.19 234.90,432.85 222.28,412.50 C190.10,360.57 159.00,308.50 159.00,306.55 C159.00,306.25 200.36,306.00 250.91,306.00 L 342.82 306.00 L 345.00 310.50 C347.79,316.25 352.69,320.41 364.24,326.79 C379.33,335.13 378.14,335.00 436.86,335.00 L 488.31 335.00 L 497.80 345.06 C508.56,356.47 518.40,364.45 535.00,375.22 C553.16,387.01 565.44,393.92 574.30,397.34 L 582.50 400.50 L 910.00 400.50 L 1237.50 400.50 L 1243.15 398.22 C1251.65,394.78 1260.72,388.51 1267.53,381.36 L 1273.63 374.95 L 1289.07 375.22 L 1304.50 375.50 L 1271.00 408.73 L 1237.50 441.96 L 748.09 441.73 L 258.69 441.50 L 232.79 399.50 C208.85,360.68 186.00,322.56 186.00,321.46 C186.00,321.21 218.85,321.00 259.01,321.00 L 332.02 321.00 L 338.26 327.34 C345.26,334.44 361.98,344.50 373.00,348.25 C379.31,350.39 380.98,350.46 430.44,350.78 L 481.39 351.10 L 489.94 359.81 C500.05,370.10 513.28,380.24 532.38,392.34 C551.16,404.24 560.74,409.28 572.00,413.19 L 581.50 416.50 L 911.22 416.50 L 1240.93 416.50 L 1236.25 421.25 L 1231.58 426.00 L 906.95 426.00 C588.94,426.00 582.17,425.96 574.73,424.06 C563.36,421.15 553.53,416.72 538.27,407.62 C512.25,392.10 490.40,375.98 481.73,365.92 L 477.50 361.00 L 430.43 361.00 C401.31,361.00 381.16,360.59 377.59,359.93 C374.41,359.34 371.69,359.01 371.55,359.18 C371.41,359.36 371.76,362.73 372.32,366.67 C374.98,385.25 364.95,406.53 348.37,417.54 C338.23,424.27 330.70,426.24 313.00,426.77 C292.84,427.38 284.96,426.18 274.00,420.83 C245.17,406.76 234.98,371.75 251.81,344.58 C253.15,342.42 256.28,338.48 258.76,335.83 L 263.27 331.00 L 233.64 331.00 C216.88,331.00 204.00,331.39 204.00,331.89 C204.00,332.84 223.44,365.39 239.00,390.50 C244.11,398.75 251.92,411.46 256.35,418.75 L 264.41 432.00 L 748.96 431.98 L 1233.50 431.97 L 1256.77 408.83 C1279.53,386.21 1286.62,377.95 1271.55,391.64 C1262.50,399.85 1253.85,405.27 1245.02,408.28 L 1238.50 410.50 L 914.50 410.81 C670.11,411.05 588.78,410.83 583.50,409.95 C572.99,408.19 562.76,403.86 547.15,394.56 C522.25,379.72 509.45,370.40 495.91,357.25 L 483.30 345.00 L 434.28 345.00 C406.56,345.00 382.93,344.57 379.89,344.02 C374.14,342.97 359.51,336.07 349.95,329.89 C346.75,327.82 342.41,323.88 340.32,321.12 L 336.50 316.11 L 256.18 316.06 L 175.85 316.00 L 179.09 321.75 C184.40,331.20 215.35,382.33 235.99,415.75 L 255.29 447.00 L 747.95 447.00 L 1240.60 447.00 L 1276.61 411.25 C1296.41,391.59 1313.63,374.04 1314.88,372.25 L 1317.14 369.00 L 1294.05 369.00 L 1270.96 369.00 L 1262.23 377.86 C1251.20,389.07 1242.85,393.51 1230.00,395.05 C1224.38,395.72 1113.99,395.96 904.00,395.78 L 586.50 395.50 L 578.11 392.57 C566.22,388.42 533.90,368.86 518.29,356.37 C510.25,349.93 504.79,344.67 497.70,336.50 L 491.62 329.50 L 435.90 329.00 L 380.19 328.50 L 369.35 323.02 C355.93,316.23 349.40,310.37 348.42,304.23 L 347.74 300.00 L 248.87 300.00 C182.02,300.00 150.00,300.33 150.00,301.02 C150.00,304.47 176.89,350.25 214.01,410.00 C239.23,450.61 245.00,460.23 245.00,461.72 C245.00,462.76 339.20,463.00 745.75,463.01 L 1246.50 463.02 L 1285.56 423.76 C1320.49,388.65 1333.68,374.14 1344.81,358.62 L 1348.12 354.00 L 1304.08 354.00 L 1260.03 354.00 L 1257.43 359.14 C1254.27,365.37 1246.29,373.26 1239.50,376.85 L 1234.50 379.50 L 911.53 379.76 C616.76,379.99 588.11,379.87 583.53,378.40 C573.58,375.21 540.96,355.01 525.38,342.40 C520.36,338.34 513.69,332.09 510.54,328.51 L 504.83 322.00 L 446.17 321.98 C409.55,321.96 385.81,321.56 383.00,320.92 C380.52,320.35 374.72,317.78 370.10,315.19 C356.05,307.34 353.39,303.52 358.45,298.45 L 360.91 296.00 L 415.59 296.00 C453.33,296.00 471.44,296.35 474.04,297.13 C478.78,298.55 493.23,312.59 490.88,313.49 C490.05,313.81 465.56,313.94 436.44,313.78 L 383.50 313.50 L 376.04 309.38 C371.94,307.12 368.42,304.75 368.21,304.13 C367.79,302.87 445.83,302.49 462.95,303.67 C472.18,304.31 472.49,304.41 476.64,308.24 C479.40,310.78 481.64,312.04 483.02,311.83 C485.01,311.52 484.93,311.25 481.60,307.38 C474.99,299.68 477.82,300.00 416.72,300.00 C367.62,300.00 362.11,300.16 360.89,301.63 C359.72,303.04 359.96,303.61 362.75,305.93 C364.51,307.40 369.84,310.61 374.60,313.05 L 383.25 317.50 L 442.27 317.78 L 501.29 318.06 L 497.50 313.78 C487.55,302.54 480.41,295.65 477.38,294.39 C474.60,293.22 447.09,293.00 306.46,293.00 L 138.87 293.00 L 139.55 295.25 C142.80,305.95 152.15,323.02 178.04,365.50 C191.82,388.11 199.58,400.74 224.78,441.50 C230.56,450.85 235.91,459.51 236.67,460.75 C238.01,462.95 243.00,464.01 243.00,462.10 ZM 1290.78 431.75 C1324.58,398.06 1335.02,386.73 1347.55,370.15 L 1355.61 359.50 L 1390.46 359.24 L 1425.31 358.97 L 1424.69 370.74 C1423.24,398.79 1415.73,426.66 1402.57,452.85 C1400.06,457.86 1398.00,462.22 1398.00,462.55 C1398.00,462.87 1399.24,462.99 1400.75,462.82 C1403.16,462.54 1404.19,461.12 1409.15,451.20 C1417.60,434.30 1424.74,411.56 1427.90,391.50 C1429.76,379.70 1431.12,361.71 1430.46,357.75 L 1429.82 354.00 L 1391.46 354.00 L 1353.09 354.00 L 1342.65 367.75 C1328.99,385.72 1311.45,404.56 1278.43,436.73 L 1251.50 462.95 L 1255.46 462.98 C1259.34,463.00 1260.14,462.29 1290.78,431.75 ZM 1304.11 429.25 C1334.21,398.92 1349.03,382.47 1356.68,370.91 L 1359.27 367.00 L 1388.13 367.00 L 1417.00 367.00 L 1417.00 371.75 C1417.00,378.93 1413.33,400.19 1410.06,412.00 C1406.12,426.18 1401.78,437.24 1394.83,450.84 C1391.62,457.10 1389.00,462.43 1389.00,462.68 C1389.00,462.92 1390.41,462.99 1392.14,462.81 C1395.07,462.52 1395.68,461.71 1401.03,451.00 C1411.69,429.64 1417.46,411.11 1421.05,386.68 C1422.12,379.43 1422.99,370.69 1423.00,367.25 L 1423.00 361.00 L 1390.04 361.00 L 1357.07 361.00 L 1349.39 371.14 C1336.56,388.08 1330.95,394.20 1296.11,429.25 L 1262.57 463.00 L 1266.59 463.00 C1270.55,463.00 1271.17,462.45 1304.11,429.25 ZM 1393.56 448.49 C1400.89,434.06 1406.49,418.85 1409.93,404.00 C1412.03,394.94 1415.00,375.97 1415.00,371.62 L 1415.00 369.00 L 1388.04 369.00 L 1361.09 369.00 L 1354.83 377.23 C1343.44,392.18 1336.99,399.20 1305.11,431.26 L 1273.53 463.02 L 1329.98 462.76 L 1386.44 462.50 L 1393.56 448.49 ZM 328.47 415.47 C345.60,411.00 358.95,396.85 362.09,379.81 C366.02,358.51 351.35,336.17 329.65,330.39 C323.57,328.77 296.91,328.50 289.12,329.98 C275.98,332.47 264.37,341.43 258.26,353.79 C254.57,361.26 254.50,361.61 254.50,372.95 C254.50,383.88 254.67,384.87 257.71,391.27 C263.19,402.85 274.30,411.97 287.10,415.42 C294.74,417.47 320.66,417.50 328.47,415.47 ZM 1236.50 373.58 C1239.25,372.26 1242.85,370.03 1244.50,368.62 L 1247.50 366.07 L 1244.29 366.04 C1242.48,366.02 1239.50,367.08 1237.44,368.47 C1235.44,369.83 1232.38,371.20 1230.65,371.51 C1228.92,371.82 1083.28,371.94 907.00,371.78 L 586.50 371.50 L 581.17 368.75 C577.84,367.03 574.27,366.00 571.67,366.01 L 567.50 366.02 L 573.00 369.21 C576.03,370.97 580.75,373.20 583.50,374.17 C588.24,375.84 605.47,375.94 910.00,375.96 L 1231.50 375.98 L 1236.50 373.58 ZM 1233.78 368.25 C1237.34,366.57 1230.53,366.49 1073.25,366.25 C982.91,366.11 835.09,366.11 744.75,366.25 C589.98,366.49 580.76,366.60 585.00,368.17 C589.17,369.72 613.10,369.85 909.78,369.92 C1212.82,370.00 1230.26,369.91 1233.78,368.25 ZM 1253.43 358.49 C1254.47,356.57 1255.10,354.77 1254.83,354.49 C1254.55,354.22 1095.53,354.11 901.43,354.25 L 548.54 354.50 L 554.52 358.16 L 560.50 361.83 L 906.02 361.91 L 1251.55 362.00 L 1253.43 358.49 ZM 1232.00 342.55 L 1232.00 335.10 L 1226.75 334.80 L 1221.50 334.50 L 1221.50 309.00 L 1221.50 283.50 L 1230.75 283.21 L 1240.00 282.92 L 1240.00 275.46 L 1240.00 268.00 L 865.00 268.00 L 490.00 268.00 L 490.00 275.50 L 490.00 283.00 L 567.44 283.00 C618.23,283.00 645.10,283.35 645.50,284.00 C646.09,284.95 646.49,312.01 646.16,327.75 L 646.00 335.00 L 585.00 335.00 C551.45,335.00 524.00,335.25 524.00,335.56 C524.00,336.28 528.73,340.29 535.92,345.68 L 541.50 349.87 L 886.75 349.93 L 1232.00 350.00 L 1232.00 342.55 ZM 1241.00 339.65 C1241.00,327.98 1240.21,326.41 1234.00,325.83 L 1230.50 325.50 L 1230.23 309.25 L 1229.95 293.00 L 1236.84 293.00 C1242.30,293.00 1244.28,292.57 1246.37,290.93 C1248.97,288.88 1249.00,288.70 1249.00,275.93 C1249.00,264.33 1248.79,262.79 1247.00,261.00 C1245.01,259.01 1243.67,259.00 864.95,259.00 L 484.91 259.00 L 482.45 261.45 C480.13,263.78 480.00,264.52 480.00,275.65 C480.00,284.12 479.70,287.10 478.91,286.31 C478.21,285.61 477.94,281.07 478.16,273.52 C478.49,262.13 478.57,261.76 481.31,259.41 L 484.11 257.00 L 864.63 257.00 L 1245.15 257.00 L 1248.08 259.92 L 1251.00 262.85 L 1251.00 275.87 C1251.00,288.14 1250.86,289.05 1248.62,291.65 C1246.52,294.10 1245.41,294.47 1239.09,294.82 L 1231.95 295.23 L 1232.22 309.36 L 1232.50 323.50 L 1235.63 323.80 C1237.37,323.97 1239.80,325.22 1241.13,326.63 C1243.31,328.96 1243.50,329.99 1243.50,339.58 L 1243.50 350.00 L 1246.25 350.00 L 1249.00 350.00 L 1249.00 339.23 C1249.00,326.67 1247.53,322.75 1241.66,319.70 L 1238.00 317.80 L 1238.00 309.52 C1238.00,300.50 1238.33,300.06 1245.00,300.01 C1248.76,299.98 1253.45,296.67 1255.33,292.72 C1256.63,289.98 1257.00,286.26 1257.00,276.00 C1257.00,261.17 1255.96,257.54 1250.63,253.73 L 1247.50 251.50 L 864.82 251.50 L 482.15 251.50 L 479.39 253.56 C473.54,257.92 472.78,259.94 472.23,272.47 L 471.72 284.13 L 468.59 283.86 C466.88,283.71 464.92,283.93 464.24,284.35 C463.55,284.78 463.00,284.65 463.00,284.06 C463.00,283.35 457.00,283.00 444.98,283.00 L 426.97 283.00 L 427.23 258.25 L 427.50 233.50 L 433.12 232.90 C439.30,232.23 442.32,230.57 445.14,226.31 C446.68,223.96 446.99,221.48 446.99,211.22 C447.00,193.17 444.52,189.03 433.05,188.00 L 427.50 187.50 L 427.00 171.83 C426.52,156.84 426.39,156.04 424.00,153.45 C419.99,149.10 416.09,148.00 404.78,148.00 C393.33,148.00 389.22,149.36 385.57,154.32 C383.76,156.79 383.44,159.01 383.00,172.32 L 382.50 187.50 L 374.32 188.00 C368.13,188.38 365.45,189.01 363.32,190.59 C358.39,194.25 357.51,197.30 357.56,210.56 C357.60,221.10 357.87,223.05 359.74,226.06 C362.94,231.19 365.59,232.44 374.50,233.00 L 382.50 233.50 L 382.77 261.31 L 383.03 289.13 L 385.77 288.81 L 388.50 288.50 L 388.50 258.21 L 388.50 227.93 L 378.77 227.71 C369.61,227.51 368.88,227.34 366.27,224.73 C363.63,222.09 363.49,221.45 363.22,211.23 C362.89,198.81 363.83,196.09 369.03,194.31 C370.94,193.65 376.21,193.09 380.75,193.06 L 389.00 193.00 L 389.00 175.95 C389.00,159.19 389.04,158.87 391.45,156.45 C393.75,154.16 394.59,154.00 404.52,154.00 C410.36,154.00 416.00,154.46 417.06,155.03 C421.16,157.22 422.00,161.03 422.00,177.34 L 422.00 192.77 L 428.95 193.17 C434.58,193.49 436.39,194.02 438.45,195.95 C440.90,198.26 441.00,198.80 441.00,210.12 C441.00,220.96 440.82,222.10 438.70,224.56 C436.71,226.88 435.43,227.31 429.20,227.75 L 422.00 228.27 L 422.00 258.63 L 422.00 289.00 L 447.85 289.00 C474.43,289.00 477.76,289.40 483.26,293.23 C484.78,294.29 493.25,303.22 502.07,313.08 L 518.11 331.00 L 580.58 331.00 L 643.04 331.00 L 642.77 309.25 L 642.50 287.50 L 564.22 287.24 L 485.93 286.99 L 486.22 275.74 L 486.50 264.50 L 865.00 264.50 L 1243.50 264.50 L 1243.50 275.50 L 1243.50 286.50 L 1234.25 286.79 L 1225.00 287.08 L 1225.00 308.99 L 1225.00 330.90 L 1230.25 331.20 L 1235.50 331.50 L 1235.79 340.75 C1236.07,349.83 1236.12,350.00 1238.54,350.00 C1241.00,350.00 1241.00,349.98 1241.00,339.65 ZM 1257.00 338.32 C1257.00,324.94 1255.36,319.97 1249.39,315.20 C1245.09,311.78 1244.86,308.48 1248.85,307.68 C1253.04,306.84 1260.02,301.09 1262.41,296.50 C1264.19,293.09 1264.55,290.35 1264.83,278.06 C1265.03,269.02 1264.71,262.05 1263.98,259.42 C1262.47,254.03 1257.93,248.54 1252.65,245.72 L 1248.50 243.50 L 865.00 243.50 L 481.50 243.50 L 476.66 245.88 C471.24,248.55 466.31,254.55 465.56,259.37 C465.30,261.09 464.80,265.55 464.46,269.28 L 463.84 276.05 L 449.67 275.78 L 435.50 275.50 L 435.23 258.49 L 434.95 241.49 L 440.23 239.62 C446.53,237.40 452.46,231.62 453.94,226.26 C455.30,221.36 455.29,199.60 453.93,194.68 C452.39,189.16 446.78,183.43 440.67,181.15 L 435.50 179.23 L 435.00 167.36 C434.55,156.68 434.22,155.03 431.72,150.78 C429.92,147.71 427.29,145.08 424.22,143.28 C419.67,140.60 419.00,140.50 405.50,140.50 C389.71,140.50 386.19,141.60 380.21,148.41 C376.08,153.12 375.01,157.50 375.01,169.75 L 375.00 180.00 L 370.75 180.02 C365.80,180.05 359.26,182.76 356.02,186.14 C351.08,191.29 350.05,195.49 350.02,210.43 C350.00,222.55 350.27,224.93 352.09,228.69 C355.66,236.07 363.59,241.00 371.87,241.00 L 375.00 241.00 L 375.00 265.00 L 375.00 289.00 L 378.02 289.00 L 381.03 289.00 L 380.77 262.25 L 380.50 235.50 L 372.95 234.96 C364.18,234.34 360.31,232.18 357.37,226.27 C354.55,220.59 354.64,198.96 357.50,194.10 C360.91,188.31 364.22,186.56 372.82,186.00 L 380.50 185.50 L 381.00 170.82 C381.57,154.02 382.29,152.22 390.06,148.20 C394.10,146.10 395.59,145.93 406.68,146.20 C419.88,146.53 421.84,147.24 426.44,153.38 C428.24,155.78 428.56,158.02 429.00,170.82 L 429.50 185.50 L 434.71 186.02 C440.70,186.63 444.49,189.06 447.15,194.02 C449.91,199.17 449.85,221.41 447.06,226.89 C444.56,231.78 440.94,234.10 434.59,234.88 L 429.50 235.50 L 429.50 258.00 L 429.50 280.50 L 448.50 281.01 C458.95,281.29 468.06,281.35 468.75,281.15 C469.62,280.90 470.01,278.18 470.02,272.14 C470.05,259.57 472.94,254.01 481.25,250.54 C484.55,249.16 525.26,249.00 865.26,249.00 L 1245.58 249.00 L 1250.03 251.25 C1257.63,255.08 1258.96,258.75 1258.98,275.79 C1259.00,288.05 1258.72,290.63 1257.03,293.94 C1254.72,298.48 1250.17,301.52 1244.25,302.48 L 1240.00 303.18 L 1240.00 309.46 C1240.00,315.63 1240.06,315.78 1243.84,318.28 C1249.70,322.16 1251.00,325.89 1251.00,338.90 L 1251.00 350.00 L 1254.00 350.00 L 1257.00 350.00 L 1257.00 338.32 ZM 474.23 308.97 L 470.97 306.00 L 422.73 306.04 C377.41,306.08 374.68,306.18 377.50,307.72 C384.99,311.83 386.03,311.91 432.50,311.93 L 477.50 311.94 L 474.23 308.97 ZM 396.00 254.50 L 396.00 220.00 L 383.50 220.00 L 371.00 220.00 L 371.00 210.50 L 371.00 201.00 L 383.50 201.00 L 396.00 201.00 L 396.00 181.61 C396.00,159.57 395.38,161.00 405.00,161.00 C414.62,161.00 414.00,159.58 414.00,181.57 L 414.00 200.93 L 423.75 201.21 L 433.50 201.50 L 433.50 210.50 L 433.50 219.50 L 423.75 219.79 L 414.00 220.07 L 414.00 254.60 L 414.00 289.13 L 416.75 288.82 L 419.50 288.50 L 419.76 256.75 L 420.03 225.00 L 427.69 225.00 C438.64,225.00 439.00,224.54 438.98,210.60 C438.98,204.49 438.64,199.00 438.23,198.40 C436.71,196.11 432.92,195.00 426.63,195.00 L 420.13 195.00 L 419.81 177.41 C419.42,155.50 419.76,156.00 405.11,156.00 C390.44,156.00 391.00,155.17 391.00,176.97 L 391.00 194.82 L 380.03 195.16 C365.68,195.60 365.61,195.67 365.17,209.29 C364.86,218.54 365.04,219.78 366.99,222.26 C369.01,224.83 369.63,225.00 376.95,225.00 C381.24,225.00 386.16,225.28 387.88,225.62 L 391.00 226.25 L 391.00 257.62 L 391.00 289.00 L 393.50 289.00 L 396.00 289.00 L 396.00 254.50 ZM 401.76 251.25 L 401.50 213.50 L 389.75 213.22 L 378.00 212.94 L 378.00 209.97 L 378.00 207.00 L 389.98 207.00 L 401.96 207.00 L 402.23 187.75 L 402.50 168.50 L 405.00 168.50 L 407.50 168.50 L 407.77 187.71 L 408.04 206.93 L 417.27 207.21 C426.48,207.50 426.50,207.51 426.81,210.21 L 427.13 212.92 L 417.81 213.21 L 408.50 213.50 L 408.24 251.25 C408.07,275.91 408.32,289.00 408.98,289.00 C409.62,289.00 410.07,276.06 410.24,252.75 L 410.50 216.50 L 420.25 216.21 L 430.00 215.93 L 430.00 210.46 L 430.00 205.00 L 421.58 205.00 C416.95,205.00 412.45,204.73 411.58,204.39 C410.21,203.87 410.00,201.15 410.00,184.39 L 410.00 165.00 L 405.00 165.00 L 400.00 165.00 L 400.00 184.39 C400.00,201.15 399.79,203.87 398.42,204.39 C397.55,204.73 391.92,205.00 385.92,205.00 L 375.00 205.00 L 375.00 210.47 L 375.00 215.94 L 387.25 216.22 L 399.50 216.50 L 399.76 252.75 C399.93,276.06 400.38,289.00 401.02,289.00 C401.68,289.00 401.93,275.91 401.76,251.25 ZM 407.70 212.25 C408.72,211.49 412.55,211.00 417.39,211.00 C428.15,211.00 426.17,209.18 414.99,208.79 L 406.50 208.50 L 406.23 189.25 C406.07,177.85 405.57,170.00 405.00,170.00 C404.43,170.00 403.93,177.85 403.77,189.25 L 403.50 208.50 L 391.75 208.78 C377.24,209.13 375.82,211.00 390.07,211.00 C395.60,211.00 401.00,211.47 402.07,212.04 C403.93,213.03 404.00,214.52 404.00,250.37 C404.00,270.88 404.34,288.00 404.75,288.42 C405.16,288.83 405.61,272.14 405.75,251.33 C405.98,217.18 406.17,213.38 407.70,212.25 ZM 1341.21 568.38 C1332.50,563.96 1329.62,552.08 1335.08,543.11 C1337.63,538.92 1342.42,536.99 1350.22,537.02 C1362.71,537.07 1369.47,543.09 1369.47,554.19 C1369.47,560.35 1367.81,563.56 1362.62,567.43 C1358.84,570.25 1346.00,570.82 1341.21,568.38 ZM 1359.52 564.42 C1368.42,560.20 1367.59,546.23 1358.21,542.31 C1352.73,540.03 1342.80,540.90 1339.55,543.96 C1334.53,548.67 1335.31,558.56 1341.09,563.43 C1343.64,565.57 1345.16,566.00 1350.18,566.00 C1353.59,566.00 1357.64,565.32 1359.52,564.42 ZM 1181.00 551.94 C1181.82,551.43 1189.66,546.72 1198.41,541.48 C1214.73,531.72 1228.17,522.50 1240.50,512.62 L 1247.50 507.01 L 1286.69 507.01 C1310.03,507.00 1326.12,507.38 1326.46,507.94 C1326.78,508.45 1323.42,510.76 1318.98,513.07 C1309.24,518.14 1301.89,524.53 1299.05,530.40 C1297.89,532.79 1296.52,538.42 1296.01,542.91 C1295.50,547.39 1294.81,551.50 1294.48,552.03 C1294.10,552.64 1272.62,552.98 1236.69,552.94 C1200.63,552.90 1180.05,552.54 1181.00,551.94 ZM 1293.36 547.25 C1293.70,545.19 1293.98,542.28 1293.99,540.79 C1294.01,536.00 1298.15,526.79 1302.32,522.27 C1304.55,519.85 1309.44,516.08 1313.19,513.89 C1316.93,511.70 1320.00,509.82 1320.00,509.71 C1320.00,509.59 1303.52,509.65 1283.37,509.84 L 1246.74 510.19 L 1239.62 515.99 C1229.76,524.01 1216.83,532.92 1201.52,542.23 C1194.38,546.58 1188.34,550.33 1188.10,550.56 C1187.86,550.80 1211.31,551.00 1240.20,551.00 L 1292.74 551.00 L 1293.36 547.25 ZM 275.00 529.69 C275.00,528.96 276.27,527.16 277.82,525.67 L 280.65 522.96 L 304.05 523.23 L 327.45 523.50 L 322.34 527.25 L 317.23 531.00 L 296.12 531.00 C279.35,531.00 275.00,530.73 275.00,529.69 ZM 319.00 527.00 L 321.50 525.04 L 301.32 525.02 C284.29,525.00 280.90,525.25 279.57,526.57 C278.71,527.44 278.00,528.34 278.00,528.57 C278.00,528.81 286.66,528.99 297.25,528.98 C314.82,528.96 316.72,528.78 319.00,527.00 ZM 248.00 480.25 C247.38,477.09 246.64,473.71 246.36,472.75 C245.89,471.08 269.77,471.00 738.18,471.05 L 1230.50 471.10 L 1222.52 478.55 L 1214.54 486.00 L 731.84 486.00 L 249.14 486.00 L 248.00 480.25 ZM 1219.50 478.54 L 1225.50 473.09 L 737.14 473.05 L 248.78 473.00 L 249.44 476.75 C249.81,478.81 250.34,481.29 250.62,482.25 C251.11,483.91 274.91,484.00 732.32,484.00 L 1213.50 484.00 L 1219.50 478.54 ZM 1241.33 478.46 L 1249.15 471.00 L 1321.20 471.00 C1378.67,471.00 1393.05,471.25 1392.30,472.25 C1391.78,472.94 1389.18,476.31 1386.53,479.75 L 1381.70 486.00 L 1307.60 485.96 L 1233.50 485.92 L 1241.33 478.46 ZM 1384.82 478.50 L 1389.12 473.00 L 1319.81 473.00 L 1250.50 473.00 L 1244.50 478.46 L 1238.50 483.91 L 1309.51 483.95 L 1380.53 484.00 L 1384.82 478.50 ZM 266.98 424.48 C265.05,422.15 266.43,421.71 268.49,423.99 C269.49,425.10 269.85,426.00 269.28,426.00 C268.71,426.00 267.68,425.31 266.98,424.48 ZM 347.00 425.60 C347.00,425.39 349.26,423.76 352.02,421.98 C362.52,415.25 372.59,401.11 376.58,387.50 C377.74,383.55 378.33,378.17 378.32,371.75 C378.30,361.80 379.25,359.02 380.36,365.75 C382.05,375.98 379.77,387.99 373.86,399.97 C370.65,406.49 367.90,410.22 361.91,416.22 L 354.12 424.00 L 452.06 424.00 C505.93,424.00 550.00,423.78 550.00,423.51 C550.00,423.25 547.33,421.68 544.06,420.03 C535.57,415.75 509.12,398.90 498.21,390.82 C493.10,387.04 485.40,380.58 481.10,376.47 L 473.28 369.00 L 431.28 369.00 L 389.29 369.00 L 388.62 376.96 C387.48,390.69 381.16,406.87 373.51,415.69 C368.92,420.98 368.31,419.45 372.62,413.45 C380.74,402.13 385.46,389.35 386.57,375.68 C387.19,368.03 387.48,367.14 389.42,366.77 C390.61,366.54 410.22,366.53 432.98,366.75 L 474.38 367.14 L 482.69 375.01 C497.01,388.56 529.94,410.99 549.19,420.30 C553.96,422.61 557.90,424.84 557.94,425.25 C557.97,425.66 510.52,426.00 452.50,426.00 C394.48,426.00 347.00,425.82 347.00,425.60 ZM 380.00 417.53 C380.00,417.28 381.33,414.97 382.97,412.39 C387.59,405.10 391.86,393.91 393.10,385.86 C393.72,381.81 394.61,377.49 395.09,376.25 L 395.96 374.00 L 433.00 374.00 L 470.04 374.00 L 477.91 381.35 C488.13,390.92 494.34,395.63 512.25,407.46 C520.36,412.81 527.00,417.38 527.00,417.60 C527.00,417.82 493.92,418.00 453.50,418.00 C413.08,418.00 380.00,417.79 380.00,417.53 ZM 507.65 406.99 C494.43,398.23 479.52,386.48 473.56,380.13 L 470.63 377.00 L 433.88 377.00 C392.46,377.00 396.78,376.05 395.49,385.49 C394.66,391.56 389.97,404.67 386.53,410.54 C385.14,412.91 384.00,415.11 384.00,415.43 C384.00,415.74 414.88,416.00 452.62,416.00 L 521.25 416.00 L 507.65 406.99 ZM 236.35 374.91 C234.74,372.92 218.33,345.57 215.94,340.88 L 213.96 337.00 L 231.48 337.00 C241.12,337.00 249.00,337.36 249.00,337.80 C249.00,338.24 248.58,339.03 248.06,339.55 C246.43,341.21 241.25,352.33 239.94,357.00 C239.24,359.48 238.41,364.84 238.09,368.91 C237.63,374.70 237.25,376.02 236.35,374.91 ZM 241.56 347.17 C243.45,343.07 245.00,339.56 245.00,339.36 C245.00,339.16 238.93,339.00 231.50,339.00 C224.07,339.00 218.00,339.37 218.00,339.82 C218.00,340.56 229.74,360.81 233.76,367.00 C235.37,369.48 235.39,369.44 236.75,362.06 C237.50,357.97 239.67,351.26 241.56,347.17 ZM 1311.83 433.25 C1335.49,409.53 1350.51,392.97 1359.00,381.26 L 1363.50 375.06 L 1386.25 375.03 C1398.76,375.01 1409.00,375.23 1409.00,375.51 C1409.00,375.79 1408.31,380.62 1407.47,386.26 C1404.30,407.44 1398.19,426.62 1388.36,446.25 L 1382.98 457.00 L 1335.56 457.00 L 1288.14 457.00 L 1311.83 433.25 ZM 1388.25 441.25 C1397.79,421.34 1401.53,408.75 1406.48,379.75 L 1406.95 377.00 L 1386.11 377.00 L 1365.28 377.00 L 1356.01 388.60 C1345.96,401.17 1316.92,432.20 1302.05,446.25 L 1292.80 455.00 L 1337.23 455.00 L 1381.66 455.00 L 1388.25 441.25 ZM 287.93 409.68 C277.10,406.65 268.11,399.04 262.93,388.51 C259.99,382.54 259.62,380.85 259.63,373.64 C259.66,360.13 265.17,349.30 275.75,341.90 C284.62,335.71 289.31,334.79 310.23,335.17 L 328.55 335.50 L 335.20 338.77 C348.90,345.53 356.36,357.54 356.45,373.00 C356.49,380.53 356.14,382.26 353.33,388.20 C349.29,396.73 342.73,403.29 334.20,407.33 C327.55,410.48 327.37,410.50 310.00,410.73 C298.17,410.89 291.02,410.55 287.93,409.68 ZM 333.22 405.31 C341.32,401.48 347.86,395.06 351.65,387.22 C354.00,382.36 354.42,380.22 354.44,373.00 C354.45,365.88 354.03,363.57 351.80,358.78 C348.08,350.79 341.29,343.87 333.73,340.38 C327.74,337.61 326.82,337.49 310.23,337.19 C296.82,336.94 291.76,337.22 287.60,338.43 C266.75,344.49 255.76,368.06 264.79,387.36 C268.35,394.97 274.00,400.95 280.96,404.48 C288.67,408.39 292.18,408.90 310.00,408.69 C326.29,408.50 326.58,408.46 333.22,405.31 ZM 545.26 346.02 C543.48,345.60 540.33,343.96 538.26,342.38 L 534.50 339.50 L 590.91 339.24 C630.93,339.06 647.71,338.66 648.67,337.86 C649.77,336.95 649.98,331.32 649.77,308.61 L 649.50 280.50 L 571.25 280.24 L 493.00 279.99 L 493.00 275.99 L 493.00 272.00 L 864.50 272.00 L 1236.00 272.00 L 1236.00 276.00 L 1236.00 280.00 L 1227.06 280.00 C1222.14,280.00 1217.93,280.34 1217.70,280.75 C1217.47,281.16 1217.55,294.33 1217.89,310.00 L 1218.50 338.50 L 1223.75 338.80 C1228.99,339.10 1229.00,339.11 1229.00,342.48 C1229.00,344.85 1228.47,346.01 1227.25,346.36 C1224.34,347.18 548.75,346.84 545.26,346.02 ZM 1227.00 342.50 C1227.00,341.39 1225.84,341.00 1222.57,341.00 C1214.94,341.00 1214.99,341.19 1215.10,313.68 C1215.15,300.38 1215.49,287.02 1215.85,284.00 L 1216.50 278.50 L 1225.25 278.21 C1233.18,277.95 1234.00,277.74 1234.00,275.96 C1234.00,274.02 1230.89,274.00 864.50,274.00 C495.67,274.00 495.00,274.00 495.00,276.00 C495.00,277.98 495.67,278.00 572.30,278.00 C631.09,278.00 649.89,278.29 650.80,279.20 C651.68,280.08 652.00,288.12 652.00,309.13 C652.00,333.91 651.78,338.07 650.43,339.43 C649.04,340.82 642.52,341.00 594.18,341.04 C546.27,341.07 539.81,341.25 542.00,342.50 C544.15,343.73 591.82,343.93 885.75,343.96 C1188.43,344.00 1227.00,343.83 1227.00,342.50 ZM 520.43 325.23 C519.85,324.83 515.38,320.00 510.51,314.50 C505.64,309.00 499.16,301.91 496.11,298.75 L 490.56 293.00 L 563.78 293.00 L 637.00 293.00 L 637.00 309.50 L 637.00 326.00 L 579.25 325.98 C547.49,325.98 521.02,325.64 520.43,325.23 ZM 635.00 309.50 L 635.00 295.00 L 565.46 295.00 L 495.92 295.00 L 508.14 308.75 C514.87,316.31 520.85,322.83 521.43,323.23 C522.02,323.64 547.81,323.98 578.75,323.98 L 635.00 324.00 L 635.00 309.50 ZM 1342.86 560.09 C1340.99,558.57 1340.50,557.21 1340.50,553.50 C1340.50,547.19 1343.13,545.00 1350.69,545.00 C1355.45,545.00 1356.55,545.39 1359.20,548.05 C1361.83,550.68 1362.17,551.59 1361.65,554.80 C1360.81,560.10 1357.99,562.00 1351.00,562.00 C1346.80,562.00 1344.58,561.48 1342.86,560.09 ZM 1358.44 557.78 C1360.64,554.65 1360.38,552.29 1357.55,549.45 C1355.59,547.50 1354.07,547.00 1350.07,547.00 C1345.82,547.00 1344.79,547.38 1343.41,549.49 C1341.73,552.06 1342.09,556.19 1344.20,558.74 C1344.82,559.49 1347.62,560.00 1351.07,560.00 C1355.95,560.00 1357.14,559.64 1358.44,557.78 ZM 1222.08 535.88 C1229.46,530.87 1238.82,524.12 1242.88,520.88 L 1250.26 515.00 L 1275.26 515.00 L 1300.26 515.00 L 1297.58 518.25 C1293.51,523.20 1289.92,531.41 1288.70,538.56 L 1287.59 545.00 L 1248.12 545.00 L 1208.65 545.00 L 1222.08 535.88 ZM 1286.40 538.89 C1287.33,533.12 1290.46,524.57 1292.92,521.12 C1294.06,519.51 1295.00,517.92 1295.00,517.60 C1295.00,517.27 1285.16,517.00 1273.13,517.00 L 1251.26 517.00 L 1243.88 522.87 C1239.82,526.09 1231.81,531.94 1226.09,535.87 L 1215.67 543.00 L 1250.71 543.00 L 1285.74 543.00 L 1286.40 538.89 ZM 255.00 478.00 C255.00,477.33 415.17,477.00 733.50,477.00 C1051.83,477.00 1212.00,477.33 1212.00,478.00 C1212.00,478.67 1051.83,479.00 733.50,479.00 C415.17,479.00 255.00,478.67 255.00,478.00 ZM 1252.50 478.00 C1252.90,477.35 1275.18,477.00 1316.06,477.00 C1357.35,477.00 1379.00,477.34 1379.00,478.00 C1379.00,478.66 1357.15,479.00 1315.44,479.00 C1273.32,479.00 1252.09,478.66 1252.50,478.00 ZM 394.54 408.25 C396.43,403.82 400.99,389.12 401.51,385.75 L 402.09 382.00 L 434.52 382.00 L 466.95 382.00 L 475.22 389.54 C479.78,393.68 487.19,399.64 491.70,402.79 C496.21,405.93 499.92,408.84 499.95,409.25 C499.98,409.66 476.10,410.00 446.89,410.00 C396.70,410.00 393.83,409.90 394.54,408.25 ZM 491.48 405.34 C486.03,401.69 478.60,395.63 471.82,389.30 L 466.15 384.00 L 435.09 384.00 L 404.04 384.00 L 403.41 386.75 C401.48,395.26 399.85,401.11 398.50,404.35 L 396.97 408.00 L 446.22 408.00 L 495.46 408.00 L 491.48 405.34 ZM 230.12 349.96 C228.96,348.06 228.01,346.16 228.00,345.75 C228.00,345.34 229.80,345.00 232.00,345.00 C236.53,345.00 236.61,345.19 234.07,349.96 L 232.23 353.42 L 230.12 349.96 ZM 233.00 347.56 C233.00,347.32 232.55,346.84 232.00,346.50 C231.45,346.16 231.00,346.36 231.00,346.94 C231.00,347.52 231.45,348.00 232.00,348.00 C232.55,348.00 233.00,347.80 233.00,347.56 ZM 1308.00 449.40 C1308.00,449.06 1315.86,440.71 1325.46,430.84 C1342.88,412.95 1357.65,396.46 1364.10,387.70 L 1367.50 383.08 L 1383.81 383.04 L 1400.12 383.00 L 1399.44 387.75 C1397.20,403.32 1389.79,426.01 1382.21,440.50 L 1377.50 449.50 L 1342.75 449.76 C1323.64,449.91 1308.00,449.75 1308.00,449.40 ZM 1381.32 437.75 C1388.47,423.05 1391.62,413.23 1397.53,387.25 L 1398.04 385.00 L 1383.56 385.00 L 1369.09 385.00 L 1363.31 392.25 C1353.92,404.03 1344.45,414.53 1328.11,431.25 L 1312.72 447.00 L 1344.77 447.00 L 1376.82 447.00 L 1381.32 437.75 ZM 287.59 401.43 C272.82,396.02 264.08,379.42 268.36,364.93 C270.72,356.91 276.32,350.17 283.87,346.26 L 290.17 343.00 L 307.41 343.00 C327.39,343.00 331.35,343.92 338.49,350.20 C345.62,356.47 348.44,362.77 348.47,372.50 C348.51,382.16 346.36,387.27 339.32,394.31 C331.89,401.74 327.21,403.01 307.71,402.93 C296.28,402.88 290.35,402.44 287.59,401.43 ZM 327.32 399.41 C332.99,397.47 341.36,390.17 344.14,384.73 C349.31,374.59 347.06,361.98 338.54,353.43 C331.23,346.09 327.27,345.00 308.00,345.00 C290.17,345.00 285.66,346.03 279.18,351.58 C266.94,362.06 266.29,381.29 277.79,392.79 C284.37,399.37 289.91,400.89 307.57,400.95 C318.84,400.99 323.82,400.60 327.32,399.41 ZM 656.11 339.63 C655.30,338.66 655.05,329.59 655.23,308.38 L 655.50 278.50 L 722.21 278.24 C786.71,277.99 788.96,278.05 789.93,279.87 C790.56,281.05 790.86,292.59 790.72,310.42 C790.53,334.60 790.26,339.23 789.00,340.02 C788.10,340.59 761.53,340.98 722.37,340.98 C668.42,341.00 657.05,340.76 656.11,339.63 ZM 787.77 309.25 L 788.03 280.00 L 722.52 280.00 L 657.00 280.00 L 657.00 308.83 C657.00,324.69 657.30,337.97 657.67,338.34 C658.04,338.71 687.41,338.90 722.92,338.76 L 787.50 338.50 L 787.77 309.25 ZM 794.87 339.35 C793.76,338.01 793.56,332.15 793.83,308.60 C794.01,292.59 794.48,279.16 794.88,278.74 C795.29,278.33 825.74,278.10 862.56,278.24 L 929.50 278.50 L 929.77 308.50 C930.01,335.82 929.88,338.61 928.32,339.75 C927.00,340.72 912.00,341.00 861.43,341.00 C802.01,341.00 796.12,340.85 794.87,339.35 ZM 926.42 338.39 C927.81,337.86 928.00,334.32 928.00,308.89 L 928.00 280.00 L 862.00 280.00 C809.88,280.00 795.99,280.26 795.97,281.25 C795.71,292.27 796.20,337.51 796.59,338.14 C797.18,339.10 923.93,339.35 926.42,338.39 ZM 934.57 339.43 C933.22,338.07 933.00,333.91 933.00,309.13 C933.00,288.12 933.32,280.08 934.20,279.20 C935.11,278.29 951.67,278.00 1002.59,278.00 C1062.94,278.00 1069.85,278.16 1070.39,279.58 C1070.73,280.45 1071.00,293.92 1071.00,309.51 C1071.00,333.95 1070.78,338.07 1069.43,339.43 C1068.03,340.83 1060.54,341.00 1002.00,341.00 C943.46,341.00 935.97,340.83 934.57,339.43 ZM 1067.89 337.63 C1068.70,336.66 1068.95,328.11 1068.77,308.38 L 1068.50 280.50 L 1002.00 280.50 L 935.50 280.50 L 935.23 308.93 C935.03,331.01 935.25,337.54 936.23,338.17 C936.93,338.61 966.58,338.98 1002.13,338.98 C1055.68,339.00 1066.95,338.76 1067.89,337.63 ZM 1075.11 339.63 C1074.30,338.66 1074.05,329.59 1074.23,308.38 L 1074.50 278.50 L 1143.00 278.50 L 1211.50 278.50 L 1211.76 308.93 C1211.97,332.61 1211.75,339.54 1210.76,340.17 C1210.07,340.61 1179.52,340.98 1142.87,340.98 C1087.65,341.00 1076.05,340.77 1075.11,339.63 ZM 1209.77 309.25 L 1210.03 280.00 L 1143.02 280.00 L 1076.00 280.00 L 1076.00 308.83 C1076.00,324.69 1076.30,337.97 1076.67,338.34 C1077.04,338.71 1107.08,338.90 1143.42,338.76 L 1209.50 338.50 L 1209.77 309.25 ZM 516.70 309.76 C512.57,305.22 509.40,301.17 509.65,300.75 C510.26,299.77 628.98,299.77 629.07,300.75 C629.11,301.16 629.20,305.10 629.28,309.50 L 629.43 317.50 L 576.82 317.76 L 524.22 318.02 L 516.70 309.76 ZM 627.00 309.50 L 627.00 303.00 L 570.31 303.00 L 513.63 303.00 L 516.55 306.25 C518.16,308.04 520.81,310.96 522.43,312.75 L 525.39 316.00 L 576.20 316.00 L 627.00 316.00 L 627.00 309.50 ZM 1236.00 536.65 C1236.00,536.46 1239.82,533.31 1244.49,529.65 L 1252.98 523.00 L 1268.49 523.00 C1278.59,523.00 1284.00,523.36 1284.00,524.04 C1284.00,524.62 1283.21,527.77 1282.25,531.04 L 1280.50 537.00 L 1258.25 537.00 C1246.01,537.00 1236.00,536.84 1236.00,536.65 ZM 1279.84 531.75 C1280.36,529.96 1281.11,527.71 1281.50,526.75 C1282.16,525.13 1281.15,525.00 1268.11,525.00 L 1254.00 525.00 L 1248.00 529.66 C1244.70,532.22 1242.00,534.47 1242.00,534.66 C1242.00,534.85 1250.30,535.00 1260.45,535.00 L 1278.91 535.00 L 1279.84 531.75 ZM 406.02 401.25 C406.03,400.84 406.62,398.25 407.33,395.50 L 408.63 390.50 L 436.56 390.26 L 464.50 390.02 L 470.25 395.59 C473.41,398.66 476.00,401.36 476.00,401.58 C476.00,401.81 460.25,402.00 441.00,402.00 C421.75,402.00 406.01,401.66 406.02,401.25 ZM 467.50 396.00 L 463.59 392.00 L 436.80 392.00 C422.06,392.00 410.00,392.39 410.00,392.88 C410.00,393.36 409.72,395.16 409.38,396.88 L 408.75 400.00 L 440.08 400.00 L 471.41 400.00 L 467.50 396.00 ZM 1327.00 441.41 C1327.00,441.09 1333.01,434.54 1340.36,426.85 C1347.71,419.17 1357.72,407.99 1362.61,402.01 L 1371.50 391.15 L 1381.13 391.07 L 1390.76 391.00 L 1389.36 397.75 C1387.33,407.54 1382.36,422.13 1377.43,432.75 L 1373.14 442.00 L 1350.07 442.00 C1337.38,442.00 1327.00,441.74 1327.00,441.41 ZM 1373.71 435.50 C1378.34,427.36 1388.00,399.18 1388.00,393.81 C1388.00,393.36 1384.51,393.02 1380.25,393.05 L 1372.50 393.11 L 1366.50 400.71 C1363.20,404.89 1354.09,415.19 1346.25,423.61 C1338.41,432.02 1332.00,439.16 1332.00,439.47 C1332.00,439.79 1340.87,439.92 1351.72,439.77 L 1371.44 439.50 L 1373.71 435.50 ZM 294.44 395.15 C283.93,393.26 276.06,384.76 275.20,374.37 C274.84,370.01 275.25,368.00 277.45,363.50 C282.52,353.15 289.65,350.00 308.00,350.00 C326.19,350.00 333.95,353.39 338.60,363.38 C344.00,374.99 339.51,387.10 327.51,393.26 C324.21,394.96 321.30,395.37 311.00,395.60 C304.12,395.75 296.67,395.55 294.44,395.15 ZM 328.00 390.41 C333.39,387.47 336.10,384.26 337.96,378.63 C340.85,369.87 336.61,359.86 327.96,355.00 C323.74,352.63 322.68,352.50 308.00,352.50 C292.89,352.50 292.38,352.57 287.82,355.25 C282.21,358.55 279.50,362.11 277.83,368.36 C275.48,377.14 279.91,386.77 288.20,390.87 C292.02,392.76 294.21,393.00 307.86,393.00 C322.51,393.00 323.45,392.88 328.00,390.41 ZM 660.67 334.33 C660.30,333.97 660.00,322.54 660.00,308.94 C660.00,287.32 660.20,284.14 661.58,283.61 C663.65,282.81 781.35,282.81 783.42,283.61 C784.80,284.14 785.00,287.37 785.00,309.61 L 785.00 335.00 L 723.17 335.00 C689.16,335.00 661.03,334.70 660.67,334.33 ZM 781.00 309.00 L 781.00 287.00 L 722.50 287.00 L 664.00 287.00 L 664.00 309.00 L 664.00 331.00 L 722.50 331.00 L 781.00 331.00 L 781.00 309.00 ZM 799.23 309.26 L 799.50 283.50 L 860.89 283.24 C905.85,283.05 922.65,283.29 923.66,284.13 C924.77,285.06 924.98,289.94 924.77,309.89 L 924.50 334.50 L 861.73 334.76 L 798.97 335.02 L 799.23 309.26 ZM 920.77 309.25 L 920.50 287.50 L 861.75 287.24 L 803.00 286.98 L 803.00 308.99 L 803.00 331.00 L 862.02 331.00 L 921.04 331.00 L 920.77 309.25 ZM 939.01 333.75 C939.02,333.06 938.80,321.86 938.52,308.87 C938.11,289.74 938.27,285.02 939.37,284.11 C940.35,283.30 957.95,283.06 1002.61,283.24 L 1064.50 283.50 L 1064.77 309.25 L 1065.03 335.00 L 1002.02 335.00 C952.26,335.00 939.00,334.74 939.01,333.75 ZM 1061.00 308.99 L 1061.00 286.98 L 1001.75 287.24 L 942.50 287.50 L 942.21 307.91 C942.04,319.14 942.14,328.93 942.42,329.66 C942.84,330.76 953.66,331.00 1001.97,331.00 L 1061.00 331.00 L 1061.00 308.99 ZM 1079.00 309.53 L 1079.00 284.04 L 1081.25 283.49 C1082.49,283.19 1111.18,283.07 1145.00,283.22 L 1206.50 283.50 L 1206.50 309.00 L 1206.50 334.50 L 1142.75 334.76 L 1079.00 335.01 L 1079.00 309.53 ZM 1203.00 309.00 L 1203.00 287.00 L 1143.00 287.00 L 1083.00 287.00 L 1083.00 309.00 L 1083.00 331.00 L 1143.00 331.00 L 1203.00 331.00 L 1203.00 309.00 ZM 526.50 309.00 C526.90,308.36 544.01,308.00 574.56,308.00 C605.52,308.00 622.00,308.35 622.00,309.00 C622.00,309.65 605.31,310.00 573.94,310.00 C542.16,310.00 526.09,309.66 526.50,309.00 ZM 1346.00 433.43 C1346.00,433.11 1350.57,427.83 1356.17,421.68 C1361.76,415.53 1368.39,407.92 1370.92,404.76 C1374.50,400.26 1376.10,399.01 1378.27,399.01 C1380.78,399.00 1380.98,399.25 1380.38,401.75 C1378.84,408.19 1373.55,422.93 1370.87,428.25 L 1367.97 434.00 L 1356.99 434.00 C1350.94,434.00 1346.00,433.74 1346.00,433.43 ZM 1370.26 424.25 C1374.04,415.96 1378.55,402.21 1377.74,401.40 C1377.47,401.14 1372.98,405.77 1367.76,411.71 C1362.54,417.64 1356.37,424.64 1354.05,427.25 L 1349.83 432.00 L 1358.28 432.00 L 1366.72 432.00 L 1370.26 424.25 ZM 291.45 386.59 C289.77,385.86 287.20,383.84 285.74,382.10 C280.50,375.87 281.20,368.10 287.57,361.93 L 291.11 358.50 L 307.81 358.50 C326.87,358.50 328.22,358.96 332.11,366.81 C335.63,373.93 333.45,380.69 326.01,385.75 C322.96,387.83 321.62,388.00 308.60,387.96 C299.15,387.93 293.49,387.48 291.45,386.59 ZM 324.65 382.07 C330.86,378.28 331.21,368.67 325.29,364.02 C323.00,362.21 321.26,362.00 308.62,362.00 C292.31,362.01 288.87,363.18 287.18,369.32 C285.80,374.31 286.78,377.60 290.65,381.00 L 294.07 384.00 L 307.78 384.00 C319.54,383.99 321.95,383.72 324.65,382.07 ZM 669.67 325.33 C669.30,324.97 669.00,317.54 669.00,308.83 L 669.00 293.00 L 722.50 293.00 L 776.00 293.00 L 776.00 309.50 L 776.00 326.00 L 723.17 326.00 C694.11,326.00 670.03,325.70 669.67,325.33 ZM 774.00 309.50 L 774.00 295.00 L 722.50 295.00 L 671.00 295.00 L 671.00 309.50 L 671.00 324.00 L 722.50 324.00 L 774.00 324.00 L 774.00 309.50 ZM 808.00 309.50 L 808.00 293.00 L 861.50 293.00 L 915.00 293.00 L 915.00 309.50 L 915.00 326.00 L 861.50 326.00 L 808.00 326.00 L 808.00 309.50 ZM 913.00 309.50 L 913.00 295.00 L 861.50 295.00 L 810.00 295.00 L 810.00 309.50 L 810.00 324.00 L 861.50 324.00 L 913.00 324.00 L 913.00 309.50 ZM 948.00 309.50 L 948.00 293.00 L 1002.00 293.00 L 1056.00 293.00 L 1056.00 309.50 L 1056.00 326.00 L 1002.00 326.00 L 948.00 326.00 L 948.00 309.50 ZM 1054.00 309.50 L 1054.00 295.00 L 1002.00 295.00 L 950.00 295.00 L 950.00 309.50 L 950.00 324.00 L 1002.00 324.00 L 1054.00 324.00 L 1054.00 309.50 ZM 1088.67 325.33 C1088.30,324.97 1088.00,317.54 1088.00,308.83 L 1088.00 293.00 L 1143.00 293.00 L 1198.00 293.00 L 1198.00 309.50 L 1198.00 326.00 L 1143.67 326.00 C1113.78,326.00 1089.03,325.70 1088.67,325.33 ZM 1196.00 309.50 L 1196.00 295.00 L 1143.00 295.00 L 1090.00 295.00 L 1090.00 308.83 C1090.00,316.44 1090.30,322.97 1090.67,323.33 C1091.03,323.70 1114.88,324.00 1143.67,324.00 L 1196.00 324.00 L 1196.00 309.50 ZM 295.03 379.76 C293.67,379.05 291.87,377.24 291.03,375.74 C289.66,373.28 289.66,372.72 291.03,370.26 C293.60,365.66 296.32,364.91 309.34,365.22 C320.92,365.49 321.23,365.56 323.59,368.31 C324.91,369.85 326.00,371.96 326.00,373.00 C326.00,374.04 324.91,376.15 323.59,377.69 C321.23,380.44 320.92,380.51 309.34,380.78 C301.11,380.97 296.75,380.66 295.03,379.76 ZM 322.09 376.14 C324.36,373.33 324.47,372.02 322.61,369.48 C321.44,367.88 319.60,367.51 311.13,367.17 C297.92,366.64 294.19,367.36 292.93,370.69 C291.64,374.07 293.92,377.69 297.73,378.32 C299.25,378.58 304.93,378.72 310.34,378.64 C319.39,378.51 320.33,378.31 322.09,376.14 ZM 677.21 309.25 L 677.50 300.50 L 719.50 300.21 C742.60,300.05 762.96,300.19 764.75,300.51 L 768.00 301.09 L 768.00 309.55 L 768.00 318.00 L 722.46 318.00 L 676.92 318.00 L 677.21 309.25 ZM 766.00 309.50 L 766.00 303.00 L 722.50 303.00 L 679.00 303.00 L 679.00 309.50 L 679.00 316.00 L 722.50 316.00 L 766.00 316.00 L 766.00 309.50 ZM 816.00 308.99 L 816.00 299.98 L 861.75 300.24 L 907.50 300.50 L 907.79 309.25 L 908.08 318.00 L 862.04 318.00 L 816.00 318.00 L 816.00 308.99 ZM 906.00 309.50 L 906.00 303.00 L 862.00 303.00 L 818.00 303.00 L 818.00 309.50 L 818.00 316.00 L 862.00 316.00 L 906.00 316.00 L 906.00 309.50 ZM 955.96 316.25 C955.93,315.29 955.77,311.69 955.59,308.26 C955.38,304.18 955.69,301.67 956.50,301.00 C957.31,300.33 973.15,300.07 1002.61,300.24 L 1047.50 300.50 L 1047.79 309.25 L 1048.08 318.00 L 1002.04 318.00 C958.88,318.00 956.00,317.89 955.96,316.25 ZM 1046.00 309.50 L 1046.00 303.00 L 1002.00 303.00 L 958.00 303.00 L 958.00 309.50 L 958.00 316.00 L 1002.00 316.00 L 1046.00 316.00 L 1046.00 309.50 ZM 1096.21 309.25 L 1096.50 300.50 L 1143.00 300.50 L 1189.50 300.50 L 1189.79 309.25 L 1190.08 318.00 L 1143.00 318.00 L 1095.92 318.00 L 1096.21 309.25 ZM 1188.00 309.50 L 1188.00 303.00 L 1143.00 303.00 L 1098.00 303.00 L 1098.00 309.50 L 1098.00 316.00 L 1143.00 316.00 L 1188.00 316.00 L 1188.00 309.50 ZM 684.50 309.00 C684.89,308.36 698.66,308.00 722.50,308.00 C746.34,308.00 760.11,308.36 760.50,309.00 C760.91,309.66 747.99,310.00 722.50,310.00 C697.01,310.00 684.09,309.66 684.50,309.00 ZM 823.50 309.00 C823.89,308.36 837.84,308.00 862.06,308.00 C886.69,308.00 900.00,308.35 900.00,309.00 C900.00,309.65 886.48,310.00 861.44,310.00 C835.99,310.00 823.09,309.66 823.50,309.00 ZM 963.00 309.00 C963.00,308.35 976.48,308.00 1001.44,308.00 C1025.99,308.00 1040.11,308.36 1040.50,309.00 C1040.91,309.66 1027.84,310.00 1002.06,310.00 C976.69,310.00 963.00,309.65 963.00,309.00 ZM 1103.50 309.00 C1103.89,308.36 1118.16,308.00 1143.00,308.00 C1167.84,308.00 1182.11,308.36 1182.50,309.00 C1182.91,309.66 1169.49,310.00 1143.00,310.00 C1116.51,310.00 1103.09,309.66 1103.50,309.00 Z" fill="rgba(0,0,0,1)"/>
</g>
</svg>