<svg xmlns="http://www.w3.org/2000/svg" width="1531" height="685" viewBox="0 0 1531 685">
<g>
<path d="M 382.00 636.92 C376.00,635.76 364.51,629.86 358.42,624.82 C350.78,618.49 344.18,614.32 321.00,601.15 C282.30,579.17 266.04,565.39 254.70,544.98 C244.57,526.73 239.27,501.80 238.27,467.75 L 237.72 449.00 L 247.86 449.00 L 258.00 449.00 L 258.00 429.07 L 258.00 409.15 L 260.63 407.07 C263.10,405.13 264.55,405.00 283.13,405.00 L 302.98 405.00 L 303.24 354.75 L 303.50 304.50 L 351.75 304.24 L 400.00 303.98 L 400.00 263.49 L 400.00 223.00 L 444.48 223.00 L 488.96 223.00 L 489.23 203.25 L 489.50 183.50 L 504.25 183.22 L 519.00 182.95 L 519.00 142.93 L 519.00 102.91 L 525.75 103.20 L 532.50 103.50 L 532.76 143.25 L 533.02 183.00 L 538.55 183.00 C545.68,183.00 551.16,185.77 554.75,191.19 C557.36,195.14 557.52,196.03 557.83,209.17 L 558.15 223.00 L 623.58 223.00 L 689.00 223.00 L 689.00 295.50 L 689.00 368.00 L 809.15 368.00 L 929.31 368.00 L 928.73 339.41 C928.41,323.69 927.89,310.56 927.58,310.24 C926.95,309.62 889.07,308.17 805.00,305.54 C775.58,304.62 749.56,303.64 747.19,303.36 C742.21,302.78 742.23,303.56 746.66,288.00 C749.58,277.72 751.21,275.30 757.54,271.83 C760.22,270.36 762.92,268.47 763.53,267.62 C764.62,266.14 784.84,257.87 811.91,247.84 C819.29,245.11 829.19,241.36 833.91,239.52 C842.38,236.20 868.77,226.34 903.00,213.69 C937.47,200.96 936.75,201.29 937.99,197.54 C938.60,195.69 939.79,193.91 940.63,193.59 C941.47,193.26 948.88,193.00 957.08,193.00 L 972.00 193.00 L 972.00 204.07 C972.00,211.99 972.38,215.52 973.34,216.48 C974.41,217.55 974.93,232.49 975.91,291.16 C976.59,331.50 977.23,365.17 977.34,366.00 C977.49,367.22 979.78,367.55 989.76,367.78 L 1002.00 368.06 L 1002.00 421.53 L 1002.00 475.00 L 1006.75 475.07 C1040.64,475.53 1117.69,474.68 1118.71,473.82 C1119.70,473.00 1120.04,461.28 1120.24,420.63 L 1120.50 368.50 L 1161.73 368.24 L 1202.95 367.98 L 1203.23 385.24 L 1203.50 402.50 L 1217.92 402.50 L 1232.33 402.50 L 1232.79 355.72 L 1233.25 308.93 L 1152.88 309.57 C1108.67,309.92 1072.35,310.35 1072.16,310.53 C1071.92,310.75 1069.20,328.25 1069.02,330.77 C1069.01,330.92 1058.09,330.92 1044.75,330.77 L 1020.50 330.50 L 1019.92 319.50 C1019.56,312.54 1019.82,305.66 1020.62,300.77 C1021.32,296.53 1022.38,289.33 1022.97,284.77 C1024.81,270.56 1023.17,272.00 1037.45,272.00 L 1049.86 272.00 L 1123.68 235.38 C1164.28,215.23 1207.03,194.12 1218.67,188.47 L 1239.83 178.18 L 1240.41 172.84 C1240.73,169.90 1241.11,166.15 1241.25,164.50 L 1241.50 161.50 L 1257.97 161.31 C1268.42,161.19 1274.90,161.50 1275.72,162.18 C1276.62,162.93 1277.00,166.57 1277.00,174.54 C1277.00,181.80 1277.39,185.96 1278.09,186.20 C1279.26,186.59 1282.30,279.96 1283.73,359.50 L 1284.50 402.50 L 1403.00 402.72 C1468.18,402.85 1521.89,402.96 1522.38,402.97 C1523.88,403.02 1522.24,408.58 1516.37,423.29 C1501.43,460.75 1483.61,492.67 1444.22,552.50 C1418.23,591.97 1403.37,613.44 1397.82,619.51 C1392.12,625.75 1382.66,632.11 1374.46,635.23 L 1368.50 637.50 L 877.50 637.64 C602.96,637.72 384.52,637.40 382.00,636.92 ZM 1378.00 630.39 C1387.50,625.79 1393.96,620.52 1400.35,612.15 C1404.54,606.66 1433.24,564.28 1437.86,556.75 L 1440.16 553.00 L 1437.23 553.00 C1434.65,553.00 1433.60,554.05 1428.52,561.75 C1410.63,588.84 1394.25,611.48 1389.10,616.24 C1382.37,622.47 1372.65,627.62 1364.99,629.01 C1361.35,629.67 1194.43,629.93 871.49,629.76 C398.84,629.51 383.35,629.44 378.71,627.64 C376.08,626.62 368.50,621.79 361.86,616.89 C350.34,608.41 349.55,608.00 344.64,608.01 L 339.50 608.02 L 345.50 611.89 C348.80,614.02 355.10,618.52 359.50,621.90 C368.65,628.93 375.64,632.65 382.05,633.91 C384.56,634.41 600.20,634.72 878.00,634.64 L 1369.50 634.50 L 1378.00 630.39 ZM 1364.57 626.91 C1380.76,623.95 1389.95,615.16 1414.16,579.50 L 1431.82 553.50 L 1383.23 553.24 L 1334.63 552.98 L 1324.57 562.84 C1301.52,585.43 1279.33,597.21 1245.66,604.74 L 1233.50 607.46 L 807.50 607.98 L 381.50 608.50 L 387.00 610.50 C392.47,612.49 395.00,612.50 812.50,612.50 L 1232.50 612.50 L 1244.50 610.20 C1277.52,603.88 1303.08,590.62 1327.03,567.37 L 1336.69 558.00 L 1378.29 558.00 C1401.16,558.00 1420.12,558.39 1420.42,558.87 C1420.71,559.35 1415.00,568.45 1407.73,579.10 C1392.46,601.44 1382.03,613.08 1372.74,618.12 L 1366.50 621.50 L 877.02 621.75 C441.76,621.98 386.96,621.84 382.32,620.49 C379.22,619.59 374.13,616.74 369.80,613.49 C363.51,608.75 361.90,608.00 358.05,608.00 C355.58,608.00 354.02,608.37 354.55,608.83 C358.23,612.07 372.14,622.10 375.00,623.58 C376.92,624.58 380.98,625.94 384.00,626.61 C391.50,628.28 1355.52,628.57 1364.57,626.91 ZM 1366.57 618.40 C1372.82,616.47 1381.32,610.23 1387.86,602.76 C1393.62,596.17 1417.00,562.71 1417.00,561.05 C1417.00,560.22 1406.33,559.99 1377.19,560.21 L 1337.38 560.50 L 1326.44 570.69 C1320.42,576.30 1313.47,582.43 1310.98,584.31 C1297.13,594.81 1276.04,604.88 1259.09,609.09 C1233.32,615.49 1264.29,615.10 806.50,614.79 C361.20,614.48 387.95,614.79 380.85,609.85 C378.98,608.55 376.46,608.01 372.35,608.04 L 366.50 608.08 L 370.00 611.08 C371.92,612.73 375.98,615.30 379.00,616.79 L 384.50 619.50 L 813.00 619.50 L 1241.50 619.50 L 1252.41 617.16 C1266.67,614.11 1278.01,610.06 1291.34,603.26 C1305.08,596.26 1315.48,588.55 1328.89,575.41 L 1339.50 565.01 L 1373.25 565.01 C1399.60,565.00 1407.00,565.27 1406.98,566.25 C1406.95,568.82 1388.24,593.81 1380.40,601.75 C1367.41,614.91 1369.35,614.44 1326.25,614.80 C1303.65,614.98 1290.00,614.73 1290.00,614.14 C1290.00,613.61 1293.26,611.38 1297.25,609.18 C1308.98,602.71 1318.02,595.83 1330.26,584.06 L 1341.76 573.00 L 1367.93 573.00 L 1394.09 573.00 L 1387.89 581.15 C1378.26,593.79 1369.44,602.64 1363.60,605.49 C1358.45,608.02 1358.19,608.04 1336.53,607.77 L 1314.66 607.50 L 1321.58 601.85 C1325.39,598.73 1332.23,592.55 1336.79,588.10 L 1345.09 580.00 L 1361.54 580.00 C1371.64,580.00 1378.00,580.38 1378.00,580.98 C1378.00,582.88 1364.56,596.18 1360.55,598.26 C1357.67,599.75 1354.02,600.48 1347.87,600.80 C1335.48,601.42 1334.76,600.66 1341.48,594.02 C1344.49,591.05 1347.30,588.96 1347.72,589.39 C1348.14,589.81 1346.58,591.94 1344.24,594.11 C1341.91,596.29 1340.00,598.17 1340.00,598.29 C1340.00,598.40 1344.20,598.28 1349.34,598.00 C1360.09,597.42 1363.29,595.79 1370.81,587.02 L 1375.11 582.00 L 1360.31 582.05 L 1345.50 582.10 L 1333.10 594.05 L 1320.71 606.00 L 1338.49 606.00 C1349.50,606.00 1357.80,605.54 1360.30,604.79 C1365.30,603.29 1373.99,595.39 1383.17,584.00 L 1390.02 575.50 L 1366.42 575.23 L 1342.82 574.96 L 1332.29 585.02 C1320.01,596.74 1313.34,601.99 1303.01,608.08 L 1295.52 612.50 L 1303.01 612.80 C1307.13,612.97 1321.97,612.97 1336.00,612.80 C1361.47,612.50 1361.51,612.50 1367.06,609.77 C1374.30,606.21 1384.13,595.97 1395.30,580.33 C1400.09,573.64 1404.00,567.87 1404.00,567.52 C1404.00,567.16 1389.44,567.19 1371.65,567.58 L 1339.30 568.30 L 1328.80 578.40 C1323.03,583.95 1314.66,591.12 1310.20,594.31 C1294.75,605.40 1274.04,614.71 1257.25,618.13 C1253.81,618.83 1251.00,619.65 1251.00,619.95 C1251.00,620.25 1275.86,620.38 1306.25,620.23 C1352.98,620.00 1362.28,619.72 1366.57,618.40 ZM 340.38 603.04 C338.80,602.10 331.20,597.79 323.50,593.48 C301.32,581.06 290.39,573.45 279.33,562.72 C270.84,554.48 268.72,552.90 266.46,553.18 L 263.76 553.50 L 268.32 559.03 C272.94,564.63 288.23,577.78 296.92,583.63 C299.53,585.39 309.08,591.04 318.16,596.20 C333.21,604.76 335.04,605.55 338.96,605.18 L 343.26 604.77 L 340.38 603.04 ZM 372.92 604.65 C370.91,602.96 347.03,589.02 337.50,583.98 C321.45,575.49 301.07,562.98 294.31,557.47 C290.33,554.23 287.95,553.01 285.66,553.04 L 282.50 553.07 L 288.05 558.30 C296.68,566.45 304.84,571.84 331.64,587.10 C345.31,594.89 357.66,602.08 359.07,603.07 C361.82,605.00 375.14,606.52 372.92,604.65 ZM 352.99 601.67 C349.96,599.85 339.61,593.93 329.99,588.53 C307.46,575.87 294.21,567.07 285.83,559.18 C280.02,553.72 278.67,552.91 275.86,553.18 L 272.60 553.50 L 276.05 557.43 C284.84,567.45 301.11,578.68 332.50,596.40 C346.13,604.09 348.00,604.87 353.00,604.93 L 358.50 604.99 L 352.99 601.67 ZM 1230.03 603.95 C1268.04,599.24 1296.06,586.34 1321.41,561.85 L 1330.50 553.07 L 1327.20 553.04 C1324.45,553.01 1322.31,554.42 1314.33,561.52 C1288.44,584.57 1259.95,596.27 1223.00,599.01 C1206.31,600.25 392.43,600.30 384.87,599.07 C380.58,598.36 375.59,596.03 363.87,589.23 C355.42,584.33 341.30,576.37 332.50,571.54 C323.70,566.72 313.17,560.57 309.10,557.88 C303.37,554.10 300.81,553.00 297.73,553.00 C294.47,553.00 293.96,553.25 294.89,554.37 C297.40,557.39 316.71,569.41 338.50,581.51 C351.15,588.54 365.30,596.70 369.95,599.64 L 378.39 605.00 L 799.97 605.00 C1088.10,605.00 1224.23,604.67 1230.03,603.95 ZM 1233.50 596.05 C1250.13,593.59 1269.44,587.79 1282.06,581.46 C1291.68,576.63 1305.51,567.01 1313.50,559.59 L 1320.50 553.09 L 1316.95 553.05 C1314.00,553.01 1311.83,554.25 1304.29,560.27 C1285.22,575.49 1264.44,584.68 1237.50,589.79 C1229.10,591.39 1200.28,591.50 806.00,591.50 L 383.50 591.50 L 369.50 583.38 C361.80,578.92 348.08,571.22 339.00,566.28 C329.92,561.34 320.92,556.33 319.00,555.15 C316.66,553.72 313.85,553.01 310.51,553.00 L 305.53 553.00 L 310.68 556.47 C313.52,558.38 323.18,564.06 332.17,569.08 C341.15,574.11 355.70,582.32 364.50,587.33 C374.15,592.82 382.08,596.66 384.50,597.02 C386.70,597.34 576.83,597.52 807.00,597.41 C1122.76,597.27 1227.46,596.94 1233.50,596.05 ZM 1226.79 588.97 C1239.14,587.66 1258.49,582.91 1269.37,578.53 C1279.54,574.42 1294.64,565.53 1303.22,558.58 L 1309.50 553.50 L 1305.99 553.20 C1303.06,552.96 1300.80,554.03 1292.49,559.61 C1276.72,570.20 1261.93,576.42 1241.12,581.24 L 1231.50 583.46 L 808.99 583.74 L 386.48 584.02 L 378.49 579.39 C374.10,576.85 361.42,569.84 350.32,563.83 C331.54,553.65 329.79,552.91 325.32,553.19 L 320.50 553.50 L 331.00 559.41 C348.76,569.40 381.39,587.69 383.50,588.85 C386.24,590.34 1212.75,590.46 1226.79,588.97 ZM 1238.86 579.66 C1261.40,574.18 1272.53,569.69 1289.00,559.42 L 1298.50 553.50 L 1293.97 553.20 C1290.11,552.95 1288.21,553.61 1280.97,557.74 C1269.75,564.14 1262.37,567.33 1251.51,570.47 C1231.02,576.40 1263.22,576.00 807.12,575.98 L 388.50 575.95 L 382.50 572.66 C348.55,554.03 346.10,552.89 340.85,553.20 L 335.80 553.50 L 349.15 560.76 C356.49,564.76 368.12,571.18 375.00,575.02 L 387.50 582.02 L 809.50 581.73 C1210.91,581.46 1231.86,581.36 1238.86,579.66 ZM 1241.00 571.22 C1255.61,567.33 1262.13,564.93 1274.00,559.13 L 1285.50 553.50 L 1280.21 553.20 C1275.96,552.95 1273.62,553.51 1268.31,556.01 C1259.71,560.08 1246.46,564.46 1236.79,566.43 C1229.86,567.84 1187.01,568.00 809.29,567.99 L 389.50 567.99 L 377.04 560.45 L 364.57 552.92 L 358.04 553.21 L 351.50 553.50 L 358.50 557.16 C362.35,559.17 370.67,563.78 377.00,567.39 L 388.50 573.95 L 810.50 573.72 L 1232.50 573.48 L 1241.00 571.22 ZM 1235.20 564.52 C1243.37,563.10 1261.86,557.24 1267.00,554.44 C1269.36,553.16 1269.18,553.08 1263.84,553.04 C1260.15,553.01 1254.95,554.06 1248.90,556.03 C1243.79,557.70 1235.76,559.47 1231.06,559.97 C1226.14,560.48 1046.47,560.88 809.00,560.91 C581.58,560.93 392.35,560.98 388.50,561.01 L 381.50 561.06 L 385.50 563.53 L 389.50 565.99 L 808.12 565.99 C1172.78,566.00 1227.83,565.81 1235.20,564.52 ZM 1241.49 556.07 C1245.89,554.85 1249.68,553.65 1249.91,553.42 C1250.14,553.19 1051.92,553.02 809.42,553.04 L 368.50 553.09 L 372.50 555.24 C374.70,556.42 378.52,557.64 381.00,557.95 C383.48,558.26 576.30,558.46 809.50,558.41 L 1233.50 558.30 L 1241.49 556.07 ZM 262.38 542.25 C257.56,533.82 253.11,521.07 250.60,508.50 C248.26,496.76 246.00,475.79 246.00,465.76 L 246.00 457.00 L 359.25 457.01 C465.29,457.01 472.67,457.12 475.16,458.76 C476.62,459.71 483.06,465.33 489.46,471.24 C495.86,477.15 502.32,482.33 503.80,482.74 C505.29,483.16 644.46,483.50 813.08,483.50 L 1119.66 483.50 L 1123.08 480.83 C1124.96,479.36 1133.93,471.07 1143.00,462.41 C1152.07,453.75 1167.96,438.64 1178.29,428.83 L 1197.08 411.00 L 1354.15 411.00 L 1511.22 411.00 L 1510.55 413.75 C1508.98,420.18 1500.13,440.74 1491.94,457.00 C1478.71,483.23 1467.89,501.68 1446.32,534.81 C1441.19,542.68 1437.00,549.34 1437.00,549.62 C1437.00,549.90 1438.23,549.99 1439.74,549.82 C1442.93,549.45 1446.25,544.93 1462.40,519.00 C1487.27,479.09 1499.49,456.42 1511.21,428.50 C1513.94,422.00 1520.00,406.01 1520.00,405.31 C1520.00,404.72 1200.23,405.00 1197.27,405.60 C1195.11,406.03 1184.64,415.32 1159.82,438.85 C1140.86,456.81 1123.68,472.96 1121.64,474.75 L 1117.93 478.00 L 811.48 478.00 L 505.03 478.00 L 490.77 465.02 L 476.50 452.05 L 358.25 452.02 L 240.00 452.00 L 240.01 455.75 C240.04,462.81 241.99,488.50 243.10,496.50 C245.77,515.73 251.50,534.27 258.04,544.91 C260.61,549.08 261.68,550.00 263.99,550.00 L 266.81 550.00 L 262.38 542.25 ZM 276.00 549.50 C276.00,549.23 274.42,546.81 272.49,544.12 C262.87,530.73 256.39,506.09 254.37,475.25 L 253.70 465.00 L 361.70 465.00 L 469.70 465.00 L 473.30 467.75 C475.27,469.26 481.01,474.25 486.04,478.84 C491.07,483.43 497.05,488.03 499.34,489.07 C503.39,490.91 511.76,490.96 811.93,490.98 C1118.58,491.00 1120.39,490.99 1124.43,489.00 C1128.36,487.06 1136.50,479.61 1179.88,438.25 L 1200.07 419.00 L 1350.02 419.00 L 1499.97 419.00 L 1497.85 424.75 C1488.04,451.34 1472.65,480.14 1444.68,524.25 L 1431.51 545.00 L 1390.17 545.00 C1363.95,545.00 1348.96,544.65 1349.17,544.03 C1349.95,541.76 1431.13,440.90 1437.51,434.28 L 1444.52 427.00 L 1466.26 427.00 C1478.22,427.00 1488.00,427.22 1488.00,427.48 C1488.00,427.74 1486.17,432.58 1483.93,438.23 C1476.43,457.15 1459.22,488.15 1435.61,525.25 L 1427.50 538.00 L 1396.25 538.00 C1379.06,538.00 1365.00,537.75 1365.00,537.44 C1365.00,536.52 1408.24,480.85 1423.59,462.00 C1431.43,452.38 1440.15,442.25 1442.96,439.50 L 1448.07 434.50 L 1462.54 434.18 C1470.49,434.00 1477.00,434.14 1477.00,434.48 C1477.00,436.34 1469.00,454.11 1463.28,464.98 C1456.74,477.39 1434.13,515.37 1426.89,526.11 L 1423.11 531.73 L 1401.43 531.92 C1382.00,532.09 1379.81,531.95 1380.35,530.53 C1382.26,525.56 1433.94,458.13 1443.87,447.67 C1449.01,442.24 1451.92,441.00 1459.52,441.00 C1467.09,441.00 1466.90,440.30 1462.29,451.50 C1457.91,462.11 1442.20,489.92 1428.24,511.75 L 1419.77 525.00 L 1406.38 525.00 C1399.02,525.00 1393.00,524.75 1393.00,524.44 C1393.00,521.81 1440.88,458.62 1447.70,452.25 C1450.03,450.08 1455.00,449.12 1455.00,450.84 C1455.00,453.58 1429.08,499.56 1419.82,513.25 L 1415.93 519.00 L 1410.46 519.00 C1407.46,519.00 1405.00,518.72 1405.00,518.38 C1405.00,516.37 1433.65,478.00 1435.15,478.00 C1436.44,478.00 1436.02,478.64 1426.01,492.00 C1415.65,505.83 1409.00,515.33 1409.00,516.29 C1409.00,516.68 1410.34,517.00 1411.97,517.00 C1415.25,517.00 1415.84,516.21 1429.02,494.44 C1436.02,482.88 1452.00,453.87 1452.00,452.72 C1452.00,448.82 1431.76,473.52 1405.41,509.60 C1400.95,515.71 1396.98,521.22 1396.59,521.85 C1396.07,522.69 1398.95,523.00 1407.27,523.00 L 1418.66 523.00 L 1427.69 508.75 C1444.47,482.27 1463.00,448.32 1463.00,444.08 C1463.00,443.44 1460.82,443.00 1457.72,443.00 C1450.56,443.00 1448.23,444.83 1435.45,460.50 C1416.79,483.40 1384.00,527.12 1384.00,529.11 C1384.00,529.56 1392.55,529.91 1403.01,529.88 L 1422.02 529.83 L 1424.86 525.67 C1430.31,517.66 1452.75,480.41 1458.81,469.29 C1464.17,459.45 1474.00,438.30 1474.00,436.61 C1474.00,436.27 1468.66,436.00 1462.13,436.00 C1451.50,436.00 1449.99,436.22 1447.53,438.16 C1440.67,443.55 1426.37,460.77 1397.00,499.00 C1385.81,513.58 1374.93,527.59 1372.82,530.14 C1370.72,532.69 1369.00,535.05 1369.00,535.39 C1369.00,535.72 1381.94,536.00 1397.75,536.00 L 1426.50 536.00 L 1431.45 528.25 C1458.43,486.05 1479.75,447.03 1484.46,431.25 L 1485.13 429.00 L 1465.16 429.00 L 1445.19 429.00 L 1438.46 436.25 C1434.76,440.24 1415.74,463.52 1396.19,488.00 C1355.19,539.35 1354.60,540.09 1353.62,541.75 C1353.03,542.74 1360.91,543.00 1391.69,542.99 L 1430.50 542.98 L 1440.49 527.24 C1470.14,480.53 1482.72,457.20 1494.90,426.25 L 1496.97 421.00 L 1349.04 421.00 L 1201.11 421.00 L 1166.81 453.58 C1147.94,471.50 1130.47,487.59 1128.00,489.33 L 1123.50 492.50 L 813.02 492.75 L 502.54 493.01 L 497.52 490.50 C494.76,489.11 487.37,483.26 481.09,477.49 L 469.68 467.00 L 362.74 467.00 L 255.79 467.00 L 256.44 475.25 C258.52,501.56 262.85,521.28 269.47,534.50 C275.60,546.75 278.64,550.25 282.77,549.83 L 285.97 549.50 L 282.34 545.00 C277.41,538.88 270.57,524.21 268.13,514.50 C266.23,506.95 263.83,491.56 262.55,478.75 L 261.98 473.00 L 363.43 473.00 C421.79,473.00 465.85,473.39 467.18,473.91 C468.46,474.41 473.55,478.59 478.50,483.20 C489.18,493.16 492.44,495.54 498.18,497.57 C502.02,498.92 537.03,499.09 811.75,499.03 L 1121.01 498.97 L 1126.62 496.87 C1130.60,495.38 1134.46,492.69 1139.87,487.64 C1150.52,477.70 1184.76,445.25 1195.12,435.29 L 1203.74 427.00 L 1318.87 427.00 C1393.91,427.00 1434.00,427.34 1434.00,427.99 C1434.00,428.53 1431.62,431.79 1428.72,435.24 C1423.92,440.93 1397.76,473.60 1355.66,526.50 C1346.90,537.50 1339.05,547.29 1338.21,548.25 C1336.77,549.91 1339.10,550.00 1385.59,549.99 L 1434.50 549.98 L 1450.17 525.24 C1479.18,479.45 1493.04,453.56 1505.02,422.83 L 1508.85 413.00 L 1353.43 413.00 L 1198.00 413.00 L 1170.38 439.25 C1124.27,483.06 1123.47,483.78 1119.32,484.93 C1114.13,486.37 509.07,486.42 503.88,484.98 C501.41,484.30 496.30,480.31 487.88,472.51 C479.87,465.10 474.26,460.69 472.00,460.03 C469.72,459.37 429.97,459.01 358.10,459.01 L 247.70 459.00 L 248.37 471.63 C250.17,505.21 257.34,533.16 267.64,546.75 C269.44,549.12 270.90,550.00 273.05,550.00 C274.67,550.00 276.00,549.78 276.00,549.50 ZM 292.81 544.25 C285.21,536.48 281.49,530.23 278.01,519.37 C275.77,512.37 271.04,486.99 271.01,481.75 C271.00,481.34 314.43,481.00 367.51,481.00 L 464.01 481.00 L 474.13 490.07 C486.40,501.06 489.87,503.39 497.03,505.43 C502.02,506.86 532.86,506.99 814.03,506.76 L 1125.50 506.50 L 1131.42 503.51 C1137.54,500.41 1145.10,493.69 1185.81,455.17 L 1207.13 435.00 L 1313.12 435.00 C1383.53,435.00 1418.91,435.34 1418.50,436.00 C1418.09,436.66 1381.83,437.00 1312.98,437.00 L 1208.07 437.00 L 1175.42 467.75 C1157.47,484.66 1140.73,499.96 1138.23,501.74 C1135.73,503.52 1131.26,505.88 1128.29,506.99 C1122.91,509.01 1121.73,509.01 810.17,508.76 L 497.46 508.50 L 490.93 505.28 C486.70,503.21 480.71,498.70 473.98,492.53 L 463.58 483.00 L 368.35 483.00 L 273.13 483.00 L 273.62 486.75 C277.78,517.96 282.87,531.76 294.56,543.45 C300.79,549.68 301.34,550.00 305.81,549.97 L 310.50 549.93 L 306.50 546.77 C290.86,534.43 284.33,521.08 280.54,493.75 L 279.88 489.00 L 370.69 489.03 L 461.50 489.05 L 470.41 497.15 C481.38,507.12 486.63,510.52 495.00,513.06 C501.42,515.00 505.45,515.02 814.05,514.76 L 1126.60 514.50 L 1134.18 510.76 C1142.31,506.74 1151.64,498.59 1190.76,461.34 L 1210.02 443.00 L 1266.14 443.00 L 1322.25 443.00 L 1318.04 447.57 C1304.60,462.15 1305.38,486.76 1319.52,494.69 C1325.47,498.03 1334.76,499.23 1351.66,498.85 C1361.57,498.62 1366.61,498.85 1366.24,499.50 C1365.05,501.56 1336.42,537.75 1331.23,543.75 L 1325.83 550.00 L 1329.67 549.93 C1332.72,549.87 1334.03,549.21 1336.09,546.68 C1337.51,544.93 1354.13,524.15 1373.02,500.50 C1391.92,476.85 1412.70,451.09 1419.20,443.25 L 1431.03 429.00 L 1317.77 429.03 L 1204.50 429.07 L 1171.50 460.56 C1153.35,477.89 1136.57,493.43 1134.21,495.10 C1125.21,501.50 1151.41,501.04 810.00,500.76 L 498.50 500.50 L 493.35 497.79 C490.52,496.29 484.45,491.55 479.85,487.24 C475.26,482.93 470.20,478.42 468.62,477.20 L 465.73 475.00 L 365.37 475.00 L 265.00 475.00 L 265.00 479.25 C265.01,493.62 270.84,520.21 276.45,531.50 C278.36,535.35 281.97,541.09 284.48,544.25 C288.86,549.79 289.20,550.00 293.73,550.00 L 298.44 550.00 L 292.81 544.25 ZM 319.20 546.25 C310.22,540.79 304.54,535.69 300.03,529.04 C295.67,522.62 291.52,511.46 290.43,503.25 L 289.74 498.00 L 374.19 498.00 L 458.64 498.00 L 466.82 505.40 C476.51,514.16 482.71,518.29 490.65,521.29 L 496.50 523.50 L 758.00 524.00 C901.83,524.28 1043.80,524.28 1073.50,524.00 L 1127.50 523.50 L 1134.92 520.02 C1144.98,515.31 1149.35,511.74 1176.81,485.80 C1189.84,473.50 1203.53,460.63 1207.22,457.21 L 1213.95 451.00 L 1259.80 451.00 L 1305.65 451.00 L 1303.35 457.75 C1300.82,465.17 1300.20,477.59 1302.03,484.18 C1303.75,490.36 1309.06,497.23 1314.77,500.63 C1321.43,504.61 1332.65,506.43 1344.25,505.42 L 1352.38 504.71 L 1350.44 507.67 C1347.73,511.81 1332.92,530.63 1324.28,540.91 L 1317.05 549.50 L 1320.14 549.82 C1322.61,550.08 1323.82,549.48 1326.12,546.82 C1329.95,542.42 1356.12,509.60 1359.88,504.47 L 1362.84 500.45 L 1349.49 500.84 C1324.27,501.57 1314.40,497.94 1309.11,485.99 C1303.94,474.27 1306.08,459.70 1314.67,448.25 L 1317.10 445.00 L 1264.06 445.00 L 1211.01 445.00 L 1185.25 469.25 C1146.50,505.72 1144.30,507.68 1138.69,510.87 C1126.96,517.52 1154.87,517.00 811.29,517.00 L 499.94 517.00 L 493.83 514.94 C485.90,512.27 479.46,508.05 469.00,498.65 L 460.50 491.01 L 371.75 491.01 L 283.00 491.00 L 283.00 494.04 C283.00,498.17 285.73,511.17 288.13,518.50 C291.10,527.53 298.26,537.39 306.78,544.16 C313.77,549.71 314.41,550.00 319.75,550.00 L 325.36 550.00 L 319.20 546.25 ZM 333.50 546.21 C318.69,538.31 309.91,530.69 305.41,521.84 C302.48,516.07 299.87,507.47 300.77,506.56 C301.08,506.25 335.91,506.00 378.18,506.00 L 455.02 506.00 L 460.76 511.25 C472.57,522.06 482.95,528.24 495.02,531.66 C501.25,533.43 513.64,533.50 811.50,533.50 L 1121.50 533.50 L 1128.97 531.15 C1146.16,525.76 1149.21,523.41 1193.42,481.64 C1205.57,470.17 1216.40,460.45 1217.50,460.04 C1218.60,459.63 1236.22,459.20 1256.66,459.09 L 1293.82 458.88 L 1293.27 468.79 C1292.42,484.17 1295.17,492.99 1303.61,502.01 C1309.11,507.90 1316.94,511.52 1327.83,513.22 L 1336.05 514.50 L 1327.93 525.00 C1323.46,530.78 1316.59,538.76 1312.67,542.75 L 1305.55 550.00 L 1309.67 550.00 C1313.51,550.00 1314.20,549.53 1319.73,543.25 C1324.96,537.30 1348.00,508.35 1348.00,507.74 C1348.00,507.61 1343.16,507.49 1337.25,507.47 C1324.71,507.43 1317.23,505.55 1311.51,501.00 C1306.61,497.11 1302.41,491.38 1300.41,485.86 C1298.35,480.16 1298.35,466.10 1300.41,459.50 C1301.27,456.75 1301.98,454.16 1301.99,453.75 C1302.00,453.34 1282.43,453.00 1258.50,453.00 L 1215.01 453.00 L 1210.77 456.75 C1208.45,458.81 1194.74,471.61 1180.31,485.19 C1145.61,517.87 1142.18,520.49 1129.00,524.42 C1123.95,525.92 1097.79,526.06 812.26,526.06 C529.58,526.06 500.46,525.91 494.82,524.45 C484.26,521.72 476.24,516.88 464.73,506.32 L 457.84 500.00 L 374.81 500.00 L 291.78 500.00 L 292.48 503.73 C296.21,523.61 304.68,535.51 322.50,545.93 C328.40,549.38 330.31,550.00 334.98,549.97 L 340.50 549.95 L 333.50 546.21 ZM 1266.06 547.88 C1268.78,546.71 1271.00,545.36 1271.00,544.88 C1271.00,544.38 1070.52,544.00 803.00,544.00 C545.60,544.00 335.00,544.22 335.00,544.48 C335.00,544.75 337.14,546.07 339.75,547.43 L 344.50 549.91 L 802.81 549.95 L 1261.13 550.00 L 1266.06 547.88 ZM 1282.88 545.25 C1290.82,539.89 1302.58,530.14 1303.40,528.25 C1303.83,527.26 1289.08,527.00 1231.53,527.00 C1191.70,527.00 1158.89,526.62 1158.60,526.17 C1158.08,525.32 1212.56,473.39 1218.32,469.25 C1221.40,467.03 1221.86,467.00 1253.22,467.00 L 1285.00 467.00 L 1285.01 473.75 C1285.06,496.24 1296.88,513.10 1316.75,519.05 C1319.09,519.74 1321.00,520.55 1321.00,520.84 C1321.00,521.13 1318.52,524.60 1315.50,528.55 C1310.07,535.64 1303.84,541.93 1297.00,547.26 L 1293.50 549.98 L 1298.03 549.99 C1302.23,550.00 1303.04,549.54 1309.10,543.75 C1316.40,536.77 1332.24,517.19 1331.52,516.03 C1331.26,515.62 1328.58,514.99 1325.55,514.63 C1315.81,513.49 1309.12,510.30 1302.41,503.59 C1293.54,494.71 1291.53,489.14 1291.51,473.25 L 1291.50 461.00 L 1254.83 461.00 L 1218.16 461.00 L 1197.25 480.75 C1163.86,512.30 1155.92,519.44 1148.84,524.25 C1143.18,528.11 1134.12,532.36 1129.71,533.24 C1129.05,533.37 1164.83,533.71 1209.23,533.99 L 1289.96 534.50 L 1282.23 539.86 C1277.98,542.80 1272.70,546.28 1270.50,547.58 L 1266.50 549.94 L 1271.18 549.97 C1275.13,550.00 1276.94,549.26 1282.88,545.25 ZM 1296.10 545.14 C1302.61,540.19 1310.39,532.39 1315.29,525.91 C1318.32,521.88 1318.58,521.00 1316.72,521.00 C1313.39,521.00 1300.62,513.69 1296.43,509.38 C1288.30,501.01 1283.00,487.56 1283.00,475.29 L 1283.00 469.00 L 1252.00 469.00 L 1220.99 469.00 L 1212.68 476.75 C1208.11,481.01 1194.80,493.50 1183.09,504.50 L 1161.81 524.50 L 1235.15 525.00 L 1308.50 525.50 L 1300.40 533.59 C1295.95,538.05 1289.54,543.40 1286.15,545.49 C1282.77,547.58 1280.00,549.45 1280.00,549.64 C1280.00,549.84 1282.18,550.00 1284.85,550.00 C1289.11,550.00 1290.48,549.41 1296.10,545.14 ZM 1280.43 538.97 L 1284.36 536.00 L 802.68 536.00 C537.76,536.00 321.00,536.21 321.00,536.46 C321.00,536.72 322.68,538.07 324.73,539.46 L 328.46 542.00 L 802.48 541.97 L 1276.50 541.94 L 1280.43 538.97 ZM 490.46 532.53 C481.32,529.64 465.20,519.13 457.56,511.09 L 454.63 508.00 L 378.73 508.00 L 302.84 508.00 L 303.50 511.25 C304.61,516.76 308.82,524.53 313.33,529.37 L 317.64 534.00 L 406.07 533.90 C479.30,533.82 493.81,533.58 490.46,532.53 ZM 538.25 475.01 L 541.00 475.00 L 541.00 421.50 L 541.00 368.00 L 613.33 368.00 C653.12,368.00 685.85,367.81 686.08,367.58 C686.31,367.35 686.38,339.90 686.23,306.58 L 685.97 246.00 L 581.98 246.00 L 478.00 246.00 L 478.00 347.84 L 478.00 449.68 L 491.59 462.09 L 505.18 474.50 L 515.34 475.11 C520.93,475.44 527.75,475.56 530.50,475.37 C533.25,475.17 536.74,475.01 538.25,475.01 ZM 569.76 422.72 L 570.02 369.94 L 556.77 370.22 L 543.53 370.50 L 543.41 422.50 C543.35,451.10 543.42,474.73 543.56,475.00 C543.71,475.27 549.61,475.50 556.66,475.50 L 569.50 475.50 L 569.76 422.72 ZM 591.12 475.00 L 603.00 475.00 L 603.00 422.47 L 603.00 369.95 L 587.75 370.22 L 572.50 370.50 L 572.24 422.00 C572.10,450.33 572.22,474.12 572.51,474.87 C572.87,475.83 573.97,476.06 576.14,475.62 C577.85,475.28 584.59,475.00 591.12,475.00 ZM 694.00 422.77 L 694.00 369.95 L 679.54 370.22 L 665.08 370.50 L 664.87 400.00 C664.75,416.23 664.74,439.85 664.83,452.50 L 665.01 475.50 L 679.50 475.55 L 694.00 475.59 L 694.00 422.77 ZM 746.25 475.06 L 752.00 475.00 L 752.00 422.50 L 752.00 370.00 L 724.50 370.00 L 697.00 370.00 L 697.00 422.75 L 697.00 475.50 L 718.75 475.31 C730.71,475.20 743.09,475.09 746.25,475.06 ZM 772.75 475.42 L 778.00 474.77 L 778.00 422.38 L 778.00 370.00 L 766.50 370.00 L 755.00 370.00 L 755.00 422.85 L 755.00 475.70 L 761.25 475.89 C764.69,475.99 769.86,475.78 772.75,475.42 ZM 809.25 475.01 C810.89,475.00 811.00,472.15 810.99,429.25 C810.99,404.09 810.70,380.46 810.35,376.75 L 809.71 370.00 L 795.36 370.00 L 781.00 370.00 L 781.00 422.46 L 781.00 474.93 L 790.75 475.30 C796.11,475.50 802.08,475.52 804.00,475.34 C805.92,475.17 808.29,475.02 809.25,475.01 ZM 901.00 422.42 L 901.00 369.95 L 886.25 370.22 L 871.50 370.50 L 871.29 422.42 C871.18,450.97 871.25,474.60 871.45,474.92 C871.64,475.24 878.37,475.36 886.40,475.20 L 901.00 474.90 L 901.00 422.42 ZM 932.50 422.81 L 932.50 370.50 L 918.25 370.22 L 904.00 369.95 L 904.00 422.72 L 904.00 475.50 L 918.25 475.31 L 932.50 475.12 L 932.50 422.81 ZM 629.46 422.75 L 629.29 370.50 L 617.14 370.22 L 605.00 369.94 L 605.00 422.47 L 605.00 475.00 L 617.31 475.00 L 629.63 475.00 L 629.46 422.75 ZM 662.00 422.50 L 662.00 370.00 L 647.00 370.00 L 632.00 370.00 L 632.00 422.50 L 632.00 475.00 L 647.00 475.00 L 662.00 475.00 L 662.00 422.50 ZM 843.00 422.50 L 843.00 370.00 L 828.00 370.00 L 813.00 370.00 L 813.00 422.50 L 813.00 475.00 L 828.00 475.00 L 843.00 475.00 L 843.00 422.50 ZM 869.00 422.50 L 869.00 370.00 L 857.00 370.00 L 845.00 370.00 L 845.00 422.50 L 845.00 475.00 L 857.00 475.00 L 869.00 475.00 L 869.00 422.50 ZM 999.00 422.50 L 999.00 370.00 L 967.00 370.00 L 935.00 370.00 L 935.00 422.50 L 935.00 475.00 L 967.00 475.00 L 999.00 475.00 L 999.00 422.50 ZM 1138.50 455.00 C1142.90,450.87 1154.82,439.59 1165.00,429.93 C1193.95,402.47 1193.31,403.00 1196.85,403.00 L 1200.00 403.00 L 1200.00 386.50 L 1200.00 370.00 L 1161.50 370.00 L 1123.00 370.00 L 1123.00 419.70 L 1123.00 469.39 L 1126.75 465.95 C1128.81,464.05 1134.10,459.12 1138.50,455.00 ZM 264.23 430.25 L 264.50 411.50 L 283.75 411.23 C299.95,411.00 303.00,410.72 303.00,409.48 C303.00,408.22 299.92,408.00 282.48,408.00 L 261.95 408.00 L 260.98 410.57 C260.44,411.98 260.00,421.20 260.00,431.07 C260.00,448.27 260.08,449.00 261.98,449.00 C263.87,449.00 263.97,448.17 264.23,430.25 ZM 303.00 431.50 L 303.00 414.00 L 285.00 414.00 L 267.00 414.00 L 267.00 431.50 L 267.00 449.00 L 285.00 449.00 L 303.00 449.00 L 303.00 431.50 ZM 476.00 347.50 L 476.00 246.00 L 439.51 246.00 L 403.03 246.00 L 402.76 276.18 L 402.50 306.36 L 354.25 306.30 L 306.00 306.25 L 306.00 377.62 L 306.00 449.00 L 391.00 449.00 L 476.00 449.00 L 476.00 347.50 ZM 1281.33 402.27 C1282.03,401.14 1280.26,303.99 1278.49,247.00 C1277.66,220.32 1276.99,196.36 1276.99,193.75 L 1277.00 189.00 L 1258.70 189.00 L 1240.39 189.00 L 1238.14 229.25 C1236.90,251.39 1235.80,270.62 1235.69,272.00 L 1235.50 274.50 L 1131.25 274.75 C1073.91,274.89 1026.99,275.34 1026.97,275.75 C1026.96,276.16 1025.86,283.46 1024.53,291.98 C1023.21,300.49 1022.21,307.55 1022.32,307.66 C1023.37,308.70 1043.66,311.27 1051.50,311.36 C1059.83,311.44 1062.29,311.09 1066.26,309.26 L 1071.02 307.06 L 1154.76 307.00 C1200.82,306.96 1238.95,306.99 1239.50,307.07 C1240.05,307.14 1239.38,307.51 1238.00,307.89 L 1235.50 308.59 L 1235.22 354.50 C1235.07,379.75 1235.16,400.96 1235.41,401.64 C1235.76,402.55 1241.64,402.89 1258.36,402.96 C1270.73,403.02 1281.06,402.71 1281.33,402.27 ZM 974.47 367.05 C975.10,366.03 973.71,279.65 972.39,238.25 L 971.78 219.00 L 952.89 219.00 C942.50,219.00 933.98,219.11 933.96,219.25 C933.00,224.94 926.30,284.63 926.58,284.91 C926.81,285.14 929.13,285.24 931.75,285.14 C937.82,284.91 941.71,286.55 943.55,290.09 C946.61,296.02 944.53,303.43 938.87,306.69 L 935.74 308.50 L 936.37 327.91 C936.72,338.59 937.00,350.62 937.00,354.66 L 937.00 362.00 L 953.15 362.00 L 969.29 362.00 L 968.51 313.25 C968.08,286.44 967.45,255.50 967.11,244.50 L 966.50 224.50 L 952.51 224.50 L 938.52 224.50 L 935.26 253.45 C933.46,269.37 931.55,282.85 931.00,283.40 C929.58,284.82 929.68,283.32 932.43,260.00 C933.77,248.73 935.15,236.35 935.51,232.50 C936.58,221.00 934.96,222.00 952.51,222.00 C960.96,222.00 968.09,222.34 968.33,222.75 C968.58,223.16 969.29,251.40 969.90,285.50 C970.51,319.60 971.21,351.21 971.46,355.75 L 971.90 364.00 L 953.59 364.00 L 935.27 364.00 L 934.53 335.77 C933.83,309.09 933.89,307.48 935.61,306.52 C940.44,303.81 943.00,300.18 943.00,296.03 C943.00,290.03 939.42,286.64 933.70,287.23 C929.61,287.65 905.98,285.23 834.50,277.03 C815.25,274.83 792.42,272.25 783.77,271.31 L 768.03 269.60 L 760.92 273.04 C756.41,275.22 753.31,277.43 752.46,279.07 C751.02,281.87 745.71,300.05 746.20,300.53 C746.61,300.95 914.48,306.99 925.75,307.00 L 931.00 307.00 L 931.01 329.25 C931.01,341.49 931.30,355.14 931.64,359.60 L 932.27 367.69 L 953.04 367.91 C967.02,368.06 974.02,367.78 974.47,367.05 ZM 1067.02 326.00 C1067.39,324.62 1068.00,320.75 1068.38,317.38 L 1069.07 311.26 L 1062.09 313.32 C1055.21,315.34 1054.90,315.35 1041.80,313.64 C1034.49,312.69 1027.01,311.65 1025.20,311.34 L 1021.89 310.76 L 1022.53 318.63 C1022.88,322.96 1023.30,326.95 1023.46,327.50 C1023.65,328.13 1031.73,328.50 1045.05,328.50 L 1066.35 328.50 L 1067.02 326.00 ZM 925.83 265.75 C927.02,255.71 928.72,240.75 929.61,232.50 C930.79,221.53 931.64,217.17 932.79,216.26 C933.65,215.58 934.16,214.87 933.93,214.68 C933.69,214.49 900.99,226.52 861.26,241.42 C814.54,258.93 789.64,268.74 790.76,269.17 C791.72,269.54 809.38,271.73 830.00,274.05 C850.62,276.36 878.53,279.50 892.00,281.02 C905.47,282.54 918.11,283.83 920.08,283.89 L 923.66 284.00 L 925.83 265.75 ZM 1074.11 265.12 C1113.51,246.27 1240.00,182.98 1240.00,182.11 C1240.00,181.56 1236.74,182.62 1232.75,184.46 C1213.29,193.44 1056.71,271.86 1058.11,271.92 C1059.00,271.97 1066.20,268.90 1074.11,265.12 ZM 1151.17 231.81 C1231.29,192.22 1240.71,187.38 1239.66,186.32 C1239.37,186.03 1210.64,199.89 1175.81,217.13 C1073.69,267.67 1065.39,271.87 1067.67,271.94 C1068.86,271.97 1106.43,253.91 1151.17,231.81 ZM 1233.00 269.76 C1233.00,268.53 1233.68,257.17 1234.51,244.51 C1236.33,216.64 1237.69,192.59 1237.48,192.24 C1237.39,192.10 1201.13,209.96 1156.91,231.93 L 1076.50 271.88 L 1154.75 271.94 L 1233.00 272.00 L 1233.00 269.76 ZM 815.50 251.52 C835.30,244.00 856.22,236.12 862.00,234.01 C892.36,222.92 934.61,206.79 935.43,205.97 C937.52,203.88 935.01,204.40 925.50,208.03 C920.00,210.13 894.80,219.57 869.50,229.01 C801.82,254.28 771.00,266.19 771.00,267.10 C771.00,268.28 775.78,266.61 815.50,251.52 ZM 802.53 260.62 C831.77,249.81 930.12,213.07 932.75,211.98 C935.40,210.88 935.88,208.45 933.25,209.46 C932.29,209.84 898.43,222.53 858.02,237.66 C777.17,267.94 777.54,267.80 780.53,267.92 C781.65,267.96 791.55,264.68 802.53,260.62 ZM 476.00 234.50 L 476.00 225.00 L 439.50 225.00 L 403.00 225.00 L 403.00 234.50 L 403.00 244.00 L 439.50 244.00 L 476.00 244.00 L 476.00 234.50 ZM 686.00 234.50 L 686.00 225.00 L 582.00 225.00 L 478.00 225.00 L 478.00 234.50 L 478.00 244.00 L 582.00 244.00 L 686.00 244.00 L 686.00 234.50 ZM 495.00 205.95 L 495.00 188.90 L 520.08 189.20 L 545.16 189.50 L 548.58 193.24 L 552.00 196.97 L 552.00 210.06 C552.00,221.99 552.16,223.12 553.75,222.81 C555.31,222.51 555.49,221.11 555.41,209.86 C555.32,195.67 554.20,192.40 548.05,188.25 C544.79,186.06 544.04,186.00 518.35,186.00 L 492.00 186.00 L 492.00 204.50 C492.00,220.28 492.22,223.00 493.50,223.00 C494.77,223.00 495.00,220.44 495.00,205.95 ZM 500.78 208.16 L 501.06 193.85 L 521.62 194.18 L 542.18 194.50 L 544.59 197.31 C546.83,199.92 547.00,200.90 547.00,211.56 C547.00,221.06 547.25,223.00 548.50,223.00 C549.75,223.00 550.00,220.93 550.00,210.40 L 550.00 197.80 L 546.60 194.40 L 543.20 191.00 L 520.10 191.00 L 497.00 191.00 L 497.00 207.07 C497.00,221.84 497.14,223.12 498.75,222.81 C500.30,222.51 500.53,220.87 500.78,208.16 ZM 506.00 211.50 L 506.00 200.00 L 522.30 200.00 C533.64,200.00 538.96,200.36 539.80,201.20 C540.58,201.98 541.00,206.02 541.00,212.70 C541.00,222.33 541.13,223.00 543.00,223.00 C544.88,223.00 545.00,222.33 545.00,211.65 C545.00,195.88 546.07,196.59 521.90,196.17 L 503.00 195.84 L 503.00 209.42 C503.00,220.82 503.24,223.00 504.50,223.00 C505.75,223.00 506.00,221.06 506.00,211.50 ZM 512.00 214.50 L 512.00 206.00 L 524.00 206.00 L 536.00 206.00 L 536.00 214.50 C536.00,221.39 536.28,223.00 537.50,223.00 C538.74,223.00 539.00,221.17 539.00,212.50 L 539.00 202.00 L 523.50 202.00 L 508.00 202.00 L 508.00 212.50 C508.00,222.33 508.13,223.00 510.00,223.00 C511.84,223.00 512.00,222.33 512.00,214.50 ZM 534.00 215.50 L 534.00 208.00 L 524.00 208.00 L 514.00 208.00 L 514.00 215.50 L 514.00 223.00 L 524.00 223.00 L 534.00 223.00 L 534.00 215.50 ZM 969.18 206.00 L 968.87 196.00 L 954.97 196.00 L 941.08 196.00 L 940.08 199.75 C938.34,206.34 937.05,212.45 937.02,214.25 C937.00,215.85 938.43,216.00 953.25,216.00 L 969.50 216.00 L 969.18 206.00 ZM 1274.00 175.00 L 1274.00 164.00 L 1258.50 164.00 L 1243.00 164.00 L 1243.00 175.00 L 1243.00 186.00 L 1258.50 186.00 L 1274.00 186.00 L 1274.00 175.00 ZM 524.00 146.00 C524.00,109.67 524.04,109.00 526.00,109.00 C527.96,109.00 528.00,109.67 528.00,146.00 C528.00,178.35 528.19,183.00 529.51,183.00 C530.84,183.00 530.99,178.28 530.76,144.25 L 530.50 105.50 L 526.00 105.50 L 521.50 105.50 L 521.24 144.25 C521.01,178.28 521.16,183.00 522.49,183.00 C523.81,183.00 524.00,178.35 524.00,146.00 ZM 1019.00 414.50 L 1019.00 368.00 L 1026.50 368.00 L 1034.00 368.00 L 1034.00 414.50 L 1034.00 461.00 L 1026.50 461.00 L 1019.00 461.00 L 1019.00 414.50 ZM 1031.76 414.75 L 1031.50 370.50 L 1026.25 370.20 L 1021.00 369.90 L 1021.00 414.45 L 1021.00 459.00 L 1026.51 459.00 L 1032.02 459.00 L 1031.76 414.75 ZM 1054.00 414.46 L 1054.00 367.91 L 1061.25 368.21 L 1068.50 368.50 L 1068.69 412.63 C1068.79,436.91 1068.62,457.72 1068.32,458.88 C1067.82,460.78 1067.05,461.00 1060.88,461.00 L 1054.00 461.00 L 1054.00 414.46 ZM 1066.00 414.50 L 1066.00 370.00 L 1061.00 370.00 L 1056.00 370.00 L 1056.00 414.50 L 1056.00 459.00 L 1061.00 459.00 L 1066.00 459.00 L 1066.00 414.50 ZM 1087.00 414.50 L 1087.00 368.00 L 1094.00 368.00 L 1101.00 368.00 L 1101.00 414.50 L 1101.00 461.00 L 1094.00 461.00 L 1087.00 461.00 L 1087.00 414.50 ZM 1099.00 414.50 L 1099.00 370.00 L 1094.00 370.00 L 1089.00 370.00 L 1089.00 414.50 L 1089.00 459.00 L 1094.00 459.00 L 1099.00 459.00 L 1099.00 414.50 ZM 1327.05 492.70 C1322.13,491.13 1316.33,484.95 1314.94,479.80 C1312.27,469.92 1315.64,457.71 1323.19,449.93 C1329.97,442.93 1329.51,443.00 1371.55,443.00 C1392.24,443.00 1409.02,443.38 1408.83,443.83 C1408.65,444.29 1405.57,448.57 1402.00,453.33 L 1395.50 461.99 L 1394.34 456.93 C1393.71,454.14 1392.36,450.95 1391.34,449.83 C1387.21,445.25 1385.49,445.00 1358.75,445.00 L 1333.39 445.00 L 1328.95 447.82 C1315.71,456.23 1311.81,476.67 1321.61,486.25 C1326.79,491.31 1329.54,491.84 1351.25,491.92 C1363.70,491.97 1371.00,492.37 1371.00,493.00 C1371.00,494.39 1331.52,494.12 1327.05,492.70 ZM 1401.37 450.50 L 1406.12 445.00 L 1397.42 445.00 L 1388.73 445.00 L 1391.31 447.03 C1392.73,448.15 1394.46,450.62 1395.15,452.53 C1395.84,454.44 1396.45,456.00 1396.51,456.00 C1396.57,456.00 1398.76,453.52 1401.37,450.50 ZM 1330.00 484.75 C1318.36,476.80 1321.97,457.50 1336.22,451.55 C1339.13,450.34 1343.98,450.00 1358.51,450.00 C1375.14,450.00 1377.49,450.21 1381.02,452.01 C1385.37,454.23 1387.61,457.72 1388.58,463.79 C1389.36,468.67 1387.88,473.48 1383.92,478.95 C1378.30,486.71 1377.23,486.99 1353.90,487.00 C1334.17,487.00 1333.16,486.90 1330.00,484.75 ZM 1373.68 483.94 C1383.66,480.17 1389.13,465.95 1383.71,457.90 C1380.09,452.51 1376.26,451.73 1356.29,452.28 C1336.09,452.84 1333.32,453.76 1328.56,461.42 C1323.14,470.14 1325.00,479.13 1333.07,483.25 C1335.94,484.71 1339.30,485.00 1353.68,485.00 C1363.40,485.00 1372.09,484.54 1373.68,483.94 ZM 1290.36 514.58 C1282.51,506.47 1277.29,494.93 1275.52,481.75 L 1274.88 477.00 L 1249.43 477.00 L 1223.98 477.00 L 1217.74 482.70 C1205.35,494.02 1183.00,515.41 1183.00,515.95 C1183.00,516.42 1252.85,516.58 1273.78,516.15 L 1281.06 516.00 L 1278.84 513.00 L 1276.62 510.00 L 1238.31 510.00 C1217.24,510.00 1200.00,509.61 1200.00,509.14 C1200.00,508.67 1205.61,502.82 1212.48,496.14 L 1224.95 484.00 L 1247.41 484.00 C1272.44,484.00 1270.11,483.28 1271.50,491.46 C1272.41,496.83 1277.18,507.12 1281.47,512.96 C1283.41,515.61 1285.00,518.00 1285.00,518.29 C1285.00,519.06 1178.96,518.75 1178.49,517.98 C1178.12,517.39 1191.54,504.32 1214.73,482.68 L 1222.96 475.00 L 1249.98 475.00 L 1277.00 475.00 L 1277.00 477.43 C1277.00,482.54 1280.16,494.54 1283.15,500.82 C1285.01,504.72 1288.63,509.78 1292.13,513.38 C1295.36,516.70 1298.00,519.55 1298.00,519.71 C1298.00,521.26 1294.67,519.02 1290.36,514.58 ZM 1273.86 504.25 C1272.08,500.78 1270.04,494.43 1268.57,487.75 L 1267.96 485.00 L 1247.59 485.00 L 1227.21 485.00 L 1216.86 494.61 C1211.16,499.89 1205.61,505.07 1204.53,506.11 C1202.59,507.97 1203.22,508.00 1239.17,508.00 L 1275.78 508.00 L 1273.86 504.25 ZM 319.77 525.93 C317.54,524.63 312.54,516.13 313.46,515.20 C314.49,514.17 391.87,513.70 424.80,514.52 L 453.09 515.23 L 458.54 520.21 C461.54,522.95 463.75,525.60 463.44,526.10 C462.64,527.39 321.99,527.22 319.77,525.93 ZM 459.92 524.25 C459.87,523.84 458.00,521.92 455.77,520.00 L 451.70 516.50 L 383.35 516.19 C345.76,516.02 315.00,516.26 315.00,516.72 C315.00,517.17 316.38,519.22 318.07,521.27 L 321.15 525.00 L 390.57 525.00 C428.76,525.00 459.96,524.66 459.92,524.25 ZM 495.71 459.40 L 483.00 447.80 L 483.00 349.40 L 483.00 251.00 L 582.50 251.00 L 682.00 251.00 L 682.00 307.00 L 682.00 363.00 L 609.00 363.00 L 536.00 363.00 L 536.00 417.00 L 536.00 471.00 L 522.21 471.00 L 508.42 471.00 L 495.71 459.40 ZM 534.24 415.25 L 534.50 361.50 L 607.25 361.24 L 680.00 360.99 L 680.00 306.99 L 680.00 253.00 L 582.50 253.00 L 485.00 253.00 L 485.00 349.86 L 485.00 446.72 L 497.16 457.86 L 509.31 469.00 L 521.65 469.00 L 533.98 469.00 L 534.24 415.25 ZM 548.00 422.46 L 548.00 373.92 L 556.75 374.21 L 565.50 374.50 L 565.76 422.75 L 566.02 471.00 L 557.01 471.00 L 548.00 471.00 L 548.00 422.46 ZM 563.76 422.75 L 563.50 376.50 L 556.75 376.20 L 550.00 375.91 L 550.00 422.45 L 550.00 469.00 L 557.01 469.00 L 564.02 469.00 L 563.76 422.75 ZM 577.00 422.47 L 577.00 373.93 L 587.75 374.22 L 598.50 374.50 L 598.76 422.75 L 599.02 471.00 L 588.01 471.00 L 577.00 471.00 L 577.00 422.47 ZM 597.00 422.50 L 597.00 376.00 L 588.00 376.00 L 579.00 376.00 L 579.00 422.50 L 579.00 469.00 L 588.00 469.00 L 597.00 469.00 L 597.00 422.50 ZM 669.00 422.50 L 669.00 374.00 L 679.50 374.00 L 690.00 374.00 L 690.00 422.50 L 690.00 471.00 L 679.50 471.00 L 669.00 471.00 L 669.00 422.50 ZM 688.00 422.50 L 688.00 376.00 L 679.50 376.00 L 671.00 376.00 L 671.00 422.50 L 671.00 469.00 L 679.50 469.00 L 688.00 469.00 L 688.00 422.50 ZM 701.24 422.77 L 701.50 374.50 L 724.50 374.50 L 747.50 374.50 L 747.50 422.50 L 747.50 470.50 L 724.24 470.77 L 700.98 471.04 L 701.24 422.77 ZM 745.30 422.75 L 745.50 377.00 L 724.25 377.00 L 703.00 377.00 L 703.00 423.02 L 703.00 469.04 L 724.05 468.77 L 745.10 468.50 L 745.30 422.75 ZM 759.00 422.50 L 759.00 374.00 L 766.50 374.00 L 774.00 374.00 L 774.00 422.50 L 774.00 471.00 L 766.50 471.00 L 759.00 471.00 L 759.00 422.50 ZM 772.00 422.50 L 772.00 376.00 L 766.50 376.00 L 761.00 376.00 L 761.00 422.50 L 761.00 469.00 L 766.50 469.00 L 772.00 469.00 L 772.00 422.50 ZM 785.00 422.50 L 785.00 374.00 L 795.50 374.00 L 806.00 374.00 L 806.00 422.50 L 806.00 471.00 L 795.50 471.00 L 785.00 471.00 L 785.00 422.50 ZM 804.00 422.50 L 804.00 376.00 L 795.50 376.00 L 787.00 376.00 L 787.00 422.50 L 787.00 469.00 L 795.50 469.00 L 804.00 469.00 L 804.00 422.50 ZM 876.00 422.50 L 876.00 374.00 L 886.50 374.00 L 897.00 374.00 L 897.00 422.50 L 897.00 471.00 L 886.50 471.00 L 876.00 471.00 L 876.00 422.50 ZM 895.00 422.50 L 895.00 376.00 L 886.50 376.00 L 878.00 376.00 L 878.00 422.50 L 878.00 469.00 L 886.50 469.00 L 895.00 469.00 L 895.00 422.50 ZM 908.00 422.47 L 908.00 373.93 L 918.25 374.22 L 928.50 374.50 L 928.76 422.75 L 929.02 471.00 L 918.51 471.00 L 908.00 471.00 L 908.00 422.47 ZM 926.76 422.75 L 926.50 376.50 L 918.25 376.21 L 910.00 375.92 L 910.00 422.46 L 910.00 469.00 L 918.51 469.00 L 927.02 469.00 L 926.76 422.75 ZM 610.00 422.50 L 610.00 374.00 L 617.50 374.00 L 625.00 374.00 L 625.00 422.50 L 625.00 471.00 L 617.50 471.00 L 610.00 471.00 L 610.00 422.50 ZM 623.00 422.50 L 623.00 376.00 L 617.50 376.00 L 612.00 376.00 L 612.00 422.50 L 612.00 469.00 L 617.50 469.00 L 623.00 469.00 L 623.00 422.50 ZM 636.00 422.50 L 636.00 374.00 L 647.00 374.00 L 658.00 374.00 L 658.00 422.50 L 658.00 471.00 L 647.00 471.00 L 636.00 471.00 L 636.00 422.50 ZM 656.00 422.50 L 656.00 376.00 L 647.00 376.00 L 638.00 376.00 L 638.00 422.50 L 638.00 469.00 L 647.00 469.00 L 656.00 469.00 L 656.00 422.50 ZM 817.00 422.47 L 817.00 373.93 L 827.75 374.22 L 838.50 374.50 L 838.76 422.75 L 839.02 471.00 L 828.01 471.00 L 817.00 471.00 L 817.00 422.47 ZM 836.76 422.75 L 836.50 376.50 L 827.75 376.21 L 819.00 375.92 L 819.00 422.46 L 819.00 469.00 L 828.01 469.00 L 837.02 469.00 L 836.76 422.75 ZM 849.24 422.75 L 849.50 374.50 L 857.25 374.21 L 865.00 373.92 L 865.00 422.46 L 865.00 471.00 L 856.99 471.00 L 848.98 471.00 L 849.24 422.75 ZM 863.00 422.45 L 863.00 375.90 L 857.25 376.20 L 851.50 376.50 L 851.24 422.75 L 850.98 469.00 L 856.99 469.00 L 863.00 469.00 L 863.00 422.45 ZM 940.24 422.75 L 940.50 374.50 L 967.50 374.50 L 994.50 374.50 L 994.76 422.75 L 995.02 471.00 L 967.50 471.00 L 939.98 471.00 L 940.24 422.75 ZM 993.00 423.17 C993.00,397.96 992.81,377.15 992.58,376.92 C992.36,376.69 980.88,376.63 967.08,376.78 L 942.00 377.07 L 942.00 423.03 L 942.00 469.00 L 967.50 469.00 L 993.00 469.00 L 993.00 423.17 ZM 1127.24 416.25 L 1127.50 374.50 L 1161.50 374.50 L 1195.50 374.50 L 1195.78 385.71 L 1196.06 396.92 L 1192.79 398.61 C1190.99,399.54 1178.09,411.15 1164.13,424.40 C1136.20,450.90 1128.48,458.00 1127.58,458.00 C1127.25,458.00 1127.10,439.21 1127.24,416.25 ZM 1150.85 434.19 C1182.79,403.54 1189.66,397.24 1191.91,396.53 C1193.83,395.92 1194.00,395.12 1194.00,386.43 L 1194.00 377.00 L 1161.53 377.00 L 1129.06 377.00 L 1129.04 415.50 C1129.03,436.67 1129.29,454.00 1129.61,454.00 C1129.94,454.00 1139.49,445.08 1150.85,434.19 ZM 319.75 444.21 L 310.00 443.93 L 310.01 379.71 C310.02,344.40 310.30,314.49 310.63,313.25 L 311.23 311.00 L 359.12 311.00 L 407.00 311.00 L 407.00 281.00 L 407.00 251.00 L 439.00 251.00 L 471.01 251.00 L 470.75 347.75 L 470.50 444.50 L 400.00 444.50 C361.23,444.50 325.11,444.37 319.75,444.21 ZM 469.00 347.49 L 469.00 253.00 L 439.00 253.00 L 409.00 253.00 L 409.00 282.99 L 409.00 312.98 L 360.76 313.24 L 312.52 313.50 L 312.31 377.42 C312.19,412.58 312.26,441.60 312.45,441.92 C312.65,442.24 347.95,442.38 390.90,442.24 L 469.00 441.98 L 469.00 347.49 ZM 1239.00 354.11 L 1239.00 309.22 L 1243.25 307.53 C1251.16,304.39 1255.00,299.12 1255.00,291.44 C1255.00,285.63 1251.82,279.67 1247.19,276.81 C1243.80,274.71 1243.80,274.71 1244.40,268.61 C1244.73,265.25 1245.67,250.35 1246.49,235.50 C1247.31,220.65 1248.24,206.14 1248.56,203.25 L 1249.14 198.00 L 1258.49 198.00 L 1267.84 198.00 L 1268.39 204.25 C1269.24,213.99 1273.09,392.06 1272.47,392.81 C1271.99,393.38 1246.76,393.85 1245.37,393.31 C1244.24,392.88 1244.00,385.70 1244.00,352.99 L 1244.00 313.19 L 1249.44 310.12 C1256.95,305.88 1260.53,299.81 1260.42,291.50 C1260.33,284.65 1258.44,280.24 1253.32,274.89 L 1249.87 271.28 L 1251.44 242.39 C1252.31,226.50 1253.27,211.14 1253.58,208.25 L 1254.14 203.00 L 1258.44 203.00 L 1262.73 203.00 L 1263.37 217.25 C1264.05,232.45 1265.54,296.19 1266.53,353.25 L 1267.14 388.00 L 1258.57 388.00 L 1250.00 388.00 L 1250.00 352.07 C1250.00,318.72 1250.13,316.09 1251.75,315.58 C1252.71,315.27 1254.77,313.85 1256.32,312.41 C1257.86,310.97 1259.40,310.07 1259.74,310.40 C1260.55,311.22 1256.15,315.82 1253.87,316.54 C1252.17,317.08 1252.03,319.29 1251.78,351.56 L 1251.50 386.00 L 1258.37 386.00 L 1265.25 386.00 L 1264.59 348.25 C1263.64,292.95 1262.09,229.15 1261.40,216.19 L 1260.80 204.89 L 1258.15 205.19 C1255.76,205.47 1255.48,205.95 1255.27,210.00 C1255.14,212.48 1254.31,227.12 1253.42,242.54 L 1251.80 270.58 L 1254.97 273.97 C1261.63,281.10 1263.94,289.46 1261.51,297.65 C1259.77,303.52 1254.44,310.09 1249.53,312.42 L 1246.00 314.09 L 1246.00 352.55 L 1246.00 391.00 L 1251.75 391.16 C1254.91,391.24 1260.43,391.35 1264.00,391.41 L 1270.50 391.50 L 1270.22 367.50 C1270.07,354.30 1269.74,334.50 1269.49,323.50 C1269.24,312.50 1268.54,281.00 1267.94,253.50 C1267.34,226.00 1266.68,202.60 1266.47,201.50 C1266.13,199.68 1265.43,199.53 1258.58,199.83 L 1251.06 200.16 L 1250.55 203.33 C1250.26,205.07 1249.55,215.05 1248.96,225.50 C1248.37,235.95 1247.49,250.93 1247.00,258.78 L 1246.11 273.06 L 1250.50 277.11 C1255.71,281.91 1257.39,286.30 1256.79,293.54 C1256.22,300.39 1252.47,305.49 1245.87,308.38 L 1241.05 310.50 L 1241.02 353.75 L 1241.00 397.00 L 1258.64 397.00 L 1276.28 397.00 L 1275.58 352.25 C1275.20,327.64 1274.24,285.45 1273.45,258.50 C1272.66,231.55 1272.01,206.01 1272.01,201.75 L 1272.00 194.00 L 1258.68 194.00 L 1245.37 194.00 L 1244.19 215.75 C1241.89,258.18 1240.65,275.00 1239.83,275.00 C1238.69,275.00 1238.82,270.72 1241.32,229.00 L 1243.51 192.50 L 1258.50 192.50 L 1273.50 192.50 L 1275.11 248.00 C1275.99,278.52 1277.04,324.99 1277.45,351.25 L 1278.17 399.00 L 1258.59 399.00 L 1239.00 399.00 L 1239.00 354.11 ZM 1035.20 306.51 C1030.63,305.81 1026.72,305.06 1026.51,304.85 C1026.30,304.64 1027.00,298.85 1028.05,291.98 C1029.11,285.12 1029.98,279.16 1029.99,278.75 C1029.99,278.34 1078.09,278.00 1136.87,278.00 L 1243.73 278.00 L 1246.49 280.17 C1249.58,282.60 1252.00,287.61 1252.00,291.57 C1252.00,295.60 1249.05,300.92 1245.91,302.54 C1242.15,304.49 1233.06,304.43 1230.22,302.44 C1224.57,298.49 1223.25,288.99 1227.55,283.34 L 1230.10 280.00 L 1131.12 280.00 C1037.70,280.00 1032.11,280.10 1031.65,281.75 C1030.58,285.55 1028.82,301.09 1029.31,302.37 C1029.64,303.23 1033.04,304.13 1038.73,304.86 C1051.74,306.53 1058.10,306.31 1063.14,304.02 C1067.37,302.10 1069.96,302.04 1148.25,302.02 C1201.43,302.01 1229.00,302.34 1229.00,303.00 C1229.00,303.66 1201.68,304.00 1149.04,304.00 C1071.43,304.00 1068.92,304.06 1064.00,306.00 C1058.06,308.34 1048.13,308.52 1035.20,306.51 ZM 1245.06 300.97 C1247.50,299.66 1250.00,294.87 1250.00,291.50 C1250.00,281.41 1238.31,276.28 1230.65,283.00 C1225.14,287.84 1225.37,296.34 1231.12,300.37 C1233.75,302.21 1242.06,302.57 1245.06,300.97 ZM 1040.75 301.74 C1031.87,300.62 1032.07,300.99 1034.10,289.33 L 1035.21 283.00 L 1128.90 283.00 L 1222.59 283.00 L 1222.23 289.75 C1222.03,293.46 1221.70,297.04 1221.49,297.69 C1221.20,298.60 1202.60,298.90 1143.52,298.97 C1068.77,299.05 1065.75,299.13 1060.93,301.03 C1055.54,303.15 1052.73,303.25 1040.75,301.74 ZM 1060.15 299.12 C1065.27,297.36 1070.47,297.22 1142.56,296.84 L 1219.50 296.43 L 1219.80 290.71 L 1220.10 284.99 L 1128.30 285.24 L 1036.50 285.50 L 1035.72 291.88 C1035.28,295.39 1035.10,298.43 1035.31,298.64 C1035.67,299.00 1047.95,300.58 1052.59,300.87 C1053.74,300.94 1057.15,300.15 1060.15,299.12 ZM 940.66 357.55 C940.35,356.74 940.03,345.71 939.94,333.02 L 939.79 309.95 L 942.42 307.89 C946.04,305.03 948.00,300.85 948.00,295.95 C948.00,287.82 943.08,282.13 935.85,281.88 C934.01,281.82 933.23,281.57 934.12,281.34 C935.24,281.04 935.91,279.32 936.30,275.70 C939.97,241.79 941.28,230.30 941.58,229.25 C941.84,228.35 944.89,228.00 952.41,228.00 L 962.88 228.00 L 963.39 232.25 C964.11,238.35 966.01,357.17 965.40,358.17 C965.11,358.63 959.56,359.00 953.05,359.00 C943.61,359.00 941.10,358.70 940.66,357.55 ZM 963.43 356.12 C964.04,355.12 962.19,248.52 961.36,237.25 L 960.83 230.00 L 952.11 230.00 L 943.40 230.00 L 940.65 254.73 C939.13,268.33 938.25,279.59 938.70,279.74 C941.69,280.75 946.33,284.49 948.01,287.24 C950.23,290.89 950.69,298.78 948.88,302.32 C948.26,303.52 946.36,305.98 944.64,307.79 L 941.53 311.08 L 941.86 333.29 C942.05,345.51 942.41,355.84 942.66,356.25 C943.31,357.31 962.77,357.19 963.43,356.12 ZM 929.69 304.36 C929.34,304.00 925.32,303.80 920.77,303.91 C916.22,304.01 886.40,303.17 854.50,302.04 C762.74,298.77 750.96,298.29 750.48,297.81 C749.77,297.10 753.88,283.11 755.56,280.55 C757.49,277.61 767.68,273.00 772.26,273.00 C774.19,273.00 787.18,274.34 801.13,275.98 C815.08,277.61 842.70,280.75 862.50,282.95 C882.30,285.15 904.58,287.70 912.00,288.60 C919.42,289.51 928.08,290.19 931.22,290.10 C935.77,289.98 937.37,290.37 938.97,291.97 C941.40,294.40 941.51,296.12 939.45,300.09 C937.55,303.78 931.68,306.34 929.69,304.36 ZM 936.55 300.55 C940.83,296.26 939.25,292.00 933.37,292.00 C931.60,292.00 929.44,292.71 928.57,293.57 C926.75,295.39 926.50,298.57 928.11,299.57 C928.84,300.02 929.00,299.57 928.57,298.23 C927.12,293.64 934.17,291.07 936.17,295.47 C937.66,298.75 935.83,300.99 931.63,301.02 C929.24,301.03 928.86,301.26 930.00,302.00 C932.36,303.53 933.91,303.19 936.55,300.55 ZM 925.93 299.88 C925.31,298.71 925.06,296.46 925.37,294.88 C925.69,293.30 925.84,292.00 925.72,292.00 C925.59,292.00 901.64,289.31 872.49,286.02 C843.35,282.73 808.45,278.82 794.95,277.32 L 770.40 274.60 L 764.63 276.95 C758.24,279.54 756.73,281.28 754.52,288.56 C752.09,296.57 752.01,296.47 760.75,296.74 C777.06,297.24 859.46,300.12 879.50,300.89 C891.05,301.33 906.48,301.76 913.79,301.85 C927.04,302.00 927.07,301.99 925.93,299.88 ZM 935.00 297.56 C935.00,296.77 934.53,295.83 933.95,295.47 C932.26,294.42 929.98,295.78 930.62,297.46 C931.37,299.41 935.00,299.49 935.00,297.56 ZM 1025.00 319.89 L 1025.00 313.78 L 1028.25 314.39 C1041.91,316.94 1058.96,317.73 1063.50,316.00 L 1066.12 315.00 L 1065.43 319.75 C1065.05,322.36 1064.55,324.84 1064.31,325.25 C1064.08,325.66 1055.13,326.00 1044.44,326.00 L 1025.00 326.00 L 1025.00 319.89 ZM 1063.00 321.65 C1063.00,319.31 1062.89,319.29 1048.75,318.74 C1040.91,318.43 1033.71,317.87 1032.75,317.48 C1031.55,317.01 1031.00,317.26 1031.00,318.29 C1031.00,319.52 1033.43,319.92 1044.25,320.49 C1051.54,320.88 1057.95,321.04 1058.50,320.85 C1059.05,320.66 1059.72,320.95 1060.00,321.50 C1060.74,322.97 1055.03,323.27 1041.25,322.49 L 1029.00 321.80 L 1029.00 318.90 C1029.00,317.30 1028.55,316.00 1028.00,316.00 C1027.45,316.00 1027.00,317.80 1027.00,320.00 L 1027.00 324.00 L 1045.00 324.00 L 1063.00 324.00 L 1063.00 321.65 ZM 406.41 239.62 C406.12,238.87 406.02,236.05 406.19,233.37 L 406.50 228.50 L 439.00 228.50 L 471.50 228.50 L 471.80 234.75 L 472.10 241.00 L 439.52 241.00 C412.77,241.00 406.84,240.75 406.41,239.62 ZM 470.11 238.55 C470.36,238.31 470.39,236.27 470.17,234.04 L 469.79 229.97 L 439.14 230.24 L 408.50 230.50 L 408.19 234.75 L 407.89 239.00 L 438.78 239.00 C455.77,239.00 469.87,238.80 470.11,238.55 ZM 481.41 239.62 C481.12,238.87 481.02,236.05 481.19,233.37 L 481.50 228.50 L 582.00 228.50 L 682.50 228.50 L 682.80 234.75 L 683.10 241.00 L 582.52 241.00 C498.03,241.00 481.85,240.78 481.41,239.62 ZM 681.00 234.50 L 681.00 229.99 L 582.25 230.25 L 483.50 230.50 L 483.18 233.33 C482.48,239.43 475.00,239.00 582.47,239.00 L 681.00 239.00 L 681.00 234.50 ZM 940.37 210.11 C940.71,207.94 941.56,204.44 942.25,202.33 L 943.51 198.50 L 955.00 198.50 L 966.50 198.50 L 966.50 206.00 L 966.50 213.50 L 953.12 213.78 L 939.73 214.06 L 940.37 210.11 ZM 964.50 206.00 L 964.50 200.50 L 954.57 200.50 L 944.63 200.50 L 943.33 205.50 C942.62,208.25 942.03,210.85 942.02,211.28 C942.01,211.71 947.06,211.94 953.25,211.78 L 964.50 211.50 L 964.50 206.00 ZM 1246.21 174.95 L 1246.50 166.91 L 1258.75 166.70 C1265.49,166.59 1271.02,166.73 1271.04,167.00 C1271.05,167.27 1271.30,170.99 1271.58,175.25 L 1272.08 183.00 L 1259.00 183.00 L 1245.92 183.00 L 1246.21 174.95 ZM 1269.73 175.05 C1269.86,171.77 1269.56,168.84 1269.06,168.54 C1268.56,168.23 1263.62,168.28 1258.08,168.64 L 1248.00 169.30 L 1248.00 175.15 L 1248.00 181.00 L 1258.75 181.00 L 1269.50 181.00 L 1269.73 175.05 ZM 1025.00 414.50 C1025.00,382.41 1025.26,373.92 1026.25,374.25 C1028.06,374.85 1028.04,454.15 1026.23,454.76 C1025.27,455.08 1025.00,446.28 1025.00,414.50 ZM 1060.00 414.50 C1060.00,388.17 1060.35,374.00 1061.00,374.00 C1061.65,374.00 1062.00,388.17 1062.00,414.50 C1062.00,440.83 1061.65,455.00 1061.00,455.00 C1060.35,455.00 1060.00,440.83 1060.00,414.50 ZM 1093.00 414.50 C1093.00,388.17 1093.35,374.00 1094.00,374.00 C1094.65,374.00 1095.00,388.17 1095.00,414.50 C1095.00,440.83 1094.65,455.00 1094.00,455.00 C1093.35,455.00 1093.00,440.83 1093.00,414.50 ZM 1332.92 478.08 C1330.71,475.86 1330.00,474.22 1330.00,471.33 C1330.00,466.57 1332.62,461.29 1336.32,458.57 C1338.94,456.65 1340.51,456.50 1357.65,456.50 L 1376.15 456.50 L 1379.08 459.77 C1382.51,463.60 1382.74,466.77 1380.04,472.73 C1376.62,480.25 1374.26,480.99 1353.67,481.00 L 1335.85 481.00 L 1332.92 478.08 ZM 1375.58 474.76 C1378.40,471.68 1379.00,470.25 1379.00,466.57 C1379.00,459.46 1377.70,459.00 1357.73,459.00 C1338.78,459.00 1336.35,459.64 1333.63,465.36 C1331.71,469.42 1331.61,471.06 1333.11,474.35 C1334.99,478.47 1337.42,478.95 1355.33,478.72 L 1372.16 478.50 L 1375.58 474.76 ZM 500.75 454.28 L 490.00 444.56 L 490.00 350.78 L 490.00 257.00 L 582.50 257.00 L 675.00 257.00 L 675.00 306.50 L 675.00 356.00 L 602.50 356.00 L 530.00 356.00 L 530.00 410.00 L 530.00 464.00 L 520.75 464.00 L 511.49 464.00 L 500.75 454.28 ZM 528.00 408.00 L 528.00 354.00 L 600.50 354.00 L 673.00 354.00 L 673.00 309.50 L 673.00 265.00 L 582.50 265.00 L 492.00 265.00 L 492.04 354.75 L 492.08 444.50 L 496.56 448.00 C499.02,449.92 503.38,453.86 506.24,456.75 L 511.43 462.00 L 519.72 462.00 L 528.00 462.00 L 528.00 408.00 ZM 673.00 261.00 C673.00,259.01 672.33,259.00 582.50,259.00 C492.67,259.00 492.00,259.01 492.00,261.00 C492.00,262.99 492.67,263.00 582.50,263.00 C672.33,263.00 673.00,262.99 673.00,261.00 ZM 553.85 424.00 C553.77,401.45 553.66,382.44 553.60,381.75 C553.54,381.01 554.71,380.50 556.50,380.50 L 559.50 380.50 L 559.76 422.75 L 560.02 465.00 L 557.01 465.00 L 554.00 465.00 L 553.85 424.00 ZM 558.00 423.06 C558.00,397.51 557.64,382.90 557.00,382.50 C556.34,382.09 556.00,395.66 556.00,422.44 C556.00,448.81 556.35,463.00 557.00,463.00 C557.65,463.00 558.00,449.02 558.00,423.06 ZM 583.00 422.50 L 583.00 380.00 L 587.50 380.00 L 592.00 380.00 L 592.00 422.50 L 592.00 465.00 L 587.50 465.00 L 583.00 465.00 L 583.00 422.50 ZM 590.00 422.50 L 590.00 382.00 L 587.50 382.00 L 585.00 382.00 L 585.00 422.50 L 585.00 463.00 L 587.50 463.00 L 590.00 463.00 L 590.00 422.50 ZM 675.24 422.81 L 675.50 380.50 L 679.25 380.19 L 683.00 379.88 L 683.09 414.19 C683.14,433.06 683.25,452.10 683.34,456.50 L 683.50 464.50 L 679.24 464.81 L 674.98 465.12 L 675.24 422.81 ZM 681.67 422.75 C681.21,382.78 681.19,382.50 679.10,382.18 L 677.00 381.86 L 677.00 422.43 L 677.00 463.00 L 679.56 463.00 L 682.13 463.00 L 681.67 422.75 ZM 708.00 422.48 L 708.00 380.95 L 724.25 381.23 L 740.50 381.50 L 740.76 422.75 L 741.02 464.00 L 724.51 464.00 L 708.00 464.00 L 708.00 422.48 ZM 739.00 422.50 L 739.00 383.00 L 724.50 383.00 L 710.00 383.00 L 710.00 422.50 L 710.00 462.00 L 724.50 462.00 L 739.00 462.00 L 739.00 422.50 ZM 765.00 422.50 C765.00,394.83 765.35,380.00 766.00,380.00 C766.65,380.00 767.00,394.83 767.00,422.50 C767.00,450.17 766.65,465.00 766.00,465.00 C765.35,465.00 765.00,450.17 765.00,422.50 ZM 791.00 422.44 L 791.00 379.89 L 795.25 380.19 L 799.50 380.50 L 799.76 422.75 L 800.02 465.00 L 795.51 465.00 L 791.00 465.00 L 791.00 422.44 ZM 797.76 422.75 L 797.50 382.50 L 795.25 382.18 L 793.00 381.86 L 793.00 422.43 L 793.00 463.00 L 795.51 463.00 L 798.02 463.00 L 797.76 422.75 ZM 882.00 422.44 L 882.00 379.89 L 886.25 380.19 L 890.50 380.50 L 890.76 422.75 L 891.02 465.00 L 886.51 465.00 L 882.00 465.00 L 882.00 422.44 ZM 888.76 422.75 L 888.50 382.50 L 886.25 382.18 L 884.00 381.86 L 884.00 422.43 L 884.00 463.00 L 886.51 463.00 L 889.02 463.00 L 888.76 422.75 ZM 914.50 463.75 C914.27,463.06 914.17,444.05 914.29,421.50 L 914.50 380.50 L 918.25 380.19 L 922.00 379.88 L 922.00 422.44 L 922.00 465.00 L 918.47 465.00 C916.53,465.00 914.74,464.44 914.50,463.75 ZM 920.00 422.43 C920.00,384.32 919.89,381.87 918.25,382.19 C916.62,382.51 916.49,385.29 916.39,422.77 C916.28,461.37 916.35,463.00 918.14,463.00 C919.92,463.00 920.00,461.32 920.00,422.43 ZM 616.00 422.42 C616.00,388.79 616.26,379.92 617.25,380.25 C618.02,380.51 618.48,382.46 618.46,385.33 C618.44,387.90 618.32,406.88 618.21,427.50 C618.07,451.69 617.65,465.00 617.00,465.00 C616.35,465.00 616.00,450.14 616.00,422.42 ZM 643.00 422.50 L 643.00 380.00 L 647.00 380.00 L 651.00 380.00 L 651.00 422.50 L 651.00 465.00 L 647.00 465.00 L 643.00 465.00 L 643.00 422.50 ZM 649.00 422.50 C649.00,382.67 648.97,382.00 647.00,382.00 C645.03,382.00 645.00,382.67 645.00,422.50 C645.00,462.33 645.03,463.00 647.00,463.00 C648.97,463.00 649.00,462.33 649.00,422.50 ZM 823.00 422.50 L 823.00 380.00 L 827.50 380.00 L 832.00 380.00 L 832.00 422.50 L 832.00 465.00 L 827.50 465.00 L 823.00 465.00 L 823.00 422.50 ZM 830.00 422.43 L 830.00 381.86 L 827.75 382.18 L 825.50 382.50 L 825.24 422.75 L 824.98 463.00 L 827.49 463.00 L 830.00 463.00 L 830.00 422.43 ZM 856.00 422.50 C856.00,394.83 856.35,380.00 857.00,380.00 C857.65,380.00 858.00,394.83 858.00,422.50 C858.00,450.17 857.65,465.00 857.00,465.00 C856.35,465.00 856.00,450.17 856.00,422.50 ZM 946.24 422.75 L 946.50 381.50 L 967.25 381.23 L 988.00 380.96 L 988.00 422.48 L 988.00 464.00 L 966.99 464.00 L 945.98 464.00 L 946.24 422.75 ZM 986.00 422.48 L 986.00 382.96 L 967.25 383.23 L 948.50 383.50 L 948.24 422.75 L 947.98 462.00 L 966.99 462.00 L 986.00 462.00 L 986.00 422.48 ZM 1134.24 411.84 L 1134.50 381.50 L 1161.75 381.23 L 1189.00 380.97 L 1189.00 386.74 C1189.00,391.45 1188.63,392.75 1186.99,393.78 C1185.88,394.47 1173.91,405.49 1160.39,418.27 C1146.87,431.05 1135.39,441.65 1134.89,441.84 C1134.34,442.04 1134.08,429.93 1134.24,411.84 ZM 1164.48 411.84 C1186.07,391.40 1187.00,390.37 1187.00,386.76 L 1187.00 383.00 L 1161.50 383.00 L 1136.00 383.00 L 1136.00 410.59 L 1136.00 438.18 L 1138.98 435.67 C1140.62,434.29 1152.10,423.57 1164.48,411.84 ZM 317.67 437.33 C317.30,436.97 317.00,409.97 317.00,377.34 L 317.00 318.02 L 365.25 317.76 L 413.50 317.50 L 413.76 287.25 L 414.03 257.00 L 439.01 257.00 L 464.00 257.00 L 464.00 347.50 L 464.00 438.00 L 391.17 438.00 C351.11,438.00 318.03,437.70 317.67,437.33 ZM 462.00 347.50 L 462.00 259.00 L 439.01 259.00 L 416.03 259.00 L 415.76 289.25 L 415.50 319.50 L 367.25 319.76 L 319.00 320.02 L 319.00 378.01 L 319.00 436.00 L 390.50 436.00 L 462.00 436.00 L 462.00 347.50 ZM 1231.92 297.08 C1230.32,295.47 1229.00,293.20 1229.00,292.03 C1229.00,286.83 1233.88,282.00 1239.12,282.00 C1242.57,282.00 1247.00,287.32 1247.00,291.47 C1247.00,299.52 1237.79,302.95 1231.92,297.08 ZM 1243.17 296.35 C1246.00,293.78 1245.56,288.58 1242.29,286.02 C1239.13,283.53 1235.45,283.96 1232.75,287.15 C1230.45,289.87 1230.54,292.15 1233.07,295.37 C1235.51,298.46 1240.32,298.93 1243.17,296.35 ZM 1041.75 296.28 C1039.69,295.97 1039.00,295.30 1039.00,293.62 C1039.00,288.23 1034.50,288.48 1128.25,288.78 C1213.30,289.05 1215.00,289.09 1215.00,290.99 C1215.00,292.89 1213.42,292.93 1139.75,293.21 C1070.53,293.48 1064.20,293.64 1060.78,295.25 C1057.23,296.92 1048.95,297.37 1041.75,296.28 ZM 1059.19 293.90 C1060.32,293.29 1063.33,292.45 1065.87,292.02 C1069.47,291.41 1067.55,291.18 1057.25,290.97 C1049.96,290.82 1043.44,290.65 1042.76,290.60 C1040.76,290.44 1040.70,293.78 1042.69,294.30 C1046.31,295.24 1057.18,294.97 1059.19,293.90 ZM 945.66 341.75 C945.30,335.56 945.01,326.52 945.00,321.66 C945.00,313.00 945.07,312.73 948.49,308.75 C952.42,304.15 953.44,300.31 952.79,292.53 C952.30,286.61 948.72,280.74 944.40,278.77 C941.46,277.43 941.46,277.50 944.33,252.50 L 946.51 233.50 L 952.10 233.20 L 957.69 232.91 L 958.34 255.20 C958.70,267.47 959.29,294.49 959.65,315.25 L 960.32 353.00 L 953.31 353.00 L 946.31 353.00 L 945.66 341.75 ZM 957.63 310.25 C957.27,287.84 956.70,261.74 956.36,252.25 L 955.73 235.00 L 952.05 235.00 L 948.37 235.00 L 946.07 255.55 C944.80,266.85 943.93,276.22 944.13,276.37 C944.33,276.52 945.92,277.63 947.66,278.83 C952.14,281.92 955.00,288.36 955.00,295.35 C955.00,301.81 953.51,306.07 949.65,310.64 C946.66,314.20 946.47,316.82 947.65,338.84 L 948.31 351.00 L 953.29 351.00 L 958.28 351.00 L 957.63 310.25 ZM 884.50 297.97 C875.15,297.58 842.97,296.47 813.00,295.50 C783.03,294.53 758.18,293.46 757.79,293.11 C757.41,292.77 757.58,290.54 758.19,288.16 C759.04,284.80 760.18,283.25 763.33,281.17 C766.96,278.78 768.22,278.52 775.44,278.68 C779.87,278.78 805.10,281.35 831.50,284.41 C857.90,287.46 887.38,290.86 897.00,291.97 C921.05,294.74 921.00,294.73 921.00,297.05 C921.00,298.86 920.31,298.99 911.25,298.84 C905.89,298.75 893.85,298.36 884.50,297.97 ZM 917.00 296.39 C915.65,296.06 897.99,294.02 799.63,282.88 L 770.75 279.61 L 766.15 282.06 C762.71,283.88 761.31,285.33 760.62,287.77 C760.12,289.56 759.88,291.20 760.10,291.41 C760.32,291.61 791.10,292.74 828.50,293.92 C865.90,295.10 898.08,296.20 900.00,296.36 C905.16,296.81 918.75,296.83 917.00,296.39 ZM 410.00 234.50 C410.00,233.20 413.89,233.00 439.00,233.00 C464.11,233.00 468.00,233.20 468.00,234.50 C468.00,235.80 464.11,236.00 439.00,236.00 C413.89,236.00 410.00,235.80 410.00,234.50 ZM 486.00 234.67 C486.00,233.57 502.47,233.32 580.25,233.24 C632.09,233.19 675.29,233.37 676.25,233.64 C683.37,235.66 669.69,236.00 582.00,236.00 C502.71,236.00 486.00,235.77 486.00,234.67 ZM 945.00 208.57 C945.00,208.33 945.44,206.98 945.98,205.57 C946.90,203.13 947.32,203.00 954.48,203.00 L 962.00 203.00 L 962.00 206.00 L 962.00 209.00 L 953.50 209.00 C948.83,209.00 945.00,208.80 945.00,208.57 ZM 960.75 206.25 C961.06,205.33 959.40,205.00 954.58,205.00 C949.31,205.00 948.00,205.31 948.00,206.55 C948.00,207.81 949.14,208.04 954.17,207.80 C957.99,207.61 960.50,207.02 960.75,206.25 ZM 1250.00 175.00 L 1250.00 171.00 L 1258.50 171.00 L 1267.00 171.00 L 1267.00 175.00 L 1267.00 179.00 L 1258.50 179.00 L 1250.00 179.00 L 1250.00 175.00 ZM 1265.00 175.00 C1265.00,173.21 1264.33,173.00 1258.50,173.00 C1252.67,173.00 1252.00,173.21 1252.00,175.00 C1252.00,176.79 1252.67,177.00 1258.50,177.00 C1264.33,177.00 1265.00,176.79 1265.00,175.00 ZM 1338.20 473.80 C1336.40,472.00 1336.76,467.52 1338.92,464.86 C1340.77,462.57 1341.27,462.50 1355.17,462.57 C1371.71,462.64 1375.00,463.21 1375.00,465.97 C1375.00,469.18 1372.92,472.71 1370.34,473.89 C1366.91,475.45 1339.78,475.38 1338.20,473.80 ZM 1369.83 471.25 C1370.96,470.29 1372.02,468.60 1372.19,467.50 C1372.49,465.59 1371.86,465.49 1358.50,465.21 C1350.80,465.05 1343.49,465.17 1342.27,465.48 C1339.98,466.04 1338.27,470.00 1339.46,471.94 C1339.87,472.60 1345.31,473.00 1353.95,473.00 C1365.67,473.00 1368.09,472.73 1369.83,471.25 ZM 517.52 457.19 C514.41,456.93 512.44,455.83 508.52,452.17 C505.76,449.59 502.10,446.34 500.40,444.93 L 497.29 442.38 L 496.74 355.69 L 496.18 269.00 L 583.59 269.00 C641.20,269.00 671.00,269.34 671.00,270.00 C671.00,270.66 641.50,271.00 584.50,271.00 L 498.00 271.00 L 498.00 293.99 L 498.00 316.99 L 583.25 317.24 L 668.50 317.50 L 668.50 333.50 L 668.50 349.50 L 595.75 349.76 L 523.00 350.01 L 523.00 403.45 C523.00,432.84 522.66,457.03 522.25,457.21 C521.84,457.38 519.71,457.38 517.52,457.19 ZM 521.00 402.00 L 521.00 348.00 L 594.00 348.00 L 667.00 348.00 L 667.00 333.49 L 667.00 318.99 L 582.76 319.24 L 498.51 319.50 L 498.58 322.00 C498.62,323.38 498.75,350.83 498.86,383.00 L 499.07 441.50 L 506.77 448.00 C513.92,454.04 516.56,455.65 519.75,455.90 C520.74,455.98 521.00,444.59 521.00,402.00 ZM 502.48 304.61 C501.59,295.18 502.42,276.98 503.77,276.14 C504.34,275.79 512.61,275.73 522.15,276.00 L 539.50 276.50 L 539.50 294.00 L 539.50 311.50 L 521.34 311.77 L 503.17 312.04 L 502.48 304.61 ZM 537.77 293.75 L 537.50 277.50 L 521.66 277.67 C512.95,277.76 505.63,278.04 505.39,278.28 C505.06,278.61 504.70,304.70 504.96,309.25 C504.98,309.66 512.44,310.00 521.52,310.00 L 538.05 310.00 L 537.77 293.75 ZM 545.44 310.71 C545.17,310.00 545.07,302.02 545.22,292.96 L 545.50 276.50 L 563.75 276.23 L 582.00 275.95 L 582.00 293.98 L 582.00 312.00 L 563.97 312.00 C550.18,312.00 545.82,311.70 545.44,310.71 ZM 580.00 293.50 L 580.00 277.00 L 573.25 277.01 C569.54,277.01 562.11,277.30 556.75,277.66 L 547.00 278.30 L 547.00 293.48 C547.00,301.83 547.30,308.97 547.67,309.33 C548.03,309.70 555.46,310.00 564.17,310.00 L 580.00 310.00 L 580.00 293.50 ZM 588.48 309.75 C588.18,308.51 588.06,300.52 588.21,292.00 L 588.50 276.50 L 606.75 276.23 L 625.00 275.95 L 625.00 293.98 L 625.00 312.00 L 607.02 312.00 C589.20,312.00 589.03,311.98 588.48,309.75 ZM 623.00 293.44 L 623.00 276.89 L 606.75 277.19 L 590.50 277.50 L 590.22 292.46 C590.07,300.68 590.17,307.99 590.44,308.71 C590.82,309.69 594.78,310.00 606.97,310.00 L 623.00 310.00 L 623.00 293.44 ZM 632.48 309.75 C632.18,308.51 632.06,300.52 632.21,292.00 L 632.50 276.50 L 650.75 276.23 L 669.00 275.95 L 669.00 293.98 L 669.00 312.00 L 651.02 312.00 C633.20,312.00 633.03,311.98 632.48,309.75 ZM 667.11 293.52 C667.11,282.32 666.77,277.42 665.96,277.15 C665.32,276.94 657.87,277.09 649.40,277.49 L 634.00 278.21 L 634.00 294.13 L 634.00 310.05 L 650.56 309.77 L 667.11 309.50 L 667.11 293.52 ZM 715.00 422.50 L 715.00 388.00 L 724.50 388.00 L 734.00 388.00 L 734.00 422.50 L 734.00 457.00 L 724.50 457.00 L 715.00 457.00 L 715.00 422.50 ZM 732.00 422.42 L 732.00 390.00 L 724.50 390.00 L 717.00 390.00 L 717.00 422.75 L 717.00 455.50 L 724.50 455.17 L 732.00 454.84 L 732.00 422.42 ZM 953.00 422.47 L 953.00 387.95 L 967.25 388.22 C977.90,388.43 981.47,388.82 981.40,389.75 C981.34,390.44 981.23,405.85 981.15,424.00 L 981.00 457.00 L 967.00 457.00 L 953.00 457.00 L 953.00 422.47 ZM 979.00 422.44 L 979.00 390.00 L 967.00 390.00 L 955.00 390.00 L 955.00 422.33 C955.00,440.12 955.19,454.85 955.41,455.08 C955.64,455.31 961.04,455.36 967.41,455.19 L 979.00 454.88 L 979.00 422.44 ZM 1141.00 407.66 L 1141.00 388.00 L 1161.00 388.00 C1172.00,388.00 1181.00,388.30 1181.00,388.67 C1181.00,389.24 1172.06,397.92 1147.25,421.40 L 1141.00 427.32 L 1141.00 407.66 ZM 1169.50 397.77 L 1177.50 390.03 L 1160.25 390.02 L 1143.00 390.00 L 1143.00 406.36 L 1143.00 422.72 L 1152.25 414.12 C1157.34,409.39 1165.10,402.03 1169.50,397.77 ZM 324.00 377.50 L 324.00 324.00 L 371.94 324.00 L 419.87 324.00 L 420.19 320.75 L 420.50 317.50 L 439.00 317.50 L 457.50 317.50 L 457.76 374.25 L 458.02 431.00 L 391.01 431.00 L 324.00 431.00 L 324.00 377.50 ZM 456.00 374.00 L 456.00 319.00 L 439.06 319.00 L 422.13 319.00 L 421.81 322.25 L 421.50 325.50 L 373.75 325.76 L 326.00 326.02 L 326.00 377.51 L 326.00 429.00 L 391.00 429.00 L 456.00 429.00 L 456.00 374.00 ZM 420.69 311.36 C420.31,310.98 420.00,302.86 420.00,293.31 L 420.00 275.96 L 438.75 276.23 L 457.50 276.50 L 457.50 294.00 L 457.50 311.50 L 439.44 311.77 C429.50,311.92 421.07,311.73 420.69,311.36 ZM 455.77 293.75 L 455.50 277.50 L 439.00 277.67 L 422.50 277.83 L 422.23 293.92 L 421.95 310.00 L 439.00 310.00 L 456.05 310.00 L 455.77 293.75 ZM 419.39 269.57 C419.09,268.79 418.99,267.10 419.17,265.82 L 419.50 263.50 L 439.00 263.50 L 458.50 263.50 L 458.35 266.50 C458.27,268.15 458.16,269.84 458.10,270.25 C458.05,270.66 449.44,271.00 438.97,271.00 C423.41,271.00 419.84,270.74 419.39,269.57 ZM 456.81 266.75 C457.12,265.14 455.75,265.00 439.07,265.00 C421.60,265.00 421.00,265.07 421.00,267.02 C421.00,268.99 421.51,269.04 438.74,268.77 C454.71,268.53 456.51,268.33 456.81,266.75 ZM 1235.20 294.80 C1233.54,293.14 1233.70,289.50 1235.49,288.01 C1237.53,286.32 1241.72,287.55 1242.52,290.07 C1243.79,294.05 1238.11,297.71 1235.20,294.80 ZM 1240.50 291.49 C1240.50,290.19 1239.72,289.39 1238.25,289.18 C1236.59,288.95 1236.00,289.36 1236.00,290.76 C1236.00,291.81 1236.32,292.98 1236.70,293.37 C1238.03,294.69 1240.50,293.47 1240.50,291.49 ZM 792.00 289.82 C777.97,289.34 765.89,288.73 765.14,288.46 C763.28,287.80 765.15,285.59 768.89,284.05 C771.17,283.10 777.06,283.48 799.61,286.03 C827.23,289.15 836.98,291.06 824.00,290.81 C820.42,290.74 806.03,290.30 792.00,289.82 ZM 784.54 286.32 C777.86,285.52 771.47,285.23 770.04,285.67 C767.27,286.53 777.64,287.58 790.00,287.69 C795.22,287.74 794.15,287.47 784.54,286.32 ZM 509.25 443.76 L 503.00 438.64 L 503.00 381.32 L 503.00 324.00 L 582.50 324.00 L 662.00 324.00 L 662.00 333.41 L 662.00 342.83 L 650.25 343.17 C643.79,343.37 611.16,343.49 577.75,343.45 L 517.00 343.38 L 516.84 377.94 C516.75,396.95 516.80,418.46 516.96,425.75 C517.27,440.43 516.75,441.48 511.73,436.24 L 509.09 433.48 L 509.31 381.99 L 509.54 330.50 L 582.77 330.24 L 656.00 329.99 L 656.00 333.49 L 656.00 337.00 L 585.50 337.00 C539.17,337.00 515.00,336.66 515.00,336.00 C515.00,335.34 538.83,335.00 584.50,335.00 C645.75,335.00 654.00,334.82 654.00,333.49 C654.00,332.16 645.68,332.02 582.82,332.24 L 511.65 332.50 L 511.90 382.97 C512.04,410.73 512.37,433.79 512.64,434.22 C514.62,437.43 515.00,430.64 515.24,388.25 L 515.50 341.50 L 587.75 341.50 L 660.00 341.50 L 660.00 333.75 L 660.00 326.00 L 582.50 326.00 L 505.00 326.00 L 505.00 381.75 L 505.01 437.50 L 511.00 442.35 C516.41,446.72 518.32,449.11 516.25,448.94 C515.84,448.90 512.69,446.57 509.25,443.76 ZM 520.25 305.22 L 509.00 304.93 L 509.00 293.47 L 509.00 282.00 L 521.00 282.00 L 533.00 282.00 L 533.00 293.44 C533.00,299.73 532.66,305.02 532.25,305.19 C531.84,305.36 526.44,305.37 520.25,305.22 ZM 531.00 293.50 L 531.00 284.00 L 521.00 284.00 L 511.00 284.00 L 511.00 293.50 L 511.00 303.00 L 521.00 303.00 L 531.00 303.00 L 531.00 293.50 ZM 563.25 305.22 L 552.00 304.93 L 552.00 293.44 L 552.00 281.94 L 563.75 282.22 L 575.50 282.50 L 575.79 293.41 C575.94,299.42 575.72,304.59 575.29,304.91 C574.85,305.24 569.44,305.37 563.25,305.22 ZM 574.00 293.44 L 574.00 284.00 L 564.00 284.00 L 554.00 284.00 L 554.00 293.46 L 554.00 302.92 L 563.25 303.21 C568.34,303.37 572.84,303.36 573.25,303.19 C573.66,303.02 574.00,298.63 574.00,293.44 ZM 595.00 293.50 L 595.00 282.00 L 607.00 282.00 L 619.00 282.00 L 619.00 293.50 L 619.00 305.00 L 607.00 305.00 L 595.00 305.00 L 595.00 293.50 ZM 617.00 293.50 L 617.00 284.00 L 607.00 284.00 L 597.00 284.00 L 597.00 293.50 L 597.00 303.00 L 607.00 303.00 L 617.00 303.00 L 617.00 293.50 ZM 639.00 293.50 L 639.00 282.00 L 651.00 282.00 L 663.00 282.00 L 663.00 293.50 L 663.00 305.00 L 651.00 305.00 L 639.00 305.00 L 639.00 293.50 ZM 661.00 293.44 L 661.00 284.00 L 651.00 284.00 L 641.00 284.00 L 641.00 293.46 L 641.00 302.92 L 650.25 303.21 C655.34,303.37 659.84,303.36 660.25,303.19 C660.66,303.02 661.00,298.63 661.00,293.44 ZM 722.00 422.50 L 722.00 395.00 L 724.50 395.00 L 727.00 395.00 L 727.00 422.50 L 727.00 450.00 L 724.50 450.00 L 722.00 450.00 L 722.00 422.50 ZM 725.00 423.00 C725.00,405.34 724.66,397.00 723.94,397.00 C723.21,397.00 722.94,404.99 723.07,422.25 C723.25,445.87 723.43,449.00 724.56,449.00 C724.80,449.00 725.00,437.30 725.00,423.00 ZM 960.67 450.33 C960.30,449.97 960.00,437.37 960.00,422.33 L 960.00 395.00 L 967.50 395.00 L 975.00 395.00 L 975.00 422.39 C975.00,446.45 974.81,449.86 973.42,450.39 C971.28,451.21 961.50,451.17 960.67,450.33 ZM 973.00 423.00 L 973.00 397.00 L 967.50 397.00 L 962.00 397.00 L 962.00 423.00 L 962.00 449.00 L 967.50 449.00 L 973.00 449.00 L 973.00 423.00 ZM 1148.00 402.50 L 1148.00 395.00 L 1156.22 395.00 L 1164.45 395.00 L 1157.00 402.50 C1152.90,406.62 1149.20,410.00 1148.78,410.00 C1148.35,410.00 1148.00,406.62 1148.00,402.50 ZM 1158.97 398.54 C1160.09,397.19 1159.62,397.00 1155.12,397.00 L 1150.00 397.00 L 1150.00 401.58 L 1150.00 406.17 L 1153.85 403.12 C1155.96,401.45 1158.27,399.38 1158.97,398.54 ZM 330.46 423.75 C330.19,423.06 330.10,401.89 330.24,376.69 L 330.50 330.89 L 377.49 330.69 L 424.48 330.50 L 425.00 327.50 L 425.52 324.50 L 438.26 324.22 L 451.00 323.94 L 451.00 374.47 L 451.00 425.00 L 390.97 425.00 C343.87,425.00 330.83,424.73 330.46,423.75 ZM 449.51 407.75 C449.92,399.36 450.09,377.54 449.88,359.25 L 449.50 326.01 L 438.31 326.00 L 427.13 326.00 L 426.81 329.25 C426.58,331.69 426.00,332.53 424.50,332.60 C423.40,332.66 402.14,332.77 377.25,332.85 L 332.00 333.00 L 332.00 340.50 L 332.00 348.00 L 388.04 348.00 L 444.08 348.00 L 443.79 340.25 L 443.50 332.50 L 438.60 332.50 C434.17,332.50 433.66,332.74 433.33,334.94 C433.12,336.28 432.70,337.63 432.39,337.94 C432.09,338.25 410.95,338.63 385.42,338.79 C345.49,339.04 339.00,339.28 339.00,340.54 C339.00,341.80 345.74,342.00 388.50,342.00 L 438.00 342.00 L 438.00 339.00 C438.00,337.35 438.45,336.00 439.00,336.00 C439.55,336.00 440.00,337.80 440.00,340.00 L 440.00 344.00 L 388.50 344.00 L 337.00 344.00 L 337.00 340.50 L 337.00 337.00 L 381.38 337.00 C405.78,337.00 427.16,336.72 428.88,336.38 C431.51,335.85 432.00,335.30 432.00,332.88 C432.00,330.00 432.01,330.00 438.50,330.00 L 445.00 330.00 L 445.00 339.99 L 445.00 349.98 L 388.75 350.24 L 332.50 350.50 L 332.24 386.75 L 331.98 423.00 L 390.37 423.00 L 448.77 423.00 L 449.51 407.75 ZM 427.00 293.75 L 427.00 282.00 L 439.03 282.00 L 451.06 282.00 L 450.78 293.75 L 450.50 305.50 L 438.75 305.50 L 427.00 305.50 L 427.00 293.75 ZM 440.58 303.00 L 449.00 303.00 L 449.00 293.50 L 449.00 284.00 L 439.00 284.00 L 429.00 284.00 L 429.00 294.11 C429.00,302.91 429.20,304.14 430.58,303.61 C431.45,303.27 435.95,303.00 440.58,303.00 ZM 515.00 294.05 L 515.00 288.00 L 521.55 288.00 L 528.10 288.00 L 527.80 293.75 L 527.50 299.50 L 521.25 299.80 L 515.00 300.10 L 515.00 294.05 ZM 525.65 293.75 L 525.89 290.00 L 521.16 290.00 C516.60,290.00 516.42,290.11 516.19,293.06 C515.86,297.42 516.65,298.15 521.30,297.80 C525.29,297.51 525.42,297.38 525.65,293.75 ZM 557.67 299.33 C557.30,298.97 557.00,296.27 557.00,293.33 L 557.00 288.00 L 563.50 288.00 L 570.00 288.00 L 570.00 294.00 L 570.00 300.00 L 564.17 300.00 C560.96,300.00 558.03,299.70 557.67,299.33 ZM 568.00 294.00 L 568.00 290.00 L 563.50 290.00 L 559.00 290.00 L 559.00 294.00 L 559.00 298.00 L 563.50 298.00 L 568.00 298.00 L 568.00 294.00 ZM 600.00 294.00 L 600.00 288.00 L 606.50 288.00 L 613.00 288.00 L 613.00 294.00 L 613.00 300.00 L 606.50 300.00 L 600.00 300.00 L 600.00 294.00 ZM 611.40 293.75 L 611.50 290.00 L 606.75 290.00 L 602.00 290.00 L 602.00 294.05 L 602.00 298.11 L 606.65 297.80 C611.28,297.50 611.30,297.49 611.40,293.75 ZM 644.67 299.33 C644.30,298.97 644.00,296.27 644.00,293.33 L 644.00 288.00 L 650.50 288.00 L 657.00 288.00 L 657.00 294.00 L 657.00 300.00 L 651.17 300.00 C647.96,300.00 645.03,299.70 644.67,299.33 ZM 655.00 294.00 L 655.00 290.00 L 650.50 290.00 C646.07,290.00 646.00,290.05 646.00,293.33 C646.00,297.56 646.49,298.00 651.17,298.00 C654.97,298.00 655.00,297.97 655.00,294.00 ZM 966.00 423.06 C966.00,410.18 966.38,401.88 967.00,401.50 C967.65,401.10 968.00,408.32 968.00,422.44 C968.00,436.15 967.64,444.00 967.00,444.00 C966.37,444.00 966.00,436.35 966.00,423.06 ZM 336.18 415.25 L 336.50 412.50 L 390.75 412.24 L 445.00 411.98 L 445.00 414.99 L 445.00 418.00 L 390.43 418.00 L 335.87 418.00 L 336.18 415.25 ZM 443.00 415.12 C443.00,413.91 339.20,413.86 338.46,415.07 C338.10,415.64 358.12,416.00 390.44,416.00 C420.03,416.00 443.00,415.62 443.00,415.12 ZM 335.46 406.75 C335.19,406.04 335.08,394.22 335.23,380.48 L 335.50 355.50 L 361.50 355.50 L 387.50 355.50 L 387.50 381.50 L 387.50 407.50 L 361.73 407.77 C341.46,407.98 335.84,407.76 335.46,406.75 ZM 386.00 381.50 L 386.00 357.00 L 361.50 357.00 L 337.00 357.00 L 337.00 380.83 C337.00,393.94 337.30,404.97 337.67,405.33 C338.03,405.70 349.06,406.00 362.17,406.00 L 386.00 406.00 L 386.00 381.50 ZM 394.46 406.75 C394.19,406.04 394.08,394.22 394.23,380.48 L 394.50 355.50 L 420.50 355.50 L 446.50 355.50 L 446.50 381.50 L 446.50 407.50 L 420.73 407.77 C400.46,407.98 394.84,407.76 394.46,406.75 ZM 444.77 381.25 L 445.04 357.00 L 420.52 357.00 L 396.00 357.00 L 396.00 381.52 L 396.00 406.04 L 420.25 405.77 L 444.50 405.50 L 444.77 381.25 ZM 432.67 299.33 C432.30,298.97 432.00,296.27 432.00,293.33 L 432.00 288.00 L 438.50 288.00 L 445.00 288.00 L 445.00 294.00 L 445.00 300.00 L 439.17 300.00 C435.96,300.00 433.03,299.70 432.67,299.33 ZM 443.00 294.00 L 443.00 290.00 L 438.50 290.00 L 434.00 290.00 L 434.00 294.00 L 434.00 298.00 L 438.50 298.00 L 443.00 298.00 L 443.00 294.00 ZM 341.94 400.61 C341.70,400.37 341.73,391.47 342.00,380.84 L 342.50 361.50 L 361.00 361.74 C371.17,361.87 380.07,362.20 380.77,362.47 C381.75,362.84 381.98,367.26 381.77,381.73 L 381.50 400.50 L 361.94 400.77 C351.18,400.92 342.18,400.85 341.94,400.61 ZM 379.77 381.46 L 379.50 363.93 L 361.70 363.87 L 343.90 363.82 L 343.70 381.41 L 343.50 399.00 L 361.77 399.00 L 380.05 399.00 L 379.77 381.46 ZM 400.73 400.40 C400.40,400.07 400.34,391.63 400.59,381.65 C400.84,371.67 401.03,362.90 401.02,362.17 C401.00,361.13 403.63,360.88 413.25,361.02 C419.99,361.12 428.76,361.44 432.75,361.74 L 440.00 362.28 L 440.00 381.64 L 440.00 401.00 L 420.67 401.00 C410.03,401.00 401.06,400.73 400.73,400.40 ZM 438.00 381.50 L 438.00 364.00 L 420.01 364.00 L 402.01 364.00 L 402.43 366.25 C402.66,367.49 402.88,375.36 402.93,383.75 L 403.00 399.00 L 420.50 399.00 L 438.00 399.00 L 438.00 381.50 ZM 348.45 393.72 C348.16,392.99 348.06,387.01 348.22,380.44 L 348.50 368.50 L 361.78 368.22 L 375.06 367.94 L 374.78 381.22 L 374.50 394.50 L 361.73 394.78 C351.79,395.00 348.85,394.76 348.45,393.72 ZM 373.00 381.50 L 373.00 370.00 L 361.50 370.00 L 350.00 370.00 L 350.00 381.50 L 350.00 393.00 L 361.50 393.00 L 373.00 393.00 L 373.00 381.50 ZM 407.00 381.50 L 407.00 367.94 L 420.25 368.22 L 433.50 368.50 L 433.50 381.50 L 433.50 394.50 L 420.25 394.78 L 407.00 395.06 L 407.00 381.50 ZM 431.78 381.75 L 431.50 370.50 L 420.25 370.22 L 409.00 369.93 L 409.00 381.47 L 409.00 393.00 L 420.53 393.00 L 432.07 393.00 L 431.78 381.75 ZM 353.96 388.63 C353.70,388.38 353.65,384.97 353.83,381.05 L 354.17 373.92 L 361.83 374.21 L 369.50 374.50 L 369.50 381.50 L 369.50 388.50 L 361.96 388.79 C357.81,388.95 354.21,388.87 353.96,388.63 ZM 367.52 381.50 L 367.50 376.00 L 361.50 376.00 L 355.50 376.00 L 355.50 381.50 L 355.50 386.99 L 361.52 387.00 L 367.53 387.00 L 367.52 381.50 ZM 412.67 388.33 C412.30,387.97 412.00,384.59 412.00,380.83 L 412.00 374.00 L 420.00 374.00 L 428.00 374.00 L 428.00 381.50 L 428.00 389.00 L 420.67 389.00 C416.63,389.00 413.03,388.70 412.67,388.33 ZM 426.00 381.50 L 426.00 376.00 L 419.92 376.00 L 413.85 376.00 L 414.09 380.75 C414.22,383.36 414.51,385.84 414.72,386.25 C414.94,386.66 417.57,387.00 420.56,387.00 L 426.00 387.00 L 426.00 381.50 Z" fill="rgba(0,0,0,1)"/>
</g>
</svg>