<svg xmlns="http://www.w3.org/2000/svg" width="1531" height="685" viewBox="0 0 1531 685">
<g>
<path d="M 137.99 619.13 C127.56,615.79 117.48,608.13 115.06,601.68 C113.41,597.30 113.80,591.30 116.03,586.95 C119.35,580.44 124.61,577.18 148.36,566.94 C163.38,560.46 164.99,555.82 157.72,539.96 C153.68,531.15 106.18,446.98 85.51,412.00 C81.77,405.67 76.89,397.41 74.66,393.64 C71.52,388.31 70.52,385.49 70.19,381.02 C69.90,376.93 70.17,375.02 71.11,374.43 C71.84,373.98 102.15,373.54 138.47,373.46 C174.79,373.37 206.88,373.23 209.78,373.15 L 215.06 373.00 L 214.78 359.75 L 214.50 346.50 L 206.25 346.21 L 198.00 345.92 L 198.00 339.00 L 198.00 332.08 L 206.25 331.79 L 214.50 331.50 L 214.75 304.50 C214.88,289.65 215.21,276.94 215.47,276.25 C216.12,274.51 226.41,274.59 227.87,276.34 C228.55,277.16 229.19,284.70 229.52,295.59 C229.82,305.44 230.31,317.56 230.61,322.52 L 231.15 331.54 L 235.53 331.65 C242.69,331.82 243.00,332.14 243.00,339.42 L 243.00 345.90 L 237.25 346.20 L 231.50 346.50 L 231.86 359.50 C232.06,366.65 232.35,372.64 232.50,372.80 C232.65,372.97 260.37,373.28 294.10,373.49 C349.86,373.83 355.54,374.02 356.65,375.53 C357.71,376.99 358.14,376.67 360.13,372.85 C362.31,368.68 362.43,367.14 363.11,335.50 C363.51,317.35 363.87,284.69 363.91,262.92 L 364.00 223.33 L 367.55 207.49 C369.50,198.78 371.33,191.28 371.61,190.83 C371.89,190.37 377.93,190.00 385.03,190.00 L 397.95 190.00 L 399.38 192.75 C400.56,195.02 408.70,199.29 446.15,217.26 C471.09,229.22 492.16,239.01 492.96,239.01 C494.51,239.00 497.59,237.80 559.43,213.13 C598.39,197.58 599.40,197.11 601.20,193.60 C603.31,189.48 602.77,189.57 618.50,191.02 C627.61,191.86 629.80,192.39 631.21,194.08 C632.16,195.21 644.31,201.46 658.21,207.96 C672.12,214.46 696.50,225.91 712.39,233.39 C728.29,240.88 741.79,247.00 742.39,247.01 C743.42,247.01 766.13,239.22 812.50,222.96 C832.52,215.94 832.29,216.08 835.22,208.68 C835.40,208.23 841.38,207.25 848.52,206.50 C859.79,205.32 861.80,205.33 863.75,206.59 C864.99,207.39 866.00,208.42 866.00,208.88 C866.00,209.86 869.35,211.42 933.50,240.22 C1075.27,303.87 1063.38,299.00 1076.92,299.00 L 1087.95 299.00 L 1088.22 284.75 L 1088.50 270.50 L 1122.65 270.24 L 1156.81 269.97 L 1157.41 259.74 C1157.73,254.11 1158.34,241.40 1158.75,231.50 L 1159.50 213.50 L 1171.10 213.22 L 1182.70 212.94 L 1183.34 226.72 C1183.70,234.30 1184.28,247.14 1184.64,255.25 L 1185.30 270.00 L 1190.14 270.00 L 1194.97 270.00 L 1195.23 241.75 L 1195.50 213.50 L 1204.09 213.21 L 1212.68 212.93 L 1213.34 233.21 C1213.70,244.37 1214.00,257.21 1214.00,261.75 L 1214.00 270.00 L 1254.50 270.00 L 1295.00 270.00 L 1295.00 296.50 L 1295.00 323.00 L 1321.00 323.00 L 1347.00 323.00 L 1347.11 327.75 C1347.17,330.36 1347.34,334.08 1347.50,336.00 C1347.66,337.92 1347.83,354.01 1347.89,371.75 L 1348.00 404.00 L 1368.92 404.00 C1380.42,404.00 1390.55,404.27 1391.42,404.61 C1392.76,405.12 1393.00,407.38 1393.00,419.36 C1393.00,461.44 1381.92,502.14 1362.80,530.29 C1345.42,555.88 1314.34,574.82 1276.50,582.88 C1265.02,585.32 1264.39,585.60 1263.16,588.82 C1262.32,591.02 1259.00,615.77 1259.00,619.85 C1259.00,620.72 1121.17,620.99 701.25,620.95 C171.19,620.90 143.23,620.80 137.99,619.13 ZM 1256.00 618.62 C1256.03,614.98 1260.26,587.39 1260.99,586.02 C1262.51,583.17 1264.58,582.31 1275.63,579.93 C1296.05,575.53 1315.66,567.74 1329.48,558.54 C1337.65,553.10 1352.00,540.60 1352.00,538.91 C1352.00,538.38 1110.81,538.01 760.00,538.00 C434.40,538.00 168.00,538.33 168.01,538.75 C168.02,539.16 168.69,541.71 169.51,544.41 C172.63,554.68 170.30,564.38 163.47,569.59 C161.64,570.99 154.43,574.56 147.45,577.54 C127.38,586.10 123.00,589.25 123.00,595.15 C123.00,600.78 131.95,607.75 142.71,610.50 C147.87,611.83 213.00,611.97 699.48,611.75 L 1250.39 611.50 L 1252.03 598.33 C1254.39,579.36 1255.75,577.88 1274.92,573.43 C1289.37,570.08 1303.90,565.07 1314.42,559.82 C1322.57,555.74 1336.95,546.14 1336.98,544.75 C1336.99,544.34 1309.31,544.00 1275.47,544.00 L 1213.94 544.00 L 1205.22 551.09 C1185.21,567.36 1158.14,582.46 1135.01,590.28 L 1122.50 594.50 L 636.50 594.70 L 150.50 594.90 L 160.75 589.85 C177.07,581.81 184.32,573.77 186.97,560.75 L 188.14 555.00 L 688.82 555.02 L 1189.50 555.03 L 1179.50 561.62 C1167.68,569.40 1146.71,579.87 1135.59,583.55 C1117.87,589.40 1153.62,589.00 644.91,589.00 C387.56,589.00 177.00,588.87 177.00,588.71 C177.00,588.55 179.64,585.70 182.86,582.39 C188.56,576.52 193.00,568.02 193.00,562.96 C193.00,561.02 196.76,561.00 680.25,561.03 C1121.37,561.06 1167.31,561.21 1165.50,562.62 C1161.92,565.40 1139.72,575.72 1131.00,578.65 L 1122.50 581.50 L 1030.00 582.00 C979.12,582.28 769.83,582.39 564.91,582.25 L 192.31 582.00 L 194.99 576.69 C196.46,573.77 197.93,570.39 198.24,569.19 L 198.81 567.00 L 669.41 567.00 C928.23,567.00 1140.00,567.25 1140.00,567.56 C1140.00,568.58 1128.83,573.06 1122.63,574.52 C1117.33,575.77 1054.63,575.97 659.05,575.99 C356.07,575.99 201.94,575.66 202.59,575.01 C203.25,574.35 359.73,573.93 661.04,573.76 C1083.41,573.52 1118.85,573.37 1123.00,571.85 C1127.19,570.31 1096.09,570.19 664.27,570.10 L 201.04 570.00 L 199.02 573.96 C197.91,576.14 197.00,578.39 197.00,578.97 C197.00,579.69 338.12,579.93 658.75,579.76 L 1120.50 579.50 L 1129.00 576.63 C1139.17,573.20 1157.00,565.06 1157.00,563.86 C1157.00,563.38 942.93,563.11 676.41,563.25 L 195.82 563.50 L 193.82 569.61 C192.71,572.97 190.05,578.04 187.91,580.88 C185.76,583.72 184.00,586.14 184.00,586.27 C184.00,586.67 1084.68,586.11 1104.00,585.70 C1125.36,585.24 1130.74,583.95 1150.65,574.52 C1161.45,569.40 1181.00,558.42 1181.00,557.47 C1181.00,557.21 958.12,557.00 685.70,557.00 L 190.40 557.00 L 189.18 562.92 C186.96,573.67 178.92,583.33 166.97,589.62 L 161.50 592.50 L 216.50 592.76 C246.75,592.90 462.30,592.89 695.50,592.74 L 1119.50 592.46 L 1127.00 590.27 C1137.67,587.15 1152.60,580.91 1164.91,574.42 C1175.97,568.59 1196.68,555.30 1198.94,552.58 C1200.13,551.14 1154.68,551.00 692.26,551.00 L 184.28 551.00 L 183.65 557.10 C182.87,564.53 178.18,573.86 173.07,578.14 C169.84,580.85 158.33,586.79 144.20,593.04 L 138.90 595.39 L 141.70 596.95 C144.22,598.34 192.99,598.53 629.50,598.79 C986.75,599.01 1116.08,598.79 1120.50,597.95 C1144.75,593.39 1182.03,574.69 1206.78,554.69 L 1215.05 548.00 L 1270.53 548.00 C1301.60,548.00 1326.00,548.39 1326.00,548.88 C1326.00,550.33 1302.15,561.70 1292.47,564.86 C1287.51,566.48 1278.74,568.81 1272.97,570.02 C1254.33,573.96 1250.89,577.55 1248.48,595.65 C1247.69,601.62 1247.03,606.84 1247.02,607.25 C1247.01,607.67 998.71,607.89 695.25,607.75 L 143.50 607.50 L 138.56 605.22 C121.34,597.28 123.21,591.80 146.51,582.04 C165.56,574.05 171.07,569.76 174.00,560.61 C175.19,556.90 174.93,549.44 173.42,544.25 L 172.77 542.00 L 758.56 542.00 L 1344.36 542.00 L 1340.00 545.75 C1323.26,560.15 1303.03,569.80 1277.72,575.44 C1263.43,578.63 1262.13,579.11 1259.17,582.30 C1256.46,585.21 1255.64,588.49 1253.94,603.25 L 1252.71 614.01 L 696.60 613.75 L 140.50 613.50 L 136.00 611.36 C124.96,606.12 119.13,599.23 120.49,593.06 C121.18,589.92 127.00,583.98 131.70,581.61 C133.47,580.72 140.12,577.79 146.49,575.09 C163.91,567.71 168.17,563.60 168.30,554.07 C168.39,547.39 165.21,538.00 162.86,538.00 C160.56,538.00 160.56,537.73 163.11,546.12 C167.14,559.41 164.11,563.65 144.80,571.80 C122.67,581.14 117.00,585.81 117.00,594.70 C117.00,597.12 117.64,600.31 118.41,601.80 C122.28,609.18 134.99,616.54 146.16,617.85 C150.99,618.41 1256.00,619.19 1256.00,618.62 ZM 1246.10 594.46 C1247.81,582.68 1248.73,580.14 1252.87,575.66 C1256.70,571.52 1259.31,570.44 1272.52,567.48 C1288.24,563.95 1300.07,560.01 1309.65,555.11 L 1317.50 551.10 L 1266.68 551.05 L 1215.86 551.00 L 1207.68 557.38 C1187.27,573.30 1159.25,588.85 1138.99,595.49 L 1128.50 598.93 L 1183.63 598.97 L 1238.76 599.00 L 1239.89 591.36 C1241.81,578.44 1246.73,570.28 1255.23,565.90 C1257.29,564.84 1264.89,562.64 1272.13,561.01 C1279.37,559.38 1285.53,557.81 1285.81,557.52 C1286.92,556.41 1272.16,557.11 1265.77,558.46 C1248.16,562.19 1239.30,571.20 1236.65,588.09 L 1235.56 595.00 L 1194.03 594.99 L 1152.50 594.97 L 1165.00 588.70 C1182.57,579.88 1199.28,569.16 1213.52,557.56 L 1216.54 555.10 L 1251.02 554.66 C1269.98,554.42 1288.65,554.52 1292.50,554.88 L 1299.50 555.54 L 1290.00 558.76 C1284.78,560.52 1276.13,562.86 1270.79,563.95 C1255.34,567.11 1250.00,570.24 1246.01,578.48 C1244.33,581.95 1241.03,596.98 1241.00,601.26 C1241.00,601.67 994.51,601.90 693.25,601.76 L 145.50 601.50 L 140.25 599.13 C137.36,597.82 135.00,596.20 135.00,595.53 C135.00,594.85 141.77,591.25 150.03,587.52 C158.30,583.79 166.81,579.47 168.93,577.93 C176.90,572.16 181.00,563.99 181.00,553.87 L 181.00 548.00 L 693.25 547.97 C1217.22,547.94 1209.00,547.99 1209.00,544.64 C1209.00,544.29 976.68,544.00 692.74,544.00 L 176.49 544.00 L 176.85 551.94 C177.16,558.76 176.85,560.64 174.69,565.36 C171.41,572.54 166.20,576.30 149.50,583.56 C133.74,590.41 130.00,592.60 130.00,594.99 C130.00,598.70 138.87,603.78 148.00,605.31 C149.38,605.54 396.65,605.68 697.50,605.61 L 1244.50 605.50 L 1246.10 594.46 ZM 1233.39 591.42 C1233.73,590.55 1234.00,589.02 1234.00,588.02 C1234.00,587.03 1234.91,583.26 1236.02,579.66 C1238.53,571.54 1245.62,563.30 1253.30,559.59 L 1258.50 557.07 L 1238.34 557.04 L 1218.18 557.00 L 1212.84 561.30 C1199.51,572.03 1184.69,581.69 1171.25,588.40 C1167.26,590.39 1164.00,592.24 1164.00,592.51 C1164.00,592.78 1179.48,593.00 1198.39,593.00 C1228.83,593.00 1232.86,592.82 1233.39,591.42 ZM 161.87 532.75 C154.36,518.69 97.44,418.70 85.38,398.39 C80.77,390.62 77.00,383.31 77.00,382.14 L 77.00 380.00 L 213.83 380.00 L 350.65 380.00 L 352.70 382.25 C353.82,383.49 359.23,391.25 364.73,399.50 C377.93,419.33 382.52,423.46 397.95,429.37 L 403.50 431.50 L 814.00 431.75 C1203.47,431.99 1224.68,431.92 1227.97,430.25 C1229.87,429.29 1233.92,425.42 1236.97,421.66 C1245.96,410.55 1238.43,411.50 1317.50,411.50 L 1386.50 411.50 L 1386.27 424.97 C1385.63,463.54 1374.54,501.68 1356.38,527.80 C1353.97,531.26 1352.00,534.33 1352.00,534.62 C1352.00,534.90 1352.99,535.00 1354.19,534.82 C1358.78,534.15 1372.13,510.33 1378.85,490.81 C1386.23,469.42 1390.00,445.77 1390.00,420.96 L 1390.00 406.85 L 1319.25 407.27 C1266.55,407.58 1247.73,408.00 1245.50,408.91 C1241.66,410.48 1238.71,413.22 1233.86,419.73 C1231.71,422.61 1228.51,425.76 1226.73,426.73 C1223.66,428.41 1203.55,428.50 816.00,428.50 C429.88,428.49 408.16,428.40 402.11,426.73 C386.76,422.50 380.09,416.47 364.50,392.77 L 353.50 376.04 L 213.50 376.27 L 73.50 376.50 L 73.20 380.07 C72.85,384.22 74.89,388.34 89.51,413.00 C99.06,429.11 127.75,479.50 146.74,513.50 C158.99,535.43 158.70,535.00 161.06,535.00 C162.83,535.00 162.93,534.74 161.87,532.75 ZM 1355.01 525.41 C1372.61,498.23 1382.02,466.36 1383.68,428.25 L 1384.31 414.00 L 1317.62 414.00 C1262.42,414.00 1250.35,414.24 1247.55,415.41 C1245.55,416.25 1242.09,419.47 1239.08,423.30 C1233.40,430.54 1231.17,432.27 1225.32,434.02 C1222.09,434.99 1220.88,436.06 1219.27,439.37 C1215.30,447.53 1209.21,454.01 1202.59,457.11 L 1196.38 460.01 L 816.44 459.76 L 436.50 459.50 L 430.75 457.18 C423.68,454.32 414.81,446.41 410.88,439.44 C408.06,434.44 407.74,434.22 401.74,432.94 C392.99,431.09 382.80,425.70 376.63,419.65 C373.73,416.82 366.71,407.41 361.03,398.75 L 350.70 383.00 L 215.35 383.00 C140.91,383.00 80.00,383.34 80.00,383.75 C80.00,384.16 82.31,388.33 85.12,393.00 C91.97,404.39 114.62,443.68 125.76,463.50 C130.70,472.30 140.69,490.03 147.96,502.90 C155.23,515.78 162.13,528.26 163.29,530.65 L 165.40 535.00 L 757.10 535.00 L 1348.79 535.00 L 1355.01 525.41 ZM 1197.20 456.36 C1204.28,454.38 1210.15,449.48 1214.89,441.58 C1216.75,438.48 1218.07,435.73 1217.81,435.48 C1217.55,435.22 1035.95,434.89 814.24,434.75 L 411.15 434.50 L 413.79 439.36 C416.70,444.70 422.38,450.08 428.39,453.18 C437.85,458.05 419.89,457.84 817.93,457.92 C1160.73,457.99 1191.85,457.87 1197.20,456.36 ZM 588.00 369.20 L 588.00 312.40 L 564.25 311.15 C551.19,310.46 533.53,309.48 525.00,308.97 C516.47,308.45 496.67,307.33 481.00,306.48 C465.33,305.62 445.83,304.49 437.67,303.96 C419.89,302.81 409.00,302.73 409.00,303.75 C409.02,309.88 412.11,403.80 412.58,412.70 L 413.23 424.90 L 417.37 425.27 C419.64,425.48 458.96,425.73 504.75,425.83 L 588.00 426.00 L 588.00 369.20 ZM 824.36 411.18 C824.70,403.11 825.27,380.45 825.62,360.84 L 826.27 325.19 L 819.88 324.58 C816.37,324.24 800.67,323.30 785.00,322.48 C769.33,321.67 748.17,320.55 738.00,320.00 C727.83,319.44 710.95,318.55 700.50,318.01 C690.05,317.47 673.25,316.53 663.17,315.93 C653.08,315.33 644.58,315.09 644.26,315.40 C643.74,315.93 644.99,340.96 648.55,400.83 C649.35,414.21 650.00,425.34 650.00,425.57 C650.00,425.80 689.09,425.96 736.88,425.93 L 823.75 425.87 L 824.36 411.18 ZM 1063.00 379.50 L 1063.00 333.00 L 1060.76 333.00 C1057.94,333.00 1022.26,330.71 975.00,327.50 C954.92,326.13 927.92,324.34 915.00,323.52 C902.08,322.69 889.08,321.75 886.12,321.42 L 880.75 320.82 L 881.44 332.66 C881.83,339.17 883.46,362.27 885.06,384.00 C886.67,405.73 887.99,424.06 887.99,424.75 C888.00,425.74 906.17,426.00 975.50,426.00 L 1063.00 426.00 L 1063.00 379.50 ZM 409.68 406.75 C409.33,396.71 408.54,372.30 407.92,352.50 C407.30,332.70 406.50,316.27 406.15,316.00 C405.79,315.73 396.61,315.64 385.75,315.81 L 366.00 316.12 L 365.96 333.31 C365.90,357.41 364.76,369.44 362.00,375.08 L 359.76 379.67 L 369.40 394.32 C379.95,410.37 383.55,414.48 390.73,418.69 C394.66,420.99 405.76,424.71 409.41,424.94 C409.94,424.98 410.05,417.49 409.68,406.75 ZM 646.66 415.75 C646.31,410.66 645.52,396.60 644.90,384.50 C644.29,372.40 643.27,354.17 642.64,344.00 L 641.50 325.50 L 616.27 325.23 L 591.04 324.97 L 590.77 374.98 L 590.50 425.00 L 618.90 425.00 L 647.30 425.00 L 646.66 415.75 ZM 884.99 422.75 C884.97,418.63 879.09,338.76 878.79,338.52 C878.63,338.40 874.00,338.88 868.50,339.60 C863.00,340.32 851.82,341.22 843.66,341.61 C834.33,342.05 828.70,342.71 828.49,343.40 C828.31,344.01 827.87,362.61 827.52,384.75 L 826.89 425.00 L 855.94 425.00 L 885.00 425.00 L 884.99 422.75 ZM 1225.86 423.57 C1227.38,422.79 1230.28,419.64 1232.31,416.59 C1237.25,409.15 1242.13,406.05 1250.68,404.92 C1254.43,404.43 1274.60,404.04 1295.50,404.05 C1316.40,404.07 1336.09,404.06 1339.26,404.04 L 1345.02 404.00 L 1344.76 364.75 L 1344.50 325.50 L 1339.50 325.45 C1336.75,325.42 1325.16,325.30 1313.75,325.20 L 1293.00 325.00 L 1293.00 298.47 L 1293.00 271.94 L 1255.25 272.22 L 1217.50 272.50 L 1217.24 345.75 L 1216.99 419.00 L 1219.61 419.00 C1221.30,419.00 1223.16,417.91 1224.87,415.91 C1240.04,398.14 1234.23,399.61 1292.00,399.00 L 1339.50 398.50 L 1339.32 373.50 C1339.22,359.75 1339.11,344.56 1339.07,339.75 L 1339.00 331.00 L 1313.00 331.00 L 1287.00 331.00 L 1287.00 304.50 L 1287.00 278.00 L 1255.00 278.00 L 1223.00 278.00 L 1223.00 343.22 L 1223.00 408.43 L 1228.25 403.26 C1231.14,400.42 1235.75,397.06 1238.50,395.80 C1243.45,393.52 1243.99,393.50 1288.75,393.20 L 1334.00 392.91 L 1334.00 364.95 L 1334.00 337.00 L 1308.20 337.00 C1292.04,337.00 1282.02,336.62 1281.38,335.98 C1280.73,335.33 1271.04,335.06 1254.43,335.23 L 1228.50 335.50 L 1228.23 364.75 C1228.09,380.84 1228.16,394.00 1228.40,394.00 C1228.64,394.00 1231.15,392.84 1233.98,391.42 C1241.77,387.50 1253.85,386.71 1293.75,387.51 L 1328.00 388.20 L 1328.00 365.10 L 1328.00 342.00 L 1304.25 342.00 C1291.19,342.00 1270.04,341.70 1257.25,341.34 L 1234.00 340.68 L 1234.00 362.27 L 1234.00 383.86 L 1237.24 382.93 C1239.03,382.42 1257.70,382.00 1278.74,382.00 L 1317.00 382.00 L 1317.00 363.44 L 1317.00 344.88 L 1320.75 345.19 L 1324.50 345.50 L 1324.50 364.75 C1324.50,375.34 1324.13,383.89 1323.67,383.75 C1323.21,383.61 1322.89,375.51 1322.96,365.75 C1323.08,348.39 1323.03,348.00 1321.00,348.00 C1318.95,348.00 1318.92,348.33 1319.21,365.94 L 1319.50 383.88 L 1279.50 384.19 C1244.43,384.46 1239.04,384.71 1235.75,386.20 L 1232.00 387.90 L 1232.00 363.34 L 1232.00 338.79 L 1280.75 339.50 C1307.56,339.89 1329.85,340.54 1330.27,340.93 C1330.69,341.32 1330.92,352.41 1330.77,365.57 L 1330.50 389.50 L 1286.00 390.00 C1237.02,390.55 1238.09,390.41 1229.75,397.09 L 1226.00 400.09 L 1226.00 340.55 L 1226.00 281.00 L 1255.00 281.00 L 1284.00 281.00 L 1284.00 307.50 L 1284.00 334.00 L 1310.00 334.00 L 1336.00 334.00 L 1336.00 365.02 L 1336.00 396.04 L 1291.05 395.92 C1237.00,395.78 1239.26,395.40 1228.38,406.64 C1224.46,410.69 1220.97,414.00 1220.63,414.00 C1220.29,414.00 1220.12,383.06 1220.27,345.25 L 1220.53 276.50 L 1254.75 276.24 L 1288.97 275.97 L 1289.23 302.24 L 1289.50 328.50 L 1315.75 328.77 L 1342.00 329.03 L 1342.00 364.98 L 1342.00 400.93 L 1294.25 401.21 L 1246.50 401.50 L 1240.53 404.50 C1236.10,406.72 1233.36,409.05 1229.95,413.50 C1227.41,416.80 1224.25,420.06 1222.92,420.74 C1221.05,421.70 1203.50,421.92 1145.25,421.74 L 1070.01 421.50 L 1069.92 379.50 L 1069.83 337.50 L 1081.10 337.22 C1087.47,337.05 1092.96,336.45 1093.72,335.82 C1094.78,334.94 1095.04,328.86 1094.97,306.10 L 1094.88 277.50 L 1154.94 277.24 C1214.17,276.99 1215.00,276.96 1215.00,274.99 C1215.00,273.02 1214.25,273.00 1153.00,273.00 L 1091.00 273.00 L 1091.00 303.50 L 1091.00 334.00 L 1078.50 334.00 L 1066.00 334.00 L 1066.00 379.50 L 1066.00 425.00 L 1144.55 425.00 C1210.65,425.00 1223.54,424.77 1225.86,423.57 ZM 1215.00 417.76 C1215.00,416.12 1210.82,416.00 1145.46,415.76 L 1075.92 415.50 L 1075.71 379.50 L 1075.50 343.50 L 1085.00 343.00 C1090.22,342.73 1095.48,341.94 1096.67,341.26 C1100.56,339.03 1101.13,334.63 1100.93,308.30 L 1100.74 283.50 L 1150.62 283.19 C1178.05,283.02 1202.86,283.16 1205.75,283.51 L 1211.00 284.14 L 1211.00 346.44 L 1211.00 408.74 L 1201.25 409.28 C1188.39,409.99 1083.33,409.67 1082.58,408.92 C1081.38,407.72 1080.75,383.88 1081.47,366.75 L 1082.21 349.00 L 1088.66 349.00 C1098.53,349.00 1103.38,345.67 1105.47,337.44 L 1106.62 332.89 L 1154.81 332.97 L 1203.00 333.05 L 1203.00 312.53 L 1203.00 292.00 L 1154.50 292.00 C1122.83,292.00 1106.00,291.65 1106.00,291.00 C1106.00,290.35 1123.17,290.00 1155.50,290.00 L 1205.00 290.00 L 1205.00 312.50 L 1205.00 335.00 L 1156.50 335.00 C1111.70,335.00 1108.00,335.13 1108.00,336.68 C1108.00,340.04 1103.78,346.97 1100.51,348.99 C1098.49,350.24 1094.57,351.30 1090.58,351.67 L 1084.00 352.29 L 1084.00 379.64 L 1084.00 407.00 L 1146.50 407.00 L 1209.00 407.00 L 1209.00 346.50 L 1209.00 286.00 L 1156.00 286.00 L 1103.00 286.00 L 1102.99 311.25 C1102.97,338.33 1102.76,339.63 1097.77,343.33 C1095.69,344.88 1093.02,345.46 1086.52,345.80 L 1078.00 346.25 L 1078.00 379.63 L 1078.00 413.00 L 1146.51 413.00 L 1215.01 413.00 L 1214.76 346.25 L 1214.50 279.50 L 1164.00 279.34 C1136.22,279.26 1109.79,279.43 1105.25,279.71 L 1097.00 280.24 L 1097.00 307.93 C1097.00,330.25 1096.72,335.99 1095.58,337.56 C1094.36,339.24 1092.67,339.55 1083.08,339.84 L 1072.00 340.18 L 1072.00 380.14 L 1072.00 420.10 L 1143.50 419.80 C1210.71,419.52 1215.00,419.40 1215.00,417.76 ZM 229.00 358.50 L 229.00 344.00 L 234.55 344.00 L 240.11 344.00 L 239.80 339.25 L 239.50 334.50 L 233.75 334.20 L 228.00 333.90 L 227.88 323.70 C227.81,318.09 227.47,305.62 227.13,296.00 L 226.50 278.50 L 221.75 278.20 L 217.00 277.89 L 217.00 305.90 L 217.00 333.92 L 208.75 334.21 L 200.50 334.50 L 200.50 339.00 L 200.50 343.50 L 208.86 344.00 L 217.22 344.50 L 217.43 351.00 C217.55,354.58 217.72,360.99 217.82,365.25 L 218.00 373.00 L 223.50 373.00 L 229.00 373.00 L 229.00 358.50 ZM 848.50 338.54 C854.55,338.25 863.89,337.47 869.25,336.81 C877.79,335.75 879.00,335.37 879.00,333.68 C879.00,332.11 878.49,331.85 876.25,332.29 C871.08,333.32 853.51,334.94 840.75,335.57 C831.65,336.02 828.00,336.55 828.00,337.43 C828.00,339.52 829.10,339.94 833.38,339.50 C835.65,339.26 842.45,338.83 848.50,338.54 ZM 866.50 330.95 C879.69,329.15 878.86,329.69 878.41,323.19 C878.19,320.06 877.54,308.27 876.97,297.00 C875.71,272.39 874.85,264.36 871.30,243.79 L 868.59 228.08 L 850.55 227.79 C840.62,227.63 832.36,227.56 832.20,227.64 C831.61,227.90 830.07,246.80 829.01,266.74 C828.39,278.48 828.23,296.69 828.63,310.13 L 829.32 333.28 L 844.41 332.59 C852.71,332.21 862.65,331.47 866.50,330.95 ZM 1281.50 307.75 L 1281.50 284.00 L 1254.75 284.00 L 1228.00 284.00 L 1228.00 307.33 C1228.00,320.17 1228.31,330.97 1228.68,331.35 C1229.06,331.73 1241.10,331.91 1255.43,331.77 L 1281.50 331.50 L 1281.50 307.75 ZM 1088.00 316.02 L 1088.00 301.03 L 1082.25 301.54 C1067.07,302.90 1006.05,303.68 946.10,303.29 L 879.69 302.86 L 880.35 310.60 C880.71,314.85 881.11,318.43 881.25,318.53 C881.47,318.71 915.54,320.99 1008.50,327.03 C1025.00,328.11 1043.68,329.37 1050.00,329.85 C1056.32,330.33 1067.46,330.78 1074.75,330.86 L 1088.00 331.00 L 1088.00 316.02 ZM 641.00 321.00 C641.00,319.05 640.33,319.00 616.00,319.00 C591.67,319.00 591.00,319.05 591.00,321.00 C591.00,322.95 591.67,323.00 616.00,323.00 C640.33,323.00 641.00,322.95 641.00,321.00 ZM 826.00 313.65 L 826.00 305.30 L 810.75 304.61 C802.36,304.24 762.93,302.15 723.12,299.97 C683.31,297.78 648.98,296.00 646.82,296.00 L 642.89 296.00 L 643.09 303.53 C643.20,307.67 643.67,311.30 644.14,311.59 C645.12,312.19 658.16,313.02 722.50,316.57 C748.35,317.99 779.40,319.73 791.50,320.43 C803.60,321.13 816.31,321.77 819.75,321.85 L 826.00 322.00 L 826.00 313.65 ZM 640.56 299.72 C639.36,270.45 637.96,249.78 635.97,231.59 C634.88,221.74 634.00,213.07 634.00,212.34 C634.00,211.27 630.38,211.00 616.13,211.00 L 598.26 211.00 L 597.11 219.98 C592.12,258.91 591.02,272.19 591.01,293.58 C591.00,305.73 591.19,315.85 591.42,316.08 C591.64,316.31 602.94,316.37 616.53,316.22 L 641.22 315.93 L 640.56 299.72 ZM 406.50 311.00 C406.50,309.72 403.46,309.46 386.25,309.23 C366.44,308.96 366.00,309.00 366.00,311.00 C366.00,313.00 366.44,313.04 386.25,312.77 C403.46,312.54 406.50,312.28 406.50,311.00 ZM 588.00 301.61 L 588.00 293.21 L 579.25 292.58 C574.44,292.24 552.95,291.06 531.50,289.97 C510.05,288.88 480.35,287.32 465.50,286.51 C450.65,285.70 431.86,284.73 423.75,284.37 L 409.00 283.70 L 409.00 291.85 L 409.00 300.00 L 411.95 300.00 C413.58,300.00 437.76,301.33 465.70,302.95 C493.64,304.57 529.78,306.60 546.00,307.46 C573.72,308.92 582.06,309.41 586.25,309.83 C587.79,309.98 588.00,309.00 588.00,301.61 ZM 394.59 306.36 L 406.50 305.72 L 405.89 279.61 C405.36,256.75 403.83,233.22 402.42,226.25 C401.97,224.02 401.81,224.00 384.48,224.00 L 367.00 224.00 L 366.99 232.25 C366.99,236.79 366.69,254.73 366.34,272.12 C365.98,289.51 365.97,304.47 366.31,305.37 C367.02,307.23 373.93,307.47 394.59,306.36 ZM 825.50 299.61 C825.50,296.85 824.73,296.36 808.00,288.51 C798.38,284.00 779.62,275.09 766.32,268.73 L 742.13 257.15 L 726.82 262.50 C718.39,265.44 696.68,273.05 678.58,279.42 C660.47,285.79 645.06,291.00 644.33,291.00 C643.60,291.00 643.00,291.45 643.00,292.00 C643.00,292.55 643.14,293.00 643.30,293.00 C643.47,293.00 668.55,294.35 699.05,295.99 C729.55,297.64 763.72,299.48 775.00,300.08 C786.28,300.67 801.35,301.51 808.50,301.95 C825.98,303.00 825.50,303.07 825.50,299.61 ZM 981.50 299.88 C979.30,299.39 956.58,295.39 931.00,290.99 C905.42,286.60 883.26,282.74 881.75,282.42 C879.13,281.87 879.00,282.02 879.01,285.67 C879.04,292.87 879.46,293.34 888.81,296.53 C893.59,298.17 900.42,299.77 904.00,300.09 C914.76,301.07 986.02,300.87 981.50,299.88 ZM 1019.50 299.88 C1017.30,299.40 1004.25,297.17 990.50,294.92 C976.75,292.67 946.60,287.50 923.50,283.43 C900.40,279.35 880.69,276.01 879.70,276.01 C878.30,276.00 878.11,276.38 878.85,277.70 C879.59,279.02 886.39,280.55 910.15,284.72 C997.21,300.01 1002.22,300.79 1013.00,300.78 C1021.43,300.76 1022.71,300.59 1019.50,299.88 ZM 886.50 298.46 C882.52,296.64 880.00,296.66 880.00,298.50 C880.00,299.63 881.16,299.98 884.75,299.92 L 889.50 299.84 L 886.50 298.46 ZM 1030.00 293.13 C1021.47,289.38 1003.70,281.45 990.50,275.52 C977.30,269.58 962.22,262.82 957.00,260.49 C945.52,255.36 894.33,232.47 880.73,226.38 C875.36,223.97 870.69,222.00 870.37,222.00 C870.05,222.00 870.10,223.24 870.49,224.75 C871.78,229.80 876.80,259.41 877.52,266.25 C877.91,269.96 878.56,273.00 878.95,273.00 C879.35,273.00 888.41,274.55 899.09,276.44 C987.31,292.09 1033.85,299.80 1040.50,299.90 C1045.43,299.96 1045.28,299.87 1030.00,293.13 ZM 1059.92 299.59 C1059.69,299.37 1054.32,296.94 1048.00,294.19 C1030.02,286.38 1012.00,278.38 979.00,263.53 C962.22,255.99 936.12,244.28 921.00,237.52 C905.88,230.76 887.91,222.70 881.08,219.61 C874.25,216.53 868.42,214.25 868.12,214.55 C867.82,214.85 868.05,215.85 868.63,216.78 C869.74,218.54 870.86,219.06 936.00,248.24 C1048.74,298.75 1051.35,299.88 1055.92,299.94 C1058.35,299.97 1060.15,299.82 1059.92,299.59 ZM 825.82 291.36 C825.37,289.05 750.38,253.74 747.73,254.58 C746.65,254.93 746.18,255.58 746.66,256.06 C747.13,256.53 763.04,264.26 782.01,273.23 C800.98,282.20 818.08,290.29 820.00,291.21 C824.52,293.36 826.23,293.40 825.82,291.36 ZM 587.36 288.02 C586.89,287.57 567.01,277.95 543.19,266.64 C506.85,249.38 499.58,246.25 498.04,247.21 C496.49,248.18 500.68,250.48 526.36,262.76 C580.31,288.56 587.22,291.61 587.86,289.83 C588.06,289.28 587.84,288.46 587.36,288.02 ZM 576.92 289.67 C576.69,289.49 566.66,284.71 554.64,279.06 C542.61,273.41 523.71,264.42 512.64,259.08 L 492.50 249.39 L 452.84 264.94 C431.03,273.50 413.31,280.63 413.46,280.79 C413.86,281.19 485.96,285.14 546.00,288.04 C557.83,288.61 568.62,289.22 570.00,289.39 C574.03,289.89 577.37,290.03 576.92,289.67 ZM 714.46 264.03 C727.08,259.57 737.61,255.72 737.85,255.48 C738.09,255.24 737.25,254.66 735.98,254.19 C734.32,253.57 731.57,254.11 726.09,256.12 C721.91,257.64 702.30,264.51 682.50,271.37 C662.70,278.23 645.71,284.15 644.75,284.53 C643.79,284.91 643.00,286.04 643.00,287.05 C643.00,288.99 652.21,286.03 714.46,264.03 ZM 826.00 277.98 C826.00,273.57 826.69,260.46 827.53,248.85 C828.38,237.24 828.92,227.58 828.73,227.40 C828.55,227.21 820.54,229.78 810.95,233.09 C801.35,236.41 784.84,242.11 774.25,245.76 C763.66,249.40 755.00,252.64 755.00,252.94 C755.01,253.83 822.50,285.72 824.75,285.90 C825.65,285.97 826.00,283.78 826.00,277.98 ZM 591.06 248.50 C592.21,238.05 593.79,225.12 594.58,219.76 C596.40,207.28 596.42,207.70 593.94,209.03 C592.06,210.04 523.57,237.23 509.50,242.56 L 503.50 244.83 L 515.00 250.29 C521.33,253.29 537.97,261.21 552.00,267.88 C566.03,274.55 579.75,281.07 582.50,282.37 L 587.50 284.74 L 588.24 276.12 C588.64,271.38 589.91,258.95 591.06,248.50 ZM 666.39 274.07 C706.15,260.43 727.02,253.09 728.61,252.20 C729.77,251.55 728.48,250.58 723.33,248.25 C719.57,246.55 698.34,236.60 676.14,226.14 L 635.79 207.11 L 636.41 211.31 C637.97,221.95 641.02,254.89 641.63,267.75 C642.00,275.59 642.52,282.00 642.79,282.00 C643.06,282.00 653.68,278.43 666.39,274.07 ZM 441.60 266.44 C494.00,245.81 489.65,247.72 486.64,246.71 C484.48,245.99 477.90,248.28 448.26,260.04 C428.59,267.85 411.50,274.62 410.27,275.09 C408.82,275.64 408.24,276.47 408.63,277.47 C408.95,278.31 409.32,279.00 409.45,279.00 C409.58,279.00 424.05,273.35 441.60,266.44 ZM 460.75 252.27 C471.34,248.08 480.00,244.37 480.00,244.02 C480.00,243.67 470.66,238.94 459.25,233.51 C447.84,228.08 430.46,219.68 420.64,214.83 L 402.78 206.02 L 403.40 210.26 C404.77,219.67 407.13,246.25 407.62,258.00 C407.92,264.88 408.32,271.03 408.52,271.67 C408.75,272.42 414.62,270.56 425.19,266.36 C434.16,262.79 450.16,256.45 460.75,252.27 ZM 1182.56 267.75 C1182.30,266.51 1181.79,254.36 1181.43,240.75 L 1180.78 216.00 L 1171.43 216.00 L 1162.09 216.00 L 1161.59 219.25 C1161.31,221.04 1160.80,233.19 1160.46,246.25 L 1159.83 270.00 L 1171.43 270.00 C1182.94,270.00 1183.03,269.98 1182.56,267.75 ZM 1211.67 264.75 C1211.33,261.86 1211.01,249.76 1210.96,237.85 C1210.86,216.49 1210.83,216.19 1208.68,215.61 C1205.56,214.78 1199.20,214.86 1198.68,215.75 C1198.44,216.16 1197.93,228.54 1197.53,243.25 L 1196.82 270.00 L 1204.55 270.00 L 1212.28 270.00 L 1211.67 264.75 ZM 744.95 253.05 C746.08,252.34 745.81,251.99 743.70,251.46 C742.22,251.09 740.22,251.11 739.25,251.50 C737.64,252.16 737.66,252.28 739.50,253.04 C742.18,254.14 743.23,254.14 744.95,253.05 ZM 777.11 241.95 C817.24,228.19 829.43,223.74 830.23,222.57 C832.35,219.49 830.35,219.48 821.75,222.54 C816.66,224.35 798.33,230.78 781.00,236.83 C742.35,250.32 745.52,249.08 747.17,250.12 C747.90,250.59 749.00,250.98 749.61,250.98 C750.22,250.99 762.60,246.93 777.11,241.95 ZM 736.74 249.18 C738.31,248.19 740.30,249.15 649.63,206.84 C641.45,203.02 634.50,200.17 634.17,200.50 C632.46,202.21 638.31,205.47 668.50,219.63 C686.65,228.14 708.47,238.43 717.00,242.49 C732.73,249.98 734.53,250.59 736.74,249.18 ZM 494.83 245.12 C496.82,243.87 493.53,242.83 490.21,243.66 C487.81,244.27 487.75,244.39 489.54,245.09 C492.17,246.12 493.25,246.13 494.83,245.12 ZM 488.94 241.13 C488.91,240.79 482.50,237.46 474.69,233.74 C466.89,230.02 447.31,220.68 431.18,212.99 C415.06,205.30 401.72,199.00 401.53,199.00 C401.34,199.00 401.42,199.88 401.70,200.96 C402.06,202.34 407.47,205.48 419.86,211.48 C474.25,237.84 484.61,242.60 486.75,242.19 C487.99,241.96 488.97,241.48 488.94,241.13 ZM 523.78 234.04 C586.53,209.28 596.49,205.18 597.42,203.70 C597.97,202.82 598.18,201.84 597.87,201.54 C597.56,201.23 578.00,208.66 554.40,218.04 C493.68,242.20 495.85,241.29 497.26,242.18 C497.94,242.61 499.08,242.98 499.78,242.98 C500.49,242.99 511.29,238.97 523.78,234.04 ZM 868.00 224.55 C868.00,222.00 862.61,208.00 861.63,208.00 C855.74,208.00 838.27,210.40 837.38,211.33 C836.16,212.60 833.00,221.52 833.00,223.68 C833.00,224.72 836.66,225.00 850.50,225.00 C860.12,225.00 868.00,224.80 868.00,224.55 ZM 402.00 219.75 C401.99,217.76 398.99,200.87 397.91,196.75 L 396.92 193.00 L 385.10 193.00 L 373.28 193.00 L 370.64 206.25 C369.19,213.54 368.00,219.84 368.00,220.25 C368.00,220.66 375.65,221.00 385.00,221.00 C397.94,221.00 402.00,220.70 402.00,219.75 ZM 633.00 207.34 C633.00,206.97 632.23,204.23 631.28,201.23 C629.21,194.65 628.64,194.38 614.79,193.45 L 604.32 192.75 L 602.77 196.62 C601.92,198.76 600.76,202.19 600.19,204.25 L 599.16 208.00 L 616.08 208.00 C625.39,208.00 633.00,207.70 633.00,207.34 ZM 1273.19 618.97 C1269.18,616.53 1267.00,611.70 1267.00,605.28 C1267.01,595.50 1272.73,591.00 1285.17,591.00 C1297.31,591.00 1303.00,595.88 1303.00,606.28 C1303.00,611.83 1301.17,615.93 1297.39,618.91 C1293.56,621.92 1278.09,621.96 1273.19,618.97 ZM 1295.72 616.37 C1301.59,612.01 1302.02,601.01 1296.50,596.25 C1294.22,594.28 1292.78,594.00 1285.08,594.00 C1274.83,594.00 1271.71,595.62 1270.06,601.80 C1268.98,605.89 1269.98,612.06 1272.15,614.68 C1276.08,619.42 1290.25,620.43 1295.72,616.37 ZM 1181.40 587.69 C1191.52,581.35 1204.95,572.17 1211.45,567.14 L 1219.41 561.00 L 1231.20 561.00 L 1242.99 561.00 L 1239.34 565.75 C1234.91,571.52 1231.41,579.04 1230.50,584.75 L 1229.82 589.00 L 1204.66 588.94 C1184.78,588.89 1179.90,588.63 1181.40,587.69 ZM 1229.01 580.23 C1229.96,576.78 1232.14,571.68 1233.87,568.91 C1235.59,566.14 1237.00,563.61 1237.00,563.29 C1237.00,562.96 1233.21,562.97 1228.58,563.30 L 1220.16 563.89 L 1208.83 572.29 C1202.60,576.91 1195.59,581.78 1193.26,583.10 C1190.92,584.42 1189.01,585.72 1189.01,586.00 C1189.01,586.28 1197.62,586.50 1208.15,586.50 L 1227.29 586.50 L 1229.01 580.23 ZM 162.39 520.75 C153.94,505.60 118.53,442.99 112.50,432.54 C92.54,397.94 87.00,388.07 87.00,387.10 C87.00,386.30 123.09,386.00 217.46,386.00 L 347.93 386.00 L 358.97 402.42 C365.54,412.17 372.15,420.75 375.26,423.56 C381.32,429.04 391.82,434.39 399.89,436.12 C405.47,437.32 408.00,438.54 408.00,440.02 C408.00,441.62 394.22,437.75 386.37,433.96 C375.47,428.68 369.29,422.38 356.99,403.98 L 346.97 389.00 L 218.88 389.00 C109.64,389.00 90.86,389.21 91.32,390.40 C91.62,391.16 95.09,397.35 99.04,404.15 C102.99,410.94 114.54,431.12 124.71,449.00 C140.77,477.23 148.25,490.46 165.94,522.00 L 169.59 528.50 L 757.32 528.75 L 1345.04 529.00 L 1350.59 520.49 C1360.42,505.41 1368.76,484.22 1373.03,463.50 C1375.02,453.83 1377.97,429.90 1377.99,423.25 L 1378.00 420.00 L 1315.05 420.00 C1273.32,420.00 1251.32,420.35 1249.80,421.05 C1248.53,421.62 1245.76,424.58 1243.64,427.62 C1237.96,435.75 1228.41,441.90 1223.26,440.76 C1222.13,440.51 1223.83,439.28 1228.00,437.35 C1234.24,434.45 1237.51,431.50 1244.27,422.68 C1246.16,420.21 1248.35,418.71 1251.22,417.94 C1254.18,417.14 1273.68,416.92 1317.92,417.16 L 1380.44 417.50 L 1380.16 426.50 C1379.58,445.84 1373.86,475.61 1367.49,492.50 C1363.84,502.18 1358.24,513.19 1352.04,522.84 L 1346.81 531.00 L 757.46 531.00 L 168.11 531.00 L 162.39 520.75 ZM 162.42 507.75 C157.07,498.26 140.56,469.22 125.74,443.22 C110.92,417.21 98.54,394.98 98.24,393.80 C97.79,392.08 98.02,391.79 99.42,392.33 C100.38,392.70 156.01,393.00 223.04,393.00 L 344.91 393.00 L 353.89 406.28 C365.13,422.92 369.62,428.03 377.91,433.61 C384.46,438.02 400.36,444.00 405.54,444.00 C407.28,444.00 409.80,445.79 413.79,449.86 C419.91,456.12 426.23,459.85 435.07,462.42 C440.05,463.86 475.26,463.99 819.52,463.76 L 1198.50 463.50 L 1204.23 460.69 C1207.90,458.88 1212.02,455.62 1215.73,451.57 C1220.30,446.58 1222.27,445.14 1225.20,444.70 C1233.02,443.52 1240.52,438.27 1247.09,429.38 L 1251.06 424.00 L 1312.64 424.00 L 1374.21 424.00 L 1373.53 432.25 C1371.81,453.24 1367.09,475.63 1361.26,490.50 C1356.90,501.63 1355.16,505.19 1348.69,516.25 L 1343.56 525.00 L 757.86 525.00 L 172.16 525.00 L 162.42 507.75 ZM 1343.91 518.96 C1347.77,513.64 1355.09,499.37 1358.78,490.00 C1364.50,475.45 1369.40,452.83 1370.64,435.25 L 1371.30 426.00 L 1312.40 426.02 C1280.00,426.02 1253.04,426.36 1252.47,426.77 C1251.90,427.17 1249.76,429.81 1247.72,432.63 C1245.68,435.45 1242.44,438.95 1240.52,440.42 C1236.27,443.66 1227.20,447.98 1224.61,447.99 C1223.57,448.00 1219.74,451.08 1216.11,454.85 C1211.10,460.04 1208.04,462.29 1203.50,464.10 L 1197.50 466.50 L 821.22 466.76 C409.84,467.04 437.50,467.41 425.19,461.39 C422.24,459.95 417.05,456.19 413.66,453.04 C407.97,447.76 406.82,447.15 398.52,445.09 C379.15,440.29 367.26,430.86 352.50,408.62 L 343.50 395.06 L 222.75 395.03 C156.34,395.01 102.00,395.28 102.00,395.61 C102.00,396.25 114.06,417.73 130.01,445.50 C135.06,454.30 146.40,474.33 155.21,490.00 C164.01,505.67 171.86,519.51 172.63,520.75 L 174.05 523.00 L 757.52 523.00 L 1340.99 523.00 L 1343.91 518.96 ZM 435.26 451.91 C430.58,450.43 427.58,448.59 423.26,444.56 C420.09,441.61 417.73,439.03 418.00,438.84 C418.27,438.65 597.06,438.62 815.31,438.76 L 1212.12 439.01 L 1208.82 443.60 C1207.00,446.13 1203.49,449.39 1201.01,450.85 L 1196.50 453.50 L 819.00 453.70 C445.30,453.89 441.44,453.87 435.26,451.91 ZM 1198.09 449.71 C1200.07,448.73 1203.19,446.37 1205.04,444.46 L 1208.39 441.00 L 815.54 441.00 L 422.69 441.00 L 424.50 443.00 C427.57,446.39 436.80,450.28 443.34,450.94 C446.73,451.28 617.12,451.55 822.00,451.53 C1177.78,451.50 1194.66,451.42 1198.09,449.71 ZM 397.20 417.86 C389.70,414.98 382.61,407.71 372.53,392.56 L 363.92 379.62 L 366.00 374.78 C367.14,372.12 368.28,367.14 368.52,363.72 C368.95,357.60 369.98,328.59 369.99,322.25 L 370.00 319.00 L 386.39 319.00 L 402.78 319.00 L 403.38 328.75 C403.71,334.11 404.45,355.83 405.03,377.00 C405.61,398.17 406.23,416.51 406.40,417.75 C406.81,420.62 404.46,420.65 397.20,417.86 ZM 403.63 404.75 C403.27,398.01 402.51,376.75 401.93,357.50 C401.34,338.25 400.56,322.25 400.18,321.94 C399.81,321.64 393.31,321.57 385.75,321.79 L 372.00 322.20 L 371.98 335.85 C371.96,353.98 370.51,370.68 368.53,375.64 L 366.91 379.67 L 376.04 393.09 C387.26,409.57 387.94,410.32 395.35,414.02 C404.62,418.65 404.37,418.93 403.63,404.75 ZM 594.22 375.75 L 594.50 329.50 L 616.18 329.23 L 637.85 328.96 L 638.41 334.23 C638.99,339.71 643.03,414.43 643.01,419.25 L 643.00 422.00 L 618.47 422.00 L 593.93 422.00 L 594.22 375.75 ZM 640.59 413.21 C640.27,410.07 639.30,394.23 638.44,378.00 C637.58,361.77 636.56,344.70 636.19,340.05 L 635.50 331.60 L 616.50 331.81 L 597.50 332.01 L 597.24 374.75 C597.10,398.26 597.15,417.95 597.36,418.50 C597.60,419.14 605.64,419.40 619.47,419.21 L 641.19 418.92 L 640.59 413.21 ZM 831.46 384.25 C831.87,363.49 832.40,346.29 832.64,346.04 C832.88,345.79 839.70,345.24 847.79,344.83 C855.88,344.42 865.35,343.68 868.84,343.19 C873.28,342.57 875.28,342.63 875.51,343.40 C875.69,344.01 876.34,351.70 876.95,360.50 C877.57,369.30 878.49,381.90 879.00,388.50 C879.52,395.10 880.24,405.34 880.61,411.25 L 881.27 422.00 L 856.00 422.00 L 830.73 422.00 L 831.46 384.25 ZM 878.31 413.25 C878.04,410.09 876.82,393.55 875.61,376.50 L 873.41 345.50 L 870.96 345.69 C869.61,345.80 860.74,346.46 851.25,347.16 L 834.00 348.42 L 834.00 371.55 C834.00,384.28 833.71,400.16 833.35,406.84 L 832.69 419.00 L 855.75 419.00 L 878.81 419.00 L 878.31 413.25 ZM 1237.00 361.76 L 1237.00 345.00 L 1254.52 345.00 L 1272.05 345.00 L 1271.77 361.48 L 1271.50 377.96 L 1254.25 378.24 L 1237.00 378.53 L 1237.00 361.76 ZM 1269.78 361.75 L 1269.50 347.50 L 1254.50 347.50 L 1239.50 347.50 L 1239.22 361.75 L 1238.95 376.00 L 1254.50 376.00 L 1270.05 376.00 L 1269.78 361.75 ZM 1277.00 361.48 L 1277.00 344.95 L 1295.25 345.23 L 1313.50 345.50 L 1313.77 361.75 L 1314.05 378.00 L 1295.52 378.00 L 1277.00 378.00 L 1277.00 361.48 ZM 1311.00 362.00 L 1311.00 348.00 L 1295.00 348.00 L 1279.00 348.00 L 1279.00 362.00 L 1279.00 376.00 L 1295.00 376.00 L 1311.00 376.00 L 1311.00 362.00 ZM 1087.23 379.25 L 1087.50 355.51 L 1093.34 354.78 C1101.21,353.80 1105.16,351.14 1108.63,344.49 L 1111.50 339.00 L 1158.25 339.00 C1188.75,339.00 1205.00,339.35 1205.00,340.00 C1205.00,340.65 1189.01,341.00 1159.02,341.00 L 1113.03 341.00 L 1110.57 345.86 C1109.22,348.53 1106.40,352.12 1104.30,353.83 L 1100.50 356.93 L 1112.75 356.97 L 1125.00 357.00 L 1125.00 374.03 L 1125.00 391.06 L 1112.25 390.78 L 1099.50 390.50 L 1099.50 373.25 C1099.50,363.76 1099.42,356.00 1099.33,356.00 C1099.24,356.00 1098.45,356.27 1097.58,356.61 C1096.22,357.13 1096.00,359.76 1096.00,375.61 L 1096.00 394.00 L 1112.02 394.00 L 1128.04 394.00 L 1127.77 373.75 L 1127.50 353.50 L 1119.34 353.21 L 1111.18 352.92 L 1112.84 348.97 L 1114.50 345.02 L 1159.75 345.01 L 1205.00 345.00 L 1205.00 374.00 L 1205.00 403.00 L 1145.98 403.00 L 1086.96 403.00 L 1087.23 379.25 ZM 1202.50 374.00 L 1202.50 347.50 L 1159.01 347.50 C1118.39,347.50 1115.51,347.62 1115.19,349.25 C1114.87,350.89 1117.40,351.00 1156.93,351.00 L 1199.00 351.00 L 1199.00 374.00 L 1199.00 397.00 L 1146.00 397.00 L 1093.00 397.00 L 1093.00 377.50 C1093.00,360.83 1092.78,358.00 1091.50,358.00 C1090.21,358.00 1090.00,361.06 1090.00,379.51 L 1090.00 401.02 L 1146.25 400.76 L 1202.50 400.50 L 1202.50 374.00 ZM 1159.50 374.00 L 1159.50 353.50 L 1144.50 353.50 L 1129.50 353.50 L 1129.23 373.72 L 1128.96 393.94 L 1141.73 394.27 C1148.75,394.46 1155.62,394.58 1157.00,394.55 L 1159.50 394.50 L 1159.50 374.00 ZM 1196.77 373.43 L 1196.50 353.50 L 1179.25 353.23 L 1162.00 352.95 L 1162.00 373.45 L 1162.00 393.95 L 1178.75 394.23 C1187.96,394.38 1195.85,394.24 1196.27,393.93 C1196.70,393.61 1196.92,384.39 1196.77,373.43 ZM 1122.78 373.75 L 1122.50 359.50 L 1112.25 359.22 L 1102.00 358.93 L 1102.00 373.47 L 1102.00 388.00 L 1112.53 388.00 L 1123.05 388.00 L 1122.78 373.75 ZM 1106.23 312.76 L 1106.50 296.50 L 1153.00 296.50 L 1199.50 296.50 L 1199.50 312.50 L 1199.50 328.50 L 1152.73 328.76 L 1105.95 329.02 L 1106.23 312.76 ZM 1132.05 325.75 C1132.02,325.34 1132.00,319.15 1132.00,312.00 L 1132.00 299.00 L 1120.00 299.00 L 1108.00 299.00 L 1108.00 312.47 L 1108.00 325.93 L 1118.75 326.26 C1132.04,326.67 1132.12,326.67 1132.05,325.75 ZM 1154.78 312.58 L 1155.06 299.00 L 1145.15 299.00 L 1135.24 299.00 L 1134.78 312.25 C1134.53,319.54 1134.43,325.73 1134.56,326.00 C1134.70,326.27 1139.24,326.42 1144.65,326.33 L 1154.50 326.16 L 1154.78 312.58 ZM 1197.00 312.75 L 1197.00 299.00 L 1177.00 299.00 L 1157.00 299.00 L 1157.00 312.33 C1157.00,319.67 1157.19,325.85 1157.42,326.08 C1157.64,326.31 1166.64,326.50 1177.41,326.50 L 1197.00 326.50 L 1197.00 312.75 ZM 222.75 370.25 C221.18,369.89 221.00,368.32 221.00,354.93 L 221.00 340.00 L 212.50 340.00 C207.50,340.00 204.00,339.59 204.00,339.00 C204.00,338.41 207.50,338.00 212.50,338.00 L 221.00 338.00 L 221.00 309.50 C221.00,293.83 221.38,281.00 221.85,281.00 C222.80,281.00 224.00,300.17 224.00,315.51 C224.00,321.12 224.29,328.47 224.64,331.85 L 225.28 338.00 L 231.14 338.00 C238.70,338.00 238.79,339.81 231.25,340.20 L 225.50 340.50 L 225.80 355.16 C225.96,363.23 225.73,370.01 225.30,370.24 C224.86,370.46 223.71,370.47 222.75,370.25 ZM 832.00 302.25 C832.01,277.79 832.99,253.25 834.60,237.25 L 835.23 231.00 L 850.06 231.00 C858.21,231.00 865.10,231.35 865.36,231.77 C866.37,233.41 871.00,264.13 872.03,276.00 C873.71,295.37 874.76,324.38 873.83,325.60 C872.79,326.98 853.42,329.00 841.19,329.00 L 832.00 329.00 L 832.00 302.25 ZM 863.83 325.01 C867.86,324.55 871.41,323.92 871.72,323.61 C872.41,322.92 870.29,281.03 868.99,269.71 C868.47,265.19 867.05,255.31 865.83,247.75 L 863.62 234.00 L 850.45 234.00 L 837.28 234.00 L 836.65 241.25 C834.88,261.77 833.86,291.54 834.35,308.00 C834.66,318.17 834.93,326.64 834.96,326.82 C835.02,327.26 855.04,326.01 863.83,325.01 ZM 1232.00 307.50 L 1232.00 287.00 L 1255.00 287.00 L 1278.00 287.00 L 1278.00 307.50 L 1278.00 328.00 L 1255.00 328.00 L 1232.00 328.00 L 1232.00 307.50 ZM 1276.00 307.50 L 1276.00 289.00 L 1255.00 289.00 L 1234.00 289.00 L 1234.00 307.50 L 1234.00 326.00 L 1255.00 326.00 L 1276.00 326.00 L 1276.00 307.50 ZM 1069.50 327.32 C1063.66,326.89 989.56,322.08 933.50,318.49 C912.05,317.12 892.14,315.74 889.25,315.43 L 884.00 314.86 L 884.00 310.68 L 884.00 306.50 L 962.25 306.50 C1005.29,306.50 1050.53,306.15 1062.78,305.73 L 1085.07 304.95 L 1084.78 316.23 L 1084.50 327.50 L 1079.50 327.59 C1076.75,327.64 1072.25,327.52 1069.50,327.32 ZM 1082.00 316.37 L 1082.00 307.74 L 1056.25 308.57 C1042.09,309.03 1010.47,309.33 986.00,309.24 C959.68,309.14 942.52,309.43 944.00,309.94 C949.93,312.01 994.27,313.32 1033.72,312.59 C1055.60,312.19 1074.62,311.78 1076.00,311.68 C1078.30,311.51 1078.52,311.87 1078.80,316.25 L 1079.11 321.00 L 1071.80 320.98 C1067.79,320.98 1057.97,320.53 1050.00,320.00 C1019.54,317.97 1004.23,316.97 964.50,314.45 C935.24,312.59 922.74,311.43 920.85,310.42 C918.88,309.37 914.16,309.00 902.60,309.00 C888.03,309.00 887.00,309.12 887.00,310.87 C887.00,313.05 879.94,312.40 959.00,317.56 C988.97,319.51 1024.75,321.94 1038.50,322.94 C1052.25,323.94 1067.66,324.81 1072.75,324.88 L 1082.00 325.00 L 1082.00 316.37 ZM 1076.15 316.50 C1075.97,315.40 1075.71,314.39 1075.59,314.27 C1075.46,314.14 1065.94,314.32 1054.43,314.68 C1030.49,315.43 1030.51,316.47 1054.50,317.84 C1075.78,319.04 1076.59,318.99 1076.15,316.50 ZM 786.00 316.47 C774.72,315.79 739.40,313.79 707.50,312.04 C675.60,310.28 648.94,308.67 648.25,308.46 C647.52,308.23 647.00,306.38 647.00,304.03 L 647.00 300.00 L 651.90 300.00 C654.59,300.00 677.66,301.12 703.15,302.49 C728.64,303.86 762.33,305.66 778.00,306.49 C793.67,307.31 809.99,308.26 814.25,308.60 L 822.00 309.21 L 822.00 313.60 L 822.00 318.00 L 814.25 317.85 C809.99,317.77 797.28,317.15 786.00,316.47 ZM 820.00 313.09 C820.00,311.51 818.61,311.23 807.75,310.65 C801.01,310.28 787.40,309.55 777.50,309.01 C736.18,306.75 683.63,304.02 671.50,303.50 C664.35,303.19 656.59,302.69 654.25,302.40 C650.50,301.94 650.00,302.11 650.00,303.87 C650.00,306.45 649.28,306.38 708.50,309.50 C734.90,310.89 764.60,312.49 774.50,313.07 C814.61,315.38 818.53,315.57 819.25,315.23 C819.66,315.04 820.00,314.08 820.00,313.09 ZM 594.96 312.25 C594.94,311.84 594.96,301.91 595.00,290.19 C595.05,274.39 595.71,263.27 597.55,247.19 C598.91,235.26 600.31,222.90 600.66,219.72 L 601.29 213.95 L 615.90 214.22 L 630.50 214.50 L 632.16 229.50 C634.11,247.09 635.70,270.44 636.63,295.25 L 637.30 313.00 L 616.15 313.00 C604.52,313.00 594.98,312.66 594.96,312.25 ZM 634.30 298.75 C633.45,271.15 630.24,227.55 628.45,219.25 C627.98,217.07 627.60,217.00 615.95,217.00 C607.22,217.00 603.83,217.34 603.53,218.25 C603.30,218.94 601.91,229.62 600.43,242.00 C598.60,257.40 597.59,271.68 597.25,287.25 L 596.75 310.00 L 615.70 310.00 L 634.65 310.00 L 634.30 298.75 ZM 566.50 304.90 C558.80,304.43 535.17,303.13 514.00,302.01 C452.58,298.75 421.82,296.97 417.20,296.39 L 412.89 295.86 L 413.20 291.76 L 413.50 287.65 L 421.00 287.88 C425.12,288.00 440.20,288.73 454.50,289.51 C482.71,291.05 550.59,294.70 571.50,295.81 L 584.50 296.50 L 584.50 301.00 C584.50,306.35 585.80,306.06 566.50,304.90 ZM 582.00 301.00 C582.00,299.90 581.89,298.99 581.75,298.98 C580.38,298.88 537.30,296.52 499.50,294.48 C473.65,293.08 445.30,291.51 436.50,290.98 C414.67,289.67 415.00,289.65 415.00,291.86 C415.00,294.15 411.82,293.92 526.00,300.01 C546.62,301.11 565.08,302.16 567.00,302.34 C568.92,302.52 573.09,302.74 576.25,302.83 C581.39,302.98 582.00,302.79 582.00,301.00 ZM 370.00 268.12 C370.00,248.94 370.28,231.84 370.62,230.12 L 371.25 227.00 L 384.98 227.00 L 398.72 227.00 L 399.88 238.75 C401.09,250.91 402.95,285.78 402.98,296.75 L 403.00 303.00 L 386.50 303.00 L 370.00 303.00 L 370.00 268.12 ZM 399.70 278.00 C399.37,265.62 398.56,249.76 397.90,242.75 L 396.69 230.00 L 385.00 230.00 L 373.31 230.00 L 372.66 243.66 C371.93,258.75 371.76,299.43 372.42,300.08 C372.65,300.31 379.01,300.50 386.56,300.50 L 400.29 300.50 L 399.70 278.00 ZM 1163.54 266.07 C1163.22,265.55 1163.42,255.32 1163.97,243.32 C1164.53,231.32 1164.99,220.94 1164.99,220.25 C1165.00,219.39 1166.85,219.00 1170.91,219.00 L 1176.83 219.00 L 1177.40 226.25 C1177.71,230.24 1178.24,241.04 1178.59,250.25 L 1179.21 267.00 L 1171.67 267.00 C1167.51,267.00 1163.86,266.58 1163.54,266.07 ZM 1176.18 251.75 C1176.00,245.01 1175.55,235.45 1175.18,230.50 L 1174.50 221.50 L 1170.91 221.20 L 1167.31 220.90 L 1166.66 233.11 C1166.30,239.82 1166.00,249.52 1166.00,254.66 L 1166.00 264.00 L 1171.25 264.00 L 1176.50 264.00 L 1176.18 251.75 ZM 1200.74 266.25 C1200.54,265.84 1200.56,255.04 1200.79,242.25 L 1201.21 219.00 L 1203.96 219.00 C1206.63,219.00 1206.73,219.21 1207.35,225.75 C1207.70,229.46 1207.99,240.26 1207.99,249.75 L 1208.00 267.00 L 1204.56 267.00 C1202.67,267.00 1200.95,266.66 1200.74,266.25 ZM 1205.39 242.16 C1205.00,230.52 1204.31,221.00 1203.85,221.00 C1202.84,221.00 1202.69,263.35 1203.68,264.35 C1205.64,266.31 1206.02,261.40 1205.39,242.16 ZM 837.78 221.44 C836.80,220.47 839.25,214.12 840.84,213.51 C841.68,213.19 846.47,212.65 851.48,212.32 L 860.60 211.72 L 861.66 216.34 C862.24,218.88 862.48,221.19 862.19,221.48 C861.49,222.18 838.48,222.15 837.78,221.44 ZM 859.61 217.42 C859.27,216.55 859.00,215.44 859.00,214.96 C859.00,213.95 846.66,214.86 843.25,216.12 C838.38,217.92 841.15,219.00 850.61,219.00 C858.96,219.00 860.13,218.79 859.61,217.42 ZM 372.38 215.25 C372.87,213.59 376.00,197.26 376.00,196.35 C376.00,196.12 380.16,196.05 385.24,196.21 L 394.48 196.50 L 395.61 203.00 C396.23,206.57 397.00,211.19 397.31,213.25 L 397.87 217.00 L 384.87 217.00 C372.95,217.00 371.91,216.85 372.38,215.25 ZM 394.94 213.25 C394.90,212.29 394.32,208.57 393.64,205.00 L 392.40 198.50 L 385.45 198.50 L 378.50 198.50 L 377.40 203.00 C376.79,205.48 375.99,209.19 375.60,211.25 L 374.91 215.00 L 384.95 215.00 C393.88,215.00 394.99,214.80 394.94,213.25 ZM 604.41 203.85 C604.15,203.43 604.61,201.47 605.44,199.49 L 606.94 195.89 L 613.22 196.49 C623.95,197.52 625.94,198.03 626.99,199.98 C629.30,204.31 628.63,204.60 616.44,204.61 C610.08,204.61 604.67,204.27 604.41,203.85 ZM 625.00 201.09 C625.00,200.00 610.73,198.50 608.52,199.35 C607.68,199.67 607.00,200.40 607.00,200.97 C607.00,201.60 610.48,202.00 616.00,202.00 C620.95,202.00 625.00,201.59 625.00,201.09 ZM 1277.36 613.83 C1272.33,611.40 1271.66,604.18 1276.06,599.79 C1279.03,596.81 1279.28,596.75 1285.78,597.42 C1289.54,597.80 1293.21,598.78 1294.17,599.65 C1298.23,603.33 1297.18,611.68 1292.39,613.87 C1289.34,615.26 1280.26,615.23 1277.36,613.83 ZM 1292.96 610.07 C1294.48,607.23 1294.23,603.91 1292.34,601.83 C1290.12,599.37 1280.48,599.26 1277.83,601.65 C1275.80,603.49 1275.46,607.11 1277.04,610.07 C1277.91,611.69 1279.17,612.00 1285.00,612.00 C1290.83,612.00 1292.09,611.69 1292.96,610.07 ZM 1203.00 582.15 C1203.00,581.65 1206.93,578.37 1211.74,574.87 C1218.20,570.16 1221.59,568.36 1224.74,567.95 C1227.08,567.65 1228.98,567.65 1228.96,567.95 C1228.93,568.25 1227.83,571.65 1226.51,575.50 L 1224.11 582.50 L 1213.56 582.78 C1207.61,582.94 1203.00,582.67 1203.00,582.15 ZM 1224.01 574.75 C1225.67,570.35 1225.68,570.00 1224.13,570.00 C1222.70,570.00 1213.72,576.03 1210.50,579.14 C1209.85,579.76 1211.74,580.00 1215.85,579.80 L 1222.21 579.50 L 1224.01 574.75 ZM 174.23 515.75 C173.16,513.96 170.03,508.45 167.26,503.50 C162.98,495.85 116.55,414.04 110.90,404.19 C109.85,402.37 109.00,400.46 109.00,399.94 C109.00,399.36 153.13,399.00 225.30,399.00 L 341.60 399.00 L 350.01 411.75 C360.81,428.12 369.01,436.26 380.69,442.25 C385.54,444.74 392.88,447.60 397.00,448.62 C403.44,450.21 405.34,451.22 410.50,455.83 C416.88,461.53 424.03,465.60 433.00,468.64 C438.32,470.44 450.74,470.51 812.00,470.79 C1064.28,470.98 1188.05,470.74 1193.36,470.04 C1204.33,468.61 1211.74,465.03 1218.35,457.98 C1222.01,454.09 1224.87,451.97 1227.14,451.48 C1235.18,449.74 1246.70,441.47 1252.08,433.57 L 1254.50 430.01 L 1310.75 430.01 L 1367.00 430.00 L 1366.98 433.75 C1366.95,440.63 1364.03,458.22 1361.02,469.76 C1357.21,484.30 1352.20,496.92 1345.32,509.25 L 1339.89 519.00 L 758.03 519.00 L 176.16 519.00 L 174.23 515.75 ZM 1343.52 507.52 C1354.53,487.33 1361.24,464.66 1364.33,437.25 L 1364.81 433.00 L 1310.15 433.03 L 1255.50 433.06 L 1252.03 437.66 C1247.30,443.94 1239.46,449.64 1231.08,452.90 C1225.86,454.93 1223.08,456.76 1220.15,460.10 C1215.46,465.42 1208.76,469.25 1200.33,471.42 C1194.72,472.87 1158.98,472.99 814.83,472.76 L 435.50 472.50 L 429.58 470.25 C421.29,467.09 415.33,463.42 409.40,457.81 C405.02,453.67 403.20,452.72 396.40,451.00 C376.28,445.93 363.23,435.84 348.70,414.12 L 339.92 401.00 L 226.46 401.00 C158.77,401.00 113.00,401.37 113.00,401.91 C113.00,402.41 114.75,405.90 116.88,409.66 C119.01,413.42 128.83,430.67 138.70,448.00 C148.57,465.33 161.29,487.71 166.96,497.75 L 177.27 516.00 L 758.08 516.00 L 1338.90 516.00 L 1343.52 507.52 ZM 442.50 446.94 C437.25,446.42 431.20,444.42 432.16,443.53 C432.35,443.36 434.75,443.59 437.50,444.05 C440.25,444.51 612.80,444.91 820.95,444.94 C1123.05,444.99 1199.15,445.25 1198.15,446.25 C1197.16,447.24 1120.06,447.50 822.70,447.51 C616.89,447.52 445.80,447.26 442.50,446.94 ZM 394.19 409.02 C389.56,405.67 385.09,400.28 376.70,387.92 L 370.94 379.44 L 372.61 374.97 C373.92,371.49 374.43,365.50 374.90,348.00 L 375.50 325.50 L 386.15 325.22 L 396.81 324.93 L 397.37 334.22 C397.91,343.10 400.04,403.53 400.01,409.25 C400.00,412.72 399.26,412.70 394.19,409.02 ZM 397.28 403.75 C397.15,401.41 396.56,383.53 395.97,364.00 C395.38,344.48 394.54,328.14 394.10,327.70 C393.65,327.25 389.91,327.20 385.79,327.57 L 378.28 328.25 L 377.71 347.88 C377.33,360.98 376.62,369.43 375.57,373.31 L 373.99 379.13 L 382.08 391.05 C388.91,401.14 394.91,407.94 397.01,407.99 C397.29,407.99 397.41,406.09 397.28,403.75 ZM 600.56 414.75 C600.35,414.06 600.25,395.95 600.34,374.50 L 600.50 335.50 L 616.49 335.50 L 632.49 335.50 L 634.14 366.00 C635.04,382.77 636.06,400.89 636.40,406.25 L 637.01 416.00 L 618.97 416.00 C605.41,416.00 600.84,415.69 600.56,414.75 ZM 633.99 409.75 C633.99,407.96 633.10,391.20 632.01,372.50 C630.92,353.80 630.02,338.39 630.01,338.25 C630.01,338.11 623.92,338.00 616.50,338.00 L 603.00 338.00 L 603.00 375.50 L 603.00 413.00 L 618.50 413.00 L 634.00 413.00 L 633.99 409.75 ZM 837.00 405.25 C837.00,399.34 837.30,384.71 837.66,372.75 L 838.32 351.00 L 845.41 350.99 C849.31,350.99 856.30,350.55 860.94,350.01 C865.58,349.48 869.51,349.18 869.67,349.34 C869.83,349.50 870.86,361.98 871.95,377.06 C873.05,392.15 874.20,407.09 874.52,410.25 L 875.10 416.00 L 856.05 416.00 L 837.00 416.00 L 837.00 405.25 ZM 871.71 406.75 C871.38,403.31 870.37,389.70 869.44,376.50 C868.52,363.30 867.69,352.41 867.60,352.30 C867.43,352.09 840.65,354.13 840.33,354.37 C840.24,354.44 840.02,367.66 839.83,383.75 L 839.50 413.00 L 855.89 413.00 L 872.29 413.00 L 871.71 406.75 ZM 1243.00 362.00 L 1243.00 351.00 L 1254.50 351.00 L 1266.00 351.00 L 1266.00 362.00 L 1266.00 373.00 L 1254.50 373.00 L 1243.00 373.00 L 1243.00 362.00 ZM 1264.00 361.50 L 1264.00 353.00 L 1254.50 353.00 L 1245.00 353.00 L 1245.00 361.50 L 1245.00 370.00 L 1254.50 370.00 L 1264.00 370.00 L 1264.00 361.50 ZM 1283.00 362.00 L 1283.00 351.00 L 1295.50 351.00 L 1308.00 351.00 L 1308.00 362.00 L 1308.00 373.00 L 1295.50 373.00 L 1283.00 373.00 L 1283.00 362.00 ZM 1305.79 361.75 L 1305.50 353.50 L 1295.25 353.22 L 1285.00 352.93 L 1285.00 361.47 L 1285.00 370.00 L 1295.54 370.00 L 1306.08 370.00 L 1305.79 361.75 ZM 1132.00 374.00 L 1132.00 357.00 L 1144.50 357.00 L 1157.00 357.00 L 1157.00 374.00 L 1157.00 391.00 L 1144.50 391.00 L 1132.00 391.00 L 1132.00 374.00 ZM 1154.78 373.75 L 1154.50 359.50 L 1144.25 359.22 L 1134.00 358.93 L 1134.00 373.47 L 1134.00 388.00 L 1144.53 388.00 L 1155.05 388.00 L 1154.78 373.75 ZM 1165.00 374.00 L 1165.00 356.95 L 1179.15 357.22 L 1193.29 357.50 L 1193.40 374.00 L 1193.50 390.50 L 1179.25 390.78 L 1165.00 391.05 L 1165.00 374.00 ZM 1191.00 373.50 L 1191.00 359.00 L 1179.00 359.00 L 1167.00 359.00 L 1167.00 373.50 L 1167.00 388.00 L 1179.00 388.00 L 1191.00 388.00 L 1191.00 373.50 ZM 1105.00 374.04 L 1105.00 363.00 L 1112.53 363.00 L 1120.07 363.00 L 1119.78 373.75 L 1119.50 384.50 L 1112.25 384.79 L 1105.00 385.09 L 1105.00 374.04 ZM 1117.00 373.45 L 1117.00 364.89 L 1112.25 365.20 L 1107.50 365.50 L 1107.50 373.74 L 1107.50 381.99 L 1112.25 381.99 L 1117.00 382.00 L 1117.00 373.45 ZM 1111.73 322.29 C1111.50,321.85 1111.51,317.11 1111.77,311.75 L 1112.24 302.00 L 1119.87 302.02 C1124.07,302.02 1128.08,302.40 1128.79,302.85 C1129.73,303.44 1130.00,306.22 1129.79,313.08 L 1129.50 322.50 L 1120.83 322.79 C1116.07,322.95 1111.97,322.72 1111.73,322.29 ZM 1127.00 312.90 L 1127.00 305.00 L 1120.50 305.00 L 1114.00 305.00 L 1114.00 312.75 L 1114.00 320.50 L 1120.50 320.65 L 1127.00 320.80 L 1127.00 312.90 ZM 1137.21 312.75 L 1137.50 302.50 L 1142.43 302.19 C1151.97,301.58 1152.00,301.62 1152.00,313.02 L 1152.00 323.00 L 1144.46 323.00 L 1136.93 323.00 L 1137.21 312.75 ZM 1149.79 312.63 L 1150.08 305.00 L 1144.54 305.00 L 1139.00 305.00 L 1139.00 312.33 C1139.00,316.37 1139.19,319.85 1139.42,320.08 C1139.64,320.31 1142.01,320.45 1144.67,320.38 L 1149.50 320.26 L 1149.79 312.63 ZM 1160.43 321.67 C1160.15,320.94 1160.05,316.33 1160.21,311.42 L 1160.50 302.50 L 1177.00 302.50 L 1193.50 302.50 L 1193.79 312.75 L 1194.07 323.00 L 1177.50 323.00 C1164.65,323.00 1160.82,322.70 1160.43,321.67 ZM 1191.00 312.75 L 1191.00 305.00 L 1177.00 305.00 L 1163.00 305.00 L 1163.00 312.75 L 1163.00 320.50 L 1177.00 320.50 L 1191.00 320.50 L 1191.00 312.75 ZM 838.42 288.41 C838.82,269.21 839.45,249.90 839.82,245.50 L 840.50 237.50 L 850.50 237.50 L 860.50 237.50 L 862.18 247.00 C864.60,260.70 866.93,284.95 867.67,304.09 L 868.30 320.69 L 865.17 321.32 C863.45,321.66 856.57,322.25 849.87,322.63 L 837.70 323.32 L 838.42 288.41 ZM 859.75 319.38 C864.71,318.95 866.00,318.50 866.00,317.17 C865.99,302.37 863.12,268.94 860.29,250.75 L 858.61 240.00 L 850.87 240.00 L 843.12 240.00 L 842.57 244.25 C841.13,255.28 839.93,292.07 840.56,305.72 L 841.27 320.94 L 847.38 320.43 C850.75,320.15 856.31,319.68 859.75,319.38 ZM 1237.42 322.08 C1237.19,321.85 1237.00,314.99 1237.00,306.83 L 1237.00 292.00 L 1255.03 292.00 L 1273.05 292.00 L 1272.78 307.25 L 1272.50 322.50 L 1255.17 322.50 C1245.64,322.50 1237.65,322.31 1237.42,322.08 ZM 1271.00 307.50 L 1271.00 295.00 L 1255.00 295.00 L 1239.00 295.00 L 1239.00 306.83 C1239.00,313.34 1239.30,318.97 1239.67,319.33 C1240.03,319.70 1247.23,320.00 1255.67,320.00 L 1271.00 320.00 L 1271.00 307.50 ZM 601.00 289.11 C601.00,270.97 603.42,242.24 606.55,223.25 L 607.09 220.00 L 615.93 220.00 L 624.78 220.00 L 625.36 223.25 C627.01,232.53 631.00,288.34 631.00,302.25 L 631.00 307.00 L 616.00 307.00 L 601.00 307.00 L 601.00 289.11 ZM 627.66 284.75 C627.06,266.40 624.96,238.14 623.39,227.25 L 622.77 223.00 L 615.97 223.00 C609.34,223.00 609.14,223.07 608.60,225.75 C606.74,234.79 603.79,267.37 603.29,284.22 L 602.71 303.94 L 615.11 304.25 C621.92,304.43 627.68,304.66 627.91,304.78 C628.13,304.90 628.02,295.89 627.66,284.75 ZM 376.24 265.25 L 376.50 233.50 L 385.00 233.50 L 393.50 233.50 L 394.20 241.00 C395.40,253.86 397.10,295.03 396.48,296.04 C396.15,296.57 391.40,297.00 385.93,297.00 L 375.97 297.00 L 376.24 265.25 ZM 394.00 284.75 C393.99,274.41 392.31,244.27 391.46,239.25 C390.91,236.02 390.87,236.00 385.10,236.00 L 379.29 236.00 L 378.65 242.75 C378.30,246.46 378.01,259.51 378.01,271.75 L 378.00 294.00 L 386.00 294.00 L 394.00 294.00 L 394.00 284.75 ZM 1169.64 242.75 C1169.99,232.71 1170.44,224.31 1170.64,224.08 C1171.59,222.99 1171.87,225.79 1172.55,242.75 C1173.27,260.94 1173.27,261.00 1171.14,261.00 C1169.02,261.00 1169.01,260.91 1169.64,242.75 ZM 379.72 211.25 C379.51,210.84 379.73,208.59 380.22,206.25 C381.09,202.13 381.24,202.00 385.00,202.00 C389.46,202.00 389.70,202.24 390.59,207.85 L 391.26 212.00 L 385.69 212.00 C382.62,212.00 379.94,211.66 379.72,211.25 ZM 388.00 206.50 C388.00,204.53 387.49,204.00 385.61,204.00 C383.44,204.00 382.00,205.63 382.00,208.08 C382.00,208.59 383.35,209.00 385.00,209.00 C387.53,209.00 388.00,208.61 388.00,206.50 ZM 1280.65 608.32 C1280.29,607.96 1280.00,606.84 1280.00,605.83 C1280.00,604.30 1280.82,604.00 1285.07,604.00 C1289.67,604.00 1290.11,604.20 1289.82,606.12 C1289.56,607.81 1288.67,608.32 1285.40,608.61 C1283.15,608.81 1281.01,608.68 1280.65,608.32 ZM 174.94 504.25 C172.61,499.99 159.07,476.11 144.85,451.18 C130.63,426.25 119.00,405.66 119.00,405.43 C119.00,405.19 168.25,405.00 228.45,405.00 L 337.91 405.00 L 345.99 416.93 C354.61,429.64 361.98,437.83 369.42,442.95 C375.96,447.44 387.43,452.68 394.92,454.57 C400.05,455.87 402.86,457.44 408.92,462.36 C413.09,465.75 419.31,469.78 422.74,471.31 C436.42,477.43 407.71,477.04 820.72,476.76 L 1198.50 476.50 L 1204.09 474.36 C1213.24,470.85 1216.22,469.06 1222.00,463.55 C1225.17,460.53 1229.48,457.59 1232.18,456.60 C1239.45,453.94 1248.03,447.92 1253.60,441.57 C1256.77,437.96 1259.29,435.92 1260.34,436.14 C1261.59,436.41 1260.41,438.17 1255.62,443.20 C1248.69,450.46 1239.59,456.85 1232.18,459.66 C1229.50,460.68 1225.54,463.43 1222.92,466.11 C1217.66,471.48 1213.32,473.91 1203.63,476.89 L 1196.75 479.01 L 817.61 479.01 L 438.47 479.00 L 430.99 476.93 C421.41,474.27 413.65,470.11 406.65,463.87 C402.50,460.18 399.62,458.53 395.35,457.42 C381.98,453.94 370.59,447.90 360.93,439.18 C354.75,433.61 344.71,420.83 340.17,412.75 L 337.50 408.00 L 230.75 408.00 C172.04,408.00 124.00,408.22 124.00,408.50 C124.00,409.24 131.91,423.39 154.73,463.50 C166.00,483.30 176.55,501.86 178.18,504.75 L 181.15 510.00 L 758.31 509.75 L 1335.47 509.50 L 1340.67 499.00 C1349.02,482.16 1353.21,467.89 1357.50,441.75 L 1357.95 439.00 L 1313.07 439.00 L 1268.20 439.00 L 1258.35 448.83 C1250.01,457.15 1247.05,459.38 1239.07,463.37 C1233.88,465.96 1227.66,469.90 1225.25,472.13 C1220.65,476.36 1211.69,481.03 1202.77,483.82 C1197.92,485.34 1167.76,485.50 821.50,485.76 C567.09,485.95 443.32,485.71 438.77,485.02 C425.90,483.05 414.51,478.00 404.00,469.60 C399.21,465.77 395.79,463.95 391.00,462.65 C376.58,458.74 360.18,448.67 350.57,437.82 C347.98,434.90 343.08,428.34 339.68,423.25 L 333.50 414.00 L 233.71 414.00 L 133.92 414.00 L 136.34 418.25 C137.68,420.59 143.60,431.05 149.50,441.50 C155.40,451.95 165.85,470.29 172.71,482.25 L 185.19 504.00 L 758.10 503.96 L 1331.02 503.91 L 1334.51 496.98 C1341.88,482.35 1347.82,463.92 1349.58,450.25 L 1350.26 445.00 L 1310.85 445.00 L 1271.45 445.00 L 1264.47 452.08 C1255.91,460.79 1247.30,467.08 1238.53,471.06 C1234.87,472.72 1229.95,475.85 1227.60,478.01 C1222.35,482.85 1213.05,487.30 1202.59,489.98 C1194.72,491.99 1192.84,492.00 817.09,491.99 C448.22,491.99 439.32,491.94 431.50,490.07 C418.96,487.06 407.12,481.11 399.50,473.99 C397.67,472.28 392.90,469.99 387.26,468.12 C365.00,460.72 350.03,449.38 335.99,429.25 L 329.54 420.00 L 237.27 420.00 C186.52,420.00 145.00,420.19 145.00,420.42 C145.00,420.65 147.40,425.04 150.33,430.17 C153.26,435.30 162.99,452.44 171.95,468.25 L 188.24 497.00 L 758.01 497.00 L 1327.79 497.00 L 1332.36 486.56 C1336.67,476.70 1341.16,462.78 1342.52,455.00 L 1343.13 451.50 L 1308.37 451.80 L 1273.62 452.10 L 1266.03 459.35 C1257.04,467.94 1251.85,471.64 1242.22,476.33 C1238.29,478.24 1233.15,481.37 1230.79,483.29 C1228.43,485.20 1224.93,487.72 1223.00,488.88 L 1219.50 490.99 L 1271.53 491.00 L 1323.55 491.00 L 1326.39 484.50 C1329.60,477.12 1335.00,461.35 1335.00,459.34 C1335.00,458.25 1329.53,458.00 1305.71,458.00 L 1276.42 458.00 L 1271.46 463.06 C1264.31,470.35 1257.02,475.74 1247.68,480.65 L 1239.50 484.95 L 1279.50 484.73 L 1319.50 484.50 L 1323.18 475.50 C1325.20,470.55 1326.89,465.94 1326.93,465.25 C1326.97,464.54 1325.84,464.00 1324.33,464.00 C1322.87,464.00 1321.94,464.27 1322.27,464.61 C1322.89,465.23 1318.36,478.88 1317.08,480.26 C1316.69,480.69 1302.71,480.91 1286.01,480.76 L 1255.64 480.50 L 1260.05 477.59 C1262.47,475.99 1267.76,471.54 1271.81,467.71 L 1279.17 460.74 L 1304.07 461.19 C1317.76,461.43 1329.25,461.91 1329.59,462.25 C1330.29,462.96 1326.77,474.02 1323.41,481.60 C1321.21,486.58 1321.01,486.74 1316.16,487.38 C1309.87,488.22 1232.00,487.98 1232.01,487.13 C1232.03,486.23 1238.18,482.37 1242.46,480.58 C1249.11,477.80 1262.40,468.42 1269.26,461.66 L 1276.02 455.00 L 1307.01 455.00 C1336.72,455.00 1338.00,455.08 1338.00,456.89 C1338.00,460.26 1333.21,475.28 1329.19,484.50 L 1325.27 493.50 L 1265.63 493.76 C1211.11,493.99 1199.12,493.54 1209.25,491.60 C1214.40,490.62 1223.02,486.25 1229.00,481.60 C1232.03,479.24 1238.31,475.34 1242.97,472.93 C1252.49,468.00 1263.84,459.29 1268.80,453.11 L 1272.09 449.00 L 1309.09 449.00 L 1346.09 449.00 L 1345.42 452.75 C1342.95,466.52 1336.25,486.37 1330.73,496.25 L 1328.63 500.00 L 757.89 500.00 L 187.16 500.00 L 167.95 466.25 C141.19,419.22 141.00,418.87 141.00,418.41 C141.00,418.19 183.87,418.00 236.27,418.00 L 331.53 418.00 L 337.02 426.23 C350.40,446.32 367.88,459.72 388.83,465.95 C394.24,467.56 397.76,469.44 402.33,473.13 C409.63,479.05 421.74,485.08 431.50,487.66 C438.24,489.43 452.30,489.50 817.00,489.50 L 1195.50 489.50 L 1203.30 487.24 C1213.22,484.36 1222.03,479.92 1227.33,475.11 C1229.63,473.04 1234.65,469.88 1238.50,468.11 C1247.17,464.11 1258.32,455.68 1264.49,448.46 L 1269.15 443.00 L 1311.17 443.00 L 1353.19 443.00 L 1352.52 448.25 C1350.57,463.66 1343.81,484.96 1336.37,499.11 L 1332.75 506.00 L 758.07 506.00 L 183.38 506.00 L 159.04 463.25 C145.65,439.74 133.59,418.59 132.25,416.25 L 129.81 412.00 L 232.65 412.04 L 335.50 412.08 L 339.70 418.79 C353.58,440.97 370.23,454.23 391.55,460.08 C397.87,461.81 400.47,463.14 404.32,466.60 C410.35,472.02 417.75,476.29 427.19,479.79 L 434.50 482.50 L 814.32 482.76 C1230.78,483.04 1199.43,483.48 1213.23,477.18 C1216.68,475.60 1221.76,472.27 1224.52,469.77 C1227.28,467.27 1232.46,463.89 1236.02,462.26 C1244.91,458.19 1253.80,451.36 1260.04,443.82 C1262.93,440.35 1265.78,437.18 1266.39,436.79 C1267.67,435.96 1348.15,435.86 1355.38,436.67 L 1360.26 437.22 L 1359.64 443.15 C1357.69,461.81 1351.27,483.51 1342.56,500.88 L 1336.98 512.00 L 758.08 512.00 L 179.18 512.00 L 174.94 504.25 ZM 1318.06 471.53 C1319.68,467.69 1321.00,464.43 1321.00,464.28 C1321.00,464.13 1311.63,464.00 1300.17,464.00 L 1279.35 464.00 L 1276.92 466.63 C1275.59,468.08 1271.88,471.46 1268.68,474.15 L 1262.86 479.03 L 1288.99 478.77 L 1315.12 478.50 L 1318.06 471.53 ZM 247.82 494.24 L 191.13 493.98 L 187.69 488.24 C184.44,482.84 167.63,453.12 156.86,433.75 C154.19,428.93 152.00,424.77 152.00,424.50 C152.00,424.22 191.59,424.00 239.97,424.00 L 327.94 424.00 L 333.12 431.75 C346.01,451.03 366.43,466.15 388.01,472.40 C391.50,473.42 395.53,475.67 399.01,478.56 C404.74,483.32 420.16,491.36 425.74,492.49 C427.52,492.86 429.18,493.48 429.43,493.88 C429.87,494.61 358.51,494.75 247.82,494.24 ZM 411.04 489.47 C407.48,487.56 401.90,483.92 398.64,481.38 C394.65,478.29 389.93,475.83 384.24,473.91 C363.18,466.79 345.39,453.42 332.04,434.67 L 326.57 427.00 L 241.23 427.00 C194.29,427.00 156.07,427.34 156.30,427.75 C156.54,428.16 161.80,437.50 168.00,448.50 C185.83,480.16 192.35,491.20 193.47,491.62 C194.03,491.84 241.01,491.90 297.87,491.76 L 401.23 491.50 L 395.29 486.89 C392.03,484.35 386.91,481.49 383.93,480.52 C374.32,477.40 360.57,470.30 352.43,464.25 C343.77,457.81 332.39,446.16 326.96,438.15 L 323.50 433.05 L 245.25 433.03 C202.21,433.01 167.00,433.16 167.00,433.35 C167.00,433.86 188.65,472.58 192.61,479.13 L 196.00 484.77 L 227.25 485.45 C244.44,485.82 285.67,485.98 318.88,485.81 L 379.26 485.50 L 371.38 482.27 C354.81,475.49 335.86,460.64 324.91,445.87 L 319.81 439.00 L 248.91 439.00 C209.91,439.00 178.00,439.28 178.00,439.62 C178.00,440.16 182.37,447.79 186.72,454.84 L 188.16 457.18 L 190.23 453.01 C191.36,450.71 193.12,448.31 194.15,447.68 C196.53,446.19 196.52,445.00 194.12,445.00 C193.09,445.00 191.62,445.93 190.87,447.08 C189.51,449.12 189.46,449.11 187.21,446.08 L 184.94 443.00 L 251.75 443.00 L 318.57 443.00 L 320.30 445.94 C325.19,454.21 343.89,471.47 355.62,478.53 L 361.38 482.00 L 280.44 481.97 L 199.50 481.94 L 194.78 476.43 C192.02,473.21 189.60,469.16 188.96,466.71 C187.66,461.76 187.08,460.59 179.56,447.66 C176.42,442.25 174.00,437.67 174.19,437.47 C174.56,437.10 233.56,436.83 289.58,436.94 L 321.67 437.00 L 325.47 442.51 C331.22,450.87 344.03,463.23 353.25,469.33 C363.27,475.95 369.57,479.15 380.31,483.11 C384.81,484.77 388.93,486.55 389.45,487.07 C390.05,487.66 353.90,487.91 292.45,487.75 L 194.50 487.50 L 187.63 475.50 C174.57,452.69 163.00,431.72 163.00,430.85 C163.00,430.37 198.76,430.12 244.18,430.29 C307.06,430.52 325.45,430.86 325.77,431.81 C325.99,432.48 329.24,437.00 332.98,441.84 C346.09,458.80 362.80,470.58 383.69,477.60 C387.97,479.03 392.90,481.46 394.64,482.99 C401.33,488.86 406.66,491.87 411.08,492.26 C413.51,492.47 415.95,492.72 416.50,492.80 C417.05,492.89 414.59,491.39 411.04,489.47 ZM 352.00 479.55 C352.00,479.30 349.86,477.65 347.25,475.88 C339.03,470.32 327.94,459.85 322.24,452.29 L 316.76 445.00 L 277.24 445.00 L 237.73 445.00 L 240.28 447.00 C243.81,449.79 247.00,456.82 247.00,461.85 C247.00,467.49 244.74,472.56 240.42,476.64 L 236.86 480.00 L 294.43 480.00 C326.09,480.00 352.00,479.80 352.00,479.55 ZM 235.36 476.62 C239.40,474.93 242.62,471.00 244.16,465.86 C246.56,457.84 240.75,448.37 231.94,445.97 C225.43,444.19 204.06,445.31 199.21,447.69 C188.54,452.93 188.16,469.19 198.56,476.05 C201.15,477.75 203.34,477.99 216.78,477.99 C227.52,478.00 233.05,477.59 235.36,476.62 ZM 385.15 389.19 L 377.81 378.59 L 379.08 374.55 C379.83,372.18 380.60,362.42 380.93,351.00 L 381.50 331.50 L 386.50 331.50 L 391.50 331.50 L 392.25 358.50 C392.66,373.35 392.89,388.71 392.75,392.64 L 392.50 399.78 L 385.15 389.19 ZM 390.41 377.25 C389.06,334.15 389.04,334.00 386.40,334.00 C384.05,334.00 384.00,334.19 383.98,342.75 C383.97,352.29 382.50,372.14 381.53,376.05 C381.07,377.88 382.01,380.21 385.21,385.25 C387.57,388.96 389.80,392.00 390.18,392.00 C390.56,392.00 390.66,385.36 390.41,377.25 ZM 610.00 409.29 L 606.50 408.91 L 606.78 374.95 L 607.05 341.00 L 616.56 341.00 C623.28,341.00 626.18,341.37 626.46,342.25 C626.91,343.67 630.01,399.22 630.01,405.75 L 630.00 410.00 L 621.75 409.83 C617.21,409.74 611.92,409.49 610.00,409.29 ZM 627.59 401.75 C627.29,398.86 626.57,386.15 625.99,373.50 C625.41,360.85 624.71,349.04 624.42,347.25 L 623.91 344.00 L 616.45 344.00 L 609.00 344.00 L 609.00 375.50 L 609.00 407.00 L 618.57 407.00 L 628.14 407.00 L 627.59 401.75 ZM 848.16 409.28 L 842.82 408.89 L 843.54 383.19 C843.93,369.06 844.31,357.45 844.38,357.39 C844.44,357.33 848.85,357.00 854.18,356.67 L 863.85 356.06 L 864.38 358.78 C865.09,362.43 867.47,397.08 867.49,404.00 L 867.50 409.50 L 860.50 409.58 C856.65,409.63 851.10,409.49 848.16,409.28 ZM 864.98 401.75 C864.97,398.86 864.30,388.40 863.51,378.50 C862.71,368.60 862.04,360.16 862.03,359.75 C861.99,358.85 854.94,358.78 849.75,359.64 L 846.00 360.26 L 846.00 383.63 L 846.00 407.00 L 855.50 407.00 L 865.00 407.00 L 864.98 401.75 ZM 1249.20 361.76 L 1249.50 356.53 L 1255.00 356.51 L 1260.50 356.50 L 1260.80 361.75 L 1261.10 367.00 L 1255.00 367.00 L 1248.90 367.00 L 1249.20 361.76 ZM 1258.00 362.00 C1258.00,359.24 1257.72,359.00 1254.50,359.00 C1251.28,359.00 1251.00,359.24 1251.00,362.00 C1251.00,364.76 1251.28,365.00 1254.50,365.00 C1257.72,365.00 1258.00,364.76 1258.00,362.00 ZM 1288.00 362.00 L 1288.00 357.00 L 1295.00 357.00 L 1302.00 357.00 L 1302.00 362.00 L 1302.00 367.00 L 1295.00 367.00 L 1288.00 367.00 L 1288.00 362.00 ZM 1300.00 362.00 C1300.00,359.13 1299.81,359.00 1295.67,359.00 C1290.53,359.00 1290.14,359.28 1290.76,362.52 C1291.18,364.71 1291.75,365.00 1295.62,365.00 C1299.82,365.00 1300.00,364.88 1300.00,362.00 ZM 1137.71 384.37 C1137.32,383.99 1137.00,379.02 1137.00,373.33 L 1137.00 363.00 L 1144.53 363.00 L 1152.07 363.00 L 1151.78 373.75 L 1151.50 384.50 L 1144.96 384.79 C1141.36,384.95 1138.10,384.76 1137.71,384.37 ZM 1149.00 373.50 L 1149.00 365.00 L 1144.50 365.00 L 1140.00 365.00 L 1140.00 373.50 L 1140.00 382.00 L 1144.50 382.00 L 1149.00 382.00 L 1149.00 373.50 ZM 1170.70 384.37 C1170.32,383.98 1170.00,379.02 1170.00,373.33 L 1170.00 363.00 L 1179.03 363.00 L 1188.07 363.00 L 1187.78 373.75 L 1187.50 384.50 L 1179.45 384.79 C1175.03,384.95 1171.09,384.76 1170.70,384.37 ZM 1185.00 373.45 L 1185.00 364.90 L 1178.84 365.20 L 1172.67 365.50 L 1172.54 373.75 L 1172.42 382.00 L 1178.71 382.00 L 1185.00 382.00 L 1185.00 373.45 ZM 1111.00 374.00 C1111.00,370.22 1111.37,369.00 1112.50,369.00 C1113.63,369.00 1114.00,370.22 1114.00,374.00 C1114.00,377.78 1113.63,379.00 1112.50,379.00 C1111.37,379.00 1111.00,377.78 1111.00,374.00 ZM 1117.19 312.75 C1117.48,308.76 1117.70,308.48 1120.75,308.19 C1123.99,307.87 1124.00,307.89 1124.00,312.44 C1124.00,317.00 1124.00,317.00 1120.44,317.00 L 1116.89 317.00 L 1117.19 312.75 ZM 1122.00 312.44 C1122.00,311.65 1121.32,311.00 1120.50,311.00 C1118.99,311.00 1118.44,313.11 1119.64,314.31 C1120.57,315.24 1122.00,314.11 1122.00,312.44 ZM 1142.19 312.75 C1142.44,309.27 1142.86,308.50 1144.50,308.50 C1146.14,308.50 1146.56,309.27 1146.81,312.75 C1147.10,316.74 1146.96,317.00 1144.50,317.00 C1142.04,317.00 1141.90,316.74 1142.19,312.75 ZM 1144.68 311.81 C1144.36,311.01 1144.13,311.25 1144.08,312.42 C1144.04,313.47 1144.27,314.06 1144.60,313.73 C1144.94,313.40 1144.97,312.53 1144.68,311.81 ZM 1166.19 312.75 L 1166.50 308.50 L 1177.00 308.50 L 1187.50 308.50 L 1187.81 312.75 L 1188.11 317.00 L 1177.00 317.00 L 1165.89 317.00 L 1166.19 312.75 ZM 1186.00 312.44 C1186.00,311.29 1184.17,311.00 1177.00,311.00 C1169.78,311.00 1168.00,311.29 1168.00,312.46 C1168.00,313.60 1169.82,313.98 1176.25,314.21 C1185.53,314.54 1186.00,314.45 1186.00,312.44 ZM 844.42 287.25 C844.82,270.89 845.45,254.35 845.82,250.50 L 846.50 243.50 L 850.97 243.50 L 855.44 243.50 L 856.66 250.79 C858.50,261.79 860.83,285.77 861.60,301.59 L 862.28 315.69 L 857.50 316.34 C854.87,316.71 850.69,317.00 848.21,317.00 L 843.69 317.00 L 844.42 287.25 ZM 859.29 313.25 C860.43,311.18 856.63,264.16 854.16,249.68 C853.55,246.09 853.09,245.50 850.97,245.50 C848.55,245.50 848.49,245.70 847.88,255.50 C847.54,261.00 846.90,276.41 846.47,289.75 L 845.68 314.00 L 852.28 314.00 C855.91,314.00 859.07,313.66 859.29,313.25 ZM 1243.00 307.50 L 1243.00 298.00 L 1255.00 298.00 L 1267.00 298.00 L 1267.00 307.50 L 1267.00 317.00 L 1255.00 317.00 L 1243.00 317.00 L 1243.00 307.50 ZM 1265.00 307.54 L 1265.00 300.00 L 1255.00 300.00 L 1245.00 300.00 L 1245.00 306.83 C1245.00,310.59 1245.19,313.85 1245.43,314.08 C1245.66,314.31 1250.16,314.63 1255.43,314.79 L 1265.00 315.07 L 1265.00 307.54 ZM 607.00 286.65 C607.00,273.35 608.32,256.84 611.14,234.75 L 612.26 226.00 L 615.99 226.00 L 619.72 226.00 L 620.86 237.75 C622.45,254.03 623.83,275.34 624.20,289.00 L 624.50 300.50 L 615.75 300.79 L 607.00 301.08 L 607.00 286.65 ZM 621.08 272.50 C619.13,239.99 617.85,229.00 616.00,229.00 C614.65,229.00 614.08,231.45 612.65,243.25 C610.31,262.62 609.04,278.77 609.02,289.20 L 609.00 297.90 L 615.25 298.20 L 621.50 298.50 L 621.83 294.50 C622.01,292.30 621.67,282.40 621.08,272.50 ZM 382.23 265.25 L 382.50 239.50 L 384.98 239.50 C388.13,239.50 388.58,241.89 389.43,263.00 C389.78,271.52 390.31,281.31 390.61,284.75 L 391.16 291.00 L 386.56 291.00 L 381.97 291.00 L 382.23 265.25 ZM 387.62 271.75 C387.25,262.81 386.62,252.35 386.23,248.50 L 385.52 241.50 L 384.86 250.00 C384.50,254.68 384.15,265.14 384.10,273.25 C384.00,287.71 384.04,288.00 386.15,288.00 C388.30,288.00 388.30,287.93 387.62,271.75 ZM 1277.00 471.50 L 1280.39 468.00 L 1297.70 468.00 C1307.21,468.00 1315.00,468.16 1315.00,468.35 C1315.00,468.54 1314.51,470.12 1313.90,471.85 L 1312.80 475.00 L 1293.21 475.00 L 1273.61 475.00 L 1277.00 471.50 ZM 1311.36 471.50 C1311.86,470.21 1310.01,470.00 1298.22,470.01 C1284.30,470.03 1280.00,470.52 1280.00,472.12 C1280.00,472.60 1286.93,473.00 1295.39,473.00 C1308.15,473.00 1310.88,472.74 1311.36,471.50 ZM 247.00 475.65 C247.00,475.46 247.79,473.78 248.75,471.90 C251.06,467.40 251.11,456.68 248.83,452.25 L 247.15 449.00 L 280.96 449.00 L 314.76 449.00 L 319.02 454.52 C321.36,457.56 327.07,463.64 331.71,468.02 L 340.13 476.00 L 293.57 476.00 C267.95,476.00 247.00,475.84 247.00,475.65 ZM 333.00 473.19 C333.00,472.74 331.69,471.41 330.10,470.23 C328.50,469.05 323.89,464.21 319.86,459.47 L 312.53 450.86 L 282.38 451.18 L 252.23 451.50 L 252.75 459.14 C253.05,463.50 252.81,468.12 252.19,469.88 L 251.11 472.98 L 289.31 473.25 C310.31,473.40 328.74,473.63 330.25,473.76 C331.76,473.89 333.00,473.63 333.00,473.19 ZM 202.42 474.03 C199.25,472.75 195.16,467.35 194.43,463.49 C193.57,458.90 196.51,453.27 201.03,450.84 C205.82,448.27 228.42,448.15 233.72,450.67 C243.29,455.21 243.29,468.79 233.72,473.33 C230.97,474.63 227.38,474.99 217.35,474.94 C210.28,474.90 203.56,474.49 202.42,474.03 ZM 235.08 469.08 C237.37,466.78 238.00,465.26 238.00,462.00 C238.00,458.74 237.37,457.22 235.08,454.92 L 232.15 452.00 L 217.50 452.00 L 202.85 452.00 L 199.92 454.92 C197.63,457.22 197.00,458.74 197.00,462.00 C197.00,465.26 197.63,466.78 199.92,469.08 L 202.85 472.00 L 217.50 472.00 L 232.15 472.00 L 235.08 469.08 ZM 613.00 375.00 L 613.00 347.00 L 617.00 347.00 C620.69,347.00 621.00,347.21 621.02,349.75 C621.03,351.26 621.70,363.30 622.49,376.50 C623.29,389.70 623.96,401.06 623.97,401.75 C623.99,402.60 622.25,403.00 618.50,403.00 L 613.00 403.00 L 613.00 375.00 ZM 621.02 398.75 C621.02,397.51 620.50,386.04 619.84,373.25 C618.75,351.82 618.51,350.00 616.83,350.00 C615.10,350.00 615.00,351.46 615.00,375.50 L 615.00 401.00 L 618.00 401.00 C620.44,401.00 621.00,400.58 621.02,398.75 ZM 849.37 400.75 C849.70,399.51 849.98,390.51 849.99,380.75 L 850.00 363.00 L 854.50 363.00 C858.38,363.00 859.00,363.28 859.00,365.06 C859.00,368.33 860.96,396.16 861.44,399.75 L 861.87 403.00 L 855.32 403.00 C849.01,403.00 848.79,402.92 849.37,400.75 ZM 858.47 392.25 C858.05,387.44 857.44,379.45 857.10,374.50 C856.56,366.37 856.31,365.50 854.50,365.50 C852.59,365.50 852.49,366.26 852.23,383.25 L 851.95 401.00 L 855.60 401.00 L 859.24 401.00 L 858.47 392.25 ZM 1143.00 374.00 C1143.00,370.22 1143.37,369.00 1144.50,369.00 C1145.63,369.00 1146.00,370.22 1146.00,374.00 C1146.00,377.78 1145.63,379.00 1144.50,379.00 C1143.37,379.00 1143.00,377.78 1143.00,374.00 ZM 1176.00 374.00 C1176.00,369.11 1176.07,369.00 1179.00,369.00 C1181.93,369.00 1182.00,369.11 1182.00,374.00 C1182.00,378.89 1181.93,379.00 1179.00,379.00 C1176.07,379.00 1176.00,378.89 1176.00,374.00 ZM 1180.00 374.50 C1180.00,373.12 1179.55,372.00 1179.00,372.00 C1178.45,372.00 1178.00,373.12 1178.00,374.50 C1178.00,375.88 1178.45,377.00 1179.00,377.00 C1179.55,377.00 1180.00,375.88 1180.00,374.50 ZM 850.71 310.38 C849.10,308.76 850.39,268.51 852.02,269.52 C853.03,270.14 855.14,290.51 855.34,301.50 C855.49,309.86 855.35,310.52 853.46,310.79 C852.34,310.95 851.10,310.77 850.71,310.38 ZM 852.73 296.78 C852.52,294.42 852.35,296.10 852.34,300.50 C852.34,304.90 852.51,306.82 852.73,304.78 C852.94,302.73 852.94,299.13 852.73,296.78 ZM 1248.67 310.33 C1248.30,309.97 1248.00,308.39 1248.00,306.83 L 1248.00 304.00 L 1255.00 304.00 L 1262.00 304.00 L 1262.00 307.50 L 1262.00 311.00 L 1255.67 311.00 C1252.18,311.00 1249.03,310.70 1248.67,310.33 ZM 1259.50 307.50 C1259.50,306.95 1257.59,306.36 1255.25,306.19 C1251.88,305.95 1251.00,306.22 1251.00,307.50 C1251.00,308.78 1251.88,309.05 1255.25,308.81 C1257.59,308.64 1259.50,308.05 1259.50,307.50 ZM 612.75 294.25 C612.15,293.04 613.76,261.08 614.56,258.16 C615.29,255.50 615.29,255.50 616.13,259.00 C616.59,260.92 617.27,269.81 617.64,278.75 L 618.31 295.00 L 615.72 295.00 C614.29,295.00 612.95,294.66 612.75,294.25 ZM 615.72 284.77 C615.50,282.97 615.32,284.20 615.31,287.50 C615.30,290.80 615.49,292.27 615.71,290.77 C615.94,289.27 615.95,286.57 615.72,284.77 ZM 257.00 462.50 L 257.00 455.00 L 284.29 455.00 L 311.57 455.00 L 317.29 461.99 C320.43,465.84 323.00,469.22 323.00,469.49 C323.00,469.77 308.15,470.00 290.00,470.00 L 257.00 470.00 L 257.00 462.50 ZM 314.34 462.50 L 310.58 458.00 L 285.04 458.00 L 259.50 458.00 L 259.50 462.50 L 259.50 467.00 L 288.80 467.00 L 318.10 467.00 L 314.34 462.50 ZM 202.06 466.57 C201.41,465.78 201.01,463.43 201.19,461.34 C201.65,455.69 203.97,454.89 218.84,455.22 C230.44,455.48 231.30,455.64 233.09,457.86 C235.54,460.89 235.51,463.49 233.00,466.00 C231.19,467.81 229.67,468.00 217.12,468.00 C206.31,468.00 202.98,467.68 202.06,466.57 ZM 231.39 463.75 C232.19,462.48 232.19,461.52 231.39,460.25 C230.45,458.77 228.42,458.46 218.03,458.22 C205.42,457.93 203.00,458.52 203.00,461.92 C203.00,465.53 205.05,466.07 217.87,465.78 C228.42,465.54 230.45,465.24 231.39,463.75 ZM 263.00 462.48 C263.00,461.16 266.00,461.00 286.17,461.23 C303.62,461.43 309.44,461.81 309.75,462.75 C310.08,463.73 305.01,464.00 286.58,464.00 C266.16,464.00 263.00,463.80 263.00,462.48 Z" fill="rgba(0,0,0,1)"/>
</g>
</svg>